<?xml version='1.0' encoding='utf-8'?>
<svg xmlns="http://www.w3.org/2000/svg" width="200.0mm" height="122.4mm" viewBox="-24158 -24178 652803 399492"><defs><style>.C1 {stroke: #000000; stroke-width: 652; stroke-opacity: 1.000; fill: none; fill-opacity: 1.000;}</style><style>.C2 {stroke: none; stroke-width: none; stroke-opacity: 1.000; fill: #000000; fill-opacity: 1.000;}</style></defs><rect fill="#ffffff" x="-24158" y="-24178" width="652803" height="399492" fill-opacity="1.0" /><g stroke-linecap="round" stroke-linejoin="round"><path d="M 273169 85839 l 268658 0" class="C1" /><path d="M 541827 85839 c 34595 0 62640 44207 62640 98740 c 0 54533 -28045 98740 -62640 98740 c -34595 0 -62640 -44207 -62640 -98740 c 0 -54533 28045 -98740 62640 -98740" class="C1" /><path d="M 305223 269412 c 18966 -17807 30586 -50035 30586 -84833 c 0 -34798 -11620 -67026 -30586 -84833" class="C1" /><path d="M 273169 283319 l 268658 0" class="C1" /><path d="M 273169 85839 c -34595 0 -62640 44207 -62640 98740 c 0 54533 28045 98740 62640 98740" class="C1" /><path d="M 253699 213784 l -191981 0" class="C1" /><path d="M 273169 233254 c 0 -10753 -8717 -19470 -19470 -19470" class="C1" /><path d="M 253699 155374 c 10753 0 19470 -8717 19470 -19470" class="C1" /><path d="M 253699 155374 l -191981 0" class="C1" /><path d="M 76026 166700 c -4737 -9875 -12841 -13795 -20163 -9756 c -7322 4040 -12242 15146 -12242 27635 c 0 12488 4920 23595 12242 27635 c 7322 4040 15425 119 20163 -9756" class="C1" /><path d="M 77266 166500 c -4613 0 -8352 8094 -8352 18079 c 0 9985 3739 18079 8352 18079" class="C1" /><path d="M 77266 166500 l 103556 0" class="C1" /><path d="M 180822 166500 c 4613 0 8352 8094 8352 18079 c 0 9985 -3739 18079 -8352 18079 c -4613 0 -8352 -8094 -8352 -18079 c 0 -9985 3739 -18079 8352 -18079" class="C1" /><path d="M 77266 202658 l 103556 0" class="C1" /><path d="M 180822 177618 c 1515 0 2744 3117 2744 6961 c 0 3845 -1228 6961 -2744 6961 c -1515 0 -2744 -3117 -2744 -6961 c 0 -3845 1228 -6961 2744 -6961" class="C1" /><path d="M 70511 173948 l -65460 0" class="C1" /><path d="M 69326 178973 l -68391 0" class="C1" /><path d="M 68918 183999 l -66612 0" class="C1" /><path d="M 69227 189482 l -69207 0" class="C1" /><path d="M 70429 194964 l -67665 0" class="C1" /><path d="M 59928 192223 c 758 0 1372 1227 1372 2741 c 0 1514 -614 2741 -1372 2741 c -758 0 -1372 -1227 -1372 -2741 c 0 -1514 614 -2741 1372 -2741" class="C1" /><path d="M 53526 186740 c 758 0 1372 1227 1372 2741 c 0 1514 -614 2741 -1372 2741 c -758 0 -1372 -1227 -1372 -2741 c 0 -1514 614 -2741 1372 -2741" class="C1" /><path d="M 58099 180801 c 758 0 1372 1227 1372 2741 c 0 1514 -614 2741 -1372 2741 c -758 0 -1372 -1227 -1372 -2741 c 0 -1514 614 -2741 1372 -2741" class="C1" /><path d="M 64501 176689 c 758 0 1372 1227 1372 2741 c 0 1514 -614 2741 -1372 2741 c -758 0 -1372 -1227 -1372 -2741 c 0 -1514 614 -2741 1372 -2741" class="C1" /><path d="M 58556 171206 c 758 0 1372 1227 1372 2741 c 0 1514 -614 2741 -1372 2741 c -758 0 -1372 -1227 -1372 -2741 c 0 -1514 614 -2741 1372 -2741" class="C1" /><path d="M 343240 165526 l 73134 0" class="C1" /><path d="M 416373 165526 l 0 -13152" class="C1" /><path d="M 416373 152374 l -73134 0" class="C1" /><path d="M 343240 152374 l 0 13152" class="C1" /><path d="M 343240 152374 l 54555 -38200" class="C1" /><path d="M 416373 152374 l 54555 -38200" class="C1" /><path d="M 416373 165526 l 54555 -38200" class="C1" /><path d="M 397794 114174 l 73134 0" class="C1" /><path d="M 470928 114174 l 0 13152" class="C1" /><path d="M 416373 229823 l 54555 -38200" class="C1" /><path d="M 416373 216671 l 54555 -38200" class="C1" /><path d="M 397794 178472 l 73134 0" class="C1" /><path d="M 343240 216671 l 54555 -38200" class="C1" /><path d="M 416373 216671 l -73134 0" class="C1" /><path d="M 343240 229823 l 73134 0" class="C1" /><path d="M 343240 216671 l 0 13152" class="C1" /><path d="M 416373 229823 l 0 -13152" class="C1" /><path d="M 470928 178472 l 0 13152" class="C1" /><path d="M 410522 131916 l 0 -92062" class="C1" /><path d="M 411985 229823 l 0 102291" class="C1" /><path d="M 406866 332114 l 25 502 74 497 122 487 169 473 215 454 258 431 299 404 337 372 372 337 404 299 431 258 454 215 473 169 487 122 497 74 502 25 502 -25 497 -74 487 -122 473 -169 454 -215 431 -258 404 -299 372 -337 337 -372 299 -404 258 -431 215 -454 169 -473 122 -487 74 -497 25 -502 -5119 0 Z" class="C2" /><path d="M 417104 332114 l -25 -502 -74 -497 -122 -487 -169 -473 -215 -454 -258 -431 -299 -404 -337 -372 -372 -337 -404 -299 -431 -258 -454 -215 -473 -169 -487 -122 -497 -74 -502 -25 -502 25 -497 74 -487 122 -473 169 -454 215 -431 258 -404 299 -372 337 -337 372 -299 404 -258 431 -215 454 -169 473 -122 487 -74 497 -25 502 5119 0 Z" class="C2" /><path d="M 405403 39854 l 25 502 74 497 122 487 169 473 215 454 258 431 299 404 337 372 372 337 404 299 431 258 454 215 473 169 487 122 497 74 502 25 502 -25 497 -74 487 -122 473 -169 454 -215 431 -258 404 -299 372 -337 337 -372 299 -404 258 -431 215 -454 169 -473 122 -487 74 -497 25 -502 -5119 0 Z" class="C2" /><path d="M 415642 39854 l -25 -502 -74 -497 -122 -487 -169 -473 -215 -454 -258 -431 -299 -404 -337 -372 -372 -337 -404 -299 -431 -258 -454 -215 -473 -169 -487 -122 -497 -74 -502 -25 -502 25 -497 74 -487 122 -473 169 -454 215 -431 258 -404 299 -372 337 -337 372 -299 404 -258 431 -215 454 -169 473 -122 487 -74 497 -25 502 5119 0 Z" class="C2" /><path d="M 180822 184579 l 9393 0 m 14090 0 l 9393 0 m 14090 0 l 9393 0 m 14090 0 l 9393 0 m 14090 0 l 9393 0 m 14090 0 l 9393 0 m 14090 0 l 9393 0 m 14090 0 l 9393 0 m 14090 0 l 9393 0 m 14090 0 l 9393 0 m 14090 0 l 9393 0 m 14090 0 l 9393 0 m 14090 0 l 9393 0 m 14090 0 l 9393 0 m 14090 0 l 9393 0 m 14090 0 l 8758 0" class="C1" /><path d="M 180822 184579 l 0 0 l 22127 -3 l 21331 -19 l 20435 -51 l 19438 -100 l 18341 -165 l 17144 -247 l 15847 -344 l 14449 -458 l 13009 -590 l 11763 -752 l 10768 -946 l 10026 -1172 l 9534 -1430 l 9295 -1720 l 9308 -2041 l 9572 -2395 l 10112 -2812 l 11024 -3419 l 12332 -4248 l 14037 -5299 l 16137 -6572 l 18633 -8066 l 21526 -9782 l 24815 -11720" class="C1" /><path d="M 537382 120226 l 21 436 64 431 106 423 147 411 186 394 224 374 260 350 293 323 323 293 350 260 374 224 394 186 411 147 423 106 431 64 436 21 436 -21 431 -64 423 -106 411 -147 394 -186 374 -224 350 -260 323 -293 293 -323 260 -350 224 -374 186 -394 147 -411 106 -423 64 -431 21 -436 -4444 0 Z" class="C2" /><path d="M 546271 120226 l -21 -436 -64 -431 -106 -423 -147 -411 -186 -394 -224 -374 -260 -350 -293 -323 -323 -293 -350 -260 -374 -224 -394 -186 -411 -147 -423 -106 -431 -64 -436 -21 -436 21 -431 64 -423 106 -411 147 -394 186 -374 224 -350 260 -323 293 -293 323 -260 350 -224 374 -186 394 -147 411 -106 423 -64 431 -21 436 4444 0 Z" class="C2" /><path d="M 271876 217086 c 8304 -3987 14066 -17169 14088 -32224 c 22 -15055 -5703 -28287 -13995 -32347" class="C1" /><path d="M 418578 19459 l 40279 0" class="C1" /><path d="M 438717 0 l 0 38917" class="C1" /><path d="M 418578 351136 l 40279 0" class="C1" /></g></svg>
