<?xml version='1.0' encoding='UTF-8'?>
<!DOCTYPE svg PUBLIC "-//W3C//DTD SVG 1.1//EN" "http://www.w3.org/Graphics/SVG/1.1/DTD/svg11.dtd">
<svg xmlns="http://www.w3.org/2000/svg" xmlns:ooo="http://xml.openoffice.org/svg/export" xmlns:xlink="http://www.w3.org/1999/xlink" xmlns:presentation="http://sun.com/xmlns/staroffice/presentation" xmlns:smil="http://www.w3.org/2001/SMIL20/" xmlns:anim="urn:oasis:names:tc:opendocument:xmlns:animation:1.0" xmlns:svg="urn:oasis:names:tc:opendocument:xmlns:svg-compatible:1.0" version="1.2" width="50.450mm" height="8.820mm" viewBox="8272 13529 5045 882" preserveAspectRatio="xMidYMid" fill-rule="evenodd" stroke-width="28.222" stroke-linejoin="round" xml:space="preserve">
 <defs class="ClipPathGroup">
  <clipPath id="presentation_clip_path" clipPathUnits="userSpaceOnUse">
   <rect x="0" y="0" width="21590" height="27940"/>
  </clipPath>
  <clipPath id="presentation_clip_path_shrink" clipPathUnits="userSpaceOnUse">
   <rect x="21" y="27" width="21547" height="27885"/>
  </clipPath>
 </defs>
 <defs>
  </defs>
 <defs>
  </defs>
 <defs>
  </defs>
 <defs>
  </defs>
 <defs>
  </defs>
 <defs class="TextShapeIndex">
  <g ooo:slide="id1" ooo:id-list="id3"/>
 </defs>
 <defs class="EmbeddedBulletChars">
  <g id="bullet-char-template-57356" transform="scale(0.00048828125,-0.00048828125)">
   <path d="M 580,1141 L 1163,571 580,0 -4,571 580,1141 Z"/>
  </g>
  <g id="bullet-char-template-57354" transform="scale(0.00048828125,-0.00048828125)">
   <path d="M 8,1128 L 1137,1128 1137,0 8,0 8,1128 Z"/>
  </g>
  <g id="bullet-char-template-10146" transform="scale(0.00048828125,-0.00048828125)">
   <path d="M 174,0 L 602,739 174,1481 1456,739 174,0 Z M 1358,739 L 309,1346 659,739 1358,739 Z"/>
  </g>
  <g id="bullet-char-template-10132" transform="scale(0.00048828125,-0.00048828125)">
   <path d="M 2015,739 L 1276,0 717,0 1260,543 174,543 174,936 1260,936 717,1481 1274,1481 2015,739 Z"/>
  </g>
  <g id="bullet-char-template-10007" transform="scale(0.00048828125,-0.00048828125)">
   <path d="M 0,-2 C -7,14 -16,27 -25,37 L 356,567 C 262,823 215,952 215,954 215,979 228,992 255,992 264,992 276,990 289,987 310,991 331,999 354,1012 L 381,999 492,748 772,1049 836,1024 860,1049 C 881,1039 901,1025 922,1006 886,937 835,863 770,784 769,783 710,716 594,584 L 774,223 C 774,196 753,168 711,139 L 727,119 C 717,90 699,76 672,76 641,76 570,178 457,381 L 164,-76 C 142,-110 111,-127 72,-127 30,-127 9,-110 8,-76 1,-67 -2,-52 -2,-32 -2,-23 -1,-13 0,-2 Z"/>
  </g>
  <g id="bullet-char-template-10004" transform="scale(0.00048828125,-0.00048828125)">
   <path d="M 285,-33 C 182,-33 111,30 74,156 52,228 41,333 41,471 41,549 55,616 82,672 116,743 169,778 240,778 293,778 328,747 346,684 L 369,508 C 377,444 397,411 428,410 L 1163,1116 C 1174,1127 1196,1133 1229,1133 1271,1133 1292,1118 1292,1087 L 1292,965 C 1292,929 1282,901 1262,881 L 442,47 C 390,-6 338,-33 285,-33 Z"/>
  </g>
  <g id="bullet-char-template-9679" transform="scale(0.00048828125,-0.00048828125)">
   <path d="M 813,0 C 632,0 489,54 383,161 276,268 223,411 223,592 223,773 276,916 383,1023 489,1130 632,1184 813,1184 992,1184 1136,1130 1245,1023 1353,916 1407,772 1407,592 1407,412 1353,268 1245,161 1136,54 992,0 813,0 Z"/>
  </g>
  <g id="bullet-char-template-8226" transform="scale(0.00048828125,-0.00048828125)">
   <path d="M 346,457 C 273,457 209,483 155,535 101,586 74,649 74,723 74,796 101,859 155,911 209,963 273,989 346,989 419,989 480,963 531,910 582,859 608,796 608,723 608,648 583,586 532,535 482,483 420,457 346,457 Z"/>
  </g>
  <g id="bullet-char-template-8211" transform="scale(0.00048828125,-0.00048828125)">
   <path d="M -4,459 L 1135,459 1135,606 -4,606 -4,459 Z"/>
  </g>
  <g id="bullet-char-template-61548" transform="scale(0.00048828125,-0.00048828125)">
   <path d="M 173,740 C 173,903 231,1043 346,1159 462,1274 601,1332 765,1332 928,1332 1067,1274 1183,1159 1299,1043 1357,903 1357,740 1357,577 1299,437 1183,322 1067,206 928,148 765,148 601,148 462,206 346,322 231,437 173,577 173,740 Z"/>
  </g>
 </defs>
 <g>
  <g id="id2" class="Master_Slide">
   <g id="bg-id2" class="Background"/>
   <g id="bo-id2" class="BackgroundObjects"/>
  </g>
 </g>
 <g class="SlideGroup">
  <g>
   <g id="container-id1">
    <g id="id1" class="Slide" clip-path="url(#presentation_clip_path)">
     <g class="Page">
      <g class="Graphic">
       <g id="id3">
        <rect class="BoundingBox" stroke="none" fill="none" x="8272" y="13529" width="5045" height="882"/>
        <path fill="none" stroke="rgb(0,0,0)" stroke-width="9" stroke-linejoin="round" stroke-linecap="round" d="M 9011,14092 L 9134,14092 "/>
        <path fill="none" stroke="rgb(0,0,0)" stroke-width="9" stroke-linejoin="round" stroke-linecap="round" d="M 9913,14092 L 10036,14092 "/>
        <path fill="none" stroke="rgb(0,0,0)" stroke-width="18" stroke-linejoin="round" stroke-linecap="round" d="M 10985,13834 L 11232,13834 "/>
        <path fill="none" stroke="rgb(0,0,0)" stroke-width="18" stroke-linejoin="round" stroke-linecap="round" d="M 11947,13834 L 12194,13834 "/>
        <path fill="none" stroke="rgb(0,0,0)" stroke-width="18" stroke-linejoin="round" stroke-linecap="round" d="M 10896,13715 L 10789,14005 10896,14295 "/>
        <path fill="none" stroke="rgb(0,0,0)" stroke-width="18" stroke-linejoin="round" stroke-linecap="round" d="M 12460,13715 L 12460,14295 "/>
        <path fill="none" stroke="rgb(0,0,0)" stroke-width="18" stroke-linejoin="round" stroke-linecap="round" d="M 12890,13715 L 12997,14005 12890,14295 "/>
        <path fill="none" stroke="rgb(0,0,0)" stroke-width="18" stroke-linejoin="round" stroke-linecap="round" d="M 10724,13680 L 10724,14331 "/>
        <path fill="none" stroke="rgb(0,0,0)" stroke-width="18" stroke-linejoin="round" stroke-linecap="round" d="M 13054,13680 L 13054,14331 "/>
        <text class="SVGTextShape"><tspan class="TextParagraph"><tspan class="TextPosition" x="13121" y="13790"><tspan font-family="Times New Roman, serif" font-size="247px" font-weight="400" lengthAdjust="spacingAndGlyphs" textLength="127" fill="rgb(0,0,0)" stroke="none" style="white-space: pre">2</tspan></tspan></tspan></text>
        <text class="SVGTextShape"><tspan class="TextParagraph"><tspan class="TextPosition" x="11215" y="14252"><tspan font-family="Times New Roman, serif" font-size="247px" font-weight="400" lengthAdjust="spacingAndGlyphs" textLength="127" fill="rgb(0,0,0)" stroke="none" style="white-space: pre">1</tspan></tspan></tspan></text>
        <text class="SVGTextShape"><tspan class="TextParagraph"><tspan class="TextPosition" x="9120" y="14314"><tspan font-family="Times New Roman, serif" font-size="176px" font-weight="400" lengthAdjust="spacingAndGlyphs" textLength="85" fill="rgb(0,0,0)" stroke="none" style="white-space: pre">1</tspan></tspan></tspan></text>
        <text class="SVGTextShape"><tspan class="TextParagraph"><tspan class="TextPosition" x="8722" y="14314"><tspan font-family="Times New Roman, serif" font-size="176px" font-weight="400" lengthAdjust="spacingAndGlyphs" textLength="85" fill="rgb(0,0,0)" stroke="none" style="white-space: pre">1</tspan></tspan></tspan></text>
        <g class="OutlinedText"><path d="M 1248,916 L 1414,916 1130,461 C 1111,432 1082,387 1043,326 1033,223 1031,162 1037,142 1049,105 1073,87 1110,87 1136,87 1165,98 1195,120 1225,142 1252,176 1275,223 L 1315,223 C 1273,127 1230,61 1187,24 1143,-13 1101,-31 1060,-31 1022,-31 993,-15 973,17 953,49 949,118 960,223 911,165 867,121 829,91 776,50 722,19 669,-1 617,-22 561,-32 502,-32 355,-32 263,17 227,115 191,213 194,325 237,450 287,597 368,716 480,807 592,898 703,943 812,943 888,943 948,920 990,874 1032,827 1055,741 1060,615 L 1248,916 Z M 987,503 C 998,640 984,736 946,791 907,845 859,872 800,872 735,872 669,836 601,765 533,693 473,579 419,422 388,329 373,257 373,204 374,151 388,110 416,81 444,52 479,37 521,37 572,37 627,61 686,108 765,172 866,304 987,503 Z " transform="translate(12503,14129) scale(0.241,-0.241)" fill="rgb(0,0,0)" stroke="none"/></g><text class="SVGTextShape"><tspan class="TextParagraph"><tspan class="TextPosition" x="12203" y="14252"><tspan font-family="Times New Roman, serif" font-size="247px" font-style="italic" font-weight="400" lengthAdjust="spacingAndGlyphs" textLength="127" fill="rgb(0,0,0)" stroke="none" style="white-space: pre">n</tspan></tspan></tspan></text>
        <text class="SVGTextShape"><tspan class="TextParagraph"><tspan class="TextPosition" x="9900" y="14252"><tspan font-family="Times New Roman, serif" font-size="247px" font-style="italic" font-weight="400" lengthAdjust="spacingAndGlyphs" textLength="127" fill="rgb(0,0,0)" stroke="none" style="white-space: pre">g</tspan></tspan></tspan></text>
        <text class="SVGTextShape"><tspan class="TextParagraph"><tspan class="TextPosition" x="9466" y="14252"><tspan font-family="Times New Roman, serif" font-size="247px" font-style="italic" font-weight="400" lengthAdjust="spacingAndGlyphs" textLength="127" fill="rgb(0,0,0)" stroke="none" style="white-space: pre">g</tspan></tspan></tspan></text>
        <text class="SVGTextShape"><tspan class="TextParagraph"><tspan class="TextPosition" x="8999" y="14252"><tspan font-family="Times New Roman, serif" font-size="247px" font-style="italic" font-weight="400" lengthAdjust="spacingAndGlyphs" textLength="127" fill="rgb(0,0,0)" stroke="none" style="white-space: pre">g</tspan></tspan></tspan></text>
        <text class="SVGTextShape"><tspan class="TextParagraph"><tspan class="TextPosition" x="8601" y="14252"><tspan font-family="Times New Roman, serif" font-size="247px" font-style="italic" font-weight="400" lengthAdjust="spacingAndGlyphs" textLength="127" fill="rgb(0,0,0)" stroke="none" style="white-space: pre">g</tspan></tspan></tspan></text>
        <text class="SVGTextShape"><tspan class="TextParagraph"><tspan class="TextPosition" x="11920" y="14129"><tspan font-family="Times New Roman, serif" font-size="494px" font-style="italic" font-weight="400" lengthAdjust="spacingAndGlyphs" textLength="243" fill="rgb(0,0,0)" stroke="none" style="white-space: pre">g</tspan></tspan></tspan></text>
        <text class="SVGTextShape"><tspan class="TextParagraph"><tspan class="TextPosition" x="10959" y="14129"><tspan font-family="Times New Roman, serif" font-size="494px" font-style="italic" font-weight="400" lengthAdjust="spacingAndGlyphs" textLength="243" fill="rgb(0,0,0)" stroke="none" style="white-space: pre">g</tspan></tspan></tspan></text>
        <text class="SVGTextShape"><tspan class="TextParagraph"><tspan class="TextPosition" x="8350" y="14129"><tspan font-family="Times New Roman, serif" font-size="494px" font-style="italic" font-weight="400" lengthAdjust="spacingAndGlyphs" textLength="297" fill="rgb(0,0,0)" stroke="none" style="white-space: pre">P</tspan></tspan></tspan></text>
        <text class="SVGTextShape"><tspan class="TextParagraph"><tspan class="TextPosition" x="10041" y="14314"><tspan font-family="Times New Roman, serif" font-size="176px" font-style="italic" font-weight="400" lengthAdjust="spacingAndGlyphs" textLength="85" fill="rgb(0,0,0)" stroke="none" style="white-space: pre">n</tspan></tspan></tspan></text>
        <text class="SVGTextShape"><tspan class="TextParagraph"><tspan class="TextPosition" x="9607" y="14314"><tspan font-family="Times New Roman, serif" font-size="176px" font-style="italic" font-weight="400" lengthAdjust="spacingAndGlyphs" textLength="85" fill="rgb(0,0,0)" stroke="none" style="white-space: pre">n</tspan></tspan></tspan></text>
        <g class="OutlinedText"><path d="M 121,803 L 152,1099 C 161,1183 169,1240 178,1269 191,1311 209,1341 232,1360 255,1378 280,1387 309,1387 333,1387 352,1380 366,1367 380,1354 387,1337 387,1316 387,1300 384,1283 377,1265 368,1240 344,1184 303,1098 L 165,803 121,803 Z " transform="translate(12216,14100) scale(0.241,-0.241)" fill="rgb(0,0,0)" stroke="none"/></g><g class="OutlinedText"><path d="M 121,803 L 152,1099 C 161,1183 169,1240 178,1269 191,1311 209,1341 232,1360 255,1378 280,1387 309,1387 333,1387 352,1380 366,1367 380,1354 387,1337 387,1316 387,1300 384,1283 377,1265 368,1240 344,1184 303,1098 L 165,803 121,803 Z " transform="translate(11254,14100) scale(0.241,-0.241)" fill="rgb(0,0,0)" stroke="none"/></g><g class="OutlinedText"><path d="M 37,759 L 1087,759 1087,662 37,662 37,759 Z M 37,386 L 1087,386 1087,287 37,287 37,386 Z " transform="translate(10328,14129) scale(0.241,-0.241)" fill="rgb(0,0,0)" stroke="none"/></g><g class="OutlinedText"><path d="M 121,803 L 152,1099 C 161,1183 169,1240 178,1269 191,1311 209,1341 232,1360 255,1378 280,1387 309,1387 333,1387 352,1380 366,1367 380,1354 387,1337 387,1316 387,1300 384,1283 377,1265 368,1240 344,1184 303,1098 L 165,803 121,803 Z " transform="translate(10047,14238) scale(0.121,-0.121)" fill="rgb(0,0,0)" stroke="none"/></g><g class="OutlinedText"><path d="M 37,759 L 1087,759 1087,662 37,662 37,759 Z M 37,386 L 1087,386 1087,287 37,287 37,386 Z " transform="translate(9739,14252) scale(0.121,-0.121)" fill="rgb(0,0,0)" stroke="none"/></g><g class="OutlinedText"><path d="M 121,803 L 152,1099 C 161,1183 169,1240 178,1269 191,1311 209,1341 232,1360 255,1378 280,1387 309,1387 333,1387 352,1380 366,1367 380,1354 387,1337 387,1316 387,1300 384,1283 377,1265 368,1240 344,1184 303,1098 L 165,803 121,803 Z " transform="translate(9607,14238) scale(0.121,-0.121)" fill="rgb(0,0,0)" stroke="none"/></g><g class="OutlinedText"><path d="M 121,803 L 152,1099 C 161,1183 169,1240 178,1269 191,1311 209,1341 232,1360 255,1378 280,1387 309,1387 333,1387 352,1380 366,1367 380,1354 387,1337 387,1316 387,1300 384,1283 377,1265 368,1240 344,1184 303,1098 L 165,803 121,803 Z " transform="translate(9145,14238) scale(0.121,-0.121)" fill="rgb(0,0,0)" stroke="none"/></g><g class="OutlinedText"><path d="M 37,759 L 1087,759 1087,662 37,662 37,759 Z M 37,386 L 1087,386 1087,287 37,287 37,386 Z " transform="translate(8838,14252) scale(0.121,-0.121)" fill="rgb(0,0,0)" stroke="none"/></g><g class="OutlinedText"><path d="M 121,803 L 152,1099 C 161,1183 169,1240 178,1269 191,1311 209,1341 232,1360 255,1378 280,1387 309,1387 333,1387 352,1380 366,1367 380,1354 387,1337 387,1316 387,1300 384,1283 377,1265 368,1240 344,1184 303,1098 L 165,803 121,803 Z " transform="translate(8742,14238) scale(0.121,-0.121)" fill="rgb(0,0,0)" stroke="none"/></g><g class="OutlinedText"><path d="M 344,195 C 377,195 404,184 426,162 448,140 459,113 459,80 459,50 448,23 426,0 404,-23 377,-35 344,-35 314,-35 287,-23 264,0 241,23 229,50 229,80 229,113 241,140 264,162 287,184 314,195 344,195 Z M 1026,195 C 1059,195 1086,184 1108,162 1130,140 1141,113 1141,80 1141,50 1130,23 1108,0 1086,-23 1059,-35 1026,-35 996,-35 969,-23 946,0 923,23 911,50 911,80 911,113 923,140 946,162 969,184 996,195 1026,195 Z M 1708,195 C 1741,195 1768,184 1790,162 1812,140 1823,113 1823,80 1823,50 1812,23 1790,0 1768,-23 1741,-35 1708,-35 1678,-35 1651,-23 1628,0 1605,23 1593,50 1593,80 1593,113 1605,140 1628,162 1651,184 1678,195 1708,195 Z " transform="translate(11385,14129) scale(0.241,-0.241)" fill="rgb(0,0,0)" stroke="none"/></g><g class="OutlinedText"><path d="M 344,195 C 377,195 404,184 426,162 448,140 459,113 459,80 459,50 448,23 426,0 404,-23 377,-35 344,-35 314,-35 287,-23 264,0 241,23 229,50 229,80 229,113 241,140 264,162 287,184 314,195 344,195 Z M 1026,195 C 1059,195 1086,184 1108,162 1130,140 1141,113 1141,80 1141,50 1130,23 1108,0 1086,-23 1059,-35 1026,-35 996,-35 969,-23 946,0 923,23 911,50 911,80 911,113 923,140 946,162 969,184 996,195 1026,195 Z M 1708,195 C 1741,195 1768,184 1790,162 1812,140 1823,113 1823,80 1823,50 1812,23 1790,0 1768,-23 1741,-35 1708,-35 1678,-35 1651,-23 1628,0 1605,23 1593,50 1593,80 1593,113 1605,140 1628,162 1651,184 1678,195 1708,195 Z " transform="translate(9212,14252) scale(0.121,-0.121)" fill="rgb(0,0,0)" stroke="none"/></g></g>
      </g>
     </g>
    </g>
   </g>
  </g>
 </g>
</svg>