<?xml version='1.0' encoding='UTF-8'?>
<!DOCTYPE svg PUBLIC "-//W3C//DTD SVG 1.1//EN" "http://www.w3.org/Graphics/SVG/1.1/DTD/svg11.dtd">
<svg xmlns="http://www.w3.org/2000/svg" xmlns:ooo="http://xml.openoffice.org/svg/export" xmlns:xlink="http://www.w3.org/1999/xlink" xmlns:presentation="http://sun.com/xmlns/staroffice/presentation" xmlns:smil="http://www.w3.org/2001/SMIL20/" xmlns:anim="urn:oasis:names:tc:opendocument:xmlns:animation:1.0" xmlns:svg="urn:oasis:names:tc:opendocument:xmlns:svg-compatible:1.0" version="1.2" width="25.400mm" height="19.760mm" viewBox="9525 12982 2540 1976" preserveAspectRatio="xMidYMid" fill-rule="evenodd" stroke-width="28.222" stroke-linejoin="round" xml:space="preserve">
 <defs class="ClipPathGroup">
  <clipPath id="presentation_clip_path" clipPathUnits="userSpaceOnUse">
   <rect x="0" y="0" width="21590" height="27940"/>
  </clipPath>
  <clipPath id="presentation_clip_path_shrink" clipPathUnits="userSpaceOnUse">
   <rect x="21" y="27" width="21547" height="27885"/>
  </clipPath>
 </defs>
 <defs>
  </defs>
 <defs>
  </defs>
 <defs class="TextShapeIndex">
  <g ooo:slide="id1" ooo:id-list="id3"/>
 </defs>
 <defs class="EmbeddedBulletChars">
  <g id="bullet-char-template-57356" transform="scale(0.00048828125,-0.00048828125)">
   <path d="M 580,1141 L 1163,571 580,0 -4,571 580,1141 Z"/>
  </g>
  <g id="bullet-char-template-57354" transform="scale(0.00048828125,-0.00048828125)">
   <path d="M 8,1128 L 1137,1128 1137,0 8,0 8,1128 Z"/>
  </g>
  <g id="bullet-char-template-10146" transform="scale(0.00048828125,-0.00048828125)">
   <path d="M 174,0 L 602,739 174,1481 1456,739 174,0 Z M 1358,739 L 309,1346 659,739 1358,739 Z"/>
  </g>
  <g id="bullet-char-template-10132" transform="scale(0.00048828125,-0.00048828125)">
   <path d="M 2015,739 L 1276,0 717,0 1260,543 174,543 174,936 1260,936 717,1481 1274,1481 2015,739 Z"/>
  </g>
  <g id="bullet-char-template-10007" transform="scale(0.00048828125,-0.00048828125)">
   <path d="M 0,-2 C -7,14 -16,27 -25,37 L 356,567 C 262,823 215,952 215,954 215,979 228,992 255,992 264,992 276,990 289,987 310,991 331,999 354,1012 L 381,999 492,748 772,1049 836,1024 860,1049 C 881,1039 901,1025 922,1006 886,937 835,863 770,784 769,783 710,716 594,584 L 774,223 C 774,196 753,168 711,139 L 727,119 C 717,90 699,76 672,76 641,76 570,178 457,381 L 164,-76 C 142,-110 111,-127 72,-127 30,-127 9,-110 8,-76 1,-67 -2,-52 -2,-32 -2,-23 -1,-13 0,-2 Z"/>
  </g>
  <g id="bullet-char-template-10004" transform="scale(0.00048828125,-0.00048828125)">
   <path d="M 285,-33 C 182,-33 111,30 74,156 52,228 41,333 41,471 41,549 55,616 82,672 116,743 169,778 240,778 293,778 328,747 346,684 L 369,508 C 377,444 397,411 428,410 L 1163,1116 C 1174,1127 1196,1133 1229,1133 1271,1133 1292,1118 1292,1087 L 1292,965 C 1292,929 1282,901 1262,881 L 442,47 C 390,-6 338,-33 285,-33 Z"/>
  </g>
  <g id="bullet-char-template-9679" transform="scale(0.00048828125,-0.00048828125)">
   <path d="M 813,0 C 632,0 489,54 383,161 276,268 223,411 223,592 223,773 276,916 383,1023 489,1130 632,1184 813,1184 992,1184 1136,1130 1245,1023 1353,916 1407,772 1407,592 1407,412 1353,268 1245,161 1136,54 992,0 813,0 Z"/>
  </g>
  <g id="bullet-char-template-8226" transform="scale(0.00048828125,-0.00048828125)">
   <path d="M 346,457 C 273,457 209,483 155,535 101,586 74,649 74,723 74,796 101,859 155,911 209,963 273,989 346,989 419,989 480,963 531,910 582,859 608,796 608,723 608,648 583,586 532,535 482,483 420,457 346,457 Z"/>
  </g>
  <g id="bullet-char-template-8211" transform="scale(0.00048828125,-0.00048828125)">
   <path d="M -4,459 L 1135,459 1135,606 -4,606 -4,459 Z"/>
  </g>
  <g id="bullet-char-template-61548" transform="scale(0.00048828125,-0.00048828125)">
   <path d="M 173,740 C 173,903 231,1043 346,1159 462,1274 601,1332 765,1332 928,1332 1067,1274 1183,1159 1299,1043 1357,903 1357,740 1357,577 1299,437 1183,322 1067,206 928,148 765,148 601,148 462,206 346,322 231,437 173,577 173,740 Z"/>
  </g>
 </defs>
 <g>
  <g id="id2" class="Master_Slide">
   <g id="bg-id2" class="Background"/>
   <g id="bo-id2" class="BackgroundObjects"/>
  </g>
 </g>
 <g class="SlideGroup">
  <g>
   <g id="container-id1">
    <g id="id1" class="Slide" clip-path="url(#presentation_clip_path)">
     <g class="Page">
      <g class="Graphic">
       <g id="id3">
        <rect class="BoundingBox" stroke="none" fill="none" x="9525" y="12982" width="2540" height="1976"/>
        <defs>
         <clipPath id="clip_path_1" clipPathUnits="userSpaceOnUse">
          <path d="M 9525,12982 L 12064,12982 12064,14957 9525,14957 9525,12982 Z "/>
         </clipPath>
        </defs>
        <g clip-path="url(#clip_path_1)">
         <path fill="none" stroke="rgb(0,0,0)" stroke-width="47" stroke-linejoin="round" stroke-linecap="round" d="M 10110,13197 L 10110,14743 "/>
         <path fill="none" stroke="rgb(0,0,0)" stroke-width="47" stroke-linejoin="round" stroke-linecap="round" d="M 11133,13197 L 11418,13970 11133,14743 "/>
         <g class="OutlinedText"><path d="M 211,471 L 211,510 C 283,523 339,549 379,589 418,629 438,673 438,720 438,755 430,804 415,868 399,931 391,986 391,1032 391,1126 426,1211 497,1288 568,1364 658,1409 769,1422 L 769,1384 C 693,1371 635,1342 596,1298 556,1254 536,1203 536,1145 536,1104 543,1052 556,988 569,923 576,869 576,826 576,760 552,697 505,636 458,575 387,527 293,493 389,454 460,405 507,345 554,285 577,222 577,155 577,115 570,62 557,-3 544,-68 537,-121 537,-160 537,-217 556,-268 594,-311 631,-355 690,-387 769,-407 L 769,-442 C 658,-427 567,-381 498,-306 428,-231 393,-147 393,-53 393,-8 401,46 416,111 431,175 439,223 439,255 439,304 420,349 383,390 345,430 288,457 211,471 Z " transform="translate(9631,14296) scale(0.935,-0.935)" fill="rgb(0,0,0)" stroke="none"/></g><g class="OutlinedText"><path d="M 772,510 L 772,471 C 699,458 643,432 604,392 565,352 545,308 545,261 545,226 553,177 569,113 584,49 592,-6 592,-51 592,-145 557,-230 486,-306 415,-383 325,-428 214,-442 L 214,-403 C 290,-390 348,-361 387,-317 426,-274 446,-223 446,-164 446,-123 440,-71 427,-6 414,58 407,112 407,155 407,221 431,285 478,346 525,407 596,454 690,488 593,527 522,576 476,636 429,696 406,759 406,825 406,866 413,919 426,984 439,1049 446,1102 446,1141 446,1198 427,1248 390,1292 352,1336 293,1368 214,1387 L 214,1422 C 325,1407 416,1362 486,1287 555,1212 590,1127 590,1034 590,989 582,935 567,871 552,806 544,758 544,725 544,676 563,632 600,592 637,551 695,524 772,510 Z " transform="translate(11448,14296) scale(0.935,-0.935)" fill="rgb(0,0,0)" stroke="none"/></g><g class="OutlinedText"><path d="M 828,1422 L 816,1387 C 775,1380 745,1369 725,1354 705,1338 691,1319 683,1296 674,1268 676,1245 688,1227 701,1209 728,1199 769,1197 866,1264 943,1310 1000,1335 1056,1360 1103,1373 1140,1373 1157,1373 1170,1368 1178,1357 1186,1346 1187,1334 1182,1319 1171,1286 1143,1256 1098,1230 1026,1188 925,1161 796,1149 706,1089 650,1028 629,965 608,903 635,854 710,818 786,845 851,865 906,878 961,891 1007,897 1042,897 1073,897 1094,891 1104,880 1114,868 1116,853 1109,834 1102,811 1083,792 1055,777 1004,750 937,737 853,737 829,737 805,738 779,741 753,744 727,747 700,752 606,717 522,666 449,598 375,529 326,458 301,385 282,328 279,282 294,247 309,211 334,186 370,171 392,162 428,157 480,157 534,157 587,159 641,163 715,168 763,170 786,170 850,170 897,147 924,100 951,53 951,-13 922,-96 886,-202 828,-286 748,-348 668,-411 584,-442 498,-442 452,-442 420,-433 403,-414 385,-395 380,-375 388,-354 394,-337 405,-322 423,-309 441,-296 459,-290 477,-290 491,-290 515,-295 548,-304 581,-313 605,-318 620,-318 664,-318 706,-303 747,-272 788,-241 817,-201 833,-152 847,-111 846,-77 831,-52 815,-27 790,-15 755,-15 736,-15 702,-18 656,-23 609,-29 563,-32 519,-32 414,-32 337,-19 290,6 242,31 210,74 193,135 176,196 181,264 207,341 235,424 284,504 353,583 422,661 514,727 627,781 558,835 536,897 559,966 579,1024 628,1084 705,1147 660,1158 630,1178 614,1205 598,1232 596,1262 606,1293 618,1327 641,1356 675,1380 710,1404 761,1418 828,1422 Z " transform="translate(10245,14299) scale(0.643,-0.643)" fill="rgb(0,0,0)" stroke="none"/></g></g>
       </g>
      </g>
     </g>
    </g>
   </g>
  </g>
 </g>
</svg>