<?xml version='1.0' encoding='UTF-8'?>
<!DOCTYPE svg PUBLIC "-//W3C//DTD SVG 1.1//EN" "http://www.w3.org/Graphics/SVG/1.1/DTD/svg11.dtd">
<svg xmlns="http://www.w3.org/2000/svg" xmlns:ooo="http://xml.openoffice.org/svg/export" xmlns:xlink="http://www.w3.org/1999/xlink" xmlns:presentation="http://sun.com/xmlns/staroffice/presentation" xmlns:smil="http://www.w3.org/2001/SMIL20/" xmlns:anim="urn:oasis:names:tc:opendocument:xmlns:animation:1.0" xmlns:svg="urn:oasis:names:tc:opendocument:xmlns:svg-compatible:1.0" version="1.2" width="88.900mm" height="14.460mm" viewBox="6350 13247 8890 1446" preserveAspectRatio="xMidYMid" fill-rule="evenodd" stroke-width="28.222" stroke-linejoin="round" xml:space="preserve">
 <defs class="ClipPathGroup">
  <clipPath id="presentation_clip_path" clipPathUnits="userSpaceOnUse">
   <rect x="0" y="0" width="21590" height="27940"/>
  </clipPath>
  <clipPath id="presentation_clip_path_shrink" clipPathUnits="userSpaceOnUse">
   <rect x="21" y="27" width="21547" height="27885"/>
  </clipPath>
 </defs>
 <defs>
  </defs>
 <defs>
  </defs>
 <defs>
  </defs>
 <defs>
  </defs>
 <defs class="TextShapeIndex">
  <g ooo:slide="id1" ooo:id-list="id3"/>
 </defs>
 <defs class="EmbeddedBulletChars">
  <g id="bullet-char-template-57356" transform="scale(0.00048828125,-0.00048828125)">
   <path d="M 580,1141 L 1163,571 580,0 -4,571 580,1141 Z"/>
  </g>
  <g id="bullet-char-template-57354" transform="scale(0.00048828125,-0.00048828125)">
   <path d="M 8,1128 L 1137,1128 1137,0 8,0 8,1128 Z"/>
  </g>
  <g id="bullet-char-template-10146" transform="scale(0.00048828125,-0.00048828125)">
   <path d="M 174,0 L 602,739 174,1481 1456,739 174,0 Z M 1358,739 L 309,1346 659,739 1358,739 Z"/>
  </g>
  <g id="bullet-char-template-10132" transform="scale(0.00048828125,-0.00048828125)">
   <path d="M 2015,739 L 1276,0 717,0 1260,543 174,543 174,936 1260,936 717,1481 1274,1481 2015,739 Z"/>
  </g>
  <g id="bullet-char-template-10007" transform="scale(0.00048828125,-0.00048828125)">
   <path d="M 0,-2 C -7,14 -16,27 -25,37 L 356,567 C 262,823 215,952 215,954 215,979 228,992 255,992 264,992 276,990 289,987 310,991 331,999 354,1012 L 381,999 492,748 772,1049 836,1024 860,1049 C 881,1039 901,1025 922,1006 886,937 835,863 770,784 769,783 710,716 594,584 L 774,223 C 774,196 753,168 711,139 L 727,119 C 717,90 699,76 672,76 641,76 570,178 457,381 L 164,-76 C 142,-110 111,-127 72,-127 30,-127 9,-110 8,-76 1,-67 -2,-52 -2,-32 -2,-23 -1,-13 0,-2 Z"/>
  </g>
  <g id="bullet-char-template-10004" transform="scale(0.00048828125,-0.00048828125)">
   <path d="M 285,-33 C 182,-33 111,30 74,156 52,228 41,333 41,471 41,549 55,616 82,672 116,743 169,778 240,778 293,778 328,747 346,684 L 369,508 C 377,444 397,411 428,410 L 1163,1116 C 1174,1127 1196,1133 1229,1133 1271,1133 1292,1118 1292,1087 L 1292,965 C 1292,929 1282,901 1262,881 L 442,47 C 390,-6 338,-33 285,-33 Z"/>
  </g>
  <g id="bullet-char-template-9679" transform="scale(0.00048828125,-0.00048828125)">
   <path d="M 813,0 C 632,0 489,54 383,161 276,268 223,411 223,592 223,773 276,916 383,1023 489,1130 632,1184 813,1184 992,1184 1136,1130 1245,1023 1353,916 1407,772 1407,592 1407,412 1353,268 1245,161 1136,54 992,0 813,0 Z"/>
  </g>
  <g id="bullet-char-template-8226" transform="scale(0.00048828125,-0.00048828125)">
   <path d="M 346,457 C 273,457 209,483 155,535 101,586 74,649 74,723 74,796 101,859 155,911 209,963 273,989 346,989 419,989 480,963 531,910 582,859 608,796 608,723 608,648 583,586 532,535 482,483 420,457 346,457 Z"/>
  </g>
  <g id="bullet-char-template-8211" transform="scale(0.00048828125,-0.00048828125)">
   <path d="M -4,459 L 1135,459 1135,606 -4,606 -4,459 Z"/>
  </g>
  <g id="bullet-char-template-61548" transform="scale(0.00048828125,-0.00048828125)">
   <path d="M 173,740 C 173,903 231,1043 346,1159 462,1274 601,1332 765,1332 928,1332 1067,1274 1183,1159 1299,1043 1357,903 1357,740 1357,577 1299,437 1183,322 1067,206 928,148 765,148 601,148 462,206 346,322 231,437 173,577 173,740 Z"/>
  </g>
 </defs>
 <g>
  <g id="id2" class="Master_Slide">
   <g id="bg-id2" class="Background"/>
   <g id="bo-id2" class="BackgroundObjects"/>
  </g>
 </g>
 <g class="SlideGroup">
  <g>
   <g id="container-id1">
    <g id="id1" class="Slide" clip-path="url(#presentation_clip_path)">
     <g class="Page">
      <g class="Graphic">
       <g id="id3">
        <rect class="BoundingBox" stroke="none" fill="none" x="6350" y="13247" width="8890" height="1446"/>
        <path fill="none" stroke="rgb(0,0,0)" stroke-width="18" stroke-linejoin="round" stroke-linecap="round" d="M 6882,13645 L 6882,14225 "/>
        <path fill="none" stroke="rgb(0,0,0)" stroke-width="18" stroke-linejoin="round" stroke-linecap="round" d="M 7944,13645 L 8051,13935 7944,14225 "/>
        <path fill="none" stroke="rgb(0,0,0)" stroke-width="18" stroke-linejoin="round" stroke-linecap="round" d="M 9723,13645 L 9723,14225 "/>
        <path fill="none" stroke="rgb(0,0,0)" stroke-width="18" stroke-linejoin="round" stroke-linecap="round" d="M 10900,13645 L 11007,13935 10900,14225 "/>
        <path fill="none" stroke="rgb(0,0,0)" stroke-width="18" stroke-linejoin="round" stroke-linecap="round" d="M 11691,13645 L 11584,13935 11691,14225 "/>
        <path fill="none" stroke="rgb(0,0,0)" stroke-width="18" stroke-linejoin="round" stroke-linecap="round" d="M 12859,13645 L 12859,14225 "/>
        <path fill="none" stroke="rgb(0,0,0)" stroke-width="18" stroke-linejoin="round" stroke-linecap="round" d="M 13592,13645 L 13592,14225 "/>
        <path fill="none" stroke="rgb(0,0,0)" stroke-width="18" stroke-linejoin="round" stroke-linecap="round" d="M 14654,13645 L 14760,13935 14654,14225 "/>
        <g class="OutlinedText"><path d="M 37,759 L 1087,759 1087,662 37,662 37,759 Z M 37,386 L 1087,386 1087,287 37,287 37,386 Z " transform="translate(14894,14058) scale(0.241,-0.241)" fill="rgb(0,0,0)" stroke="none"/></g><g class="OutlinedText"><path d="M 121,803 L 152,1099 C 161,1183 169,1240 178,1269 191,1311 209,1341 232,1360 255,1378 280,1387 309,1387 333,1387 352,1380 366,1367 380,1354 387,1337 387,1316 387,1300 384,1283 377,1265 368,1240 344,1184 303,1098 L 165,803 121,803 Z " transform="translate(13377,14030) scale(0.241,-0.241)" fill="rgb(0,0,0)" stroke="none"/></g><g class="OutlinedText"><path d="M 121,803 L 152,1099 C 161,1183 169,1240 178,1269 191,1311 209,1341 232,1360 255,1378 280,1387 309,1387 333,1387 352,1380 366,1367 380,1354 387,1337 387,1316 387,1300 384,1283 377,1265 368,1240 344,1184 303,1098 L 165,803 121,803 Z " transform="translate(12678,14030) scale(0.241,-0.241)" fill="rgb(0,0,0)" stroke="none"/></g><g class="OutlinedText"><path d="M 121,803 L 152,1099 C 161,1183 169,1240 178,1269 191,1311 209,1341 232,1360 255,1378 280,1387 309,1387 333,1387 352,1380 366,1367 380,1354 387,1337 387,1316 387,1300 384,1283 377,1265 368,1240 344,1184 303,1098 L 165,803 121,803 Z " transform="translate(12054,14030) scale(0.241,-0.241)" fill="rgb(0,0,0)" stroke="none"/></g><g class="OutlinedText"><path d="M 121,803 L 152,1099 C 161,1183 169,1240 178,1269 191,1311 209,1341 232,1360 255,1378 280,1387 309,1387 333,1387 352,1380 366,1367 380,1354 387,1337 387,1316 387,1300 384,1283 377,1265 368,1240 344,1184 303,1098 L 165,803 121,803 Z " transform="translate(11369,14030) scale(0.241,-0.241)" fill="rgb(0,0,0)" stroke="none"/></g><g class="OutlinedText"><path d="M 121,803 L 152,1099 C 161,1183 169,1240 178,1269 191,1311 209,1341 232,1360 255,1378 280,1387 309,1387 333,1387 352,1380 366,1367 380,1354 387,1337 387,1316 387,1300 384,1283 377,1265 368,1240 344,1184 303,1098 L 165,803 121,803 Z " transform="translate(10760,14030) scale(0.241,-0.241)" fill="rgb(0,0,0)" stroke="none"/></g><g class="OutlinedText"><path d="M 121,803 L 152,1099 C 161,1183 169,1240 178,1269 191,1311 209,1341 232,1360 255,1378 280,1387 309,1387 333,1387 352,1380 366,1367 380,1354 387,1337 387,1316 387,1300 384,1283 377,1265 368,1240 344,1184 303,1098 L 165,803 121,803 Z " transform="translate(10136,14030) scale(0.241,-0.241)" fill="rgb(0,0,0)" stroke="none"/></g><g class="OutlinedText"><path d="M 37,759 L 1087,759 1087,662 37,662 37,759 Z M 37,386 L 1087,386 1087,287 37,287 37,386 Z " transform="translate(8184,14058) scale(0.241,-0.241)" fill="rgb(0,0,0)" stroke="none"/></g><g class="OutlinedText"><path d="M 201,948 C 213,1315 221,1515 224,1546 239,1670 266,1754 305,1798 343,1841 386,1863 435,1863 468,1863 498,1852 523,1830 548,1807 560,1783 560,1756 560,1725 551,1700 534,1681 516,1662 494,1652 468,1652 445,1652 419,1664 392,1688 377,1701 363,1708 352,1708 341,1708 331,1703 324,1694 316,1684 312,1667 312,1644 312,1616 315,1568 321,1499 346,1226 358,1004 358,834 358,789 353,593 342,246 337,49 307,-84 252,-153 216,-198 171,-220 118,-220 83,-220 55,-209 33,-186 11,-163 0,-134 0,-99 0,-69 9,-45 26,-27 43,-9 64,0 90,0 117,0 140,-11 159,-32 178,-53 195,-64 208,-64 219,-64 229,-59 236,-50 243,-41 247,-25 247,-3 247,25 244,65 238,117 213,327 201,604 201,948 Z " transform="translate(9448,14221) scale(0.344,-0.344)" fill="rgb(0,0,0)" stroke="none"/></g><g class="OutlinedText"><path d="M 201,948 C 213,1315 221,1515 224,1546 239,1670 266,1754 305,1798 343,1841 386,1863 435,1863 468,1863 498,1852 523,1830 548,1807 560,1783 560,1756 560,1725 551,1700 534,1681 516,1662 494,1652 468,1652 445,1652 419,1664 392,1688 377,1701 363,1708 352,1708 341,1708 331,1703 324,1694 316,1684 312,1667 312,1644 312,1616 315,1568 321,1499 346,1226 358,1004 358,834 358,789 353,593 342,246 337,49 307,-84 252,-153 216,-198 171,-220 118,-220 83,-220 55,-209 33,-186 11,-163 0,-134 0,-99 0,-69 9,-45 26,-27 43,-9 64,0 90,0 117,0 140,-11 159,-32 178,-53 195,-64 208,-64 219,-64 229,-59 236,-50 243,-41 247,-25 247,-3 247,25 244,65 238,117 213,327 201,604 201,948 Z " transform="translate(8571,14221) scale(0.344,-0.344)" fill="rgb(0,0,0)" stroke="none"/></g><g class="OutlinedText"><path d="M 514,1050 L 612,1050 612,572 1087,572 1087,475 612,475 612,0 514,0 514,475 37,475 37,572 514,572 514,1050 Z " transform="translate(9388,13520) scale(0.121,-0.121)" fill="rgb(0,0,0)" stroke="none"/><path d="M 654,667 C 699,771 749,843 803,884 857,924 931,944 1024,944 1131,944 1222,905 1296,828 1370,751 1407,650 1407,527 1407,405 1371,305 1299,226 1227,147 1147,107 1058,107 992,107 931,131 874,180 837,212 786,283 721,393 678,310 632,251 581,215 530,178 469,160 397,160 301,160 220,194 154,263 87,332 54,420 54,529 54,639 85,728 146,795 207,862 279,896 361,896 418,896 469,881 513,852 557,822 604,760 654,667 Z M 750,464 C 800,360 849,290 898,255 947,219 1001,201 1062,201 1144,201 1213,231 1268,290 1323,349 1350,428 1350,527 1350,625 1321,706 1263,770 1205,834 1140,866 1068,866 1022,866 982,854 948,831 913,808 882,770 854,719 838,689 803,604 750,464 Z M 625,590 C 592,663 555,717 513,752 471,787 419,804 358,804 287,804 228,779 181,730 133,680 109,613 109,530 109,441 133,371 180,318 227,265 280,238 339,238 402,238 458,266 507,323 538,360 578,449 625,590 Z " transform="translate(9527.834,13520) scale(0.121,-0.121)" fill="rgb(0,0,0)" stroke="none"/></g><g class="OutlinedText"><path d="M 654,667 C 699,771 749,843 803,884 857,924 931,944 1024,944 1131,944 1222,905 1296,828 1370,751 1407,650 1407,527 1407,405 1371,305 1299,226 1227,147 1147,107 1058,107 992,107 931,131 874,180 837,212 786,283 721,393 678,310 632,251 581,215 530,178 469,160 397,160 301,160 220,194 154,263 87,332 54,420 54,529 54,639 85,728 146,795 207,862 279,896 361,896 418,896 469,881 513,852 557,822 604,760 654,667 Z M 750,464 C 800,360 849,290 898,255 947,219 1001,201 1062,201 1144,201 1213,231 1268,290 1323,349 1350,428 1350,527 1350,625 1321,706 1263,770 1205,834 1140,866 1068,866 1022,866 982,854 948,831 913,808 882,770 854,719 838,689 803,604 750,464 Z M 625,590 C 592,663 555,717 513,752 471,787 419,804 358,804 287,804 228,779 181,730 133,680 109,613 109,530 109,441 133,371 180,318 227,265 280,238 339,238 402,238 458,266 507,323 538,360 578,449 625,590 Z " transform="translate(9528,14534) scale(0.121,-0.121)" fill="rgb(0,0,0)" stroke="none"/></g><g class="OutlinedText"><path d="M 37,576 L 1087,576 1087,477 37,477 37,576 Z " transform="translate(9383,14534) scale(0.121,-0.121)" fill="rgb(0,0,0)" stroke="none"/></g><g class="OutlinedText"><path d="M 828,1422 L 816,1387 C 775,1380 745,1369 725,1354 705,1338 691,1319 683,1296 674,1268 676,1245 688,1227 701,1209 728,1199 769,1197 866,1264 943,1310 1000,1335 1056,1360 1103,1373 1140,1373 1157,1373 1170,1368 1178,1357 1186,1346 1187,1334 1182,1319 1171,1286 1143,1256 1098,1230 1026,1188 925,1161 796,1149 706,1089 650,1028 629,965 608,903 635,854 710,818 786,845 851,865 906,878 961,891 1007,897 1042,897 1073,897 1094,891 1104,880 1114,868 1116,853 1109,834 1102,811 1083,792 1055,777 1004,750 937,737 853,737 829,737 805,738 779,741 753,744 727,747 700,752 606,717 522,666 449,598 375,529 326,458 301,385 282,328 279,282 294,247 309,211 334,186 370,171 392,162 428,157 480,157 534,157 587,159 641,163 715,168 763,170 786,170 850,170 897,147 924,100 951,53 951,-13 922,-96 886,-202 828,-286 748,-348 668,-411 584,-442 498,-442 452,-442 420,-433 403,-414 385,-395 380,-375 388,-354 394,-337 405,-322 423,-309 441,-296 459,-290 477,-290 491,-290 515,-295 548,-304 581,-313 605,-318 620,-318 664,-318 706,-303 747,-272 788,-241 817,-201 833,-152 847,-111 846,-77 831,-52 815,-27 790,-15 755,-15 736,-15 702,-18 656,-23 609,-29 563,-32 519,-32 414,-32 337,-19 290,6 242,31 210,74 193,135 176,196 181,264 207,341 235,424 284,504 353,583 422,661 514,727 627,781 558,835 536,897 559,966 579,1024 628,1084 705,1147 660,1158 630,1178 614,1205 598,1232 596,1262 606,1293 618,1327 641,1356 675,1380 710,1404 761,1418 828,1422 Z " transform="translate(14321,14058) scale(0.241,-0.241)" fill="rgb(0,0,0)" stroke="none"/></g><g class="OutlinedText"><path d="M 828,1422 L 816,1387 C 775,1380 745,1369 725,1354 705,1338 691,1319 683,1296 674,1268 676,1245 688,1227 701,1209 728,1199 769,1197 866,1264 943,1310 1000,1335 1056,1360 1103,1373 1140,1373 1157,1373 1170,1368 1178,1357 1186,1346 1187,1334 1182,1319 1171,1286 1143,1256 1098,1230 1026,1188 925,1161 796,1149 706,1089 650,1028 629,965 608,903 635,854 710,818 786,845 851,865 906,878 961,891 1007,897 1042,897 1073,897 1094,891 1104,880 1114,868 1116,853 1109,834 1102,811 1083,792 1055,777 1004,750 937,737 853,737 829,737 805,738 779,741 753,744 727,747 700,752 606,717 522,666 449,598 375,529 326,458 301,385 282,328 279,282 294,247 309,211 334,186 370,171 392,162 428,157 480,157 534,157 587,159 641,163 715,168 763,170 786,170 850,170 897,147 924,100 951,53 951,-13 922,-96 886,-202 828,-286 748,-348 668,-411 584,-442 498,-442 452,-442 420,-433 403,-414 385,-395 380,-375 388,-354 394,-337 405,-322 423,-309 441,-296 459,-290 477,-290 491,-290 515,-295 548,-304 581,-313 605,-318 620,-318 664,-318 706,-303 747,-272 788,-241 817,-201 833,-152 847,-111 846,-77 831,-52 815,-27 790,-15 755,-15 736,-15 702,-18 656,-23 609,-29 563,-32 519,-32 414,-32 337,-19 290,6 242,31 210,74 193,135 176,196 181,264 207,341 235,424 284,504 353,583 422,661 514,727 627,781 558,835 536,897 559,966 579,1024 628,1084 705,1147 660,1158 630,1178 614,1205 598,1232 596,1262 606,1293 618,1327 641,1356 675,1380 710,1404 761,1418 828,1422 Z " transform="translate(12370,14058) scale(0.241,-0.241)" fill="rgb(0,0,0)" stroke="none"/></g><g class="OutlinedText"><path d="M 828,1422 L 816,1387 C 775,1380 745,1369 725,1354 705,1338 691,1319 683,1296 674,1268 676,1245 688,1227 701,1209 728,1199 769,1197 866,1264 943,1310 1000,1335 1056,1360 1103,1373 1140,1373 1157,1373 1170,1368 1178,1357 1186,1346 1187,1334 1182,1319 1171,1286 1143,1256 1098,1230 1026,1188 925,1161 796,1149 706,1089 650,1028 629,965 608,903 635,854 710,818 786,845 851,865 906,878 961,891 1007,897 1042,897 1073,897 1094,891 1104,880 1114,868 1116,853 1109,834 1102,811 1083,792 1055,777 1004,750 937,737 853,737 829,737 805,738 779,741 753,744 727,747 700,752 606,717 522,666 449,598 375,529 326,458 301,385 282,328 279,282 294,247 309,211 334,186 370,171 392,162 428,157 480,157 534,157 587,159 641,163 715,168 763,170 786,170 850,170 897,147 924,100 951,53 951,-13 922,-96 886,-202 828,-286 748,-348 668,-411 584,-442 498,-442 452,-442 420,-433 403,-414 385,-395 380,-375 388,-354 394,-337 405,-322 423,-309 441,-296 459,-290 477,-290 491,-290 515,-295 548,-304 581,-313 605,-318 620,-318 664,-318 706,-303 747,-272 788,-241 817,-201 833,-152 847,-111 846,-77 831,-52 815,-27 790,-15 755,-15 736,-15 702,-18 656,-23 609,-29 563,-32 519,-32 414,-32 337,-19 290,6 242,31 210,74 193,135 176,196 181,264 207,341 235,424 284,504 353,583 422,661 514,727 627,781 558,835 536,897 559,966 579,1024 628,1084 705,1147 660,1158 630,1178 614,1205 598,1232 596,1262 606,1293 618,1327 641,1356 675,1380 710,1404 761,1418 828,1422 Z " transform="translate(10452,14058) scale(0.241,-0.241)" fill="rgb(0,0,0)" stroke="none"/></g><g class="OutlinedText"><path d="M 828,1422 L 816,1387 C 775,1380 745,1369 725,1354 705,1338 691,1319 683,1296 674,1268 676,1245 688,1227 701,1209 728,1199 769,1197 866,1264 943,1310 1000,1335 1056,1360 1103,1373 1140,1373 1157,1373 1170,1368 1178,1357 1186,1346 1187,1334 1182,1319 1171,1286 1143,1256 1098,1230 1026,1188 925,1161 796,1149 706,1089 650,1028 629,965 608,903 635,854 710,818 786,845 851,865 906,878 961,891 1007,897 1042,897 1073,897 1094,891 1104,880 1114,868 1116,853 1109,834 1102,811 1083,792 1055,777 1004,750 937,737 853,737 829,737 805,738 779,741 753,744 727,747 700,752 606,717 522,666 449,598 375,529 326,458 301,385 282,328 279,282 294,247 309,211 334,186 370,171 392,162 428,157 480,157 534,157 587,159 641,163 715,168 763,170 786,170 850,170 897,147 924,100 951,53 951,-13 922,-96 886,-202 828,-286 748,-348 668,-411 584,-442 498,-442 452,-442 420,-433 403,-414 385,-395 380,-375 388,-354 394,-337 405,-322 423,-309 441,-296 459,-290 477,-290 491,-290 515,-295 548,-304 581,-313 605,-318 620,-318 664,-318 706,-303 747,-272 788,-241 817,-201 833,-152 847,-111 846,-77 831,-52 815,-27 790,-15 755,-15 736,-15 702,-18 656,-23 609,-29 563,-32 519,-32 414,-32 337,-19 290,6 242,31 210,74 193,135 176,196 181,264 207,341 235,424 284,504 353,583 422,661 514,727 627,781 558,835 536,897 559,966 579,1024 628,1084 705,1147 660,1158 630,1178 614,1205 598,1232 596,1262 606,1293 618,1327 641,1356 675,1380 710,1404 761,1418 828,1422 Z " transform="translate(9062,14058) scale(0.241,-0.241)" fill="rgb(0,0,0)" stroke="none"/></g><g class="OutlinedText"><path d="M 828,1422 L 816,1387 C 775,1380 745,1369 725,1354 705,1338 691,1319 683,1296 674,1268 676,1245 688,1227 701,1209 728,1199 769,1197 866,1264 943,1310 1000,1335 1056,1360 1103,1373 1140,1373 1157,1373 1170,1368 1178,1357 1186,1346 1187,1334 1182,1319 1171,1286 1143,1256 1098,1230 1026,1188 925,1161 796,1149 706,1089 650,1028 629,965 608,903 635,854 710,818 786,845 851,865 906,878 961,891 1007,897 1042,897 1073,897 1094,891 1104,880 1114,868 1116,853 1109,834 1102,811 1083,792 1055,777 1004,750 937,737 853,737 829,737 805,738 779,741 753,744 727,747 700,752 606,717 522,666 449,598 375,529 326,458 301,385 282,328 279,282 294,247 309,211 334,186 370,171 392,162 428,157 480,157 534,157 587,159 641,163 715,168 763,170 786,170 850,170 897,147 924,100 951,53 951,-13 922,-96 886,-202 828,-286 748,-348 668,-411 584,-442 498,-442 452,-442 420,-433 403,-414 385,-395 380,-375 388,-354 394,-337 405,-322 423,-309 441,-296 459,-290 477,-290 491,-290 515,-295 548,-304 581,-313 605,-318 620,-318 664,-318 706,-303 747,-272 788,-241 817,-201 833,-152 847,-111 846,-77 831,-52 815,-27 790,-15 755,-15 736,-15 702,-18 656,-23 609,-29 563,-32 519,-32 414,-32 337,-19 290,6 242,31 210,74 193,135 176,196 181,264 207,341 235,424 284,504 353,583 422,661 514,727 627,781 558,835 536,897 559,966 579,1024 628,1084 705,1147 660,1158 630,1178 614,1205 598,1232 596,1262 606,1293 618,1327 641,1356 675,1380 710,1404 761,1418 828,1422 Z " transform="translate(7611,14058) scale(0.241,-0.241)" fill="rgb(0,0,0)" stroke="none"/></g><g class="OutlinedText"><path d="M 828,1422 L 816,1387 C 775,1380 745,1369 725,1354 705,1338 691,1319 683,1296 674,1268 676,1245 688,1227 701,1209 728,1199 769,1197 866,1264 943,1310 1000,1335 1056,1360 1103,1373 1140,1373 1157,1373 1170,1368 1178,1357 1186,1346 1187,1334 1182,1319 1171,1286 1143,1256 1098,1230 1026,1188 925,1161 796,1149 706,1089 650,1028 629,965 608,903 635,854 710,818 786,845 851,865 906,878 961,891 1007,897 1042,897 1073,897 1094,891 1104,880 1114,868 1116,853 1109,834 1102,811 1083,792 1055,777 1004,750 937,737 853,737 829,737 805,738 779,741 753,744 727,747 700,752 606,717 522,666 449,598 375,529 326,458 301,385 282,328 279,282 294,247 309,211 334,186 370,171 392,162 428,157 480,157 534,157 587,159 641,163 715,168 763,170 786,170 850,170 897,147 924,100 951,53 951,-13 922,-96 886,-202 828,-286 748,-348 668,-411 584,-442 498,-442 452,-442 420,-433 403,-414 385,-395 380,-375 388,-354 394,-337 405,-322 423,-309 441,-296 459,-290 477,-290 491,-290 515,-295 548,-304 581,-313 605,-318 620,-318 664,-318 706,-303 747,-272 788,-241 817,-201 833,-152 847,-111 846,-77 831,-52 815,-27 790,-15 755,-15 736,-15 702,-18 656,-23 609,-29 563,-32 519,-32 414,-32 337,-19 290,6 242,31 210,74 193,135 176,196 181,264 207,341 235,424 284,504 353,583 422,661 514,727 627,781 558,835 536,897 559,966 579,1024 628,1084 705,1147 660,1158 630,1178 614,1205 598,1232 596,1262 606,1293 618,1327 641,1356 675,1380 710,1404 761,1418 828,1422 Z " transform="translate(8582,14534) scale(0.121,-0.121)" fill="rgb(0,0,0)" stroke="none"/></g><text class="SVGTextShape"><tspan class="TextParagraph"><tspan class="TextPosition" x="14187" y="14058"><tspan font-family="Times New Roman, serif" font-size="494px" font-weight="400" lengthAdjust="spacingAndGlyphs" textLength="122" fill="rgb(0,0,0)" stroke="none" style="white-space: pre">,</tspan></tspan></tspan></text>
        <text class="SVGTextShape"><tspan class="TextParagraph"><tspan class="TextPosition" x="12237" y="14058"><tspan font-family="Times New Roman, serif" font-size="494px" font-weight="400" lengthAdjust="spacingAndGlyphs" textLength="122" fill="rgb(0,0,0)" stroke="none" style="white-space: pre">,</tspan></tspan></tspan></text>
        <text class="SVGTextShape"><tspan class="TextParagraph"><tspan class="TextPosition" x="10319" y="14058"><tspan font-family="Times New Roman, serif" font-size="494px" font-weight="400" lengthAdjust="spacingAndGlyphs" textLength="122" fill="rgb(0,0,0)" stroke="none" style="white-space: pre">,</tspan></tspan></tspan></text>
        <text class="SVGTextShape"><tspan class="TextParagraph"><tspan class="TextPosition" x="7478" y="14058"><tspan font-family="Times New Roman, serif" font-size="494px" font-weight="400" lengthAdjust="spacingAndGlyphs" textLength="122" fill="rgb(0,0,0)" stroke="none" style="white-space: pre">,</tspan></tspan></tspan></text>
        <text class="SVGTextShape"><tspan class="TextParagraph"><tspan class="TextPosition" x="14015" y="14182"><tspan font-family="Times New Roman, serif" font-size="247px" font-style="italic" font-weight="400" lengthAdjust="spacingAndGlyphs" textLength="113" fill="rgb(0,0,0)" stroke="none" style="white-space: pre">x</tspan></tspan></tspan></text>
        <text class="SVGTextShape"><tspan class="TextParagraph"><tspan class="TextPosition" x="13388" y="14182"><tspan font-family="Times New Roman, serif" font-size="247px" font-style="italic" font-weight="400" lengthAdjust="spacingAndGlyphs" textLength="113" fill="rgb(0,0,0)" stroke="none" style="white-space: pre">x</tspan></tspan></tspan></text>
        <text class="SVGTextShape"><tspan class="TextParagraph"><tspan class="TextPosition" x="12065" y="14182"><tspan font-family="Times New Roman, serif" font-size="247px" font-style="italic" font-weight="400" lengthAdjust="spacingAndGlyphs" textLength="113" fill="rgb(0,0,0)" stroke="none" style="white-space: pre">x</tspan></tspan></tspan></text>
        <text class="SVGTextShape"><tspan class="TextParagraph"><tspan class="TextPosition" x="11380" y="14182"><tspan font-family="Times New Roman, serif" font-size="247px" font-style="italic" font-weight="400" lengthAdjust="spacingAndGlyphs" textLength="113" fill="rgb(0,0,0)" stroke="none" style="white-space: pre">x</tspan></tspan></tspan></text>
        <text class="SVGTextShape"><tspan class="TextParagraph"><tspan class="TextPosition" x="10147" y="14182"><tspan font-family="Times New Roman, serif" font-size="247px" font-style="italic" font-weight="400" lengthAdjust="spacingAndGlyphs" textLength="113" fill="rgb(0,0,0)" stroke="none" style="white-space: pre">x</tspan></tspan></tspan></text>
        <text class="SVGTextShape"><tspan class="TextParagraph"><tspan class="TextPosition" x="7306" y="14182"><tspan font-family="Times New Roman, serif" font-size="247px" font-style="italic" font-weight="400" lengthAdjust="spacingAndGlyphs" textLength="113" fill="rgb(0,0,0)" stroke="none" style="white-space: pre">x</tspan></tspan></tspan></text>
        <text class="SVGTextShape"><tspan class="TextParagraph"><tspan class="TextPosition" x="6679" y="14182"><tspan font-family="Times New Roman, serif" font-size="247px" font-style="italic" font-weight="400" lengthAdjust="spacingAndGlyphs" textLength="113" fill="rgb(0,0,0)" stroke="none" style="white-space: pre">x</tspan></tspan></tspan></text>
        <text class="SVGTextShape"><tspan class="TextParagraph"><tspan class="TextPosition" x="13743" y="14058"><tspan font-family="Times New Roman, serif" font-size="494px" font-style="italic" font-weight="400" lengthAdjust="spacingAndGlyphs" textLength="243" fill="rgb(0,0,0)" stroke="none" style="white-space: pre">p</tspan></tspan></tspan></text>
        <text class="SVGTextShape"><tspan class="TextParagraph"><tspan class="TextPosition" x="13116" y="14058"><tspan font-family="Times New Roman, serif" font-size="494px" font-style="italic" font-weight="400" lengthAdjust="spacingAndGlyphs" textLength="243" fill="rgb(0,0,0)" stroke="none" style="white-space: pre">p</tspan></tspan></tspan></text>
        <text class="SVGTextShape"><tspan class="TextParagraph"><tspan class="TextPosition" x="12869" y="14058"><tspan font-family="Times New Roman, serif" font-size="494px" font-style="italic" font-weight="400" lengthAdjust="spacingAndGlyphs" textLength="243" fill="rgb(0,0,0)" stroke="none" style="white-space: pre">d</tspan></tspan></tspan></text>
        <text class="SVGTextShape"><tspan class="TextParagraph"><tspan class="TextPosition" x="11793" y="14058"><tspan font-family="Times New Roman, serif" font-size="494px" font-style="italic" font-weight="400" lengthAdjust="spacingAndGlyphs" textLength="243" fill="rgb(0,0,0)" stroke="none" style="white-space: pre">p</tspan></tspan></tspan></text>
        <text class="SVGTextShape"><tspan class="TextParagraph"><tspan class="TextPosition" x="11108" y="14058"><tspan font-family="Times New Roman, serif" font-size="494px" font-style="italic" font-weight="400" lengthAdjust="spacingAndGlyphs" textLength="243" fill="rgb(0,0,0)" stroke="none" style="white-space: pre">p</tspan></tspan></tspan></text>
        <text class="SVGTextShape"><tspan class="TextParagraph"><tspan class="TextPosition" x="9874" y="14058"><tspan font-family="Times New Roman, serif" font-size="494px" font-style="italic" font-weight="400" lengthAdjust="spacingAndGlyphs" textLength="243" fill="rgb(0,0,0)" stroke="none" style="white-space: pre">p</tspan></tspan></tspan></text>
        <text class="SVGTextShape"><tspan class="TextParagraph"><tspan class="TextPosition" x="8830" y="14058"><tspan font-family="Times New Roman, serif" font-size="494px" font-style="italic" font-weight="400" lengthAdjust="spacingAndGlyphs" textLength="243" fill="rgb(0,0,0)" stroke="none" style="white-space: pre">d</tspan></tspan></tspan></text>
        <text class="SVGTextShape"><tspan class="TextParagraph"><tspan class="TextPosition" x="7034" y="14058"><tspan font-family="Times New Roman, serif" font-size="494px" font-style="italic" font-weight="400" lengthAdjust="spacingAndGlyphs" textLength="243" fill="rgb(0,0,0)" stroke="none" style="white-space: pre">p</tspan></tspan></tspan></text>
        <text class="SVGTextShape"><tspan class="TextParagraph"><tspan class="TextPosition" x="6428" y="14058"><tspan font-family="Times New Roman, serif" font-size="494px" font-style="italic" font-weight="400" lengthAdjust="spacingAndGlyphs" textLength="297" fill="rgb(0,0,0)" stroke="none" style="white-space: pre">P</tspan></tspan></tspan></text>
       </g>
      </g>
     </g>
    </g>
   </g>
  </g>
 </g>
</svg>