<?xml version='1.0' encoding='UTF-8'?>
<!DOCTYPE svg PUBLIC "-//W3C//DTD SVG 1.1//EN" "http://www.w3.org/Graphics/SVG/1.1/DTD/svg11.dtd">
<svg xmlns="http://www.w3.org/2000/svg" xmlns:ooo="http://xml.openoffice.org/svg/export" xmlns:xlink="http://www.w3.org/1999/xlink" xmlns:presentation="http://sun.com/xmlns/staroffice/presentation" xmlns:smil="http://www.w3.org/2001/SMIL20/" xmlns:anim="urn:oasis:names:tc:opendocument:xmlns:animation:1.0" xmlns:svg="urn:oasis:names:tc:opendocument:xmlns:svg-compatible:1.0" version="1.2" width="98.780mm" height="29.280mm" viewBox="5856 12506 9878 2928" preserveAspectRatio="xMidYMid" fill-rule="evenodd" stroke-width="28.222" stroke-linejoin="round" xml:space="preserve">
 <defs class="ClipPathGroup">
  <clipPath id="presentation_clip_path" clipPathUnits="userSpaceOnUse">
   <rect x="0" y="0" width="21590" height="27940"/>
  </clipPath>
  <clipPath id="presentation_clip_path_shrink" clipPathUnits="userSpaceOnUse">
   <rect x="21" y="27" width="21547" height="27885"/>
  </clipPath>
 </defs>
 <defs>
  </defs>
 <defs>
  </defs>
 <defs>
  </defs>
 <defs>
  </defs>
 <defs class="TextShapeIndex">
  <g ooo:slide="id1" ooo:id-list="id3"/>
 </defs>
 <defs class="EmbeddedBulletChars">
  <g id="bullet-char-template-57356" transform="scale(0.00048828125,-0.00048828125)">
   <path d="M 580,1141 L 1163,571 580,0 -4,571 580,1141 Z"/>
  </g>
  <g id="bullet-char-template-57354" transform="scale(0.00048828125,-0.00048828125)">
   <path d="M 8,1128 L 1137,1128 1137,0 8,0 8,1128 Z"/>
  </g>
  <g id="bullet-char-template-10146" transform="scale(0.00048828125,-0.00048828125)">
   <path d="M 174,0 L 602,739 174,1481 1456,739 174,0 Z M 1358,739 L 309,1346 659,739 1358,739 Z"/>
  </g>
  <g id="bullet-char-template-10132" transform="scale(0.00048828125,-0.00048828125)">
   <path d="M 2015,739 L 1276,0 717,0 1260,543 174,543 174,936 1260,936 717,1481 1274,1481 2015,739 Z"/>
  </g>
  <g id="bullet-char-template-10007" transform="scale(0.00048828125,-0.00048828125)">
   <path d="M 0,-2 C -7,14 -16,27 -25,37 L 356,567 C 262,823 215,952 215,954 215,979 228,992 255,992 264,992 276,990 289,987 310,991 331,999 354,1012 L 381,999 492,748 772,1049 836,1024 860,1049 C 881,1039 901,1025 922,1006 886,937 835,863 770,784 769,783 710,716 594,584 L 774,223 C 774,196 753,168 711,139 L 727,119 C 717,90 699,76 672,76 641,76 570,178 457,381 L 164,-76 C 142,-110 111,-127 72,-127 30,-127 9,-110 8,-76 1,-67 -2,-52 -2,-32 -2,-23 -1,-13 0,-2 Z"/>
  </g>
  <g id="bullet-char-template-10004" transform="scale(0.00048828125,-0.00048828125)">
   <path d="M 285,-33 C 182,-33 111,30 74,156 52,228 41,333 41,471 41,549 55,616 82,672 116,743 169,778 240,778 293,778 328,747 346,684 L 369,508 C 377,444 397,411 428,410 L 1163,1116 C 1174,1127 1196,1133 1229,1133 1271,1133 1292,1118 1292,1087 L 1292,965 C 1292,929 1282,901 1262,881 L 442,47 C 390,-6 338,-33 285,-33 Z"/>
  </g>
  <g id="bullet-char-template-9679" transform="scale(0.00048828125,-0.00048828125)">
   <path d="M 813,0 C 632,0 489,54 383,161 276,268 223,411 223,592 223,773 276,916 383,1023 489,1130 632,1184 813,1184 992,1184 1136,1130 1245,1023 1353,916 1407,772 1407,592 1407,412 1353,268 1245,161 1136,54 992,0 813,0 Z"/>
  </g>
  <g id="bullet-char-template-8226" transform="scale(0.00048828125,-0.00048828125)">
   <path d="M 346,457 C 273,457 209,483 155,535 101,586 74,649 74,723 74,796 101,859 155,911 209,963 273,989 346,989 419,989 480,963 531,910 582,859 608,796 608,723 608,648 583,586 532,535 482,483 420,457 346,457 Z"/>
  </g>
  <g id="bullet-char-template-8211" transform="scale(0.00048828125,-0.00048828125)">
   <path d="M -4,459 L 1135,459 1135,606 -4,606 -4,459 Z"/>
  </g>
  <g id="bullet-char-template-61548" transform="scale(0.00048828125,-0.00048828125)">
   <path d="M 173,740 C 173,903 231,1043 346,1159 462,1274 601,1332 765,1332 928,1332 1067,1274 1183,1159 1299,1043 1357,903 1357,740 1357,577 1299,437 1183,322 1067,206 928,148 765,148 601,148 462,206 346,322 231,437 173,577 173,740 Z"/>
  </g>
 </defs>
 <g>
  <g id="id2" class="Master_Slide">
   <g id="bg-id2" class="Background"/>
   <g id="bo-id2" class="BackgroundObjects"/>
  </g>
 </g>
 <g class="SlideGroup">
  <g>
   <g id="container-id1">
    <g id="id1" class="Slide" clip-path="url(#presentation_clip_path)">
     <g class="Page">
      <g class="Graphic">
       <g id="id3">
        <rect class="BoundingBox" stroke="none" fill="none" x="5856" y="12506" width="9878" height="2928"/>
        <path fill="none" stroke="rgb(0,0,0)" stroke-width="18" stroke-linejoin="round" stroke-linecap="round" d="M 6051,12602 L 5935,12938 6051,13274 "/>
        <path fill="none" stroke="rgb(0,0,0)" stroke-width="18" stroke-linejoin="round" stroke-linecap="round" d="M 6822,12602 L 6938,12938 6822,13274 "/>
        <path fill="none" stroke="rgb(0,0,0)" stroke-width="18" stroke-linejoin="round" stroke-linecap="round" d="M 8409,12648 L 8302,12938 8409,13228 "/>
        <path fill="none" stroke="rgb(0,0,0)" stroke-width="18" stroke-linejoin="round" stroke-linecap="round" d="M 8860,12648 L 8860,13228 "/>
        <path fill="none" stroke="rgb(0,0,0)" stroke-width="18" stroke-linejoin="round" stroke-linecap="round" d="M 9717,12602 L 9717,13274 "/>
        <path fill="none" stroke="rgb(0,0,0)" stroke-width="18" stroke-linejoin="round" stroke-linecap="round" d="M 11213,12602 L 11329,12938 11213,13274 "/>
        <path fill="none" stroke="rgb(0,0,0)" stroke-width="18" stroke-linejoin="round" stroke-linecap="round" d="M 11501,12602 L 11385,12938 11501,13274 "/>
        <path fill="none" stroke="rgb(0,0,0)" stroke-width="18" stroke-linejoin="round" stroke-linecap="round" d="M 12988,12602 L 12988,13274 "/>
        <path fill="none" stroke="rgb(0,0,0)" stroke-width="18" stroke-linejoin="round" stroke-linecap="round" d="M 13448,12602 L 13563,12938 13448,13274 "/>
        <path fill="none" stroke="rgb(0,0,0)" stroke-width="18" stroke-linejoin="round" stroke-linecap="round" d="M 6422,14330 L 6315,14620 6422,14910 "/>
        <path fill="none" stroke="rgb(0,0,0)" stroke-width="18" stroke-linejoin="round" stroke-linecap="round" d="M 6872,14330 L 6872,14910 "/>
        <path fill="none" stroke="rgb(0,0,0)" stroke-width="18" stroke-linejoin="round" stroke-linecap="round" d="M 8773,14284 L 8773,14957 "/>
        <path fill="none" stroke="rgb(0,0,0)" stroke-width="18" stroke-linejoin="round" stroke-linecap="round" d="M 10269,14284 L 10385,14620 10269,14957 "/>
        <path fill="none" stroke="rgb(0,0,0)" stroke-width="18" stroke-linejoin="round" stroke-linecap="round" d="M 10557,14284 L 10441,14620 10557,14957 "/>
        <path fill="none" stroke="rgb(0,0,0)" stroke-width="18" stroke-linejoin="round" stroke-linecap="round" d="M 12044,14284 L 12044,14957 "/>
        <path fill="none" stroke="rgb(0,0,0)" stroke-width="18" stroke-linejoin="round" stroke-linecap="round" d="M 14035,14330 L 14035,14910 "/>
        <path fill="none" stroke="rgb(0,0,0)" stroke-width="18" stroke-linejoin="round" stroke-linecap="round" d="M 14495,14330 L 14602,14620 14495,14910 "/>
        <g class="OutlinedText"><path d="M 1067,916 L 766,28 C 820,38 868,57 909,84 949,111 992,158 1038,223 1083,288 1142,406 1215,576 1275,717 1330,813 1379,866 1428,918 1490,944 1564,944 1589,944 1625,938 1671,927 L 1660,894 C 1631,894 1608,889 1591,879 1566,864 1542,839 1518,803 1494,767 1460,701 1417,604 1349,448 1289,335 1236,265 1197,214 1148,165 1090,120 1031,74 974,40 920,17 866,-6 808,-21 746,-28 L 606,-442 497,-442 637,-28 C 551,-17 482,15 432,67 381,118 353,184 346,263 341,323 358,437 397,606 420,707 432,775 432,810 433,845 426,868 411,881 402,890 382,894 351,894 L 362,927 C 422,938 462,944 483,944 522,944 555,933 580,911 606,888 620,854 621,809 622,764 609,686 580,575 538,410 517,295 517,228 517,161 528,114 550,87 572,59 608,39 657,28 L 958,916 1067,916 Z " transform="translate(14055,14744) scale(0.241,-0.241)" fill="rgb(0,0,0)" stroke="none"/></g><g class="OutlinedText"><path d="M 828,1422 L 816,1387 C 775,1380 745,1369 725,1354 705,1338 691,1319 683,1296 674,1268 676,1245 688,1227 701,1209 728,1199 769,1197 866,1264 943,1310 1000,1335 1056,1360 1103,1373 1140,1373 1157,1373 1170,1368 1178,1357 1186,1346 1187,1334 1182,1319 1171,1286 1143,1256 1098,1230 1026,1188 925,1161 796,1149 706,1089 650,1028 629,965 608,903 635,854 710,818 786,845 851,865 906,878 961,891 1007,897 1042,897 1073,897 1094,891 1104,880 1114,868 1116,853 1109,834 1102,811 1083,792 1055,777 1004,750 937,737 853,737 829,737 805,738 779,741 753,744 727,747 700,752 606,717 522,666 449,598 375,529 326,458 301,385 282,328 279,282 294,247 309,211 334,186 370,171 392,162 428,157 480,157 534,157 587,159 641,163 715,168 763,170 786,170 850,170 897,147 924,100 951,53 951,-13 922,-96 886,-202 828,-286 748,-348 668,-411 584,-442 498,-442 452,-442 420,-433 403,-414 385,-395 380,-375 388,-354 394,-337 405,-322 423,-309 441,-296 459,-290 477,-290 491,-290 515,-295 548,-304 581,-313 605,-318 620,-318 664,-318 706,-303 747,-272 788,-241 817,-201 833,-152 847,-111 846,-77 831,-52 815,-27 790,-15 755,-15 736,-15 702,-18 656,-23 609,-29 563,-32 519,-32 414,-32 337,-19 290,6 242,31 210,74 193,135 176,196 181,264 207,341 235,424 284,504 353,583 422,661 514,727 627,781 558,835 536,897 559,966 579,1024 628,1084 705,1147 660,1158 630,1178 614,1205 598,1232 596,1262 606,1293 618,1327 641,1356 675,1380 710,1404 761,1418 828,1422 Z " transform="translate(12340,14744) scale(0.241,-0.241)" fill="rgb(0,0,0)" stroke="none"/></g><g class="OutlinedText"><path d="M 828,1422 L 816,1387 C 775,1380 745,1369 725,1354 705,1338 691,1319 683,1296 674,1268 676,1245 688,1227 701,1209 728,1199 769,1197 866,1264 943,1310 1000,1335 1056,1360 1103,1373 1140,1373 1157,1373 1170,1368 1178,1357 1186,1346 1187,1334 1182,1319 1171,1286 1143,1256 1098,1230 1026,1188 925,1161 796,1149 706,1089 650,1028 629,965 608,903 635,854 710,818 786,845 851,865 906,878 961,891 1007,897 1042,897 1073,897 1094,891 1104,880 1114,868 1116,853 1109,834 1102,811 1083,792 1055,777 1004,750 937,737 853,737 829,737 805,738 779,741 753,744 727,747 700,752 606,717 522,666 449,598 375,529 326,458 301,385 282,328 279,282 294,247 309,211 334,186 370,171 392,162 428,157 480,157 534,157 587,159 641,163 715,168 763,170 786,170 850,170 897,147 924,100 951,53 951,-13 922,-96 886,-202 828,-286 748,-348 668,-411 584,-442 498,-442 452,-442 420,-433 403,-414 385,-395 380,-375 388,-354 394,-337 405,-322 423,-309 441,-296 459,-290 477,-290 491,-290 515,-295 548,-304 581,-313 605,-318 620,-318 664,-318 706,-303 747,-272 788,-241 817,-201 833,-152 847,-111 846,-77 831,-52 815,-27 790,-15 755,-15 736,-15 702,-18 656,-23 609,-29 563,-32 519,-32 414,-32 337,-19 290,6 242,31 210,74 193,135 176,196 181,264 207,341 235,424 284,504 353,583 422,661 514,727 627,781 558,835 536,897 559,966 579,1024 628,1084 705,1147 660,1158 630,1178 614,1205 598,1232 596,1262 606,1293 618,1327 641,1356 675,1380 710,1404 761,1418 828,1422 Z " transform="translate(11670,14744) scale(0.241,-0.241)" fill="rgb(0,0,0)" stroke="none"/></g><g class="OutlinedText"><path d="M 828,1422 L 816,1387 C 775,1380 745,1369 725,1354 705,1338 691,1319 683,1296 674,1268 676,1245 688,1227 701,1209 728,1199 769,1197 866,1264 943,1310 1000,1335 1056,1360 1103,1373 1140,1373 1157,1373 1170,1368 1178,1357 1186,1346 1187,1334 1182,1319 1171,1286 1143,1256 1098,1230 1026,1188 925,1161 796,1149 706,1089 650,1028 629,965 608,903 635,854 710,818 786,845 851,865 906,878 961,891 1007,897 1042,897 1073,897 1094,891 1104,880 1114,868 1116,853 1109,834 1102,811 1083,792 1055,777 1004,750 937,737 853,737 829,737 805,738 779,741 753,744 727,747 700,752 606,717 522,666 449,598 375,529 326,458 301,385 282,328 279,282 294,247 309,211 334,186 370,171 392,162 428,157 480,157 534,157 587,159 641,163 715,168 763,170 786,170 850,170 897,147 924,100 951,53 951,-13 922,-96 886,-202 828,-286 748,-348 668,-411 584,-442 498,-442 452,-442 420,-433 403,-414 385,-395 380,-375 388,-354 394,-337 405,-322 423,-309 441,-296 459,-290 477,-290 491,-290 515,-295 548,-304 581,-313 605,-318 620,-318 664,-318 706,-303 747,-272 788,-241 817,-201 833,-152 847,-111 846,-77 831,-52 815,-27 790,-15 755,-15 736,-15 702,-18 656,-23 609,-29 563,-32 519,-32 414,-32 337,-19 290,6 242,31 210,74 193,135 176,196 181,264 207,341 235,424 284,504 353,583 422,661 514,727 627,781 558,835 536,897 559,966 579,1024 628,1084 705,1147 660,1158 630,1178 614,1205 598,1232 596,1262 606,1293 618,1327 641,1356 675,1380 710,1404 761,1418 828,1422 Z " transform="translate(9936,14744) scale(0.241,-0.241)" fill="rgb(0,0,0)" stroke="none"/></g><g class="OutlinedText"><path d="M 1067,916 L 766,28 C 820,38 868,57 909,84 949,111 992,158 1038,223 1083,288 1142,406 1215,576 1275,717 1330,813 1379,866 1428,918 1490,944 1564,944 1589,944 1625,938 1671,927 L 1660,894 C 1631,894 1608,889 1591,879 1566,864 1542,839 1518,803 1494,767 1460,701 1417,604 1349,448 1289,335 1236,265 1197,214 1148,165 1090,120 1031,74 974,40 920,17 866,-6 808,-21 746,-28 L 606,-442 497,-442 637,-28 C 551,-17 482,15 432,67 381,118 353,184 346,263 341,323 358,437 397,606 420,707 432,775 432,810 433,845 426,868 411,881 402,890 382,894 351,894 L 362,927 C 422,938 462,944 483,944 522,944 555,933 580,911 606,888 620,854 621,809 622,764 609,686 580,575 538,410 517,295 517,228 517,161 528,114 550,87 572,59 608,39 657,28 L 958,916 1067,916 Z " transform="translate(6392,14744) scale(0.241,-0.241)" fill="rgb(0,0,0)" stroke="none"/></g><g class="OutlinedText"><path d="M 828,1422 L 816,1387 C 775,1380 745,1369 725,1354 705,1338 691,1319 683,1296 674,1268 676,1245 688,1227 701,1209 728,1199 769,1197 866,1264 943,1310 1000,1335 1056,1360 1103,1373 1140,1373 1157,1373 1170,1368 1178,1357 1186,1346 1187,1334 1182,1319 1171,1286 1143,1256 1098,1230 1026,1188 925,1161 796,1149 706,1089 650,1028 629,965 608,903 635,854 710,818 786,845 851,865 906,878 961,891 1007,897 1042,897 1073,897 1094,891 1104,880 1114,868 1116,853 1109,834 1102,811 1083,792 1055,777 1004,750 937,737 853,737 829,737 805,738 779,741 753,744 727,747 700,752 606,717 522,666 449,598 375,529 326,458 301,385 282,328 279,282 294,247 309,211 334,186 370,171 392,162 428,157 480,157 534,157 587,159 641,163 715,168 763,170 786,170 850,170 897,147 924,100 951,53 951,-13 922,-96 886,-202 828,-286 748,-348 668,-411 584,-442 498,-442 452,-442 420,-433 403,-414 385,-395 380,-375 388,-354 394,-337 405,-322 423,-309 441,-296 459,-290 477,-290 491,-290 515,-295 548,-304 581,-313 605,-318 620,-318 664,-318 706,-303 747,-272 788,-241 817,-201 833,-152 847,-111 846,-77 831,-52 815,-27 790,-15 755,-15 736,-15 702,-18 656,-23 609,-29 563,-32 519,-32 414,-32 337,-19 290,6 242,31 210,74 193,135 176,196 181,264 207,341 235,424 284,504 353,583 422,661 514,727 627,781 558,835 536,897 559,966 579,1024 628,1084 705,1147 660,1158 630,1178 614,1205 598,1232 596,1262 606,1293 618,1327 641,1356 675,1380 710,1404 761,1418 828,1422 Z " transform="translate(13850,13062) scale(0.241,-0.241)" fill="rgb(0,0,0)" stroke="none"/></g><g class="OutlinedText"><path d="M 1067,916 L 766,28 C 820,38 868,57 909,84 949,111 992,158 1038,223 1083,288 1142,406 1215,576 1275,717 1330,813 1379,866 1428,918 1490,944 1564,944 1589,944 1625,938 1671,927 L 1660,894 C 1631,894 1608,889 1591,879 1566,864 1542,839 1518,803 1494,767 1460,701 1417,604 1349,448 1289,335 1236,265 1197,214 1148,165 1090,120 1031,74 974,40 920,17 866,-6 808,-21 746,-28 L 606,-442 497,-442 637,-28 C 551,-17 482,15 432,67 381,118 353,184 346,263 341,323 358,437 397,606 420,707 432,775 432,810 433,845 426,868 411,881 402,890 382,894 351,894 L 362,927 C 422,938 462,944 483,944 522,944 555,933 580,911 606,888 620,854 621,809 622,764 609,686 580,575 538,410 517,295 517,228 517,161 528,114 550,87 572,59 608,39 657,28 L 958,916 1067,916 Z " transform="translate(13008,13062) scale(0.241,-0.241)" fill="rgb(0,0,0)" stroke="none"/></g><g class="OutlinedText"><path d="M 828,1422 L 816,1387 C 775,1380 745,1369 725,1354 705,1338 691,1319 683,1296 674,1268 676,1245 688,1227 701,1209 728,1199 769,1197 866,1264 943,1310 1000,1335 1056,1360 1103,1373 1140,1373 1157,1373 1170,1368 1178,1357 1186,1346 1187,1334 1182,1319 1171,1286 1143,1256 1098,1230 1026,1188 925,1161 796,1149 706,1089 650,1028 629,965 608,903 635,854 710,818 786,845 851,865 906,878 961,891 1007,897 1042,897 1073,897 1094,891 1104,880 1114,868 1116,853 1109,834 1102,811 1083,792 1055,777 1004,750 937,737 853,737 829,737 805,738 779,741 753,744 727,747 700,752 606,717 522,666 449,598 375,529 326,458 301,385 282,328 279,282 294,247 309,211 334,186 370,171 392,162 428,157 480,157 534,157 587,159 641,163 715,168 763,170 786,170 850,170 897,147 924,100 951,53 951,-13 922,-96 886,-202 828,-286 748,-348 668,-411 584,-442 498,-442 452,-442 420,-433 403,-414 385,-395 380,-375 388,-354 394,-337 405,-322 423,-309 441,-296 459,-290 477,-290 491,-290 515,-295 548,-304 581,-313 605,-318 620,-318 664,-318 706,-303 747,-272 788,-241 817,-201 833,-152 847,-111 846,-77 831,-52 815,-27 790,-15 755,-15 736,-15 702,-18 656,-23 609,-29 563,-32 519,-32 414,-32 337,-19 290,6 242,31 210,74 193,135 176,196 181,264 207,341 235,424 284,504 353,583 422,661 514,727 627,781 558,835 536,897 559,966 579,1024 628,1084 705,1147 660,1158 630,1178 614,1205 598,1232 596,1262 606,1293 618,1327 641,1356 675,1380 710,1404 761,1418 828,1422 Z " transform="translate(12614,13062) scale(0.241,-0.241)" fill="rgb(0,0,0)" stroke="none"/></g><g class="OutlinedText"><path d="M 828,1422 L 816,1387 C 775,1380 745,1369 725,1354 705,1338 691,1319 683,1296 674,1268 676,1245 688,1227 701,1209 728,1199 769,1197 866,1264 943,1310 1000,1335 1056,1360 1103,1373 1140,1373 1157,1373 1170,1368 1178,1357 1186,1346 1187,1334 1182,1319 1171,1286 1143,1256 1098,1230 1026,1188 925,1161 796,1149 706,1089 650,1028 629,965 608,903 635,854 710,818 786,845 851,865 906,878 961,891 1007,897 1042,897 1073,897 1094,891 1104,880 1114,868 1116,853 1109,834 1102,811 1083,792 1055,777 1004,750 937,737 853,737 829,737 805,738 779,741 753,744 727,747 700,752 606,717 522,666 449,598 375,529 326,458 301,385 282,328 279,282 294,247 309,211 334,186 370,171 392,162 428,157 480,157 534,157 587,159 641,163 715,168 763,170 786,170 850,170 897,147 924,100 951,53 951,-13 922,-96 886,-202 828,-286 748,-348 668,-411 584,-442 498,-442 452,-442 420,-433 403,-414 385,-395 380,-375 388,-354 394,-337 405,-322 423,-309 441,-296 459,-290 477,-290 491,-290 515,-295 548,-304 581,-313 605,-318 620,-318 664,-318 706,-303 747,-272 788,-241 817,-201 833,-152 847,-111 846,-77 831,-52 815,-27 790,-15 755,-15 736,-15 702,-18 656,-23 609,-29 563,-32 519,-32 414,-32 337,-19 290,6 242,31 210,74 193,135 176,196 181,264 207,341 235,424 284,504 353,583 422,661 514,727 627,781 558,835 536,897 559,966 579,1024 628,1084 705,1147 660,1158 630,1178 614,1205 598,1232 596,1262 606,1293 618,1327 641,1356 675,1380 710,1404 761,1418 828,1422 Z " transform="translate(10880,13062) scale(0.241,-0.241)" fill="rgb(0,0,0)" stroke="none"/></g><g class="OutlinedText"><path d="M 1067,916 L 766,28 C 820,38 868,57 909,84 949,111 992,158 1038,223 1083,288 1142,406 1215,576 1275,717 1330,813 1379,866 1428,918 1490,944 1564,944 1589,944 1625,938 1671,927 L 1660,894 C 1631,894 1608,889 1591,879 1566,864 1542,839 1518,803 1494,767 1460,701 1417,604 1349,448 1289,335 1236,265 1197,214 1148,165 1090,120 1031,74 974,40 920,17 866,-6 808,-21 746,-28 L 606,-442 497,-442 637,-28 C 551,-17 482,15 432,67 381,118 353,184 346,263 341,323 358,437 397,606 420,707 432,775 432,810 433,845 426,868 411,881 402,890 382,894 351,894 L 362,927 C 422,938 462,944 483,944 522,944 555,933 580,911 606,888 620,854 621,809 622,764 609,686 580,575 538,410 517,295 517,228 517,161 528,114 550,87 572,59 608,39 657,28 L 958,916 1067,916 Z " transform="translate(8380,13062) scale(0.241,-0.241)" fill="rgb(0,0,0)" stroke="none"/></g><g class="OutlinedText"><path d="M 828,1422 L 816,1387 C 775,1380 745,1369 725,1354 705,1338 691,1319 683,1296 674,1268 676,1245 688,1227 701,1209 728,1199 769,1197 866,1264 943,1310 1000,1335 1056,1360 1103,1373 1140,1373 1157,1373 1170,1368 1178,1357 1186,1346 1187,1334 1182,1319 1171,1286 1143,1256 1098,1230 1026,1188 925,1161 796,1149 706,1089 650,1028 629,965 608,903 635,854 710,818 786,845 851,865 906,878 961,891 1007,897 1042,897 1073,897 1094,891 1104,880 1114,868 1116,853 1109,834 1102,811 1083,792 1055,777 1004,750 937,737 853,737 829,737 805,738 779,741 753,744 727,747 700,752 606,717 522,666 449,598 375,529 326,458 301,385 282,328 279,282 294,247 309,211 334,186 370,171 392,162 428,157 480,157 534,157 587,159 641,163 715,168 763,170 786,170 850,170 897,147 924,100 951,53 951,-13 922,-96 886,-202 828,-286 748,-348 668,-411 584,-442 498,-442 452,-442 420,-433 403,-414 385,-395 380,-375 388,-354 394,-337 405,-322 423,-309 441,-296 459,-290 477,-290 491,-290 515,-295 548,-304 581,-313 605,-318 620,-318 664,-318 706,-303 747,-272 788,-241 817,-201 833,-152 847,-111 846,-77 831,-52 815,-27 790,-15 755,-15 736,-15 702,-18 656,-23 609,-29 563,-32 519,-32 414,-32 337,-19 290,6 242,31 210,74 193,135 176,196 181,264 207,341 235,424 284,504 353,583 422,661 514,727 627,781 558,835 536,897 559,966 579,1024 628,1084 705,1147 660,1158 630,1178 614,1205 598,1232 596,1262 606,1293 618,1327 641,1356 675,1380 710,1404 761,1418 828,1422 Z " transform="translate(8509,15220) scale(0.121,-0.121)" fill="rgb(0,0,0)" stroke="none"/></g><g class="OutlinedText"><path d="M 828,1422 L 816,1387 C 775,1380 745,1369 725,1354 705,1338 691,1319 683,1296 674,1268 676,1245 688,1227 701,1209 728,1199 769,1197 866,1264 943,1310 1000,1335 1056,1360 1103,1373 1140,1373 1157,1373 1170,1368 1178,1357 1186,1346 1187,1334 1182,1319 1171,1286 1143,1256 1098,1230 1026,1188 925,1161 796,1149 706,1089 650,1028 629,965 608,903 635,854 710,818 786,845 851,865 906,878 961,891 1007,897 1042,897 1073,897 1094,891 1104,880 1114,868 1116,853 1109,834 1102,811 1083,792 1055,777 1004,750 937,737 853,737 829,737 805,738 779,741 753,744 727,747 700,752 606,717 522,666 449,598 375,529 326,458 301,385 282,328 279,282 294,247 309,211 334,186 370,171 392,162 428,157 480,157 534,157 587,159 641,163 715,168 763,170 786,170 850,170 897,147 924,100 951,53 951,-13 922,-96 886,-202 828,-286 748,-348 668,-411 584,-442 498,-442 452,-442 420,-433 403,-414 385,-395 380,-375 388,-354 394,-337 405,-322 423,-309 441,-296 459,-290 477,-290 491,-290 515,-295 548,-304 581,-313 605,-318 620,-318 664,-318 706,-303 747,-272 788,-241 817,-201 833,-152 847,-111 846,-77 831,-52 815,-27 790,-15 755,-15 736,-15 702,-18 656,-23 609,-29 563,-32 519,-32 414,-32 337,-19 290,6 242,31 210,74 193,135 176,196 181,264 207,341 235,424 284,504 353,583 422,661 514,727 627,781 558,835 536,897 559,966 579,1024 628,1084 705,1147 660,1158 630,1178 614,1205 598,1232 596,1262 606,1293 618,1327 641,1356 675,1380 710,1404 761,1418 828,1422 Z " transform="translate(8038,13538) scale(0.121,-0.121)" fill="rgb(0,0,0)" stroke="none"/></g><g class="OutlinedText"><path d="M 641,1897 L 738,1897 738,-166 641,-166 641,1897 Z " transform="translate(13802,15232) scale(0.241,-0.241)" fill="rgb(0,0,0)" stroke="none"/></g><g class="OutlinedText"><path d="M 641,1897 L 738,1897 738,-166 641,-166 641,1897 Z " transform="translate(13802,14817) scale(0.241,-0.241)" fill="rgb(0,0,0)" stroke="none"/></g><g class="OutlinedText"><path d="M 640,1897 L 738,1897 738,-166 35,-166 35,-69 640,-69 640,1897 Z " transform="translate(13802,15317) scale(0.241,-0.241)" fill="rgb(0,0,0)" stroke="none"/></g><g class="OutlinedText"><path d="M 35,1897 L 738,1897 738,-166 640,-166 640,1799 35,1799 35,1897 Z " transform="translate(13802,14340) scale(0.241,-0.241)" fill="rgb(0,0,0)" stroke="none"/></g><g class="OutlinedText"><path d="M 97,-166 L 0,-166 0,1897 97,1897 97,-166 Z " transform="translate(7720,15232) scale(0.241,-0.241)" fill="rgb(0,0,0)" stroke="none"/></g><g class="OutlinedText"><path d="M 97,-166 L 0,-166 0,1897 97,1897 97,-166 Z " transform="translate(7720,14817) scale(0.241,-0.241)" fill="rgb(0,0,0)" stroke="none"/></g><g class="OutlinedText"><path d="M 703,-166 L 0,-166 0,1897 97,1897 97,-69 703,-69 703,-166 Z " transform="translate(7720,15317) scale(0.241,-0.241)" fill="rgb(0,0,0)" stroke="none"/></g><g class="OutlinedText"><path d="M 97,-166 L 0,-166 0,1897 703,1897 703,1799 97,1799 97,-166 Z " transform="translate(7720,14340) scale(0.241,-0.241)" fill="rgb(0,0,0)" stroke="none"/></g><g class="OutlinedText"><path d="M 37,759 L 1087,759 1087,662 37,662 37,759 Z M 37,386 L 1087,386 1087,287 37,287 37,386 Z " transform="translate(5919,14744) scale(0.241,-0.241)" fill="rgb(0,0,0)" stroke="none"/></g><g class="OutlinedText"><path d="M 37,759 L 1087,759 1087,662 37,662 37,759 Z M 37,386 L 1087,386 1087,287 37,287 37,386 Z " transform="translate(15407,13062) scale(0.241,-0.241)" fill="rgb(0,0,0)" stroke="none"/></g><g class="OutlinedText"><path d="M 37,759 L 1087,759 1087,662 37,662 37,759 Z M 37,386 L 1087,386 1087,287 37,287 37,386 Z " transform="translate(7071,13062) scale(0.241,-0.241)" fill="rgb(0,0,0)" stroke="none"/></g><g class="OutlinedText"><path d="M 201,948 C 213,1315 221,1515 224,1546 239,1670 266,1754 305,1798 343,1841 386,1863 435,1863 468,1863 498,1852 523,1830 548,1807 560,1783 560,1756 560,1725 551,1700 534,1681 516,1662 494,1652 468,1652 445,1652 419,1664 392,1688 377,1701 363,1708 352,1708 341,1708 331,1703 324,1694 316,1684 312,1667 312,1644 312,1616 315,1568 321,1499 346,1226 358,1004 358,834 358,789 353,593 342,246 337,49 307,-84 252,-153 216,-198 171,-220 118,-220 83,-220 55,-209 33,-186 11,-163 0,-134 0,-99 0,-69 9,-45 26,-27 43,-9 64,0 90,0 117,0 140,-11 159,-32 178,-53 195,-64 208,-64 219,-64 229,-59 236,-50 243,-41 247,-25 247,-3 247,25 244,65 238,117 213,327 201,604 201,948 Z " transform="translate(8081,14907) scale(0.345,-0.345)" fill="rgb(0,0,0)" stroke="none"/></g><g class="OutlinedText"><path d="M 201,948 C 213,1315 221,1515 224,1546 239,1670 266,1754 305,1798 343,1841 386,1863 435,1863 468,1863 498,1852 523,1830 548,1807 560,1783 560,1756 560,1725 551,1700 534,1681 516,1662 494,1652 468,1652 445,1652 419,1664 392,1688 377,1701 363,1708 352,1708 341,1708 331,1703 324,1694 316,1684 312,1667 312,1644 312,1616 315,1568 321,1499 346,1226 358,1004 358,834 358,789 353,593 342,246 337,49 307,-84 252,-153 216,-198 171,-220 118,-220 83,-220 55,-209 33,-186 11,-163 0,-134 0,-99 0,-69 9,-45 26,-27 43,-9 64,0 90,0 117,0 140,-11 159,-32 178,-53 195,-64 208,-64 219,-64 229,-59 236,-50 243,-41 247,-25 247,-3 247,25 244,65 238,117 213,327 201,604 201,948 Z " transform="translate(8499,14907) scale(0.345,-0.345)" fill="rgb(0,0,0)" stroke="none"/></g><g class="OutlinedText"><path d="M 201,948 C 213,1315 221,1515 224,1546 239,1670 266,1754 305,1798 343,1841 386,1863 435,1863 468,1863 498,1852 523,1830 548,1807 560,1783 560,1756 560,1725 551,1700 534,1681 516,1662 494,1652 468,1652 445,1652 419,1664 392,1688 377,1701 363,1708 352,1708 341,1708 331,1703 324,1694 316,1684 312,1667 312,1644 312,1616 315,1568 321,1499 346,1226 358,1004 358,834 358,789 353,593 342,246 337,49 307,-84 252,-153 216,-198 171,-220 118,-220 83,-220 55,-209 33,-186 11,-163 0,-134 0,-99 0,-69 9,-45 26,-27 43,-9 64,0 90,0 117,0 140,-11 159,-32 178,-53 195,-64 208,-64 219,-64 229,-59 236,-50 243,-41 247,-25 247,-3 247,25 244,65 238,117 213,327 201,604 201,948 Z " transform="translate(7610,13225) scale(0.345,-0.345)" fill="rgb(0,0,0)" stroke="none"/></g><g class="OutlinedText"><path d="M 201,948 C 213,1315 221,1515 224,1546 239,1670 266,1754 305,1798 343,1841 386,1863 435,1863 468,1863 498,1852 523,1830 548,1807 560,1783 560,1756 560,1725 551,1700 534,1681 516,1662 494,1652 468,1652 445,1652 419,1664 392,1688 377,1701 363,1708 352,1708 341,1708 331,1703 324,1694 316,1684 312,1667 312,1644 312,1616 315,1568 321,1499 346,1226 358,1004 358,834 358,789 353,593 342,246 337,49 307,-84 252,-153 216,-198 171,-220 118,-220 83,-220 55,-209 33,-186 11,-163 0,-134 0,-99 0,-69 9,-45 26,-27 43,-9 64,0 90,0 117,0 140,-11 159,-32 178,-53 195,-64 208,-64 219,-64 229,-59 236,-50 243,-41 247,-25 247,-3 247,25 244,65 238,117 213,327 201,604 201,948 Z " transform="translate(8028,13225) scale(0.345,-0.345)" fill="rgb(0,0,0)" stroke="none"/></g><text class="SVGTextShape"><tspan class="TextParagraph"><tspan class="TextPosition" x="13611" y="14867"><tspan font-family="Times New Roman, serif" font-size="247px" font-style="italic" font-weight="400" lengthAdjust="spacingAndGlyphs" textLength="113" fill="rgb(0,0,0)" stroke="none" style="white-space: pre">y</tspan></tspan></tspan></text>
        <text class="SVGTextShape"><tspan class="TextParagraph"><tspan class="TextPosition" x="8170" y="15220"><tspan font-family="Times New Roman, serif" font-size="247px" font-style="italic" font-weight="400" lengthAdjust="spacingAndGlyphs" textLength="127" fill="rgb(0,0,0)" stroke="none" style="white-space: pre">p</tspan></tspan></tspan></text>
        <text class="SVGTextShape"><tspan class="TextParagraph"><tspan class="TextPosition" x="7936" y="15220"><tspan font-family="Times New Roman, serif" font-size="247px" font-style="italic" font-weight="400" lengthAdjust="spacingAndGlyphs" textLength="113" fill="rgb(0,0,0)" stroke="none" style="white-space: pre">x</tspan></tspan></tspan></text>
        <text class="SVGTextShape"><tspan class="TextParagraph"><tspan class="TextPosition" x="11361" y="14867"><tspan font-family="Times New Roman, serif" font-size="247px" font-style="italic" font-weight="400" lengthAdjust="spacingAndGlyphs" textLength="113" fill="rgb(0,0,0)" stroke="none" style="white-space: pre">y</tspan></tspan></tspan></text>
        <text class="SVGTextShape"><tspan class="TextParagraph"><tspan class="TextPosition" x="9626" y="14867"><tspan font-family="Times New Roman, serif" font-size="247px" font-style="italic" font-weight="400" lengthAdjust="spacingAndGlyphs" textLength="113" fill="rgb(0,0,0)" stroke="none" style="white-space: pre">y</tspan></tspan></tspan></text>
        <text class="SVGTextShape"><tspan class="TextParagraph"><tspan class="TextPosition" x="7521" y="14867"><tspan font-family="Times New Roman, serif" font-size="247px" font-style="italic" font-weight="400" lengthAdjust="spacingAndGlyphs" textLength="113" fill="rgb(0,0,0)" stroke="none" style="white-space: pre">y</tspan></tspan></tspan></text>
        <text class="SVGTextShape"><tspan class="TextParagraph"><tspan class="TextPosition" x="15121" y="13185"><tspan font-family="Times New Roman, serif" font-size="247px" font-style="italic" font-weight="400" lengthAdjust="spacingAndGlyphs" textLength="113" fill="rgb(0,0,0)" stroke="none" style="white-space: pre">y</tspan></tspan></tspan></text>
        <text class="SVGTextShape"><tspan class="TextParagraph"><tspan class="TextPosition" x="7699" y="13538"><tspan font-family="Times New Roman, serif" font-size="247px" font-style="italic" font-weight="400" lengthAdjust="spacingAndGlyphs" textLength="127" fill="rgb(0,0,0)" stroke="none" style="white-space: pre">p</tspan></tspan></tspan></text>
        <text class="SVGTextShape"><tspan class="TextParagraph"><tspan class="TextPosition" x="7466" y="13538"><tspan font-family="Times New Roman, serif" font-size="247px" font-style="italic" font-weight="400" lengthAdjust="spacingAndGlyphs" textLength="113" fill="rgb(0,0,0)" stroke="none" style="white-space: pre">x</tspan></tspan></tspan></text>
        <text class="SVGTextShape"><tspan class="TextParagraph"><tspan class="TextPosition" x="12304" y="13185"><tspan font-family="Times New Roman, serif" font-size="247px" font-style="italic" font-weight="400" lengthAdjust="spacingAndGlyphs" textLength="113" fill="rgb(0,0,0)" stroke="none" style="white-space: pre">y</tspan></tspan></tspan></text>
        <text class="SVGTextShape"><tspan class="TextParagraph"><tspan class="TextPosition" x="10570" y="13185"><tspan font-family="Times New Roman, serif" font-size="247px" font-style="italic" font-weight="400" lengthAdjust="spacingAndGlyphs" textLength="113" fill="rgb(0,0,0)" stroke="none" style="white-space: pre">y</tspan></tspan></tspan></text>
        <text class="SVGTextShape"><tspan class="TextParagraph"><tspan class="TextPosition" x="9508" y="13185"><tspan font-family="Times New Roman, serif" font-size="247px" font-style="italic" font-weight="400" lengthAdjust="spacingAndGlyphs" textLength="113" fill="rgb(0,0,0)" stroke="none" style="white-space: pre">y</tspan></tspan></tspan></text>
        <text class="SVGTextShape"><tspan class="TextParagraph"><tspan class="TextPosition" x="6613" y="13185"><tspan font-family="Times New Roman, serif" font-size="247px" font-style="italic" font-weight="400" lengthAdjust="spacingAndGlyphs" textLength="113" fill="rgb(0,0,0)" stroke="none" style="white-space: pre">y</tspan></tspan></tspan></text>
        <text class="SVGTextShape"><tspan class="TextParagraph"><tspan class="TextPosition" x="12617" y="14744"><tspan font-family="Times New Roman, serif" font-size="494px" font-style="italic" font-weight="400" lengthAdjust="spacingAndGlyphs" textLength="946" fill="rgb(0,0,0)" stroke="none" style="white-space: pre">dxdp</tspan></tspan></tspan></text>
        <text class="SVGTextShape"><tspan class="TextParagraph"><tspan class="TextPosition" x="12093" y="14744"><tspan font-family="Times New Roman, serif" font-size="494px" font-style="italic" font-weight="400" lengthAdjust="spacingAndGlyphs" textLength="243" fill="rgb(0,0,0)" stroke="none" style="white-space: pre">d</tspan></tspan></tspan></text>
        <text class="SVGTextShape"><tspan class="TextParagraph"><tspan class="TextPosition" x="11077" y="14744"><tspan font-family="Times New Roman, serif" font-size="494px" font-style="italic" font-weight="400" lengthAdjust="spacingAndGlyphs" textLength="243" fill="rgb(0,0,0)" stroke="none" style="white-space: pre">p</tspan></tspan></tspan></text>
        <text class="SVGTextShape"><tspan class="TextParagraph"><tspan class="TextPosition" x="10620" y="14744"><tspan font-family="Times New Roman, serif" font-size="494px" font-style="italic" font-weight="400" lengthAdjust="spacingAndGlyphs" textLength="216" fill="rgb(0,0,0)" stroke="none" style="white-space: pre">x</tspan></tspan></tspan></text>
        <text class="SVGTextShape"><tspan class="TextParagraph"><tspan class="TextPosition" x="9343" y="14744"><tspan font-family="Times New Roman, serif" font-size="494px" font-style="italic" font-weight="400" lengthAdjust="spacingAndGlyphs" textLength="243" fill="rgb(0,0,0)" stroke="none" style="white-space: pre">p</tspan></tspan></tspan></text>
        <text class="SVGTextShape"><tspan class="TextParagraph"><tspan class="TextPosition" x="8886" y="14744"><tspan font-family="Times New Roman, serif" font-size="494px" font-style="italic" font-weight="400" lengthAdjust="spacingAndGlyphs" textLength="216" fill="rgb(0,0,0)" stroke="none" style="white-space: pre">x</tspan></tspan></tspan></text>
        <text class="SVGTextShape"><tspan class="TextParagraph"><tspan class="TextPosition" x="6960" y="14744"><tspan font-family="Times New Roman, serif" font-size="494px" font-style="italic" font-weight="400" lengthAdjust="spacingAndGlyphs" textLength="595" fill="rgb(0,0,0)" stroke="none" style="white-space: pre">XP</tspan></tspan></tspan></text>
        <text class="SVGTextShape"><tspan class="TextParagraph"><tspan class="TextPosition" x="14128" y="13062"><tspan font-family="Times New Roman, serif" font-size="494px" font-style="italic" font-weight="400" lengthAdjust="spacingAndGlyphs" textLength="946" fill="rgb(0,0,0)" stroke="none" style="white-space: pre">dxdp</tspan></tspan></tspan></text>
        <text class="SVGTextShape"><tspan class="TextParagraph"><tspan class="TextPosition" x="13603" y="13062"><tspan font-family="Times New Roman, serif" font-size="494px" font-style="italic" font-weight="400" lengthAdjust="spacingAndGlyphs" textLength="243" fill="rgb(0,0,0)" stroke="none" style="white-space: pre">d</tspan></tspan></tspan></text>
        <text class="SVGTextShape"><tspan class="TextParagraph"><tspan class="TextPosition" x="12021" y="13062"><tspan font-family="Times New Roman, serif" font-size="494px" font-style="italic" font-weight="400" lengthAdjust="spacingAndGlyphs" textLength="243" fill="rgb(0,0,0)" stroke="none" style="white-space: pre">p</tspan></tspan></tspan></text>
        <text class="SVGTextShape"><tspan class="TextParagraph"><tspan class="TextPosition" x="11563" y="13062"><tspan font-family="Times New Roman, serif" font-size="494px" font-style="italic" font-weight="400" lengthAdjust="spacingAndGlyphs" textLength="216" fill="rgb(0,0,0)" stroke="none" style="white-space: pre">x</tspan></tspan></tspan></text>
        <text class="SVGTextShape"><tspan class="TextParagraph"><tspan class="TextPosition" x="10287" y="13062"><tspan font-family="Times New Roman, serif" font-size="494px" font-style="italic" font-weight="400" lengthAdjust="spacingAndGlyphs" textLength="243" fill="rgb(0,0,0)" stroke="none" style="white-space: pre">p</tspan></tspan></tspan></text>
        <text class="SVGTextShape"><tspan class="TextParagraph"><tspan class="TextPosition" x="9829" y="13062"><tspan font-family="Times New Roman, serif" font-size="494px" font-style="italic" font-weight="400" lengthAdjust="spacingAndGlyphs" textLength="216" fill="rgb(0,0,0)" stroke="none" style="white-space: pre">x</tspan></tspan></tspan></text>
        <text class="SVGTextShape"><tspan class="TextParagraph"><tspan class="TextPosition" x="8947" y="13062"><tspan font-family="Times New Roman, serif" font-size="494px" font-style="italic" font-weight="400" lengthAdjust="spacingAndGlyphs" textLength="595" fill="rgb(0,0,0)" stroke="none" style="white-space: pre">XP</tspan></tspan></tspan></text>
        <text class="SVGTextShape"><tspan class="TextParagraph"><tspan class="TextPosition" x="6114" y="13062"><tspan font-family="Times New Roman, serif" font-size="494px" font-style="italic" font-weight="400" lengthAdjust="spacingAndGlyphs" textLength="459" fill="rgb(0,0,0)" stroke="none" style="white-space: pre">xp</tspan></tspan></tspan></text>
        <text class="SVGTextShape"><tspan class="TextParagraph"><tspan class="TextPosition" x="8316" y="15282"><tspan font-family="Times New Roman, serif" font-size="176px" font-style="italic" font-weight="400" lengthAdjust="spacingAndGlyphs" textLength="75" fill="rgb(0,0,0)" stroke="none" style="white-space: pre">y</tspan></tspan></tspan></text>
        <text class="SVGTextShape"><tspan class="TextParagraph"><tspan class="TextPosition" x="7845" y="13600"><tspan font-family="Times New Roman, serif" font-size="176px" font-style="italic" font-weight="400" lengthAdjust="spacingAndGlyphs" textLength="75" fill="rgb(0,0,0)" stroke="none" style="white-space: pre">y</tspan></tspan></tspan></text>
        <text class="SVGTextShape"><tspan class="TextParagraph"><tspan class="TextPosition" x="8068" y="15220"><tspan font-family="Times New Roman, serif" font-size="247px" font-weight="400" lengthAdjust="spacingAndGlyphs" textLength="64" fill="rgb(0,0,0)" stroke="none" style="white-space: pre">,</tspan></tspan></tspan></text>
        <text class="SVGTextShape"><tspan class="TextParagraph"><tspan class="TextPosition" x="7597" y="13538"><tspan font-family="Times New Roman, serif" font-size="247px" font-weight="400" lengthAdjust="spacingAndGlyphs" textLength="64" fill="rgb(0,0,0)" stroke="none" style="white-space: pre">,</tspan></tspan></tspan></text>
        <text class="SVGTextShape"><tspan class="TextParagraph"><tspan class="TextPosition" x="11537" y="14744"><tspan font-family="Times New Roman, serif" font-size="494px" font-weight="400" lengthAdjust="spacingAndGlyphs" textLength="122" fill="rgb(0,0,0)" stroke="none" style="white-space: pre">,</tspan></tspan></tspan></text>
        <text class="SVGTextShape"><tspan class="TextParagraph"><tspan class="TextPosition" x="10844" y="14744"><tspan font-family="Times New Roman, serif" font-size="494px" font-weight="400" lengthAdjust="spacingAndGlyphs" textLength="122" fill="rgb(0,0,0)" stroke="none" style="white-space: pre">,</tspan></tspan></tspan></text>
        <text class="SVGTextShape"><tspan class="TextParagraph"><tspan class="TextPosition" x="9803" y="14744"><tspan font-family="Times New Roman, serif" font-size="494px" font-weight="400" lengthAdjust="spacingAndGlyphs" textLength="122" fill="rgb(0,0,0)" stroke="none" style="white-space: pre">,</tspan></tspan></tspan></text>
        <text class="SVGTextShape"><tspan class="TextParagraph"><tspan class="TextPosition" x="9109" y="14744"><tspan font-family="Times New Roman, serif" font-size="494px" font-weight="400" lengthAdjust="spacingAndGlyphs" textLength="122" fill="rgb(0,0,0)" stroke="none" style="white-space: pre">,</tspan></tspan></tspan></text>
        <text class="SVGTextShape"><tspan class="TextParagraph"><tspan class="TextPosition" x="12481" y="13062"><tspan font-family="Times New Roman, serif" font-size="494px" font-weight="400" lengthAdjust="spacingAndGlyphs" textLength="122" fill="rgb(0,0,0)" stroke="none" style="white-space: pre">,</tspan></tspan></tspan></text>
        <text class="SVGTextShape"><tspan class="TextParagraph"><tspan class="TextPosition" x="11787" y="13062"><tspan font-family="Times New Roman, serif" font-size="494px" font-weight="400" lengthAdjust="spacingAndGlyphs" textLength="122" fill="rgb(0,0,0)" stroke="none" style="white-space: pre">,</tspan></tspan></tspan></text>
        <text class="SVGTextShape"><tspan class="TextParagraph"><tspan class="TextPosition" x="10746" y="13062"><tspan font-family="Times New Roman, serif" font-size="494px" font-weight="400" lengthAdjust="spacingAndGlyphs" textLength="122" fill="rgb(0,0,0)" stroke="none" style="white-space: pre">,</tspan></tspan></tspan></text>
        <text class="SVGTextShape"><tspan class="TextParagraph"><tspan class="TextPosition" x="10053" y="13062"><tspan font-family="Times New Roman, serif" font-size="494px" font-weight="400" lengthAdjust="spacingAndGlyphs" textLength="122" fill="rgb(0,0,0)" stroke="none" style="white-space: pre">,</tspan></tspan></tspan></text>
       </g>
      </g>
     </g>
    </g>
   </g>
  </g>
 </g>
</svg>