<?xml version='1.0' encoding='UTF-8'?>
<!DOCTYPE svg PUBLIC "-//W3C//DTD SVG 1.1//EN" "http://www.w3.org/Graphics/SVG/1.1/DTD/svg11.dtd">
<svg xmlns="http://www.w3.org/2000/svg" xmlns:ooo="http://xml.openoffice.org/svg/export" xmlns:xlink="http://www.w3.org/1999/xlink" xmlns:presentation="http://sun.com/xmlns/staroffice/presentation" xmlns:smil="http://www.w3.org/2001/SMIL20/" xmlns:anim="urn:oasis:names:tc:opendocument:xmlns:animation:1.0" xmlns:svg="urn:oasis:names:tc:opendocument:xmlns:svg-compatible:1.0" version="1.2" width="101.250mm" height="10.230mm" viewBox="5732 13458 10125 1023" preserveAspectRatio="xMidYMid" fill-rule="evenodd" stroke-width="28.222" stroke-linejoin="round" xml:space="preserve">
 <defs class="ClipPathGroup">
  <clipPath id="presentation_clip_path" clipPathUnits="userSpaceOnUse">
   <rect x="0" y="0" width="21590" height="27940"/>
  </clipPath>
  <clipPath id="presentation_clip_path_shrink" clipPathUnits="userSpaceOnUse">
   <rect x="21" y="27" width="21547" height="27885"/>
  </clipPath>
 </defs>
 <defs>
  </defs>
 <defs>
  </defs>
 <defs>
  </defs>
 <defs>
  </defs>
 <defs class="TextShapeIndex">
  <g ooo:slide="id1" ooo:id-list="id3"/>
 </defs>
 <defs class="EmbeddedBulletChars">
  <g id="bullet-char-template-57356" transform="scale(0.00048828125,-0.00048828125)">
   <path d="M 580,1141 L 1163,571 580,0 -4,571 580,1141 Z"/>
  </g>
  <g id="bullet-char-template-57354" transform="scale(0.00048828125,-0.00048828125)">
   <path d="M 8,1128 L 1137,1128 1137,0 8,0 8,1128 Z"/>
  </g>
  <g id="bullet-char-template-10146" transform="scale(0.00048828125,-0.00048828125)">
   <path d="M 174,0 L 602,739 174,1481 1456,739 174,0 Z M 1358,739 L 309,1346 659,739 1358,739 Z"/>
  </g>
  <g id="bullet-char-template-10132" transform="scale(0.00048828125,-0.00048828125)">
   <path d="M 2015,739 L 1276,0 717,0 1260,543 174,543 174,936 1260,936 717,1481 1274,1481 2015,739 Z"/>
  </g>
  <g id="bullet-char-template-10007" transform="scale(0.00048828125,-0.00048828125)">
   <path d="M 0,-2 C -7,14 -16,27 -25,37 L 356,567 C 262,823 215,952 215,954 215,979 228,992 255,992 264,992 276,990 289,987 310,991 331,999 354,1012 L 381,999 492,748 772,1049 836,1024 860,1049 C 881,1039 901,1025 922,1006 886,937 835,863 770,784 769,783 710,716 594,584 L 774,223 C 774,196 753,168 711,139 L 727,119 C 717,90 699,76 672,76 641,76 570,178 457,381 L 164,-76 C 142,-110 111,-127 72,-127 30,-127 9,-110 8,-76 1,-67 -2,-52 -2,-32 -2,-23 -1,-13 0,-2 Z"/>
  </g>
  <g id="bullet-char-template-10004" transform="scale(0.00048828125,-0.00048828125)">
   <path d="M 285,-33 C 182,-33 111,30 74,156 52,228 41,333 41,471 41,549 55,616 82,672 116,743 169,778 240,778 293,778 328,747 346,684 L 369,508 C 377,444 397,411 428,410 L 1163,1116 C 1174,1127 1196,1133 1229,1133 1271,1133 1292,1118 1292,1087 L 1292,965 C 1292,929 1282,901 1262,881 L 442,47 C 390,-6 338,-33 285,-33 Z"/>
  </g>
  <g id="bullet-char-template-9679" transform="scale(0.00048828125,-0.00048828125)">
   <path d="M 813,0 C 632,0 489,54 383,161 276,268 223,411 223,592 223,773 276,916 383,1023 489,1130 632,1184 813,1184 992,1184 1136,1130 1245,1023 1353,916 1407,772 1407,592 1407,412 1353,268 1245,161 1136,54 992,0 813,0 Z"/>
  </g>
  <g id="bullet-char-template-8226" transform="scale(0.00048828125,-0.00048828125)">
   <path d="M 346,457 C 273,457 209,483 155,535 101,586 74,649 74,723 74,796 101,859 155,911 209,963 273,989 346,989 419,989 480,963 531,910 582,859 608,796 608,723 608,648 583,586 532,535 482,483 420,457 346,457 Z"/>
  </g>
  <g id="bullet-char-template-8211" transform="scale(0.00048828125,-0.00048828125)">
   <path d="M -4,459 L 1135,459 1135,606 -4,606 -4,459 Z"/>
  </g>
  <g id="bullet-char-template-61548" transform="scale(0.00048828125,-0.00048828125)">
   <path d="M 173,740 C 173,903 231,1043 346,1159 462,1274 601,1332 765,1332 928,1332 1067,1274 1183,1159 1299,1043 1357,903 1357,740 1357,577 1299,437 1183,322 1067,206 928,148 765,148 601,148 462,206 346,322 231,437 173,577 173,740 Z"/>
  </g>
 </defs>
 <g>
  <g id="id2" class="Master_Slide">
   <g id="bg-id2" class="Background"/>
   <g id="bo-id2" class="BackgroundObjects"/>
  </g>
 </g>
 <g class="SlideGroup">
  <g>
   <g id="container-id1">
    <g id="id1" class="Slide" clip-path="url(#presentation_clip_path)">
     <g class="Page">
      <g class="Graphic">
       <g id="id3">
        <rect class="BoundingBox" stroke="none" fill="none" x="5732" y="13458" width="10125" height="1023"/>
        <g class="OutlinedText"><path d="M 636,-399 L 636,-442 C 462,-355 327,-228 230,-60 133,107 84,291 84,490 84,697 135,886 237,1057 339,1227 472,1349 636,1422 L 636,1380 C 554,1335 487,1273 434,1194 381,1115 342,1016 316,895 290,774 277,647 277,516 277,367 289,233 313,113 337,-7 374,-106 423,-185 472,-264 543,-336 636,-399 Z " transform="translate(6134,14126) scale(0.362,-0.362)" fill="rgb(0,0,0)" stroke="none"/></g><g class="OutlinedText"><path d="M 45,1380 L 45,1422 C 219,1336 355,1209 452,1042 549,874 597,690 597,491 597,284 546,95 444,-76 342,-247 209,-369 45,-442 L 45,-399 C 128,-354 195,-292 248,-213 301,-134 340,-35 366,86 391,207 404,333 404,465 404,613 392,747 369,868 345,988 308,1088 259,1167 209,1246 138,1317 45,1380 Z " transform="translate(7671,14126) scale(0.362,-0.362)" fill="rgb(0,0,0)" stroke="none"/></g><path fill="none" stroke="rgb(0,0,0)" stroke-width="18" stroke-linejoin="round" stroke-linecap="round" d="M 8465,13669 L 8349,14005 8465,14341 "/>
        <path fill="none" stroke="rgb(0,0,0)" stroke-width="18" stroke-linejoin="round" stroke-linecap="round" d="M 9952,13669 L 9952,14341 "/>
        <path fill="none" stroke="rgb(0,0,0)" stroke-width="18" stroke-linejoin="round" stroke-linecap="round" d="M 10413,13669 L 10529,14005 10413,14341 "/>
        <path fill="none" stroke="rgb(0,0,0)" stroke-width="18" stroke-linejoin="round" stroke-linecap="round" d="M 8284,13633 L 8284,14376 "/>
        <path fill="none" stroke="rgb(0,0,0)" stroke-width="18" stroke-linejoin="round" stroke-linecap="round" d="M 10585,13633 L 10585,14376 "/>
        <path fill="none" stroke="rgb(0,0,0)" stroke-width="18" stroke-linejoin="round" stroke-linecap="round" d="M 11453,13669 L 11337,14005 11453,14341 "/>
        <path fill="none" stroke="rgb(0,0,0)" stroke-width="18" stroke-linejoin="round" stroke-linecap="round" d="M 11905,13669 L 11905,14341 "/>
        <path fill="none" stroke="rgb(0,0,0)" stroke-width="18" stroke-linejoin="round" stroke-linecap="round" d="M 13401,13669 L 13516,14005 13401,14341 "/>
        <path fill="none" stroke="rgb(0,0,0)" stroke-width="18" stroke-linejoin="round" stroke-linecap="round" d="M 13688,13669 L 13573,14005 13688,14341 "/>
        <path fill="none" stroke="rgb(0,0,0)" stroke-width="18" stroke-linejoin="round" stroke-linecap="round" d="M 15176,13669 L 15176,14341 "/>
        <path fill="none" stroke="rgb(0,0,0)" stroke-width="18" stroke-linejoin="round" stroke-linecap="round" d="M 15637,13669 L 15752,14005 15637,14341 "/>
        <g class="OutlinedText"><path d="M 1067,916 L 766,28 C 820,38 868,57 909,84 949,111 992,158 1038,223 1083,288 1142,406 1215,576 1275,717 1330,813 1379,866 1428,918 1490,944 1564,944 1589,944 1625,938 1671,927 L 1660,894 C 1631,894 1608,889 1591,879 1566,864 1542,839 1518,803 1494,767 1460,701 1417,604 1349,448 1289,335 1236,265 1197,214 1148,165 1090,120 1031,74 974,40 920,17 866,-6 808,-21 746,-28 L 606,-442 497,-442 637,-28 C 551,-17 482,15 432,67 381,118 353,184 346,263 341,323 358,437 397,606 420,707 432,775 432,810 433,845 426,868 411,881 402,890 382,894 351,894 L 362,927 C 422,938 462,944 483,944 522,944 555,933 580,911 606,888 620,854 621,809 622,764 609,686 580,575 538,410 517,295 517,228 517,161 528,114 550,87 572,59 608,39 657,28 L 958,916 1067,916 Z " transform="translate(15196,14128) scale(0.241,-0.241)" fill="rgb(0,0,0)" stroke="none"/></g><g class="OutlinedText"><path d="M 828,1422 L 816,1387 C 775,1380 745,1369 725,1354 705,1338 691,1319 683,1296 674,1268 676,1245 688,1227 701,1209 728,1199 769,1197 866,1264 943,1310 1000,1335 1056,1360 1103,1373 1140,1373 1157,1373 1170,1368 1178,1357 1186,1346 1187,1334 1182,1319 1171,1286 1143,1256 1098,1230 1026,1188 925,1161 796,1149 706,1089 650,1028 629,965 608,903 635,854 710,818 786,845 851,865 906,878 961,891 1007,897 1042,897 1073,897 1094,891 1104,880 1114,868 1116,853 1109,834 1102,811 1083,792 1055,777 1004,750 937,737 853,737 829,737 805,738 779,741 753,744 727,747 700,752 606,717 522,666 449,598 375,529 326,458 301,385 282,328 279,282 294,247 309,211 334,186 370,171 392,162 428,157 480,157 534,157 587,159 641,163 715,168 763,170 786,170 850,170 897,147 924,100 951,53 951,-13 922,-96 886,-202 828,-286 748,-348 668,-411 584,-442 498,-442 452,-442 420,-433 403,-414 385,-395 380,-375 388,-354 394,-337 405,-322 423,-309 441,-296 459,-290 477,-290 491,-290 515,-295 548,-304 581,-313 605,-318 620,-318 664,-318 706,-303 747,-272 788,-241 817,-201 833,-152 847,-111 846,-77 831,-52 815,-27 790,-15 755,-15 736,-15 702,-18 656,-23 609,-29 563,-32 519,-32 414,-32 337,-19 290,6 242,31 210,74 193,135 176,196 181,264 207,341 235,424 284,504 353,583 422,661 514,727 627,781 558,835 536,897 559,966 579,1024 628,1084 705,1147 660,1158 630,1178 614,1205 598,1232 596,1262 606,1293 618,1327 641,1356 675,1380 710,1404 761,1418 828,1422 Z " transform="translate(14802,14128) scale(0.241,-0.241)" fill="rgb(0,0,0)" stroke="none"/></g><g class="OutlinedText"><path d="M 828,1422 L 816,1387 C 775,1380 745,1369 725,1354 705,1338 691,1319 683,1296 674,1268 676,1245 688,1227 701,1209 728,1199 769,1197 866,1264 943,1310 1000,1335 1056,1360 1103,1373 1140,1373 1157,1373 1170,1368 1178,1357 1186,1346 1187,1334 1182,1319 1171,1286 1143,1256 1098,1230 1026,1188 925,1161 796,1149 706,1089 650,1028 629,965 608,903 635,854 710,818 786,845 851,865 906,878 961,891 1007,897 1042,897 1073,897 1094,891 1104,880 1114,868 1116,853 1109,834 1102,811 1083,792 1055,777 1004,750 937,737 853,737 829,737 805,738 779,741 753,744 727,747 700,752 606,717 522,666 449,598 375,529 326,458 301,385 282,328 279,282 294,247 309,211 334,186 370,171 392,162 428,157 480,157 534,157 587,159 641,163 715,168 763,170 786,170 850,170 897,147 924,100 951,53 951,-13 922,-96 886,-202 828,-286 748,-348 668,-411 584,-442 498,-442 452,-442 420,-433 403,-414 385,-395 380,-375 388,-354 394,-337 405,-322 423,-309 441,-296 459,-290 477,-290 491,-290 515,-295 548,-304 581,-313 605,-318 620,-318 664,-318 706,-303 747,-272 788,-241 817,-201 833,-152 847,-111 846,-77 831,-52 815,-27 790,-15 755,-15 736,-15 702,-18 656,-23 609,-29 563,-32 519,-32 414,-32 337,-19 290,6 242,31 210,74 193,135 176,196 181,264 207,341 235,424 284,504 353,583 422,661 514,727 627,781 558,835 536,897 559,966 579,1024 628,1084 705,1147 660,1158 630,1178 614,1205 598,1232 596,1262 606,1293 618,1327 641,1356 675,1380 710,1404 761,1418 828,1422 Z " transform="translate(13068,14128) scale(0.241,-0.241)" fill="rgb(0,0,0)" stroke="none"/></g><g class="OutlinedText"><path d="M 1067,916 L 766,28 C 820,38 868,57 909,84 949,111 992,158 1038,223 1083,288 1142,406 1215,576 1275,717 1330,813 1379,866 1428,918 1490,944 1564,944 1589,944 1625,938 1671,927 L 1660,894 C 1631,894 1608,889 1591,879 1566,864 1542,839 1518,803 1494,767 1460,701 1417,604 1349,448 1289,335 1236,265 1197,214 1148,165 1090,120 1031,74 974,40 920,17 866,-6 808,-21 746,-28 L 606,-442 497,-442 637,-28 C 551,-17 482,15 432,67 381,118 353,184 346,263 341,323 358,437 397,606 420,707 432,775 432,810 433,845 426,868 411,881 402,890 382,894 351,894 L 362,927 C 422,938 462,944 483,944 522,944 555,933 580,911 606,888 620,854 621,809 622,764 609,686 580,575 538,410 517,295 517,228 517,161 528,114 550,87 572,59 608,39 657,28 L 958,916 1067,916 Z " transform="translate(11423,14128) scale(0.241,-0.241)" fill="rgb(0,0,0)" stroke="none"/></g><g class="OutlinedText"><path d="M 1067,916 L 766,28 C 820,38 868,57 909,84 949,111 992,158 1038,223 1083,288 1142,406 1215,576 1275,717 1330,813 1379,866 1428,918 1490,944 1564,944 1589,944 1625,938 1671,927 L 1660,894 C 1631,894 1608,889 1591,879 1566,864 1542,839 1518,803 1494,767 1460,701 1417,604 1349,448 1289,335 1236,265 1197,214 1148,165 1090,120 1031,74 974,40 920,17 866,-6 808,-21 746,-28 L 606,-442 497,-442 637,-28 C 551,-17 482,15 432,67 381,118 353,184 346,263 341,323 358,437 397,606 420,707 432,775 432,810 433,845 426,868 411,881 402,890 382,894 351,894 L 362,927 C 422,938 462,944 483,944 522,944 555,933 580,911 606,888 620,854 621,809 622,764 609,686 580,575 538,410 517,295 517,228 517,161 528,114 550,87 572,59 608,39 657,28 L 958,916 1067,916 Z " transform="translate(9972,14128) scale(0.241,-0.241)" fill="rgb(0,0,0)" stroke="none"/></g><g class="OutlinedText"><path d="M 828,1422 L 816,1387 C 775,1380 745,1369 725,1354 705,1338 691,1319 683,1296 674,1268 676,1245 688,1227 701,1209 728,1199 769,1197 866,1264 943,1310 1000,1335 1056,1360 1103,1373 1140,1373 1157,1373 1170,1368 1178,1357 1186,1346 1187,1334 1182,1319 1171,1286 1143,1256 1098,1230 1026,1188 925,1161 796,1149 706,1089 650,1028 629,965 608,903 635,854 710,818 786,845 851,865 906,878 961,891 1007,897 1042,897 1073,897 1094,891 1104,880 1114,868 1116,853 1109,834 1102,811 1083,792 1055,777 1004,750 937,737 853,737 829,737 805,738 779,741 753,744 727,747 700,752 606,717 522,666 449,598 375,529 326,458 301,385 282,328 279,282 294,247 309,211 334,186 370,171 392,162 428,157 480,157 534,157 587,159 641,163 715,168 763,170 786,170 850,170 897,147 924,100 951,53 951,-13 922,-96 886,-202 828,-286 748,-348 668,-411 584,-442 498,-442 452,-442 420,-433 403,-414 385,-395 380,-375 388,-354 394,-337 405,-322 423,-309 441,-296 459,-290 477,-290 491,-290 515,-295 548,-304 581,-313 605,-318 620,-318 664,-318 706,-303 747,-272 788,-241 817,-201 833,-152 847,-111 846,-77 831,-52 815,-27 790,-15 755,-15 736,-15 702,-18 656,-23 609,-29 563,-32 519,-32 414,-32 337,-19 290,6 242,31 210,74 193,135 176,196 181,264 207,341 235,424 284,504 353,583 422,661 514,727 627,781 558,835 536,897 559,966 579,1024 628,1084 705,1147 660,1158 630,1178 614,1205 598,1232 596,1262 606,1293 618,1327 641,1356 675,1380 710,1404 761,1418 828,1422 Z " transform="translate(9578,14128) scale(0.241,-0.241)" fill="rgb(0,0,0)" stroke="none"/></g><g class="OutlinedText"><path d="M 828,1422 L 816,1387 C 775,1380 745,1369 725,1354 705,1338 691,1319 683,1296 674,1268 676,1245 688,1227 701,1209 728,1199 769,1197 866,1264 943,1310 1000,1335 1056,1360 1103,1373 1140,1373 1157,1373 1170,1368 1178,1357 1186,1346 1187,1334 1182,1319 1171,1286 1143,1256 1098,1230 1026,1188 925,1161 796,1149 706,1089 650,1028 629,965 608,903 635,854 710,818 786,845 851,865 906,878 961,891 1007,897 1042,897 1073,897 1094,891 1104,880 1114,868 1116,853 1109,834 1102,811 1083,792 1055,777 1004,750 937,737 853,737 829,737 805,738 779,741 753,744 727,747 700,752 606,717 522,666 449,598 375,529 326,458 301,385 282,328 279,282 294,247 309,211 334,186 370,171 392,162 428,157 480,157 534,157 587,159 641,163 715,168 763,170 786,170 850,170 897,147 924,100 951,53 951,-13 922,-96 886,-202 828,-286 748,-348 668,-411 584,-442 498,-442 452,-442 420,-433 403,-414 385,-395 380,-375 388,-354 394,-337 405,-322 423,-309 441,-296 459,-290 477,-290 491,-290 515,-295 548,-304 581,-313 605,-318 620,-318 664,-318 706,-303 747,-272 788,-241 817,-201 833,-152 847,-111 846,-77 831,-52 815,-27 790,-15 755,-15 736,-15 702,-18 656,-23 609,-29 563,-32 519,-32 414,-32 337,-19 290,6 242,31 210,74 193,135 176,196 181,264 207,341 235,424 284,504 353,583 422,661 514,727 627,781 558,835 536,897 559,966 579,1024 628,1084 705,1147 660,1158 630,1178 614,1205 598,1232 596,1262 606,1293 618,1327 641,1356 675,1380 710,1404 761,1418 828,1422 Z " transform="translate(7347,14128) scale(0.241,-0.241)" fill="rgb(0,0,0)" stroke="none"/></g><g class="OutlinedText"><path d="M 326,55 L 286,-62 C 230,-227 177,-353 126,-442 L -45,-442 C -17,-399 4,-365 17,-338 39,-293 62,-236 85,-167 L 303,474 C 350,612 432,725 548,813 665,900 789,944 921,944 1071,944 1168,890 1210,782 1242,698 1240,603 1204,497 1163,378 1089,268 981,167 838,35 691,-31 541,-31 487,-31 441,-23 403,-7 377,4 352,25 326,55 Z M 428,357 C 397,266 384,202 388,166 392,130 411,100 446,75 481,50 526,37 582,37 665,37 747,70 827,135 907,200 966,289 1005,402 1033,487 1042,565 1031,638 1020,710 993,763 949,798 906,833 853,850 792,850 715,850 650,820 597,761 564,726 527,647 486,526 L 428,357 Z " transform="translate(5818,14128) scale(0.241,-0.241)" fill="rgb(0,0,0)" stroke="none"/></g><text class="SVGTextShape"><tspan class="TextParagraph"><tspan class="TextPosition" x="14669" y="14128"><tspan font-family="Times New Roman, serif" font-size="494px" font-weight="400" lengthAdjust="spacingAndGlyphs" textLength="122" fill="rgb(0,0,0)" stroke="none" style="white-space: pre">,</tspan></tspan></tspan></text>
        <text class="SVGTextShape"><tspan class="TextParagraph"><tspan class="TextPosition" x="13975" y="14128"><tspan font-family="Times New Roman, serif" font-size="494px" font-weight="400" lengthAdjust="spacingAndGlyphs" textLength="122" fill="rgb(0,0,0)" stroke="none" style="white-space: pre">,</tspan></tspan></tspan></text>
        <text class="SVGTextShape"><tspan class="TextParagraph"><tspan class="TextPosition" x="12934" y="14128"><tspan font-family="Times New Roman, serif" font-size="494px" font-weight="400" lengthAdjust="spacingAndGlyphs" textLength="122" fill="rgb(0,0,0)" stroke="none" style="white-space: pre">,</tspan></tspan></tspan></text>
        <text class="SVGTextShape"><tspan class="TextParagraph"><tspan class="TextPosition" x="12241" y="14128"><tspan font-family="Times New Roman, serif" font-size="494px" font-weight="400" lengthAdjust="spacingAndGlyphs" textLength="122" fill="rgb(0,0,0)" stroke="none" style="white-space: pre">,</tspan></tspan></tspan></text>
        <text class="SVGTextShape"><tspan class="TextParagraph"><tspan class="TextPosition" x="9445" y="14128"><tspan font-family="Times New Roman, serif" font-size="494px" font-weight="400" lengthAdjust="spacingAndGlyphs" textLength="122" fill="rgb(0,0,0)" stroke="none" style="white-space: pre">,</tspan></tspan></tspan></text>
        <text class="SVGTextShape"><tspan class="TextParagraph"><tspan class="TextPosition" x="8752" y="14128"><tspan font-family="Times New Roman, serif" font-size="494px" font-weight="400" lengthAdjust="spacingAndGlyphs" textLength="122" fill="rgb(0,0,0)" stroke="none" style="white-space: pre">,</tspan></tspan></tspan></text>
        <text class="SVGTextShape"><tspan class="TextParagraph"><tspan class="TextPosition" x="7214" y="14128"><tspan font-family="Times New Roman, serif" font-size="494px" font-weight="400" lengthAdjust="spacingAndGlyphs" textLength="122" fill="rgb(0,0,0)" stroke="none" style="white-space: pre">,</tspan></tspan></tspan></text>
        <text class="SVGTextShape"><tspan class="TextParagraph"><tspan class="TextPosition" x="6520" y="14128"><tspan font-family="Times New Roman, serif" font-size="494px" font-weight="400" lengthAdjust="spacingAndGlyphs" textLength="122" fill="rgb(0,0,0)" stroke="none" style="white-space: pre">,</tspan></tspan></tspan></text>
        <text class="SVGTextShape"><tspan class="TextParagraph"><tspan class="TextPosition" x="10652" y="13744"><tspan font-family="Times New Roman, serif" font-size="247px" font-weight="400" lengthAdjust="spacingAndGlyphs" textLength="127" fill="rgb(0,0,0)" stroke="none" style="white-space: pre">2</tspan></tspan></tspan></text>
        <text class="SVGTextShape"><tspan class="TextParagraph"><tspan class="TextPosition" x="14492" y="14252"><tspan font-family="Times New Roman, serif" font-size="247px" font-style="italic" font-weight="400" lengthAdjust="spacingAndGlyphs" textLength="113" fill="rgb(0,0,0)" stroke="none" style="white-space: pre">y</tspan></tspan></tspan></text>
        <text class="SVGTextShape"><tspan class="TextParagraph"><tspan class="TextPosition" x="12758" y="14252"><tspan font-family="Times New Roman, serif" font-size="247px" font-style="italic" font-weight="400" lengthAdjust="spacingAndGlyphs" textLength="113" fill="rgb(0,0,0)" stroke="none" style="white-space: pre">y</tspan></tspan></tspan></text>
        <text class="SVGTextShape"><tspan class="TextParagraph"><tspan class="TextPosition" x="9269" y="14252"><tspan font-family="Times New Roman, serif" font-size="247px" font-style="italic" font-weight="400" lengthAdjust="spacingAndGlyphs" textLength="113" fill="rgb(0,0,0)" stroke="none" style="white-space: pre">y</tspan></tspan></tspan></text>
        <text class="SVGTextShape"><tspan class="TextParagraph"><tspan class="TextPosition" x="7037" y="14252"><tspan font-family="Times New Roman, serif" font-size="247px" font-style="italic" font-weight="400" lengthAdjust="spacingAndGlyphs" textLength="113" fill="rgb(0,0,0)" stroke="none" style="white-space: pre">y</tspan></tspan></tspan></text>
        <text class="SVGTextShape"><tspan class="TextParagraph"><tspan class="TextPosition" x="14209" y="14128"><tspan font-family="Times New Roman, serif" font-size="494px" font-style="italic" font-weight="400" lengthAdjust="spacingAndGlyphs" textLength="243" fill="rgb(0,0,0)" stroke="none" style="white-space: pre">p</tspan></tspan></tspan></text>
        <text class="SVGTextShape"><tspan class="TextParagraph"><tspan class="TextPosition" x="13751" y="14128"><tspan font-family="Times New Roman, serif" font-size="494px" font-style="italic" font-weight="400" lengthAdjust="spacingAndGlyphs" textLength="216" fill="rgb(0,0,0)" stroke="none" style="white-space: pre">x</tspan></tspan></tspan></text>
        <text class="SVGTextShape"><tspan class="TextParagraph"><tspan class="TextPosition" x="12475" y="14128"><tspan font-family="Times New Roman, serif" font-size="494px" font-style="italic" font-weight="400" lengthAdjust="spacingAndGlyphs" textLength="243" fill="rgb(0,0,0)" stroke="none" style="white-space: pre">p</tspan></tspan></tspan></text>
        <text class="SVGTextShape"><tspan class="TextParagraph"><tspan class="TextPosition" x="12017" y="14128"><tspan font-family="Times New Roman, serif" font-size="494px" font-style="italic" font-weight="400" lengthAdjust="spacingAndGlyphs" textLength="216" fill="rgb(0,0,0)" stroke="none" style="white-space: pre">x</tspan></tspan></tspan></text>
        <text class="SVGTextShape"><tspan class="TextParagraph"><tspan class="TextPosition" x="8985" y="14128"><tspan font-family="Times New Roman, serif" font-size="494px" font-style="italic" font-weight="400" lengthAdjust="spacingAndGlyphs" textLength="243" fill="rgb(0,0,0)" stroke="none" style="white-space: pre">p</tspan></tspan></tspan></text>
        <text class="SVGTextShape"><tspan class="TextParagraph"><tspan class="TextPosition" x="8528" y="14128"><tspan font-family="Times New Roman, serif" font-size="494px" font-style="italic" font-weight="400" lengthAdjust="spacingAndGlyphs" textLength="216" fill="rgb(0,0,0)" stroke="none" style="white-space: pre">x</tspan></tspan></tspan></text>
        <text class="SVGTextShape"><tspan class="TextParagraph"><tspan class="TextPosition" x="6754" y="14128"><tspan font-family="Times New Roman, serif" font-size="494px" font-style="italic" font-weight="400" lengthAdjust="spacingAndGlyphs" textLength="243" fill="rgb(0,0,0)" stroke="none" style="white-space: pre">p</tspan></tspan></tspan></text>
        <text class="SVGTextShape"><tspan class="TextParagraph"><tspan class="TextPosition" x="6296" y="14128"><tspan font-family="Times New Roman, serif" font-size="494px" font-style="italic" font-weight="400" lengthAdjust="spacingAndGlyphs" textLength="216" fill="rgb(0,0,0)" stroke="none" style="white-space: pre">x</tspan></tspan></tspan></text>
        <g class="OutlinedText"><path d="M 37,759 L 1087,759 1087,662 37,662 37,759 Z M 37,386 L 1087,386 1087,287 37,287 37,386 Z " transform="translate(10941,14128) scale(0.241,-0.241)" fill="rgb(0,0,0)" stroke="none"/></g><g class="OutlinedText"><path d="M 37,759 L 1087,759 1087,662 37,662 37,759 Z M 37,386 L 1087,386 1087,287 37,287 37,386 Z " transform="translate(7888,14128) scale(0.241,-0.241)" fill="rgb(0,0,0)" stroke="none"/></g></g>
      </g>
     </g>
    </g>
   </g>
  </g>
 </g>
</svg>