<?xml version='1.0' encoding='UTF-8'?>
<!DOCTYPE svg PUBLIC "-//W3C//DTD SVG 1.1//EN" "http://www.w3.org/Graphics/SVG/1.1/DTD/svg11.dtd">
<svg xmlns="http://www.w3.org/2000/svg" xmlns:ooo="http://xml.openoffice.org/svg/export" xmlns:xlink="http://www.w3.org/1999/xlink" xmlns:presentation="http://sun.com/xmlns/staroffice/presentation" xmlns:smil="http://www.w3.org/2001/SMIL20/" xmlns:anim="urn:oasis:names:tc:opendocument:xmlns:animation:1.0" xmlns:svg="urn:oasis:names:tc:opendocument:xmlns:svg-compatible:1.0" version="1.2" width="90.660mm" height="13.760mm" viewBox="6262 13282 9066 1376" preserveAspectRatio="xMidYMid" fill-rule="evenodd" stroke-width="28.222" stroke-linejoin="round" xml:space="preserve">
 <defs class="ClipPathGroup">
  <clipPath id="presentation_clip_path" clipPathUnits="userSpaceOnUse">
   <rect x="0" y="0" width="21590" height="27940"/>
  </clipPath>
  <clipPath id="presentation_clip_path_shrink" clipPathUnits="userSpaceOnUse">
   <rect x="21" y="27" width="21547" height="27885"/>
  </clipPath>
 </defs>
 <defs>
  </defs>
 <defs>
  </defs>
 <defs>
  </defs>
 <defs>
  </defs>
 <defs class="TextShapeIndex">
  <g ooo:slide="id1" ooo:id-list="id3"/>
 </defs>
 <defs class="EmbeddedBulletChars">
  <g id="bullet-char-template-57356" transform="scale(0.00048828125,-0.00048828125)">
   <path d="M 580,1141 L 1163,571 580,0 -4,571 580,1141 Z"/>
  </g>
  <g id="bullet-char-template-57354" transform="scale(0.00048828125,-0.00048828125)">
   <path d="M 8,1128 L 1137,1128 1137,0 8,0 8,1128 Z"/>
  </g>
  <g id="bullet-char-template-10146" transform="scale(0.00048828125,-0.00048828125)">
   <path d="M 174,0 L 602,739 174,1481 1456,739 174,0 Z M 1358,739 L 309,1346 659,739 1358,739 Z"/>
  </g>
  <g id="bullet-char-template-10132" transform="scale(0.00048828125,-0.00048828125)">
   <path d="M 2015,739 L 1276,0 717,0 1260,543 174,543 174,936 1260,936 717,1481 1274,1481 2015,739 Z"/>
  </g>
  <g id="bullet-char-template-10007" transform="scale(0.00048828125,-0.00048828125)">
   <path d="M 0,-2 C -7,14 -16,27 -25,37 L 356,567 C 262,823 215,952 215,954 215,979 228,992 255,992 264,992 276,990 289,987 310,991 331,999 354,1012 L 381,999 492,748 772,1049 836,1024 860,1049 C 881,1039 901,1025 922,1006 886,937 835,863 770,784 769,783 710,716 594,584 L 774,223 C 774,196 753,168 711,139 L 727,119 C 717,90 699,76 672,76 641,76 570,178 457,381 L 164,-76 C 142,-110 111,-127 72,-127 30,-127 9,-110 8,-76 1,-67 -2,-52 -2,-32 -2,-23 -1,-13 0,-2 Z"/>
  </g>
  <g id="bullet-char-template-10004" transform="scale(0.00048828125,-0.00048828125)">
   <path d="M 285,-33 C 182,-33 111,30 74,156 52,228 41,333 41,471 41,549 55,616 82,672 116,743 169,778 240,778 293,778 328,747 346,684 L 369,508 C 377,444 397,411 428,410 L 1163,1116 C 1174,1127 1196,1133 1229,1133 1271,1133 1292,1118 1292,1087 L 1292,965 C 1292,929 1282,901 1262,881 L 442,47 C 390,-6 338,-33 285,-33 Z"/>
  </g>
  <g id="bullet-char-template-9679" transform="scale(0.00048828125,-0.00048828125)">
   <path d="M 813,0 C 632,0 489,54 383,161 276,268 223,411 223,592 223,773 276,916 383,1023 489,1130 632,1184 813,1184 992,1184 1136,1130 1245,1023 1353,916 1407,772 1407,592 1407,412 1353,268 1245,161 1136,54 992,0 813,0 Z"/>
  </g>
  <g id="bullet-char-template-8226" transform="scale(0.00048828125,-0.00048828125)">
   <path d="M 346,457 C 273,457 209,483 155,535 101,586 74,649 74,723 74,796 101,859 155,911 209,963 273,989 346,989 419,989 480,963 531,910 582,859 608,796 608,723 608,648 583,586 532,535 482,483 420,457 346,457 Z"/>
  </g>
  <g id="bullet-char-template-8211" transform="scale(0.00048828125,-0.00048828125)">
   <path d="M -4,459 L 1135,459 1135,606 -4,606 -4,459 Z"/>
  </g>
  <g id="bullet-char-template-61548" transform="scale(0.00048828125,-0.00048828125)">
   <path d="M 173,740 C 173,903 231,1043 346,1159 462,1274 601,1332 765,1332 928,1332 1067,1274 1183,1159 1299,1043 1357,903 1357,740 1357,577 1299,437 1183,322 1067,206 928,148 765,148 601,148 462,206 346,322 231,437 173,577 173,740 Z"/>
  </g>
 </defs>
 <g>
  <g id="id2" class="Master_Slide">
   <g id="bg-id2" class="Background"/>
   <g id="bo-id2" class="BackgroundObjects"/>
  </g>
 </g>
 <g class="SlideGroup">
  <g>
   <g id="container-id1">
    <g id="id1" class="Slide" clip-path="url(#presentation_clip_path)">
     <g class="Page">
      <g class="Graphic">
       <g id="id3">
        <rect class="BoundingBox" stroke="none" fill="none" x="6262" y="13282" width="9066" height="1376"/>
        <path fill="none" stroke="rgb(0,0,0)" stroke-width="18" stroke-linejoin="round" stroke-linecap="round" d="M 6789,13680 L 6789,14260 "/>
        <path fill="none" stroke="rgb(0,0,0)" stroke-width="18" stroke-linejoin="round" stroke-linecap="round" d="M 7250,13680 L 7357,13970 7250,14260 "/>
        <path fill="none" stroke="rgb(0,0,0)" stroke-width="18" stroke-linejoin="round" stroke-linecap="round" d="M 8241,13680 L 8241,14260 "/>
        <path fill="none" stroke="rgb(0,0,0)" stroke-width="18" stroke-linejoin="round" stroke-linecap="round" d="M 8702,13680 L 8809,13970 8702,14260 "/>
        <g class="OutlinedText"><path d="M 636,-399 L 636,-442 C 462,-355 327,-228 230,-60 133,107 84,291 84,490 84,697 135,886 237,1057 339,1227 472,1349 636,1422 L 636,1380 C 554,1335 487,1273 434,1194 381,1115 342,1016 316,895 290,774 277,647 277,516 277,367 289,233 313,113 337,-7 374,-106 423,-185 472,-264 543,-336 636,-399 Z " transform="translate(10430,14091) scale(0.312,-0.312)" fill="rgb(0,0,0)" stroke="none"/></g><g class="OutlinedText"><path d="M 45,1380 L 45,1422 C 219,1336 355,1209 452,1042 549,874 597,690 597,491 597,284 546,95 444,-76 342,-247 209,-369 45,-442 L 45,-399 C 128,-354 195,-292 248,-213 301,-134 340,-35 366,86 391,207 404,333 404,465 404,613 392,747 369,868 345,988 308,1088 259,1167 209,1246 138,1317 45,1380 Z " transform="translate(11032,14091) scale(0.312,-0.312)" fill="rgb(0,0,0)" stroke="none"/></g><path fill="none" stroke="rgb(0,0,0)" stroke-width="18" stroke-linejoin="round" stroke-linecap="round" d="M 11653,13970 L 12310,13970 "/>
        <path fill="none" stroke="rgb(0,0,0)" stroke-width="18" stroke-linejoin="round" stroke-linecap="round" d="M 12431,13691 L 12732,13691 "/>
        <path fill="none" stroke="rgb(0,0,0)" stroke-width="18" stroke-linejoin="round" stroke-linecap="round" d="M 13225,13680 L 13225,14260 "/>
        <path fill="none" stroke="rgb(0,0,0)" stroke-width="18" stroke-linejoin="round" stroke-linecap="round" d="M 13685,13680 L 13792,13970 13685,14260 "/>
        <path fill="none" stroke="rgb(0,0,0)" stroke-width="18" stroke-linejoin="round" stroke-linecap="round" d="M 14676,13680 L 14676,14260 "/>
        <path fill="none" stroke="rgb(0,0,0)" stroke-width="18" stroke-linejoin="round" stroke-linecap="round" d="M 15137,13680 L 15244,13970 15137,14260 "/>
        <g class="OutlinedText"><path d="M 1067,916 L 766,28 C 820,38 868,57 909,84 949,111 992,158 1038,223 1083,288 1142,406 1215,576 1275,717 1330,813 1379,866 1428,918 1490,944 1564,944 1589,944 1625,938 1671,927 L 1660,894 C 1631,894 1608,889 1591,879 1566,864 1542,839 1518,803 1494,767 1460,701 1417,604 1349,448 1289,335 1236,265 1197,214 1148,165 1090,120 1031,74 974,40 920,17 866,-6 808,-21 746,-28 L 606,-442 497,-442 637,-28 C 551,-17 482,15 432,67 381,118 353,184 346,263 341,323 358,437 397,606 420,707 432,775 432,810 433,845 426,868 411,881 402,890 382,894 351,894 L 362,927 C 422,938 462,944 483,944 522,944 555,933 580,911 606,888 620,854 621,809 622,764 609,686 580,575 538,410 517,295 517,228 517,161 528,114 550,87 572,59 608,39 657,28 L 958,916 1067,916 Z " transform="translate(14696,14093) scale(0.241,-0.241)" fill="rgb(0,0,0)" stroke="none"/></g><g class="OutlinedText"><path d="M 1067,916 L 766,28 C 820,38 868,57 909,84 949,111 992,158 1038,223 1083,288 1142,406 1215,576 1275,717 1330,813 1379,866 1428,918 1490,944 1564,944 1589,944 1625,938 1671,927 L 1660,894 C 1631,894 1608,889 1591,879 1566,864 1542,839 1518,803 1494,767 1460,701 1417,604 1349,448 1289,335 1236,265 1197,214 1148,165 1090,120 1031,74 974,40 920,17 866,-6 808,-21 746,-28 L 606,-442 497,-442 637,-28 C 551,-17 482,15 432,67 381,118 353,184 346,263 341,323 358,437 397,606 420,707 432,775 432,810 433,845 426,868 411,881 402,890 382,894 351,894 L 362,927 C 422,938 462,944 483,944 522,944 555,933 580,911 606,888 620,854 621,809 622,764 609,686 580,575 538,410 517,295 517,228 517,161 528,114 550,87 572,59 608,39 657,28 L 958,916 1067,916 Z " transform="translate(13244,14093) scale(0.241,-0.241)" fill="rgb(0,0,0)" stroke="none"/></g><g class="OutlinedText"><path d="M 1067,916 L 766,28 C 820,38 868,57 909,84 949,111 992,158 1038,223 1083,288 1142,406 1215,576 1275,717 1330,813 1379,866 1428,918 1490,944 1564,944 1589,944 1625,938 1671,927 L 1660,894 C 1631,894 1608,889 1591,879 1566,864 1542,839 1518,803 1494,767 1460,701 1417,604 1349,448 1289,335 1236,265 1197,214 1148,165 1090,120 1031,74 974,40 920,17 866,-6 808,-21 746,-28 L 606,-442 497,-442 637,-28 C 551,-17 482,15 432,67 381,118 353,184 346,263 341,323 358,437 397,606 420,707 432,775 432,810 433,845 426,868 411,881 402,890 382,894 351,894 L 362,927 C 422,938 462,944 483,944 522,944 555,933 580,911 606,888 620,854 621,809 622,764 609,686 580,575 538,410 517,295 517,228 517,161 528,114 550,87 572,59 608,39 657,28 L 958,916 1067,916 Z " transform="translate(8261,14093) scale(0.241,-0.241)" fill="rgb(0,0,0)" stroke="none"/></g><g class="OutlinedText"><path d="M 1067,916 L 766,28 C 820,38 868,57 909,84 949,111 992,158 1038,223 1083,288 1142,406 1215,576 1275,717 1330,813 1379,866 1428,918 1490,944 1564,944 1589,944 1625,938 1671,927 L 1660,894 C 1631,894 1608,889 1591,879 1566,864 1542,839 1518,803 1494,767 1460,701 1417,604 1349,448 1289,335 1236,265 1197,214 1148,165 1090,120 1031,74 974,40 920,17 866,-6 808,-21 746,-28 L 606,-442 497,-442 637,-28 C 551,-17 482,15 432,67 381,118 353,184 346,263 341,323 358,437 397,606 420,707 432,775 432,810 433,845 426,868 411,881 402,890 382,894 351,894 L 362,927 C 422,938 462,944 483,944 522,944 555,933 580,911 606,888 620,854 621,809 622,764 609,686 580,575 538,410 517,295 517,228 517,161 528,114 550,87 572,59 608,39 657,28 L 958,916 1067,916 Z " transform="translate(6809,14093) scale(0.241,-0.241)" fill="rgb(0,0,0)" stroke="none"/></g><text class="SVGTextShape"><tspan class="TextParagraph"><tspan class="TextPosition" x="14320" y="14093"><tspan font-family="Times New Roman, serif" font-size="494px" font-style="italic" font-weight="400" lengthAdjust="spacingAndGlyphs" textLength="297" fill="rgb(0,0,0)" stroke="none" style="white-space: pre">E</tspan></tspan></tspan></text>
        <text class="SVGTextShape"><tspan class="TextParagraph"><tspan class="TextPosition" x="12397" y="14093"><tspan font-family="Times New Roman, serif" font-size="494px" font-style="italic" font-weight="400" lengthAdjust="spacingAndGlyphs" textLength="297" fill="rgb(0,0,0)" stroke="none" style="white-space: pre">P</tspan></tspan></tspan></text>
        <text class="SVGTextShape"><tspan class="TextParagraph"><tspan class="TextPosition" x="11935" y="14477"><tspan font-family="Times New Roman, serif" font-size="494px" font-style="italic" font-weight="400" lengthAdjust="spacingAndGlyphs" textLength="352" fill="rgb(0,0,0)" stroke="none" style="white-space: pre">m</tspan></tspan></tspan></text>
        <text class="SVGTextShape"><tspan class="TextParagraph"><tspan class="TextPosition" x="10625" y="14093"><tspan font-family="Times New Roman, serif" font-size="494px" font-style="italic" font-weight="400" lengthAdjust="spacingAndGlyphs" textLength="297" fill="rgb(0,0,0)" stroke="none" style="white-space: pre">X</tspan></tspan></tspan></text>
        <text class="SVGTextShape"><tspan class="TextParagraph"><tspan class="TextPosition" x="9807" y="14093"><tspan font-family="Times New Roman, serif" font-size="494px" font-style="italic" font-weight="400" lengthAdjust="spacingAndGlyphs" textLength="541" fill="rgb(0,0,0)" stroke="none" style="white-space: pre">qV</tspan></tspan></tspan></text>
        <text class="SVGTextShape"><tspan class="TextParagraph"><tspan class="TextPosition" x="7885" y="14093"><tspan font-family="Times New Roman, serif" font-size="494px" font-style="italic" font-weight="400" lengthAdjust="spacingAndGlyphs" textLength="297" fill="rgb(0,0,0)" stroke="none" style="white-space: pre">E</tspan></tspan></tspan></text>
        <text class="SVGTextShape"><tspan class="TextParagraph"><tspan class="TextPosition" x="6340" y="14093"><tspan font-family="Times New Roman, serif" font-size="494px" font-style="italic" font-weight="400" lengthAdjust="spacingAndGlyphs" textLength="352" fill="rgb(0,0,0)" stroke="none" style="white-space: pre">H</tspan></tspan></tspan></text>
        <g class="OutlinedText"><path d="M 37,759 L 1087,759 1087,662 37,662 37,759 Z M 37,386 L 1087,386 1087,287 37,287 37,386 Z " transform="translate(13926,14093) scale(0.241,-0.241)" fill="rgb(0,0,0)" stroke="none"/></g><g class="OutlinedText"><path d="M 702,-166 L 605,-166 605,1897 702,1897 702,-166 Z " transform="translate(13007,14143) scale(0.241,-0.241)" fill="rgb(0,0,0)" stroke="none"/></g><g class="OutlinedText"><path d="M 703,1897 L 703,1370 C 703,1165 678,963 628,766 585,595 525,446 448,317 370,188 279,80 174,-8 99,-73 12,-125 -86,-166 L -109,-146 C 79,-17 228,135 339,309 427,448 493,615 538,810 583,1005 605,1185 605,1350 L 605,1897 703,1897 Z " transform="translate(13007,14530) scale(0.241,-0.241)" fill="rgb(0,0,0)" stroke="none"/></g><g class="OutlinedText"><path d="M 703,-166 L 605,-166 605,380 C 605,591 577,796 521,995 465,1194 381,1369 269,1520 172,1651 46,1769 -109,1876 L -86,1897 C 75,1830 218,1719 343,1565 468,1411 559,1225 617,1006 674,787 703,571 703,360 L 703,-166 Z " transform="translate(13007,13827) scale(0.241,-0.241)" fill="rgb(0,0,0)" stroke="none"/></g><g class="OutlinedText"><path d="M 180,-166 L 83,-166 83,1897 180,1897 180,-166 Z " transform="translate(9560,14143) scale(0.241,-0.241)" fill="rgb(0,0,0)" stroke="none"/></g><g class="OutlinedText"><path d="M 83,1897 L 180,1897 180,1350 C 180,1139 208,934 265,735 321,536 405,361 517,210 614,80 740,-39 895,-146 L 872,-166 C 711,-99 569,12 444,166 319,319 227,506 170,725 112,944 83,1159 83,1370 L 83,1897 Z " transform="translate(9560,14530) scale(0.241,-0.241)" fill="rgb(0,0,0)" stroke="none"/></g><g class="OutlinedText"><path d="M 83,-166 L 83,360 C 83,565 108,767 158,965 201,1135 261,1284 339,1413 416,1542 507,1650 611,1738 687,1803 774,1856 872,1897 L 895,1876 C 707,1747 558,1595 447,1421 359,1282 293,1115 248,920 203,725 180,545 180,380 L 180,-166 83,-166 Z " transform="translate(9560,13827) scale(0.241,-0.241)" fill="rgb(0,0,0)" stroke="none"/></g><g class="OutlinedText"><path d="M 514,1050 L 612,1050 612,572 1087,572 1087,475 612,475 612,0 514,0 514,475 37,475 37,572 514,572 514,1050 Z " transform="translate(11258,14093) scale(0.241,-0.241)" fill="rgb(0,0,0)" stroke="none"/></g><g class="OutlinedText"><path d="M 1580,178 L 554,180 C 623,110 679,41 722,-28 L 608,-28 C 529,68 432,165 317,264 201,362 109,430 41,469 L 41,525 C 131,577 229,649 334,742 439,834 531,927 608,1020 L 722,1020 C 679,952 623,883 554,814 L 1580,814 C 1515,877 1460,946 1413,1020 L 1527,1020 C 1606,925 1703,828 1819,730 1934,631 2026,562 2094,523 L 2094,467 C 2004,415 1906,343 1801,251 1696,158 1604,65 1527,-28 L 1413,-28 C 1455,40 1511,109 1580,178 Z M 1684,278 L 1827,397 C 1848,414 1891,447 1956,494 1836,586 1745,660 1684,715 L 451,715 308,596 C 287,579 244,546 179,499 298,407 389,333 451,277 L 1684,278 Z " transform="translate(8942,14093) scale(0.241,-0.241)" fill="rgb(0,0,0)" stroke="none"/></g><g class="OutlinedText"><path d="M 37,759 L 1087,759 1087,662 37,662 37,759 Z M 37,386 L 1087,386 1087,287 37,287 37,386 Z " transform="translate(7490,14093) scale(0.241,-0.241)" fill="rgb(0,0,0)" stroke="none"/></g><text class="SVGTextShape"><tspan class="TextParagraph"><tspan class="TextPosition" x="12781" y="13872"><tspan font-family="Times New Roman, serif" font-size="247px" font-weight="400" lengthAdjust="spacingAndGlyphs" textLength="127" fill="rgb(0,0,0)" stroke="none" style="white-space: pre">2</tspan></tspan></tspan></text>
        <text class="SVGTextShape"><tspan class="TextParagraph"><tspan class="TextPosition" x="11680" y="14477"><tspan font-family="Times New Roman, serif" font-size="494px" font-weight="400" lengthAdjust="spacingAndGlyphs" textLength="243" fill="rgb(0,0,0)" stroke="none" style="white-space: pre">2</tspan></tspan></tspan></text>
        <text class="SVGTextShape"><tspan class="TextParagraph"><tspan class="TextPosition" x="11858" y="13785"><tspan font-family="Times New Roman, serif" font-size="494px" font-weight="400" lengthAdjust="spacingAndGlyphs" textLength="243" fill="rgb(0,0,0)" stroke="none" style="white-space: pre">1</tspan></tspan></tspan></text>
       </g>
      </g>
     </g>
    </g>
   </g>
  </g>
 </g>
</svg>