<?xml version='1.0' encoding='utf-8'?>
<svg xmlns="http://www.w3.org/2000/svg" width="200.0mm" height="93.0mm" viewBox="-14097 740053 380625 177040"><defs><style>.C1 {stroke: #000000; stroke-width: 326; stroke-opacity: 1.000; fill: none; fill-opacity: 1.000;}</style><style>.C2 {stroke: none; stroke-width: none; stroke-opacity: 1.000; fill: #000000; fill-opacity: 1.000;}</style></defs><rect fill="#ffffff" x="-14097" y="740053" width="380625" height="177040" fill-opacity="1.0" /><g stroke-linecap="round" stroke-linejoin="round"><path d="M 123521 815304 l 73011 0" class="C1" /><path d="M 123521 841842 l 73011 0" class="C1" /><path d="M 123521 816654 l 73011 0" class="C1" /><path d="M 123521 818004 l 73011 0" class="C1" /><path d="M 123521 819354 l 73011 0" class="C1" /><path d="M 123521 820704 l 73011 0" class="C1" /><path d="M 123521 840492 l 73011 0" class="C1" /><path d="M 123521 839142 l 73011 0" class="C1" /><path d="M 123521 837792 l 73011 0" class="C1" /><path d="M 123521 836442 l 73011 0" class="C1" /><path d="M 279973 756866 l -119947 0" class="C1" /><path d="M 279973 900280 l -119947 0" class="C1" /><path d="M 123521 815304 l 0 5400" class="C1" /><path d="M 160026 900280 l 0 -58438" class="C1" /><path d="M 127623 844887 l 0 13038" class="C1" /><path d="M 121104 851406 l 13038 0" class="C1" /><path d="M 123521 836442 l 0 5400" class="C1" /><path d="M 121104 810056 l 13038 0" class="C1" /><path d="M 160026 815304 l 0 -58438" class="C1" /><path d="M 196532 815304 l 0 5400" class="C1" /><path d="M 308794 816773 l -3073 -3073 -7683 10756 Z" class="C2" /><path d="M 282581 828573 l 0 -69100" class="C1" /><path d="M 336035 828573 c 0 29522 -23932 53455 -53455 53455 c -29522 0 -53455 -23932 -53455 -53455 c 0 -29522 23932 -53455 53455 -53455 c 29522 0 53455 23932 53455 53455" class="C1" /><path d="M 332124 828573 c 0 27362 -22181 49543 -49543 49543 c -27362 0 -49543 -22181 -49543 -49543 c 0 -27362 22181 -49543 49543 -49543 c 27362 0 49543 22181 49543 49543" class="C1" /><path d="M 253898 828573 c 0 15841 12842 28683 28683 28683 c 15841 0 28683 -12842 28683 -28683" class="C1" /><path d="M 254628 828573 c 0 15438 12515 27953 27953 27953 c 15438 0 27953 -12515 27953 -27953" class="C1" /><path d="M 255358 828573 c 0 15035 12188 27223 27223 27223 c 15035 0 27223 -12188 27223 -27223" class="C1" /><path d="M 256088 828573 c 0 14631 11861 26493 26493 26493 c 14631 0 26493 -11861 26493 -26493" class="C1" /><path d="M 256818 828573 c 0 14228 11534 25762 25762 25762 c 14228 0 25762 -11534 25762 -25762" class="C1" /><path d="M 257548 828573 c 0 13825 11207 25032 25032 25032 c 13825 0 25032 -11207 25032 -25032" class="C1" /><path d="M 258279 828573 c 0 13422 10880 24302 24302 24302 c 13422 0 24302 -10880 24302 -24302" class="C1" /><path d="M 94412 902996 l 0 -5432 -16297 2716 Z" class="C2" /><path d="M 196532 836442 l 0 5400" class="C1" /><path d="M 253898 828573 l 4381 0" class="C1" /><path d="M 282581 857256 l 0 40417" class="C1" /><path d="M 285188 900280 c 0 1440 -1167 2608 -2608 2608 c -1440 0 -2608 -1167 -2608 -2608 c 0 -1440 1167 -2608 2608 -2608 c 1440 0 2608 1167 2608 2608" class="C1" /><path d="M 279451 828573 l 15 307 45 304 75 298 103 289 131 278 158 263 183 247 206 228 228 206 247 183 263 158 278 131 289 103 298 75 304 45 307 15 307 -15 304 -45 298 -75 289 -103 278 -131 263 -158 247 -183 228 -206 206 -228 183 -247 158 -263 131 -278 103 -289 75 -298 45 -304 15 -307 -3130 0 Z" class="C2" /><path d="M 285711 828573 l -15 -307 -45 -304 -75 -298 -103 -289 -131 -278 -158 -263 -183 -247 -206 -228 -228 -206 -247 -183 -263 -158 -278 -131 -289 -103 -298 -75 -304 -45 -307 -15 -307 15 -304 45 -298 75 -289 103 -278 131 -263 158 -247 183 -228 206 -206 228 -183 247 -158 263 -131 278 -103 289 -75 298 -45 304 -15 307 3130 0 Z" class="C2" /><path d="M 306883 828573 l 4381 0" class="C1" /><path d="M 307258 815237 l 45173 -45173" class="C1" /><path d="M 296195 804174 l 45173 -45173" class="C1" /><path d="M 297731 805710 l -3073 -3073 -7683 10756 Z" class="C2" /><path d="M 285188 756866 c 0 1440 -1167 2608 -2608 2608 c -1440 0 -2608 -1167 -2608 -2608 c 0 -1440 1167 -2608 2608 -2608 c 1440 0 2608 1167 2608 2608" class="C1" /><path d="M 160026 756866 l -136522 0" class="C1" /><path d="M 160026 900280 l -136522 0" class="C1" /><path d="M 23504 756866 l 0 48203" class="C1" /><path d="M 47008 828573 c 0 12981 -10523 23504 -23504 23504 c -12981 0 -23504 -10523 -23504 -23504 c 0 -12981 10523 -23504 23504 -23504 c 12981 0 23504 10523 23504 23504" class="C1" /><path d="M 6884 845193 l 33240 -33240" class="C1" /><path d="M 23504 852077 l 0 48203" class="C1" /><path d="M 40124 811953 l -4310 16086" class="C1" /><path d="M 40124 811953 l -16086 4310" class="C1" /><path d="M 81904 759582 l 0 -5432 16297 2716 Z" class="C2" /></g></svg>
