<?xml version='1.0' encoding='UTF-8'?>
<svg xmlns="http://www.w3.org/2000/svg" width="200.0mm" height="188.3mm" viewBox="98630 -6343 171304 161319"><defs><style>.C1 {stroke: #000000; stroke-width: 326; stroke-opacity: 1.000; fill: none; fill-opacity: 1.000;}</style><style>.C2 {stroke: none; stroke-width: none; stroke-opacity: 1.000; fill: #000000; fill-opacity: 1.000;}</style></defs><rect fill="#ffffff" x="98630" y="-6343" width="171304" height="161319" fill-opacity="1.0"/><g stroke-linecap="round" stroke-linejoin="round"><path d="M 247194 74317 c 0 29522 -23932 53455 -53455 53455 c -29522 0 -53455 -23932 -53455 -53455 c 0 -29522 23932 -53455 53455 -53455 c 29522 0 53455 23932 53455 53455" class="C1"/><path d="M 243283 74317 c 0 27362 -22181 49543 -49543 49543 c -27362 0 -49543 -22181 -49543 -49543 c 0 -27362 22181 -49543 49543 -49543 c 27362 0 49543 22181 49543 49543" class="C1"/><path d="M 165057 74317 c 0 15841 12842 28683 28683 28683 c 15841 0 28683 -12842 28683 -28683" class="C1"/><path d="M 165057 74317 l 4381 0" class="C1"/><path d="M 165787 74317 c 0 15438 12515 27953 27953 27953 c 15438 0 27953 -12515 27953 -27953" class="C1"/><path d="M 166517 74317 c 0 15035 12188 27223 27223 27223 c 15035 0 27223 -12188 27223 -27223" class="C1"/><path d="M 167247 74317 c 0 14631 11861 26493 26493 26493 c 14631 0 26493 -11861 26493 -26493" class="C1"/><path d="M 167977 74317 c 0 14228 11534 25762 25762 25762 c 14228 0 25762 -11534 25762 -25762" class="C1"/><path d="M 168707 74317 c 0 13825 11207 25032 25032 25032 c 13825 0 25032 -11207 25032 -25032" class="C1"/><path d="M 169438 74317 c 0 13422 10880 24302 24302 24302 c 13422 0 24302 -10880 24302 -24302" class="C1"/><path d="M 218042 74317 l 4381 0" class="C1"/><path d="M 190610 74317 l 15 307 45 304 75 298 103 289 131 278 158 263 183 247 206 228 228 206 247 183 263 158 278 131 289 103 298 75 304 45 307 15 307 -15 304 -45 298 -75 289 -103 278 -131 263 -158 247 -183 228 -206 206 -228 183 -247 158 -263 131 -278 103 -289 75 -298 45 -304 15 -307 -3130 0 Z" class="C2"/><path d="M 196870 74317 l -15 -307 -45 -304 -75 -298 -103 -289 -131 -278 -158 -263 -183 -247 -206 -228 -228 -206 -247 -183 -263 -158 -278 -131 -289 -103 -298 -75 -304 -45 -307 -15 -307 15 -304 45 -298 75 -289 103 -278 131 -263 158 -247 183 -228 206 -206 228 -183 247 -158 263 -131 278 -103 289 -75 298 -45 304 -15 307 3130 0 Z" class="C2"/><path d="M 193740 74317 l 0 -69100" class="C1"/><path d="M 193740 103000 l 0 40417" class="C1"/><path d="M 191132 2610 l -83441 0" class="C1"/><path d="M 191132 146024 l -83441 0" class="C1"/><path d="M 196347 2610 c 0 1440 -1167 2608 -2608 2608 c -1440 0 -2608 -1167 -2608 -2608 c 0 -1440 1167 -2608 2608 -2608 c 1440 0 2608 1167 2608 2608" class="C1"/><path d="M 196347 146024 c 0 1440 -1167 2608 -2608 2608 c -1440 0 -2608 -1167 -2608 -2608 c 0 -1440 1167 -2608 2608 -2608 c 1440 0 2608 1167 2608 2608" class="C1"/><path d="M 107691 146024 l 0 -143415" class="C1"/><path d="M 208890 51454 l -3073 -3073 -7683 10756 Z" class="C2"/><path d="M 207354 49918 l 45173 -45173" class="C1"/><path d="M 219953 62517 l -3073 -3073 -7683 10756 Z" class="C2"/><path d="M 218417 60981 l 45173 -45173" class="C1"/><path d="M 104975 81488 l 5432 0 -2716 -16297 Z" class="C2"/></g></svg>