<?xml version='1.0' encoding='UTF-8'?>
<svg xmlns="http://www.w3.org/2000/svg" width="200.0mm" height="133.9mm" viewBox="23010 258021 249833 167245"><defs><style>.C1 {stroke: #000000; stroke-width: 326; stroke-opacity: 1.000; fill: none; fill-opacity: 1.000;}</style><style>.C2 {stroke: none; stroke-width: none; stroke-opacity: 1.000; fill: #000000; fill-opacity: 1.000;}</style></defs><rect fill="#ffffff" x="23010" y="258021" width="249833" height="167245" fill-opacity="1.0"/><g stroke-linecap="round" stroke-linejoin="round"><path d="M 208890 318727 l -3073 -3073 -7683 10756 Z" class="C2"/><path d="M 169438 341590 c 0 13422 10880 24302 24302 24302 c 13422 0 24302 -10880 24302 -24302" class="C1"/><path d="M 168707 341590 c 0 13825 11207 25032 25032 25032 c 13825 0 25032 -11207 25032 -25032" class="C1"/><path d="M 167977 341590 c 0 14228 11534 25762 25762 25762 c 14228 0 25762 -11534 25762 -25762" class="C1"/><path d="M 167247 341590 c 0 14631 11861 26493 26493 26493 c 14631 0 26493 -11861 26493 -26493" class="C1"/><path d="M 166517 341590 c 0 15035 12188 27223 27223 27223 c 15035 0 27223 -12188 27223 -27223" class="C1"/><path d="M 165787 341590 c 0 15438 12515 27953 27953 27953 c 15438 0 27953 -12515 27953 -27953" class="C1"/><path d="M 165057 341590 c 0 15841 12842 28683 28683 28683 c 15841 0 28683 -12842 28683 -28683" class="C1"/><path d="M 243283 341590 c 0 27362 -22181 49543 -49543 49543 c -27362 0 -49543 -22181 -49543 -49543 c 0 -27362 22181 -49543 49543 -49543 c 27362 0 49543 22181 49543 49543" class="C1"/><path d="M 247194 341590 c 0 29522 -23932 53455 -53455 53455 c -29522 0 -53455 -23932 -53455 -53455 c 0 -29522 23932 -53455 53455 -53455 c 29522 0 53455 23932 53455 53455" class="C1"/><path d="M 71186 413297 l 0 -58438" class="C1"/><path d="M 191132 413297 l -119947 0" class="C1"/><path d="M 193740 370272 l 0 40417" class="C1"/><path d="M 196347 413297 c 0 1440 -1167 2608 -2608 2608 c -1440 0 -2608 -1167 -2608 -2608 c 0 -1440 1167 -2608 2608 -2608 c 1440 0 2608 1167 2608 2608" class="C1"/><path d="M 193740 341590 l 0 -69100" class="C1"/><path d="M 165057 341590 l 4381 0" class="C1"/><path d="M 190610 341590 l 15 307 45 304 75 298 103 289 131 278 158 263 183 247 206 228 228 206 247 183 263 158 278 131 289 103 298 75 304 45 307 15 307 -15 304 -45 298 -75 289 -103 278 -131 263 -158 247 -183 228 -206 206 -228 183 -247 158 -263 131 -278 103 -289 75 -298 45 -304 15 -307 -3130 0 Z" class="C2"/><path d="M 196870 341590 l -15 -307 -45 -304 -75 -298 -103 -289 -131 -278 -158 -263 -183 -247 -206 -228 -228 -206 -247 -183 -263 -158 -278 -131 -289 -103 -298 -75 -304 -45 -307 -15 -307 15 -304 45 -298 75 -289 103 -278 131 -263 158 -247 183 -228 206 -206 228 -183 247 -158 263 -131 278 -103 289 -75 298 -45 304 -15 307 3130 0 Z" class="C2"/><path d="M 191132 269882 l -119947 0" class="C1"/><path d="M 196347 269882 c 0 1440 -1167 2608 -2608 2608 c -1440 0 -2608 -1167 -2608 -2608 c 0 -1440 1167 -2608 2608 -2608 c 1440 0 2608 1167 2608 2608" class="C1"/><path d="M 207354 317190 l 45173 -45173" class="C1"/><path d="M 218417 328253 l 45173 -45173" class="C1"/><path d="M 219953 329790 l -3073 -3073 -7683 10756 Z" class="C2"/><path d="M 218042 341590 l 4381 0" class="C1"/><path d="M 131811 416013 l 0 -5432 -16297 2716 Z" class="C2"/><path d="M 34680 328320 l 0 5400" class="C1"/><path d="M 107691 328320 l 0 5400" class="C1"/><path d="M 34680 349458 l 73011 0" class="C1"/><path d="M 34680 350809 l 73011 0" class="C1"/><path d="M 34680 352159 l 73011 0" class="C1"/><path d="M 34680 353509 l 73011 0" class="C1"/><path d="M 34680 333721 l 73011 0" class="C1"/><path d="M 34680 332371 l 73011 0" class="C1"/><path d="M 34680 331020 l 73011 0" class="C1"/><path d="M 34680 329670 l 73011 0" class="C1"/><path d="M 34680 354859 l 73011 0" class="C1"/><path d="M 34680 328320 l 73011 0" class="C1"/><path d="M 107691 349458 l 0 5400" class="C1"/><path d="M 34680 349458 l 0 5400" class="C1"/><path d="M 71186 328320 l 0 -58438" class="C1"/><path d="M 32263 364422 l 13038 0" class="C1"/><path d="M 38782 357903 l 0 13038" class="C1"/><path d="M 32263 323072 l 13038 0" class="C1"/></g></svg>