<?xml version='1.0' encoding='UTF-8'?>
<svg xmlns="http://www.w3.org/2000/svg" width="200.0mm" height="109.6mm" viewBox="306006 124040 241680 132444"><defs><style>.C1 {stroke: #000000; stroke-width: 326; stroke-opacity: 1.000; fill: none; fill-opacity: 1.000;}</style><style>.C2 {stroke: none; stroke-width: none; stroke-opacity: 1.000; fill: #000000; fill-opacity: 1.000;}</style></defs><rect fill="#ffffff" x="306006" y="124040" width="241680" height="132444" fill-opacity="1.0"/><g stroke-linecap="round" stroke-linejoin="round"><path d="M 351309 247532 l 95838 0" class="C1"/><path d="M 447147 247532 l 0 -10377" class="C1"/><path d="M 447147 237156 l -95838 0" class="C1"/><path d="M 351309 237156 l 0 10377" class="C1"/><path d="M 447147 237156 l 56583 -39620" class="C1"/><path d="M 447147 247532 l 56583 -39620" class="C1"/><path d="M 351309 237156 l 56583 -39620" class="C1"/><path d="M 407892 197536 l 95838 0" class="C1"/><path d="M 503730 197536 l 0 10377" class="C1"/><path d="M 372444 196893 l -2395 2954 10059 5708 Z" class="C2"/><path d="M 371247 198370 l -56290 -45641" class="C1"/><path d="M 385810 187534 l -2395 2954 10059 5708 Z" class="C2"/><path d="M 384613 189010 l -56290 -45641" class="C1"/><path d="M 400633 177155 l -2395 2954 10059 5708 Z" class="C2"/><path d="M 399435 178632 l -56290 -45641" class="C1"/><path d="M 480659 190046 l -18405 16452" class="C1"/><path d="M 453931 210271 l 17 353 52 350 86 343 119 333 151 320 182 303 211 284 237 262 262 237 284 211 303 182 320 151 333 119 343 86 350 52 353 17 353 -17 350 -52 343 -86 333 -119 320 -151 303 -182 284 -211 262 -237 237 -262 211 -284 182 -303 151 -320 119 -333 86 -343 52 -350 17 -353 -3602 0 Z" class="C2"/><path d="M 461135 210271 l -17 -353 -52 -350 -86 -343 -119 -333 -151 -320 -182 -303 -211 -284 -237 -262 -262 -237 -284 -211 -303 -182 -320 -151 -333 -119 -343 -86 -350 -52 -353 -17 -353 17 -350 52 -343 86 -333 119 -320 151 -303 182 -284 211 -262 237 -237 262 -211 284 -182 303 -151 320 -119 333 -86 343 -52 350 -17 353 3602 0 Z" class="C2"/><path d="M 479392 188628 l 2534 2835 7238 -9020 Z" class="C2"/><path d="M 449972 198064 l -18405 16452" class="C1"/><path d="M 423244 218289 l 17 353 52 350 86 343 119 333 151 320 182 303 211 284 237 262 262 237 284 211 303 182 320 151 333 119 343 86 350 52 353 17 353 -17 350 -52 343 -86 333 -119 320 -151 303 -182 284 -211 262 -237 237 -262 211 -284 182 -303 151 -320 119 -333 86 -343 52 -350 17 -353 -3602 0 Z" class="C2"/><path d="M 430448 218289 l -17 -353 -52 -350 -86 -343 -119 -333 -151 -320 -182 -303 -211 -284 -237 -262 -262 -237 -284 -211 -303 -182 -320 -151 -333 -119 -343 -86 -350 -52 -353 -17 -353 17 -350 52 -343 86 -333 119 -320 151 -303 182 -284 211 -262 237 -237 262 -211 284 -182 303 -151 320 -119 333 -86 343 -52 350 -17 353 3602 0 Z" class="C2"/><path d="M 448705 196646 l 2534 2835 7238 -9020 Z" class="C2"/><path d="M 503792 157029 l -18405 16452" class="C1"/><path d="M 477064 177255 l 17 353 52 350 86 343 119 333 151 320 182 303 211 284 237 262 262 237 284 211 303 182 320 151 333 119 343 86 350 52 353 17 353 -17 350 -52 343 -86 333 -119 320 -151 303 -182 284 -211 262 -237 237 -262 211 -284 182 -303 151 -320 119 -333 86 -343 52 -350 17 -353 -3602 0 Z" class="C2"/><path d="M 484269 177255 l -17 -353 -52 -350 -86 -343 -119 -333 -151 -320 -182 -303 -211 -284 -237 -262 -262 -237 -284 -211 -303 -182 -320 -151 -333 -119 -343 -86 -350 -52 -353 -17 -353 17 -350 52 -343 86 -333 119 -320 151 -303 182 -284 211 -262 237 -237 262 -211 284 -182 303 -151 320 -119 333 -86 343 -52 350 -17 353 3602 0 Z" class="C2"/><path d="M 502525 155612 l 2534 2835 7238 -9020 Z" class="C2"/><path d="M 473105 165991 l -18405 16452" class="C1"/><path d="M 446377 186216 l 17 353 52 350 86 343 119 333 151 320 182 303 211 284 237 262 262 237 284 211 303 182 320 151 333 119 343 86 350 52 353 17 353 -17 350 -52 343 -86 333 -119 320 -151 303 -182 284 -211 262 -237 237 -262 211 -284 182 -303 151 -320 119 -333 86 -343 52 -350 17 -353 -3602 0 Z" class="C2"/><path d="M 453582 186216 l -17 -353 -52 -350 -86 -343 -119 -333 -151 -320 -182 -303 -211 -284 -237 -262 -262 -237 -284 -211 -303 -182 -320 -151 -333 -119 -343 -86 -350 -52 -353 -17 -353 17 -350 52 -343 86 -333 119 -320 151 -303 182 -284 211 -262 237 -237 262 -211 284 -182 303 -151 320 -119 333 -86 343 -52 350 -17 353 3602 0 Z" class="C2"/><path d="M 471838 164573 l 2534 2835 7238 -9020 Z" class="C2"/><path d="M 503502 178198 l 17 353 52 350 86 343 119 333 151 320 182 303 211 284 237 262 262 237 284 211 303 182 320 151 333 119 343 86 350 52 353 17 353 -17 350 -52 343 -86 333 -119 320 -151 303 -182 284 -211 262 -237 237 -262 211 -284 182 -303 151 -320 119 -333 86 -343 52 -350 17 -353 -3602 0 Z" class="C2"/><path d="M 510707 178198 l -17 -353 -52 -350 -86 -343 -119 -333 -151 -320 -182 -303 -211 -284 -237 -262 -262 -237 -284 -211 -303 -182 -320 -151 -333 -119 -343 -86 -350 -52 -353 -17 -353 17 -350 52 -343 86 -333 119 -320 151 -303 182 -284 211 -262 237 -237 262 -211 284 -182 303 -151 320 -119 333 -86 343 -52 350 -17 353 3602 0 Z" class="C2"/><path d="M 528963 156555 l 2534 2835 7238 -9020 Z" class="C2"/><path d="M 530230 157973 l -18405 16452" class="C1"/></g></svg>