<?xml version='1.0' encoding='utf-8'?>
<svg xmlns="http://www.w3.org/2000/svg" width="200.0mm" height="87.3mm" viewBox="531589 392743 486427 212414"><defs><style>.C1 {stroke: #000000; stroke-width: 326; stroke-opacity: 1.000; fill: none; fill-opacity: 1.000;}</style><style>.C2 {stroke: none; stroke-width: none; stroke-opacity: 1.000; fill: #000000; fill-opacity: 1.000;}</style></defs><rect fill="#ffffff" x="531589" y="392743" width="486427" height="212414" fill-opacity="1.0" /><g stroke-linecap="round" stroke-linejoin="round"><path d="M 983604 498950 c 0 29522 -23932 53455 -53455 53455 c -29522 0 -53455 -23932 -53455 -53455 c 0 -29522 23932 -53455 53455 -53455 c 29522 0 53455 23932 53455 53455" class="C1" /><path d="M 979693 498950 c 0 27362 -22181 49543 -49543 49543 c -27362 0 -49543 -22181 -49543 -49543 c 0 -27362 22181 -49543 49543 -49543 c 27362 0 49543 22181 49543 49543" class="C1" /><path d="M 901467 498950 c 0 15841 12842 28683 28683 28683 c 15841 0 28683 -12842 28683 -28683" class="C1" /><path d="M 902197 498950 c 0 15438 12515 27953 27953 27953 c 15438 0 27953 -12515 27953 -27953" class="C1" /><path d="M 902927 498950 c 0 15035 12188 27223 27223 27223 c 15035 0 27223 -12188 27223 -27223" class="C1" /><path d="M 903657 498950 c 0 14631 11861 26493 26493 26493 c 14631 0 26493 -11861 26493 -26493" class="C1" /><path d="M 904387 498950 c 0 14228 11534 25762 25762 25762 c 14228 0 25762 -11534 25762 -25762" class="C1" /><path d="M 905117 498950 c 0 13825 11207 25032 25032 25032 c 13825 0 25032 -11207 25032 -25032" class="C1" /><path d="M 905848 498950 c 0 13422 10880 24302 24302 24302 c 13422 0 24302 -10880 24302 -24302" class="C1" /><path d="M 927542 427243 l -119947 0" class="C1" /><path d="M 927542 570657 l -119947 0" class="C1" /><path d="M 573109 427243 l 0 48203" class="C1" /><path d="M 807595 485681 l 0 -58438" class="C1" /><path d="M 807595 570657 l -83141 0" class="C1" /><path d="M 556489 515570 l 33240 -33240" class="C1" /><path d="M 596613 498950 c 0 12981 -10523 23504 -23504 23504 c -12981 0 -23504 -10523 -23504 -23504 c 0 -12981 10523 -23504 23504 -23504 c 12981 0 23504 10523 23504 23504" class="C1" /><path d="M 573109 522454 l 0 48203" class="C1" /><path d="M 589729 482330 l -16086 4310" class="C1" /><path d="M 589729 482330 l -4310 16086" class="C1" /><path d="M 771090 485681 l 73011 0" class="C1" /><path d="M 771090 512219 l 73011 0" class="C1" /><path d="M 771090 487031 l 73011 0" class="C1" /><path d="M 771090 488381 l 73011 0" class="C1" /><path d="M 771090 489731 l 73011 0" class="C1" /><path d="M 771090 491081 l 73011 0" class="C1" /><path d="M 771090 510869 l 73011 0" class="C1" /><path d="M 771090 509519 l 73011 0" class="C1" /><path d="M 771090 508169 l 73011 0" class="C1" /><path d="M 771090 506819 l 73011 0" class="C1" /><path d="M 768673 521782 l 13038 0" class="C1" /><path d="M 775192 515264 l 0 13038" class="C1" /><path d="M 771090 506819 l 0 5400" class="C1" /><path d="M 807595 570657 l 0 -58438" class="C1" /><path d="M 768673 480432 l 13038 0" class="C1" /><path d="M 771090 485681 l 0 5400" class="C1" /><path d="M 844101 506819 l 0 5400" class="C1" /><path d="M 844101 485681 l 0 5400" class="C1" /><path d="M 901467 498950 l 4381 0" class="C1" /><path d="M 807595 427243 l -83141 0" class="C1" /><path d="M 932757 427243 c 0 1440 -1167 2608 -2608 2608 c -1440 0 -2608 -1167 -2608 -2608 c 0 -1440 1167 -2608 2608 -2608 c 1440 0 2608 1167 2608 2608" class="C1" /><path d="M 932757 570657 c 0 1440 -1167 2608 -2608 2608 c -1440 0 -2608 -1167 -2608 -2608 c 0 -1440 1167 -2608 2608 -2608 c 1440 0 2608 1167 2608 2608" class="C1" /><path d="M 927020 498950 l 15 307 45 304 75 298 103 289 131 278 158 263 183 247 206 228 228 206 247 183 263 158 278 131 289 103 298 75 304 45 307 15 307 -15 304 -45 298 -75 289 -103 278 -131 263 -158 247 -183 228 -206 206 -228 183 -247 158 -263 131 -278 103 -289 75 -298 45 -304 15 -307 -3130 0 Z" class="C2" /><path d="M 933280 498950 l -15 -307 -45 -304 -75 -298 -103 -289 -131 -278 -158 -263 -183 -247 -206 -228 -228 -206 -247 -183 -263 -158 -278 -131 -289 -103 -298 -75 -304 -45 -307 -15 -307 15 -304 45 -298 75 -289 103 -278 131 -263 158 -247 183 -228 206 -206 228 -183 247 -158 263 -131 278 -103 289 -75 298 -45 304 -15 307 3130 0 Z" class="C2" /><path d="M 930150 527633 l 0 40417" class="C1" /><path d="M 954827 485614 l 45173 -45173" class="C1" /><path d="M 943764 474551 l 45173 -45173" class="C1" /><path d="M 930150 498950 l 0 -69100" class="C1" /><path d="M 945300 476087 l -3073 -3073 -7683 10756 Z" class="C2" /><path d="M 956363 487150 l -3073 -3073 -7683 10756 Z" class="C2" /><path d="M 954452 498950 l 4381 0" class="C1" /><path d="M 634533 410759 l -0 176382" class="C1" /><path d="M 733528 410759 l -98995 0" class="C1" /><path d="M 733528 587141 l -98995 0" class="C1" /><path d="M 733528 410759 l 0 176382" class="C1" /><path d="M 724454 427243 c 0 1440 -1167 2608 -2608 2608 c -1440 0 -2608 -1167 -2608 -2608 c 0 -1440 1167 -2608 2608 -2608 c 1440 0 2608 1167 2608 2608" class="C1" /><path d="M 724454 570657 c 0 1440 -1167 2608 -2608 2608 c -1440 0 -2608 -1167 -2608 -2608 c 0 -1440 1167 -2608 2608 -2608 c 1440 0 2608 1167 2608 2608" class="C1" /><path d="M 643606 570657 l -70498 0" class="C1" /><path d="M 643606 427243 l -70498 0" class="C1" /><path d="M 648821 570657 c 0 1440 -1167 2608 -2608 2608 c -1440 0 -2608 -1167 -2608 -2608 c 0 -1440 1167 -2608 2608 -2608 c 1440 0 2608 1167 2608 2608" class="C1" /><path d="M 648821 427243 c 0 1440 -1167 2608 -2608 2608 c -1440 0 -2608 -1167 -2608 -2608 c 0 -1440 1167 -2608 2608 -2608 c 1440 0 2608 1167 2608 2608" class="C1" /></g></svg>
