<?xml version='1.0' encoding='UTF-8'?>
<svg xmlns="http://www.w3.org/2000/svg" width="200.0mm" height="109.5mm" viewBox="-17125 312505 463720 253985"><defs><style>.C1 {stroke: #000000; stroke-width: 496; stroke-opacity: 1.000; fill: none; fill-opacity: 1.000;}</style><style>.C2 {stroke: none; stroke-width: none; stroke-opacity: 1.000; fill: #000000; fill-opacity: 1.000;}</style></defs><rect fill="#ffffff" x="-17125" y="312505" width="463720" height="253985" fill-opacity="1.0"/><g stroke-linecap="round" stroke-linejoin="round"><path d="M 184340 331614 l 121052 0 c 34003 0 61568 27565 61568 61568 c 0 34003 -27565 61568 -61568 61568 l -121052 0 c -34003 0 -61568 -27565 -61568 -61568 c 0 -34003 27565 -61568 61568 -61568" class="C1"/><path d="M 184340 330647 l 121052 0 c 34537 0 62535 27998 62535 62535 c 0 34537 -27998 62535 -62535 62535 l -121052 0 c -34537 0 -62535 -27998 -62535 -62535 c 0 -34537 27998 -62535 62535 -62535" class="C1"/><path d="M 184340 329680 l 121052 0 c 35071 0 63502 28431 63502 63502 c 0 35071 -28431 63502 -63502 63502 l -121052 0 c -35071 0 -63502 -28431 -63502 -63502 c 0 -35071 28431 -63502 63502 -63502" class="C1"/><path d="M 170449 383260 l -105176 0" class="C1"/><path d="M 170449 403105 l -105176 0" class="C1"/><path d="M 62297 403105 l 14 292 43 289 71 283 98 275 125 264 150 251 174 235 196 216 216 196 235 174 251 150 264 125 275 98 283 71 289 43 292 14 292 -14 289 -43 283 -71 275 -98 264 -125 251 -150 235 -174 216 -196 196 -216 174 -235 150 -251 125 -264 98 -275 71 -283 43 -289 14 -292 -2977 0 Z" class="C2"/><path d="M 68250 403105 l -14 -292 -43 -289 -71 -283 -98 -275 -125 -264 -150 -251 -174 -235 -196 -216 -216 -196 -235 -174 -251 -150 -264 -125 -275 -98 -283 -71 -289 -43 -292 -14 -292 14 -289 43 -283 71 -275 98 -264 125 -251 150 -235 174 -216 196 -196 216 -174 235 -150 251 -125 264 -98 275 -71 283 -43 289 -14 292 2977 0 Z" class="C2"/><path d="M 62297 383260 l 14 292 43 289 71 283 98 275 125 264 150 251 174 235 196 216 216 196 235 174 251 150 264 125 275 98 283 71 289 43 292 14 292 -14 289 -43 283 -71 275 -98 264 -125 251 -150 235 -174 216 -196 196 -216 174 -235 150 -251 125 -264 98 -275 71 -283 43 -289 14 -292 -2977 0 Z" class="C2"/><path d="M 68250 383260 l -14 -292 -43 -289 -71 -283 -98 -275 -125 -264 -150 -251 -174 -235 -196 -216 -216 -196 -235 -174 -251 -150 -264 -125 -275 -98 -283 -71 -289 -43 -292 -14 -292 14 -289 43 -283 71 -275 98 -264 125 -251 150 -235 174 -216 196 -196 216 -174 235 -150 251 -125 264 -98 275 -71 283 -43 289 -14 292 2977 0 Z" class="C2"/><path d="M 205202 341587 l 0 4763 m 0 7144 l 0 4763 m 0 7144 l 0 4763 m 0 7144 l 0 4763 m 0 7144 l 0 4763 m 0 7144 l 0 4763 m 0 7144 l 0 4763 m 0 7144 l 0 4763 m 0 7144 l 0 4763" class="C1"/><path d="M 207136 341587 l 0 4763 m 0 7144 l 0 4763 m 0 7144 l 0 4763 m 0 7144 l 0 4763 m 0 7144 l 0 4763 m 0 7144 l 0 4763 m 0 7144 l 0 4763 m 0 7144 l 0 4763 m 0 7144 l 0 4763" class="C1"/><path d="M 206169 341587 l 0 4763 m 0 7144 l 0 4763 m 0 7144 l 0 4763 m 0 7144 l 0 4763 m 0 7144 l 0 4763 m 0 7144 l 0 4763 m 0 7144 l 0 4763 m 0 7144 l 0 4763 m 0 7144 l 0 4763" class="C1"/><path d="M 170449 387229 l 7938 1984" class="C1"/><path d="M 170449 395167 l 7938 1984" class="C1"/><path d="M 178387 393183 l -7938 1984" class="C1"/><path d="M 170449 391198 l 7938 1984" class="C1"/><path d="M 178387 389214 l -7938 1984" class="C1"/><path d="M 178387 401120 l -7938 1984" class="C1"/><path d="M 170449 399136 l 7938 1984" class="C1"/><path d="M 178387 397152 l -7938 1984" class="C1"/><path d="M 178387 385245 l -7938 1984" class="C1"/><path d="M 170449 383260 l 7938 1984" class="C1"/><path d="M 426443 393183 l -115098 0" class="C1"/><path d="M 282596 341587 l 0 4763 m 0 7144 l 0 4763 m 0 7144 l 0 4763 m 0 7144 l 0 4763 m 0 7144 l 0 4763 m 0 7144 l 0 4763 m 0 7144 l 0 4763 m 0 7144 l 0 4763 m 0 7144 l 0 4763" class="C1"/><path d="M 284530 341587 l 0 4763 m 0 7144 l 0 4763 m 0 7144 l 0 4763 m 0 7144 l 0 4763 m 0 7144 l 0 4763 m 0 7144 l 0 4763 m 0 7144 l 0 4763 m 0 7144 l 0 4763 m 0 7144 l 0 4763" class="C1"/><path d="M 283563 341587 l 0 4763 m 0 7144 l 0 4763 m 0 7144 l 0 4763 m 0 7144 l 0 4763 m 0 7144 l 0 4763 m 0 7144 l 0 4763 m 0 7144 l 0 4763 m 0 7144 l 0 4763 m 0 7144 l 0 4763" class="C1"/><path d="M 310378 367385 l 0 51596" class="C1"/><path d="M 312312 367385 l 0 51596" class="C1"/><path d="M 311345 367385 l 0 51596" class="C1"/><path d="M 423467 393183 l 14 292 43 289 71 283 98 275 125 264 150 251 174 235 196 216 216 196 235 174 251 150 264 125 275 98 283 71 289 43 292 14 292 -14 289 -43 283 -71 275 -98 264 -125 251 -150 235 -174 216 -196 196 -216 174 -235 150 -251 125 -264 98 -275 71 -283 43 -289 14 -292 -2977 0 Z" class="C2"/><path d="M 429420 393183 l -14 -292 -43 -289 -71 -283 -98 -275 -125 -264 -150 -251 -174 -235 -196 -216 -216 -196 -235 -174 -251 -150 -264 -125 -275 -98 -283 -71 -289 -43 -292 -14 -292 14 -289 43 -283 71 -275 98 -264 125 -251 150 -235 174 -216 196 -196 216 -174 235 -150 251 -125 264 -98 275 -71 283 -43 289 -14 292 2977 0 Z" class="C2"/><path d="M 283563 444778 l 0 84100" class="C1"/><path d="M 206169 444778 l 0 84100" class="C1"/><path d="M 280586 444778 l 14 292 43 289 71 283 98 275 125 264 150 251 174 235 196 216 216 196 235 174 251 150 264 125 275 98 283 71 289 43 292 14 292 -14 289 -43 283 -71 275 -98 264 -125 251 -150 235 -174 216 -196 196 -216 174 -235 150 -251 125 -264 98 -275 71 -283 43 -289 14 -292 -2977 0 Z" class="C2"/><path d="M 286540 444778 l -14 -292 -43 -289 -71 -283 -98 -275 -125 -264 -150 -251 -174 -235 -196 -216 -216 -196 -235 -174 -251 -150 -264 -125 -275 -98 -283 -71 -289 -43 -292 -14 -292 14 -289 43 -283 71 -275 98 -264 125 -251 150 -235 174 -216 196 -196 216 -174 235 -150 251 -125 264 -98 275 -71 283 -43 289 -14 292 2977 0 Z" class="C2"/><path d="M 203193 444778 l 14 292 43 289 71 283 98 275 125 264 150 251 174 235 196 216 216 196 235 174 251 150 264 125 275 98 283 71 289 43 292 14 292 -14 289 -43 283 -71 275 -98 264 -125 251 -150 235 -174 216 -196 196 -216 174 -235 150 -251 125 -264 98 -275 71 -283 43 -289 14 -292 -2977 0 Z" class="C2"/><path d="M 209146 444778 l -14 -292 -43 -289 -71 -283 -98 -275 -125 -264 -150 -251 -174 -235 -196 -216 -216 -196 -235 -174 -251 -150 -264 -125 -275 -98 -283 -71 -289 -43 -292 -14 -292 14 -289 43 -283 71 -275 98 -264 125 -251 150 -235 174 -216 196 -196 216 -174 235 -150 251 -125 264 -98 275 -71 283 -43 289 -14 292 2977 0 Z" class="C2"/><path d="M 101843 403105 l 0 125773" class="C1"/><path d="M 426443 393183 l 0 135695" class="C1"/><path d="M 101843 528878 l 31726 0" class="C1"/><path d="M 206169 528878 l 18260 0" class="C1"/><path d="M 283563 528878 l 51003 0" class="C1"/><path d="M 174443 528878 c 0 11287 -9150 20437 -20437 20437 c -11287 0 -20437 -9150 -20437 -20437 c 0 -11287 9150 -20437 20437 -20437 c 11287 0 20437 9150 20437 20437" class="C1"/><path d="M 174443 528878 l 31726 0" class="C1"/><path d="M 163290 528957 l 7996 0" class="C1"/><path d="M 167354 525160 l 0 7857" class="C1"/><path d="M 136288 528957 l 7996 0" class="C1"/><path d="M 254150 528957 l 7996 0" class="C1"/><path d="M 265303 528878 c 0 11287 -9150 20437 -20437 20437 c -11287 0 -20437 -9150 -20437 -20437 c 0 -11287 9150 -20437 20437 -20437 c 11287 0 20437 9150 20437 20437" class="C1"/><path d="M 227148 528957 l 7996 0" class="C1"/><path d="M 258214 525160 l 0 7857" class="C1"/><path d="M 345719 528957 l -7996 0" class="C1"/><path d="M 375440 528878 c 0 11287 -9150 20437 -20437 20437 c -11287 0 -20437 -9150 -20437 -20437 c 0 -11287 9150 -20437 20437 -20437 c 11287 0 20437 9150 20437 20437" class="C1"/><path d="M 372721 528957 l -7996 0" class="C1"/><path d="M 341656 525160 l 0 7857" class="C1"/><path d="M 265303 528878 l 18260 0" class="C1"/><path d="M 375440 528878 l 51003 0" class="C1"/><path d="M 280586 528878 l 14 292 43 289 71 283 98 275 125 264 150 251 174 235 196 216 216 196 235 174 251 150 264 125 275 98 283 71 289 43 292 14 292 -14 289 -43 283 -71 275 -98 264 -125 251 -150 235 -174 216 -196 196 -216 174 -235 150 -251 125 -264 98 -275 71 -283 43 -289 14 -292 -2977 0 Z" class="C2"/><path d="M 286540 528878 l -14 -292 -43 -289 -71 -283 -98 -275 -125 -264 -150 -251 -174 -235 -196 -216 -216 -196 -235 -174 -251 -150 -264 -125 -275 -98 -283 -71 -289 -43 -292 -14 -292 14 -289 43 -283 71 -275 98 -264 125 -251 150 -235 174 -216 196 -196 216 -174 235 -150 251 -125 264 -98 275 -71 283 -43 289 -14 292 2977 0 Z" class="C2"/><path d="M 203193 528878 l 14 292 43 289 71 283 98 275 125 264 150 251 174 235 196 216 216 196 235 174 251 150 264 125 275 98 283 71 289 43 292 14 292 -14 289 -43 283 -71 275 -98 264 -125 251 -150 235 -174 216 -196 196 -216 174 -235 150 -251 125 -264 98 -275 71 -283 43 -289 14 -292 -2977 0 Z" class="C2"/><path d="M 209146 528878 l -14 -292 -43 -289 -71 -283 -98 -275 -125 -264 -150 -251 -174 -235 -196 -216 -216 -196 -235 -174 -251 -150 -264 -125 -275 -98 -283 -71 -289 -43 -292 -14 -292 14 -289 43 -283 71 -275 98 -264 125 -251 150 -235 174 -216 196 -196 216 -174 235 -150 251 -125 264 -98 275 -71 283 -43 289 -14 292 2977 0 Z" class="C2"/><path d="M 98866 403105 l 14 292 43 289 71 283 98 275 125 264 150 251 174 235 196 216 216 196 235 174 251 150 264 125 275 98 283 71 289 43 292 14 292 -14 289 -43 283 -71 275 -98 264 -125 251 -150 235 -174 216 -196 196 -216 174 -235 150 -251 125 -264 98 -275 71 -283 43 -289 14 -292 -2977 0 Z" class="C2"/><path d="M 104819 403105 l -14 -292 -43 -289 -71 -283 -98 -275 -125 -264 -150 -251 -174 -235 -196 -216 -216 -196 -235 -174 -251 -150 -264 -125 -275 -98 -283 -71 -289 -43 -292 -14 -292 14 -289 43 -283 71 -275 98 -264 125 -251 150 -235 174 -216 196 -196 216 -174 235 -150 251 -125 264 -98 275 -71 283 -43 289 -14 292 2977 0 Z" class="C2"/><path d="M 41139 374846 l 7996 0" class="C1"/><path d="M 52292 374767 c -0 11287 -9150 20437 -20437 20437 c -11287 0 -20437 -9150 -20437 -20437 c 0 -11287 9150 -20437 20437 -20437 c 11287 0 20437 9150 20437 20437" class="C1"/><path d="M 14137 374846 l 7996 0" class="C1"/><path d="M 45202 371049 l 0 7857" class="C1"/><path d="M 65273 383260 l -12997 -7705" class="C1"/><path d="M 65273 403105 l -65223 -175" class="C1"/><path d="M 50 402930 l 783 -24251" class="C1"/><path d="M 833 378679 l 10585 -4096" class="C1"/></g></svg>