<?xml version='1.0' encoding='utf-8'?>
<svg xmlns="http://www.w3.org/2000/svg" width="200.0mm" height="78.9mm" viewBox="47612 -14685 396493 156374"><defs><style>.C1 {stroke: #000000; stroke-width: 496; stroke-opacity: 1.000; fill: none; fill-opacity: 1.000;}</style><style>.C2 {stroke: none; stroke-width: none; stroke-opacity: 1.000; fill: #000000; fill-opacity: 1.000;}</style></defs><rect fill="#ffffff" x="47612" y="-14685" width="396493" height="156374" fill-opacity="1.0" /><g stroke-linecap="round" stroke-linejoin="round"><path d="M 170449 53580 l -105176 0" class="C1" /><path d="M 170449 73425 l -105176 0" class="C1" /><path d="M 170449 53580 l 7938 1984" class="C1" /><path d="M 178387 55565 l -7938 1984" class="C1" /><path d="M 170449 57549 l 7938 1984" class="C1" /><path d="M 178387 59534 l -7938 1984" class="C1" /><path d="M 170449 61518 l 7938 1984" class="C1" /><path d="M 178387 63502 l -7938 1984" class="C1" /><path d="M 170449 65487 l 7938 1984" class="C1" /><path d="M 178387 67471 l -7938 1984" class="C1" /><path d="M 170449 69456 l 7938 1984" class="C1" /><path d="M 178387 71440 l -7938 1984" class="C1" /><path d="M 206169 11907 l 0 4763 m 0 7144 l 0 4763 m 0 7144 l 0 4763 m 0 7144 l 0 4763 m 0 7144 l 0 4763 m 0 7144 l 0 4763 m 0 7144 l 0 4763 m 0 7144 l 0 4763 m 0 7144 l 0 4763" class="C1" /><path d="M 283563 11907 l 0 4763 m 0 7144 l 0 4763 m 0 7144 l 0 4763 m 0 7144 l 0 4763 m 0 7144 l 0 4763 m 0 7144 l 0 4763 m 0 7144 l 0 4763 m 0 7144 l 0 4763 m 0 7144 l 0 4763" class="C1" /><path d="M 426443 63502 l -115098 0" class="C1" /><path d="M 311345 37705 l 0 51596" class="C1" /><path d="M 423467 63502 l 14 292 43 289 71 283 98 275 125 264 150 251 174 235 196 216 216 196 235 174 251 150 264 125 275 98 283 71 289 43 292 14 292 -14 289 -43 283 -71 275 -98 264 -125 251 -150 235 -174 216 -196 196 -216 174 -235 150 -251 125 -264 98 -275 71 -283 43 -289 14 -292 -2977 0 Z" class="C2" /><path d="M 429420 63502 l -14 -292 -43 -289 -71 -283 -98 -275 -125 -264 -150 -251 -174 -235 -196 -216 -216 -196 -235 -174 -251 -150 -264 -125 -275 -98 -283 -71 -289 -43 -292 -14 -292 14 -289 43 -283 71 -275 98 -264 125 -251 150 -235 174 -216 196 -196 216 -174 235 -150 251 -125 264 -98 275 -71 283 -43 289 -14 292 2977 0 Z" class="C2" /><path d="M 62297 53580 l 14 292 43 289 71 283 98 275 125 264 150 251 174 235 196 216 216 196 235 174 251 150 264 125 275 98 283 71 289 43 292 14 292 -14 289 -43 283 -71 275 -98 264 -125 251 -150 235 -174 216 -196 196 -216 174 -235 150 -251 125 -264 98 -275 71 -283 43 -289 14 -292 -2977 0 Z" class="C2" /><path d="M 68250 53580 l -14 -292 -43 -289 -71 -283 -98 -275 -125 -264 -150 -251 -174 -235 -196 -216 -216 -196 -235 -174 -251 -150 -264 -125 -275 -98 -283 -71 -289 -43 -292 -14 -292 14 -289 43 -283 71 -275 98 -264 125 -251 150 -235 174 -216 196 -196 216 -174 235 -150 251 -125 264 -98 275 -71 283 -43 289 -14 292 2977 0 Z" class="C2" /><path d="M 62297 73425 l 14 292 43 289 71 283 98 275 125 264 150 251 174 235 196 216 216 196 235 174 251 150 264 125 275 98 283 71 289 43 292 14 292 -14 289 -43 283 -71 275 -98 264 -125 251 -150 235 -174 216 -196 196 -216 174 -235 150 -251 125 -264 98 -275 71 -283 43 -289 14 -292 -2977 0 Z" class="C2" /><path d="M 68250 73425 l -14 -292 -43 -289 -71 -283 -98 -275 -125 -264 -150 -251 -174 -235 -196 -216 -216 -196 -235 -174 -251 -150 -264 -125 -275 -98 -283 -71 -289 -43 -292 -14 -292 14 -289 43 -283 71 -275 98 -264 125 -251 150 -235 174 -216 196 -196 216 -174 235 -150 251 -125 264 -98 275 -71 283 -43 289 -14 292 2977 0 Z" class="C2" /><path d="M 304202 119961 l 0 0 m 27193 -20866 l 0 0 m 25993 -19945 l 0 0 m -104762 40563 l 0 0 m 25993 -19945 l 0 0 m 24313 -18656 l 0 0 m 27193 -20866 l 0 0 m 25993 -19945 l 0 0 m -156268 80085 l 0 0 m 24313 -18656 l 0 0 m 27193 -20866 l 0 0 m 25993 -19945 l 0 0 m 24313 -18656 l 0 0 m 27193 -20866 l 0 0 m -156268 80085 l 0 0 m 25993 -19945 l 0 0 m 24313 -18656 l 0 0 m 27193 -20866 l 0 0 m 25993 -19945 l 0 0 m 24313 -18656 l 0 0 m -156268 80085 l 0 0 m 27193 -20866 l 0 0 m 25993 -19945 l 0 0 m 24313 -18656 l 0 0 m 27193 -20866 l 0 0 m -105961 41484 l 0 0 m 27193 -20866 l 0 0 m 25993 -19945 l 0 0 m -6271 122244 l 0 0 m 10495 -1382 l 0 0 m 16391 -2158 l 0 0 m 27386 -3605 l 0 0 m 10495 -1382 l 0 0 m 16391 -2158 l 0 0 m 27386 -3605 l 0 0 m 10495 -1382 l 0 0 m 16391 -2158 l 0 0 m 27386 -3605 l 0 0 m -225181 -22557 l 0 0 m 16391 -2158 l 0 0 m 27386 -3605 l 0 0 m 10495 -1382 l 0 0 m 16391 -2158 l 0 0 m 27386 -3605 l 0 0 m 10495 -1382 l 0 0 m 16391 -2158 l 0 0 m 27386 -3605 l 0 0 m 10495 -1382 l 0 0 m 16391 -2158 l 0 0 m 27386 -3605 l 0 0 m 10495 -1382 l 0 0 m 16391 -2158 l 0 0 m -208290 -24781 l 0 0 m 10495 -1382 l 0 0 m 16391 -2158 l 0 0 m 27386 -3605 l 0 0 m 10495 -1382 l 0 0 m 16391 -2158 l 0 0 m 27386 -3605 l 0 0 m 10495 -1382 l 0 0 m 16391 -2158 l 0 0 m 27386 -3605 l 0 0 m 10495 -1382 l 0 0 m -152095 3172 l 0 0 m 8502 5417 l 0 0 m 30608 19499 l 0 0 m 39961 25458 l 0 0 m 8502 5417 l 0 0 m 30608 19499 l 0 0 m 39961 25458 l 0 0 m 8502 5417 l 0 0 m -103856 -106278 l 0 0 m 8502 5417 l 0 0 m 30608 19499 l 0 0 m 39961 25458 l 0 0 m 8502 5417 l 0 0 m 30608 19499 l 0 0 m -55394 -75404 l 0 0 m 8502 5417 l 0 0 m 30608 19499 l 0 0 m -211190 25914 l 0 0 m 8502 5417 l 0 0 m 30608 19499 l 0 0 m 39961 25458 l 0 0 m 8502 5417 l 0 0 m -64746 -81362 l 0 0 m 39961 25458 l 0 0 m 8502 5417 l 0 0 m 30608 19499 l 0 0 m 39961 25458 l 0 0 m 8502 5417 l 0 0 m -134077 -5188 l 0 0 m 8502 5417 l 0 0 m 69424 -109357 l 0 0 m 20068 18389 l 0 0 m 3716 3405 l 0 0 m 17541 16073 l 0 0 m 20068 18389 l 0 0 m 3716 3405 l 0 0 m 17541 16073 l 0 0 m 20068 18389 l 0 0 m 3716 3405 l 0 0 m -25756 -96835 l 0 0 m 3716 3405 l 0 0 m 17541 16073 l 0 0 m 20068 18389 l 0 0 m 3716 3405 l 0 0 m 17541 16073 l 0 0 m -240694 -853 l 0 0 m 17541 16073 l 0 0 m 20068 18389 l 0 0 m 3716 3405 l 0 0 m 17541 16073 l 0 0 m -22040 -93430 l 0 0 m 20068 18389 l 0 0 m 3716 3405 l 0 0 m 17541 16073 l 0 0 m 20068 18389 l 0 0 m 3716 3405 l 0 0 m 17541 16073 l 0 0 m 20068 18389 l 0 0 m 3716 3405 l 0 0" class="C1" /><path d="M 184340 -0 l 121052 0 c 35071 0 63502 28431 63502 63502 c 0 35071 -28431 63502 -63502 63502 l -121052 0 c -35071 0 -63502 -28431 -63502 -63502 c 0 -35071 28431 -63502 63502 -63502" class="C1" /><path d="M 184340 967 l 121052 0 c 34537 0 62535 27998 62535 62535 c 0 34537 -27998 62535 -62535 62535 l -121052 0 c -34537 0 -62535 -27998 -62535 -62535 c 0 -34537 27998 -62535 62535 -62535" class="C1" /><path d="M 184340 1934 l 121052 0 c 34003 0 61568 27565 61568 61568 c 0 34003 -27565 61568 -61568 61568 l -121052 0 c -34003 0 -61568 -27565 -61568 -61568 c 0 -34003 27565 -61568 61568 -61568" class="C1" /><path d="M 312312 37705 l 0 51596" class="C1" /><path d="M 310378 37705 l 0 51596" class="C1" /><path d="M 284530 11907 l 0 4763 m 0 7144 l 0 4763 m 0 7144 l 0 4763 m 0 7144 l 0 4763 m 0 7144 l 0 4763 m 0 7144 l 0 4763 m 0 7144 l 0 4763 m 0 7144 l 0 4763 m 0 7144 l 0 4763" class="C1" /><path d="M 282596 11907 l 0 4763 m 0 7144 l 0 4763 m 0 7144 l 0 4763 m 0 7144 l 0 4763 m 0 7144 l 0 4763 m 0 7144 l 0 4763 m 0 7144 l 0 4763 m 0 7144 l 0 4763 m 0 7144 l 0 4763" class="C1" /><path d="M 207136 11907 l 0 4763 m 0 7144 l 0 4763 m 0 7144 l 0 4763 m 0 7144 l 0 4763 m 0 7144 l 0 4763 m 0 7144 l 0 4763 m 0 7144 l 0 4763 m 0 7144 l 0 4763 m 0 7144 l 0 4763" class="C1" /><path d="M 205202 11907 l 0 4763 m 0 7144 l 0 4763 m 0 7144 l 0 4763 m 0 7144 l 0 4763 m 0 7144 l 0 4763 m 0 7144 l 0 4763 m 0 7144 l 0 4763 m 0 7144 l 0 4763 m 0 7144 l 0 4763" class="C1" /></g></svg>
