<?xml version='1.0' encoding='utf-8'?>
<svg xmlns="http://www.w3.org/2000/svg" width="229.5mm" height="96.5mm" viewBox="0 0 1000000 420479"><defs><style>.C1 {stroke: #000000; stroke-width: 1089; stroke-opacity: 1.000; fill: none; fill-opacity: 1.000;}</style></defs><rect fill="#ffffff" x="0" y="0" width="1000000" height="420479" fill-opacity="1.0" /><g stroke-linecap="round" stroke-linejoin="round" fill-rule="evenodd"><path d="M 66204 10096 l 0 326734" class="C1" /><path d="M 131551 75443 l 0 196041" class="C1" /><path d="M 262245 75443 l 0 10891" class="C1" /><path d="M 371156 10096 l 0 76238" class="C1" /><path d="M 66204 336831 l 304952 0" class="C1" /><path d="M 131551 271484 l 130694 0" class="C1" /><path d="M 131551 75443 l 130694 0" class="C1" /><path d="M 66204 10096 l 304952 0" class="C1" /><path d="M 262245 178128 c 6946 24314 29169 41078 54456 41078 c 25287 0 47510 -16764 54456 -41078" class="C1" /><path d="M 309170 166955 c 1560 2681 4428 4330 7530 4330 c 3102 0 5970 -1649 7530 -4330" class="C1" /><path d="M 262245 178128 l 0 93356" class="C1" /><path d="M 371156 178128 l 0 158703" class="C1" /><path d="M 262245 86334 l 46926 80621" class="C1" /><path d="M 371156 86334 l -46926 80621" class="C1" /><path d="M 131551 119008 c 6015 0 10891 -4876 10891 -10891 c 0 -6015 -4876 -10891 -10891 -10891" class="C1" /><path d="M 66204 119008 c -6015 0 -10891 4876 -10891 10891 c 0 6015 4876 10891 10891 10891" class="C1" /><path d="M 66204 140790 l 65347 0" class="C1" /><path d="M 66204 162572 c -6015 0 -10891 4876 -10891 10891 c 0 6015 4876 10891 10891 10891" class="C1" /><path d="M 131551 162572 c 6015 0 10891 -4876 10891 -10891 c 0 -6015 -4876 -10891 -10891 -10891" class="C1" /><path d="M 66204 184354 l 65347 0" class="C1" /><path d="M 66204 206137 c -6015 0 -10891 4876 -10891 10891 c 0 6015 4876 10891 10891 10891" class="C1" /><path d="M 131551 206137 c 6015 0 10891 -4876 10891 -10891 c 0 -6015 -4876 -10891 -10891 -10891" class="C1" /><path d="M 66204 227919 l 65347 0" class="C1" /><path d="M 131551 249701 c 6015 0 10891 -4876 10891 -10891 c 0 -6015 -4876 -10891 -10891 -10891" class="C1" /><path d="M 66204 249701 l -66204 -0" class="C1" /><path d="M 131551 97225 l -129227 0" class="C1" /><path d="M 754641 169925 l -46926 80621" class="C1" /><path d="M 449688 420421 l 304952 0" class="C1" /><path d="M 645729 261719 c 6946 24314 29169 41078 54456 41078 c 25287 0 47510 -16764 54456 -41078" class="C1" /><path d="M 449688 93687 l 304952 0" class="C1" /><path d="M 515035 159034 l 0 196041" class="C1" /><path d="M 449688 93687 l 0 326734" class="C1" /><path d="M 645729 261719 l 0 93356" class="C1" /><path d="M 515035 355075 l 130694 0" class="C1" /><path d="M 515035 159034 l 130694 0" class="C1" /><path d="M 645729 169925 l 46926 80621" class="C1" /><path d="M 692655 250546 c 1560 2681 4428 4330 7530 4330 c 3102 0 5970 -1649 7530 -4330" class="C1" /><path d="M 645729 159034 l 0 10891" class="C1" /><path d="M 754641 261719 l 0 158703" class="C1" /><path d="M 1000000 58 l 0 48792" class="C1" /><path d="M 1000000 107598 l 0 101570" class="C1" /><path d="M 936866 120312 c 5534 6904 13401 11545 22120 13049" class="C1" /><path d="M 1000000 48850 l -30032 51597" class="C1" /><path d="M 967925 102478 c 847 -486 1551 -1187 2043 -2031" class="C1" /><path d="M 804831 58 l 195169 0" class="C1" /><path d="M 754641 169925 l 0 -76238" class="C1" /><path d="M 645729 281089 l -130694 73986" class="C1" /><path d="M 754641 261719 l 245359 -154121" class="C1" /><path d="M 704523 253719 l 263402 -151241" class="C1" /><path d="M 645729 261719 l 40623 -22001" class="C1" /><path d="M 754641 169925 l 245359 -121075" class="C1" /><path d="M 754641 93687 l 245359 -93629" class="C1" /><path d="M 754641 420421 l 245359 -211254" class="C1" /><path d="M 449688 93687 l 355142 -93629" class="C1" /><path d="M 47537 96860 l -15752 -4496" class="C1" /><path d="M 47537 97235 l -15377 4871" class="C1" /><path d="M 310484 168677 l -34189 33579" class="C1" /><path d="M 312959 170441 l -20576 43279" class="C1" /><path d="M 316113 171265 l -3229 47812" class="C1" /><path d="M 319329 170879 l 14460 45687" class="C1" /><path d="M 322423 169142 l 31475 36135" class="C1" /><path d="M 288432 190336 l 3114 -5825" class="C1" /><path d="M 288432 190336 l 6693 -3144" class="C1" /><path d="M 300809 195998 l 1175 -5230" class="C1" /><path d="M 300809 195998 l 5052 -4336" class="C1" /><path d="M 314210 199449 l -1490 -5999" class="C1" /><path d="M 314210 199449 l 2387 -6297" class="C1" /><path d="M 327522 196762 l -3468 -6292" class="C1" /><path d="M 327522 196762 l 110 -7186" class="C1" /><path d="M 339089 188276 l -4598 -2871" class="C1" /><path d="M 339089 188276 l -1616 -6447" class="C1" /></g></svg>