<?xml version="1.0" encoding="UTF-8"?>
<!DOCTYPE svg PUBLIC "-//W3C//DTD SVG 1.1//EN" "http://www.w3.org/Graphics/SVG/1.1/DTD/svg11.dtd">
<svg version="1.2" width="66.720mm" height="50.800mm" viewBox="7459 11430 6672 5080" preserveAspectRatio="xMidYMid" fill-rule="evenodd" stroke-width="28.222" stroke-linejoin="round" xmlns="http://www.w3.org/2000/svg" xmlns:ooo="http://xml.openoffice.org/svg/export" xmlns:xlink="http://www.w3.org/1999/xlink" xmlns:presentation="http://sun.com/xmlns/staroffice/presentation" xmlns:smil="http://www.w3.org/2001/SMIL20/" xmlns:anim="urn:oasis:names:tc:opendocument:xmlns:animation:1.0" xmlns:svg="urn:oasis:names:tc:opendocument:xmlns:svg-compatible:1.0" xml:space="preserve">
 <defs class="ClipPathGroup">
  <clipPath id="presentation_clip_path" clipPathUnits="userSpaceOnUse">
   <rect x="0" y="0" width="21590" height="27940"/>
  </clipPath>
  <clipPath id="presentation_clip_path_shrink" clipPathUnits="userSpaceOnUse">
   <rect x="21" y="27" width="21547" height="27885"/>
  </clipPath>
 </defs>
 <defs class="TextShapeIndex">
  <g ooo:slide="id1" ooo:id-list="id3"/>
 </defs>
 <defs class="EmbeddedBulletChars">
  <g id="bullet-char-template-57356" transform="scale(0.00048828125,-0.00048828125)">
   <path d="M 580,1141 L 1163,571 580,0 -4,571 580,1141 Z"/>
  </g>
  <g id="bullet-char-template-57354" transform="scale(0.00048828125,-0.00048828125)">
   <path d="M 8,1128 L 1137,1128 1137,0 8,0 8,1128 Z"/>
  </g>
  <g id="bullet-char-template-10146" transform="scale(0.00048828125,-0.00048828125)">
   <path d="M 174,0 L 602,739 174,1481 1456,739 174,0 Z M 1358,739 L 309,1346 659,739 1358,739 Z"/>
  </g>
  <g id="bullet-char-template-10132" transform="scale(0.00048828125,-0.00048828125)">
   <path d="M 2015,739 L 1276,0 717,0 1260,543 174,543 174,936 1260,936 717,1481 1274,1481 2015,739 Z"/>
  </g>
  <g id="bullet-char-template-10007" transform="scale(0.00048828125,-0.00048828125)">
   <path d="M 0,-2 C -7,14 -16,27 -25,37 L 356,567 C 262,823 215,952 215,954 215,979 228,992 255,992 264,992 276,990 289,987 310,991 331,999 354,1012 L 381,999 492,748 772,1049 836,1024 860,1049 C 881,1039 901,1025 922,1006 886,937 835,863 770,784 769,783 710,716 594,584 L 774,223 C 774,196 753,168 711,139 L 727,119 C 717,90 699,76 672,76 641,76 570,178 457,381 L 164,-76 C 142,-110 111,-127 72,-127 30,-127 9,-110 8,-76 1,-67 -2,-52 -2,-32 -2,-23 -1,-13 0,-2 Z"/>
  </g>
  <g id="bullet-char-template-10004" transform="scale(0.00048828125,-0.00048828125)">
   <path d="M 285,-33 C 182,-33 111,30 74,156 52,228 41,333 41,471 41,549 55,616 82,672 116,743 169,778 240,778 293,778 328,747 346,684 L 369,508 C 377,444 397,411 428,410 L 1163,1116 C 1174,1127 1196,1133 1229,1133 1271,1133 1292,1118 1292,1087 L 1292,965 C 1292,929 1282,901 1262,881 L 442,47 C 390,-6 338,-33 285,-33 Z"/>
  </g>
  <g id="bullet-char-template-9679" transform="scale(0.00048828125,-0.00048828125)">
   <path d="M 813,0 C 632,0 489,54 383,161 276,268 223,411 223,592 223,773 276,916 383,1023 489,1130 632,1184 813,1184 992,1184 1136,1130 1245,1023 1353,916 1407,772 1407,592 1407,412 1353,268 1245,161 1136,54 992,0 813,0 Z"/>
  </g>
  <g id="bullet-char-template-8226" transform="scale(0.00048828125,-0.00048828125)">
   <path d="M 346,457 C 273,457 209,483 155,535 101,586 74,649 74,723 74,796 101,859 155,911 209,963 273,989 346,989 419,989 480,963 531,910 582,859 608,796 608,723 608,648 583,586 532,535 482,483 420,457 346,457 Z"/>
  </g>
  <g id="bullet-char-template-8211" transform="scale(0.00048828125,-0.00048828125)">
   <path d="M -4,459 L 1135,459 1135,606 -4,606 -4,459 Z"/>
  </g>
  <g id="bullet-char-template-61548" transform="scale(0.00048828125,-0.00048828125)">
   <path d="M 173,740 C 173,903 231,1043 346,1159 462,1274 601,1332 765,1332 928,1332 1067,1274 1183,1159 1299,1043 1357,903 1357,740 1357,577 1299,437 1183,322 1067,206 928,148 765,148 601,148 462,206 346,322 231,437 173,577 173,740 Z"/>
  </g>
 </defs>
 <g>
  <g id="id2" class="Master_Slide">
   <g id="bg-id2" class="Background"/>
   <g id="bo-id2" class="BackgroundObjects"/>
  </g>
 </g>
 <g class="SlideGroup">
  <g>
   <g id="container-id1">
    <g id="id1" class="Slide" clip-path="url(#presentation_clip_path)">
     <g class="Page">
      <g class="Graphic">
       <g id="id3">
        <rect class="BoundingBox" stroke="none" fill="none" x="7459" y="11430" width="6672" height="5080"/>
        <defs>
         <clipPath id="clip_path_1" clipPathUnits="userSpaceOnUse">
          <path d="M 7459,11430 L 14130,11430 14130,16509 7459,16509 7459,11430 Z "/>
         </clipPath>
        </defs>
        <g clip-path="url(#clip_path_1)">
         <path fill="rgb(255,255,255)" stroke="none" d="M 7493,11455 L 14105,11455 14105,16475 7493,16475 7493,11455 Z "/>
         <path fill="none" stroke="rgb(255,255,255)" stroke-width="51" stroke-linejoin="round" stroke-linecap="round" d="M 7493,11455 L 14105,11455 14105,16475 7493,16475 7493,11455 Z "/>
         <path fill="rgb(0,0,0)" stroke="none" d="M 8399,13242 L 8348,13242 8348,13606 8399,13606 8399,13242 Z "/>
         <path fill="rgb(0,0,0)" stroke="none" d="M 9246,16417 L 9296,16417 9296,15401 9246,15401 9246,16417 Z "/>
         <path fill="rgb(0,0,0)" stroke="none" d="M 8738,14791 L 8687,14800 8695,14825 8704,14834 8721,14859 8738,14884 8754,14910 8754,14910 8771,14927 8780,14927 8780,14935 8805,14952 8805,14952 8822,14961 8831,14961 8856,14969 8856,14944 8848,14969 8865,14978 8873,14978 8873,14978 8881,14978 8898,14969 8915,14961 8915,14952 8924,14952 8932,14944 8949,14927 8915,14893 8898,14910 8890,14918 8907,14935 8898,14910 8881,14918 8865,14927 8873,14927 8873,14927 8873,14952 8881,14927 8865,14918 8865,14918 8839,14910 8831,14935 8839,14910 8822,14901 8814,14927 8831,14910 8805,14893 8788,14910 8805,14893 8788,14876 8771,14893 8797,14884 8780,14859 8763,14834 8746,14808 8721,14817 8746,14817 8738,14791 Z "/>
         <path fill="rgb(0,0,0)" stroke="none" d="M 8399,14876 L 8348,14893 8407,15020 8416,15028 8492,15138 8568,15240 8568,15240 8661,15333 8670,15342 8763,15418 8763,15418 8856,15469 8865,15469 8966,15502 9051,15519 9051,15519 9135,15511 9144,15511 9212,15477 9220,15477 9288,15426 9262,15384 9195,15435 9203,15452 9195,15426 9127,15460 9135,15486 9135,15460 9051,15469 9051,15494 9059,15469 8975,15452 8873,15418 8865,15443 8873,15426 8780,15375 8771,15392 8788,15375 8695,15299 8678,15316 8695,15299 8602,15206 8585,15223 8611,15215 8534,15113 8458,15003 8433,15011 8458,15003 8399,14876 Z "/>
         <path fill="rgb(0,0,0)" stroke="none" d="M 9246,14122 L 9296,14122 9296,13758 9246,13758 9246,14122 Z "/>
         <path fill="rgb(0,0,0)" stroke="none" d="M 8399,14884 L 8348,14884 8348,15909 8399,15909 8399,14884 Z "/>
         <path fill="rgb(0,0,0)" stroke="none" d="M 8399,13606 L 8348,13614 8687,14800 8738,14791 8399,13606 Z "/>
         <path fill="rgb(0,0,0)" stroke="none" d="M 9296,14131 L 9246,14114 8907,14901 8958,14918 9296,14131 Z "/>
         <path fill="rgb(0,0,0)" stroke="none" d="M 9262,15384 L 9279,15426 12869,13352 12852,13310 9262,15384 Z "/>
         <path fill="rgb(0,0,0)" stroke="none" d="M 12141,13064 L 12107,13098 12201,13200 12302,13293 12311,13301 12412,13369 12412,13369 12514,13420 12522,13420 12522,13420 12624,13437 12624,13437 12709,13437 12709,13386 12624,13386 12624,13411 12632,13386 12531,13369 12522,13394 12531,13369 12429,13318 12421,13343 12438,13327 12336,13259 12319,13276 12336,13259 12234,13166 12141,13064 Z "/>
         <path fill="rgb(0,0,0)" stroke="none" d="M 12886,12048 L 12836,12031 12497,12827 12548,12844 12886,12048 Z "/>
         <path fill="rgb(0,0,0)" stroke="none" d="M 12480,12844 L 12514,12878 12522,12869 12531,12861 12539,12852 12505,12819 12497,12827 12488,12835 12480,12844 Z "/>
         <path fill="rgb(0,0,0)" stroke="none" d="M 12836,14343 L 12886,14343 12886,13327 12836,13327 12836,14343 Z "/>
         <path fill="rgb(0,0,0)" stroke="none" d="M 12836,12040 L 12886,12040 12886,11684 12836,11684 12836,12040 Z "/>
         <path fill="rgb(0,0,0)" stroke="none" d="M 8086,15613 L 8102,15655 8323,15528 8306,15486 8086,15613 Z "/>
         <path fill="rgb(0,0,0)" stroke="none" d="M 8373,15443 L 8390,15486 8661,15325 8644,15282 8373,15443 Z "/>
         <path fill="rgb(0,0,0)" stroke="none" d="M 8712,15248 L 8729,15291 9000,15130 8983,15088 8712,15248 Z "/>
         <path fill="rgb(0,0,0)" stroke="none" d="M 9051,15054 L 9068,15096 9339,14935 9322,14893 9051,15054 Z "/>
         <path fill="rgb(0,0,0)" stroke="none" d="M 9389,14851 L 9406,14893 9677,14740 9660,14698 9389,14851 Z "/>
         <path fill="rgb(0,0,0)" stroke="none" d="M 9728,14656 L 9745,14698 10016,14546 9999,14503 9728,14656 Z "/>
         <path fill="rgb(0,0,0)" stroke="none" d="M 10067,14461 L 10084,14503 10355,14351 10338,14309 10067,14461 Z "/>
         <path fill="rgb(0,0,0)" stroke="none" d="M 10406,14266 L 10422,14309 10693,14156 10676,14114 10406,14266 Z "/>
         <path fill="rgb(0,0,0)" stroke="none" d="M 10744,14072 L 10761,14114 11032,13962 11015,13919 10744,14072 Z "/>
         <path fill="rgb(0,0,0)" stroke="none" d="M 11083,13877 L 11100,13919 11371,13758 11354,13716 11083,13877 Z "/>
         <path fill="rgb(0,0,0)" stroke="none" d="M 11422,13682 L 11438,13724 11709,13564 11693,13521 11422,13682 Z "/>
         <path fill="rgb(0,0,0)" stroke="none" d="M 11760,13487 L 11777,13530 12048,13369 12031,13327 11760,13487 Z "/>
         <path fill="rgb(0,0,0)" stroke="none" d="M 12099,13284 L 12116,13327 12387,13174 12370,13132 12099,13284 Z "/>
         <path fill="rgb(0,0,0)" stroke="none" d="M 12438,13089 L 12455,13132 12725,12979 12709,12937 12438,13089 Z "/>
         <path fill="rgb(0,0,0)" stroke="none" d="M 12776,12895 L 12793,12937 13064,12785 13047,12742 12776,12895 Z "/>
         <path fill="rgb(0,0,0)" stroke="none" d="M 13123,12700 L 13140,12742 13403,12590 13386,12548 13123,12700 Z "/>
         <path fill="rgb(0,0,0)" stroke="none" d="M 13462,12505 L 13479,12548 13699,12421 13682,12378 13462,12505 Z "/>
         <path fill="rgb(0,0,0)" stroke="none" d="M 8890,14927 L 8907,14969 12505,12886 12488,12844 8890,14927 Z "/>
         <path fill="rgb(0,0,0)" stroke="none" d="M 8695,14732 L 8678,14690 8365,14867 8382,14910 8695,14732 Z "/>
         <path fill="rgb(0,0,0)" stroke="none" d="M 8086,15613 L 8102,15655 9821,14622 11362,13657 11371,13657 13708,12133 13682,12090 11345,13614 11354,13631 11345,13614 9804,14580 8086,15613 Z "/>
         <path fill="rgb(0,0,0)" stroke="none" d="M 8086,15613 L 8102,15655 9821,14707 11286,13919 11278,13894 11286,13919 13682,12776 13665,12725 11269,13868 11269,13877 9804,14664 8086,15613 Z "/>
         <path fill="rgb(0,0,0)" stroke="none" d="M 8102,15655 L 8086,15613 7688,15841 7705,15883 8102,15655 Z "/>
         <path fill="rgb(0,0,0)" stroke="none" d="M 13725,12751 L 13716,12717 13674,12751 13725,12751 Z "/>
         <path fill="none" stroke="rgb(0,0,0)" stroke-width="51" stroke-linejoin="round" stroke-linecap="round" d="M 13725,12751 L 13716,12717 13674,12751 13725,12751 Z "/>
         <path fill="rgb(0,0,0)" stroke="none" d="M 13699,12759 L 13750,12751 13742,12717 13742,12717 13733,12708 13725,12700 13716,12692 13716,12692 13708,12700 13708,12700 13665,12734 13657,12742 13648,12751 13648,12751 13657,12759 13665,12768 13674,12776 13674,12776 13725,12776 13725,12725 13674,12725 13691,12759 13699,12751 13699,12751 13691,12742 13682,12734 13674,12725 13674,12751 13691,12776 13733,12742 13691,12717 13699,12725 13708,12734 13716,12742 13716,12742 13725,12734 13716,12717 13691,12725 13699,12759 Z "/>
         <path fill="rgb(0,0,0)" stroke="none" d="M 13716,12717 L 13674,12700 13674,12751 13716,12717 Z "/>
         <path fill="none" stroke="rgb(0,0,0)" stroke-width="51" stroke-linejoin="round" stroke-linecap="round" d="M 13716,12717 L 13674,12700 13674,12751 13716,12717 Z "/>
         <path fill="rgb(0,0,0)" stroke="none" d="M 13708,12742 L 13725,12692 13682,12675 13674,12675 13674,12675 13665,12683 13657,12692 13648,12700 13648,12700 13648,12751 13648,12751 13657,12759 13665,12768 13674,12776 13674,12776 13682,12768 13691,12776 13733,12742 13708,12700 13665,12734 13699,12751 13691,12742 13682,12734 13674,12725 13674,12725 13665,12734 13674,12751 13699,12751 13699,12700 13674,12725 13674,12725 13682,12717 13691,12708 13699,12700 13674,12700 13665,12725 13708,12742 Z "/>
         <path fill="rgb(0,0,0)" stroke="none" d="M 13674,12700 L 13640,12717 13674,12751 13674,12700 Z "/>
         <path fill="none" stroke="rgb(0,0,0)" stroke-width="51" stroke-linejoin="round" stroke-linecap="round" d="M 13674,12700 L 13640,12717 13674,12751 13674,12700 Z "/>
         <path fill="rgb(0,0,0)" stroke="none" d="M 13682,12725 L 13665,12675 13631,12692 13631,12700 13623,12708 13615,12717 13615,12717 13623,12725 13623,12734 13657,12768 13665,12768 13674,12776 13674,12776 13682,12768 13691,12759 13699,12751 13699,12751 13699,12700 13648,12700 13648,12751 13682,12734 13674,12725 13674,12725 13665,12734 13657,12742 13648,12751 13648,12751 13674,12751 13691,12734 13657,12700 13648,12734 13657,12725 13665,12717 13665,12717 13657,12708 13640,12717 13648,12742 13682,12725 Z "/>
         <path fill="rgb(0,0,0)" stroke="none" d="M 13640,12717 L 13623,12751 13674,12751 13640,12717 Z "/>
         <path fill="none" stroke="rgb(0,0,0)" stroke-width="51" stroke-linejoin="round" stroke-linecap="round" d="M 13640,12717 L 13623,12751 13674,12751 13640,12717 Z "/>
         <path fill="rgb(0,0,0)" stroke="none" d="M 13665,12725 L 13623,12708 13606,12742 13598,12751 13598,12751 13606,12759 13615,12768 13623,12776 13623,12776 13674,12776 13674,12776 13682,12768 13691,12759 13699,12751 13699,12751 13691,12742 13691,12734 13657,12700 13623,12734 13657,12768 13674,12725 13665,12734 13657,12742 13648,12751 13648,12751 13657,12759 13674,12751 13674,12725 13623,12725 13648,12751 13648,12751 13640,12742 13631,12734 13623,12725 13623,12751 13648,12759 13665,12725 Z "/>
         <path fill="rgb(0,0,0)" stroke="none" d="M 13623,12751 L 13640,12785 13674,12751 13623,12751 Z "/>
         <path fill="none" stroke="rgb(0,0,0)" stroke-width="51" stroke-linejoin="round" stroke-linecap="round" d="M 13623,12751 L 13640,12785 13674,12751 13623,12751 Z "/>
         <path fill="rgb(0,0,0)" stroke="none" d="M 13648,12742 L 13606,12759 13623,12793 13623,12793 13631,12802 13640,12810 13640,12810 13648,12802 13657,12802 13691,12768 13691,12759 13699,12751 13699,12751 13691,12742 13682,12734 13674,12725 13674,12725 13623,12725 13623,12776 13674,12776 13657,12742 13648,12751 13648,12751 13657,12759 13665,12768 13674,12776 13674,12751 13657,12734 13623,12768 13657,12776 13648,12768 13640,12759 13640,12759 13631,12768 13640,12785 13665,12776 13648,12742 Z "/>
         <path fill="rgb(0,0,0)" stroke="none" d="M 13640,12785 L 13674,12802 13674,12751 13640,12785 Z "/>
         <path fill="none" stroke="rgb(0,0,0)" stroke-width="51" stroke-linejoin="round" stroke-linecap="round" d="M 13640,12785 L 13674,12802 13674,12751 13640,12785 Z "/>
         <path fill="rgb(0,0,0)" stroke="none" d="M 13648,12759 L 13631,12810 13665,12827 13674,12827 13674,12827 13682,12819 13691,12810 13699,12802 13699,12802 13699,12751 13699,12751 13691,12742 13682,12734 13674,12725 13674,12725 13665,12734 13657,12734 13623,12768 13657,12802 13691,12768 13648,12751 13657,12759 13665,12768 13674,12776 13674,12776 13682,12768 13674,12751 13648,12751 13648,12802 13674,12776 13674,12776 13665,12785 13657,12793 13648,12802 13648,12802 13674,12802 13682,12776 13648,12759 Z "/>
         <path fill="rgb(0,0,0)" stroke="none" d="M 13674,12802 L 13716,12785 13674,12751 13674,12802 Z "/>
         <path fill="none" stroke="rgb(0,0,0)" stroke-width="51" stroke-linejoin="round" stroke-linecap="round" d="M 13674,12802 L 13716,12785 13674,12751 13674,12802 Z "/>
         <path fill="rgb(0,0,0)" stroke="none" d="M 13665,12776 L 13682,12827 13725,12810 13725,12802 13733,12793 13742,12785 13742,12785 13733,12776 13733,12768 13691,12734 13682,12734 13674,12725 13674,12725 13665,12734 13657,12742 13648,12751 13648,12751 13648,12802 13699,12802 13699,12751 13665,12768 13674,12776 13674,12776 13682,12768 13691,12759 13699,12751 13674,12751 13665,12776 13708,12810 13708,12768 13699,12776 13691,12785 13691,12785 13699,12793 13716,12785 13708,12759 13665,12776 Z "/>
         <path fill="rgb(0,0,0)" stroke="none" d="M 13716,12785 L 13725,12751 13674,12751 13716,12785 Z "/>
         <path fill="none" stroke="rgb(0,0,0)" stroke-width="51" stroke-linejoin="round" stroke-linecap="round" d="M 13716,12785 L 13725,12751 13674,12751 13716,12785 Z "/>
         <path fill="rgb(0,0,0)" stroke="none" d="M 13691,12785 L 13742,12793 13750,12759 13750,12751 13750,12751 13742,12742 13733,12734 13725,12725 13725,12725 13674,12725 13674,12725 13665,12734 13657,12742 13648,12751 13648,12751 13657,12759 13665,12776 13708,12810 13733,12768 13691,12734 13674,12776 13682,12768 13691,12759 13699,12751 13699,12751 13691,12742 13674,12751 13674,12776 13725,12776 13699,12751 13699,12751 13708,12759 13716,12768 13725,12776 13725,12751 13699,12751 13691,12785 Z "/>
         <path fill="rgb(0,0,0)" stroke="none" d="M 13742,12107 L 13725,12065 13691,12107 13742,12107 Z "/>
         <path fill="none" stroke="rgb(0,0,0)" stroke-width="51" stroke-linejoin="round" stroke-linecap="round" d="M 13742,12107 L 13725,12065 13691,12107 13742,12107 Z "/>
         <path fill="rgb(0,0,0)" stroke="none" d="M 13716,12116 L 13767,12099 13750,12057 13742,12057 13733,12048 13725,12040 13725,12040 13716,12048 13708,12057 13674,12099 13674,12099 13665,12107 13665,12107 13674,12116 13682,12124 13691,12133 13691,12133 13742,12133 13742,12082 13691,12082 13708,12116 13716,12107 13716,12107 13708,12099 13699,12090 13691,12082 13691,12107 13716,12124 13750,12082 13708,12073 13716,12082 13725,12090 13725,12090 13733,12082 13725,12065 13699,12073 13716,12116 Z "/>
         <path fill="rgb(0,0,0)" stroke="none" d="M 13725,12073 L 13691,12057 13691,12107 13725,12073 Z "/>
         <path fill="none" stroke="rgb(0,0,0)" stroke-width="51" stroke-linejoin="round" stroke-linecap="round" d="M 13725,12073 L 13691,12057 13691,12107 13725,12073 Z "/>
         <path fill="rgb(0,0,0)" stroke="none" d="M 13716,12099 L 13733,12048 13699,12031 13691,12031 13691,12031 13682,12040 13674,12048 13665,12057 13665,12057 13665,12107 13665,12107 13674,12116 13682,12124 13691,12133 13691,12133 13699,12124 13708,12124 13742,12090 13708,12057 13674,12090 13716,12107 13708,12099 13699,12090 13691,12082 13691,12082 13682,12090 13691,12107 13716,12107 13716,12057 13691,12082 13691,12082 13699,12073 13708,12065 13716,12057 13691,12057 13682,12082 13716,12099 Z "/>
         <path fill="rgb(0,0,0)" stroke="none" d="M 13691,12057 L 13657,12073 13691,12107 13691,12057 Z "/>
         <path fill="none" stroke="rgb(0,0,0)" stroke-width="51" stroke-linejoin="round" stroke-linecap="round" d="M 13691,12057 L 13657,12073 13691,12107 13691,12057 Z "/>
         <path fill="rgb(0,0,0)" stroke="none" d="M 13699,12082 L 13682,12031 13648,12048 13648,12057 13640,12065 13631,12073 13631,12073 13640,12082 13640,12090 13674,12124 13682,12124 13691,12133 13691,12133 13699,12124 13708,12116 13716,12107 13716,12107 13716,12057 13665,12057 13665,12107 13699,12090 13691,12082 13691,12082 13682,12090 13674,12099 13665,12107 13665,12107 13691,12107 13708,12090 13674,12057 13665,12090 13674,12082 13682,12073 13682,12073 13674,12065 13657,12073 13665,12099 13699,12082 Z "/>
         <path fill="rgb(0,0,0)" stroke="none" d="M 13657,12065 L 13640,12107 13691,12107 13657,12065 Z "/>
         <path fill="none" stroke="rgb(0,0,0)" stroke-width="51" stroke-linejoin="round" stroke-linecap="round" d="M 13657,12065 L 13640,12107 13691,12107 13657,12065 Z "/>
         <path fill="rgb(0,0,0)" stroke="none" d="M 13682,12073 L 13631,12057 13615,12099 13615,12107 13615,12107 13623,12116 13631,12124 13640,12133 13640,12133 13691,12133 13691,12133 13699,12124 13708,12116 13716,12107 13716,12107 13708,12099 13716,12099 13682,12057 13640,12082 13674,12124 13691,12082 13682,12090 13674,12099 13665,12107 13665,12107 13674,12116 13691,12107 13691,12082 13640,12082 13665,12107 13665,12107 13657,12099 13648,12090 13640,12082 13640,12107 13665,12116 13682,12073 Z "/>
         <path fill="rgb(0,0,0)" stroke="none" d="M 13640,12107 L 13657,12141 13691,12107 13640,12107 Z "/>
         <path fill="none" stroke="rgb(0,0,0)" stroke-width="51" stroke-linejoin="round" stroke-linecap="round" d="M 13640,12107 L 13657,12141 13691,12107 13640,12107 Z "/>
         <path fill="rgb(0,0,0)" stroke="none" d="M 13665,12099 L 13623,12116 13640,12150 13640,12150 13648,12158 13657,12167 13657,12167 13665,12158 13674,12158 13708,12124 13708,12116 13716,12107 13716,12107 13708,12099 13699,12090 13691,12082 13691,12082 13640,12082 13640,12133 13691,12133 13674,12099 13665,12107 13665,12107 13674,12116 13682,12124 13691,12133 13691,12107 13674,12090 13640,12124 13674,12133 13665,12124 13657,12116 13657,12116 13648,12124 13657,12141 13682,12133 13665,12099 Z "/>
         <path fill="rgb(0,0,0)" stroke="none" d="M 13657,12141 L 13691,12158 13691,12107 13657,12141 Z "/>
         <path fill="none" stroke="rgb(0,0,0)" stroke-width="51" stroke-linejoin="round" stroke-linecap="round" d="M 13657,12141 L 13691,12158 13691,12107 13657,12141 Z "/>
         <path fill="rgb(0,0,0)" stroke="none" d="M 13665,12116 L 13648,12167 13682,12184 13691,12184 13691,12184 13699,12175 13708,12167 13716,12158 13716,12158 13716,12107 13716,12107 13708,12099 13699,12090 13691,12082 13691,12082 13682,12090 13674,12090 13640,12124 13674,12158 13708,12124 13665,12107 13674,12116 13682,12124 13691,12133 13691,12133 13699,12124 13691,12107 13665,12107 13665,12158 13691,12133 13691,12133 13682,12141 13674,12150 13665,12158 13665,12158 13691,12158 13699,12133 13665,12116 Z "/>
         <path fill="rgb(0,0,0)" stroke="none" d="M 13691,12158 L 13725,12141 13691,12107 13691,12158 Z "/>
         <path fill="none" stroke="rgb(0,0,0)" stroke-width="51" stroke-linejoin="round" stroke-linecap="round" d="M 13691,12158 L 13725,12141 13691,12107 13691,12158 Z "/>
         <path fill="rgb(0,0,0)" stroke="none" d="M 13682,12133 L 13699,12184 13733,12167 13733,12158 13742,12150 13750,12141 13750,12141 13742,12133 13742,12124 13708,12090 13699,12090 13691,12082 13691,12082 13682,12090 13674,12099 13665,12107 13665,12107 13665,12158 13716,12158 13716,12107 13682,12124 13691,12133 13691,12133 13699,12124 13708,12116 13716,12107 13691,12107 13674,12124 13708,12158 13716,12124 13708,12133 13699,12141 13699,12141 13708,12150 13725,12141 13716,12116 13682,12133 Z "/>
         <path fill="rgb(0,0,0)" stroke="none" d="M 13725,12141 L 13742,12107 13691,12107 13725,12141 Z "/>
         <path fill="none" stroke="rgb(0,0,0)" stroke-width="51" stroke-linejoin="round" stroke-linecap="round" d="M 13725,12141 L 13742,12107 13691,12107 13725,12141 Z "/>
         <path fill="rgb(0,0,0)" stroke="none" d="M 13708,12133 L 13750,12150 13767,12116 13767,12107 13767,12107 13758,12099 13750,12090 13742,12082 13742,12082 13691,12082 13691,12082 13682,12090 13674,12099 13665,12107 13665,12107 13674,12116 13674,12124 13708,12158 13742,12124 13708,12090 13691,12133 13699,12124 13708,12116 13716,12107 13716,12107 13708,12099 13691,12107 13691,12133 13742,12133 13716,12107 13716,12107 13725,12116 13733,12124 13742,12133 13742,12107 13725,12099 13708,12133 Z "/>
         <path fill="rgb(0,0,0)" stroke="none" d="M 9262,14105 L 9279,14148 12869,12065 12852,12023 9262,14105 Z "/>
         <path fill="rgb(0,0,0)" stroke="none" d="M 13361,11532 L 13344,11574 14004,11955 14021,11913 13361,11532 Z "/>
         <path fill="rgb(0,0,0)" stroke="none" d="M 14038,11930 L 13987,11930 13987,13250 14038,13250 14038,11930 Z "/>
         <path fill="rgb(0,0,0)" stroke="none" d="M 14004,13276 L 14021,13233 13361,12852 13344,12895 14004,13276 Z "/>
         <path fill="rgb(0,0,0)" stroke="none" d="M 13327,12869 L 13377,12869 13377,11549 13327,11549 13327,12869 Z "/>
        </g>
       </g>
      </g>
     </g>
    </g>
   </g>
  </g>
 </g>
</svg>