<?xml version="1.0" encoding="UTF-8"?>
<!DOCTYPE svg PUBLIC "-//W3C//DTD SVG 1.1//EN" "http://www.w3.org/Graphics/SVG/1.1/DTD/svg11.dtd">
<svg version="1.2" width="56.640mm" height="43.690mm" viewBox="7963 11785 5664 4369" preserveAspectRatio="xMidYMid" fill-rule="evenodd" stroke-width="28.222" stroke-linejoin="round" xmlns="http://www.w3.org/2000/svg" xmlns:ooo="http://xml.openoffice.org/svg/export" xmlns:xlink="http://www.w3.org/1999/xlink" xmlns:presentation="http://sun.com/xmlns/staroffice/presentation" xmlns:smil="http://www.w3.org/2001/SMIL20/" xmlns:anim="urn:oasis:names:tc:opendocument:xmlns:animation:1.0" xmlns:svg="urn:oasis:names:tc:opendocument:xmlns:svg-compatible:1.0" xml:space="preserve">
 <defs class="ClipPathGroup">
  <clipPath id="presentation_clip_path" clipPathUnits="userSpaceOnUse">
   <rect x="0" y="0" width="21590" height="27940"/>
  </clipPath>
  <clipPath id="presentation_clip_path_shrink" clipPathUnits="userSpaceOnUse">
   <rect x="21" y="27" width="21547" height="27885"/>
  </clipPath>
 </defs>
 <defs class="TextShapeIndex">
  <g ooo:slide="id1" ooo:id-list="id3"/>
 </defs>
 <defs class="EmbeddedBulletChars">
  <g id="bullet-char-template-57356" transform="scale(0.00048828125,-0.00048828125)">
   <path d="M 580,1141 L 1163,571 580,0 -4,571 580,1141 Z"/>
  </g>
  <g id="bullet-char-template-57354" transform="scale(0.00048828125,-0.00048828125)">
   <path d="M 8,1128 L 1137,1128 1137,0 8,0 8,1128 Z"/>
  </g>
  <g id="bullet-char-template-10146" transform="scale(0.00048828125,-0.00048828125)">
   <path d="M 174,0 L 602,739 174,1481 1456,739 174,0 Z M 1358,739 L 309,1346 659,739 1358,739 Z"/>
  </g>
  <g id="bullet-char-template-10132" transform="scale(0.00048828125,-0.00048828125)">
   <path d="M 2015,739 L 1276,0 717,0 1260,543 174,543 174,936 1260,936 717,1481 1274,1481 2015,739 Z"/>
  </g>
  <g id="bullet-char-template-10007" transform="scale(0.00048828125,-0.00048828125)">
   <path d="M 0,-2 C -7,14 -16,27 -25,37 L 356,567 C 262,823 215,952 215,954 215,979 228,992 255,992 264,992 276,990 289,987 310,991 331,999 354,1012 L 381,999 492,748 772,1049 836,1024 860,1049 C 881,1039 901,1025 922,1006 886,937 835,863 770,784 769,783 710,716 594,584 L 774,223 C 774,196 753,168 711,139 L 727,119 C 717,90 699,76 672,76 641,76 570,178 457,381 L 164,-76 C 142,-110 111,-127 72,-127 30,-127 9,-110 8,-76 1,-67 -2,-52 -2,-32 -2,-23 -1,-13 0,-2 Z"/>
  </g>
  <g id="bullet-char-template-10004" transform="scale(0.00048828125,-0.00048828125)">
   <path d="M 285,-33 C 182,-33 111,30 74,156 52,228 41,333 41,471 41,549 55,616 82,672 116,743 169,778 240,778 293,778 328,747 346,684 L 369,508 C 377,444 397,411 428,410 L 1163,1116 C 1174,1127 1196,1133 1229,1133 1271,1133 1292,1118 1292,1087 L 1292,965 C 1292,929 1282,901 1262,881 L 442,47 C 390,-6 338,-33 285,-33 Z"/>
  </g>
  <g id="bullet-char-template-9679" transform="scale(0.00048828125,-0.00048828125)">
   <path d="M 813,0 C 632,0 489,54 383,161 276,268 223,411 223,592 223,773 276,916 383,1023 489,1130 632,1184 813,1184 992,1184 1136,1130 1245,1023 1353,916 1407,772 1407,592 1407,412 1353,268 1245,161 1136,54 992,0 813,0 Z"/>
  </g>
  <g id="bullet-char-template-8226" transform="scale(0.00048828125,-0.00048828125)">
   <path d="M 346,457 C 273,457 209,483 155,535 101,586 74,649 74,723 74,796 101,859 155,911 209,963 273,989 346,989 419,989 480,963 531,910 582,859 608,796 608,723 608,648 583,586 532,535 482,483 420,457 346,457 Z"/>
  </g>
  <g id="bullet-char-template-8211" transform="scale(0.00048828125,-0.00048828125)">
   <path d="M -4,459 L 1135,459 1135,606 -4,606 -4,459 Z"/>
  </g>
  <g id="bullet-char-template-61548" transform="scale(0.00048828125,-0.00048828125)">
   <path d="M 173,740 C 173,903 231,1043 346,1159 462,1274 601,1332 765,1332 928,1332 1067,1274 1183,1159 1299,1043 1357,903 1357,740 1357,577 1299,437 1183,322 1067,206 928,148 765,148 601,148 462,206 346,322 231,437 173,577 173,740 Z"/>
  </g>
 </defs>
 <g>
  <g id="id2" class="Master_Slide">
   <g id="bg-id2" class="Background"/>
   <g id="bo-id2" class="BackgroundObjects"/>
  </g>
 </g>
 <g class="SlideGroup">
  <g>
   <g id="container-id1">
    <g id="id1" class="Slide" clip-path="url(#presentation_clip_path)">
     <g class="Page">
      <g class="Graphic">
       <g id="id3">
        <rect class="BoundingBox" stroke="none" fill="none" x="7963" y="11785" width="5664" height="4369"/>
        <defs>
         <clipPath id="clip_path_1" clipPathUnits="userSpaceOnUse">
          <path d="M 7963,11785 L 13626,11785 13626,16153 7963,16153 7963,11785 Z "/>
         </clipPath>
        </defs>
        <g clip-path="url(#clip_path_1)">
         <path fill="rgb(255,255,255)" stroke="none" d="M 8268,11802 L 13609,11802 13609,16128 8268,16128 8268,11802 Z "/>
         <path fill="none" stroke="rgb(255,255,255)" stroke-width="51" stroke-linejoin="round" stroke-linecap="round" d="M 8268,11802 L 13609,11802 13609,16128 8268,16128 8268,11802 Z "/>
         <path fill="rgb(0,0,0)" stroke="none" d="M 10537,12369 L 10486,12369 10444,12835 10469,12835 10444,12835 10376,13301 10300,13775 10207,14240 10097,14681 9978,15096 9843,15477 9893,15485 10029,15104 10147,14689 10257,14249 10351,13783 10427,13309 10494,12843 10494,12835 10537,12369 Z "/>
         <path fill="rgb(0,0,0)" stroke="none" d="M 9893,15485 L 9843,15468 9707,15798 9758,15815 9893,15485 Z "/>
         <path fill="rgb(0,0,0)" stroke="none" d="M 8759,13817 L 8810,13826 8937,13428 8886,13419 8759,13817 Z "/>
         <path fill="rgb(0,0,0)" stroke="none" d="M 8776,13800 L 8793,13842 9148,13639 9131,13597 8776,13800 Z "/>
         <path fill="rgb(0,0,0)" stroke="none" d="M 9402,14164 L 9453,14164 9462,13783 9411,13783 9402,14164 Z "/>
         <path fill="rgb(0,0,0)" stroke="none" d="M 10164,14401 L 10215,14401 10181,14003 10130,14003 10164,14401 Z "/>
         <path fill="rgb(0,0,0)" stroke="none" d="M 9411,14147 L 9445,14181 9716,13893 9682,13859 9411,14147 Z "/>
         <path fill="rgb(0,0,0)" stroke="none" d="M 10173,14393 L 10215,14418 10444,14054 10401,14029 10173,14393 Z "/>
         <path fill="rgb(0,0,0)" stroke="none" d="M 10926,12369 L 10875,12369 10926,12835 10926,12843 10985,13309 11070,13783 11163,14249 11273,14689 11392,15104 11519,15485 11570,15477 11443,15096 11324,14681 11214,14240 11121,13775 11036,13301 10977,12835 10952,12835 10977,12835 10926,12369 Z "/>
         <path fill="rgb(0,0,0)" stroke="none" d="M 11570,15468 L 11519,15485 11663,15815 11714,15798 11570,15468 Z "/>
         <path fill="rgb(0,0,0)" stroke="none" d="M 12611,13826 L 12662,13817 12526,13419 12476,13428 12611,13826 Z "/>
         <path fill="rgb(0,0,0)" stroke="none" d="M 12628,13842 L 12645,13800 12289,13597 12272,13639 12628,13842 Z "/>
         <path fill="rgb(0,0,0)" stroke="none" d="M 11976,14181 L 12010,14147 11739,13859 11705,13893 11976,14181 Z "/>
         <path fill="rgb(0,0,0)" stroke="none" d="M 11968,14164 L 12018,14164 12010,13783 11959,13783 11968,14164 Z "/>
         <path fill="rgb(0,0,0)" stroke="none" d="M 11206,14410 L 11248,14393 11028,14029 10985,14046 11206,14410 Z "/>
         <path fill="rgb(0,0,0)" stroke="none" d="M 11197,14401 L 11248,14401 11290,14003 11239,14003 11197,14401 Z "/>
         <path fill="rgb(0,0,0)" stroke="none" d="M 10469,14706 L 10452,14748 10681,14884 10698,14842 10469,14706 Z "/>
         <path fill="rgb(0,0,0)" stroke="none" d="M 10664,14859 L 10715,14859 10715,13783 10664,13783 10664,14859 Z "/>
         <path fill="rgb(0,0,0)" stroke="none" d="M 10681,13809 L 10698,13766 10469,13639 10452,13682 10681,13809 Z "/>
         <path fill="rgb(0,0,0)" stroke="none" d="M 10486,13656 L 10435,13656 10435,14723 10486,14723 10486,13656 Z "/>
         <path fill="rgb(0,0,0)" stroke="none" d="M 10469,14181 L 10452,14224 10681,14359 10698,14317 10469,14181 Z "/>
         <path fill="rgb(0,0,0)" stroke="none" d="M 10681,14317 L 10698,14359 10952,14215 10935,14173 10681,14317 Z "/>
         <path fill="rgb(0,0,0)" stroke="none" d="M 10452,13639 L 10469,13682 10723,13529 10706,13487 10452,13639 Z "/>
         <path fill="rgb(0,0,0)" stroke="none" d="M 10723,13487 L 10706,13529 10935,13665 10952,13622 10723,13487 Z "/>
         <path fill="rgb(0,0,0)" stroke="none" d="M 10681,13766 L 10698,13809 10952,13665 10935,13622 10681,13766 Z "/>
         <path fill="rgb(0,0,0)" stroke="none" d="M 10681,14842 L 10698,14884 10952,14740 10935,14698 10681,14842 Z "/>
         <path fill="rgb(0,0,0)" stroke="none" d="M 10969,13639 L 10918,13639 10918,14715 10969,14715 10969,13639 Z "/>
         <path fill="rgb(0,0,0)" stroke="none" d="M 10757,14698 L 10808,14698 10808,14520 10782,14520 10765,14528 10774,14537 10782,14545 10782,14545 10791,14537 10799,14528 10808,14520 10765,14537 10884,14715 10884,14706 10892,14715 10901,14723 10901,14723 10909,14715 10918,14706 10926,14698 10926,14698 10926,14520 10875,14520 10875,14698 10918,14689 10909,14681 10901,14672 10901,14672 10892,14681 10884,14689 10875,14698 10875,14698 10901,14698 10926,14689 10808,14511 10799,14511 10791,14503 10782,14494 10782,14494 10774,14503 10765,14511 10757,14520 10757,14520 10757,14520 10757,14698 Z "/>
         <path fill="rgb(0,0,0)" stroke="none" d="M 10808,13902 L 10765,13927 10791,13961 10791,13953 10799,13961 10808,13970 10808,13970 10867,13970 10867,13970 10875,13961 10884,13961 10918,13927 10918,13919 10926,13910 10926,13910 10918,13902 10918,13893 10799,13775 10782,13792 10799,13800 10808,13792 10808,13792 10799,13783 10799,13809 10825,13783 10808,13766 10808,13792 10816,13783 10808,13792 10867,13792 10867,13766 10858,13792 10892,13817 10918,13775 10884,13749 10875,13749 10867,13741 10867,13741 10808,13741 10808,13741 10799,13749 10791,13749 10765,13775 10765,13783 10757,13792 10757,13792 10765,13800 10765,13809 10884,13927 10884,13902 10875,13910 10875,13910 10884,13919 10901,13910 10884,13893 10850,13927 10867,13919 10858,13927 10867,13944 10867,13919 10808,13919 10825,13936 10816,13927 10808,13919 10808,13944 10833,13936 10808,13902 Z "/>
         <path fill="rgb(0,0,0)" stroke="none" d="M 11383,12310 L 11333,12318 11417,12759 11553,13216 11553,13216 11714,13656 11722,13656 11925,14088 12154,14494 12196,14478 11968,14071 11764,13639 11739,13648 11764,13639 11604,13199 11578,13207 11604,13207 11468,12750 11383,12310 Z "/>
         <path fill="rgb(0,0,0)" stroke="none" d="M 12196,14478 L 12154,14503 12399,14875 12670,15214 12670,15214 12730,15273 12763,15240 12704,15180 12687,15197 12713,15189 12442,14850 12196,14478 Z "/>
         <path fill="rgb(0,0,0)" stroke="none" d="M 11815,12242 L 11764,12251 11900,12699 11900,12699 12086,13114 12095,13123 12340,13504 12636,13851 12636,13851 12975,14164 12984,14173 13373,14461 13373,14461 13475,14511 13492,14461 13390,14410 13381,14435 13398,14418 13009,14130 12992,14147 13009,14130 12670,13817 12653,13834 12679,13826 12382,13478 12137,13097 12112,13106 12137,13097 11951,12683 11925,12691 11951,12691 11815,12242 Z "/>
         <path fill="rgb(0,0,0)" stroke="none" d="M 10080,12318 L 10029,12310 9944,12750 9817,13199 9843,13199 9817,13191 9648,13639 9453,14071 9478,14080 9462,14071 9233,14478 9250,14486 9233,14478 8979,14850 8717,15189 8733,15197 8725,15180 8649,15248 8640,15256 8632,15265 8632,15265 8640,15273 8649,15282 8657,15290 8657,15290 8666,15290 8666,15240 8657,15240 8674,15273 8683,15265 8683,15265 8674,15256 8666,15248 8657,15240 8657,15265 8674,15290 8750,15223 8759,15214 9021,14875 9275,14503 9275,14494 9504,14088 9504,14088 9699,13656 9868,13207 9868,13207 9995,12759 10080,12318 Z "/>
         <path fill="rgb(0,0,0)" stroke="none" d="M 9656,12251 L 9605,12242 9470,12691 9495,12691 9478,12683 9284,13097 9301,13106 9284,13097 9038,13478 8750,13826 8767,13834 8750,13817 8403,14130 8420,14147 8412,14130 8022,14418 8031,14435 8022,14410 8005,14418 8022,14469 8039,14461 8048,14461 8437,14173 8437,14164 8784,13851 8793,13851 9081,13504 9326,13123 9326,13114 9521,12699 9521,12699 9656,12251 Z "/>
         <path fill="rgb(0,0,0)" stroke="none" d="M 10444,14300 L 10478,14334 10554,14257 10520,14224 10444,14300 Z "/>
         <path fill="rgb(0,0,0)" stroke="none" d="M 10444,14444 L 10478,14478 10647,14317 10613,14283 10444,14444 Z "/>
         <path fill="rgb(0,0,0)" stroke="none" d="M 10444,14588 L 10478,14621 10706,14401 10672,14367 10444,14588 Z "/>
         <path fill="rgb(0,0,0)" stroke="none" d="M 10461,14723 L 10494,14757 10706,14545 10672,14511 10461,14723 Z "/>
         <path fill="rgb(0,0,0)" stroke="none" d="M 10554,14774 L 10588,14808 10706,14689 10672,14655 10554,14774 Z "/>
         <path fill="rgb(0,0,0)" stroke="none" d="M 10655,14825 L 10681,14867 10706,14850 10681,14808 10655,14825 Z "/>
         <path fill="rgb(0,0,0)" stroke="none" d="M 10833,14850 L 10782,14850 10782,15290 10833,15290 10833,14850 Z "/>
         <path fill="rgb(0,0,0)" stroke="none" d="M 10630,15273 L 10808,15612 10977,15273 10630,15273 Z "/>
         <path fill="rgb(0,0,0)" stroke="none" d="M 10782,13580 L 10833,13580 10833,12378 10782,12378 10782,13580 Z "/>
         <path fill="rgb(0,0,0)" stroke="none" d="M 10985,12395 L 10808,12056 10638,12395 10985,12395 Z "/>
        </g>
       </g>
      </g>
     </g>
    </g>
   </g>
  </g>
 </g>
</svg>