<?xml version='1.0' encoding='utf-8'?>
<svg xmlns="http://www.w3.org/2000/svg" width="200.0mm" height="142.7mm" viewBox="653227 6508 360059 256869"><defs><style>.C1 {stroke: #000000; stroke-width: 496; stroke-opacity: 1.000; fill: none; fill-opacity: 1.000;}</style><style>.C2 {stroke: none; stroke-width: none; stroke-opacity: 1.000; fill: #000000; fill-opacity: 1.000;}</style></defs><rect fill="#ffffff" x="653227" y="6508" width="360059" height="256869" fill-opacity="1.0" /><g stroke-linecap="round" stroke-linejoin="round"><path d="M 980106 193153 l 0 6615 19845 -3307 Z" class="C2" /><path d="M 980106 196461 l -313543 -0" class="C1" /><path d="M 675161 39689 l 6615 0 -3307 -19845 Z" class="C2" /><path d="M 678469 39689 l 0 168678" class="C1" /><path d="M 678469 213329 l 0 4763 m 0 7144 l 0 4763 m 0 7144 l 0 4763 m 0 7144 l 0 992" class="C1" /><path d="M 745940 250041 l 0 -4763 m 0 -7144 l 0 -4763 m 0 -7144 l 0 -4763 m 0 -7144 l 0 -4763 m 0 -7144 l 0 -4763 m 0 -7144 l 0 -4763 m 0 -7144 l 0 -4763 m 0 -7144 l 0 -4763 m 0 -7144 l 0 -4763 m 0 -7144 l 0 -4763 m 0 -7144 l 0 -4763 m 0 -7144 l 0 -4343" class="C1" /><path d="M 813412 250041 l 0 -4763 m 0 -7144 l 0 -4763 m 0 -7144 l 0 -4763 m 0 -7144 l 0 -4763 m 0 -7144 l 0 -4763 m 0 -7144 l 0 -4763 m 0 -7144 l 0 -4763 m 0 -7144 l 0 -4763 m 0 -7144 l 0 -4763 m 0 -7144 l 0 -4763 m 0 -7144 l 0 -4763 m 0 -7144 l 0 -4763 m 0 -7144 l 0 -1348" class="C1" /><path d="M 880883 250041 l 0 -4763 m 0 -7144 l 0 -4763 m 0 -7144 l 0 -4763 m 0 -7144 l 0 -4763 m 0 -7144 l 0 -4763 m 0 -7144 l 0 -4763 m 0 -7144 l 0 -4763 m 0 -7144 l 0 -4763 m 0 -7144 l 0 -4763 m 0 -7144 l 0 -4763 m 0 -7144 l 0 -4763 m 0 -7144 l 0 -4763 m 0 -7144 l 0 -4763 m 0 -7144 l 0 -4763 m 0 -7144 l 0 -4763" class="C1" /><path d="M 948354 250041 l 0 -4763 m 0 -7144 l 0 -4763 m 0 -7144 l 0 -4763 m 0 -7144 l 0 -4763 m 0 -7144 l 0 -4763 m 0 -7144 l 0 -4763 m 0 -7144 l 0 -4763 m 0 -7144 l 0 -4763 m 0 -7144 l 0 -4763 m 0 -7144 l 0 -4763 m 0 -7144 l 0 -4763 m 0 -7144 l 0 -4763 m 0 -7144 l 0 -4763 m 0 -7144 l 0 -4763 m 0 -7144 l 0 -4763 m 0 -7144 l 0 -3969" class="C1" /><path d="M 685911 238134 l 52588 0" class="C1" /><path d="M 685911 236894 l 0 2481 -7442 -1240 Z" class="C2" /><path d="M 738499 236894 l 0 2481 7442 -1240 Z" class="C2" /><path d="M 753382 238134 l 52588 0" class="C1" /><path d="M 753382 236894 l 0 2481 -7442 -1240 Z" class="C2" /><path d="M 805970 236894 l 0 2481 7442 -1240 Z" class="C2" /><path d="M 820853 238134 l 52588 0" class="C1" /><path d="M 820853 236894 l 0 2481 -7442 -1240 Z" class="C2" /><path d="M 873441 236894 l 0 2481 7442 -1240 Z" class="C2" /><path d="M 888325 238134 l 52588 0" class="C1" /><path d="M 888325 236894 l 0 2481 -7442 -1240 Z" class="C2" /><path d="M 940913 236894 l 0 2481 7442 -1240 Z" class="C2" /><path d="M 678469 196461 l 0 0 l 6553 -141 l 6245 -430 l 5908 -728 l 5542 -1036 l 5146 -1354 l 4722 -1682 l 4268 -2019 l 3786 -2366 l 3288 -2711 l 2828 -3007 l 2421 -3244 l 2067 -3420 l 1764 -3536 l 1515 -3593 l 1317 -3589 l 1171 -3525 l 1072 -3406 l 990 -3251 l 921 -3065 l 862 -2847 l 816 -2599 l 781 -2320 l 758 -2010 l 746 -1669 l 744 -1300 l 740 -912 l 732 -509 l 720 -90 l 705 344 l 685 793 l 662 1258 l 635 1739 l 609 2219 l 601 2634 l 616 2967 l 655 3219 l 717 3389 l 802 3479 l 911 3486 l 1043 3413 l 1189 3269 l 1313 3098 l 1406 2912 l 1468 2711 l 1499 2493 l 1499 2261 l 1468 2013 l 1406 1749 l 1322 1476 l 1252 1216 l 1205 976 l 1182 755 l 1182 554 l 1205 371 l 1252 209 l 1322 65 l 1410 -67 l 1495 -222 l 1572 -408 l 1642 -625 l 1704 -873 l 1758 -1152 l 1805 -1462 l 1844 -1804 l 1872 -2169 l 1880 -2529 l 1864 -2878 l 1826 -3215 l 1764 -3541 l 1678 -3855 l 1570 -4157 l 1438 -4448 l 1289 -4708 l 1150 -4863 l 1026 -4894 l 917 -4801 l 824 -4584 l 747 -4243 l 685 -3778 l 638 -3189 l 605 -2497 l 578 -1787 l 555 -1082 l 536 -380 l 520 317 l 508 1011 l 501 1701 l 497 2387 l 498 3052 l 510 3630 l 533 4103 l 568 4471 l 614 4734 l 672 4893 l 742 4948 l 824 4897 l 915 4752 l 1008 4550 l 1101 4302 l 1194 4008 l 1287 3667 l 1380 3279 l 1473 2845 l 1566 2364 l 1658 1854 l 1743 1381 l 1820 963 l 1890 598 l 1952 288 l 2006 32 l 2053 -169 l 2092 -317 l 2121 -430 l 2137 -593 l 2137 -826 l 2121 -1128 l 2090 -1500 l 2044 -1942 l 1982 -2453 l 1904 -3035 l 1813 -3663 l 1716 -4249 l 1616 -4768 l 1511 -5221 l 1402 -5609 l 1290 -5931 l 1174 -6187 l 1054 -6376 l 933 -6491 l 829 -6491 l 744 -6367 l 678 -6119 l 631 -5747 l 604 -5251 l 596 -4630 l 608 -3886 l 633 -3039 l 649 -2175 l 649 -1315 l 633 -458 l 602 395 l 556 1244 l 494 2088 l 416 2930 l 330 3748 l 264 4469 l 225 5074 l 214 5562 l 229 5934 l 272 6190 l 342 6329 l 439 6353 l 558 6268 l 682 6109 l 806 5884 l 930 5594 l 1054 5237 l 1178 4814 l 1302 4326 l 1426 3772 l 1549 3171 l 1665 2601 l 1774 2082 l 1875 1613 l 1968 1194 l 2053 826 l 2130 508 l 2200 241 l 2258 6 l 2289 -269 l 2289 -603 l 2258 -994 l 2196 -1444 l 2103 -1952 l 1979 -2517 l 1824 -3141 l 1647 -3803 l 1484 -4419 l 1345 -4970 l 1229 -5454 l 1136 -5873 l 1066 -6225 l 1019 -6512 l 996 -6733 l 993 -6879 l 994 -6916 l 998 -6835 l 1004 -6635 l 1012 -6317 l 1022 -5881 l 1033 -5327 l 1047 -4655 l 1064 -3887 l 1089 -3113 l 1124 -2358 l 1168 -1619 l 1223 -898 l 1286 -195 l 1360 491 l 1443 1160" class="C1" /></g></svg>
