<?xml version='1.0' encoding='UTF-8'?>
<!DOCTYPE svg PUBLIC "-//W3C//DTD SVG 1.1//EN" "http://www.w3.org/Graphics/SVG/1.1/DTD/svg11.dtd">
<svg xmlns="http://www.w3.org/2000/svg" xmlns:ooo="http://xml.openoffice.org/svg/export" xmlns:xlink="http://www.w3.org/1999/xlink" xmlns:presentation="http://sun.com/xmlns/staroffice/presentation" xmlns:smil="http://www.w3.org/2001/SMIL20/" xmlns:anim="urn:oasis:names:tc:opendocument:xmlns:animation:1.0" xmlns:svg="urn:oasis:names:tc:opendocument:xmlns:svg-compatible:1.0" version="1.2" width="135.110mm" height="35.630mm" viewBox="4039 12188 13511 3563" preserveAspectRatio="xMidYMid" fill-rule="evenodd" stroke-width="28.222" stroke-linejoin="round" xml:space="preserve">
 <defs class="ClipPathGroup">
  <clipPath id="presentation_clip_path" clipPathUnits="userSpaceOnUse">
   <rect x="0" y="0" width="21590" height="27940"/>
  </clipPath>
  <clipPath id="presentation_clip_path_shrink" clipPathUnits="userSpaceOnUse">
   <rect x="21" y="27" width="21547" height="27885"/>
  </clipPath>
 </defs>
 <defs>
  </defs>
 <defs>
  </defs>
 <defs>
  </defs>
 <defs>
  </defs>
 <defs>
  </defs>
 <defs class="TextShapeIndex">
  <g ooo:slide="id1" ooo:id-list="id3"/>
 </defs>
 <defs class="EmbeddedBulletChars">
  <g id="bullet-char-template-57356" transform="scale(0.00048828125,-0.00048828125)">
   <path d="M 580,1141 L 1163,571 580,0 -4,571 580,1141 Z"/>
  </g>
  <g id="bullet-char-template-57354" transform="scale(0.00048828125,-0.00048828125)">
   <path d="M 8,1128 L 1137,1128 1137,0 8,0 8,1128 Z"/>
  </g>
  <g id="bullet-char-template-10146" transform="scale(0.00048828125,-0.00048828125)">
   <path d="M 174,0 L 602,739 174,1481 1456,739 174,0 Z M 1358,739 L 309,1346 659,739 1358,739 Z"/>
  </g>
  <g id="bullet-char-template-10132" transform="scale(0.00048828125,-0.00048828125)">
   <path d="M 2015,739 L 1276,0 717,0 1260,543 174,543 174,936 1260,936 717,1481 1274,1481 2015,739 Z"/>
  </g>
  <g id="bullet-char-template-10007" transform="scale(0.00048828125,-0.00048828125)">
   <path d="M 0,-2 C -7,14 -16,27 -25,37 L 356,567 C 262,823 215,952 215,954 215,979 228,992 255,992 264,992 276,990 289,987 310,991 331,999 354,1012 L 381,999 492,748 772,1049 836,1024 860,1049 C 881,1039 901,1025 922,1006 886,937 835,863 770,784 769,783 710,716 594,584 L 774,223 C 774,196 753,168 711,139 L 727,119 C 717,90 699,76 672,76 641,76 570,178 457,381 L 164,-76 C 142,-110 111,-127 72,-127 30,-127 9,-110 8,-76 1,-67 -2,-52 -2,-32 -2,-23 -1,-13 0,-2 Z"/>
  </g>
  <g id="bullet-char-template-10004" transform="scale(0.00048828125,-0.00048828125)">
   <path d="M 285,-33 C 182,-33 111,30 74,156 52,228 41,333 41,471 41,549 55,616 82,672 116,743 169,778 240,778 293,778 328,747 346,684 L 369,508 C 377,444 397,411 428,410 L 1163,1116 C 1174,1127 1196,1133 1229,1133 1271,1133 1292,1118 1292,1087 L 1292,965 C 1292,929 1282,901 1262,881 L 442,47 C 390,-6 338,-33 285,-33 Z"/>
  </g>
  <g id="bullet-char-template-9679" transform="scale(0.00048828125,-0.00048828125)">
   <path d="M 813,0 C 632,0 489,54 383,161 276,268 223,411 223,592 223,773 276,916 383,1023 489,1130 632,1184 813,1184 992,1184 1136,1130 1245,1023 1353,916 1407,772 1407,592 1407,412 1353,268 1245,161 1136,54 992,0 813,0 Z"/>
  </g>
  <g id="bullet-char-template-8226" transform="scale(0.00048828125,-0.00048828125)">
   <path d="M 346,457 C 273,457 209,483 155,535 101,586 74,649 74,723 74,796 101,859 155,911 209,963 273,989 346,989 419,989 480,963 531,910 582,859 608,796 608,723 608,648 583,586 532,535 482,483 420,457 346,457 Z"/>
  </g>
  <g id="bullet-char-template-8211" transform="scale(0.00048828125,-0.00048828125)">
   <path d="M -4,459 L 1135,459 1135,606 -4,606 -4,459 Z"/>
  </g>
  <g id="bullet-char-template-61548" transform="scale(0.00048828125,-0.00048828125)">
   <path d="M 173,740 C 173,903 231,1043 346,1159 462,1274 601,1332 765,1332 928,1332 1067,1274 1183,1159 1299,1043 1357,903 1357,740 1357,577 1299,437 1183,322 1067,206 928,148 765,148 601,148 462,206 346,322 231,437 173,577 173,740 Z"/>
  </g>
 </defs>
 <g>
  <g id="id2" class="Master_Slide">
   <g id="bg-id2" class="Background"/>
   <g id="bo-id2" class="BackgroundObjects"/>
  </g>
 </g>
 <g class="SlideGroup">
  <g>
   <g id="container-id1">
    <g id="id1" class="Slide" clip-path="url(#presentation_clip_path)">
     <g class="Page">
      <g class="Graphic">
       <g id="id3">
        <rect class="BoundingBox" stroke="none" fill="none" x="4039" y="12188" width="13511" height="3563"/>
        <path fill="none" stroke="rgb(0,0,0)" stroke-width="18" stroke-linejoin="round" stroke-linecap="round" d="M 4489,13307 L 4891,13307 "/>
        <g class="OutlinedText"><path d="M 636,-399 L 636,-442 C 462,-355 327,-228 230,-60 133,107 84,291 84,490 84,697 135,886 237,1057 339,1227 472,1349 636,1422 L 636,1380 C 554,1335 487,1273 434,1194 381,1115 342,1016 316,895 290,774 277,647 277,516 277,367 289,233 313,113 337,-7 374,-106 423,-185 472,-264 543,-336 636,-399 Z " transform="translate(7040,13428) scale(0.347,-0.347)" fill="rgb(0,0,0)" stroke="none"/></g><g class="OutlinedText"><path d="M 45,1380 L 45,1422 C 219,1336 355,1209 452,1042 549,874 597,690 597,491 597,284 546,95 444,-76 342,-247 209,-369 45,-442 L 45,-399 C 128,-354 195,-292 248,-213 301,-134 340,-35 366,86 391,207 404,333 404,465 404,613 392,747 369,868 345,988 308,1088 259,1167 209,1246 138,1317 45,1380 Z " transform="translate(7741,13428) scale(0.347,-0.347)" fill="rgb(0,0,0)" stroke="none"/></g><g class="OutlinedText"><path d="M 211,471 L 211,510 C 283,523 339,549 379,589 418,629 438,673 438,720 438,755 430,804 415,868 399,931 391,986 391,1032 391,1126 426,1211 497,1288 568,1364 658,1409 769,1422 L 769,1384 C 693,1371 635,1342 596,1298 556,1254 536,1203 536,1145 536,1104 543,1052 556,988 569,923 576,869 576,826 576,760 552,697 505,636 458,575 387,527 293,493 389,454 460,405 507,345 554,285 577,222 577,155 577,115 570,62 557,-3 544,-68 537,-121 537,-160 537,-217 556,-268 594,-311 631,-355 690,-387 769,-407 L 769,-442 C 658,-427 567,-381 498,-306 428,-231 393,-147 393,-53 393,-8 401,46 416,111 431,175 439,223 439,255 439,304 420,349 383,390 345,430 288,457 211,471 Z " transform="translate(5867,13428) scale(0.347,-0.347)" fill="rgb(0,0,0)" stroke="none"/></g><g class="OutlinedText"><path d="M 772,510 L 772,471 C 699,458 643,432 604,392 565,352 545,308 545,261 545,226 553,177 569,113 584,49 592,-6 592,-51 592,-145 557,-230 486,-306 415,-383 325,-428 214,-442 L 214,-403 C 290,-390 348,-361 387,-317 426,-274 446,-223 446,-164 446,-123 440,-71 427,-6 414,58 407,112 407,155 407,221 431,285 478,346 525,407 596,454 690,488 593,527 522,576 476,636 429,696 406,759 406,825 406,866 413,919 426,984 439,1049 446,1102 446,1141 446,1198 427,1248 390,1292 352,1336 293,1368 214,1387 L 214,1422 C 325,1407 416,1362 486,1287 555,1212 590,1127 590,1034 590,989 582,935 567,871 552,806 544,758 544,725 544,676 563,632 600,592 637,551 695,524 772,510 Z " transform="translate(7838,13428) scale(0.347,-0.347)" fill="rgb(0,0,0)" stroke="none"/></g><path fill="none" stroke="rgb(0,0,0)" stroke-width="18" stroke-linejoin="round" stroke-linecap="round" d="M 12850,13307 L 13253,13307 "/>
        <path fill="none" stroke="rgb(0,0,0)" stroke-width="18" stroke-linejoin="round" stroke-linecap="round" d="M 15248,13307 L 16085,13307 "/>
        <path fill="none" stroke="rgb(0,0,0)" stroke-width="18" stroke-linejoin="round" stroke-linecap="round" d="M 4489,15148 L 4891,15148 "/>
        <g class="OutlinedText"><path d="M 636,-399 L 636,-442 C 462,-355 327,-228 230,-60 133,107 84,291 84,490 84,697 135,886 237,1057 339,1227 472,1349 636,1422 L 636,1380 C 554,1335 487,1273 434,1194 381,1115 342,1016 316,895 290,774 277,647 277,516 277,367 289,233 313,113 337,-7 374,-106 423,-185 472,-264 543,-336 636,-399 Z " transform="translate(6723,15269) scale(0.347,-0.347)" fill="rgb(0,0,0)" stroke="none"/></g><g class="OutlinedText"><path d="M 45,1380 L 45,1422 C 219,1336 355,1209 452,1042 549,874 597,690 597,491 597,284 546,95 444,-76 342,-247 209,-369 45,-442 L 45,-399 C 128,-354 195,-292 248,-213 301,-134 340,-35 366,86 391,207 404,333 404,465 404,613 392,747 369,868 345,988 308,1088 259,1167 209,1246 138,1317 45,1380 Z " transform="translate(7556,15269) scale(0.347,-0.347)" fill="rgb(0,0,0)" stroke="none"/></g><g class="OutlinedText"><path d="M 211,471 L 211,510 C 283,523 339,549 379,589 418,629 438,673 438,720 438,755 430,804 415,868 399,931 391,986 391,1032 391,1126 426,1211 497,1288 568,1364 658,1409 769,1422 L 769,1384 C 693,1371 635,1342 596,1298 556,1254 536,1203 536,1145 536,1104 543,1052 556,988 569,923 576,869 576,826 576,760 552,697 505,636 458,575 387,527 293,493 389,454 460,405 507,345 554,285 577,222 577,155 577,115 570,62 557,-3 544,-68 537,-121 537,-160 537,-217 556,-268 594,-311 631,-355 690,-387 769,-407 L 769,-442 C 658,-427 567,-381 498,-306 428,-231 393,-147 393,-53 393,-8 401,46 416,111 431,175 439,223 439,255 439,304 420,349 383,390 345,430 288,457 211,471 Z " transform="translate(5867,15269) scale(0.347,-0.347)" fill="rgb(0,0,0)" stroke="none"/></g><g class="OutlinedText"><path d="M 772,510 L 772,471 C 699,458 643,432 604,392 565,352 545,308 545,261 545,226 553,177 569,113 584,49 592,-6 592,-51 592,-145 557,-230 486,-306 415,-383 325,-428 214,-442 L 214,-403 C 290,-390 348,-361 387,-317 426,-274 446,-223 446,-164 446,-123 440,-71 427,-6 414,58 407,112 407,155 407,221 431,285 478,346 525,407 596,454 690,488 593,527 522,576 476,636 429,696 406,759 406,825 406,866 413,919 426,984 439,1049 446,1102 446,1141 446,1198 427,1248 390,1292 352,1336 293,1368 214,1387 L 214,1422 C 325,1407 416,1362 486,1287 555,1212 590,1127 590,1034 590,989 582,935 567,871 552,806 544,758 544,725 544,676 563,632 600,592 637,551 695,524 772,510 Z " transform="translate(8347,15269) scale(0.347,-0.347)" fill="rgb(0,0,0)" stroke="none"/></g><path fill="none" stroke="rgb(0,0,0)" stroke-width="18" stroke-linejoin="round" stroke-linecap="round" d="M 8998,15148 L 9400,15148 "/>
        <g class="OutlinedText"><path d="M 211,471 L 211,510 C 283,523 339,549 379,589 418,629 438,673 438,720 438,755 430,804 415,868 399,931 391,986 391,1032 391,1126 426,1211 497,1288 568,1364 658,1409 769,1422 L 769,1384 C 693,1371 635,1342 596,1298 556,1254 536,1203 536,1145 536,1104 543,1052 556,988 569,923 576,869 576,826 576,760 552,697 505,636 458,575 387,527 293,493 389,454 460,405 507,345 554,285 577,222 577,155 577,115 570,62 557,-3 544,-68 537,-121 537,-160 537,-217 556,-268 594,-311 631,-355 690,-387 769,-407 L 769,-442 C 658,-427 567,-381 498,-306 428,-231 393,-147 393,-53 393,-8 401,46 416,111 431,175 439,223 439,255 439,304 420,349 383,390 345,430 288,457 211,471 Z " transform="translate(10372,15269) scale(0.312,-0.312)" fill="rgb(0,0,0)" stroke="none"/></g><g class="OutlinedText"><path d="M 772,510 L 772,471 C 699,458 643,432 604,392 565,352 545,308 545,261 545,226 553,177 569,113 584,49 592,-6 592,-51 592,-145 557,-230 486,-306 415,-383 325,-428 214,-442 L 214,-403 C 290,-390 348,-361 387,-317 426,-274 446,-223 446,-164 446,-123 440,-71 427,-6 414,58 407,112 407,155 407,221 431,285 478,346 525,407 596,454 690,488 593,527 522,576 476,636 429,696 406,759 406,825 406,866 413,919 426,984 439,1049 446,1102 446,1141 446,1198 427,1248 390,1292 352,1336 293,1368 214,1387 L 214,1422 C 325,1407 416,1362 486,1287 555,1212 590,1127 590,1034 590,989 582,935 567,871 552,806 544,758 544,725 544,676 563,632 600,592 637,551 695,524 772,510 Z " transform="translate(11359,15269) scale(0.312,-0.312)" fill="rgb(0,0,0)" stroke="none"/></g><path fill="none" stroke="rgb(0,0,0)" stroke-width="18" stroke-linejoin="round" stroke-linecap="round" d="M 12020,15148 L 12423,15148 "/>
        <g class="OutlinedText"><path d="M 566,28 L 780,660 C 815,762 859,835 913,878 967,921 1028,943 1098,943 1200,943 1275,899 1324,812 1373,724 1376,615 1331,484 1302,397 1251,312 1180,229 1109,146 1032,84 950,45 868,5 770,-19 655,-28 L 515,-442 406,-442 546,-28 C 447,-19 371,5 316,45 261,85 226,146 211,228 196,310 203,395 233,482 258,556 295,625 345,688 395,751 446,801 498,838 550,875 599,901 646,917 693,932 747,941 808,943 L 796,905 C 734,900 669,866 602,803 534,740 477,639 430,500 396,399 382,314 389,243 397,172 418,118 453,83 476,60 514,42 566,28 Z M 675,30 C 745,37 805,53 854,77 923,110 982,157 1033,219 1084,280 1124,354 1153,439 1194,560 1198,660 1164,739 1140,796 1099,825 1042,825 1014,825 986,813 960,788 933,763 906,709 878,628 L 675,30 Z " transform="translate(13158,15271) scale(0.241,-0.241)" fill="rgb(0,0,0)" stroke="none"/></g><g class="OutlinedText"><path d="M 566,28 L 780,660 C 815,762 859,835 913,878 967,921 1028,943 1098,943 1200,943 1275,899 1324,812 1373,724 1376,615 1331,484 1302,397 1251,312 1180,229 1109,146 1032,84 950,45 868,5 770,-19 655,-28 L 515,-442 406,-442 546,-28 C 447,-19 371,5 316,45 261,85 226,146 211,228 196,310 203,395 233,482 258,556 295,625 345,688 395,751 446,801 498,838 550,875 599,901 646,917 693,932 747,941 808,943 L 796,905 C 734,900 669,866 602,803 534,740 477,639 430,500 396,399 382,314 389,243 397,172 418,118 453,83 476,60 514,42 566,28 Z M 675,30 C 745,37 805,53 854,77 923,110 982,157 1033,219 1084,280 1124,354 1153,439 1194,560 1198,660 1164,739 1140,796 1099,825 1042,825 1014,825 986,813 960,788 933,763 906,709 878,628 L 675,30 Z " transform="translate(11032,15271) scale(0.241,-0.241)" fill="rgb(0,0,0)" stroke="none"/></g><g class="OutlinedText"><path d="M 566,28 L 780,660 C 815,762 859,835 913,878 967,921 1028,943 1098,943 1200,943 1275,899 1324,812 1373,724 1376,615 1331,484 1302,397 1251,312 1180,229 1109,146 1032,84 950,45 868,5 770,-19 655,-28 L 515,-442 406,-442 546,-28 C 447,-19 371,5 316,45 261,85 226,146 211,228 196,310 203,395 233,482 258,556 295,625 345,688 395,751 446,801 498,838 550,875 599,901 646,917 693,932 747,941 808,943 L 796,905 C 734,900 669,866 602,803 534,740 477,639 430,500 396,399 382,314 389,243 397,172 418,118 453,83 476,60 514,42 566,28 Z M 675,30 C 745,37 805,53 854,77 923,110 982,157 1033,219 1084,280 1124,354 1153,439 1194,560 1198,660 1164,739 1140,796 1099,825 1042,825 1014,825 986,813 960,788 933,763 906,709 878,628 L 675,30 Z " transform="translate(8022,15271) scale(0.241,-0.241)" fill="rgb(0,0,0)" stroke="none"/></g><g class="OutlinedText"><path d="M 566,28 L 780,660 C 815,762 859,835 913,878 967,921 1028,943 1098,943 1200,943 1275,899 1324,812 1373,724 1376,615 1331,484 1302,397 1251,312 1180,229 1109,146 1032,84 950,45 868,5 770,-19 655,-28 L 515,-442 406,-442 546,-28 C 447,-19 371,5 316,45 261,85 226,146 211,228 196,310 203,395 233,482 258,556 295,625 345,688 395,751 446,801 498,838 550,875 599,901 646,917 693,932 747,941 808,943 L 796,905 C 734,900 669,866 602,803 534,740 477,639 430,500 396,399 382,314 389,243 397,172 418,118 453,83 476,60 514,42 566,28 Z M 675,30 C 745,37 805,53 854,77 923,110 982,157 1033,219 1084,280 1124,354 1153,439 1194,560 1198,660 1164,739 1140,796 1099,825 1042,825 1014,825 986,813 960,788 933,763 906,709 878,628 L 675,30 Z " transform="translate(16496,13430) scale(0.241,-0.241)" fill="rgb(0,0,0)" stroke="none"/></g><g class="OutlinedText"><path d="M 566,28 L 780,660 C 815,762 859,835 913,878 967,921 1028,943 1098,943 1200,943 1275,899 1324,812 1373,724 1376,615 1331,484 1302,397 1251,312 1180,229 1109,146 1032,84 950,45 868,5 770,-19 655,-28 L 515,-442 406,-442 546,-28 C 447,-19 371,5 316,45 261,85 226,146 211,228 196,310 203,395 233,482 258,556 295,625 345,688 395,751 446,801 498,838 550,875 599,901 646,917 693,932 747,941 808,943 L 796,905 C 734,900 669,866 602,803 534,740 477,639 430,500 396,399 382,314 389,243 397,172 418,118 453,83 476,60 514,42 566,28 Z M 675,30 C 745,37 805,53 854,77 923,110 982,157 1033,219 1084,280 1124,354 1153,439 1194,560 1198,660 1164,739 1140,796 1099,825 1042,825 1014,825 986,813 960,788 933,763 906,709 878,628 L 675,30 Z " transform="translate(15624,13814) scale(0.241,-0.241)" fill="rgb(0,0,0)" stroke="none"/></g><g class="OutlinedText"><path d="M 566,28 L 780,660 C 815,762 859,835 913,878 967,921 1028,943 1098,943 1200,943 1275,899 1324,812 1373,724 1376,615 1331,484 1302,397 1251,312 1180,229 1109,146 1032,84 950,45 868,5 770,-19 655,-28 L 515,-442 406,-442 546,-28 C 447,-19 371,5 316,45 261,85 226,146 211,228 196,310 203,395 233,482 258,556 295,625 345,688 395,751 446,801 498,838 550,875 599,901 646,917 693,932 747,941 808,943 L 796,905 C 734,900 669,866 602,803 534,740 477,639 430,500 396,399 382,314 389,243 397,172 418,118 453,83 476,60 514,42 566,28 Z M 675,30 C 745,37 805,53 854,77 923,110 982,157 1033,219 1084,280 1124,354 1153,439 1194,560 1198,660 1164,739 1140,796 1099,825 1042,825 1014,825 986,813 960,788 933,763 906,709 878,628 L 675,30 Z " transform="translate(7302,15050) scale(0.121,-0.121)" fill="rgb(0,0,0)" stroke="none"/></g><g class="OutlinedText"><path d="M 566,28 L 780,660 C 815,762 859,835 913,878 967,921 1028,943 1098,943 1200,943 1275,899 1324,812 1373,724 1376,615 1331,484 1302,397 1251,312 1180,229 1109,146 1032,84 950,45 868,5 770,-19 655,-28 L 515,-442 406,-442 546,-28 C 447,-19 371,5 316,45 261,85 226,146 211,228 196,310 203,395 233,482 258,556 295,625 345,688 395,751 446,801 498,838 550,875 599,901 646,917 693,932 747,941 808,943 L 796,905 C 734,900 669,866 602,803 534,740 477,639 430,500 396,399 382,314 389,243 397,172 418,118 453,83 476,60 514,42 566,28 Z M 675,30 C 745,37 805,53 854,77 923,110 982,157 1033,219 1084,280 1124,354 1153,439 1194,560 1198,660 1164,739 1140,796 1099,825 1042,825 1014,825 986,813 960,788 933,763 906,709 878,628 L 675,30 Z " transform="translate(6485,15050) scale(0.121,-0.121)" fill="rgb(0,0,0)" stroke="none"/></g><g class="OutlinedText"><path d="M 566,28 L 780,660 C 815,762 859,835 913,878 967,921 1028,943 1098,943 1200,943 1275,899 1324,812 1373,724 1376,615 1331,484 1302,397 1251,312 1180,229 1109,146 1032,84 950,45 868,5 770,-19 655,-28 L 515,-442 406,-442 546,-28 C 447,-19 371,5 316,45 261,85 226,146 211,228 196,310 203,395 233,482 258,556 295,625 345,688 395,751 446,801 498,838 550,875 599,901 646,917 693,932 747,941 808,943 L 796,905 C 734,900 669,866 602,803 534,740 477,639 430,500 396,399 382,314 389,243 397,172 418,118 453,83 476,60 514,42 566,28 Z M 675,30 C 745,37 805,53 854,77 923,110 982,157 1033,219 1084,280 1124,354 1153,439 1194,560 1198,660 1164,739 1140,796 1099,825 1042,825 1014,825 986,813 960,788 933,763 906,709 878,628 L 675,30 Z " transform="translate(15835,12900) scale(0.121,-0.121)" fill="rgb(0,0,0)" stroke="none"/></g><g class="OutlinedText"><path d="M 566,28 L 780,660 C 815,762 859,835 913,878 967,921 1028,943 1098,943 1200,943 1275,899 1324,812 1373,724 1376,615 1331,484 1302,397 1251,312 1180,229 1109,146 1032,84 950,45 868,5 770,-19 655,-28 L 515,-442 406,-442 546,-28 C 447,-19 371,5 316,45 261,85 226,146 211,228 196,310 203,395 233,482 258,556 295,625 345,688 395,751 446,801 498,838 550,875 599,901 646,917 693,932 747,941 808,943 L 796,905 C 734,900 669,866 602,803 534,740 477,639 430,500 396,399 382,314 389,243 397,172 418,118 453,83 476,60 514,42 566,28 Z M 675,30 C 745,37 805,53 854,77 923,110 982,157 1033,219 1084,280 1124,354 1153,439 1194,560 1198,660 1164,739 1140,796 1099,825 1042,825 1014,825 986,813 960,788 933,763 906,709 878,628 L 675,30 Z " transform="translate(14954,13209) scale(0.121,-0.121)" fill="rgb(0,0,0)" stroke="none"/></g><g class="OutlinedText"><path d="M 566,28 L 780,660 C 815,762 859,835 913,878 967,921 1028,943 1098,943 1200,943 1275,899 1324,812 1373,724 1376,615 1331,484 1302,397 1251,312 1180,229 1109,146 1032,84 950,45 868,5 770,-19 655,-28 L 515,-442 406,-442 546,-28 C 447,-19 371,5 316,45 261,85 226,146 211,228 196,310 203,395 233,482 258,556 295,625 345,688 395,751 446,801 498,838 550,875 599,901 646,917 693,932 747,941 808,943 L 796,905 C 734,900 669,866 602,803 534,740 477,639 430,500 396,399 382,314 389,243 397,172 418,118 453,83 476,60 514,42 566,28 Z M 675,30 C 745,37 805,53 854,77 923,110 982,157 1033,219 1084,280 1124,354 1153,439 1194,560 1198,660 1164,739 1140,796 1099,825 1042,825 1014,825 986,813 960,788 933,763 906,709 878,628 L 675,30 Z " transform="translate(7487,13209) scale(0.121,-0.121)" fill="rgb(0,0,0)" stroke="none"/></g><g class="OutlinedText"><path d="M 566,28 L 780,660 C 815,762 859,835 913,878 967,921 1028,943 1098,943 1200,943 1275,899 1324,812 1373,724 1376,615 1331,484 1302,397 1251,312 1180,229 1109,146 1032,84 950,45 868,5 770,-19 655,-28 L 515,-442 406,-442 546,-28 C 447,-19 371,5 316,45 261,85 226,146 211,228 196,310 203,395 233,482 258,556 295,625 345,688 395,751 446,801 498,838 550,875 599,901 646,917 693,932 747,941 808,943 L 796,905 C 734,900 669,866 602,803 534,740 477,639 430,500 396,399 382,314 389,243 397,172 418,118 453,83 476,60 514,42 566,28 Z M 675,30 C 745,37 805,53 854,77 923,110 982,157 1033,219 1084,280 1124,354 1153,439 1194,560 1198,660 1164,739 1140,796 1099,825 1042,825 1014,825 986,813 960,788 933,763 906,709 878,628 L 675,30 Z " transform="translate(6485,13209) scale(0.121,-0.121)" fill="rgb(0,0,0)" stroke="none"/></g><g class="OutlinedText"><path d="M 690,-31 L 74,1356 1389,1356 690,-31 Z M 755,284 L 1257,1275 313,1275 755,284 Z " transform="translate(12803,15271) scale(0.241,-0.241)" fill="rgb(0,0,0)" stroke="none"/></g><g class="OutlinedText"><path d="M 37,759 L 1087,759 1087,662 37,662 37,759 Z M 37,386 L 1087,386 1087,287 37,287 37,386 Z " transform="translate(11633,15271) scale(0.241,-0.241)" fill="rgb(0,0,0)" stroke="none"/></g><g class="OutlinedText"><path d="M 690,-31 L 74,1356 1389,1356 690,-31 Z M 755,284 L 1257,1275 313,1275 755,284 Z " transform="translate(10677,15271) scale(0.241,-0.241)" fill="rgb(0,0,0)" stroke="none"/></g><g class="OutlinedText"><path d="M 37,759 L 1087,759 1087,662 37,662 37,759 Z M 37,386 L 1087,386 1087,287 37,287 37,386 Z " transform="translate(8611,15271) scale(0.241,-0.241)" fill="rgb(0,0,0)" stroke="none"/></g><g class="OutlinedText"><path d="M 690,-31 L 74,1356 1389,1356 690,-31 Z M 755,284 L 1257,1275 313,1275 755,284 Z " transform="translate(7667,15271) scale(0.241,-0.241)" fill="rgb(0,0,0)" stroke="none"/></g><g class="OutlinedText"><path d="M 37,759 L 1087,759 1087,662 37,662 37,759 Z M 37,386 L 1087,386 1087,287 37,287 37,386 Z " transform="translate(4102,15271) scale(0.241,-0.241)" fill="rgb(0,0,0)" stroke="none"/></g><g class="OutlinedText"><path d="M 37,759 L 1087,759 1087,662 37,662 37,759 Z M 37,386 L 1087,386 1087,287 37,287 37,386 Z " transform="translate(17192,13430) scale(0.241,-0.241)" fill="rgb(0,0,0)" stroke="none"/></g><g class="OutlinedText"><path d="M 28,-121 C 127,-98 207,-60 267,-7 327,46 368,106 389,175 410,243 420,356 420,513 L 420,1897 518,1897 518,410 C 518,229 479,93 400,2 321,-89 197,-145 28,-167 L 28,-121 Z " transform="translate(16851,13919) scale(0.241,-0.241)" fill="rgb(0,0,0)" stroke="none"/></g><g class="OutlinedText"><path d="M 420,1897 L 517,1897 517,1474 C 517,1295 547,1165 607,1083 667,1001 768,941 910,902 L 910,826 C 768,787 667,726 607,644 547,562 517,432 517,253 L 517,-166 420,-166 420,272 C 420,369 430,453 450,525 470,597 498,654 533,695 568,736 610,770 660,796 710,822 778,845 865,864 778,883 707,907 654,935 600,963 556,1000 521,1045 486,1090 461,1145 445,1211 428,1277 420,1358 420,1454 L 420,1897 Z " transform="translate(16851,13515) scale(0.241,-0.241)" fill="rgb(0,0,0)" stroke="none"/></g><g class="OutlinedText"><path d="M 28,1851 L 28,1897 C 197,1875 321,1819 400,1729 479,1638 518,1502 518,1320 L 518,-167 420,-167 420,1217 C 420,1316 415,1402 405,1473 395,1544 375,1603 344,1651 313,1699 271,1740 218,1775 165,1809 101,1834 28,1851 Z " transform="translate(16851,13112) scale(0.241,-0.241)" fill="rgb(0,0,0)" stroke="none"/></g><g class="OutlinedText"><path d="M 910,-121 L 910,-167 C 741,-145 617,-89 538,2 459,92 420,228 420,410 L 420,1897 517,1897 517,513 C 517,414 522,329 533,258 543,187 564,127 595,79 626,31 668,-10 721,-44 774,-79 837,-104 910,-121 Z " transform="translate(14253,13919) scale(0.241,-0.241)" fill="rgb(0,0,0)" stroke="none"/></g><g class="OutlinedText"><path d="M 518,-166 L 421,-166 421,256 C 421,435 391,565 331,647 271,729 170,789 28,828 L 28,904 C 170,943 271,1004 331,1086 391,1168 421,1298 421,1477 L 421,1897 518,1897 518,1458 C 518,1361 508,1277 488,1205 468,1133 441,1076 406,1035 371,994 328,960 278,935 228,909 160,886 73,866 160,847 231,824 285,796 338,768 382,731 417,686 452,641 477,585 494,519 510,453 518,372 518,277 L 518,-166 Z " transform="translate(14253,13515) scale(0.241,-0.241)" fill="rgb(0,0,0)" stroke="none"/></g><g class="OutlinedText"><path d="M 910,1851 C 811,1828 731,1790 671,1737 611,1684 570,1624 549,1556 528,1487 517,1374 517,1217 L 517,-167 420,-167 420,1320 C 420,1501 459,1637 538,1728 617,1819 741,1875 910,1897 L 910,1851 Z " transform="translate(14253,13112) scale(0.241,-0.241)" fill="rgb(0,0,0)" stroke="none"/></g><g class="OutlinedText"><path d="M 690,-31 L 74,1356 1389,1356 690,-31 Z M 755,284 L 1257,1275 313,1275 755,284 Z " transform="translate(16141,13430) scale(0.241,-0.241)" fill="rgb(0,0,0)" stroke="none"/></g><g class="OutlinedText"><path d="M 37,759 L 1087,759 1087,662 37,662 37,759 Z M 37,386 L 1087,386 1087,287 37,287 37,386 Z " transform="translate(12464,13430) scale(0.241,-0.241)" fill="rgb(0,0,0)" stroke="none"/></g><g class="OutlinedText"><path d="M 702,-166 L 605,-166 605,1897 702,1897 702,-166 Z " transform="translate(12169,13983) scale(0.241,-0.241)" fill="rgb(0,0,0)" stroke="none"/></g><g class="OutlinedText"><path d="M 702,-166 L 605,-166 605,1897 702,1897 702,-166 Z " transform="translate(12169,13524) scale(0.241,-0.241)" fill="rgb(0,0,0)" stroke="none"/></g><g class="OutlinedText"><path d="M 702,-166 L 605,-166 605,1897 702,1897 702,-166 Z " transform="translate(12169,13048) scale(0.241,-0.241)" fill="rgb(0,0,0)" stroke="none"/></g><g class="OutlinedText"><path d="M 703,1897 L 703,1370 C 703,1165 678,963 628,766 585,595 525,446 448,317 370,188 279,80 174,-8 99,-73 12,-125 -86,-166 L -109,-146 C 79,-17 228,135 339,309 427,448 493,615 538,810 583,1005 605,1185 605,1350 L 605,1897 703,1897 Z " transform="translate(12169,14299) scale(0.241,-0.241)" fill="rgb(0,0,0)" stroke="none"/></g><g class="OutlinedText"><path d="M 703,-166 L 605,-166 605,380 C 605,591 577,796 521,995 465,1194 381,1369 269,1520 172,1651 46,1769 -109,1876 L -86,1897 C 75,1830 218,1719 343,1565 468,1411 559,1225 617,1006 674,787 703,571 703,360 L 703,-166 Z " transform="translate(12169,12731) scale(0.241,-0.241)" fill="rgb(0,0,0)" stroke="none"/></g><g class="OutlinedText"><path d="M 180,-166 L 83,-166 83,1897 180,1897 180,-166 Z " transform="translate(8465,13983) scale(0.241,-0.241)" fill="rgb(0,0,0)" stroke="none"/></g><g class="OutlinedText"><path d="M 180,-166 L 83,-166 83,1897 180,1897 180,-166 Z " transform="translate(8465,13524) scale(0.241,-0.241)" fill="rgb(0,0,0)" stroke="none"/></g><g class="OutlinedText"><path d="M 180,-166 L 83,-166 83,1897 180,1897 180,-166 Z " transform="translate(8465,13048) scale(0.241,-0.241)" fill="rgb(0,0,0)" stroke="none"/></g><g class="OutlinedText"><path d="M 83,1897 L 180,1897 180,1350 C 180,1139 208,934 265,735 321,536 405,361 517,210 614,80 740,-39 895,-146 L 872,-166 C 711,-99 569,12 444,166 319,319 227,506 170,725 112,944 83,1159 83,1370 L 83,1897 Z " transform="translate(8465,14299) scale(0.241,-0.241)" fill="rgb(0,0,0)" stroke="none"/></g><g class="OutlinedText"><path d="M 83,-166 L 83,360 C 83,565 108,767 158,965 201,1135 261,1284 339,1413 416,1542 507,1650 611,1738 687,1803 774,1856 872,1897 L 895,1876 C 707,1747 558,1595 447,1421 359,1282 293,1115 248,920 203,725 180,545 180,380 L 180,-166 83,-166 Z " transform="translate(8465,12731) scale(0.241,-0.241)" fill="rgb(0,0,0)" stroke="none"/></g><g class="OutlinedText"><path d="M 37,759 L 1087,759 1087,662 37,662 37,759 Z M 37,386 L 1087,386 1087,287 37,287 37,386 Z " transform="translate(8101,13430) scale(0.241,-0.241)" fill="rgb(0,0,0)" stroke="none"/></g><g class="OutlinedText"><path d="M 690,-31 L 74,1356 1389,1356 690,-31 Z M 755,284 L 1257,1275 313,1275 755,284 Z " transform="translate(6677,13430) scale(0.241,-0.241)" fill="rgb(0,0,0)" stroke="none"/></g><g class="OutlinedText"><path d="M 37,759 L 1087,759 1087,662 37,662 37,759 Z M 37,386 L 1087,386 1087,287 37,287 37,386 Z " transform="translate(4102,13430) scale(0.241,-0.241)" fill="rgb(0,0,0)" stroke="none"/></g><g class="OutlinedText"><path d="M 37,576 L 1087,576 1087,477 37,477 37,576 Z " transform="translate(6274,15050) scale(0.121,-0.121)" fill="rgb(0,0,0)" stroke="none"/></g><g class="OutlinedText"><path d="M 37,576 L 1087,576 1087,477 37,477 37,576 Z " transform="translate(14742,13209) scale(0.121,-0.121)" fill="rgb(0,0,0)" stroke="none"/></g><g class="OutlinedText"><path d="M 37,576 L 1087,576 1087,477 37,477 37,576 Z " transform="translate(6274,13209) scale(0.121,-0.121)" fill="rgb(0,0,0)" stroke="none"/></g><text class="SVGTextShape"><tspan class="TextParagraph"><tspan class="TextPosition" x="12556" y="15271"><tspan font-family="Times New Roman, serif" font-size="494px" font-style="italic" font-weight="400" lengthAdjust="spacingAndGlyphs" textLength="243" fill="rgb(0,0,0)" stroke="none" style="white-space: pre">p</tspan></tspan></tspan></text>
        <text class="SVGTextShape"><tspan class="TextParagraph"><tspan class="TextPosition" x="12048" y="15655"><tspan font-family="Times New Roman, serif" font-size="494px" font-style="italic" font-weight="400" lengthAdjust="spacingAndGlyphs" textLength="352" fill="rgb(0,0,0)" stroke="none" style="white-space: pre">m</tspan></tspan></tspan></text>
        <text class="SVGTextShape"><tspan class="TextParagraph"><tspan class="TextPosition" x="10538" y="15271"><tspan font-family="Times New Roman, serif" font-size="494px" font-style="italic" font-weight="400" lengthAdjust="spacingAndGlyphs" textLength="135" fill="rgb(0,0,0)" stroke="none" style="white-space: pre">i</tspan></tspan></tspan></text>
        <text class="SVGTextShape"><tspan class="TextParagraph"><tspan class="TextPosition" x="9533" y="15271"><tspan font-family="Times New Roman, serif" font-size="494px" font-style="italic" font-weight="400" lengthAdjust="spacingAndGlyphs" textLength="243" fill="rgb(0,0,0)" stroke="none" style="white-space: pre">p</tspan></tspan></tspan></text>
        <text class="SVGTextShape"><tspan class="TextParagraph"><tspan class="TextPosition" x="9025" y="15655"><tspan font-family="Times New Roman, serif" font-size="494px" font-style="italic" font-weight="400" lengthAdjust="spacingAndGlyphs" textLength="352" fill="rgb(0,0,0)" stroke="none" style="white-space: pre">m</tspan></tspan></tspan></text>
        <text class="SVGTextShape"><tspan class="TextParagraph"><tspan class="TextPosition" x="6851" y="15271"><tspan font-family="Times New Roman, serif" font-size="494px" font-style="italic" font-weight="400" lengthAdjust="spacingAndGlyphs" textLength="351" fill="rgb(0,0,0)" stroke="none" style="white-space: pre">ie</tspan></tspan></tspan></text>
        <text class="SVGTextShape"><tspan class="TextParagraph"><tspan class="TextPosition" x="6023" y="15271"><tspan font-family="Times New Roman, serif" font-size="494px" font-style="italic" font-weight="400" lengthAdjust="spacingAndGlyphs" textLength="216" fill="rgb(0,0,0)" stroke="none" style="white-space: pre">e</tspan></tspan></tspan></text>
        <text class="SVGTextShape"><tspan class="TextParagraph"><tspan class="TextPosition" x="5025" y="15271"><tspan font-family="Times New Roman, serif" font-size="494px" font-style="italic" font-weight="400" lengthAdjust="spacingAndGlyphs" textLength="243" fill="rgb(0,0,0)" stroke="none" style="white-space: pre">p</tspan></tspan></tspan></text>
        <text class="SVGTextShape"><tspan class="TextParagraph"><tspan class="TextPosition" x="4516" y="15655"><tspan font-family="Times New Roman, serif" font-size="494px" font-style="italic" font-weight="400" lengthAdjust="spacingAndGlyphs" textLength="352" fill="rgb(0,0,0)" stroke="none" style="white-space: pre">m</tspan></tspan></tspan></text>
        <text class="SVGTextShape"><tspan class="TextParagraph"><tspan class="TextPosition" x="15377" y="13814"><tspan font-family="Times New Roman, serif" font-size="494px" font-style="italic" font-weight="400" lengthAdjust="spacingAndGlyphs" textLength="243" fill="rgb(0,0,0)" stroke="none" style="white-space: pre">d</tspan></tspan></tspan></text>
        <text class="SVGTextShape"><tspan class="TextParagraph"><tspan class="TextPosition" x="15276" y="13122"><tspan font-family="Times New Roman, serif" font-size="494px" font-style="italic" font-weight="400" lengthAdjust="spacingAndGlyphs" textLength="459" fill="rgb(0,0,0)" stroke="none" style="white-space: pre">de</tspan></tspan></tspan></text>
        <text class="SVGTextShape"><tspan class="TextParagraph"><tspan class="TextPosition" x="14492" y="13430"><tspan font-family="Times New Roman, serif" font-size="494px" font-style="italic" font-weight="400" lengthAdjust="spacingAndGlyphs" textLength="216" fill="rgb(0,0,0)" stroke="none" style="white-space: pre">e</tspan></tspan></tspan></text>
        <text class="SVGTextShape"><tspan class="TextParagraph"><tspan class="TextPosition" x="13386" y="13430"><tspan font-family="Times New Roman, serif" font-size="494px" font-style="italic" font-weight="400" lengthAdjust="spacingAndGlyphs" textLength="243" fill="rgb(0,0,0)" stroke="none" style="white-space: pre">p</tspan></tspan></tspan></text>
        <text class="SVGTextShape"><tspan class="TextParagraph"><tspan class="TextPosition" x="12878" y="13814"><tspan font-family="Times New Roman, serif" font-size="494px" font-style="italic" font-weight="400" lengthAdjust="spacingAndGlyphs" textLength="352" fill="rgb(0,0,0)" stroke="none" style="white-space: pre">m</tspan></tspan></tspan></text>
        <text class="SVGTextShape"><tspan class="TextParagraph"><tspan class="TextPosition" x="7175" y="13430"><tspan font-family="Times New Roman, serif" font-size="494px" font-style="italic" font-weight="400" lengthAdjust="spacingAndGlyphs" textLength="216" fill="rgb(0,0,0)" stroke="none" style="white-space: pre">e</tspan></tspan></tspan></text>
        <text class="SVGTextShape"><tspan class="TextParagraph"><tspan class="TextPosition" x="6023" y="13430"><tspan font-family="Times New Roman, serif" font-size="494px" font-style="italic" font-weight="400" lengthAdjust="spacingAndGlyphs" textLength="216" fill="rgb(0,0,0)" stroke="none" style="white-space: pre">e</tspan></tspan></tspan></text>
        <text class="SVGTextShape"><tspan class="TextParagraph"><tspan class="TextPosition" x="5025" y="13430"><tspan font-family="Times New Roman, serif" font-size="494px" font-style="italic" font-weight="400" lengthAdjust="spacingAndGlyphs" textLength="243" fill="rgb(0,0,0)" stroke="none" style="white-space: pre">p</tspan></tspan></tspan></text>
        <text class="SVGTextShape"><tspan class="TextParagraph"><tspan class="TextPosition" x="4516" y="13814"><tspan font-family="Times New Roman, serif" font-size="494px" font-style="italic" font-weight="400" lengthAdjust="spacingAndGlyphs" textLength="352" fill="rgb(0,0,0)" stroke="none" style="white-space: pre">m</tspan></tspan></tspan></text>
        <text class="SVGTextShape"><tspan class="TextParagraph"><tspan class="TextPosition" x="7233" y="15050"><tspan font-family="Times New Roman, serif" font-size="247px" font-style="italic" font-weight="400" lengthAdjust="spacingAndGlyphs" textLength="71" fill="rgb(0,0,0)" stroke="none" style="white-space: pre">i</tspan></tspan></tspan></text>
        <text class="SVGTextShape"><tspan class="TextParagraph"><tspan class="TextPosition" x="6416" y="15050"><tspan font-family="Times New Roman, serif" font-size="247px" font-style="italic" font-weight="400" lengthAdjust="spacingAndGlyphs" textLength="71" fill="rgb(0,0,0)" stroke="none" style="white-space: pre">i</tspan></tspan></tspan></text>
        <text class="SVGTextShape"><tspan class="TextParagraph"><tspan class="TextPosition" x="15765" y="12900"><tspan font-family="Times New Roman, serif" font-size="247px" font-style="italic" font-weight="400" lengthAdjust="spacingAndGlyphs" textLength="71" fill="rgb(0,0,0)" stroke="none" style="white-space: pre">i</tspan></tspan></tspan></text>
        <text class="SVGTextShape"><tspan class="TextParagraph"><tspan class="TextPosition" x="14884" y="13209"><tspan font-family="Times New Roman, serif" font-size="247px" font-style="italic" font-weight="400" lengthAdjust="spacingAndGlyphs" textLength="71" fill="rgb(0,0,0)" stroke="none" style="white-space: pre">i</tspan></tspan></tspan></text>
        <text class="SVGTextShape"><tspan class="TextParagraph"><tspan class="TextPosition" x="7418" y="13209"><tspan font-family="Times New Roman, serif" font-size="247px" font-style="italic" font-weight="400" lengthAdjust="spacingAndGlyphs" textLength="71" fill="rgb(0,0,0)" stroke="none" style="white-space: pre">i</tspan></tspan></tspan></text>
        <text class="SVGTextShape"><tspan class="TextParagraph"><tspan class="TextPosition" x="6416" y="13209"><tspan font-family="Times New Roman, serif" font-size="247px" font-style="italic" font-weight="400" lengthAdjust="spacingAndGlyphs" textLength="71" fill="rgb(0,0,0)" stroke="none" style="white-space: pre">i</tspan></tspan></tspan></text>
        <g class="OutlinedText"><path d="M 356,1126 L 379,1210 C 392,1262 393,1292 381,1300 369,1309 332,1313 270,1313 L 270,1350 567,1401 C 567,1368 563,1335 555,1303 L 506,1126 799,1126 799,1044 483,1044 326,471 C 465,699 605,843 745,903 815,933 868,917 903,856 928,815 932,768 917,716 L 782,223 C 764,163 756,121 756,97 756,73 775,68 815,82 838,90 864,115 892,156 920,196 936,219 942,223 957,237 965,237 966,224 968,211 961,194 946,174 909,122 876,82 848,52 819,23 784,1 741,-14 699,-29 662,-23 631,5 599,33 594,84 614,158 L 766,701 C 781,755 777,790 754,805 728,820 699,818 667,799 591,752 509,664 423,533 336,401 275,274 240,150 L 199,0 47,0 334,1044 123,1044 129,1126 356,1126 Z " transform="translate(12094,14963) scale(0.241,-0.241)" fill="rgb(0,0,0)" stroke="none"/></g><g class="OutlinedText"><path d="M 356,1126 L 379,1210 C 392,1262 393,1292 381,1300 369,1309 332,1313 270,1313 L 270,1350 567,1401 C 567,1368 563,1335 555,1303 L 506,1126 799,1126 799,1044 483,1044 326,471 C 465,699 605,843 745,903 815,933 868,917 903,856 928,815 932,768 917,716 L 782,223 C 764,163 756,121 756,97 756,73 775,68 815,82 838,90 864,115 892,156 920,196 936,219 942,223 957,237 965,237 966,224 968,211 961,194 946,174 909,122 876,82 848,52 819,23 784,1 741,-14 699,-29 662,-23 631,5 599,33 594,84 614,158 L 766,701 C 781,755 777,790 754,805 728,820 699,818 667,799 591,752 509,664 423,533 336,401 275,274 240,150 L 199,0 47,0 334,1044 123,1044 129,1126 356,1126 Z " transform="translate(9071,14963) scale(0.241,-0.241)" fill="rgb(0,0,0)" stroke="none"/></g><g class="OutlinedText"><path d="M 356,1126 L 379,1210 C 392,1262 393,1292 381,1300 369,1309 332,1313 270,1313 L 270,1350 567,1401 C 567,1368 563,1335 555,1303 L 506,1126 799,1126 799,1044 483,1044 326,471 C 465,699 605,843 745,903 815,933 868,917 903,856 928,815 932,768 917,716 L 782,223 C 764,163 756,121 756,97 756,73 775,68 815,82 838,90 864,115 892,156 920,196 936,219 942,223 957,237 965,237 966,224 968,211 961,194 946,174 909,122 876,82 848,52 819,23 784,1 741,-14 699,-29 662,-23 631,5 599,33 594,84 614,158 L 766,701 C 781,755 777,790 754,805 728,820 699,818 667,799 591,752 509,664 423,533 336,401 275,274 240,150 L 199,0 47,0 334,1044 123,1044 129,1126 356,1126 Z " transform="translate(4563,14963) scale(0.241,-0.241)" fill="rgb(0,0,0)" stroke="none"/></g><g class="OutlinedText"><path d="M 356,1126 L 379,1210 C 392,1262 393,1292 381,1300 369,1309 332,1313 270,1313 L 270,1350 567,1401 C 567,1368 563,1335 555,1303 L 506,1126 799,1126 799,1044 483,1044 326,471 C 465,699 605,843 745,903 815,933 868,917 903,856 928,815 932,768 917,716 L 782,223 C 764,163 756,121 756,97 756,73 775,68 815,82 838,90 864,115 892,156 920,196 936,219 942,223 957,237 965,237 966,224 968,211 961,194 946,174 909,122 876,82 848,52 819,23 784,1 741,-14 699,-29 662,-23 631,5 599,33 594,84 614,158 L 766,701 C 781,755 777,790 754,805 728,820 699,818 667,799 591,752 509,664 423,533 336,401 275,274 240,150 L 199,0 47,0 334,1044 123,1044 129,1126 356,1126 Z " transform="translate(12924,13122) scale(0.241,-0.241)" fill="rgb(0,0,0)" stroke="none"/></g><g class="OutlinedText"><path d="M 356,1126 L 379,1210 C 392,1262 393,1292 381,1300 369,1309 332,1313 270,1313 L 270,1350 567,1401 C 567,1368 563,1335 555,1303 L 506,1126 799,1126 799,1044 483,1044 326,471 C 465,699 605,843 745,903 815,933 868,917 903,856 928,815 932,768 917,716 L 782,223 C 764,163 756,121 756,97 756,73 775,68 815,82 838,90 864,115 892,156 920,196 936,219 942,223 957,237 965,237 966,224 968,211 961,194 946,174 909,122 876,82 848,52 819,23 784,1 741,-14 699,-29 662,-23 631,5 599,33 594,84 614,158 L 766,701 C 781,755 777,790 754,805 728,820 699,818 667,799 591,752 509,664 423,533 336,401 275,274 240,150 L 199,0 47,0 334,1044 123,1044 129,1126 356,1126 Z " transform="translate(4563,13122) scale(0.241,-0.241)" fill="rgb(0,0,0)" stroke="none"/></g><text class="SVGTextShape"><tspan class="TextParagraph"><tspan class="TextPosition" x="9844" y="15271"><tspan font-family="Times New Roman, serif" font-size="494px" font-weight="400" lengthAdjust="spacingAndGlyphs" textLength="541" fill="rgb(0,0,0)" stroke="none" style="white-space: pre">Im</tspan></tspan></tspan></text>
        <text class="SVGTextShape"><tspan class="TextParagraph"><tspan class="TextPosition" x="5335" y="15271"><tspan font-family="Times New Roman, serif" font-size="494px" font-weight="400" lengthAdjust="spacingAndGlyphs" textLength="541" fill="rgb(0,0,0)" stroke="none" style="white-space: pre">Im</tspan></tspan></tspan></text>
        <text class="SVGTextShape"><tspan class="TextParagraph"><tspan class="TextPosition" x="13697" y="13430"><tspan font-family="Times New Roman, serif" font-size="494px" font-weight="400" lengthAdjust="spacingAndGlyphs" textLength="541" fill="rgb(0,0,0)" stroke="none" style="white-space: pre">Im</tspan></tspan></tspan></text>
        <text class="SVGTextShape"><tspan class="TextParagraph"><tspan class="TextPosition" x="5335" y="13430"><tspan font-family="Times New Roman, serif" font-size="494px" font-weight="400" lengthAdjust="spacingAndGlyphs" textLength="541" fill="rgb(0,0,0)" stroke="none" style="white-space: pre">Im</tspan></tspan></tspan></text>
        <text class="SVGTextShape"><tspan class="TextParagraph"><tspan class="TextPosition" x="10774" y="14171"><tspan font-family="Times New Roman, serif" font-size="353px" font-weight="400" lengthAdjust="spacingAndGlyphs" textLength="1379" fill="rgb(0,0,0)" stroke="none" style="white-space: pre">composte</tspan></tspan></tspan></text>
        <text class="SVGTextShape"><tspan class="TextParagraph"><tspan class="TextPosition" x="10696" y="14171"><tspan font-family="Times New Roman, serif" font-size="353px" font-weight="400" lengthAdjust="spacingAndGlyphs" textLength="90" fill="rgb(0,0,0)" stroke="none" style="white-space: pre"> </tspan></tspan></tspan></text>
        <text class="SVGTextShape"><tspan class="TextParagraph"><tspan class="TextPosition" x="9533" y="14171"><tspan font-family="Times New Roman, serif" font-size="353px" font-weight="400" lengthAdjust="spacingAndGlyphs" textLength="1199" fill="rgb(0,0,0)" stroke="none" style="white-space: pre">funzioni</tspan></tspan></tspan></text>
        <text class="SVGTextShape"><tspan class="TextParagraph"><tspan class="TextPosition" x="9456" y="14171"><tspan font-family="Times New Roman, serif" font-size="353px" font-weight="400" lengthAdjust="spacingAndGlyphs" textLength="90" fill="rgb(0,0,0)" stroke="none" style="white-space: pre"> </tspan></tspan></tspan></text>
        <text class="SVGTextShape"><tspan class="TextParagraph"><tspan class="TextPosition" x="8797" y="14171"><tspan font-family="Times New Roman, serif" font-size="353px" font-weight="400" lengthAdjust="spacingAndGlyphs" textLength="699" fill="rgb(0,0,0)" stroke="none" style="white-space: pre">delle</tspan></tspan></tspan></text>
        <text class="SVGTextShape"><tspan class="TextParagraph"><tspan class="TextPosition" x="8720" y="14171"><tspan font-family="Times New Roman, serif" font-size="353px" font-weight="400" lengthAdjust="spacingAndGlyphs" textLength="90" fill="rgb(0,0,0)" stroke="none" style="white-space: pre"> </tspan></tspan></tspan></text>
        <text class="SVGTextShape"><tspan class="TextParagraph"><tspan class="TextPosition" x="10864" y="13430"><tspan font-family="Times New Roman, serif" font-size="353px" font-weight="400" lengthAdjust="spacingAndGlyphs" textLength="1159" fill="rgb(0,0,0)" stroke="none" style="white-space: pre">derivata</tspan></tspan></tspan></text>
        <text class="SVGTextShape"><tspan class="TextParagraph"><tspan class="TextPosition" x="10787" y="13430"><tspan font-family="Times New Roman, serif" font-size="353px" font-weight="400" lengthAdjust="spacingAndGlyphs" textLength="90" fill="rgb(0,0,0)" stroke="none" style="white-space: pre"> </tspan></tspan></tspan></text>
        <text class="SVGTextShape"><tspan class="TextParagraph"><tspan class="TextPosition" x="10534" y="13430"><tspan font-family="Times New Roman, serif" font-size="353px" font-weight="400" lengthAdjust="spacingAndGlyphs" textLength="260" fill="rgb(0,0,0)" stroke="none" style="white-space: pre">la</tspan></tspan></tspan></text>
        <text class="SVGTextShape"><tspan class="TextParagraph"><tspan class="TextPosition" x="10011" y="13430"><tspan font-family="Times New Roman, serif" font-size="353px" font-weight="400" lengthAdjust="spacingAndGlyphs" textLength="549" fill="rgb(0,0,0)" stroke="none" style="white-space: pre">per </tspan></tspan></tspan></text>
        <text class="SVGTextShape"><tspan class="TextParagraph"><tspan class="TextPosition" x="9928" y="13430"><tspan font-family="Times New Roman, serif" font-size="353px" font-weight="400" lengthAdjust="spacingAndGlyphs" textLength="90" fill="rgb(0,0,0)" stroke="none" style="white-space: pre"> </tspan></tspan></tspan></text>
        <text class="SVGTextShape"><tspan class="TextParagraph"><tspan class="TextPosition" x="8821" y="13430"><tspan font-family="Times New Roman, serif" font-size="353px" font-weight="400" lengthAdjust="spacingAndGlyphs" textLength="1139" fill="rgb(0,0,0)" stroke="none" style="white-space: pre">formula</tspan></tspan></tspan></text>
        <text class="SVGTextShape"><tspan class="TextParagraph"><tspan class="TextPosition" x="11341" y="12690"><tspan font-family="Times New Roman, serif" font-size="353px" font-weight="400" lengthAdjust="spacingAndGlyphs" textLength="90" fill="rgb(0,0,0)" stroke="none" style="white-space: pre"> </tspan></tspan></tspan></text>
        <text class="SVGTextShape"><tspan class="TextParagraph"><tspan class="TextPosition" x="11089" y="12690"><tspan font-family="Times New Roman, serif" font-size="353px" font-weight="400" lengthAdjust="spacingAndGlyphs" textLength="260" fill="rgb(0,0,0)" stroke="none" style="white-space: pre">la</tspan></tspan></tspan></text>
        <text class="SVGTextShape"><tspan class="TextParagraph"><tspan class="TextPosition" x="11012" y="12690"><tspan font-family="Times New Roman, serif" font-size="353px" font-weight="400" lengthAdjust="spacingAndGlyphs" textLength="90" fill="rgb(0,0,0)" stroke="none" style="white-space: pre"> </tspan></tspan></tspan></text>
        <text class="SVGTextShape"><tspan class="TextParagraph"><tspan class="TextPosition" x="9392" y="12690"><tspan font-family="Times New Roman, serif" font-size="353px" font-weight="400" lengthAdjust="spacingAndGlyphs" textLength="1679" fill="rgb(0,0,0)" stroke="none" style="white-space: pre">Applicando</tspan></tspan></tspan></text>
       </g>
      </g>
     </g>
    </g>
   </g>
  </g>
 </g>
</svg>