<?xml version='1.0' encoding='UTF-8'?>
<!DOCTYPE svg PUBLIC "-//W3C//DTD SVG 1.1//EN" "http://www.w3.org/Graphics/SVG/1.1/DTD/svg11.dtd">
<svg xmlns="http://www.w3.org/2000/svg" xmlns:ooo="http://xml.openoffice.org/svg/export" xmlns:xlink="http://www.w3.org/1999/xlink" xmlns:presentation="http://sun.com/xmlns/staroffice/presentation" xmlns:smil="http://www.w3.org/2001/SMIL20/" xmlns:anim="urn:oasis:names:tc:opendocument:xmlns:animation:1.0" xmlns:svg="urn:oasis:names:tc:opendocument:xmlns:svg-compatible:1.0" version="1.2" width="98.430mm" height="34.220mm" viewBox="5873 12259 9843 3422" preserveAspectRatio="xMidYMid" fill-rule="evenodd" stroke-width="28.222" stroke-linejoin="round" xml:space="preserve">
 <defs class="ClipPathGroup">
  <clipPath id="presentation_clip_path" clipPathUnits="userSpaceOnUse">
   <rect x="0" y="0" width="21590" height="27940"/>
  </clipPath>
  <clipPath id="presentation_clip_path_shrink" clipPathUnits="userSpaceOnUse">
   <rect x="21" y="27" width="21547" height="27885"/>
  </clipPath>
 </defs>
 <defs>
  </defs>
 <defs>
  </defs>
 <defs>
  </defs>
 <defs>
  </defs>
 <defs>
  </defs>
 <defs class="TextShapeIndex">
  <g ooo:slide="id1" ooo:id-list="id3"/>
 </defs>
 <defs class="EmbeddedBulletChars">
  <g id="bullet-char-template-57356" transform="scale(0.00048828125,-0.00048828125)">
   <path d="M 580,1141 L 1163,571 580,0 -4,571 580,1141 Z"/>
  </g>
  <g id="bullet-char-template-57354" transform="scale(0.00048828125,-0.00048828125)">
   <path d="M 8,1128 L 1137,1128 1137,0 8,0 8,1128 Z"/>
  </g>
  <g id="bullet-char-template-10146" transform="scale(0.00048828125,-0.00048828125)">
   <path d="M 174,0 L 602,739 174,1481 1456,739 174,0 Z M 1358,739 L 309,1346 659,739 1358,739 Z"/>
  </g>
  <g id="bullet-char-template-10132" transform="scale(0.00048828125,-0.00048828125)">
   <path d="M 2015,739 L 1276,0 717,0 1260,543 174,543 174,936 1260,936 717,1481 1274,1481 2015,739 Z"/>
  </g>
  <g id="bullet-char-template-10007" transform="scale(0.00048828125,-0.00048828125)">
   <path d="M 0,-2 C -7,14 -16,27 -25,37 L 356,567 C 262,823 215,952 215,954 215,979 228,992 255,992 264,992 276,990 289,987 310,991 331,999 354,1012 L 381,999 492,748 772,1049 836,1024 860,1049 C 881,1039 901,1025 922,1006 886,937 835,863 770,784 769,783 710,716 594,584 L 774,223 C 774,196 753,168 711,139 L 727,119 C 717,90 699,76 672,76 641,76 570,178 457,381 L 164,-76 C 142,-110 111,-127 72,-127 30,-127 9,-110 8,-76 1,-67 -2,-52 -2,-32 -2,-23 -1,-13 0,-2 Z"/>
  </g>
  <g id="bullet-char-template-10004" transform="scale(0.00048828125,-0.00048828125)">
   <path d="M 285,-33 C 182,-33 111,30 74,156 52,228 41,333 41,471 41,549 55,616 82,672 116,743 169,778 240,778 293,778 328,747 346,684 L 369,508 C 377,444 397,411 428,410 L 1163,1116 C 1174,1127 1196,1133 1229,1133 1271,1133 1292,1118 1292,1087 L 1292,965 C 1292,929 1282,901 1262,881 L 442,47 C 390,-6 338,-33 285,-33 Z"/>
  </g>
  <g id="bullet-char-template-9679" transform="scale(0.00048828125,-0.00048828125)">
   <path d="M 813,0 C 632,0 489,54 383,161 276,268 223,411 223,592 223,773 276,916 383,1023 489,1130 632,1184 813,1184 992,1184 1136,1130 1245,1023 1353,916 1407,772 1407,592 1407,412 1353,268 1245,161 1136,54 992,0 813,0 Z"/>
  </g>
  <g id="bullet-char-template-8226" transform="scale(0.00048828125,-0.00048828125)">
   <path d="M 346,457 C 273,457 209,483 155,535 101,586 74,649 74,723 74,796 101,859 155,911 209,963 273,989 346,989 419,989 480,963 531,910 582,859 608,796 608,723 608,648 583,586 532,535 482,483 420,457 346,457 Z"/>
  </g>
  <g id="bullet-char-template-8211" transform="scale(0.00048828125,-0.00048828125)">
   <path d="M -4,459 L 1135,459 1135,606 -4,606 -4,459 Z"/>
  </g>
  <g id="bullet-char-template-61548" transform="scale(0.00048828125,-0.00048828125)">
   <path d="M 173,740 C 173,903 231,1043 346,1159 462,1274 601,1332 765,1332 928,1332 1067,1274 1183,1159 1299,1043 1357,903 1357,740 1357,577 1299,437 1183,322 1067,206 928,148 765,148 601,148 462,206 346,322 231,437 173,577 173,740 Z"/>
  </g>
 </defs>
 <g>
  <g id="id2" class="Master_Slide">
   <g id="bg-id2" class="Background"/>
   <g id="bo-id2" class="BackgroundObjects"/>
  </g>
 </g>
 <g class="SlideGroup">
  <g>
   <g id="container-id1">
    <g id="id1" class="Slide" clip-path="url(#presentation_clip_path)">
     <g class="Page">
      <g class="Graphic">
       <g id="id3">
        <rect class="BoundingBox" stroke="none" fill="none" x="5873" y="12259" width="9843" height="3422"/>
        <path fill="none" stroke="rgb(0,0,0)" stroke-width="18" stroke-linejoin="round" stroke-linecap="round" d="M 6471,12766 L 6662,12766 "/>
        <g class="OutlinedText"><path d="M 636,-399 L 636,-442 C 462,-355 327,-228 230,-60 133,107 84,291 84,490 84,697 135,886 237,1057 339,1227 472,1349 636,1422 L 636,1380 C 554,1335 487,1273 434,1194 381,1115 342,1016 316,895 290,774 277,647 277,516 277,367 289,233 313,113 337,-7 374,-106 423,-185 472,-264 543,-336 636,-399 Z " transform="translate(6280,13065) scale(0.313,-0.313)" fill="rgb(0,0,0)" stroke="none"/></g><g class="OutlinedText"><path d="M 45,1380 L 45,1422 C 219,1336 355,1209 452,1042 549,874 597,690 597,491 597,284 546,95 444,-76 342,-247 209,-369 45,-442 L 45,-399 C 128,-354 195,-292 248,-213 301,-134 340,-35 366,86 391,207 404,333 404,465 404,613 392,747 369,868 345,988 308,1088 259,1167 209,1246 138,1317 45,1380 Z " transform="translate(6701,13065) scale(0.313,-0.313)" fill="rgb(0,0,0)" stroke="none"/></g><path fill="none" stroke="rgb(0,0,0)" stroke-width="18" stroke-linejoin="round" stroke-linecap="round" d="M 8451,12943 L 9054,12943 "/>
        <path fill="none" stroke="rgb(0,0,0)" stroke-width="9" stroke-linejoin="round" stroke-linecap="round" d="M 11019,12368 L 11115,12368 "/>
        <g class="OutlinedText"><path d="M 636,-399 L 636,-442 C 462,-355 327,-228 230,-60 133,107 84,291 84,490 84,697 135,886 237,1057 339,1227 472,1349 636,1422 L 636,1380 C 554,1335 487,1273 434,1194 381,1115 342,1016 316,895 290,774 277,647 277,516 277,367 289,233 313,113 337,-7 374,-106 423,-185 472,-264 543,-336 636,-399 Z " transform="translate(10619,12532) scale(0.156,-0.156)" fill="rgb(0,0,0)" stroke="none"/></g><g class="OutlinedText"><path d="M 45,1380 L 45,1422 C 219,1336 355,1209 452,1042 549,874 597,690 597,491 597,284 546,95 444,-76 342,-247 209,-369 45,-442 L 45,-399 C 128,-354 195,-292 248,-213 301,-134 340,-35 366,86 391,207 404,333 404,465 404,613 392,747 369,868 345,988 308,1088 259,1167 209,1246 138,1317 45,1380 Z " transform="translate(11405,12532) scale(0.156,-0.156)" fill="rgb(0,0,0)" stroke="none"/></g><path fill="none" stroke="rgb(0,0,0)" stroke-width="18" stroke-linejoin="round" stroke-linecap="round" d="M 10127,12943 L 11555,12943 "/>
        <path fill="none" stroke="rgb(0,0,0)" stroke-width="18" stroke-linejoin="round" stroke-linecap="round" d="M 11651,12943 L 12562,12943 "/>
        <g class="OutlinedText"><path d="M 636,-399 L 636,-442 C 462,-355 327,-228 230,-60 133,107 84,291 84,490 84,697 135,886 237,1057 339,1227 472,1349 636,1422 L 636,1380 C 554,1335 487,1273 434,1194 381,1115 342,1016 316,895 290,774 277,647 277,516 277,367 289,233 313,113 337,-7 374,-106 423,-185 472,-264 543,-336 636,-399 Z " transform="translate(12979,13065) scale(0.313,-0.313)" fill="rgb(0,0,0)" stroke="none"/></g><g class="OutlinedText"><path d="M 45,1380 L 45,1422 C 219,1336 355,1209 452,1042 549,874 597,690 597,491 597,284 546,95 444,-76 342,-247 209,-369 45,-442 L 45,-399 C 128,-354 195,-292 248,-213 301,-134 340,-35 366,86 391,207 404,333 404,465 404,613 392,747 369,868 345,988 308,1088 259,1167 209,1246 138,1317 45,1380 Z " transform="translate(13498,13065) scale(0.313,-0.313)" fill="rgb(0,0,0)" stroke="none"/></g><path fill="none" stroke="rgb(0,0,0)" stroke-width="9" stroke-linejoin="round" stroke-linecap="round" d="M 14062,12679 L 14220,12679 "/>
        <path fill="none" stroke="rgb(0,0,0)" stroke-width="18" stroke-linejoin="round" stroke-linecap="round" d="M 7426,14691 L 8450,14691 "/>
        <path fill="none" stroke="rgb(0,0,0)" stroke-width="18" stroke-linejoin="round" stroke-linecap="round" d="M 8545,14691 L 9196,14691 "/>
        <path fill="none" stroke="rgb(0,0,0)" stroke-width="9" stroke-linejoin="round" stroke-linecap="round" d="M 10518,14428 L 10675,14428 "/>
        <g class="OutlinedText"><path d="M 636,-399 L 636,-442 C 462,-355 327,-228 230,-60 133,107 84,291 84,490 84,697 135,886 237,1057 339,1227 472,1349 636,1422 L 636,1380 C 554,1335 487,1273 434,1194 381,1115 342,1016 316,895 290,774 277,647 277,516 277,367 289,233 313,113 337,-7 374,-106 423,-185 472,-264 543,-336 636,-399 Z " transform="translate(10775,14592) scale(0.156,-0.156)" fill="rgb(0,0,0)" stroke="none"/></g><g class="OutlinedText"><path d="M 45,1380 L 45,1422 C 219,1336 355,1209 452,1042 549,874 597,690 597,491 597,284 546,95 444,-76 342,-247 209,-369 45,-442 L 45,-399 C 128,-354 195,-292 248,-213 301,-134 340,-35 366,86 391,207 404,333 404,465 404,613 392,747 369,868 345,988 308,1088 259,1167 209,1246 138,1317 45,1380 Z " transform="translate(11305,14592) scale(0.156,-0.156)" fill="rgb(0,0,0)" stroke="none"/></g><g class="OutlinedText"><path d="M 636,-399 L 636,-442 C 462,-355 327,-228 230,-60 133,107 84,291 84,490 84,697 135,886 237,1057 339,1227 472,1349 636,1422 L 636,1380 C 554,1335 487,1273 434,1194 381,1115 342,1016 316,895 290,774 277,647 277,516 277,367 289,233 313,113 337,-7 374,-106 423,-185 472,-264 543,-336 636,-399 Z " transform="translate(11740,14813) scale(0.313,-0.313)" fill="rgb(0,0,0)" stroke="none"/></g><g class="OutlinedText"><path d="M 45,1380 L 45,1422 C 219,1336 355,1209 452,1042 549,874 597,690 597,491 597,284 546,95 444,-76 342,-247 209,-369 45,-442 L 45,-399 C 128,-354 195,-292 248,-213 301,-134 340,-35 366,86 391,207 404,333 404,465 404,613 392,747 369,868 345,988 308,1088 259,1167 209,1246 138,1317 45,1380 Z " transform="translate(12260,14813) scale(0.313,-0.313)" fill="rgb(0,0,0)" stroke="none"/></g><g class="OutlinedText"><path d="M 1517,0 L 950,0 974,279 C 1068,318 1137,374 1182,447 1226,520 1248,622 1248,753 1248,934 1204,1074 1116,1171 1027,1268 916,1316 782,1316 653,1316 543,1267 454,1169 365,1070 320,936 320,767 320,634 343,527 389,448 434,369 503,312 595,279 L 620,0 56,0 56,279 91,279 C 93,238 104,211 123,196 153,173 199,161 260,161 L 530,161 530,231 C 390,272 282,341 206,440 129,539 91,655 91,789 91,957 153,1099 278,1214 402,1329 570,1387 782,1387 912,1387 1032,1363 1141,1314 1250,1265 1334,1193 1393,1099 1452,1005 1481,902 1481,789 1481,651 1441,531 1360,429 1279,326 1173,260 1042,231 L 1034,161 1309,161 C 1370,161 1413,170 1437,189 1461,208 1475,238 1479,279 L 1517,279 1517,0 Z " transform="translate(12606,14814) scale(0.241,-0.241)" fill="rgb(0,0,0)" stroke="none"/></g><g class="OutlinedText"><path d="M 121,803 L 152,1099 C 161,1183 169,1240 178,1269 191,1311 209,1341 232,1360 255,1378 280,1387 309,1387 333,1387 352,1380 366,1367 380,1354 387,1337 387,1316 387,1300 384,1283 377,1265 368,1240 344,1184 303,1098 L 165,803 121,803 Z " transform="translate(13001,14785) scale(0.241,-0.241)" fill="rgb(0,0,0)" stroke="none"/></g><g class="OutlinedText"><path d="M 121,803 L 152,1099 C 161,1183 169,1240 178,1269 191,1311 209,1341 232,1360 255,1378 280,1387 309,1387 333,1387 352,1380 366,1367 380,1354 387,1337 387,1316 387,1300 384,1283 377,1265 368,1240 344,1184 303,1098 L 165,803 121,803 Z " transform="translate(12130,14785) scale(0.241,-0.241)" fill="rgb(0,0,0)" stroke="none"/></g><g class="OutlinedText"><path d="M 37,576 L 1087,576 1087,477 37,477 37,576 Z " transform="translate(7045,14814) scale(0.241,-0.241)" fill="rgb(0,0,0)" stroke="none"/></g><g class="OutlinedText"><path d="M 37,759 L 1087,759 1087,662 37,662 37,759 Z M 37,386 L 1087,386 1087,287 37,287 37,386 Z " transform="translate(5936,14814) scale(0.241,-0.241)" fill="rgb(0,0,0)" stroke="none"/></g><g class="OutlinedText"><path d="M 37,759 L 1087,759 1087,662 37,662 37,759 Z M 37,386 L 1087,386 1087,287 37,287 37,386 Z " transform="translate(15373,13066) scale(0.241,-0.241)" fill="rgb(0,0,0)" stroke="none"/></g><g class="OutlinedText"><path d="M 1517,0 L 950,0 974,279 C 1068,318 1137,374 1182,447 1226,520 1248,622 1248,753 1248,934 1204,1074 1116,1171 1027,1268 916,1316 782,1316 653,1316 543,1267 454,1169 365,1070 320,936 320,767 320,634 343,527 389,448 434,369 503,312 595,279 L 620,0 56,0 56,279 91,279 C 93,238 104,211 123,196 153,173 199,161 260,161 L 530,161 530,231 C 390,272 282,341 206,440 129,539 91,655 91,789 91,957 153,1099 278,1214 402,1329 570,1387 782,1387 912,1387 1032,1363 1141,1314 1250,1265 1334,1193 1393,1099 1452,1005 1481,902 1481,789 1481,651 1441,531 1360,429 1279,326 1173,260 1042,231 L 1034,161 1309,161 C 1370,161 1413,170 1437,189 1461,208 1475,238 1479,279 L 1517,279 1517,0 Z " transform="translate(14735,13066) scale(0.241,-0.241)" fill="rgb(0,0,0)" stroke="none"/></g><g class="OutlinedText"><path d="M 121,803 L 152,1099 C 161,1183 169,1240 178,1269 191,1311 209,1341 232,1360 255,1378 280,1387 309,1387 333,1387 352,1380 366,1367 380,1354 387,1337 387,1316 387,1300 384,1283 377,1265 368,1240 344,1184 303,1098 L 165,803 121,803 Z " transform="translate(15129,13036) scale(0.241,-0.241)" fill="rgb(0,0,0)" stroke="none"/></g><g class="OutlinedText"><path d="M 121,803 L 152,1099 C 161,1183 169,1240 178,1269 191,1311 209,1341 232,1360 255,1378 280,1387 309,1387 333,1387 352,1380 366,1367 380,1354 387,1337 387,1316 387,1300 384,1283 377,1265 368,1240 344,1184 303,1098 L 165,803 121,803 Z " transform="translate(13368,13036) scale(0.241,-0.241)" fill="rgb(0,0,0)" stroke="none"/></g><g class="OutlinedText"><path d="M 37,576 L 1087,576 1087,477 37,477 37,576 Z " transform="translate(8069,13066) scale(0.241,-0.241)" fill="rgb(0,0,0)" stroke="none"/></g><g class="OutlinedText"><path d="M 37,759 L 1087,759 1087,662 37,662 37,759 Z M 37,386 L 1087,386 1087,287 37,287 37,386 Z " transform="translate(6960,13066) scale(0.241,-0.241)" fill="rgb(0,0,0)" stroke="none"/></g><g class="OutlinedText"><path d="M 201,948 C 213,1315 221,1515 224,1546 239,1670 266,1754 305,1798 343,1841 386,1863 435,1863 468,1863 498,1852 523,1830 548,1807 560,1783 560,1756 560,1725 551,1700 534,1681 516,1662 494,1652 468,1652 445,1652 419,1664 392,1688 377,1701 363,1708 352,1708 341,1708 331,1703 324,1694 316,1684 312,1667 312,1644 312,1616 315,1568 321,1499 346,1226 358,1004 358,834 358,789 353,593 342,246 337,49 307,-84 252,-153 216,-198 171,-220 118,-220 83,-220 55,-209 33,-186 11,-163 0,-134 0,-99 0,-69 9,-45 26,-27 43,-9 64,0 90,0 117,0 140,-11 159,-32 178,-53 195,-64 208,-64 219,-64 229,-59 236,-50 243,-41 247,-25 247,-3 247,25 244,65 238,117 213,327 201,604 201,948 Z " transform="translate(9463,14978) scale(0.345,-0.345)" fill="rgb(0,0,0)" stroke="none"/><path d="M 201,948 C 213,1315 221,1515 224,1546 239,1670 266,1754 305,1798 343,1841 386,1863 435,1863 468,1863 498,1852 523,1830 548,1807 560,1783 560,1756 560,1725 551,1700 534,1681 516,1662 494,1652 468,1652 445,1652 419,1664 392,1688 377,1701 363,1708 352,1708 341,1708 331,1703 324,1694 316,1684 312,1667 312,1644 312,1616 315,1568 321,1499 346,1226 358,1004 358,834 358,789 353,593 342,246 337,49 307,-84 252,-153 216,-198 171,-220 118,-220 83,-220 55,-209 33,-186 11,-163 0,-134 0,-99 0,-69 9,-45 26,-27 43,-9 64,0 90,0 117,0 140,-11 159,-32 178,-53 195,-64 208,-64 219,-64 229,-59 236,-50 243,-41 247,-25 247,-3 247,25 244,65 238,117 213,327 201,604 201,948 Z " transform="translate(9654.333,14978) scale(0.345,-0.345)" fill="rgb(0,0,0)" stroke="none"/><path d="M 201,948 C 213,1315 221,1515 224,1546 239,1670 266,1754 305,1798 343,1841 386,1863 435,1863 468,1863 498,1852 523,1830 548,1807 560,1783 560,1756 560,1725 551,1700 534,1681 516,1662 494,1652 468,1652 445,1652 419,1664 392,1688 377,1701 363,1708 352,1708 341,1708 331,1703 324,1694 316,1684 312,1667 312,1644 312,1616 315,1568 321,1499 346,1226 358,1004 358,834 358,789 353,593 342,246 337,49 307,-84 252,-153 216,-198 171,-220 118,-220 83,-220 55,-209 33,-186 11,-163 0,-134 0,-99 0,-69 9,-45 26,-27 43,-9 64,0 90,0 117,0 140,-11 159,-32 178,-53 195,-64 208,-64 219,-64 229,-59 236,-50 243,-41 247,-25 247,-3 247,25 244,65 238,117 213,327 201,604 201,948 Z " transform="translate(9845.667,14978) scale(0.345,-0.345)" fill="rgb(0,0,0)" stroke="none"/></g><g class="OutlinedText"><path d="M 201,948 C 213,1315 221,1515 224,1546 239,1670 266,1754 305,1798 343,1841 386,1863 435,1863 468,1863 498,1852 523,1830 548,1807 560,1783 560,1756 560,1725 551,1700 534,1681 516,1662 494,1652 468,1652 445,1652 419,1664 392,1688 377,1701 363,1708 352,1708 341,1708 331,1703 324,1694 316,1684 312,1667 312,1644 312,1616 315,1568 321,1499 346,1226 358,1004 358,834 358,789 353,593 342,246 337,49 307,-84 252,-153 216,-198 171,-220 118,-220 83,-220 55,-209 33,-186 11,-163 0,-134 0,-99 0,-69 9,-45 26,-27 43,-9 64,0 90,0 117,0 140,-11 159,-32 178,-53 195,-64 208,-64 219,-64 229,-59 236,-50 243,-41 247,-25 247,-3 247,25 244,65 238,117 213,327 201,604 201,948 Z " transform="translate(9320,13229) scale(0.345,-0.345)" fill="rgb(0,0,0)" stroke="none"/><path d="M 201,948 C 213,1315 221,1515 224,1546 239,1670 266,1754 305,1798 343,1841 386,1863 435,1863 468,1863 498,1852 523,1830 548,1807 560,1783 560,1756 560,1725 551,1700 534,1681 516,1662 494,1652 468,1652 445,1652 419,1664 392,1688 377,1701 363,1708 352,1708 341,1708 331,1703 324,1694 316,1684 312,1667 312,1644 312,1616 315,1568 321,1499 346,1226 358,1004 358,834 358,789 353,593 342,246 337,49 307,-84 252,-153 216,-198 171,-220 118,-220 83,-220 55,-209 33,-186 11,-163 0,-134 0,-99 0,-69 9,-45 26,-27 43,-9 64,0 90,0 117,0 140,-11 159,-32 178,-53 195,-64 208,-64 219,-64 229,-59 236,-50 243,-41 247,-25 247,-3 247,25 244,65 238,117 213,327 201,604 201,948 Z " transform="translate(9511.333,13229) scale(0.345,-0.345)" fill="rgb(0,0,0)" stroke="none"/><path d="M 201,948 C 213,1315 221,1515 224,1546 239,1670 266,1754 305,1798 343,1841 386,1863 435,1863 468,1863 498,1852 523,1830 548,1807 560,1783 560,1756 560,1725 551,1700 534,1681 516,1662 494,1652 468,1652 445,1652 419,1664 392,1688 377,1701 363,1708 352,1708 341,1708 331,1703 324,1694 316,1684 312,1667 312,1644 312,1616 315,1568 321,1499 346,1226 358,1004 358,834 358,789 353,593 342,246 337,49 307,-84 252,-153 216,-198 171,-220 118,-220 83,-220 55,-209 33,-186 11,-163 0,-134 0,-99 0,-69 9,-45 26,-27 43,-9 64,0 90,0 117,0 140,-11 159,-32 178,-53 195,-64 208,-64 219,-64 229,-59 236,-50 243,-41 247,-25 247,-3 247,25 244,65 238,117 213,327 201,604 201,948 Z " transform="translate(9702.667,13229) scale(0.345,-0.345)" fill="rgb(0,0,0)" stroke="none"/></g><g class="OutlinedText"><path d="M 37,576 L 1087,576 1087,477 37,477 37,576 Z " transform="translate(11008,14593) scale(0.121,-0.121)" fill="rgb(0,0,0)" stroke="none"/></g><g class="OutlinedText"><path d="M 366,524 C 366,493 355,467 334,446 312,424 286,413 256,413 225,413 199,424 178,446 156,467 145,493 145,524 145,555 156,581 178,603 199,624 225,635 256,635 286,635 312,624 334,603 355,581 366,555 366,524 Z " transform="translate(10710,14593) scale(0.121,-0.121)" fill="rgb(0,0,0)" stroke="none"/></g><g class="OutlinedText"><path d="M 121,803 L 152,1099 C 161,1183 169,1240 178,1269 191,1311 209,1341 232,1360 255,1378 280,1387 309,1387 333,1387 352,1380 366,1367 380,1354 387,1337 387,1316 387,1300 384,1283 377,1265 368,1240 344,1184 303,1098 L 165,803 121,803 Z " transform="translate(10648,14579) scale(0.121,-0.121)" fill="rgb(0,0,0)" stroke="none"/></g><g class="OutlinedText"><path d="M 366,524 C 366,493 355,467 334,446 312,424 286,413 256,413 225,413 199,424 178,446 156,467 145,493 145,524 145,555 156,581 178,603 199,624 225,635 256,635 286,635 312,624 334,603 355,581 366,555 366,524 Z " transform="translate(14254,12844) scale(0.121,-0.121)" fill="rgb(0,0,0)" stroke="none"/></g><g class="OutlinedText"><path d="M 121,803 L 152,1099 C 161,1183 169,1240 178,1269 191,1311 209,1341 232,1360 255,1378 280,1387 309,1387 333,1387 352,1380 366,1367 380,1354 387,1337 387,1316 387,1300 384,1283 377,1265 368,1240 344,1184 303,1098 L 165,803 121,803 Z " transform="translate(14192,12830) scale(0.121,-0.121)" fill="rgb(0,0,0)" stroke="none"/></g><g class="OutlinedText"><path d="M 366,524 C 366,493 355,467 334,446 312,424 286,413 256,413 225,413 199,424 178,446 156,467 145,493 145,524 145,555 156,581 178,603 199,624 225,635 256,635 286,635 312,624 334,603 355,581 366,555 366,524 Z " transform="translate(11194,12534) scale(0.121,-0.121)" fill="rgb(0,0,0)" stroke="none"/></g><g class="OutlinedText"><path d="M 121,803 L 152,1099 C 161,1183 169,1240 178,1269 191,1311 209,1341 232,1360 255,1378 280,1387 309,1387 333,1387 352,1380 366,1367 380,1354 387,1337 387,1316 387,1300 384,1283 377,1265 368,1240 344,1184 303,1098 L 165,803 121,803 Z " transform="translate(11132,12519) scale(0.121,-0.121)" fill="rgb(0,0,0)" stroke="none"/></g><g class="OutlinedText"><path d="M 37,576 L 1087,576 1087,477 37,477 37,576 Z " transform="translate(10846,12534) scale(0.121,-0.121)" fill="rgb(0,0,0)" stroke="none"/></g><text class="SVGTextShape"><tspan class="TextParagraph"><tspan class="TextPosition" x="12359" y="14814"><tspan font-family="Times New Roman, serif" font-size="494px" font-style="italic" font-weight="400" lengthAdjust="spacingAndGlyphs" textLength="243" fill="rgb(0,0,0)" stroke="none" style="white-space: pre">d</tspan></tspan></tspan></text>
        <text class="SVGTextShape"><tspan class="TextParagraph"><tspan class="TextPosition" x="11896" y="14814"><tspan font-family="Times New Roman, serif" font-size="494px" font-style="italic" font-weight="400" lengthAdjust="spacingAndGlyphs" textLength="189" fill="rgb(0,0,0)" stroke="none" style="white-space: pre">r</tspan></tspan></tspan></text>
        <text class="SVGTextShape"><tspan class="TextParagraph"><tspan class="TextPosition" x="11366" y="14814"><tspan font-family="Times New Roman, serif" font-size="494px" font-style="italic" font-weight="400" lengthAdjust="spacingAndGlyphs" textLength="297" fill="rgb(0,0,0)" stroke="none" style="white-space: pre">V</tspan></tspan></tspan></text>
        <text class="SVGTextShape"><tspan class="TextParagraph"><tspan class="TextPosition" x="10083" y="14814"><tspan font-family="Times New Roman, serif" font-size="494px" font-style="italic" font-weight="400" lengthAdjust="spacingAndGlyphs" textLength="216" fill="rgb(0,0,0)" stroke="none" style="white-space: pre">e</tspan></tspan></tspan></text>
        <text class="SVGTextShape"><tspan class="TextParagraph"><tspan class="TextPosition" x="8767" y="15201"><tspan font-family="Times New Roman, serif" font-size="494px" font-style="italic" font-weight="400" lengthAdjust="spacingAndGlyphs" textLength="189" fill="rgb(0,0,0)" stroke="none" style="white-space: pre">r</tspan></tspan></tspan></text>
        <text class="SVGTextShape"><tspan class="TextParagraph"><tspan class="TextPosition" x="8565" y="14504"><tspan font-family="Times New Roman, serif" font-size="494px" font-style="italic" font-weight="400" lengthAdjust="spacingAndGlyphs" textLength="216" fill="rgb(0,0,0)" stroke="none" style="white-space: pre">e</tspan></tspan></tspan></text>
        <text class="SVGTextShape"><tspan class="TextParagraph"><tspan class="TextPosition" x="7638" y="14504"><tspan font-family="Times New Roman, serif" font-size="494px" font-style="italic" font-weight="400" lengthAdjust="spacingAndGlyphs" textLength="595" fill="rgb(0,0,0)" stroke="none" style="white-space: pre">mq</tspan></tspan></tspan></text>
        <text class="SVGTextShape"><tspan class="TextParagraph"><tspan class="TextPosition" x="6334" y="14814"><tspan font-family="Times New Roman, serif" font-size="494px" font-style="italic" font-weight="400" lengthAdjust="spacingAndGlyphs" textLength="216" fill="rgb(0,0,0)" stroke="none" style="white-space: pre">e</tspan></tspan></tspan></text>
        <text class="SVGTextShape"><tspan class="TextParagraph"><tspan class="TextPosition" x="14488" y="13066"><tspan font-family="Times New Roman, serif" font-size="494px" font-style="italic" font-weight="400" lengthAdjust="spacingAndGlyphs" textLength="243" fill="rgb(0,0,0)" stroke="none" style="white-space: pre">d</tspan></tspan></tspan></text>
        <text class="SVGTextShape"><tspan class="TextParagraph"><tspan class="TextPosition" x="13628" y="13066"><tspan font-family="Times New Roman, serif" font-size="494px" font-style="italic" font-weight="400" lengthAdjust="spacingAndGlyphs" textLength="216" fill="rgb(0,0,0)" stroke="none" style="white-space: pre">e</tspan></tspan></tspan></text>
        <text class="SVGTextShape"><tspan class="TextParagraph"><tspan class="TextPosition" x="13134" y="13066"><tspan font-family="Times New Roman, serif" font-size="494px" font-style="italic" font-weight="400" lengthAdjust="spacingAndGlyphs" textLength="189" fill="rgb(0,0,0)" stroke="none" style="white-space: pre">r</tspan></tspan></tspan></text>
        <text class="SVGTextShape"><tspan class="TextParagraph"><tspan class="TextPosition" x="12604" y="13066"><tspan font-family="Times New Roman, serif" font-size="494px" font-style="italic" font-weight="400" lengthAdjust="spacingAndGlyphs" textLength="297" fill="rgb(0,0,0)" stroke="none" style="white-space: pre">V</tspan></tspan></tspan></text>
        <text class="SVGTextShape"><tspan class="TextParagraph"><tspan class="TextPosition" x="11933" y="12755"><tspan font-family="Times New Roman, serif" font-size="494px" font-style="italic" font-weight="400" lengthAdjust="spacingAndGlyphs" textLength="595" fill="rgb(0,0,0)" stroke="none" style="white-space: pre">mq</tspan></tspan></tspan></text>
        <text class="SVGTextShape"><tspan class="TextParagraph"><tspan class="TextPosition" x="10737" y="13453"><tspan font-family="Times New Roman, serif" font-size="494px" font-style="italic" font-weight="400" lengthAdjust="spacingAndGlyphs" textLength="189" fill="rgb(0,0,0)" stroke="none" style="white-space: pre">r</tspan></tspan></tspan></text>
        <text class="SVGTextShape"><tspan class="TextParagraph"><tspan class="TextPosition" x="10147" y="12755"><tspan font-family="Times New Roman, serif" font-size="494px" font-style="italic" font-weight="400" lengthAdjust="spacingAndGlyphs" textLength="216" fill="rgb(0,0,0)" stroke="none" style="white-space: pre">e</tspan></tspan></tspan></text>
        <text class="SVGTextShape"><tspan class="TextParagraph"><tspan class="TextPosition" x="7358" y="13066"><tspan font-family="Times New Roman, serif" font-size="494px" font-style="italic" font-weight="400" lengthAdjust="spacingAndGlyphs" textLength="216" fill="rgb(0,0,0)" stroke="none" style="white-space: pre">e</tspan></tspan></tspan></text>
        <text class="SVGTextShape"><tspan class="TextParagraph"><tspan class="TextPosition" x="6435" y="13066"><tspan font-family="Times New Roman, serif" font-size="494px" font-style="italic" font-weight="400" lengthAdjust="spacingAndGlyphs" textLength="189" fill="rgb(0,0,0)" stroke="none" style="white-space: pre">r</tspan></tspan></tspan></text>
        <text class="SVGTextShape"><tspan class="TextParagraph"><tspan class="TextPosition" x="11164" y="14593"><tspan font-family="Times New Roman, serif" font-size="247px" font-style="italic" font-weight="400" lengthAdjust="spacingAndGlyphs" textLength="99" fill="rgb(0,0,0)" stroke="none" style="white-space: pre">r</tspan></tspan></tspan></text>
        <text class="SVGTextShape"><tspan class="TextParagraph"><tspan class="TextPosition" x="10884" y="14593"><tspan font-family="Times New Roman, serif" font-size="247px" font-style="italic" font-weight="400" lengthAdjust="spacingAndGlyphs" textLength="99" fill="rgb(0,0,0)" stroke="none" style="white-space: pre">z</tspan></tspan></tspan></text>
        <text class="SVGTextShape"><tspan class="TextParagraph"><tspan class="TextPosition" x="10531" y="14593"><tspan font-family="Times New Roman, serif" font-size="247px" font-style="italic" font-weight="400" lengthAdjust="spacingAndGlyphs" textLength="99" fill="rgb(0,0,0)" stroke="none" style="white-space: pre">r</tspan></tspan></tspan></text>
        <text class="SVGTextShape"><tspan class="TextParagraph"><tspan class="TextPosition" x="10337" y="14593"><tspan font-family="Times New Roman, serif" font-size="247px" font-style="italic" font-weight="400" lengthAdjust="spacingAndGlyphs" textLength="183" fill="rgb(0,0,0)" stroke="none" style="white-space: pre">ik</tspan></tspan></tspan></text>
        <text class="SVGTextShape"><tspan class="TextParagraph"><tspan class="TextPosition" x="8819" y="14282"><tspan font-family="Times New Roman, serif" font-size="247px" font-style="italic" font-weight="400" lengthAdjust="spacingAndGlyphs" textLength="282" fill="rgb(0,0,0)" stroke="none" style="white-space: pre">ikr</tspan></tspan></tspan></text>
        <text class="SVGTextShape"><tspan class="TextParagraph"><tspan class="TextPosition" x="6587" y="14593"><tspan font-family="Times New Roman, serif" font-size="247px" font-style="italic" font-weight="400" lengthAdjust="spacingAndGlyphs" textLength="282" fill="rgb(0,0,0)" stroke="none" style="white-space: pre">ikz</tspan></tspan></tspan></text>
        <text class="SVGTextShape"><tspan class="TextParagraph"><tspan class="TextPosition" x="14336" y="12844"><tspan font-family="Times New Roman, serif" font-size="247px" font-style="italic" font-weight="400" lengthAdjust="spacingAndGlyphs" textLength="99" fill="rgb(0,0,0)" stroke="none" style="white-space: pre">z</tspan></tspan></tspan></text>
        <text class="SVGTextShape"><tspan class="TextParagraph"><tspan class="TextPosition" x="14076" y="12844"><tspan font-family="Times New Roman, serif" font-size="247px" font-style="italic" font-weight="400" lengthAdjust="spacingAndGlyphs" textLength="99" fill="rgb(0,0,0)" stroke="none" style="white-space: pre">r</tspan></tspan></tspan></text>
        <text class="SVGTextShape"><tspan class="TextParagraph"><tspan class="TextPosition" x="13881" y="12844"><tspan font-family="Times New Roman, serif" font-size="247px" font-style="italic" font-weight="400" lengthAdjust="spacingAndGlyphs" textLength="183" fill="rgb(0,0,0)" stroke="none" style="white-space: pre">ik</tspan></tspan></tspan></text>
        <text class="SVGTextShape"><tspan class="TextParagraph"><tspan class="TextPosition" x="11264" y="12534"><tspan font-family="Times New Roman, serif" font-size="247px" font-style="italic" font-weight="400" lengthAdjust="spacingAndGlyphs" textLength="99" fill="rgb(0,0,0)" stroke="none" style="white-space: pre">r</tspan></tspan></tspan></text>
        <text class="SVGTextShape"><tspan class="TextParagraph"><tspan class="TextPosition" x="11002" y="12534"><tspan font-family="Times New Roman, serif" font-size="247px" font-style="italic" font-weight="400" lengthAdjust="spacingAndGlyphs" textLength="99" fill="rgb(0,0,0)" stroke="none" style="white-space: pre">r</tspan></tspan></tspan></text>
        <text class="SVGTextShape"><tspan class="TextParagraph"><tspan class="TextPosition" x="10717" y="12534"><tspan font-family="Times New Roman, serif" font-size="247px" font-style="italic" font-weight="400" lengthAdjust="spacingAndGlyphs" textLength="99" fill="rgb(0,0,0)" stroke="none" style="white-space: pre">r</tspan></tspan></tspan></text>
        <text class="SVGTextShape"><tspan class="TextParagraph"><tspan class="TextPosition" x="10401" y="12534"><tspan font-family="Times New Roman, serif" font-size="247px" font-style="italic" font-weight="400" lengthAdjust="spacingAndGlyphs" textLength="183" fill="rgb(0,0,0)" stroke="none" style="white-space: pre">ik</tspan></tspan></tspan></text>
        <text class="SVGTextShape"><tspan class="TextParagraph"><tspan class="TextPosition" x="7612" y="12844"><tspan font-family="Times New Roman, serif" font-size="247px" font-style="italic" font-weight="400" lengthAdjust="spacingAndGlyphs" textLength="282" fill="rgb(0,0,0)" stroke="none" style="white-space: pre">ikz</tspan></tspan></tspan></text>
        <text class="SVGTextShape"><tspan class="TextParagraph"><tspan class="TextPosition" x="9511" y="15538"><tspan font-family="Times New Roman, serif" font-size="247px" font-weight="400" lengthAdjust="spacingAndGlyphs" textLength="691" fill="rgb(0,0,0)" stroke="none" style="white-space: pre">Spazio</tspan></tspan></tspan></text>
        <text class="SVGTextShape"><tspan class="TextParagraph"><tspan class="TextPosition" x="9465" y="15538"><tspan font-family="Times New Roman, serif" font-size="247px" font-weight="400" lengthAdjust="spacingAndGlyphs" textLength="64" fill="rgb(0,0,0)" stroke="none" style="white-space: pre"> </tspan></tspan></tspan></text>
        <text class="SVGTextShape"><tspan class="TextParagraph"><tspan class="TextPosition" x="9284" y="15538"><tspan font-family="Times New Roman, serif" font-size="247px" font-weight="400" lengthAdjust="spacingAndGlyphs" textLength="198" fill="rgb(0,0,0)" stroke="none" style="white-space: pre">lo</tspan></tspan></tspan></text>
        <text class="SVGTextShape"><tspan class="TextParagraph"><tspan class="TextPosition" x="9463" y="15291"><tspan font-family="Times New Roman, serif" font-size="247px" font-weight="400" lengthAdjust="spacingAndGlyphs" textLength="541" fill="rgb(0,0,0)" stroke="none" style="white-space: pre">Tutto</tspan></tspan></tspan></text>
        <text class="SVGTextShape"><tspan class="TextParagraph"><tspan class="TextPosition" x="11189" y="14585"><tspan font-family="Times New Roman, serif" font-size="247px" font-weight="400" lengthAdjust="spacingAndGlyphs" textLength="85" fill="rgb(0,0,0)" stroke="none" style="white-space: pre">ˆ</tspan></tspan></tspan></text>
        <text class="SVGTextShape"><tspan class="TextParagraph"><tspan class="TextPosition" x="10901" y="14588"><tspan font-family="Times New Roman, serif" font-size="247px" font-weight="400" lengthAdjust="spacingAndGlyphs" textLength="85" fill="rgb(0,0,0)" stroke="none" style="white-space: pre">ˆ</tspan></tspan></tspan></text>
        <text class="SVGTextShape"><tspan class="TextParagraph"><tspan class="TextPosition" x="8239" y="14980"><tspan font-family="Times New Roman, serif" font-size="247px" font-weight="400" lengthAdjust="spacingAndGlyphs" textLength="127" fill="rgb(0,0,0)" stroke="none" style="white-space: pre">2</tspan></tspan></tspan></text>
        <text class="SVGTextShape"><tspan class="TextParagraph"><tspan class="TextPosition" x="9369" y="13789"><tspan font-family="Times New Roman, serif" font-size="247px" font-weight="400" lengthAdjust="spacingAndGlyphs" textLength="691" fill="rgb(0,0,0)" stroke="none" style="white-space: pre">Spazio</tspan></tspan></tspan></text>
        <text class="SVGTextShape"><tspan class="TextParagraph"><tspan class="TextPosition" x="9323" y="13789"><tspan font-family="Times New Roman, serif" font-size="247px" font-weight="400" lengthAdjust="spacingAndGlyphs" textLength="64" fill="rgb(0,0,0)" stroke="none" style="white-space: pre"> </tspan></tspan></tspan></text>
        <text class="SVGTextShape"><tspan class="TextParagraph"><tspan class="TextPosition" x="9142" y="13789"><tspan font-family="Times New Roman, serif" font-size="247px" font-weight="400" lengthAdjust="spacingAndGlyphs" textLength="198" fill="rgb(0,0,0)" stroke="none" style="white-space: pre">lo</tspan></tspan></tspan></text>
        <text class="SVGTextShape"><tspan class="TextParagraph"><tspan class="TextPosition" x="9320" y="13542"><tspan font-family="Times New Roman, serif" font-size="247px" font-weight="400" lengthAdjust="spacingAndGlyphs" textLength="541" fill="rgb(0,0,0)" stroke="none" style="white-space: pre">Tutto</tspan></tspan></tspan></text>
        <text class="SVGTextShape"><tspan class="TextParagraph"><tspan class="TextPosition" x="14353" y="12840"><tspan font-family="Times New Roman, serif" font-size="247px" font-weight="400" lengthAdjust="spacingAndGlyphs" textLength="85" fill="rgb(0,0,0)" stroke="none" style="white-space: pre">ˆ</tspan></tspan></tspan></text>
        <text class="SVGTextShape"><tspan class="TextParagraph"><tspan class="TextPosition" x="12162" y="13231"><tspan font-family="Times New Roman, serif" font-size="247px" font-weight="400" lengthAdjust="spacingAndGlyphs" textLength="127" fill="rgb(0,0,0)" stroke="none" style="white-space: pre">2</tspan></tspan></tspan></text>
        <text class="SVGTextShape"><tspan class="TextParagraph"><tspan class="TextPosition" x="11290" y="12526"><tspan font-family="Times New Roman, serif" font-size="247px" font-weight="400" lengthAdjust="spacingAndGlyphs" textLength="85" fill="rgb(0,0,0)" stroke="none" style="white-space: pre">ˆ</tspan></tspan></tspan></text>
        <text class="SVGTextShape"><tspan class="TextParagraph"><tspan class="TextPosition" x="7454" y="15201"><tspan font-family="Times New Roman, serif" font-size="494px" font-weight="400" lengthAdjust="spacingAndGlyphs" textLength="243" fill="rgb(0,0,0)" stroke="none" style="white-space: pre">2</tspan></tspan></tspan></text>
        <text class="SVGTextShape"><tspan class="TextParagraph"><tspan class="TextPosition" x="11679" y="12755"><tspan font-family="Times New Roman, serif" font-size="494px" font-weight="400" lengthAdjust="spacingAndGlyphs" textLength="243" fill="rgb(0,0,0)" stroke="none" style="white-space: pre">2</tspan></tspan></tspan></text>
        <text class="SVGTextShape"><tspan class="TextParagraph"><tspan class="TextPosition" x="8478" y="13453"><tspan font-family="Times New Roman, serif" font-size="494px" font-weight="400" lengthAdjust="spacingAndGlyphs" textLength="243" fill="rgb(0,0,0)" stroke="none" style="white-space: pre">4</tspan></tspan></tspan></text>
        <text class="SVGTextShape"><tspan class="TextParagraph"><tspan class="TextPosition" x="8629" y="12755"><tspan font-family="Times New Roman, serif" font-size="494px" font-weight="400" lengthAdjust="spacingAndGlyphs" textLength="243" fill="rgb(0,0,0)" stroke="none" style="white-space: pre">1</tspan></tspan></tspan></text>
        <g class="OutlinedText"><path d="M 356,1126 L 379,1210 C 392,1262 393,1292 381,1300 369,1309 332,1313 270,1313 L 270,1350 567,1401 C 567,1368 563,1335 555,1303 L 506,1126 799,1126 799,1044 483,1044 326,471 C 465,699 605,843 745,903 815,933 868,917 903,856 928,815 932,768 917,716 L 782,223 C 764,163 756,121 756,97 756,73 775,68 815,82 838,90 864,115 892,156 920,196 936,219 942,223 957,237 965,237 966,224 968,211 961,194 946,174 909,122 876,82 848,52 819,23 784,1 741,-14 699,-29 662,-23 631,5 599,33 594,84 614,158 L 766,701 C 781,755 777,790 754,805 728,820 699,818 667,799 591,752 509,664 423,533 336,401 275,274 240,150 L 199,0 47,0 334,1044 123,1044 129,1126 356,1126 Z " transform="translate(7939,15201) scale(0.241,-0.241)" fill="rgb(0,0,0)" stroke="none"/></g><g class="OutlinedText"><path d="M 356,1126 L 379,1210 C 392,1262 393,1292 381,1300 369,1309 332,1313 270,1313 L 270,1350 567,1401 C 567,1368 563,1335 555,1303 L 506,1126 799,1126 799,1044 483,1044 326,471 C 465,699 605,843 745,903 815,933 868,917 903,856 928,815 932,768 917,716 L 782,223 C 764,163 756,121 756,97 756,73 775,68 815,82 838,90 864,115 892,156 920,196 936,219 942,223 957,237 965,237 966,224 968,211 961,194 946,174 909,122 876,82 848,52 819,23 784,1 741,-14 699,-29 662,-23 631,5 599,33 594,84 614,158 L 766,701 C 781,755 777,790 754,805 728,820 699,818 667,799 591,752 509,664 423,533 336,401 275,274 240,150 L 199,0 47,0 334,1044 123,1044 129,1126 356,1126 Z " transform="translate(11862,13453) scale(0.241,-0.241)" fill="rgb(0,0,0)" stroke="none"/></g><g class="OutlinedText"><path d="M 1360,916 L 1311,771 1069,771 C 994,618 932,472 885,332 861,263 857,214 871,185 885,155 910,140 946,140 974,140 1003,150 1031,170 1059,190 1082,219 1101,257 L 1136,257 C 1089,152 1039,77 985,34 931,-9 880,-31 831,-31 779,-31 744,-7 726,40 707,87 720,176 764,305 791,386 857,542 960,771 L 700,771 C 561,422 461,201 400,108 339,15 283,-31 231,-31 207,-31 190,-23 180,-7 170,9 169,29 177,53 183,70 191,85 200,98 214,115 237,140 272,171 331,225 379,282 415,341 478,442 545,586 617,771 L 571,771 C 522,771 483,763 454,747 407,723 358,683 307,627 L 268,627 C 345,742 415,822 480,866 530,899 589,916 657,916 L 1360,916 Z " transform="translate(7670,15201) scale(0.241,-0.241)" fill="rgb(0,0,0)" stroke="none"/></g><g class="OutlinedText"><path d="M 1360,916 L 1311,771 1069,771 C 994,618 932,472 885,332 861,263 857,214 871,185 885,155 910,140 946,140 974,140 1003,150 1031,170 1059,190 1082,219 1101,257 L 1136,257 C 1089,152 1039,77 985,34 931,-9 880,-31 831,-31 779,-31 744,-7 726,40 707,87 720,176 764,305 791,386 857,542 960,771 L 700,771 C 561,422 461,201 400,108 339,15 283,-31 231,-31 207,-31 190,-23 180,-7 170,9 169,29 177,53 183,70 191,85 200,98 214,115 237,140 272,171 331,225 379,282 415,341 478,442 545,586 617,771 L 571,771 C 522,771 483,763 454,747 407,723 358,683 307,627 L 268,627 C 345,742 415,822 480,866 530,899 589,916 657,916 L 1360,916 Z " transform="translate(8694,13453) scale(0.241,-0.241)" fill="rgb(0,0,0)" stroke="none"/></g><g class="OutlinedText"><path d="M 1067,916 L 766,28 C 820,38 868,57 909,84 949,111 992,158 1038,223 1083,288 1142,406 1215,576 1275,717 1330,813 1379,866 1428,918 1490,944 1564,944 1589,944 1625,938 1671,927 L 1660,894 C 1631,894 1608,889 1591,879 1566,864 1542,839 1518,803 1494,767 1460,701 1417,604 1349,448 1289,335 1236,265 1197,214 1148,165 1090,120 1031,74 974,40 920,17 866,-6 808,-21 746,-28 L 606,-442 497,-442 637,-28 C 551,-17 482,15 432,67 381,118 353,184 346,263 341,323 358,437 397,606 420,707 432,775 432,810 433,845 426,868 411,881 402,890 382,894 351,894 L 362,927 C 422,938 462,944 483,944 522,944 555,933 580,911 606,888 620,854 621,809 622,764 609,686 580,575 538,410 517,295 517,228 517,161 528,114 550,87 572,59 608,39 657,28 L 958,916 1067,916 Z " transform="translate(5866,13066) scale(0.241,-0.241)" fill="rgb(0,0,0)" stroke="none"/></g></g>
      </g>
     </g>
    </g>
   </g>
  </g>
 </g>
</svg>