<?xml version='1.0' encoding='UTF-8'?>
<!DOCTYPE svg PUBLIC "-//W3C//DTD SVG 1.1//EN" "http://www.w3.org/Graphics/SVG/1.1/DTD/svg11.dtd">
<svg xmlns="http://www.w3.org/2000/svg" xmlns:ooo="http://xml.openoffice.org/svg/export" xmlns:xlink="http://www.w3.org/1999/xlink" xmlns:presentation="http://sun.com/xmlns/staroffice/presentation" xmlns:smil="http://www.w3.org/2001/SMIL20/" xmlns:anim="urn:oasis:names:tc:opendocument:xmlns:animation:1.0" xmlns:svg="urn:oasis:names:tc:opendocument:xmlns:svg-compatible:1.0" version="1.2" width="114.650mm" height="16.930mm" viewBox="5062 13123 11465 1693" preserveAspectRatio="xMidYMid" fill-rule="evenodd" stroke-width="28.222" stroke-linejoin="round" xml:space="preserve">
 <defs class="ClipPathGroup">
  <clipPath id="presentation_clip_path" clipPathUnits="userSpaceOnUse">
   <rect x="0" y="0" width="21590" height="27940"/>
  </clipPath>
  <clipPath id="presentation_clip_path_shrink" clipPathUnits="userSpaceOnUse">
   <rect x="21" y="27" width="21547" height="27885"/>
  </clipPath>
 </defs>
 <defs>
  </defs>
 <defs>
  </defs>
 <defs>
  </defs>
 <defs>
  </defs>
 <defs class="TextShapeIndex">
  <g ooo:slide="id1" ooo:id-list="id3"/>
 </defs>
 <defs class="EmbeddedBulletChars">
  <g id="bullet-char-template-57356" transform="scale(0.00048828125,-0.00048828125)">
   <path d="M 580,1141 L 1163,571 580,0 -4,571 580,1141 Z"/>
  </g>
  <g id="bullet-char-template-57354" transform="scale(0.00048828125,-0.00048828125)">
   <path d="M 8,1128 L 1137,1128 1137,0 8,0 8,1128 Z"/>
  </g>
  <g id="bullet-char-template-10146" transform="scale(0.00048828125,-0.00048828125)">
   <path d="M 174,0 L 602,739 174,1481 1456,739 174,0 Z M 1358,739 L 309,1346 659,739 1358,739 Z"/>
  </g>
  <g id="bullet-char-template-10132" transform="scale(0.00048828125,-0.00048828125)">
   <path d="M 2015,739 L 1276,0 717,0 1260,543 174,543 174,936 1260,936 717,1481 1274,1481 2015,739 Z"/>
  </g>
  <g id="bullet-char-template-10007" transform="scale(0.00048828125,-0.00048828125)">
   <path d="M 0,-2 C -7,14 -16,27 -25,37 L 356,567 C 262,823 215,952 215,954 215,979 228,992 255,992 264,992 276,990 289,987 310,991 331,999 354,1012 L 381,999 492,748 772,1049 836,1024 860,1049 C 881,1039 901,1025 922,1006 886,937 835,863 770,784 769,783 710,716 594,584 L 774,223 C 774,196 753,168 711,139 L 727,119 C 717,90 699,76 672,76 641,76 570,178 457,381 L 164,-76 C 142,-110 111,-127 72,-127 30,-127 9,-110 8,-76 1,-67 -2,-52 -2,-32 -2,-23 -1,-13 0,-2 Z"/>
  </g>
  <g id="bullet-char-template-10004" transform="scale(0.00048828125,-0.00048828125)">
   <path d="M 285,-33 C 182,-33 111,30 74,156 52,228 41,333 41,471 41,549 55,616 82,672 116,743 169,778 240,778 293,778 328,747 346,684 L 369,508 C 377,444 397,411 428,410 L 1163,1116 C 1174,1127 1196,1133 1229,1133 1271,1133 1292,1118 1292,1087 L 1292,965 C 1292,929 1282,901 1262,881 L 442,47 C 390,-6 338,-33 285,-33 Z"/>
  </g>
  <g id="bullet-char-template-9679" transform="scale(0.00048828125,-0.00048828125)">
   <path d="M 813,0 C 632,0 489,54 383,161 276,268 223,411 223,592 223,773 276,916 383,1023 489,1130 632,1184 813,1184 992,1184 1136,1130 1245,1023 1353,916 1407,772 1407,592 1407,412 1353,268 1245,161 1136,54 992,0 813,0 Z"/>
  </g>
  <g id="bullet-char-template-8226" transform="scale(0.00048828125,-0.00048828125)">
   <path d="M 346,457 C 273,457 209,483 155,535 101,586 74,649 74,723 74,796 101,859 155,911 209,963 273,989 346,989 419,989 480,963 531,910 582,859 608,796 608,723 608,648 583,586 532,535 482,483 420,457 346,457 Z"/>
  </g>
  <g id="bullet-char-template-8211" transform="scale(0.00048828125,-0.00048828125)">
   <path d="M -4,459 L 1135,459 1135,606 -4,606 -4,459 Z"/>
  </g>
  <g id="bullet-char-template-61548" transform="scale(0.00048828125,-0.00048828125)">
   <path d="M 173,740 C 173,903 231,1043 346,1159 462,1274 601,1332 765,1332 928,1332 1067,1274 1183,1159 1299,1043 1357,903 1357,740 1357,577 1299,437 1183,322 1067,206 928,148 765,148 601,148 462,206 346,322 231,437 173,577 173,740 Z"/>
  </g>
 </defs>
 <g>
  <g id="id2" class="Master_Slide">
   <g id="bg-id2" class="Background"/>
   <g id="bo-id2" class="BackgroundObjects"/>
  </g>
 </g>
 <g class="SlideGroup">
  <g>
   <g id="container-id1">
    <g id="id1" class="Slide" clip-path="url(#presentation_clip_path)">
     <g class="Page">
      <g class="Graphic">
       <g id="id3">
        <rect class="BoundingBox" stroke="none" fill="none" x="5062" y="13123" width="11465" height="1693"/>
        <path fill="none" stroke="rgb(0,0,0)" stroke-width="9" stroke-linejoin="round" stroke-linecap="round" d="M 6331,13553 L 6484,13553 "/>
        <g class="OutlinedText"><path d="M 636,-399 L 636,-442 C 462,-355 327,-228 230,-60 133,107 84,291 84,490 84,697 135,886 237,1057 339,1227 472,1349 636,1422 L 636,1380 C 554,1335 487,1273 434,1194 381,1115 342,1016 316,895 290,774 277,647 277,516 277,367 289,233 313,113 337,-7 374,-106 423,-185 472,-264 543,-336 636,-399 Z " transform="translate(6570,13712) scale(0.156,-0.156)" fill="rgb(0,0,0)" stroke="none"/></g><g class="OutlinedText"><path d="M 45,1380 L 45,1422 C 219,1336 355,1209 452,1042 549,874 597,690 597,491 597,284 546,95 444,-76 342,-247 209,-369 45,-442 L 45,-399 C 128,-354 195,-292 248,-213 301,-134 340,-35 366,86 391,207 404,333 404,465 404,613 392,747 369,868 345,988 308,1088 259,1167 209,1246 138,1317 45,1380 Z " transform="translate(7089,13712) scale(0.156,-0.156)" fill="rgb(0,0,0)" stroke="none"/></g><g class="OutlinedText"><path d="M 636,-399 L 636,-442 C 462,-355 327,-228 230,-60 133,107 84,291 84,490 84,697 135,886 237,1057 339,1227 472,1349 636,1422 L 636,1380 C 554,1335 487,1273 434,1194 381,1115 342,1016 316,895 290,774 277,647 277,516 277,367 289,233 313,113 337,-7 374,-106 423,-185 472,-264 543,-336 636,-399 Z " transform="translate(7515,13932) scale(0.312,-0.312)" fill="rgb(0,0,0)" stroke="none"/></g><g class="OutlinedText"><path d="M 45,1380 L 45,1422 C 219,1336 355,1209 452,1042 549,874 597,690 597,491 597,284 546,95 444,-76 342,-247 209,-369 45,-442 L 45,-399 C 128,-354 195,-292 248,-213 301,-134 340,-35 366,86 391,207 404,333 404,465 404,613 392,747 369,868 345,988 308,1088 259,1167 209,1246 138,1317 45,1380 Z " transform="translate(8031,13932) scale(0.312,-0.312)" fill="rgb(0,0,0)" stroke="none"/></g><path fill="none" stroke="rgb(0,0,0)" stroke-width="9" stroke-linejoin="round" stroke-linecap="round" d="M 13142,13510 L 13312,13510 "/>
        <g class="OutlinedText"><path d="M 636,-399 L 636,-442 C 462,-355 327,-228 230,-60 133,107 84,291 84,490 84,697 135,886 237,1057 339,1227 472,1349 636,1422 L 636,1380 C 554,1335 487,1273 434,1194 381,1115 342,1016 316,895 290,774 277,647 277,516 277,367 289,233 313,113 337,-7 374,-106 423,-185 472,-264 543,-336 636,-399 Z " transform="translate(13687,13932) scale(0.312,-0.312)" fill="rgb(0,0,0)" stroke="none"/></g><g class="OutlinedText"><path d="M 45,1380 L 45,1422 C 219,1336 355,1209 452,1042 549,874 597,690 597,491 597,284 546,95 444,-76 342,-247 209,-369 45,-442 L 45,-399 C 128,-354 195,-292 248,-213 301,-134 340,-35 366,86 391,207 404,333 404,465 404,613 392,747 369,868 345,988 308,1088 259,1167 209,1246 138,1317 45,1380 Z " transform="translate(14203,13932) scale(0.312,-0.312)" fill="rgb(0,0,0)" stroke="none"/></g><text class="SVGTextShape"><tspan class="TextParagraph"><tspan class="TextPosition" x="16119" y="13934"><tspan font-family="Times New Roman, serif" font-size="494px" font-style="italic" font-weight="400" lengthAdjust="spacingAndGlyphs" textLength="189" fill="rgb(0,0,0)" stroke="none" style="white-space: pre">r</tspan></tspan></tspan></text>
        <text class="SVGTextShape"><tspan class="TextParagraph"><tspan class="TextPosition" x="15872" y="13934"><tspan font-family="Times New Roman, serif" font-size="494px" font-style="italic" font-weight="400" lengthAdjust="spacingAndGlyphs" textLength="243" fill="rgb(0,0,0)" stroke="none" style="white-space: pre">d</tspan></tspan></tspan></text>
        <text class="SVGTextShape"><tspan class="TextParagraph"><tspan class="TextPosition" x="14297" y="13934"><tspan font-family="Times New Roman, serif" font-size="494px" font-style="italic" font-weight="400" lengthAdjust="spacingAndGlyphs" textLength="189" fill="rgb(0,0,0)" stroke="none" style="white-space: pre">r</tspan></tspan></tspan></text>
        <text class="SVGTextShape"><tspan class="TextParagraph"><tspan class="TextPosition" x="13844" y="13934"><tspan font-family="Times New Roman, serif" font-size="494px" font-style="italic" font-weight="400" lengthAdjust="spacingAndGlyphs" textLength="189" fill="rgb(0,0,0)" stroke="none" style="white-space: pre">r</tspan></tspan></tspan></text>
        <text class="SVGTextShape"><tspan class="TextParagraph"><tspan class="TextPosition" x="13311" y="13934"><tspan font-family="Times New Roman, serif" font-size="494px" font-style="italic" font-weight="400" lengthAdjust="spacingAndGlyphs" textLength="297" fill="rgb(0,0,0)" stroke="none" style="white-space: pre">V</tspan></tspan></tspan></text>
        <text class="SVGTextShape"><tspan class="TextParagraph"><tspan class="TextPosition" x="11460" y="13934"><tspan font-family="Times New Roman, serif" font-size="494px" font-style="italic" font-weight="400" lengthAdjust="spacingAndGlyphs" textLength="216" fill="rgb(0,0,0)" stroke="none" style="white-space: pre">e</tspan></tspan></tspan></text>
        <text class="SVGTextShape"><tspan class="TextParagraph"><tspan class="TextPosition" x="10528" y="13934"><tspan font-family="Times New Roman, serif" font-size="494px" font-style="italic" font-weight="400" lengthAdjust="spacingAndGlyphs" textLength="243" fill="rgb(0,0,0)" stroke="none" style="white-space: pre">d</tspan></tspan></tspan></text>
        <text class="SVGTextShape"><tspan class="TextParagraph"><tspan class="TextPosition" x="9668" y="13934"><tspan font-family="Times New Roman, serif" font-size="494px" font-style="italic" font-weight="400" lengthAdjust="spacingAndGlyphs" textLength="243" fill="rgb(0,0,0)" stroke="none" style="white-space: pre">d</tspan></tspan></tspan></text>
        <text class="SVGTextShape"><tspan class="TextParagraph"><tspan class="TextPosition" x="8124" y="13934"><tspan font-family="Times New Roman, serif" font-size="494px" font-style="italic" font-weight="400" lengthAdjust="spacingAndGlyphs" textLength="243" fill="rgb(0,0,0)" stroke="none" style="white-space: pre">d</tspan></tspan></tspan></text>
        <text class="SVGTextShape"><tspan class="TextParagraph"><tspan class="TextPosition" x="7671" y="13934"><tspan font-family="Times New Roman, serif" font-size="494px" font-style="italic" font-weight="400" lengthAdjust="spacingAndGlyphs" textLength="189" fill="rgb(0,0,0)" stroke="none" style="white-space: pre">r</tspan></tspan></tspan></text>
        <text class="SVGTextShape"><tspan class="TextParagraph"><tspan class="TextPosition" x="7139" y="13934"><tspan font-family="Times New Roman, serif" font-size="494px" font-style="italic" font-weight="400" lengthAdjust="spacingAndGlyphs" textLength="297" fill="rgb(0,0,0)" stroke="none" style="white-space: pre">V</tspan></tspan></tspan></text>
        <text class="SVGTextShape"><tspan class="TextParagraph"><tspan class="TextPosition" x="5908" y="13934"><tspan font-family="Times New Roman, serif" font-size="494px" font-style="italic" font-weight="400" lengthAdjust="spacingAndGlyphs" textLength="216" fill="rgb(0,0,0)" stroke="none" style="white-space: pre">e</tspan></tspan></tspan></text>
        <text class="SVGTextShape"><tspan class="TextParagraph"><tspan class="TextPosition" x="12027" y="13572"><tspan font-family="Times New Roman, serif" font-size="247px" font-style="italic" font-weight="400" lengthAdjust="spacingAndGlyphs" textLength="99" fill="rgb(0,0,0)" stroke="none" style="white-space: pre">r</tspan></tspan></tspan></text>
        <text class="SVGTextShape"><tspan class="TextParagraph"><tspan class="TextPosition" x="11850" y="13572"><tspan font-family="Times New Roman, serif" font-size="247px" font-style="italic" font-weight="400" lengthAdjust="spacingAndGlyphs" textLength="183" fill="rgb(0,0,0)" stroke="none" style="white-space: pre">ik</tspan></tspan></tspan></text>
        <text class="SVGTextShape"><tspan class="TextParagraph"><tspan class="TextPosition" x="6948" y="13713"><tspan font-family="Times New Roman, serif" font-size="247px" font-style="italic" font-weight="400" lengthAdjust="spacingAndGlyphs" textLength="99" fill="rgb(0,0,0)" stroke="none" style="white-space: pre">r</tspan></tspan></tspan></text>
        <text class="SVGTextShape"><tspan class="TextParagraph"><tspan class="TextPosition" x="6679" y="13713"><tspan font-family="Times New Roman, serif" font-size="247px" font-style="italic" font-weight="400" lengthAdjust="spacingAndGlyphs" textLength="99" fill="rgb(0,0,0)" stroke="none" style="white-space: pre">z</tspan></tspan></tspan></text>
        <text class="SVGTextShape"><tspan class="TextParagraph"><tspan class="TextPosition" x="6342" y="13713"><tspan font-family="Times New Roman, serif" font-size="247px" font-style="italic" font-weight="400" lengthAdjust="spacingAndGlyphs" textLength="99" fill="rgb(0,0,0)" stroke="none" style="white-space: pre">r</tspan></tspan></tspan></text>
        <text class="SVGTextShape"><tspan class="TextParagraph"><tspan class="TextPosition" x="6150" y="13713"><tspan font-family="Times New Roman, serif" font-size="247px" font-style="italic" font-weight="400" lengthAdjust="spacingAndGlyphs" textLength="183" fill="rgb(0,0,0)" stroke="none" style="white-space: pre">ik</tspan></tspan></tspan></text>
        <g class="OutlinedText"><path d="M 121,803 L 152,1099 C 161,1183 169,1240 178,1269 191,1311 209,1341 232,1360 255,1378 280,1387 309,1387 333,1387 352,1380 366,1367 380,1354 387,1337 387,1316 387,1300 384,1283 377,1265 368,1240 344,1184 303,1098 L 165,803 121,803 Z " transform="translate(16342,13906) scale(0.241,-0.241)" fill="rgb(0,0,0)" stroke="none"/></g><g class="OutlinedText"><path d="M 121,803 L 152,1099 C 161,1183 169,1240 178,1269 191,1311 209,1341 232,1360 255,1378 280,1387 309,1387 333,1387 352,1380 366,1367 380,1354 387,1337 387,1316 387,1300 384,1283 377,1265 368,1240 344,1184 303,1098 L 165,803 121,803 Z " transform="translate(14520,13906) scale(0.241,-0.241)" fill="rgb(0,0,0)" stroke="none"/></g><g class="OutlinedText"><path d="M 121,803 L 152,1099 C 161,1183 169,1240 178,1269 191,1311 209,1341 232,1360 255,1378 280,1387 309,1387 333,1387 352,1380 366,1367 380,1354 387,1337 387,1316 387,1300 384,1283 377,1265 368,1240 344,1184 303,1098 L 165,803 121,803 Z " transform="translate(14066,13906) scale(0.241,-0.241)" fill="rgb(0,0,0)" stroke="none"/></g><g class="OutlinedText"><path d="M 37,759 L 1087,759 1087,662 37,662 37,759 Z M 37,386 L 1087,386 1087,287 37,287 37,386 Z " transform="translate(8973,13934) scale(0.241,-0.241)" fill="rgb(0,0,0)" stroke="none"/></g><g class="OutlinedText"><path d="M 1517,0 L 950,0 974,279 C 1068,318 1137,374 1182,447 1226,520 1248,622 1248,753 1248,934 1204,1074 1116,1171 1027,1268 916,1316 782,1316 653,1316 543,1267 454,1169 365,1070 320,936 320,767 320,634 343,527 389,448 434,369 503,312 595,279 L 620,0 56,0 56,279 91,279 C 93,238 104,211 123,196 153,173 199,161 260,161 L 530,161 530,231 C 390,272 282,341 206,440 129,539 91,655 91,789 91,957 153,1099 278,1214 402,1329 570,1387 782,1387 912,1387 1032,1363 1141,1314 1250,1265 1334,1193 1393,1099 1452,1005 1481,902 1481,789 1481,651 1441,531 1360,429 1279,326 1173,260 1042,231 L 1034,161 1309,161 C 1370,161 1413,170 1437,189 1461,208 1475,238 1479,279 L 1517,279 1517,0 Z " transform="translate(8371,13934) scale(0.241,-0.241)" fill="rgb(0,0,0)" stroke="none"/></g><g class="OutlinedText"><path d="M 121,803 L 152,1099 C 161,1183 169,1240 178,1269 191,1311 209,1341 232,1360 255,1378 280,1387 309,1387 333,1387 352,1380 366,1367 380,1354 387,1337 387,1316 387,1300 384,1283 377,1265 368,1240 344,1184 303,1098 L 165,803 121,803 Z " transform="translate(8756,13906) scale(0.241,-0.241)" fill="rgb(0,0,0)" stroke="none"/></g><g class="OutlinedText"><path d="M 121,803 L 152,1099 C 161,1183 169,1240 178,1269 191,1311 209,1341 232,1360 255,1378 280,1387 309,1387 333,1387 352,1380 366,1367 380,1354 387,1337 387,1316 387,1300 384,1283 377,1265 368,1240 344,1184 303,1098 L 165,803 121,803 Z " transform="translate(7894,13906) scale(0.241,-0.241)" fill="rgb(0,0,0)" stroke="none"/></g><g class="OutlinedText"><path d="M 201,948 C 213,1315 221,1515 224,1546 239,1670 266,1754 305,1798 343,1841 386,1863 435,1863 468,1863 498,1852 523,1830 548,1807 560,1783 560,1756 560,1725 551,1700 534,1681 516,1662 494,1652 468,1652 445,1652 419,1664 392,1688 377,1701 363,1708 352,1708 341,1708 331,1703 324,1694 316,1684 312,1667 312,1644 312,1616 315,1568 321,1499 346,1226 358,1004 358,834 358,789 353,593 342,246 337,49 307,-84 252,-153 216,-198 171,-220 118,-220 83,-220 55,-209 33,-186 11,-163 0,-134 0,-99 0,-69 9,-45 26,-27 43,-9 64,0 90,0 117,0 140,-11 159,-32 178,-53 195,-64 208,-64 219,-64 229,-59 236,-50 243,-41 247,-25 247,-3 247,25 244,65 238,117 213,327 201,604 201,948 Z " transform="translate(9410,14097) scale(0.344,-0.344)" fill="rgb(0,0,0)" stroke="none"/></g><g class="OutlinedText"><path d="M 201,948 C 213,1315 221,1515 224,1546 239,1670 266,1754 305,1798 343,1841 386,1863 435,1863 468,1863 498,1852 523,1830 548,1807 560,1783 560,1756 560,1725 551,1700 534,1681 516,1662 494,1652 468,1652 445,1652 419,1664 392,1688 377,1701 363,1708 352,1708 341,1708 331,1703 324,1694 316,1684 312,1667 312,1644 312,1616 315,1568 321,1499 346,1226 358,1004 358,834 358,789 353,593 342,246 337,49 307,-84 252,-153 216,-198 171,-220 118,-220 83,-220 55,-209 33,-186 11,-163 0,-134 0,-99 0,-69 9,-45 26,-27 43,-9 64,0 90,0 117,0 140,-11 159,-32 178,-53 195,-64 208,-64 219,-64 229,-59 236,-50 243,-41 247,-25 247,-3 247,25 244,65 238,117 213,327 201,604 201,948 Z " transform="translate(10270,14097) scale(0.344,-0.344)" fill="rgb(0,0,0)" stroke="none"/></g><g class="OutlinedText"><path d="M 201,948 C 213,1315 221,1515 224,1546 239,1670 266,1754 305,1798 343,1841 386,1863 435,1863 468,1863 498,1852 523,1830 548,1807 560,1783 560,1756 560,1725 551,1700 534,1681 516,1662 494,1652 468,1652 445,1652 419,1664 392,1688 377,1701 363,1708 352,1708 341,1708 331,1703 324,1694 316,1684 312,1667 312,1644 312,1616 315,1568 321,1499 346,1226 358,1004 358,834 358,789 353,593 342,246 337,49 307,-84 252,-153 216,-198 171,-220 118,-220 83,-220 55,-209 33,-186 11,-163 0,-134 0,-99 0,-69 9,-45 26,-27 43,-9 64,0 90,0 117,0 140,-11 159,-32 178,-53 195,-64 208,-64 219,-64 229,-59 236,-50 243,-41 247,-25 247,-3 247,25 244,65 238,117 213,327 201,604 201,948 Z " transform="translate(11210,14097) scale(0.344,-0.344)" fill="rgb(0,0,0)" stroke="none"/></g><g class="OutlinedText"><path d="M 201,948 C 213,1315 221,1515 224,1546 239,1670 266,1754 305,1798 343,1841 386,1863 435,1863 468,1863 498,1852 523,1830 548,1807 560,1783 560,1756 560,1725 551,1700 534,1681 516,1662 494,1652 468,1652 445,1652 419,1664 392,1688 377,1701 363,1708 352,1708 341,1708 331,1703 324,1694 316,1684 312,1667 312,1644 312,1616 315,1568 321,1499 346,1226 358,1004 358,834 358,789 353,593 342,246 337,49 307,-84 252,-153 216,-198 171,-220 118,-220 83,-220 55,-209 33,-186 11,-163 0,-134 0,-99 0,-69 9,-45 26,-27 43,-9 64,0 90,0 117,0 140,-11 159,-32 178,-53 195,-64 208,-64 219,-64 229,-59 236,-50 243,-41 247,-25 247,-3 247,25 244,65 238,117 213,327 201,604 201,948 Z " transform="translate(5305,14097) scale(0.344,-0.344)" fill="rgb(0,0,0)" stroke="none"/><path d="M 201,948 C 213,1315 221,1515 224,1546 239,1670 266,1754 305,1798 343,1841 386,1863 435,1863 468,1863 498,1852 523,1830 548,1807 560,1783 560,1756 560,1725 551,1700 534,1681 516,1662 494,1652 468,1652 445,1652 419,1664 392,1688 377,1701 363,1708 352,1708 341,1708 331,1703 324,1694 316,1684 312,1667 312,1644 312,1616 315,1568 321,1499 346,1226 358,1004 358,834 358,789 353,593 342,246 337,49 307,-84 252,-153 216,-198 171,-220 118,-220 83,-220 55,-209 33,-186 11,-163 0,-134 0,-99 0,-69 9,-45 26,-27 43,-9 64,0 90,0 117,0 140,-11 159,-32 178,-53 195,-64 208,-64 219,-64 229,-59 236,-50 243,-41 247,-25 247,-3 247,25 244,65 238,117 213,327 201,604 201,948 Z " transform="translate(5496.333,14097) scale(0.344,-0.344)" fill="rgb(0,0,0)" stroke="none"/><path d="M 201,948 C 213,1315 221,1515 224,1546 239,1670 266,1754 305,1798 343,1841 386,1863 435,1863 468,1863 498,1852 523,1830 548,1807 560,1783 560,1756 560,1725 551,1700 534,1681 516,1662 494,1652 468,1652 445,1652 419,1664 392,1688 377,1701 363,1708 352,1708 341,1708 331,1703 324,1694 316,1684 312,1667 312,1644 312,1616 315,1568 321,1499 346,1226 358,1004 358,834 358,789 353,593 342,246 337,49 307,-84 252,-153 216,-198 171,-220 118,-220 83,-220 55,-209 33,-186 11,-163 0,-134 0,-99 0,-69 9,-45 26,-27 43,-9 64,0 90,0 117,0 140,-11 159,-32 178,-53 195,-64 208,-64 219,-64 229,-59 236,-50 243,-41 247,-25 247,-3 247,25 244,65 238,117 213,327 201,604 201,948 Z " transform="translate(5687.667,14097) scale(0.344,-0.344)" fill="rgb(0,0,0)" stroke="none"/></g><g class="OutlinedText"><path d="M 514,1050 L 612,1050 612,572 1087,572 1087,475 612,475 612,0 514,0 514,475 37,475 37,572 514,572 514,1050 Z " transform="translate(11149,13396) scale(0.121,-0.121)" fill="rgb(0,0,0)" stroke="none"/><path d="M 654,667 C 699,771 749,843 803,884 857,924 931,944 1024,944 1131,944 1222,905 1296,828 1370,751 1407,650 1407,527 1407,405 1371,305 1299,226 1227,147 1147,107 1058,107 992,107 931,131 874,180 837,212 786,283 721,393 678,310 632,251 581,215 530,178 469,160 397,160 301,160 220,194 154,263 87,332 54,420 54,529 54,639 85,728 146,795 207,862 279,896 361,896 418,896 469,881 513,852 557,822 604,760 654,667 Z M 750,464 C 800,360 849,290 898,255 947,219 1001,201 1062,201 1144,201 1213,231 1268,290 1323,349 1350,428 1350,527 1350,625 1321,706 1263,770 1205,834 1140,866 1068,866 1022,866 982,854 948,831 913,808 882,770 854,719 838,689 803,604 750,464 Z M 625,590 C 592,663 555,717 513,752 471,787 419,804 358,804 287,804 228,779 181,730 133,680 109,613 109,530 109,441 133,371 180,318 227,265 280,238 339,238 402,238 458,266 507,323 538,360 578,449 625,590 Z " transform="translate(11288.834,13396) scale(0.121,-0.121)" fill="rgb(0,0,0)" stroke="none"/></g><g class="OutlinedText"><path d="M 121,803 L 152,1099 C 161,1183 169,1240 178,1269 191,1311 209,1341 232,1360 255,1378 280,1387 309,1387 333,1387 352,1380 366,1367 380,1354 387,1337 387,1316 387,1300 384,1283 377,1265 368,1240 344,1184 303,1098 L 165,803 121,803 Z " transform="translate(12138,13557) scale(0.121,-0.121)" fill="rgb(0,0,0)" stroke="none"/></g><g class="OutlinedText"><path d="M 37,576 L 1087,576 1087,477 37,477 37,576 Z " transform="translate(6798,13713) scale(0.121,-0.121)" fill="rgb(0,0,0)" stroke="none"/></g><g class="OutlinedText"><path d="M 366,524 C 366,493 355,467 334,446 312,424 286,413 256,413 225,413 199,424 178,446 156,467 145,493 145,524 145,555 156,581 178,603 199,624 225,635 256,635 286,635 312,624 334,603 355,581 366,555 366,524 Z " transform="translate(6511,13713) scale(0.121,-0.121)" fill="rgb(0,0,0)" stroke="none"/></g><g class="OutlinedText"><path d="M 121,803 L 152,1099 C 161,1183 169,1240 178,1269 191,1311 209,1341 232,1360 255,1378 280,1387 309,1387 333,1387 352,1380 366,1367 380,1354 387,1337 387,1316 387,1300 384,1283 377,1265 368,1240 344,1184 303,1098 L 165,803 121,803 Z " transform="translate(6453,13698) scale(0.121,-0.121)" fill="rgb(0,0,0)" stroke="none"/></g><g class="OutlinedText"><path d="M 1248,916 L 1414,916 1130,461 C 1111,432 1082,387 1043,326 1033,223 1031,162 1037,142 1049,105 1073,87 1110,87 1136,87 1165,98 1195,120 1225,142 1252,176 1275,223 L 1315,223 C 1273,127 1230,61 1187,24 1143,-13 1101,-31 1060,-31 1022,-31 993,-15 973,17 953,49 949,118 960,223 911,165 867,121 829,91 776,50 722,19 669,-1 617,-22 561,-32 502,-32 355,-32 263,17 227,115 191,213 194,325 237,450 287,597 368,716 480,807 592,898 703,943 812,943 888,943 948,920 990,874 1032,827 1055,741 1060,615 L 1248,916 Z M 987,503 C 998,640 984,736 946,791 907,845 859,872 800,872 735,872 669,836 601,765 533,693 473,579 419,422 388,329 373,257 373,204 374,151 388,110 416,81 444,52 479,37 521,37 572,37 627,61 686,108 765,172 866,304 987,503 Z " transform="translate(15563,13934) scale(0.241,-0.241)" fill="rgb(0,0,0)" stroke="none"/></g><g class="OutlinedText"><path d="M 1248,916 L 1414,916 1130,461 C 1111,432 1082,387 1043,326 1033,223 1031,162 1037,142 1049,105 1073,87 1110,87 1136,87 1165,98 1195,120 1225,142 1252,176 1275,223 L 1315,223 C 1273,127 1230,61 1187,24 1143,-13 1101,-31 1060,-31 1022,-31 993,-15 973,17 953,49 949,118 960,223 911,165 867,121 829,91 776,50 722,19 669,-1 617,-22 561,-32 502,-32 355,-32 263,17 227,115 191,213 194,325 237,450 287,597 368,716 480,807 592,898 703,943 812,943 888,943 948,920 990,874 1032,827 1055,741 1060,615 L 1248,916 Z M 987,503 C 998,640 984,736 946,791 907,845 859,872 800,872 735,872 669,836 601,765 533,693 473,579 419,422 388,329 373,257 373,204 374,151 388,110 416,81 444,52 479,37 521,37 572,37 627,61 686,108 765,172 866,304 987,503 Z " transform="translate(10775,13934) scale(0.241,-0.241)" fill="rgb(0,0,0)" stroke="none"/></g><g class="OutlinedText"><path d="M 357,78 L 299,-91 C 262,-199 209,-316 140,-442 L -29,-442 C 17,-359 47,-303 60,-273 101,-180 128,-111 143,-68 L 490,954 C 531,1073 573,1162 616,1220 659,1277 718,1325 793,1364 868,1403 948,1422 1034,1422 1154,1422 1238,1390 1288,1326 1337,1262 1347,1186 1317,1098 1298,1041 1265,988 1219,937 1172,886 1113,841 1039,804 1189,719 1233,586 1172,406 1145,326 1101,251 1040,182 979,113 910,60 832,24 754,-13 681,-31 611,-31 567,-31 525,-23 487,-8 448,7 405,36 357,78 Z M 383,157 C 433,112 478,79 519,59 550,44 584,37 620,37 687,37 753,65 817,121 882,176 935,264 976,385 1002,461 1013,528 1011,585 1009,642 992,704 960,772 909,757 867,749 834,749 794,749 767,755 755,767 743,779 739,792 744,806 748,819 758,830 774,840 791,850 813,855 841,855 873,855 920,846 980,829 1058,922 1111,1009 1139,1092 1168,1176 1169,1241 1143,1287 1118,1333 1074,1356 1013,1356 935,1356 864,1323 800,1258 757,1215 719,1145 687,1049 L 383,157 Z " transform="translate(9915,13934) scale(0.241,-0.241)" fill="rgb(0,0,0)" stroke="none"/></g><g class="OutlinedText"><path d="M 1360,916 L 1311,771 1069,771 C 994,618 932,472 885,332 861,263 857,214 871,185 885,155 910,140 946,140 974,140 1003,150 1031,170 1059,190 1082,219 1101,257 L 1136,257 C 1089,152 1039,77 985,34 931,-9 880,-31 831,-31 779,-31 744,-7 726,40 707,87 720,176 764,305 791,386 857,542 960,771 L 700,771 C 561,422 461,201 400,108 339,15 283,-31 231,-31 207,-31 190,-23 180,-7 170,9 169,29 177,53 183,70 191,85 200,98 214,115 237,140 272,171 331,225 379,282 415,341 478,442 545,586 617,771 L 571,771 C 522,771 483,763 454,747 407,723 358,683 307,627 L 268,627 C 345,742 415,822 480,866 530,899 589,916 657,916 L 1360,916 Z " transform="translate(9484,13396) scale(0.121,-0.121)" fill="rgb(0,0,0)" stroke="none"/></g><g class="OutlinedText"><path d="M 1360,916 L 1311,771 1069,771 C 994,618 932,472 885,332 861,263 857,214 871,185 885,155 910,140 946,140 974,140 1003,150 1031,170 1059,190 1082,219 1101,257 L 1136,257 C 1089,152 1039,77 985,34 931,-9 880,-31 831,-31 779,-31 744,-7 726,40 707,87 720,176 764,305 791,386 857,542 960,771 L 700,771 C 561,422 461,201 400,108 339,15 283,-31 231,-31 207,-31 190,-23 180,-7 170,9 169,29 177,53 183,70 191,85 200,98 214,115 237,140 272,171 331,225 379,282 415,341 478,442 545,586 617,771 L 571,771 C 522,771 483,763 454,747 407,723 358,683 307,627 L 268,627 C 345,742 415,822 480,866 530,899 589,916 657,916 L 1360,916 Z " transform="translate(10270,13396) scale(0.121,-0.121)" fill="rgb(0,0,0)" stroke="none"/></g><g class="OutlinedText"><path d="M 1059,533 C 932,532 833,556 762,606 691,656 644,731 622,831 600,931 604,1023 633,1108 663,1197 721,1271 806,1332 892,1392 987,1422 1091,1422 1172,1422 1237,1399 1287,1353 1337,1306 1365,1232 1372,1130 1379,1027 1348,874 1278,670 1325,661 1354,642 1364,614 1379,571 1372,510 1345,429 1342,420 1337,408 1331,391 L 1293,391 C 1309,446 1312,483 1301,502 1290,521 1264,531 1222,533 1185,436 1153,364 1125,317 1071,227 1014,154 951,98 904,56 850,24 790,2 730,-20 661,-31 585,-31 491,-31 422,-15 377,16 332,47 307,87 301,138 297,169 307,222 329,299 352,375 360,423 352,444 344,465 328,475 303,475 291,475 273,472 249,465 L 247,498 C 303,517 349,526 387,526 427,526 456,518 474,502 498,481 511,452 513,415 515,387 504,335 482,259 459,182 459,126 481,91 503,55 543,37 602,37 655,37 709,52 763,83 817,113 867,159 913,220 958,281 1007,385 1059,533 Z M 1111,671 C 1122,702 1130,725 1135,740 1178,865 1207,980 1222,1085 1237,1190 1231,1261 1202,1299 1174,1337 1132,1356 1078,1356 1014,1356 954,1332 899,1285 844,1237 797,1156 758,1043 714,911 708,815 741,755 774,694 842,664 945,664 978,664 1033,666 1111,671 Z " transform="translate(13133,13411) scale(0.121,-0.121)" fill="rgb(0,0,0)" stroke="none"/></g><g class="OutlinedText"><path d="M 1248,916 L 1414,916 1130,461 C 1111,432 1082,387 1043,326 1033,223 1031,162 1037,142 1049,105 1073,87 1110,87 1136,87 1165,98 1195,120 1225,142 1252,176 1275,223 L 1315,223 C 1273,127 1230,61 1187,24 1143,-13 1101,-31 1060,-31 1022,-31 993,-15 973,17 953,49 949,118 960,223 911,165 867,121 829,91 776,50 722,19 669,-1 617,-22 561,-32 502,-32 355,-32 263,17 227,115 191,213 194,325 237,450 287,597 368,716 480,807 592,898 703,943 812,943 888,943 948,920 990,874 1032,827 1055,741 1060,615 L 1248,916 Z M 987,503 C 998,640 984,736 946,791 907,845 859,872 800,872 735,872 669,836 601,765 533,693 473,579 419,422 388,329 373,257 373,204 374,151 388,110 416,81 444,52 479,37 521,37 572,37 627,61 686,108 765,172 866,304 987,503 Z " transform="translate(12576,13572) scale(0.121,-0.121)" fill="rgb(0,0,0)" stroke="none"/></g><text class="SVGTextShape"><tspan class="TextParagraph"><tspan class="TextPosition" x="14882" y="13934"><tspan font-family="Times New Roman, serif" font-size="494px" font-weight="400" lengthAdjust="spacingAndGlyphs" textLength="649" fill="rgb(0,0,0)" stroke="none" style="white-space: pre">sen</tspan></tspan></tspan></text>
        <text class="SVGTextShape"><tspan class="TextParagraph"><tspan class="TextPosition" x="14662" y="13713"><tspan font-family="Times New Roman, serif" font-size="247px" font-weight="400" lengthAdjust="spacingAndGlyphs" textLength="127" fill="rgb(0,0,0)" stroke="none" style="white-space: pre">2</tspan></tspan></tspan></text>
        <text class="SVGTextShape"><tspan class="TextParagraph"><tspan class="TextPosition" x="9357" y="13396"><tspan font-family="Times New Roman, serif" font-size="247px" font-weight="400" lengthAdjust="spacingAndGlyphs" textLength="127" fill="rgb(0,0,0)" stroke="none" style="white-space: pre">2</tspan></tspan></tspan></text>
        <text class="SVGTextShape"><tspan class="TextParagraph"><tspan class="TextPosition" x="9443" y="14410"><tspan font-family="Times New Roman, serif" font-size="247px" font-weight="400" lengthAdjust="spacingAndGlyphs" textLength="127" fill="rgb(0,0,0)" stroke="none" style="white-space: pre">0</tspan></tspan></tspan></text>
        <text class="SVGTextShape"><tspan class="TextParagraph"><tspan class="TextPosition" x="10303" y="14410"><tspan font-family="Times New Roman, serif" font-size="247px" font-weight="400" lengthAdjust="spacingAndGlyphs" textLength="127" fill="rgb(0,0,0)" stroke="none" style="white-space: pre">0</tspan></tspan></tspan></text>
        <text class="SVGTextShape"><tspan class="TextParagraph"><tspan class="TextPosition" x="11243" y="14410"><tspan font-family="Times New Roman, serif" font-size="247px" font-weight="400" lengthAdjust="spacingAndGlyphs" textLength="127" fill="rgb(0,0,0)" stroke="none" style="white-space: pre">0</tspan></tspan></tspan></text>
        <text class="SVGTextShape"><tspan class="TextParagraph"><tspan class="TextPosition" x="13169" y="13770"><tspan font-family="Times New Roman, serif" font-size="247px" font-weight="400" lengthAdjust="spacingAndGlyphs" textLength="127" fill="rgb(0,0,0)" stroke="none" style="white-space: pre">2</tspan></tspan></tspan></text>
        <text class="SVGTextShape"><tspan class="TextParagraph"><tspan class="TextPosition" x="12788" y="13572"><tspan font-family="Times New Roman, serif" font-size="247px" font-weight="400" lengthAdjust="spacingAndGlyphs" textLength="339" fill="rgb(0,0,0)" stroke="none" style="white-space: pre">sen</tspan></tspan></tspan></text>
        <text class="SVGTextShape"><tspan class="TextParagraph"><tspan class="TextPosition" x="12230" y="13572"><tspan font-family="Times New Roman, serif" font-size="247px" font-weight="400" lengthAdjust="spacingAndGlyphs" textLength="339" fill="rgb(0,0,0)" stroke="none" style="white-space: pre">cos</tspan></tspan></tspan></text>
        <text class="SVGTextShape"><tspan class="TextParagraph"><tspan class="TextPosition" x="11711" y="13572"><tspan font-family="Times New Roman, serif" font-size="247px" font-weight="400" lengthAdjust="spacingAndGlyphs" textLength="127" fill="rgb(0,0,0)" stroke="none" style="white-space: pre">2</tspan></tspan></tspan></text>
        <text class="SVGTextShape"><tspan class="TextParagraph"><tspan class="TextPosition" x="5352" y="14657"><tspan font-family="Times New Roman, serif" font-size="247px" font-weight="400" lengthAdjust="spacingAndGlyphs" textLength="691" fill="rgb(0,0,0)" stroke="none" style="white-space: pre">Spazio</tspan></tspan></tspan></text>
        <text class="SVGTextShape"><tspan class="TextParagraph"><tspan class="TextPosition" x="5306" y="14657"><tspan font-family="Times New Roman, serif" font-size="247px" font-weight="400" lengthAdjust="spacingAndGlyphs" textLength="64" fill="rgb(0,0,0)" stroke="none" style="white-space: pre"> </tspan></tspan></tspan></text>
        <text class="SVGTextShape"><tspan class="TextParagraph"><tspan class="TextPosition" x="5125" y="14657"><tspan font-family="Times New Roman, serif" font-size="247px" font-weight="400" lengthAdjust="spacingAndGlyphs" textLength="198" fill="rgb(0,0,0)" stroke="none" style="white-space: pre">lo</tspan></tspan></tspan></text>
        <text class="SVGTextShape"><tspan class="TextParagraph"><tspan class="TextPosition" x="5303" y="14410"><tspan font-family="Times New Roman, serif" font-size="247px" font-weight="400" lengthAdjust="spacingAndGlyphs" textLength="541" fill="rgb(0,0,0)" stroke="none" style="white-space: pre">Tutto</tspan></tspan></tspan></text>
        <text class="SVGTextShape"><tspan class="TextParagraph"><tspan class="TextPosition" x="6974" y="13705"><tspan font-family="Times New Roman, serif" font-size="247px" font-weight="400" lengthAdjust="spacingAndGlyphs" textLength="85" fill="rgb(0,0,0)" stroke="none" style="white-space: pre">ˆ</tspan></tspan></tspan></text>
        <text class="SVGTextShape"><tspan class="TextParagraph"><tspan class="TextPosition" x="6697" y="13708"><tspan font-family="Times New Roman, serif" font-size="247px" font-weight="400" lengthAdjust="spacingAndGlyphs" textLength="85" fill="rgb(0,0,0)" stroke="none" style="white-space: pre">ˆ</tspan></tspan></tspan></text>
       </g>
      </g>
     </g>
    </g>
   </g>
  </g>
 </g>
</svg>