<?xml version='1.0' encoding='UTF-8'?>
<!DOCTYPE svg PUBLIC "-//W3C//DTD SVG 1.1//EN" "http://www.w3.org/Graphics/SVG/1.1/DTD/svg11.dtd">
<svg xmlns="http://www.w3.org/2000/svg" xmlns:ooo="http://xml.openoffice.org/svg/export" xmlns:xlink="http://www.w3.org/1999/xlink" xmlns:presentation="http://sun.com/xmlns/staroffice/presentation" xmlns:smil="http://www.w3.org/2001/SMIL20/" xmlns:anim="urn:oasis:names:tc:opendocument:xmlns:animation:1.0" xmlns:svg="urn:oasis:names:tc:opendocument:xmlns:svg-compatible:1.0" version="1.2" width="153.810mm" height="53.980mm" viewBox="3104 11271 15381 5398" preserveAspectRatio="xMidYMid" fill-rule="evenodd" stroke-width="28.222" stroke-linejoin="round" xml:space="preserve">
 <defs class="ClipPathGroup">
  <clipPath id="presentation_clip_path" clipPathUnits="userSpaceOnUse">
   <rect x="0" y="0" width="21590" height="27940"/>
  </clipPath>
  <clipPath id="presentation_clip_path_shrink" clipPathUnits="userSpaceOnUse">
   <rect x="21" y="27" width="21547" height="27885"/>
  </clipPath>
 </defs>
 <defs>
  </defs>
 <defs>
  </defs>
 <defs>
  </defs>
 <defs>
  </defs>
 <defs class="TextShapeIndex">
  <g ooo:slide="id1" ooo:id-list="id3"/>
 </defs>
 <defs class="EmbeddedBulletChars">
  <g id="bullet-char-template-57356" transform="scale(0.00048828125,-0.00048828125)">
   <path d="M 580,1141 L 1163,571 580,0 -4,571 580,1141 Z"/>
  </g>
  <g id="bullet-char-template-57354" transform="scale(0.00048828125,-0.00048828125)">
   <path d="M 8,1128 L 1137,1128 1137,0 8,0 8,1128 Z"/>
  </g>
  <g id="bullet-char-template-10146" transform="scale(0.00048828125,-0.00048828125)">
   <path d="M 174,0 L 602,739 174,1481 1456,739 174,0 Z M 1358,739 L 309,1346 659,739 1358,739 Z"/>
  </g>
  <g id="bullet-char-template-10132" transform="scale(0.00048828125,-0.00048828125)">
   <path d="M 2015,739 L 1276,0 717,0 1260,543 174,543 174,936 1260,936 717,1481 1274,1481 2015,739 Z"/>
  </g>
  <g id="bullet-char-template-10007" transform="scale(0.00048828125,-0.00048828125)">
   <path d="M 0,-2 C -7,14 -16,27 -25,37 L 356,567 C 262,823 215,952 215,954 215,979 228,992 255,992 264,992 276,990 289,987 310,991 331,999 354,1012 L 381,999 492,748 772,1049 836,1024 860,1049 C 881,1039 901,1025 922,1006 886,937 835,863 770,784 769,783 710,716 594,584 L 774,223 C 774,196 753,168 711,139 L 727,119 C 717,90 699,76 672,76 641,76 570,178 457,381 L 164,-76 C 142,-110 111,-127 72,-127 30,-127 9,-110 8,-76 1,-67 -2,-52 -2,-32 -2,-23 -1,-13 0,-2 Z"/>
  </g>
  <g id="bullet-char-template-10004" transform="scale(0.00048828125,-0.00048828125)">
   <path d="M 285,-33 C 182,-33 111,30 74,156 52,228 41,333 41,471 41,549 55,616 82,672 116,743 169,778 240,778 293,778 328,747 346,684 L 369,508 C 377,444 397,411 428,410 L 1163,1116 C 1174,1127 1196,1133 1229,1133 1271,1133 1292,1118 1292,1087 L 1292,965 C 1292,929 1282,901 1262,881 L 442,47 C 390,-6 338,-33 285,-33 Z"/>
  </g>
  <g id="bullet-char-template-9679" transform="scale(0.00048828125,-0.00048828125)">
   <path d="M 813,0 C 632,0 489,54 383,161 276,268 223,411 223,592 223,773 276,916 383,1023 489,1130 632,1184 813,1184 992,1184 1136,1130 1245,1023 1353,916 1407,772 1407,592 1407,412 1353,268 1245,161 1136,54 992,0 813,0 Z"/>
  </g>
  <g id="bullet-char-template-8226" transform="scale(0.00048828125,-0.00048828125)">
   <path d="M 346,457 C 273,457 209,483 155,535 101,586 74,649 74,723 74,796 101,859 155,911 209,963 273,989 346,989 419,989 480,963 531,910 582,859 608,796 608,723 608,648 583,586 532,535 482,483 420,457 346,457 Z"/>
  </g>
  <g id="bullet-char-template-8211" transform="scale(0.00048828125,-0.00048828125)">
   <path d="M -4,459 L 1135,459 1135,606 -4,606 -4,459 Z"/>
  </g>
  <g id="bullet-char-template-61548" transform="scale(0.00048828125,-0.00048828125)">
   <path d="M 173,740 C 173,903 231,1043 346,1159 462,1274 601,1332 765,1332 928,1332 1067,1274 1183,1159 1299,1043 1357,903 1357,740 1357,577 1299,437 1183,322 1067,206 928,148 765,148 601,148 462,206 346,322 231,437 173,577 173,740 Z"/>
  </g>
 </defs>
 <g>
  <g id="id2" class="Master_Slide">
   <g id="bg-id2" class="Background"/>
   <g id="bo-id2" class="BackgroundObjects"/>
  </g>
 </g>
 <g class="SlideGroup">
  <g>
   <g id="container-id1">
    <g id="id1" class="Slide" clip-path="url(#presentation_clip_path)">
     <g class="Page">
      <g class="Graphic">
       <g id="id3">
        <rect class="BoundingBox" stroke="none" fill="none" x="3104" y="11271" width="15381" height="5398"/>
        <path fill="none" stroke="rgb(0,0,0)" stroke-width="9" stroke-linejoin="round" stroke-linecap="round" d="M 4886,12608 L 5226,12608 "/>
        <path fill="none" stroke="rgb(0,0,0)" stroke-width="18" stroke-linejoin="round" stroke-linecap="round" d="M 3175,11979 L 5261,11979 "/>
        <path fill="none" stroke="rgb(0,0,0)" stroke-width="18" stroke-linejoin="round" stroke-linecap="round" d="M 8137,11979 L 8477,11979 "/>
        <path fill="none" stroke="rgb(0,0,0)" stroke-width="18" stroke-linejoin="round" stroke-linecap="round" d="M 8788,11979 L 9183,11979 "/>
        <path fill="none" stroke="rgb(0,0,0)" stroke-width="9" stroke-linejoin="round" stroke-linecap="round" d="M 9650,11675 L 9840,11675 "/>
        <path fill="none" stroke="rgb(0,0,0)" stroke-width="9" stroke-linejoin="round" stroke-linecap="round" d="M 12977,12608 L 13318,12608 "/>
        <path fill="none" stroke="rgb(0,0,0)" stroke-width="18" stroke-linejoin="round" stroke-linecap="round" d="M 11266,11979 L 13353,11979 "/>
        <path fill="none" stroke="rgb(0,0,0)" stroke-width="18" stroke-linejoin="round" stroke-linecap="round" d="M 16228,11979 L 16569,11979 "/>
        <path fill="none" stroke="rgb(0,0,0)" stroke-width="9" stroke-linejoin="round" stroke-linecap="round" d="M 17227,11675 L 17417,11675 "/>
        <path fill="none" stroke="rgb(0,0,0)" stroke-width="9" stroke-linejoin="round" stroke-linecap="round" d="M 5265,15870 L 5605,15870 "/>
        <path fill="none" stroke="rgb(0,0,0)" stroke-width="18" stroke-linejoin="round" stroke-linecap="round" d="M 3554,15240 L 5641,15240 "/>
        <path fill="none" stroke="rgb(0,0,0)" stroke-width="9" stroke-linejoin="round" stroke-linecap="round" d="M 8120,14667 L 8461,14667 "/>
        <path fill="none" stroke="rgb(0,0,0)" stroke-width="9" stroke-linejoin="round" stroke-linecap="round" d="M 7265,15983 L 7605,15983 "/>
        <path fill="none" stroke="rgb(0,0,0)" stroke-width="9" stroke-linejoin="round" stroke-linecap="round" d="M 8801,15983 L 9103,15983 "/>
        <path fill="none" stroke="rgb(0,0,0)" stroke-width="18" stroke-linejoin="round" stroke-linecap="round" d="M 5720,15240 L 9584,15240 "/>
        <path fill="none" stroke="rgb(0,0,0)" stroke-width="9" stroke-linejoin="round" stroke-linecap="round" d="M 12069,14669 L 11907,15174 "/>
        <path fill="none" stroke="rgb(0,0,0)" stroke-width="9" stroke-linejoin="round" stroke-linecap="round" d="M 11640,15983 L 11981,15983 "/>
        <path fill="none" stroke="rgb(0,0,0)" stroke-width="9" stroke-linejoin="round" stroke-linecap="round" d="M 13177,15983 L 13479,15983 "/>
        <path fill="none" stroke="rgb(0,0,0)" stroke-width="18" stroke-linejoin="round" stroke-linecap="round" d="M 10096,15240 L 13960,15240 "/>
        <text class="SVGTextShape"><tspan class="TextParagraph"><tspan class="TextPosition" x="13760" y="15495"><tspan font-family="Times New Roman, serif" font-size="247px" font-weight="400" lengthAdjust="spacingAndGlyphs" textLength="127" fill="rgb(0,0,0)" stroke="none" style="white-space: pre">2</tspan></tspan></tspan></text>
        <text class="SVGTextShape"><tspan class="TextParagraph"><tspan class="TextPosition" x="12262" y="15495"><tspan font-family="Times New Roman, serif" font-size="247px" font-weight="400" lengthAdjust="spacingAndGlyphs" textLength="127" fill="rgb(0,0,0)" stroke="none" style="white-space: pre">2</tspan></tspan></tspan></text>
        <text class="SVGTextShape"><tspan class="TextParagraph"><tspan class="TextPosition" x="12346" y="15171"><tspan font-family="Times New Roman, serif" font-size="247px" font-weight="400" lengthAdjust="spacingAndGlyphs" textLength="127" fill="rgb(0,0,0)" stroke="none" style="white-space: pre">0</tspan></tspan></tspan></text>
        <text class="SVGTextShape"><tspan class="TextParagraph"><tspan class="TextPosition" x="9385" y="15495"><tspan font-family="Times New Roman, serif" font-size="247px" font-weight="400" lengthAdjust="spacingAndGlyphs" textLength="127" fill="rgb(0,0,0)" stroke="none" style="white-space: pre">2</tspan></tspan></tspan></text>
        <text class="SVGTextShape"><tspan class="TextParagraph"><tspan class="TextPosition" x="7886" y="15495"><tspan font-family="Times New Roman, serif" font-size="247px" font-weight="400" lengthAdjust="spacingAndGlyphs" textLength="127" fill="rgb(0,0,0)" stroke="none" style="white-space: pre">2</tspan></tspan></tspan></text>
        <text class="SVGTextShape"><tspan class="TextParagraph"><tspan class="TextPosition" x="4077" y="16117"><tspan font-family="Times New Roman, serif" font-size="247px" font-weight="400" lengthAdjust="spacingAndGlyphs" textLength="127" fill="rgb(0,0,0)" stroke="none" style="white-space: pre">0</tspan></tspan></tspan></text>
        <text class="SVGTextShape"><tspan class="TextParagraph"><tspan class="TextPosition" x="13523" y="12579"><tspan font-family="Times New Roman, serif" font-size="247px" font-weight="400" lengthAdjust="spacingAndGlyphs" textLength="127" fill="rgb(0,0,0)" stroke="none" style="white-space: pre">0</tspan></tspan></tspan></text>
        <text class="SVGTextShape"><tspan class="TextParagraph"><tspan class="TextPosition" x="11790" y="12855"><tspan font-family="Times New Roman, serif" font-size="247px" font-weight="400" lengthAdjust="spacingAndGlyphs" textLength="127" fill="rgb(0,0,0)" stroke="none" style="white-space: pre">0</tspan></tspan></tspan></text>
        <text class="SVGTextShape"><tspan class="TextParagraph"><tspan class="TextPosition" x="5431" y="12579"><tspan font-family="Times New Roman, serif" font-size="247px" font-weight="400" lengthAdjust="spacingAndGlyphs" textLength="127" fill="rgb(0,0,0)" stroke="none" style="white-space: pre">0</tspan></tspan></tspan></text>
        <text class="SVGTextShape"><tspan class="TextParagraph"><tspan class="TextPosition" x="3698" y="12855"><tspan font-family="Times New Roman, serif" font-size="247px" font-weight="400" lengthAdjust="spacingAndGlyphs" textLength="127" fill="rgb(0,0,0)" stroke="none" style="white-space: pre">0</tspan></tspan></tspan></text>
        <text class="SVGTextShape"><tspan class="TextParagraph"><tspan class="TextPosition" x="13204" y="15798"><tspan font-family="Times New Roman, serif" font-size="494px" font-weight="400" lengthAdjust="spacingAndGlyphs" textLength="243" fill="rgb(0,0,0)" stroke="none" style="white-space: pre">1</tspan></tspan></tspan></text>
        <text class="SVGTextShape"><tspan class="TextParagraph"><tspan class="TextPosition" x="11694" y="16490"><tspan font-family="Times New Roman, serif" font-size="494px" font-weight="400" lengthAdjust="spacingAndGlyphs" textLength="243" fill="rgb(0,0,0)" stroke="none" style="white-space: pre">2</tspan></tspan></tspan></text>
        <text class="SVGTextShape"><tspan class="TextParagraph"><tspan class="TextPosition" x="10905" y="16107"><tspan font-family="Times New Roman, serif" font-size="494px" font-weight="400" lengthAdjust="spacingAndGlyphs" textLength="649" fill="rgb(0,0,0)" stroke="none" style="white-space: pre">sen</tspan></tspan></tspan></text>
        <text class="SVGTextShape"><tspan class="TextParagraph"><tspan class="TextPosition" x="10355" y="16107"><tspan font-family="Times New Roman, serif" font-size="494px" font-weight="400" lengthAdjust="spacingAndGlyphs" textLength="243" fill="rgb(0,0,0)" stroke="none" style="white-space: pre">2</tspan></tspan></tspan></text>
        <text class="SVGTextShape"><tspan class="TextParagraph"><tspan class="TextPosition" x="8829" y="15798"><tspan font-family="Times New Roman, serif" font-size="494px" font-weight="400" lengthAdjust="spacingAndGlyphs" textLength="243" fill="rgb(0,0,0)" stroke="none" style="white-space: pre">1</tspan></tspan></tspan></text>
        <text class="SVGTextShape"><tspan class="TextParagraph"><tspan class="TextPosition" x="7319" y="16490"><tspan font-family="Times New Roman, serif" font-size="494px" font-weight="400" lengthAdjust="spacingAndGlyphs" textLength="243" fill="rgb(0,0,0)" stroke="none" style="white-space: pre">2</tspan></tspan></tspan></text>
        <text class="SVGTextShape"><tspan class="TextParagraph"><tspan class="TextPosition" x="6529" y="16107"><tspan font-family="Times New Roman, serif" font-size="494px" font-weight="400" lengthAdjust="spacingAndGlyphs" textLength="649" fill="rgb(0,0,0)" stroke="none" style="white-space: pre">sen</tspan></tspan></tspan></text>
        <text class="SVGTextShape"><tspan class="TextParagraph"><tspan class="TextPosition" x="5979" y="16107"><tspan font-family="Times New Roman, serif" font-size="494px" font-weight="400" lengthAdjust="spacingAndGlyphs" textLength="243" fill="rgb(0,0,0)" stroke="none" style="white-space: pre">2</tspan></tspan></tspan></text>
        <text class="SVGTextShape"><tspan class="TextParagraph"><tspan class="TextPosition" x="8174" y="15174"><tspan font-family="Times New Roman, serif" font-size="494px" font-weight="400" lengthAdjust="spacingAndGlyphs" textLength="243" fill="rgb(0,0,0)" stroke="none" style="white-space: pre">2</tspan></tspan></tspan></text>
        <text class="SVGTextShape"><tspan class="TextParagraph"><tspan class="TextPosition" x="7385" y="14790"><tspan font-family="Times New Roman, serif" font-size="494px" font-weight="400" lengthAdjust="spacingAndGlyphs" textLength="649" fill="rgb(0,0,0)" stroke="none" style="white-space: pre">sen</tspan></tspan></tspan></text>
        <text class="SVGTextShape"><tspan class="TextParagraph"><tspan class="TextPosition" x="6835" y="14790"><tspan font-family="Times New Roman, serif" font-size="494px" font-weight="400" lengthAdjust="spacingAndGlyphs" textLength="243" fill="rgb(0,0,0)" stroke="none" style="white-space: pre">2</tspan></tspan></tspan></text>
        <text class="SVGTextShape"><tspan class="TextParagraph"><tspan class="TextPosition" x="5319" y="16377"><tspan font-family="Times New Roman, serif" font-size="494px" font-weight="400" lengthAdjust="spacingAndGlyphs" textLength="243" fill="rgb(0,0,0)" stroke="none" style="white-space: pre">2</tspan></tspan></tspan></text>
        <text class="SVGTextShape"><tspan class="TextParagraph"><tspan class="TextPosition" x="4529" y="15993"><tspan font-family="Times New Roman, serif" font-size="494px" font-weight="400" lengthAdjust="spacingAndGlyphs" textLength="649" fill="rgb(0,0,0)" stroke="none" style="white-space: pre">sen</tspan></tspan></tspan></text>
        <text class="SVGTextShape"><tspan class="TextParagraph"><tspan class="TextPosition" x="3581" y="15993"><tspan font-family="Times New Roman, serif" font-size="494px" font-weight="400" lengthAdjust="spacingAndGlyphs" textLength="243" fill="rgb(0,0,0)" stroke="none" style="white-space: pre">2</tspan></tspan></tspan></text>
        <text class="SVGTextShape"><tspan class="TextParagraph"><tspan class="TextPosition" x="6200" y="13741"><tspan font-family="Times New Roman, serif" font-size="494px" font-weight="400" lengthAdjust="spacingAndGlyphs" textLength="243" fill="rgb(0,0,0)" stroke="none" style="white-space: pre">2</tspan></tspan></tspan></text>
        <text class="SVGTextShape"><tspan class="TextParagraph"><tspan class="TextPosition" x="6084" y="13741"><tspan font-family="Times New Roman, serif" font-size="494px" font-weight="400" lengthAdjust="spacingAndGlyphs" textLength="122" fill="rgb(0,0,0)" stroke="none" style="white-space: pre"> </tspan></tspan></tspan></text>
        <text class="SVGTextShape"><tspan class="TextParagraph"><tspan class="TextPosition" x="4108" y="13741"><tspan font-family="Times New Roman, serif" font-size="494px" font-weight="400" lengthAdjust="spacingAndGlyphs" textLength="1973" fill="rgb(0,0,0)" stroke="none" style="white-space: pre">appendice</tspan></tspan></tspan></text>
        <text class="SVGTextShape"><tspan class="TextParagraph"><tspan class="TextPosition" x="4000" y="13741"><tspan font-family="Times New Roman, serif" font-size="494px" font-weight="400" lengthAdjust="spacingAndGlyphs" textLength="122" fill="rgb(0,0,0)" stroke="none" style="white-space: pre"> </tspan></tspan></tspan></text>
        <text class="SVGTextShape"><tspan class="TextParagraph"><tspan class="TextPosition" x="3175" y="13741"><tspan font-family="Times New Roman, serif" font-size="494px" font-weight="400" lengthAdjust="spacingAndGlyphs" textLength="838" fill="rgb(0,0,0)" stroke="none" style="white-space: pre">vedi</tspan></tspan></tspan></text>
        <text class="SVGTextShape"><tspan class="TextParagraph"><tspan class="TextPosition" x="16282" y="12486"><tspan font-family="Times New Roman, serif" font-size="494px" font-weight="400" lengthAdjust="spacingAndGlyphs" textLength="243" fill="rgb(0,0,0)" stroke="none" style="white-space: pre">2</tspan></tspan></tspan></text>
        <text class="SVGTextShape"><tspan class="TextParagraph"><tspan class="TextPosition" x="15493" y="12102"><tspan font-family="Times New Roman, serif" font-size="494px" font-weight="400" lengthAdjust="spacingAndGlyphs" textLength="649" fill="rgb(0,0,0)" stroke="none" style="white-space: pre">sen</tspan></tspan></tspan></text>
        <text class="SVGTextShape"><tspan class="TextParagraph"><tspan class="TextPosition" x="14651" y="12102"><tspan font-family="Times New Roman, serif" font-size="494px" font-weight="400" lengthAdjust="spacingAndGlyphs" textLength="243" fill="rgb(0,0,0)" stroke="none" style="white-space: pre">2</tspan></tspan></tspan></text>
        <text class="SVGTextShape"><tspan class="TextParagraph"><tspan class="TextPosition" x="13732" y="12102"><tspan font-family="Times New Roman, serif" font-size="494px" font-weight="400" lengthAdjust="spacingAndGlyphs" textLength="649" fill="rgb(0,0,0)" stroke="none" style="white-space: pre">sen</tspan></tspan></tspan></text>
        <text class="SVGTextShape"><tspan class="TextParagraph"><tspan class="TextPosition" x="13031" y="13116"><tspan font-family="Times New Roman, serif" font-size="494px" font-weight="400" lengthAdjust="spacingAndGlyphs" textLength="243" fill="rgb(0,0,0)" stroke="none" style="white-space: pre">2</tspan></tspan></tspan></text>
        <text class="SVGTextShape"><tspan class="TextParagraph"><tspan class="TextPosition" x="12242" y="12732"><tspan font-family="Times New Roman, serif" font-size="494px" font-weight="400" lengthAdjust="spacingAndGlyphs" textLength="649" fill="rgb(0,0,0)" stroke="none" style="white-space: pre">sen</tspan></tspan></tspan></text>
        <text class="SVGTextShape"><tspan class="TextParagraph"><tspan class="TextPosition" x="11294" y="12732"><tspan font-family="Times New Roman, serif" font-size="494px" font-weight="400" lengthAdjust="spacingAndGlyphs" textLength="243" fill="rgb(0,0,0)" stroke="none" style="white-space: pre">2</tspan></tspan></tspan></text>
        <text class="SVGTextShape"><tspan class="TextParagraph"><tspan class="TextPosition" x="8191" y="12486"><tspan font-family="Times New Roman, serif" font-size="494px" font-weight="400" lengthAdjust="spacingAndGlyphs" textLength="243" fill="rgb(0,0,0)" stroke="none" style="white-space: pre">2</tspan></tspan></tspan></text>
        <text class="SVGTextShape"><tspan class="TextParagraph"><tspan class="TextPosition" x="7401" y="12102"><tspan font-family="Times New Roman, serif" font-size="494px" font-weight="400" lengthAdjust="spacingAndGlyphs" textLength="649" fill="rgb(0,0,0)" stroke="none" style="white-space: pre">sen</tspan></tspan></tspan></text>
        <text class="SVGTextShape"><tspan class="TextParagraph"><tspan class="TextPosition" x="6559" y="12102"><tspan font-family="Times New Roman, serif" font-size="494px" font-weight="400" lengthAdjust="spacingAndGlyphs" textLength="243" fill="rgb(0,0,0)" stroke="none" style="white-space: pre">2</tspan></tspan></tspan></text>
        <text class="SVGTextShape"><tspan class="TextParagraph"><tspan class="TextPosition" x="5641" y="12102"><tspan font-family="Times New Roman, serif" font-size="494px" font-weight="400" lengthAdjust="spacingAndGlyphs" textLength="649" fill="rgb(0,0,0)" stroke="none" style="white-space: pre">sen</tspan></tspan></tspan></text>
        <text class="SVGTextShape"><tspan class="TextParagraph"><tspan class="TextPosition" x="4940" y="13116"><tspan font-family="Times New Roman, serif" font-size="494px" font-weight="400" lengthAdjust="spacingAndGlyphs" textLength="243" fill="rgb(0,0,0)" stroke="none" style="white-space: pre">2</tspan></tspan></tspan></text>
        <text class="SVGTextShape"><tspan class="TextParagraph"><tspan class="TextPosition" x="4150" y="12732"><tspan font-family="Times New Roman, serif" font-size="494px" font-weight="400" lengthAdjust="spacingAndGlyphs" textLength="649" fill="rgb(0,0,0)" stroke="none" style="white-space: pre">sen</tspan></tspan></tspan></text>
        <text class="SVGTextShape"><tspan class="TextParagraph"><tspan class="TextPosition" x="3202" y="12732"><tspan font-family="Times New Roman, serif" font-size="494px" font-weight="400" lengthAdjust="spacingAndGlyphs" textLength="243" fill="rgb(0,0,0)" stroke="none" style="white-space: pre">2</tspan></tspan></tspan></text>
        <text class="SVGTextShape"><tspan class="TextParagraph"><tspan class="TextPosition" x="4094" y="11794"><tspan font-family="Times New Roman, serif" font-size="494px" font-weight="400" lengthAdjust="spacingAndGlyphs" textLength="243" fill="rgb(0,0,0)" stroke="none" style="white-space: pre">1</tspan></tspan></tspan></text>
        <g class="OutlinedText"><path d="M 702,-166 L 605,-166 605,1897 702,1897 702,-166 Z " transform="translate(13541,16156) scale(0.241,-0.241)" fill="rgb(0,0,0)" stroke="none"/></g><g class="OutlinedText"><path d="M 703,1897 L 703,1370 C 703,1165 678,963 628,766 585,595 525,446 448,317 370,188 279,80 174,-8 99,-73 12,-125 -86,-166 L -109,-146 C 79,-17 228,135 339,309 427,448 493,615 538,810 583,1005 605,1185 605,1350 L 605,1897 703,1897 Z " transform="translate(13541,16543) scale(0.241,-0.241)" fill="rgb(0,0,0)" stroke="none"/></g><g class="OutlinedText"><path d="M 703,-166 L 605,-166 605,380 C 605,591 577,796 521,995 465,1194 381,1369 269,1520 172,1651 46,1769 -109,1876 L -86,1897 C 75,1830 218,1719 343,1565 468,1411 559,1225 617,1006 674,787 703,571 703,360 L 703,-166 Z " transform="translate(13541,15840) scale(0.241,-0.241)" fill="rgb(0,0,0)" stroke="none"/></g><g class="OutlinedText"><path d="M 180,-166 L 83,-166 83,1897 180,1897 180,-166 Z " transform="translate(12922,16156) scale(0.241,-0.241)" fill="rgb(0,0,0)" stroke="none"/></g><g class="OutlinedText"><path d="M 83,1897 L 180,1897 180,1350 C 180,1139 208,934 265,735 321,536 405,361 517,210 614,80 740,-39 895,-146 L 872,-166 C 711,-99 569,12 444,166 319,319 227,506 170,725 112,944 83,1159 83,1370 L 83,1897 Z " transform="translate(12922,16543) scale(0.241,-0.241)" fill="rgb(0,0,0)" stroke="none"/></g><g class="OutlinedText"><path d="M 83,-166 L 83,360 C 83,565 108,767 158,965 201,1135 261,1284 339,1413 416,1542 507,1650 611,1738 687,1803 774,1856 872,1897 L 895,1876 C 707,1747 558,1595 447,1421 359,1282 293,1115 248,920 203,725 180,545 180,380 L 180,-166 83,-166 Z " transform="translate(12922,15840) scale(0.241,-0.241)" fill="rgb(0,0,0)" stroke="none"/></g><g class="OutlinedText"><path d="M 514,1050 L 612,1050 612,572 1087,572 1087,475 612,475 612,0 514,0 514,475 37,475 37,572 514,572 514,1050 Z " transform="translate(12551,16107) scale(0.241,-0.241)" fill="rgb(0,0,0)" stroke="none"/></g><g class="OutlinedText"><path d="M 702,-166 L 605,-166 605,1897 702,1897 702,-166 Z " transform="translate(12042,16156) scale(0.241,-0.241)" fill="rgb(0,0,0)" stroke="none"/></g><g class="OutlinedText"><path d="M 703,1897 L 703,1370 C 703,1165 678,963 628,766 585,595 525,446 448,317 370,188 279,80 174,-8 99,-73 12,-125 -86,-166 L -109,-146 C 79,-17 228,135 339,309 427,448 493,615 538,810 583,1005 605,1185 605,1350 L 605,1897 703,1897 Z " transform="translate(12042,16543) scale(0.241,-0.241)" fill="rgb(0,0,0)" stroke="none"/></g><g class="OutlinedText"><path d="M 703,-166 L 605,-166 605,380 C 605,591 577,796 521,995 465,1194 381,1369 269,1520 172,1651 46,1769 -109,1876 L -86,1897 C 75,1830 218,1719 343,1565 468,1411 559,1225 617,1006 674,787 703,571 703,360 L 703,-166 Z " transform="translate(12042,15840) scale(0.241,-0.241)" fill="rgb(0,0,0)" stroke="none"/></g><g class="OutlinedText"><path d="M 180,-166 L 83,-166 83,1897 180,1897 180,-166 Z " transform="translate(10108,16156) scale(0.241,-0.241)" fill="rgb(0,0,0)" stroke="none"/></g><g class="OutlinedText"><path d="M 83,1897 L 180,1897 180,1350 C 180,1139 208,934 265,735 321,536 405,361 517,210 614,80 740,-39 895,-146 L 872,-166 C 711,-99 569,12 444,166 319,319 227,506 170,725 112,944 83,1159 83,1370 L 83,1897 Z " transform="translate(10108,16543) scale(0.241,-0.241)" fill="rgb(0,0,0)" stroke="none"/></g><g class="OutlinedText"><path d="M 83,-166 L 83,360 C 83,565 108,767 158,965 201,1135 261,1284 339,1413 416,1542 507,1650 611,1738 687,1803 774,1856 872,1897 L 895,1876 C 707,1747 558,1595 447,1421 359,1282 293,1115 248,920 203,725 180,545 180,380 L 180,-166 83,-166 Z " transform="translate(10108,15840) scale(0.241,-0.241)" fill="rgb(0,0,0)" stroke="none"/></g><g class="OutlinedText"><path d="M 37,759 L 1087,759 1087,662 37,662 37,759 Z M 37,386 L 1087,386 1087,287 37,287 37,386 Z " transform="translate(9709,15364) scale(0.241,-0.241)" fill="rgb(0,0,0)" stroke="none"/></g><g class="OutlinedText"><path d="M 702,-166 L 605,-166 605,1897 702,1897 702,-166 Z " transform="translate(9165,16156) scale(0.241,-0.241)" fill="rgb(0,0,0)" stroke="none"/></g><g class="OutlinedText"><path d="M 703,1897 L 703,1370 C 703,1165 678,963 628,766 585,595 525,446 448,317 370,188 279,80 174,-8 99,-73 12,-125 -86,-166 L -109,-146 C 79,-17 228,135 339,309 427,448 493,615 538,810 583,1005 605,1185 605,1350 L 605,1897 703,1897 Z " transform="translate(9165,16543) scale(0.241,-0.241)" fill="rgb(0,0,0)" stroke="none"/></g><g class="OutlinedText"><path d="M 703,-166 L 605,-166 605,380 C 605,591 577,796 521,995 465,1194 381,1369 269,1520 172,1651 46,1769 -109,1876 L -86,1897 C 75,1830 218,1719 343,1565 468,1411 559,1225 617,1006 674,787 703,571 703,360 L 703,-166 Z " transform="translate(9165,15840) scale(0.241,-0.241)" fill="rgb(0,0,0)" stroke="none"/></g><g class="OutlinedText"><path d="M 180,-166 L 83,-166 83,1897 180,1897 180,-166 Z " transform="translate(8547,16156) scale(0.241,-0.241)" fill="rgb(0,0,0)" stroke="none"/></g><g class="OutlinedText"><path d="M 83,1897 L 180,1897 180,1350 C 180,1139 208,934 265,735 321,536 405,361 517,210 614,80 740,-39 895,-146 L 872,-166 C 711,-99 569,12 444,166 319,319 227,506 170,725 112,944 83,1159 83,1370 L 83,1897 Z " transform="translate(8547,16543) scale(0.241,-0.241)" fill="rgb(0,0,0)" stroke="none"/></g><g class="OutlinedText"><path d="M 83,-166 L 83,360 C 83,565 108,767 158,965 201,1135 261,1284 339,1413 416,1542 507,1650 611,1738 687,1803 774,1856 872,1897 L 895,1876 C 707,1747 558,1595 447,1421 359,1282 293,1115 248,920 203,725 180,545 180,380 L 180,-166 83,-166 Z " transform="translate(8547,15840) scale(0.241,-0.241)" fill="rgb(0,0,0)" stroke="none"/></g><g class="OutlinedText"><path d="M 514,1050 L 612,1050 612,572 1087,572 1087,475 612,475 612,0 514,0 514,475 37,475 37,572 514,572 514,1050 Z " transform="translate(8175,16107) scale(0.241,-0.241)" fill="rgb(0,0,0)" stroke="none"/></g><g class="OutlinedText"><path d="M 702,-166 L 605,-166 605,1897 702,1897 702,-166 Z " transform="translate(7667,16156) scale(0.241,-0.241)" fill="rgb(0,0,0)" stroke="none"/></g><g class="OutlinedText"><path d="M 703,1897 L 703,1370 C 703,1165 678,963 628,766 585,595 525,446 448,317 370,188 279,80 174,-8 99,-73 12,-125 -86,-166 L -109,-146 C 79,-17 228,135 339,309 427,448 493,615 538,810 583,1005 605,1185 605,1350 L 605,1897 703,1897 Z " transform="translate(7667,16543) scale(0.241,-0.241)" fill="rgb(0,0,0)" stroke="none"/></g><g class="OutlinedText"><path d="M 703,-166 L 605,-166 605,380 C 605,591 577,796 521,995 465,1194 381,1369 269,1520 172,1651 46,1769 -109,1876 L -86,1897 C 75,1830 218,1719 343,1565 468,1411 559,1225 617,1006 674,787 703,571 703,360 L 703,-166 Z " transform="translate(7667,15840) scale(0.241,-0.241)" fill="rgb(0,0,0)" stroke="none"/></g><g class="OutlinedText"><path d="M 180,-166 L 83,-166 83,1897 180,1897 180,-166 Z " transform="translate(5732,16156) scale(0.241,-0.241)" fill="rgb(0,0,0)" stroke="none"/></g><g class="OutlinedText"><path d="M 83,1897 L 180,1897 180,1350 C 180,1139 208,934 265,735 321,536 405,361 517,210 614,80 740,-39 895,-146 L 872,-166 C 711,-99 569,12 444,166 319,319 227,506 170,725 112,944 83,1159 83,1370 L 83,1897 Z " transform="translate(5732,16543) scale(0.241,-0.241)" fill="rgb(0,0,0)" stroke="none"/></g><g class="OutlinedText"><path d="M 83,-166 L 83,360 C 83,565 108,767 158,965 201,1135 261,1284 339,1413 416,1542 507,1650 611,1738 687,1803 774,1856 872,1897 L 895,1876 C 707,1747 558,1595 447,1421 359,1282 293,1115 248,920 203,725 180,545 180,380 L 180,-166 83,-166 Z " transform="translate(5732,15840) scale(0.241,-0.241)" fill="rgb(0,0,0)" stroke="none"/></g><g class="OutlinedText"><path d="M 37,759 L 1087,759 1087,662 37,662 37,759 Z M 37,386 L 1087,386 1087,287 37,287 37,386 Z " transform="translate(3167,15364) scale(0.241,-0.241)" fill="rgb(0,0,0)" stroke="none"/></g><g class="OutlinedText"><path d="M 37,759 L 1087,759 1087,662 37,662 37,759 Z M 37,386 L 1087,386 1087,287 37,287 37,386 Z " transform="translate(18149,12102) scale(0.241,-0.241)" fill="rgb(0,0,0)" stroke="none"/></g><g class="OutlinedText"><path d="M 121,803 L 152,1099 C 161,1183 169,1240 178,1269 191,1311 209,1341 232,1360 255,1378 280,1387 309,1387 333,1387 352,1380 366,1367 380,1354 387,1337 387,1316 387,1300 384,1283 377,1265 368,1240 344,1184 303,1098 L 165,803 121,803 Z " transform="translate(17932,12074) scale(0.241,-0.241)" fill="rgb(0,0,0)" stroke="none"/></g><g class="OutlinedText"><path d="M 702,-166 L 605,-166 605,1897 702,1897 702,-166 Z " transform="translate(16631,12152) scale(0.241,-0.241)" fill="rgb(0,0,0)" stroke="none"/></g><g class="OutlinedText"><path d="M 703,1897 L 703,1370 C 703,1165 678,963 628,766 585,595 525,446 448,317 370,188 279,80 174,-8 99,-73 12,-125 -86,-166 L -109,-146 C 79,-17 228,135 339,309 427,448 493,615 538,810 583,1005 605,1185 605,1350 L 605,1897 703,1897 Z " transform="translate(16631,12539) scale(0.241,-0.241)" fill="rgb(0,0,0)" stroke="none"/></g><g class="OutlinedText"><path d="M 703,-166 L 605,-166 605,380 C 605,591 577,796 521,995 465,1194 381,1369 269,1520 172,1651 46,1769 -109,1876 L -86,1897 C 75,1830 218,1719 343,1565 468,1411 559,1225 617,1006 674,787 703,571 703,360 L 703,-166 Z " transform="translate(16631,11835) scale(0.241,-0.241)" fill="rgb(0,0,0)" stroke="none"/></g><g class="OutlinedText"><path d="M 180,-166 L 83,-166 83,1897 180,1897 180,-166 Z " transform="translate(14404,12152) scale(0.241,-0.241)" fill="rgb(0,0,0)" stroke="none"/></g><g class="OutlinedText"><path d="M 83,1897 L 180,1897 180,1350 C 180,1139 208,934 265,735 321,536 405,361 517,210 614,80 740,-39 895,-146 L 872,-166 C 711,-99 569,12 444,166 319,319 227,506 170,725 112,944 83,1159 83,1370 L 83,1897 Z " transform="translate(14404,12539) scale(0.241,-0.241)" fill="rgb(0,0,0)" stroke="none"/></g><g class="OutlinedText"><path d="M 83,-166 L 83,360 C 83,565 108,767 158,965 201,1135 261,1284 339,1413 416,1542 507,1650 611,1738 687,1803 774,1856 872,1897 L 895,1876 C 707,1747 558,1595 447,1421 359,1282 293,1115 248,920 203,725 180,545 180,380 L 180,-166 83,-166 Z " transform="translate(14404,11835) scale(0.241,-0.241)" fill="rgb(0,0,0)" stroke="none"/></g><g class="OutlinedText"><path d="M 121,803 L 152,1099 C 161,1183 169,1240 178,1269 191,1311 209,1341 232,1360 255,1378 280,1387 309,1387 333,1387 352,1380 366,1367 380,1354 387,1337 387,1316 387,1300 384,1283 377,1265 368,1240 344,1184 303,1098 L 165,803 121,803 Z " transform="translate(15344,12074) scale(0.241,-0.241)" fill="rgb(0,0,0)" stroke="none"/></g><g class="OutlinedText"><path d="M 37,759 L 1087,759 1087,662 37,662 37,759 Z M 37,386 L 1087,386 1087,287 37,287 37,386 Z " transform="translate(10879,12102) scale(0.241,-0.241)" fill="rgb(0,0,0)" stroke="none"/></g><g class="OutlinedText"><path d="M 121,803 L 152,1099 C 161,1183 169,1240 178,1269 191,1311 209,1341 232,1360 255,1378 280,1387 309,1387 333,1387 352,1380 366,1367 380,1354 387,1337 387,1316 387,1300 384,1283 377,1265 368,1240 344,1184 303,1098 L 165,803 121,803 Z " transform="translate(10662,12074) scale(0.241,-0.241)" fill="rgb(0,0,0)" stroke="none"/></g><g class="OutlinedText"><path d="M 570,1422 L 79,-28 -1,-28 490,1422 570,1422 Z " transform="translate(9919,12156) scale(0.241,-0.241)" fill="rgb(0,0,0)" stroke="none"/></g><g class="OutlinedText"><path d="M 121,803 L 152,1099 C 161,1183 169,1240 178,1269 191,1311 209,1341 232,1360 255,1378 280,1387 309,1387 333,1387 352,1380 366,1367 380,1354 387,1337 387,1316 387,1300 384,1283 377,1265 368,1240 344,1184 303,1098 L 165,803 121,803 Z " transform="translate(10108,12074) scale(0.241,-0.241)" fill="rgb(0,0,0)" stroke="none"/></g><g class="OutlinedText"><path d="M 570,1422 L 79,-28 -1,-28 490,1422 570,1422 Z " transform="translate(8859,12540) scale(0.241,-0.241)" fill="rgb(0,0,0)" stroke="none"/></g><g class="OutlinedText"><path d="M 121,803 L 152,1099 C 161,1183 169,1240 178,1269 191,1311 209,1341 232,1360 255,1378 280,1387 309,1387 333,1387 352,1380 366,1367 380,1354 387,1337 387,1316 387,1300 384,1283 377,1265 368,1240 344,1184 303,1098 L 165,803 121,803 Z " transform="translate(9047,12457) scale(0.241,-0.241)" fill="rgb(0,0,0)" stroke="none"/></g><g class="OutlinedText"><path d="M 702,-166 L 605,-166 605,1897 702,1897 702,-166 Z " transform="translate(8539,12152) scale(0.241,-0.241)" fill="rgb(0,0,0)" stroke="none"/></g><g class="OutlinedText"><path d="M 703,1897 L 703,1370 C 703,1165 678,963 628,766 585,595 525,446 448,317 370,188 279,80 174,-8 99,-73 12,-125 -86,-166 L -109,-146 C 79,-17 228,135 339,309 427,448 493,615 538,810 583,1005 605,1185 605,1350 L 605,1897 703,1897 Z " transform="translate(8539,12539) scale(0.241,-0.241)" fill="rgb(0,0,0)" stroke="none"/></g><g class="OutlinedText"><path d="M 703,-166 L 605,-166 605,380 C 605,591 577,796 521,995 465,1194 381,1369 269,1520 172,1651 46,1769 -109,1876 L -86,1897 C 75,1830 218,1719 343,1565 468,1411 559,1225 617,1006 674,787 703,571 703,360 L 703,-166 Z " transform="translate(8539,11835) scale(0.241,-0.241)" fill="rgb(0,0,0)" stroke="none"/></g><g class="OutlinedText"><path d="M 180,-166 L 83,-166 83,1897 180,1897 180,-166 Z " transform="translate(6312,12152) scale(0.241,-0.241)" fill="rgb(0,0,0)" stroke="none"/></g><g class="OutlinedText"><path d="M 83,1897 L 180,1897 180,1350 C 180,1139 208,934 265,735 321,536 405,361 517,210 614,80 740,-39 895,-146 L 872,-166 C 711,-99 569,12 444,166 319,319 227,506 170,725 112,944 83,1159 83,1370 L 83,1897 Z " transform="translate(6312,12539) scale(0.241,-0.241)" fill="rgb(0,0,0)" stroke="none"/></g><g class="OutlinedText"><path d="M 83,-166 L 83,360 C 83,565 108,767 158,965 201,1135 261,1284 339,1413 416,1542 507,1650 611,1738 687,1803 774,1856 872,1897 L 895,1876 C 707,1747 558,1595 447,1421 359,1282 293,1115 248,920 203,725 180,545 180,380 L 180,-166 83,-166 Z " transform="translate(6312,11835) scale(0.241,-0.241)" fill="rgb(0,0,0)" stroke="none"/></g><g class="OutlinedText"><path d="M 121,803 L 152,1099 C 161,1183 169,1240 178,1269 191,1311 209,1341 232,1360 255,1378 280,1387 309,1387 333,1387 352,1380 366,1367 380,1354 387,1337 387,1316 387,1300 384,1283 377,1265 368,1240 344,1184 303,1098 L 165,803 121,803 Z " transform="translate(7252,12074) scale(0.241,-0.241)" fill="rgb(0,0,0)" stroke="none"/></g><g class="OutlinedText"><path d="M 201,948 C 213,1315 221,1515 224,1546 239,1670 266,1754 305,1798 343,1841 386,1863 435,1863 468,1863 498,1852 523,1830 548,1807 560,1783 560,1756 560,1725 551,1700 534,1681 516,1662 494,1652 468,1652 445,1652 419,1664 392,1688 377,1701 363,1708 352,1708 341,1708 331,1703 324,1694 316,1684 312,1667 312,1644 312,1616 315,1568 321,1499 346,1226 358,1004 358,834 358,789 353,593 342,246 337,49 307,-84 252,-153 216,-198 171,-220 118,-220 83,-220 55,-209 33,-186 11,-163 0,-134 0,-99 0,-69 9,-45 26,-27 43,-9 64,0 90,0 117,0 140,-11 159,-32 178,-53 195,-64 208,-64 219,-64 229,-59 236,-50 243,-41 247,-25 247,-3 247,25 244,65 238,117 213,327 201,604 201,948 Z " transform="translate(13489,12265) scale(0.345,-0.345)" fill="rgb(0,0,0)" stroke="none"/></g><g class="OutlinedText"><path d="M 201,948 C 213,1315 221,1515 224,1546 239,1670 266,1754 305,1798 343,1841 386,1863 435,1863 468,1863 498,1852 523,1830 548,1807 560,1783 560,1756 560,1725 551,1700 534,1681 516,1662 494,1652 468,1652 445,1652 419,1664 392,1688 377,1701 363,1708 352,1708 341,1708 331,1703 324,1694 316,1684 312,1667 312,1644 312,1616 315,1568 321,1499 346,1226 358,1004 358,834 358,789 353,593 342,246 337,49 307,-84 252,-153 216,-198 171,-220 118,-220 83,-220 55,-209 33,-186 11,-163 0,-134 0,-99 0,-69 9,-45 26,-27 43,-9 64,0 90,0 117,0 140,-11 159,-32 178,-53 195,-64 208,-64 219,-64 229,-59 236,-50 243,-41 247,-25 247,-3 247,25 244,65 238,117 213,327 201,604 201,948 Z " transform="translate(5397,12265) scale(0.345,-0.345)" fill="rgb(0,0,0)" stroke="none"/></g><g class="OutlinedText"><path d="M 514,1050 L 612,1050 612,572 1087,572 1087,475 612,475 612,0 514,0 514,475 37,475 37,572 514,572 514,1050 Z " transform="translate(13429,11564) scale(0.121,-0.121)" fill="rgb(0,0,0)" stroke="none"/><path d="M 654,667 C 699,771 749,843 803,884 857,924 931,944 1024,944 1131,944 1222,905 1296,828 1370,751 1407,650 1407,527 1407,405 1371,305 1299,226 1227,147 1147,107 1058,107 992,107 931,131 874,180 837,212 786,283 721,393 678,310 632,251 581,215 530,178 469,160 397,160 301,160 220,194 154,263 87,332 54,420 54,529 54,639 85,728 146,795 207,862 279,896 361,896 418,896 469,881 513,852 557,822 604,760 654,667 Z M 750,464 C 800,360 849,290 898,255 947,219 1001,201 1062,201 1144,201 1213,231 1268,290 1323,349 1350,428 1350,527 1350,625 1321,706 1263,770 1205,834 1140,866 1068,866 1022,866 982,854 948,831 913,808 882,770 854,719 838,689 803,604 750,464 Z M 625,590 C 592,663 555,717 513,752 471,787 419,804 358,804 287,804 228,779 181,730 133,680 109,613 109,530 109,441 133,371 180,318 227,265 280,238 339,238 402,238 458,266 507,323 538,360 578,449 625,590 Z " transform="translate(13568.834,11564) scale(0.121,-0.121)" fill="rgb(0,0,0)" stroke="none"/></g><g class="OutlinedText"><path d="M 121,803 L 152,1099 C 161,1183 169,1240 178,1269 191,1311 209,1341 232,1360 255,1378 280,1387 309,1387 333,1387 352,1380 366,1367 380,1354 387,1337 387,1316 387,1300 384,1283 377,1265 368,1240 344,1184 303,1098 L 165,803 121,803 Z " transform="translate(17353,11561) scale(0.121,-0.121)" fill="rgb(0,0,0)" stroke="none"/></g><g class="OutlinedText"><path d="M 37,576 L 1087,576 1087,477 37,477 37,576 Z " transform="translate(17074,11736) scale(0.121,-0.121)" fill="rgb(0,0,0)" stroke="none"/></g><g class="OutlinedText"><path d="M 514,1050 L 612,1050 612,572 1087,572 1087,475 612,475 612,0 514,0 514,475 37,475 37,572 514,572 514,1050 Z " transform="translate(5338,11564) scale(0.121,-0.121)" fill="rgb(0,0,0)" stroke="none"/><path d="M 654,667 C 699,771 749,843 803,884 857,924 931,944 1024,944 1131,944 1222,905 1296,828 1370,751 1407,650 1407,527 1407,405 1371,305 1299,226 1227,147 1147,107 1058,107 992,107 931,131 874,180 837,212 786,283 721,393 678,310 632,251 581,215 530,178 469,160 397,160 301,160 220,194 154,263 87,332 54,420 54,529 54,639 85,728 146,795 207,862 279,896 361,896 418,896 469,881 513,852 557,822 604,760 654,667 Z M 750,464 C 800,360 849,290 898,255 947,219 1001,201 1062,201 1144,201 1213,231 1268,290 1323,349 1350,428 1350,527 1350,625 1321,706 1263,770 1205,834 1140,866 1068,866 1022,866 982,854 948,831 913,808 882,770 854,719 838,689 803,604 750,464 Z M 625,590 C 592,663 555,717 513,752 471,787 419,804 358,804 287,804 228,779 181,730 133,680 109,613 109,530 109,441 133,371 180,318 227,265 280,238 339,238 402,238 458,266 507,323 538,360 578,449 625,590 Z " transform="translate(5477.834,11564) scale(0.121,-0.121)" fill="rgb(0,0,0)" stroke="none"/></g><g class="OutlinedText"><path d="M 121,803 L 152,1099 C 161,1183 169,1240 178,1269 191,1311 209,1341 232,1360 255,1378 280,1387 309,1387 333,1387 352,1380 366,1367 380,1354 387,1337 387,1316 387,1300 384,1283 377,1265 368,1240 344,1184 303,1098 L 165,803 121,803 Z " transform="translate(9776,11561) scale(0.121,-0.121)" fill="rgb(0,0,0)" stroke="none"/></g><g class="OutlinedText"><path d="M 37,576 L 1087,576 1087,477 37,477 37,576 Z " transform="translate(9497,11736) scale(0.121,-0.121)" fill="rgb(0,0,0)" stroke="none"/></g><text class="SVGTextShape"><tspan class="TextParagraph"><tspan class="TextPosition" x="13204" y="16490"><tspan font-family="Times New Roman, serif" font-size="494px" font-style="italic" font-weight="400" lengthAdjust="spacingAndGlyphs" textLength="243" fill="rgb(0,0,0)" stroke="none" style="white-space: pre">a</tspan></tspan></tspan></text>
        <text class="SVGTextShape"><tspan class="TextParagraph"><tspan class="TextPosition" x="10609" y="16107"><tspan font-family="Times New Roman, serif" font-size="494px" font-style="italic" font-weight="400" lengthAdjust="spacingAndGlyphs" textLength="216" fill="rgb(0,0,0)" stroke="none" style="white-space: pre">k</tspan></tspan></tspan></text>
        <text class="SVGTextShape"><tspan class="TextParagraph"><tspan class="TextPosition" x="11522" y="15047"><tspan font-family="Times New Roman, serif" font-size="494px" font-style="italic" font-weight="400" lengthAdjust="spacingAndGlyphs" textLength="352" fill="rgb(0,0,0)" stroke="none" style="white-space: pre">Q</tspan></tspan></tspan></text>
        <text class="SVGTextShape"><tspan class="TextParagraph"><tspan class="TextPosition" x="8829" y="16490"><tspan font-family="Times New Roman, serif" font-size="494px" font-style="italic" font-weight="400" lengthAdjust="spacingAndGlyphs" textLength="243" fill="rgb(0,0,0)" stroke="none" style="white-space: pre">a</tspan></tspan></tspan></text>
        <text class="SVGTextShape"><tspan class="TextParagraph"><tspan class="TextPosition" x="6234" y="16107"><tspan font-family="Times New Roman, serif" font-size="494px" font-style="italic" font-weight="400" lengthAdjust="spacingAndGlyphs" textLength="216" fill="rgb(0,0,0)" stroke="none" style="white-space: pre">k</tspan></tspan></tspan></text>
        <text class="SVGTextShape"><tspan class="TextParagraph"><tspan class="TextPosition" x="7089" y="14790"><tspan font-family="Times New Roman, serif" font-size="494px" font-style="italic" font-weight="400" lengthAdjust="spacingAndGlyphs" textLength="216" fill="rgb(0,0,0)" stroke="none" style="white-space: pre">k</tspan></tspan></tspan></text>
        <text class="SVGTextShape"><tspan class="TextParagraph"><tspan class="TextPosition" x="4234" y="15993"><tspan font-family="Times New Roman, serif" font-size="494px" font-style="italic" font-weight="400" lengthAdjust="spacingAndGlyphs" textLength="216" fill="rgb(0,0,0)" stroke="none" style="white-space: pre">k</tspan></tspan></tspan></text>
        <text class="SVGTextShape"><tspan class="TextParagraph"><tspan class="TextPosition" x="4411" y="15055"><tspan font-family="Times New Roman, serif" font-size="494px" font-style="italic" font-weight="400" lengthAdjust="spacingAndGlyphs" textLength="352" fill="rgb(0,0,0)" stroke="none" style="white-space: pre">Q</tspan></tspan></tspan></text>
        <text class="SVGTextShape"><tspan class="TextParagraph"><tspan class="TextPosition" x="17709" y="12102"><tspan font-family="Times New Roman, serif" font-size="494px" font-style="italic" font-weight="400" lengthAdjust="spacingAndGlyphs" textLength="189" fill="rgb(0,0,0)" stroke="none" style="white-space: pre">r</tspan></tspan></tspan></text>
        <text class="SVGTextShape"><tspan class="TextParagraph"><tspan class="TextPosition" x="17462" y="12102"><tspan font-family="Times New Roman, serif" font-size="494px" font-style="italic" font-weight="400" lengthAdjust="spacingAndGlyphs" textLength="243" fill="rgb(0,0,0)" stroke="none" style="white-space: pre">d</tspan></tspan></tspan></text>
        <text class="SVGTextShape"><tspan class="TextParagraph"><tspan class="TextPosition" x="16824" y="12102"><tspan font-family="Times New Roman, serif" font-size="494px" font-style="italic" font-weight="400" lengthAdjust="spacingAndGlyphs" textLength="216" fill="rgb(0,0,0)" stroke="none" style="white-space: pre">e</tspan></tspan></tspan></text>
        <text class="SVGTextShape"><tspan class="TextParagraph"><tspan class="TextPosition" x="15122" y="12102"><tspan font-family="Times New Roman, serif" font-size="494px" font-style="italic" font-weight="400" lengthAdjust="spacingAndGlyphs" textLength="189" fill="rgb(0,0,0)" stroke="none" style="white-space: pre">r</tspan></tspan></tspan></text>
        <text class="SVGTextShape"><tspan class="TextParagraph"><tspan class="TextPosition" x="14905" y="12102"><tspan font-family="Times New Roman, serif" font-size="494px" font-style="italic" font-weight="400" lengthAdjust="spacingAndGlyphs" textLength="216" fill="rgb(0,0,0)" stroke="none" style="white-space: pre">k</tspan></tspan></tspan></text>
        <text class="SVGTextShape"><tspan class="TextParagraph"><tspan class="TextPosition" x="11947" y="12732"><tspan font-family="Times New Roman, serif" font-size="494px" font-style="italic" font-weight="400" lengthAdjust="spacingAndGlyphs" textLength="216" fill="rgb(0,0,0)" stroke="none" style="white-space: pre">k</tspan></tspan></tspan></text>
        <text class="SVGTextShape"><tspan class="TextParagraph"><tspan class="TextPosition" x="12124" y="11794"><tspan font-family="Times New Roman, serif" font-size="494px" font-style="italic" font-weight="400" lengthAdjust="spacingAndGlyphs" textLength="352" fill="rgb(0,0,0)" stroke="none" style="white-space: pre">Q</tspan></tspan></tspan></text>
        <text class="SVGTextShape"><tspan class="TextParagraph"><tspan class="TextPosition" x="10440" y="12102"><tspan font-family="Times New Roman, serif" font-size="494px" font-style="italic" font-weight="400" lengthAdjust="spacingAndGlyphs" textLength="189" fill="rgb(0,0,0)" stroke="none" style="white-space: pre">r</tspan></tspan></tspan></text>
        <text class="SVGTextShape"><tspan class="TextParagraph"><tspan class="TextPosition" x="10193" y="12102"><tspan font-family="Times New Roman, serif" font-size="494px" font-style="italic" font-weight="400" lengthAdjust="spacingAndGlyphs" textLength="243" fill="rgb(0,0,0)" stroke="none" style="white-space: pre">d</tspan></tspan></tspan></text>
        <text class="SVGTextShape"><tspan class="TextParagraph"><tspan class="TextPosition" x="9885" y="12102"><tspan font-family="Times New Roman, serif" font-size="494px" font-style="italic" font-weight="400" lengthAdjust="spacingAndGlyphs" textLength="189" fill="rgb(0,0,0)" stroke="none" style="white-space: pre">r</tspan></tspan></tspan></text>
        <text class="SVGTextShape"><tspan class="TextParagraph"><tspan class="TextPosition" x="9247" y="12102"><tspan font-family="Times New Roman, serif" font-size="494px" font-style="italic" font-weight="400" lengthAdjust="spacingAndGlyphs" textLength="216" fill="rgb(0,0,0)" stroke="none" style="white-space: pre">e</tspan></tspan></tspan></text>
        <text class="SVGTextShape"><tspan class="TextParagraph"><tspan class="TextPosition" x="8824" y="12486"><tspan font-family="Times New Roman, serif" font-size="494px" font-style="italic" font-weight="400" lengthAdjust="spacingAndGlyphs" textLength="189" fill="rgb(0,0,0)" stroke="none" style="white-space: pre">r</tspan></tspan></tspan></text>
        <text class="SVGTextShape"><tspan class="TextParagraph"><tspan class="TextPosition" x="8800" y="11794"><tspan font-family="Times New Roman, serif" font-size="494px" font-style="italic" font-weight="400" lengthAdjust="spacingAndGlyphs" textLength="352" fill="rgb(0,0,0)" stroke="none" style="white-space: pre">Q</tspan></tspan></tspan></text>
        <text class="SVGTextShape"><tspan class="TextParagraph"><tspan class="TextPosition" x="7030" y="12102"><tspan font-family="Times New Roman, serif" font-size="494px" font-style="italic" font-weight="400" lengthAdjust="spacingAndGlyphs" textLength="189" fill="rgb(0,0,0)" stroke="none" style="white-space: pre">r</tspan></tspan></tspan></text>
        <text class="SVGTextShape"><tspan class="TextParagraph"><tspan class="TextPosition" x="6814" y="12102"><tspan font-family="Times New Roman, serif" font-size="494px" font-style="italic" font-weight="400" lengthAdjust="spacingAndGlyphs" textLength="216" fill="rgb(0,0,0)" stroke="none" style="white-space: pre">k</tspan></tspan></tspan></text>
        <text class="SVGTextShape"><tspan class="TextParagraph"><tspan class="TextPosition" x="3855" y="12732"><tspan font-family="Times New Roman, serif" font-size="494px" font-style="italic" font-weight="400" lengthAdjust="spacingAndGlyphs" textLength="216" fill="rgb(0,0,0)" stroke="none" style="white-space: pre">k</tspan></tspan></tspan></text>
        <text class="SVGTextShape"><tspan class="TextParagraph"><tspan class="TextPosition" x="17261" y="11935"><tspan font-family="Times New Roman, serif" font-size="247px" font-style="italic" font-weight="400" lengthAdjust="spacingAndGlyphs" textLength="127" fill="rgb(0,0,0)" stroke="none" style="white-space: pre">a</tspan></tspan></tspan></text>
        <text class="SVGTextShape"><tspan class="TextParagraph"><tspan class="TextPosition" x="17241" y="11575"><tspan font-family="Times New Roman, serif" font-size="247px" font-style="italic" font-weight="400" lengthAdjust="spacingAndGlyphs" textLength="99" fill="rgb(0,0,0)" stroke="none" style="white-space: pre">r</tspan></tspan></tspan></text>
        <text class="SVGTextShape"><tspan class="TextParagraph"><tspan class="TextPosition" x="9684" y="11935"><tspan font-family="Times New Roman, serif" font-size="247px" font-style="italic" font-weight="400" lengthAdjust="spacingAndGlyphs" textLength="127" fill="rgb(0,0,0)" stroke="none" style="white-space: pre">a</tspan></tspan></tspan></text>
        <text class="SVGTextShape"><tspan class="TextParagraph"><tspan class="TextPosition" x="9665" y="11575"><tspan font-family="Times New Roman, serif" font-size="247px" font-style="italic" font-weight="400" lengthAdjust="spacingAndGlyphs" textLength="99" fill="rgb(0,0,0)" stroke="none" style="white-space: pre">r</tspan></tspan></tspan></text>
        <g class="OutlinedText"><path d="M 1059,533 C 932,532 833,556 762,606 691,656 644,731 622,831 600,931 604,1023 633,1108 663,1197 721,1271 806,1332 892,1392 987,1422 1091,1422 1172,1422 1237,1399 1287,1353 1337,1306 1365,1232 1372,1130 1379,1027 1348,874 1278,670 1325,661 1354,642 1364,614 1379,571 1372,510 1345,429 1342,420 1337,408 1331,391 L 1293,391 C 1309,446 1312,483 1301,502 1290,521 1264,531 1222,533 1185,436 1153,364 1125,317 1071,227 1014,154 951,98 904,56 850,24 790,2 730,-20 661,-31 585,-31 491,-31 422,-15 377,16 332,47 307,87 301,138 297,169 307,222 329,299 352,375 360,423 352,444 344,465 328,475 303,475 291,475 273,472 249,465 L 247,498 C 303,517 349,526 387,526 427,526 456,518 474,502 498,481 511,452 513,415 515,387 504,335 482,259 459,182 459,126 481,91 503,55 543,37 602,37 655,37 709,52 763,83 817,113 867,159 913,220 958,281 1007,385 1059,533 Z M 1111,671 C 1122,702 1130,725 1135,740 1178,865 1207,980 1222,1085 1237,1190 1231,1261 1202,1299 1174,1337 1132,1356 1078,1356 1014,1356 954,1332 899,1285 844,1237 797,1156 758,1043 714,911 708,815 741,755 774,694 842,664 945,664 978,664 1033,666 1111,671 Z " transform="translate(11621,15798) scale(0.241,-0.241)" fill="rgb(0,0,0)" stroke="none"/></g><g class="OutlinedText"><path d="M 491,491 C 422,520 380,552 365,585 349,618 350,658 365,704 386,766 430,818 496,859 586,916 688,944 804,944 872,944 931,936 981,920 1030,904 1060,883 1071,858 1082,832 1083,808 1076,785 1069,764 1054,746 1031,729 1007,712 985,703 962,703 925,703 903,727 895,775 887,822 876,851 864,862 844,879 815,888 777,888 717,888 663,871 616,836 569,801 535,753 515,693 495,634 494,589 513,558 531,527 566,511 618,511 635,511 654,512 676,515 710,520 737,522 755,522 784,522 802,518 810,511 818,504 820,495 817,485 813,475 806,467 796,462 781,453 759,449 729,449 722,449 711,450 697,452 664,457 636,459 614,459 558,459 506,441 458,404 410,367 375,319 355,259 331,189 331,135 355,96 379,57 420,37 479,37 526,37 569,51 609,80 632,97 662,131 700,184 724,219 742,240 752,248 781,269 807,280 831,280 859,280 880,270 892,251 905,232 907,208 897,179 881,133 840,91 775,52 679,-3 572,-31 453,-31 328,-31 241,-3 192,52 143,107 130,169 153,236 170,284 203,330 254,373 305,416 384,456 491,491 Z " transform="translate(12081,15047) scale(0.241,-0.241)" fill="rgb(0,0,0)" stroke="none"/></g><g class="OutlinedText"><path d="M 1059,533 C 932,532 833,556 762,606 691,656 644,731 622,831 600,931 604,1023 633,1108 663,1197 721,1271 806,1332 892,1392 987,1422 1091,1422 1172,1422 1237,1399 1287,1353 1337,1306 1365,1232 1372,1130 1379,1027 1348,874 1278,670 1325,661 1354,642 1364,614 1379,571 1372,510 1345,429 1342,420 1337,408 1331,391 L 1293,391 C 1309,446 1312,483 1301,502 1290,521 1264,531 1222,533 1185,436 1153,364 1125,317 1071,227 1014,154 951,98 904,56 850,24 790,2 730,-20 661,-31 585,-31 491,-31 422,-15 377,16 332,47 307,87 301,138 297,169 307,222 329,299 352,375 360,423 352,444 344,465 328,475 303,475 291,475 273,472 249,465 L 247,498 C 303,517 349,526 387,526 427,526 456,518 474,502 498,481 511,452 513,415 515,387 504,335 482,259 459,182 459,126 481,91 503,55 543,37 602,37 655,37 709,52 763,83 817,113 867,159 913,220 958,281 1007,385 1059,533 Z M 1111,671 C 1122,702 1130,725 1135,740 1178,865 1207,980 1222,1085 1237,1190 1231,1261 1202,1299 1174,1337 1132,1356 1078,1356 1014,1356 954,1332 899,1285 844,1237 797,1156 758,1043 714,911 708,815 741,755 774,694 842,664 945,664 978,664 1033,666 1111,671 Z " transform="translate(7246,15798) scale(0.241,-0.241)" fill="rgb(0,0,0)" stroke="none"/></g><g class="OutlinedText"><path d="M 1059,533 C 932,532 833,556 762,606 691,656 644,731 622,831 600,931 604,1023 633,1108 663,1197 721,1271 806,1332 892,1392 987,1422 1091,1422 1172,1422 1237,1399 1287,1353 1337,1306 1365,1232 1372,1130 1379,1027 1348,874 1278,670 1325,661 1354,642 1364,614 1379,571 1372,510 1345,429 1342,420 1337,408 1331,391 L 1293,391 C 1309,446 1312,483 1301,502 1290,521 1264,531 1222,533 1185,436 1153,364 1125,317 1071,227 1014,154 951,98 904,56 850,24 790,2 730,-20 661,-31 585,-31 491,-31 422,-15 377,16 332,47 307,87 301,138 297,169 307,222 329,299 352,375 360,423 352,444 344,465 328,475 303,475 291,475 273,472 249,465 L 247,498 C 303,517 349,526 387,526 427,526 456,518 474,502 498,481 511,452 513,415 515,387 504,335 482,259 459,182 459,126 481,91 503,55 543,37 602,37 655,37 709,52 763,83 817,113 867,159 913,220 958,281 1007,385 1059,533 Z M 1111,671 C 1122,702 1130,725 1135,740 1178,865 1207,980 1222,1085 1237,1190 1231,1261 1202,1299 1174,1337 1132,1356 1078,1356 1014,1356 954,1332 899,1285 844,1237 797,1156 758,1043 714,911 708,815 741,755 774,694 842,664 945,664 978,664 1033,666 1111,671 Z " transform="translate(8101,14482) scale(0.241,-0.241)" fill="rgb(0,0,0)" stroke="none"/></g><g class="OutlinedText"><path d="M 1059,533 C 932,532 833,556 762,606 691,656 644,731 622,831 600,931 604,1023 633,1108 663,1197 721,1271 806,1332 892,1392 987,1422 1091,1422 1172,1422 1237,1399 1287,1353 1337,1306 1365,1232 1372,1130 1379,1027 1348,874 1278,670 1325,661 1354,642 1364,614 1379,571 1372,510 1345,429 1342,420 1337,408 1331,391 L 1293,391 C 1309,446 1312,483 1301,502 1290,521 1264,531 1222,533 1185,436 1153,364 1125,317 1071,227 1014,154 951,98 904,56 850,24 790,2 730,-20 661,-31 585,-31 491,-31 422,-15 377,16 332,47 307,87 301,138 297,169 307,222 329,299 352,375 360,423 352,444 344,465 328,475 303,475 291,475 273,472 249,465 L 247,498 C 303,517 349,526 387,526 427,526 456,518 474,502 498,481 511,452 513,415 515,387 504,335 482,259 459,182 459,126 481,91 503,55 543,37 602,37 655,37 709,52 763,83 817,113 867,159 913,220 958,281 1007,385 1059,533 Z M 1111,671 C 1122,702 1130,725 1135,740 1178,865 1207,980 1222,1085 1237,1190 1231,1261 1202,1299 1174,1337 1132,1356 1078,1356 1014,1356 954,1332 899,1285 844,1237 797,1156 758,1043 714,911 708,815 741,755 774,694 842,664 945,664 978,664 1033,666 1111,671 Z " transform="translate(5246,15684) scale(0.241,-0.241)" fill="rgb(0,0,0)" stroke="none"/></g><g class="OutlinedText"><path d="M 491,491 C 422,520 380,552 365,585 349,618 350,658 365,704 386,766 430,818 496,859 586,916 688,944 804,944 872,944 931,936 981,920 1030,904 1060,883 1071,858 1082,832 1083,808 1076,785 1069,764 1054,746 1031,729 1007,712 985,703 962,703 925,703 903,727 895,775 887,822 876,851 864,862 844,879 815,888 777,888 717,888 663,871 616,836 569,801 535,753 515,693 495,634 494,589 513,558 531,527 566,511 618,511 635,511 654,512 676,515 710,520 737,522 755,522 784,522 802,518 810,511 818,504 820,495 817,485 813,475 806,467 796,462 781,453 759,449 729,449 722,449 711,450 697,452 664,457 636,459 614,459 558,459 506,441 458,404 410,367 375,319 355,259 331,189 331,135 355,96 379,57 420,37 479,37 526,37 569,51 609,80 632,97 662,131 700,184 724,219 742,240 752,248 781,269 807,280 831,280 859,280 880,270 892,251 905,232 907,208 897,179 881,133 840,91 775,52 679,-3 572,-31 453,-31 328,-31 241,-3 192,52 143,107 130,169 153,236 170,284 203,330 254,373 305,416 384,456 491,491 Z " transform="translate(3813,15993) scale(0.241,-0.241)" fill="rgb(0,0,0)" stroke="none"/></g><g class="OutlinedText"><path d="M 1059,533 C 932,532 833,556 762,606 691,656 644,731 622,831 600,931 604,1023 633,1108 663,1197 721,1271 806,1332 892,1392 987,1422 1091,1422 1172,1422 1237,1399 1287,1353 1337,1306 1365,1232 1372,1130 1379,1027 1348,874 1278,670 1325,661 1354,642 1364,614 1379,571 1372,510 1345,429 1342,420 1337,408 1331,391 L 1293,391 C 1309,446 1312,483 1301,502 1290,521 1264,531 1222,533 1185,436 1153,364 1125,317 1071,227 1014,154 951,98 904,56 850,24 790,2 730,-20 661,-31 585,-31 491,-31 422,-15 377,16 332,47 307,87 301,138 297,169 307,222 329,299 352,375 360,423 352,444 344,465 328,475 303,475 291,475 273,472 249,465 L 247,498 C 303,517 349,526 387,526 427,526 456,518 474,502 498,481 511,452 513,415 515,387 504,335 482,259 459,182 459,126 481,91 503,55 543,37 602,37 655,37 709,52 763,83 817,113 867,159 913,220 958,281 1007,385 1059,533 Z M 1111,671 C 1122,702 1130,725 1135,740 1178,865 1207,980 1222,1085 1237,1190 1231,1261 1202,1299 1174,1337 1132,1356 1078,1356 1014,1356 954,1332 899,1285 844,1237 797,1156 758,1043 714,911 708,815 741,755 774,694 842,664 945,664 978,664 1033,666 1111,671 Z " transform="translate(16210,11794) scale(0.241,-0.241)" fill="rgb(0,0,0)" stroke="none"/></g><g class="OutlinedText"><path d="M 1059,533 C 932,532 833,556 762,606 691,656 644,731 622,831 600,931 604,1023 633,1108 663,1197 721,1271 806,1332 892,1392 987,1422 1091,1422 1172,1422 1237,1399 1287,1353 1337,1306 1365,1232 1372,1130 1379,1027 1348,874 1278,670 1325,661 1354,642 1364,614 1379,571 1372,510 1345,429 1342,420 1337,408 1331,391 L 1293,391 C 1309,446 1312,483 1301,502 1290,521 1264,531 1222,533 1185,436 1153,364 1125,317 1071,227 1014,154 951,98 904,56 850,24 790,2 730,-20 661,-31 585,-31 491,-31 422,-15 377,16 332,47 307,87 301,138 297,169 307,222 329,299 352,375 360,423 352,444 344,465 328,475 303,475 291,475 273,472 249,465 L 247,498 C 303,517 349,526 387,526 427,526 456,518 474,502 498,481 511,452 513,415 515,387 504,335 482,259 459,182 459,126 481,91 503,55 543,37 602,37 655,37 709,52 763,83 817,113 867,159 913,220 958,281 1007,385 1059,533 Z M 1111,671 C 1122,702 1130,725 1135,740 1178,865 1207,980 1222,1085 1237,1190 1231,1261 1202,1299 1174,1337 1132,1356 1078,1356 1014,1356 954,1332 899,1285 844,1237 797,1156 758,1043 714,911 708,815 741,755 774,694 842,664 945,664 978,664 1033,666 1111,671 Z " transform="translate(12959,12423) scale(0.241,-0.241)" fill="rgb(0,0,0)" stroke="none"/></g><g class="OutlinedText"><path d="M 491,491 C 422,520 380,552 365,585 349,618 350,658 365,704 386,766 430,818 496,859 586,916 688,944 804,944 872,944 931,936 981,920 1030,904 1060,883 1071,858 1082,832 1083,808 1076,785 1069,764 1054,746 1031,729 1007,712 985,703 962,703 925,703 903,727 895,775 887,822 876,851 864,862 844,879 815,888 777,888 717,888 663,871 616,836 569,801 535,753 515,693 495,634 494,589 513,558 531,527 566,511 618,511 635,511 654,512 676,515 710,520 737,522 755,522 784,522 802,518 810,511 818,504 820,495 817,485 813,475 806,467 796,462 781,453 759,449 729,449 722,449 711,450 697,452 664,457 636,459 614,459 558,459 506,441 458,404 410,367 375,319 355,259 331,189 331,135 355,96 379,57 420,37 479,37 526,37 569,51 609,80 632,97 662,131 700,184 724,219 742,240 752,248 781,269 807,280 831,280 859,280 880,270 892,251 905,232 907,208 897,179 881,133 840,91 775,52 679,-3 572,-31 453,-31 328,-31 241,-3 192,52 143,107 130,169 153,236 170,284 203,330 254,373 305,416 384,456 491,491 Z " transform="translate(11525,12732) scale(0.241,-0.241)" fill="rgb(0,0,0)" stroke="none"/></g><g class="OutlinedText"><path d="M 1059,533 C 932,532 833,556 762,606 691,656 644,731 622,831 600,931 604,1023 633,1108 663,1197 721,1271 806,1332 892,1392 987,1422 1091,1422 1172,1422 1237,1399 1287,1353 1337,1306 1365,1232 1372,1130 1379,1027 1348,874 1278,670 1325,661 1354,642 1364,614 1379,571 1372,510 1345,429 1342,420 1337,408 1331,391 L 1293,391 C 1309,446 1312,483 1301,502 1290,521 1264,531 1222,533 1185,436 1153,364 1125,317 1071,227 1014,154 951,98 904,56 850,24 790,2 730,-20 661,-31 585,-31 491,-31 422,-15 377,16 332,47 307,87 301,138 297,169 307,222 329,299 352,375 360,423 352,444 344,465 328,475 303,475 291,475 273,472 249,465 L 247,498 C 303,517 349,526 387,526 427,526 456,518 474,502 498,481 511,452 513,415 515,387 504,335 482,259 459,182 459,126 481,91 503,55 543,37 602,37 655,37 709,52 763,83 817,113 867,159 913,220 958,281 1007,385 1059,533 Z M 1111,671 C 1122,702 1130,725 1135,740 1178,865 1207,980 1222,1085 1237,1190 1231,1261 1202,1299 1174,1337 1132,1356 1078,1356 1014,1356 954,1332 899,1285 844,1237 797,1156 758,1043 714,911 708,815 741,755 774,694 842,664 945,664 978,664 1033,666 1111,671 Z " transform="translate(8118,11794) scale(0.241,-0.241)" fill="rgb(0,0,0)" stroke="none"/></g><g class="OutlinedText"><path d="M 1059,533 C 932,532 833,556 762,606 691,656 644,731 622,831 600,931 604,1023 633,1108 663,1197 721,1271 806,1332 892,1392 987,1422 1091,1422 1172,1422 1237,1399 1287,1353 1337,1306 1365,1232 1372,1130 1379,1027 1348,874 1278,670 1325,661 1354,642 1364,614 1379,571 1372,510 1345,429 1342,420 1337,408 1331,391 L 1293,391 C 1309,446 1312,483 1301,502 1290,521 1264,531 1222,533 1185,436 1153,364 1125,317 1071,227 1014,154 951,98 904,56 850,24 790,2 730,-20 661,-31 585,-31 491,-31 422,-15 377,16 332,47 307,87 301,138 297,169 307,222 329,299 352,375 360,423 352,444 344,465 328,475 303,475 291,475 273,472 249,465 L 247,498 C 303,517 349,526 387,526 427,526 456,518 474,502 498,481 511,452 513,415 515,387 504,335 482,259 459,182 459,126 481,91 503,55 543,37 602,37 655,37 709,52 763,83 817,113 867,159 913,220 958,281 1007,385 1059,533 Z M 1111,671 C 1122,702 1130,725 1135,740 1178,865 1207,980 1222,1085 1237,1190 1231,1261 1202,1299 1174,1337 1132,1356 1078,1356 1014,1356 954,1332 899,1285 844,1237 797,1156 758,1043 714,911 708,815 741,755 774,694 842,664 945,664 978,664 1033,666 1111,671 Z " transform="translate(4867,12423) scale(0.241,-0.241)" fill="rgb(0,0,0)" stroke="none"/></g><g class="OutlinedText"><path d="M 491,491 C 422,520 380,552 365,585 349,618 350,658 365,704 386,766 430,818 496,859 586,916 688,944 804,944 872,944 931,936 981,920 1030,904 1060,883 1071,858 1082,832 1083,808 1076,785 1069,764 1054,746 1031,729 1007,712 985,703 962,703 925,703 903,727 895,775 887,822 876,851 864,862 844,879 815,888 777,888 717,888 663,871 616,836 569,801 535,753 515,693 495,634 494,589 513,558 531,527 566,511 618,511 635,511 654,512 676,515 710,520 737,522 755,522 784,522 802,518 810,511 818,504 820,495 817,485 813,475 806,467 796,462 781,453 759,449 729,449 722,449 711,450 697,452 664,457 636,459 614,459 558,459 506,441 458,404 410,367 375,319 355,259 331,189 331,135 355,96 379,57 420,37 479,37 526,37 569,51 609,80 632,97 662,131 700,184 724,219 742,240 752,248 781,269 807,280 831,280 859,280 880,270 892,251 905,232 907,208 897,179 881,133 840,91 775,52 679,-3 572,-31 453,-31 328,-31 241,-3 192,52 143,107 130,169 153,236 170,284 203,330 254,373 305,416 384,456 491,491 Z " transform="translate(3434,12732) scale(0.241,-0.241)" fill="rgb(0,0,0)" stroke="none"/></g></g>
      </g>
     </g>
    </g>
   </g>
  </g>
 </g>
</svg>