<?xml version='1.0' encoding='UTF-8'?>
<!DOCTYPE svg PUBLIC "-//W3C//DTD SVG 1.1//EN" "http://www.w3.org/Graphics/SVG/1.1/DTD/svg11.dtd">
<svg xmlns="http://www.w3.org/2000/svg" xmlns:ooo="http://xml.openoffice.org/svg/export" xmlns:xlink="http://www.w3.org/1999/xlink" xmlns:presentation="http://sun.com/xmlns/staroffice/presentation" xmlns:smil="http://www.w3.org/2001/SMIL20/" xmlns:anim="urn:oasis:names:tc:opendocument:xmlns:animation:1.0" xmlns:svg="urn:oasis:names:tc:opendocument:xmlns:svg-compatible:1.0" version="1.2" width="146.050mm" height="39.860mm" viewBox="3492 11977 14605 3986" preserveAspectRatio="xMidYMid" fill-rule="evenodd" stroke-width="28.222" stroke-linejoin="round" xml:space="preserve">
 <defs class="ClipPathGroup">
  <clipPath id="presentation_clip_path" clipPathUnits="userSpaceOnUse">
   <rect x="0" y="0" width="21590" height="27940"/>
  </clipPath>
  <clipPath id="presentation_clip_path_shrink" clipPathUnits="userSpaceOnUse">
   <rect x="21" y="27" width="21547" height="27885"/>
  </clipPath>
 </defs>
 <defs>
  </defs>
 <defs>
  </defs>
 <defs>
  </defs>
 <defs>
  </defs>
 <defs class="TextShapeIndex">
  <g ooo:slide="id1" ooo:id-list="id3"/>
 </defs>
 <defs class="EmbeddedBulletChars">
  <g id="bullet-char-template-57356" transform="scale(0.00048828125,-0.00048828125)">
   <path d="M 580,1141 L 1163,571 580,0 -4,571 580,1141 Z"/>
  </g>
  <g id="bullet-char-template-57354" transform="scale(0.00048828125,-0.00048828125)">
   <path d="M 8,1128 L 1137,1128 1137,0 8,0 8,1128 Z"/>
  </g>
  <g id="bullet-char-template-10146" transform="scale(0.00048828125,-0.00048828125)">
   <path d="M 174,0 L 602,739 174,1481 1456,739 174,0 Z M 1358,739 L 309,1346 659,739 1358,739 Z"/>
  </g>
  <g id="bullet-char-template-10132" transform="scale(0.00048828125,-0.00048828125)">
   <path d="M 2015,739 L 1276,0 717,0 1260,543 174,543 174,936 1260,936 717,1481 1274,1481 2015,739 Z"/>
  </g>
  <g id="bullet-char-template-10007" transform="scale(0.00048828125,-0.00048828125)">
   <path d="M 0,-2 C -7,14 -16,27 -25,37 L 356,567 C 262,823 215,952 215,954 215,979 228,992 255,992 264,992 276,990 289,987 310,991 331,999 354,1012 L 381,999 492,748 772,1049 836,1024 860,1049 C 881,1039 901,1025 922,1006 886,937 835,863 770,784 769,783 710,716 594,584 L 774,223 C 774,196 753,168 711,139 L 727,119 C 717,90 699,76 672,76 641,76 570,178 457,381 L 164,-76 C 142,-110 111,-127 72,-127 30,-127 9,-110 8,-76 1,-67 -2,-52 -2,-32 -2,-23 -1,-13 0,-2 Z"/>
  </g>
  <g id="bullet-char-template-10004" transform="scale(0.00048828125,-0.00048828125)">
   <path d="M 285,-33 C 182,-33 111,30 74,156 52,228 41,333 41,471 41,549 55,616 82,672 116,743 169,778 240,778 293,778 328,747 346,684 L 369,508 C 377,444 397,411 428,410 L 1163,1116 C 1174,1127 1196,1133 1229,1133 1271,1133 1292,1118 1292,1087 L 1292,965 C 1292,929 1282,901 1262,881 L 442,47 C 390,-6 338,-33 285,-33 Z"/>
  </g>
  <g id="bullet-char-template-9679" transform="scale(0.00048828125,-0.00048828125)">
   <path d="M 813,0 C 632,0 489,54 383,161 276,268 223,411 223,592 223,773 276,916 383,1023 489,1130 632,1184 813,1184 992,1184 1136,1130 1245,1023 1353,916 1407,772 1407,592 1407,412 1353,268 1245,161 1136,54 992,0 813,0 Z"/>
  </g>
  <g id="bullet-char-template-8226" transform="scale(0.00048828125,-0.00048828125)">
   <path d="M 346,457 C 273,457 209,483 155,535 101,586 74,649 74,723 74,796 101,859 155,911 209,963 273,989 346,989 419,989 480,963 531,910 582,859 608,796 608,723 608,648 583,586 532,535 482,483 420,457 346,457 Z"/>
  </g>
  <g id="bullet-char-template-8211" transform="scale(0.00048828125,-0.00048828125)">
   <path d="M -4,459 L 1135,459 1135,606 -4,606 -4,459 Z"/>
  </g>
  <g id="bullet-char-template-61548" transform="scale(0.00048828125,-0.00048828125)">
   <path d="M 173,740 C 173,903 231,1043 346,1159 462,1274 601,1332 765,1332 928,1332 1067,1274 1183,1159 1299,1043 1357,903 1357,740 1357,577 1299,437 1183,322 1067,206 928,148 765,148 601,148 462,206 346,322 231,437 173,577 173,740 Z"/>
  </g>
 </defs>
 <g>
  <g id="id2" class="Master_Slide">
   <g id="bg-id2" class="Background"/>
   <g id="bo-id2" class="BackgroundObjects"/>
  </g>
 </g>
 <g class="SlideGroup">
  <g>
   <g id="container-id1">
    <g id="id1" class="Slide" clip-path="url(#presentation_clip_path)">
     <g class="Page">
      <g class="Graphic">
       <g id="id3">
        <rect class="BoundingBox" stroke="none" fill="none" x="3492" y="11977" width="14605" height="3986"/>
        <path fill="none" stroke="rgb(0,0,0)" stroke-width="18" stroke-linejoin="round" stroke-linecap="round" d="M 3563,12750 L 4073,12750 "/>
        <g class="OutlinedText"><path d="M 636,-399 L 636,-442 C 462,-355 327,-228 230,-60 133,107 84,291 84,490 84,697 135,886 237,1057 339,1227 472,1349 636,1422 L 636,1380 C 554,1335 487,1273 434,1194 381,1115 342,1016 316,895 290,774 277,647 277,516 277,367 289,233 313,113 337,-7 374,-106 423,-185 472,-264 543,-336 636,-399 Z " transform="translate(5171,12871) scale(0.347,-0.347)" fill="rgb(0,0,0)" stroke="none"/></g><g class="OutlinedText"><path d="M 45,1380 L 45,1422 C 219,1336 355,1209 452,1042 549,874 597,690 597,491 597,284 546,95 444,-76 342,-247 209,-369 45,-442 L 45,-399 C 128,-354 195,-292 248,-213 301,-134 340,-35 366,86 391,207 404,333 404,465 404,613 392,747 369,868 345,988 308,1088 259,1167 209,1246 138,1317 45,1380 Z " transform="translate(6664,12871) scale(0.347,-0.347)" fill="rgb(0,0,0)" stroke="none"/></g><g class="OutlinedText"><path d="M 636,-399 L 636,-442 C 462,-355 327,-228 230,-60 133,107 84,291 84,490 84,697 135,886 237,1057 339,1227 472,1349 636,1422 L 636,1380 C 554,1335 487,1273 434,1194 381,1115 342,1016 316,895 290,774 277,647 277,516 277,367 289,233 313,113 337,-7 374,-106 423,-185 472,-264 543,-336 636,-399 Z " transform="translate(10503,12562) scale(0.347,-0.347)" fill="rgb(0,0,0)" stroke="none"/></g><g class="OutlinedText"><path d="M 45,1380 L 45,1422 C 219,1336 355,1209 452,1042 549,874 597,690 597,491 597,284 546,95 444,-76 342,-247 209,-369 45,-442 L 45,-399 C 128,-354 195,-292 248,-213 301,-134 340,-35 366,86 391,207 404,333 404,465 404,613 392,747 369,868 345,988 308,1088 259,1167 209,1246 138,1317 45,1380 Z " transform="translate(12436,12562) scale(0.347,-0.347)" fill="rgb(0,0,0)" stroke="none"/></g><g class="OutlinedText"><path d="M 636,-399 L 636,-442 C 462,-355 327,-228 230,-60 133,107 84,291 84,490 84,697 135,886 237,1057 339,1227 472,1349 636,1422 L 636,1380 C 554,1335 487,1273 434,1194 381,1115 342,1016 316,895 290,774 277,647 277,516 277,367 289,233 313,113 337,-7 374,-106 423,-185 472,-264 543,-336 636,-399 Z " transform="translate(9699,13302) scale(0.347,-0.347)" fill="rgb(0,0,0)" stroke="none"/></g><g class="OutlinedText"><path d="M 45,1380 L 45,1422 C 219,1336 355,1209 452,1042 549,874 597,690 597,491 597,284 546,95 444,-76 342,-247 209,-369 45,-442 L 45,-399 C 128,-354 195,-292 248,-213 301,-134 340,-35 366,86 391,207 404,333 404,465 404,613 392,747 369,868 345,988 308,1088 259,1167 209,1246 138,1317 45,1380 Z " transform="translate(11600,13302) scale(0.347,-0.347)" fill="rgb(0,0,0)" stroke="none"/></g><g class="OutlinedText"><path d="M 636,-399 L 636,-442 C 462,-355 327,-228 230,-60 133,107 84,291 84,490 84,697 135,886 237,1057 339,1227 472,1349 636,1422 L 636,1380 C 554,1335 487,1273 434,1194 381,1115 342,1016 316,895 290,774 277,647 277,516 277,367 289,233 313,113 337,-7 374,-106 423,-185 472,-264 543,-336 636,-399 Z " transform="translate(11933,13302) scale(0.347,-0.347)" fill="rgb(0,0,0)" stroke="none"/></g><g class="OutlinedText"><path d="M 45,1380 L 45,1422 C 219,1336 355,1209 452,1042 549,874 597,690 597,491 597,284 546,95 444,-76 342,-247 209,-369 45,-442 L 45,-399 C 128,-354 195,-292 248,-213 301,-134 340,-35 366,86 391,207 404,333 404,465 404,613 392,747 369,868 345,988 308,1088 259,1167 209,1246 138,1317 45,1380 Z " transform="translate(13921,13302) scale(0.347,-0.347)" fill="rgb(0,0,0)" stroke="none"/></g><g class="OutlinedText"><path d="M 636,-399 L 636,-442 C 462,-355 327,-228 230,-60 133,107 84,291 84,490 84,697 135,886 237,1057 339,1227 472,1349 636,1422 L 636,1380 C 554,1335 487,1273 434,1194 381,1115 342,1016 316,895 290,774 277,647 277,516 277,367 289,233 313,113 337,-7 374,-106 423,-185 472,-264 543,-336 636,-399 Z " transform="translate(14254,13302) scale(0.347,-0.347)" fill="rgb(0,0,0)" stroke="none"/></g><g class="OutlinedText"><path d="M 45,1380 L 45,1422 C 219,1336 355,1209 452,1042 549,874 597,690 597,491 597,284 546,95 444,-76 342,-247 209,-369 45,-442 L 45,-399 C 128,-354 195,-292 248,-213 301,-134 340,-35 366,86 391,207 404,333 404,465 404,613 392,747 369,868 345,988 308,1088 259,1167 209,1246 138,1317 45,1380 Z " transform="translate(15871,13302) scale(0.347,-0.347)" fill="rgb(0,0,0)" stroke="none"/></g><path fill="none" stroke="rgb(0,0,0)" stroke-width="18" stroke-linejoin="round" stroke-linecap="round" d="M 7624,12750 L 16216,12750 "/>
        <path fill="none" stroke="rgb(0,0,0)" stroke-width="9" stroke-linejoin="round" stroke-linecap="round" d="M 17257,13379 L 17598,13379 "/>
        <path fill="none" stroke="rgb(0,0,0)" stroke-width="18" stroke-linejoin="round" stroke-linecap="round" d="M 16296,12750 L 17633,12750 "/>
        <path fill="none" stroke="rgb(0,0,0)" stroke-width="9" stroke-linejoin="round" stroke-linecap="round" d="M 6271,15358 L 6612,15358 "/>
        <path fill="none" stroke="rgb(0,0,0)" stroke-width="18" stroke-linejoin="round" stroke-linecap="round" d="M 5310,14728 L 6647,14728 "/>
        <text class="SVGTextShape"><tspan class="TextParagraph"><tspan class="TextPosition" x="8823" y="14852"><tspan font-family="Times New Roman, serif" font-size="494px" font-weight="400" lengthAdjust="spacingAndGlyphs" textLength="189" fill="rgb(0,0,0)" stroke="none" style="white-space: pre">s</tspan></tspan></tspan></text>
        <text class="SVGTextShape"><tspan class="TextParagraph"><tspan class="TextPosition" x="8098" y="14852"><tspan font-family="Times New Roman, serif" font-size="494px" font-weight="400" lengthAdjust="spacingAndGlyphs" textLength="743" fill="rgb(0,0,0)" stroke="none" style="white-space: pre">per </tspan></tspan></tspan></text>
        <text class="SVGTextShape"><tspan class="TextParagraph"><tspan class="TextPosition" x="7982" y="14852"><tspan font-family="Times New Roman, serif" font-size="494px" font-weight="400" lengthAdjust="spacingAndGlyphs" textLength="122" fill="rgb(0,0,0)" stroke="none" style="white-space: pre"> </tspan></tspan></tspan></text>
        <text class="SVGTextShape"><tspan class="TextParagraph"><tspan class="TextPosition" x="6879" y="14852"><tspan font-family="Times New Roman, serif" font-size="494px" font-weight="400" lengthAdjust="spacingAndGlyphs" textLength="1109" fill="rgb(0,0,0)" stroke="none" style="white-space: pre">atomi</tspan></tspan></tspan></text>
        <text class="SVGTextShape"><tspan class="TextParagraph"><tspan class="TextPosition" x="6647" y="14852"><tspan font-family="Times New Roman, serif" font-size="494px" font-weight="400" lengthAdjust="spacingAndGlyphs" textLength="243" fill="rgb(0,0,0)" stroke="none" style="white-space: pre">  </tspan></tspan></tspan></text>
        <text class="SVGTextShape"><tspan class="TextParagraph"><tspan class="TextPosition" x="6325" y="15865"><tspan font-family="Times New Roman, serif" font-size="494px" font-weight="400" lengthAdjust="spacingAndGlyphs" textLength="243" fill="rgb(0,0,0)" stroke="none" style="white-space: pre">2</tspan></tspan></tspan></text>
        <text class="SVGTextShape"><tspan class="TextParagraph"><tspan class="TextPosition" x="5322" y="15481"><tspan font-family="Times New Roman, serif" font-size="494px" font-weight="400" lengthAdjust="spacingAndGlyphs" textLength="649" fill="rgb(0,0,0)" stroke="none" style="white-space: pre">sen</tspan></tspan></tspan></text>
        <text class="SVGTextShape"><tspan class="TextParagraph"><tspan class="TextPosition" x="4422" y="14852"><tspan font-family="Times New Roman, serif" font-size="494px" font-weight="400" lengthAdjust="spacingAndGlyphs" textLength="487" fill="rgb(0,0,0)" stroke="none" style="white-space: pre">10</tspan></tspan></tspan></text>
        <text class="SVGTextShape"><tspan class="TextParagraph"><tspan class="TextPosition" x="3942" y="14852"><tspan font-family="Times New Roman, serif" font-size="494px" font-weight="400" lengthAdjust="spacingAndGlyphs" textLength="243" fill="rgb(0,0,0)" stroke="none" style="white-space: pre">4</tspan></tspan></tspan></text>
        <text class="SVGTextShape"><tspan class="TextParagraph"><tspan class="TextPosition" x="17311" y="13886"><tspan font-family="Times New Roman, serif" font-size="494px" font-weight="400" lengthAdjust="spacingAndGlyphs" textLength="243" fill="rgb(0,0,0)" stroke="none" style="white-space: pre">2</tspan></tspan></tspan></text>
        <text class="SVGTextShape"><tspan class="TextParagraph"><tspan class="TextPosition" x="16308" y="13503"><tspan font-family="Times New Roman, serif" font-size="494px" font-weight="400" lengthAdjust="spacingAndGlyphs" textLength="649" fill="rgb(0,0,0)" stroke="none" style="white-space: pre">sen</tspan></tspan></tspan></text>
        <text class="SVGTextShape"><tspan class="TextParagraph"><tspan class="TextPosition" x="16840" y="12565"><tspan font-family="Times New Roman, serif" font-size="494px" font-weight="400" lengthAdjust="spacingAndGlyphs" textLength="243" fill="rgb(0,0,0)" stroke="none" style="white-space: pre">1</tspan></tspan></tspan></text>
        <text class="SVGTextShape"><tspan class="TextParagraph"><tspan class="TextPosition" x="15148" y="13304"><tspan font-family="Times New Roman, serif" font-size="494px" font-weight="400" lengthAdjust="spacingAndGlyphs" textLength="487" fill="rgb(0,0,0)" stroke="none" style="white-space: pre">10</tspan></tspan></tspan></text>
        <text class="SVGTextShape"><tspan class="TextParagraph"><tspan class="TextPosition" x="14667" y="13304"><tspan font-family="Times New Roman, serif" font-size="494px" font-weight="400" lengthAdjust="spacingAndGlyphs" textLength="243" fill="rgb(0,0,0)" stroke="none" style="white-space: pre">6</tspan></tspan></tspan></text>
        <text class="SVGTextShape"><tspan class="TextParagraph"><tspan class="TextPosition" x="14544" y="13304"><tspan font-family="Times New Roman, serif" font-size="494px" font-weight="400" lengthAdjust="spacingAndGlyphs" textLength="122" fill="rgb(0,0,0)" stroke="none" style="white-space: pre">,</tspan></tspan></tspan></text>
        <text class="SVGTextShape"><tspan class="TextParagraph"><tspan class="TextPosition" x="14343" y="13304"><tspan font-family="Times New Roman, serif" font-size="494px" font-weight="400" lengthAdjust="spacingAndGlyphs" textLength="243" fill="rgb(0,0,0)" stroke="none" style="white-space: pre">1</tspan></tspan></tspan></text>
        <text class="SVGTextShape"><tspan class="TextParagraph"><tspan class="TextPosition" x="12920" y="13304"><tspan font-family="Times New Roman, serif" font-size="494px" font-weight="400" lengthAdjust="spacingAndGlyphs" textLength="487" fill="rgb(0,0,0)" stroke="none" style="white-space: pre">10</tspan></tspan></tspan></text>
        <text class="SVGTextShape"><tspan class="TextParagraph"><tspan class="TextPosition" x="12432" y="13304"><tspan font-family="Times New Roman, serif" font-size="494px" font-weight="400" lengthAdjust="spacingAndGlyphs" textLength="243" fill="rgb(0,0,0)" stroke="none" style="white-space: pre">7</tspan></tspan></tspan></text>
        <text class="SVGTextShape"><tspan class="TextParagraph"><tspan class="TextPosition" x="12308" y="13304"><tspan font-family="Times New Roman, serif" font-size="494px" font-weight="400" lengthAdjust="spacingAndGlyphs" textLength="122" fill="rgb(0,0,0)" stroke="none" style="white-space: pre">,</tspan></tspan></tspan></text>
        <text class="SVGTextShape"><tspan class="TextParagraph"><tspan class="TextPosition" x="12069" y="13304"><tspan font-family="Times New Roman, serif" font-size="494px" font-weight="400" lengthAdjust="spacingAndGlyphs" textLength="243" fill="rgb(0,0,0)" stroke="none" style="white-space: pre">6</tspan></tspan></tspan></text>
        <text class="SVGTextShape"><tspan class="TextParagraph"><tspan class="TextPosition" x="10631" y="13304"><tspan font-family="Times New Roman, serif" font-size="494px" font-weight="400" lengthAdjust="spacingAndGlyphs" textLength="487" fill="rgb(0,0,0)" stroke="none" style="white-space: pre">10</tspan></tspan></tspan></text>
        <text class="SVGTextShape"><tspan class="TextParagraph"><tspan class="TextPosition" x="10158" y="13304"><tspan font-family="Times New Roman, serif" font-size="494px" font-weight="400" lengthAdjust="spacingAndGlyphs" textLength="243" fill="rgb(0,0,0)" stroke="none" style="white-space: pre">8</tspan></tspan></tspan></text>
        <text class="SVGTextShape"><tspan class="TextParagraph"><tspan class="TextPosition" x="10050" y="13304"><tspan font-family="Times New Roman, serif" font-size="494px" font-weight="400" lengthAdjust="spacingAndGlyphs" textLength="122" fill="rgb(0,0,0)" stroke="none" style="white-space: pre">,</tspan></tspan></tspan></text>
        <text class="SVGTextShape"><tspan class="TextParagraph"><tspan class="TextPosition" x="9819" y="13304"><tspan font-family="Times New Roman, serif" font-size="494px" font-weight="400" lengthAdjust="spacingAndGlyphs" textLength="243" fill="rgb(0,0,0)" stroke="none" style="white-space: pre">8</tspan></tspan></tspan></text>
        <text class="SVGTextShape"><tspan class="TextParagraph"><tspan class="TextPosition" x="8711" y="13304"><tspan font-family="Times New Roman, serif" font-size="494px" font-weight="400" lengthAdjust="spacingAndGlyphs" textLength="487" fill="rgb(0,0,0)" stroke="none" style="white-space: pre">14</tspan></tspan></tspan></text>
        <text class="SVGTextShape"><tspan class="TextParagraph"><tspan class="TextPosition" x="8634" y="13304"><tspan font-family="Times New Roman, serif" font-size="494px" font-weight="400" lengthAdjust="spacingAndGlyphs" textLength="122" fill="rgb(0,0,0)" stroke="none" style="white-space: pre">,</tspan></tspan></tspan></text>
        <text class="SVGTextShape"><tspan class="TextParagraph"><tspan class="TextPosition" x="8410" y="13304"><tspan font-family="Times New Roman, serif" font-size="494px" font-weight="400" lengthAdjust="spacingAndGlyphs" textLength="243" fill="rgb(0,0,0)" stroke="none" style="white-space: pre">3</tspan></tspan></tspan></text>
        <text class="SVGTextShape"><tspan class="TextParagraph"><tspan class="TextPosition" x="7644" y="13304"><tspan font-family="Times New Roman, serif" font-size="494px" font-weight="400" lengthAdjust="spacingAndGlyphs" textLength="487" fill="rgb(0,0,0)" stroke="none" style="white-space: pre">64</tspan></tspan></tspan></text>
        <text class="SVGTextShape"><tspan class="TextParagraph"><tspan class="TextPosition" x="11467" y="12565"><tspan font-family="Times New Roman, serif" font-size="494px" font-weight="400" lengthAdjust="spacingAndGlyphs" textLength="487" fill="rgb(0,0,0)" stroke="none" style="white-space: pre">10</tspan></tspan></tspan></text>
        <text class="SVGTextShape"><tspan class="TextParagraph"><tspan class="TextPosition" x="10986" y="12565"><tspan font-family="Times New Roman, serif" font-size="494px" font-weight="400" lengthAdjust="spacingAndGlyphs" textLength="243" fill="rgb(0,0,0)" stroke="none" style="white-space: pre">2</tspan></tspan></tspan></text>
        <text class="SVGTextShape"><tspan class="TextParagraph"><tspan class="TextPosition" x="10855" y="12565"><tspan font-family="Times New Roman, serif" font-size="494px" font-weight="400" lengthAdjust="spacingAndGlyphs" textLength="122" fill="rgb(0,0,0)" stroke="none" style="white-space: pre">,</tspan></tspan></tspan></text>
        <text class="SVGTextShape"><tspan class="TextParagraph"><tspan class="TextPosition" x="10631" y="12565"><tspan font-family="Times New Roman, serif" font-size="494px" font-weight="400" lengthAdjust="spacingAndGlyphs" textLength="243" fill="rgb(0,0,0)" stroke="none" style="white-space: pre">3</tspan></tspan></tspan></text>
        <text class="SVGTextShape"><tspan class="TextParagraph"><tspan class="TextPosition" x="6736" y="12873"><tspan font-family="Times New Roman, serif" font-size="494px" font-weight="400" lengthAdjust="spacingAndGlyphs" textLength="487" fill="rgb(0,0,0)" stroke="none" style="white-space: pre">10</tspan></tspan></tspan></text>
        <text class="SVGTextShape"><tspan class="TextParagraph"><tspan class="TextPosition" x="5795" y="12873"><tspan font-family="Times New Roman, serif" font-size="494px" font-weight="400" lengthAdjust="spacingAndGlyphs" textLength="487" fill="rgb(0,0,0)" stroke="none" style="white-space: pre">10</tspan></tspan></tspan></text>
        <text class="SVGTextShape"><tspan class="TextParagraph"><tspan class="TextPosition" x="5314" y="12873"><tspan font-family="Times New Roman, serif" font-size="494px" font-weight="400" lengthAdjust="spacingAndGlyphs" textLength="243" fill="rgb(0,0,0)" stroke="none" style="white-space: pre">2</tspan></tspan></tspan></text>
        <text class="SVGTextShape"><tspan class="TextParagraph"><tspan class="TextPosition" x="4932" y="12873"><tspan font-family="Times New Roman, serif" font-size="494px" font-weight="400" lengthAdjust="spacingAndGlyphs" textLength="243" fill="rgb(0,0,0)" stroke="none" style="white-space: pre">5</tspan></tspan></tspan></text>
        <text class="SVGTextShape"><tspan class="TextParagraph"><tspan class="TextPosition" x="4816" y="12873"><tspan font-family="Times New Roman, serif" font-size="494px" font-weight="400" lengthAdjust="spacingAndGlyphs" textLength="122" fill="rgb(0,0,0)" stroke="none" style="white-space: pre">,</tspan></tspan></tspan></text>
        <text class="SVGTextShape"><tspan class="TextParagraph"><tspan class="TextPosition" x="4577" y="12873"><tspan font-family="Times New Roman, serif" font-size="494px" font-weight="400" lengthAdjust="spacingAndGlyphs" textLength="243" fill="rgb(0,0,0)" stroke="none" style="white-space: pre">2</tspan></tspan></tspan></text>
        <text class="SVGTextShape"><tspan class="TextParagraph"><tspan class="TextPosition" x="6028" y="15260"><tspan font-family="Times New Roman, serif" font-size="247px" font-weight="400" lengthAdjust="spacingAndGlyphs" textLength="127" fill="rgb(0,0,0)" stroke="none" style="white-space: pre">4</tspan></tspan></tspan></text>
        <text class="SVGTextShape"><tspan class="TextParagraph"><tspan class="TextPosition" x="6083" y="14322"><tspan font-family="Times New Roman, serif" font-size="247px" font-weight="400" lengthAdjust="spacingAndGlyphs" textLength="127" fill="rgb(0,0,0)" stroke="none" style="white-space: pre">2</tspan></tspan></tspan></text>
        <text class="SVGTextShape"><tspan class="TextParagraph"><tspan class="TextPosition" x="4943" y="14630"><tspan font-family="Times New Roman, serif" font-size="247px" font-weight="400" lengthAdjust="spacingAndGlyphs" textLength="254" fill="rgb(0,0,0)" stroke="none" style="white-space: pre">29</tspan></tspan></tspan></text>
        <text class="SVGTextShape"><tspan class="TextParagraph"><tspan class="TextPosition" x="17013" y="13281"><tspan font-family="Times New Roman, serif" font-size="247px" font-weight="400" lengthAdjust="spacingAndGlyphs" textLength="127" fill="rgb(0,0,0)" stroke="none" style="white-space: pre">4</tspan></tspan></tspan></text>
        <text class="SVGTextShape"><tspan class="TextParagraph"><tspan class="TextPosition" x="16017" y="13004"><tspan font-family="Times New Roman, serif" font-size="247px" font-weight="400" lengthAdjust="spacingAndGlyphs" textLength="127" fill="rgb(0,0,0)" stroke="none" style="white-space: pre">4</tspan></tspan></tspan></text>
        <text class="SVGTextShape"><tspan class="TextParagraph"><tspan class="TextPosition" x="15664" y="13083"><tspan font-family="Times New Roman, serif" font-size="247px" font-weight="400" lengthAdjust="spacingAndGlyphs" textLength="127" fill="rgb(0,0,0)" stroke="none" style="white-space: pre">7</tspan></tspan></tspan></text>
        <text class="SVGTextShape"><tspan class="TextParagraph"><tspan class="TextPosition" x="14067" y="13004"><tspan font-family="Times New Roman, serif" font-size="247px" font-weight="400" lengthAdjust="spacingAndGlyphs" textLength="127" fill="rgb(0,0,0)" stroke="none" style="white-space: pre">2</tspan></tspan></tspan></text>
        <text class="SVGTextShape"><tspan class="TextParagraph"><tspan class="TextPosition" x="13590" y="13083"><tspan font-family="Times New Roman, serif" font-size="247px" font-weight="400" lengthAdjust="spacingAndGlyphs" textLength="254" fill="rgb(0,0,0)" stroke="none" style="white-space: pre">27</tspan></tspan></tspan></text>
        <text class="SVGTextShape"><tspan class="TextParagraph"><tspan class="TextPosition" x="11746" y="13004"><tspan font-family="Times New Roman, serif" font-size="247px" font-weight="400" lengthAdjust="spacingAndGlyphs" textLength="127" fill="rgb(0,0,0)" stroke="none" style="white-space: pre">2</tspan></tspan></tspan></text>
        <text class="SVGTextShape"><tspan class="TextParagraph"><tspan class="TextPosition" x="11274" y="13083"><tspan font-family="Times New Roman, serif" font-size="247px" font-weight="400" lengthAdjust="spacingAndGlyphs" textLength="254" fill="rgb(0,0,0)" stroke="none" style="white-space: pre">12</tspan></tspan></tspan></text>
        <text class="SVGTextShape"><tspan class="TextParagraph"><tspan class="TextPosition" x="9231" y="13083"><tspan font-family="Times New Roman, serif" font-size="247px" font-weight="400" lengthAdjust="spacingAndGlyphs" textLength="127" fill="rgb(0,0,0)" stroke="none" style="white-space: pre">2</tspan></tspan></tspan></text>
        <text class="SVGTextShape"><tspan class="TextParagraph"><tspan class="TextPosition" x="13158" y="12343"><tspan font-family="Times New Roman, serif" font-size="247px" font-weight="400" lengthAdjust="spacingAndGlyphs" textLength="127" fill="rgb(0,0,0)" stroke="none" style="white-space: pre">2</tspan></tspan></tspan></text>
        <text class="SVGTextShape"><tspan class="TextParagraph"><tspan class="TextPosition" x="12582" y="12265"><tspan font-family="Times New Roman, serif" font-size="247px" font-weight="400" lengthAdjust="spacingAndGlyphs" textLength="127" fill="rgb(0,0,0)" stroke="none" style="white-space: pre">2</tspan></tspan></tspan></text>
        <text class="SVGTextShape"><tspan class="TextParagraph"><tspan class="TextPosition" x="12110" y="12343"><tspan font-family="Times New Roman, serif" font-size="247px" font-weight="400" lengthAdjust="spacingAndGlyphs" textLength="254" fill="rgb(0,0,0)" stroke="none" style="white-space: pre">19</tspan></tspan></tspan></text>
        <text class="SVGTextShape"><tspan class="TextParagraph"><tspan class="TextPosition" x="7257" y="12652"><tspan font-family="Times New Roman, serif" font-size="247px" font-weight="400" lengthAdjust="spacingAndGlyphs" textLength="254" fill="rgb(0,0,0)" stroke="none" style="white-space: pre">29</tspan></tspan></tspan></text>
        <text class="SVGTextShape"><tspan class="TextParagraph"><tspan class="TextPosition" x="6461" y="12652"><tspan font-family="Times New Roman, serif" font-size="247px" font-weight="400" lengthAdjust="spacingAndGlyphs" textLength="127" fill="rgb(0,0,0)" stroke="none" style="white-space: pre">6</tspan></tspan></tspan></text>
        <g class="OutlinedText"><path d="M 1059,533 C 932,532 833,556 762,606 691,656 644,731 622,831 600,931 604,1023 633,1108 663,1197 721,1271 806,1332 892,1392 987,1422 1091,1422 1172,1422 1237,1399 1287,1353 1337,1306 1365,1232 1372,1130 1379,1027 1348,874 1278,670 1325,661 1354,642 1364,614 1379,571 1372,510 1345,429 1342,420 1337,408 1331,391 L 1293,391 C 1309,446 1312,483 1301,502 1290,521 1264,531 1222,533 1185,436 1153,364 1125,317 1071,227 1014,154 951,98 904,56 850,24 790,2 730,-20 661,-31 585,-31 491,-31 422,-15 377,16 332,47 307,87 301,138 297,169 307,222 329,299 352,375 360,423 352,444 344,465 328,475 303,475 291,475 273,472 249,465 L 247,498 C 303,517 349,526 387,526 427,526 456,518 474,502 498,481 511,452 513,415 515,387 504,335 482,259 459,182 459,126 481,91 503,55 543,37 602,37 655,37 709,52 763,83 817,113 867,159 913,220 958,281 1007,385 1059,533 Z M 1111,671 C 1122,702 1130,725 1135,740 1178,865 1207,980 1222,1085 1237,1190 1231,1261 1202,1299 1174,1337 1132,1356 1078,1356 1014,1356 954,1332 899,1285 844,1237 797,1156 758,1043 714,911 708,815 741,755 774,694 842,664 945,664 978,664 1033,666 1111,671 Z " transform="translate(6252,15173) scale(0.241,-0.241)" fill="rgb(0,0,0)" stroke="none"/></g><g class="OutlinedText"><path d="M 1059,533 C 932,532 833,556 762,606 691,656 644,731 622,831 600,931 604,1023 633,1108 663,1197 721,1271 806,1332 892,1392 987,1422 1091,1422 1172,1422 1237,1399 1287,1353 1337,1306 1365,1232 1372,1130 1379,1027 1348,874 1278,670 1325,661 1354,642 1364,614 1379,571 1372,510 1345,429 1342,420 1337,408 1331,391 L 1293,391 C 1309,446 1312,483 1301,502 1290,521 1264,531 1222,533 1185,436 1153,364 1125,317 1071,227 1014,154 951,98 904,56 850,24 790,2 730,-20 661,-31 585,-31 491,-31 422,-15 377,16 332,47 307,87 301,138 297,169 307,222 329,299 352,375 360,423 352,444 344,465 328,475 303,475 291,475 273,472 249,465 L 247,498 C 303,517 349,526 387,526 427,526 456,518 474,502 498,481 511,452 513,415 515,387 504,335 482,259 459,182 459,126 481,91 503,55 543,37 602,37 655,37 709,52 763,83 817,113 867,159 913,220 958,281 1007,385 1059,533 Z M 1111,671 C 1122,702 1130,725 1135,740 1178,865 1207,980 1222,1085 1237,1190 1231,1261 1202,1299 1174,1337 1132,1356 1078,1356 1014,1356 954,1332 899,1285 844,1237 797,1156 758,1043 714,911 708,815 741,755 774,694 842,664 945,664 978,664 1033,666 1111,671 Z " transform="translate(17238,13194) scale(0.241,-0.241)" fill="rgb(0,0,0)" stroke="none"/></g><text class="SVGTextShape"><tspan class="TextParagraph"><tspan class="TextPosition" x="5686" y="14543"><tspan font-family="Times New Roman, serif" font-size="494px" font-style="italic" font-weight="400" lengthAdjust="spacingAndGlyphs" textLength="352" fill="rgb(0,0,0)" stroke="none" style="white-space: pre">Q</tspan></tspan></tspan></text>
        <text class="SVGTextShape"><tspan class="TextParagraph"><tspan class="TextPosition" x="12761" y="12565"><tspan font-family="Times New Roman, serif" font-size="494px" font-style="italic" font-weight="400" lengthAdjust="spacingAndGlyphs" textLength="352" fill="rgb(0,0,0)" stroke="none" style="white-space: pre">Q</tspan></tspan></tspan></text>
        <text class="SVGTextShape"><tspan class="TextParagraph"><tspan class="TextPosition" x="3891" y="13257"><tspan font-family="Times New Roman, serif" font-size="494px" font-style="italic" font-weight="400" lengthAdjust="spacingAndGlyphs" textLength="135" fill="rgb(0,0,0)" stroke="none" style="white-space: pre">t</tspan></tspan></tspan></text>
        <text class="SVGTextShape"><tspan class="TextParagraph"><tspan class="TextPosition" x="3644" y="12565"><tspan font-family="Times New Roman, serif" font-size="494px" font-style="italic" font-weight="400" lengthAdjust="spacingAndGlyphs" textLength="325" fill="rgb(0,0,0)" stroke="none" style="white-space: pre">N</tspan></tspan></tspan></text>
        <g class="OutlinedText"><path d="M 366,524 C 366,493 355,467 334,446 312,424 286,413 256,413 225,413 199,424 178,446 156,467 145,493 145,524 145,555 156,581 178,603 199,624 225,635 256,635 286,635 312,624 334,603 355,581 366,555 366,524 Z " transform="translate(4267,14852) scale(0.241,-0.241)" fill="rgb(0,0,0)" stroke="none"/></g><g class="OutlinedText"><path d="M 1023,1038 L 1072,1038 C 1059,929 1026,849 974,796 922,743 861,717 791,717 758,717 721,724 679,739 636,753 571,785 482,835 393,885 324,910 276,910 232,910 194,894 161,863 128,831 106,784 97,723 L 52,723 C 65,831 97,912 149,965 201,1018 260,1045 325,1045 358,1045 399,1037 447,1021 483,1009 553,975 657,919 736,878 800,857 849,857 892,857 928,870 955,897 991,932 1014,979 1023,1038 Z M 37,472 L 1087,472 1087,375 37,375 37,472 Z M 37,99 L 1087,99 1087,0 37,0 37,99 Z " transform="translate(3555,14852) scale(0.241,-0.241)" fill="rgb(0,0,0)" stroke="none"/></g><g class="OutlinedText"><path d="M 1023,1038 L 1072,1038 C 1059,929 1026,849 974,796 922,743 861,717 791,717 758,717 721,724 679,739 636,753 571,785 482,835 393,885 324,910 276,910 232,910 194,894 161,863 128,831 106,784 97,723 L 52,723 C 65,831 97,912 149,965 201,1018 260,1045 325,1045 358,1045 399,1037 447,1021 483,1009 553,975 657,919 736,878 800,857 849,857 892,857 928,870 955,897 991,932 1014,979 1023,1038 Z M 37,472 L 1087,472 1087,375 37,375 37,472 Z M 37,99 L 1087,99 1087,0 37,0 37,99 Z " transform="translate(17757,12873) scale(0.241,-0.241)" fill="rgb(0,0,0)" stroke="none"/></g><g class="OutlinedText"><path d="M 366,524 C 366,493 355,467 334,446 312,424 286,413 256,413 225,413 199,424 178,446 156,467 145,493 145,524 145,555 156,581 178,603 199,624 225,635 256,635 286,635 312,624 334,603 355,581 366,555 366,524 Z " transform="translate(14993,13304) scale(0.241,-0.241)" fill="rgb(0,0,0)" stroke="none"/></g><g class="OutlinedText"><path d="M 366,524 C 366,493 355,467 334,446 312,424 286,413 256,413 225,413 199,424 178,446 156,467 145,493 145,524 145,555 156,581 178,603 199,624 225,635 256,635 286,635 312,624 334,603 355,581 366,555 366,524 Z " transform="translate(12765,13304) scale(0.241,-0.241)" fill="rgb(0,0,0)" stroke="none"/></g><g class="OutlinedText"><path d="M 366,524 C 366,493 355,467 334,446 312,424 286,413 256,413 225,413 199,424 178,446 156,467 145,493 145,524 145,555 156,581 178,603 199,624 225,635 256,635 286,635 312,624 334,603 355,581 366,555 366,524 Z " transform="translate(10476,13304) scale(0.241,-0.241)" fill="rgb(0,0,0)" stroke="none"/></g><g class="OutlinedText"><path d="M 366,524 C 366,493 355,467 334,446 312,424 286,413 256,413 225,413 199,424 178,446 156,467 145,493 145,524 145,555 156,581 178,603 199,624 225,635 256,635 286,635 312,624 334,603 355,581 366,555 366,524 Z " transform="translate(9497,13304) scale(0.241,-0.241)" fill="rgb(0,0,0)" stroke="none"/></g><g class="OutlinedText"><path d="M 366,524 C 366,493 355,467 334,446 312,424 286,413 256,413 225,413 199,424 178,446 156,467 145,493 145,524 145,555 156,581 178,603 199,624 225,635 256,635 286,635 312,624 334,603 355,581 366,555 366,524 Z " transform="translate(8216,13304) scale(0.241,-0.241)" fill="rgb(0,0,0)" stroke="none"/></g><g class="OutlinedText"><path d="M 366,524 C 366,493 355,467 334,446 312,424 286,413 256,413 225,413 199,424 178,446 156,467 145,493 145,524 145,555 156,581 178,603 199,624 225,635 256,635 286,635 312,624 334,603 355,581 366,555 366,524 Z " transform="translate(11312,12565) scale(0.241,-0.241)" fill="rgb(0,0,0)" stroke="none"/></g><g class="OutlinedText"><path d="M 366,524 C 366,493 355,467 334,446 312,424 286,413 256,413 225,413 199,424 178,446 156,467 145,493 145,524 145,555 156,581 178,603 199,624 225,635 256,635 286,635 312,624 334,603 355,581 366,555 366,524 Z " transform="translate(5640,12873) scale(0.241,-0.241)" fill="rgb(0,0,0)" stroke="none"/></g><g class="OutlinedText"><path d="M 37,759 L 1087,759 1087,662 37,662 37,759 Z M 37,386 L 1087,386 1087,287 37,287 37,386 Z " transform="translate(4198,12873) scale(0.241,-0.241)" fill="rgb(0,0,0)" stroke="none"/></g><g class="OutlinedText"><path d="M 1226,0 L 26,0 654,1387 1226,0 Z M 990,82 L 591,1049 151,82 990,82 Z " transform="translate(3590,13257) scale(0.241,-0.241)" fill="rgb(0,0,0)" stroke="none"/></g><g class="OutlinedText"><path d="M 37,576 L 1087,576 1087,477 37,477 37,576 Z " transform="translate(13440,13083) scale(0.121,-0.121)" fill="rgb(0,0,0)" stroke="none"/></g><g class="OutlinedText"><path d="M 37,576 L 1087,576 1087,477 37,477 37,576 Z " transform="translate(11152,13083) scale(0.121,-0.121)" fill="rgb(0,0,0)" stroke="none"/></g><g class="OutlinedText"><path d="M 37,576 L 1087,576 1087,477 37,477 37,576 Z " transform="translate(11987,12343) scale(0.121,-0.121)" fill="rgb(0,0,0)" stroke="none"/></g><g class="OutlinedText"><path d="M 37,576 L 1087,576 1087,477 37,477 37,576 Z " transform="translate(6315,12652) scale(0.121,-0.121)" fill="rgb(0,0,0)" stroke="none"/></g></g>
      </g>
     </g>
    </g>
   </g>
  </g>
 </g>
</svg>