<?xml version='1.0' encoding='UTF-8'?>
<!DOCTYPE svg PUBLIC "-//W3C//DTD SVG 1.1//EN" "http://www.w3.org/Graphics/SVG/1.1/DTD/svg11.dtd">
<svg xmlns="http://www.w3.org/2000/svg" xmlns:ooo="http://xml.openoffice.org/svg/export" xmlns:xlink="http://www.w3.org/1999/xlink" xmlns:presentation="http://sun.com/xmlns/staroffice/presentation" xmlns:smil="http://www.w3.org/2001/SMIL20/" xmlns:anim="urn:oasis:names:tc:opendocument:xmlns:animation:1.0" xmlns:svg="urn:oasis:names:tc:opendocument:xmlns:svg-compatible:1.0" version="1.2" width="124.530mm" height="19.050mm" viewBox="4568 13017 12453 1905" preserveAspectRatio="xMidYMid" fill-rule="evenodd" stroke-width="28.222" stroke-linejoin="round" xml:space="preserve">
 <defs class="ClipPathGroup">
  <clipPath id="presentation_clip_path" clipPathUnits="userSpaceOnUse">
   <rect x="0" y="0" width="21590" height="27940"/>
  </clipPath>
  <clipPath id="presentation_clip_path_shrink" clipPathUnits="userSpaceOnUse">
   <rect x="21" y="27" width="21547" height="27885"/>
  </clipPath>
 </defs>
 <defs>
  </defs>
 <defs>
  </defs>
 <defs>
  </defs>
 <defs>
  </defs>
 <defs class="TextShapeIndex">
  <g ooo:slide="id1" ooo:id-list="id3"/>
 </defs>
 <defs class="EmbeddedBulletChars">
  <g id="bullet-char-template-57356" transform="scale(0.00048828125,-0.00048828125)">
   <path d="M 580,1141 L 1163,571 580,0 -4,571 580,1141 Z"/>
  </g>
  <g id="bullet-char-template-57354" transform="scale(0.00048828125,-0.00048828125)">
   <path d="M 8,1128 L 1137,1128 1137,0 8,0 8,1128 Z"/>
  </g>
  <g id="bullet-char-template-10146" transform="scale(0.00048828125,-0.00048828125)">
   <path d="M 174,0 L 602,739 174,1481 1456,739 174,0 Z M 1358,739 L 309,1346 659,739 1358,739 Z"/>
  </g>
  <g id="bullet-char-template-10132" transform="scale(0.00048828125,-0.00048828125)">
   <path d="M 2015,739 L 1276,0 717,0 1260,543 174,543 174,936 1260,936 717,1481 1274,1481 2015,739 Z"/>
  </g>
  <g id="bullet-char-template-10007" transform="scale(0.00048828125,-0.00048828125)">
   <path d="M 0,-2 C -7,14 -16,27 -25,37 L 356,567 C 262,823 215,952 215,954 215,979 228,992 255,992 264,992 276,990 289,987 310,991 331,999 354,1012 L 381,999 492,748 772,1049 836,1024 860,1049 C 881,1039 901,1025 922,1006 886,937 835,863 770,784 769,783 710,716 594,584 L 774,223 C 774,196 753,168 711,139 L 727,119 C 717,90 699,76 672,76 641,76 570,178 457,381 L 164,-76 C 142,-110 111,-127 72,-127 30,-127 9,-110 8,-76 1,-67 -2,-52 -2,-32 -2,-23 -1,-13 0,-2 Z"/>
  </g>
  <g id="bullet-char-template-10004" transform="scale(0.00048828125,-0.00048828125)">
   <path d="M 285,-33 C 182,-33 111,30 74,156 52,228 41,333 41,471 41,549 55,616 82,672 116,743 169,778 240,778 293,778 328,747 346,684 L 369,508 C 377,444 397,411 428,410 L 1163,1116 C 1174,1127 1196,1133 1229,1133 1271,1133 1292,1118 1292,1087 L 1292,965 C 1292,929 1282,901 1262,881 L 442,47 C 390,-6 338,-33 285,-33 Z"/>
  </g>
  <g id="bullet-char-template-9679" transform="scale(0.00048828125,-0.00048828125)">
   <path d="M 813,0 C 632,0 489,54 383,161 276,268 223,411 223,592 223,773 276,916 383,1023 489,1130 632,1184 813,1184 992,1184 1136,1130 1245,1023 1353,916 1407,772 1407,592 1407,412 1353,268 1245,161 1136,54 992,0 813,0 Z"/>
  </g>
  <g id="bullet-char-template-8226" transform="scale(0.00048828125,-0.00048828125)">
   <path d="M 346,457 C 273,457 209,483 155,535 101,586 74,649 74,723 74,796 101,859 155,911 209,963 273,989 346,989 419,989 480,963 531,910 582,859 608,796 608,723 608,648 583,586 532,535 482,483 420,457 346,457 Z"/>
  </g>
  <g id="bullet-char-template-8211" transform="scale(0.00048828125,-0.00048828125)">
   <path d="M -4,459 L 1135,459 1135,606 -4,606 -4,459 Z"/>
  </g>
  <g id="bullet-char-template-61548" transform="scale(0.00048828125,-0.00048828125)">
   <path d="M 173,740 C 173,903 231,1043 346,1159 462,1274 601,1332 765,1332 928,1332 1067,1274 1183,1159 1299,1043 1357,903 1357,740 1357,577 1299,437 1183,322 1067,206 928,148 765,148 601,148 462,206 346,322 231,437 173,577 173,740 Z"/>
  </g>
 </defs>
 <g>
  <g id="id2" class="Master_Slide">
   <g id="bg-id2" class="Background"/>
   <g id="bo-id2" class="BackgroundObjects"/>
  </g>
 </g>
 <g class="SlideGroup">
  <g>
   <g id="container-id1">
    <g id="id1" class="Slide" clip-path="url(#presentation_clip_path)">
     <g class="Page">
      <g class="Graphic">
       <g id="id3">
        <rect class="BoundingBox" stroke="none" fill="none" x="4568" y="13017" width="12453" height="1905"/>
        <path fill="none" stroke="rgb(0,0,0)" stroke-width="18" stroke-linejoin="round" stroke-linecap="round" d="M 4639,13705 L 5149,13705 "/>
        <path fill="none" stroke="rgb(0,0,0)" stroke-width="18" stroke-linejoin="round" stroke-linecap="round" d="M 5661,13705 L 6333,13705 "/>
        <path fill="none" stroke="rgb(0,0,0)" stroke-width="18" stroke-linejoin="round" stroke-linecap="round" d="M 6916,13705 L 9362,13705 "/>
        <path fill="none" stroke="rgb(0,0,0)" stroke-width="9" stroke-linejoin="round" stroke-linecap="round" d="M 10403,14334 L 10744,14334 "/>
        <path fill="none" stroke="rgb(0,0,0)" stroke-width="18" stroke-linejoin="round" stroke-linecap="round" d="M 9442,13705 L 10779,13705 "/>
        <path fill="none" stroke="rgb(0,0,0)" stroke-width="18" stroke-linejoin="round" stroke-linecap="round" d="M 13078,13705 L 15524,13705 "/>
        <path fill="none" stroke="rgb(0,0,0)" stroke-width="9" stroke-linejoin="round" stroke-linecap="round" d="M 16565,14334 L 16905,14334 "/>
        <path fill="none" stroke="rgb(0,0,0)" stroke-width="18" stroke-linejoin="round" stroke-linecap="round" d="M 15603,13705 L 16941,13705 "/>
        <text class="SVGTextShape"><tspan class="TextParagraph"><tspan class="TextPosition" x="16619" y="14842"><tspan font-family="Times New Roman, serif" font-size="494px" font-weight="400" lengthAdjust="spacingAndGlyphs" textLength="243" fill="rgb(0,0,0)" stroke="none" style="white-space: pre">2</tspan></tspan></tspan></text>
        <text class="SVGTextShape"><tspan class="TextParagraph"><tspan class="TextPosition" x="15615" y="14458"><tspan font-family="Times New Roman, serif" font-size="494px" font-weight="400" lengthAdjust="spacingAndGlyphs" textLength="649" fill="rgb(0,0,0)" stroke="none" style="white-space: pre">sen</tspan></tspan></tspan></text>
        <text class="SVGTextShape"><tspan class="TextParagraph"><tspan class="TextPosition" x="16148" y="13520"><tspan font-family="Times New Roman, serif" font-size="494px" font-weight="400" lengthAdjust="spacingAndGlyphs" textLength="243" fill="rgb(0,0,0)" stroke="none" style="white-space: pre">1</tspan></tspan></tspan></text>
        <text class="SVGTextShape"><tspan class="TextParagraph"><tspan class="TextPosition" x="13097" y="14212"><tspan font-family="Times New Roman, serif" font-size="494px" font-weight="400" lengthAdjust="spacingAndGlyphs" textLength="487" fill="rgb(0,0,0)" stroke="none" style="white-space: pre">64</tspan></tspan></tspan></text>
        <text class="SVGTextShape"><tspan class="TextParagraph"><tspan class="TextPosition" x="12319" y="13828"><tspan font-family="Times New Roman, serif" font-size="494px" font-weight="400" lengthAdjust="spacingAndGlyphs" textLength="243" fill="rgb(0,0,0)" stroke="none" style="white-space: pre">5</tspan></tspan></tspan></text>
        <text class="SVGTextShape"><tspan class="TextParagraph"><tspan class="TextPosition" x="12203" y="13828"><tspan font-family="Times New Roman, serif" font-size="494px" font-weight="400" lengthAdjust="spacingAndGlyphs" textLength="122" fill="rgb(0,0,0)" stroke="none" style="white-space: pre">,</tspan></tspan></tspan></text>
        <text class="SVGTextShape"><tspan class="TextParagraph"><tspan class="TextPosition" x="11964" y="13828"><tspan font-family="Times New Roman, serif" font-size="494px" font-weight="400" lengthAdjust="spacingAndGlyphs" textLength="243" fill="rgb(0,0,0)" stroke="none" style="white-space: pre">2</tspan></tspan></tspan></text>
        <text class="SVGTextShape"><tspan class="TextParagraph"><tspan class="TextPosition" x="10457" y="14842"><tspan font-family="Times New Roman, serif" font-size="494px" font-weight="400" lengthAdjust="spacingAndGlyphs" textLength="243" fill="rgb(0,0,0)" stroke="none" style="white-space: pre">2</tspan></tspan></tspan></text>
        <text class="SVGTextShape"><tspan class="TextParagraph"><tspan class="TextPosition" x="9454" y="14458"><tspan font-family="Times New Roman, serif" font-size="494px" font-weight="400" lengthAdjust="spacingAndGlyphs" textLength="649" fill="rgb(0,0,0)" stroke="none" style="white-space: pre">sen</tspan></tspan></tspan></text>
        <text class="SVGTextShape"><tspan class="TextParagraph"><tspan class="TextPosition" x="9986" y="13520"><tspan font-family="Times New Roman, serif" font-size="494px" font-weight="400" lengthAdjust="spacingAndGlyphs" textLength="243" fill="rgb(0,0,0)" stroke="none" style="white-space: pre">1</tspan></tspan></tspan></text>
        <text class="SVGTextShape"><tspan class="TextParagraph"><tspan class="TextPosition" x="6936" y="14212"><tspan font-family="Times New Roman, serif" font-size="494px" font-weight="400" lengthAdjust="spacingAndGlyphs" textLength="487" fill="rgb(0,0,0)" stroke="none" style="white-space: pre">64</tspan></tspan></tspan></text>
        <text class="SVGTextShape"><tspan class="TextParagraph"><tspan class="TextPosition" x="6063" y="13520"><tspan font-family="Times New Roman, serif" font-size="494px" font-weight="400" lengthAdjust="spacingAndGlyphs" textLength="243" fill="rgb(0,0,0)" stroke="none" style="white-space: pre">5</tspan></tspan></tspan></text>
        <text class="SVGTextShape"><tspan class="TextParagraph"><tspan class="TextPosition" x="5947" y="13520"><tspan font-family="Times New Roman, serif" font-size="494px" font-weight="400" lengthAdjust="spacingAndGlyphs" textLength="122" fill="rgb(0,0,0)" stroke="none" style="white-space: pre">,</tspan></tspan></tspan></text>
        <text class="SVGTextShape"><tspan class="TextParagraph"><tspan class="TextPosition" x="5708" y="13520"><tspan font-family="Times New Roman, serif" font-size="494px" font-weight="400" lengthAdjust="spacingAndGlyphs" textLength="243" fill="rgb(0,0,0)" stroke="none" style="white-space: pre">2</tspan></tspan></tspan></text>
        <text class="SVGTextShape"><tspan class="TextParagraph"><tspan class="TextPosition" x="16321" y="14236"><tspan font-family="Times New Roman, serif" font-size="247px" font-weight="400" lengthAdjust="spacingAndGlyphs" textLength="127" fill="rgb(0,0,0)" stroke="none" style="white-space: pre">4</tspan></tspan></tspan></text>
        <text class="SVGTextShape"><tspan class="TextParagraph"><tspan class="TextPosition" x="15324" y="13990"><tspan font-family="Times New Roman, serif" font-size="247px" font-weight="400" lengthAdjust="spacingAndGlyphs" textLength="127" fill="rgb(0,0,0)" stroke="none" style="white-space: pre">4</tspan></tspan></tspan></text>
        <text class="SVGTextShape"><tspan class="TextParagraph"><tspan class="TextPosition" x="14918" y="13990"><tspan font-family="Times New Roman, serif" font-size="247px" font-weight="400" lengthAdjust="spacingAndGlyphs" textLength="127" fill="rgb(0,0,0)" stroke="none" style="white-space: pre">2</tspan></tspan></tspan></text>
        <text class="SVGTextShape"><tspan class="TextParagraph"><tspan class="TextPosition" x="14372" y="13990"><tspan font-family="Times New Roman, serif" font-size="247px" font-weight="400" lengthAdjust="spacingAndGlyphs" textLength="127" fill="rgb(0,0,0)" stroke="none" style="white-space: pre">2</tspan></tspan></tspan></text>
        <text class="SVGTextShape"><tspan class="TextParagraph"><tspan class="TextPosition" x="14332" y="14336"><tspan font-family="Times New Roman, serif" font-size="247px" font-weight="400" lengthAdjust="spacingAndGlyphs" textLength="127" fill="rgb(0,0,0)" stroke="none" style="white-space: pre">0</tspan></tspan></tspan></text>
        <text class="SVGTextShape"><tspan class="TextParagraph"><tspan class="TextPosition" x="13934" y="13990"><tspan font-family="Times New Roman, serif" font-size="247px" font-weight="400" lengthAdjust="spacingAndGlyphs" textLength="127" fill="rgb(0,0,0)" stroke="none" style="white-space: pre">2</tspan></tspan></tspan></text>
        <text class="SVGTextShape"><tspan class="TextParagraph"><tspan class="TextPosition" x="14628" y="13298"><tspan font-family="Times New Roman, serif" font-size="247px" font-weight="400" lengthAdjust="spacingAndGlyphs" textLength="127" fill="rgb(0,0,0)" stroke="none" style="white-space: pre">2</tspan></tspan></tspan></text>
        <text class="SVGTextShape"><tspan class="TextParagraph"><tspan class="TextPosition" x="14090" y="13298"><tspan font-family="Times New Roman, serif" font-size="247px" font-weight="400" lengthAdjust="spacingAndGlyphs" textLength="127" fill="rgb(0,0,0)" stroke="none" style="white-space: pre">2</tspan></tspan></tspan></text>
        <text class="SVGTextShape"><tspan class="TextParagraph"><tspan class="TextPosition" x="10160" y="14236"><tspan font-family="Times New Roman, serif" font-size="247px" font-weight="400" lengthAdjust="spacingAndGlyphs" textLength="127" fill="rgb(0,0,0)" stroke="none" style="white-space: pre">4</tspan></tspan></tspan></text>
        <text class="SVGTextShape"><tspan class="TextParagraph"><tspan class="TextPosition" x="9163" y="13990"><tspan font-family="Times New Roman, serif" font-size="247px" font-weight="400" lengthAdjust="spacingAndGlyphs" textLength="127" fill="rgb(0,0,0)" stroke="none" style="white-space: pre">4</tspan></tspan></tspan></text>
        <text class="SVGTextShape"><tspan class="TextParagraph"><tspan class="TextPosition" x="8756" y="13990"><tspan font-family="Times New Roman, serif" font-size="247px" font-weight="400" lengthAdjust="spacingAndGlyphs" textLength="127" fill="rgb(0,0,0)" stroke="none" style="white-space: pre">2</tspan></tspan></tspan></text>
        <text class="SVGTextShape"><tspan class="TextParagraph"><tspan class="TextPosition" x="8210" y="13990"><tspan font-family="Times New Roman, serif" font-size="247px" font-weight="400" lengthAdjust="spacingAndGlyphs" textLength="127" fill="rgb(0,0,0)" stroke="none" style="white-space: pre">2</tspan></tspan></tspan></text>
        <text class="SVGTextShape"><tspan class="TextParagraph"><tspan class="TextPosition" x="8171" y="14336"><tspan font-family="Times New Roman, serif" font-size="247px" font-weight="400" lengthAdjust="spacingAndGlyphs" textLength="127" fill="rgb(0,0,0)" stroke="none" style="white-space: pre">0</tspan></tspan></tspan></text>
        <text class="SVGTextShape"><tspan class="TextParagraph"><tspan class="TextPosition" x="7773" y="13990"><tspan font-family="Times New Roman, serif" font-size="247px" font-weight="400" lengthAdjust="spacingAndGlyphs" textLength="127" fill="rgb(0,0,0)" stroke="none" style="white-space: pre">2</tspan></tspan></tspan></text>
        <text class="SVGTextShape"><tspan class="TextParagraph"><tspan class="TextPosition" x="8466" y="13298"><tspan font-family="Times New Roman, serif" font-size="247px" font-weight="400" lengthAdjust="spacingAndGlyphs" textLength="127" fill="rgb(0,0,0)" stroke="none" style="white-space: pre">2</tspan></tspan></tspan></text>
        <text class="SVGTextShape"><tspan class="TextParagraph"><tspan class="TextPosition" x="7928" y="13298"><tspan font-family="Times New Roman, serif" font-size="247px" font-weight="400" lengthAdjust="spacingAndGlyphs" textLength="127" fill="rgb(0,0,0)" stroke="none" style="white-space: pre">2</tspan></tspan></tspan></text>
        <g class="OutlinedText"><path d="M 1059,533 C 932,532 833,556 762,606 691,656 644,731 622,831 600,931 604,1023 633,1108 663,1197 721,1271 806,1332 892,1392 987,1422 1091,1422 1172,1422 1237,1399 1287,1353 1337,1306 1365,1232 1372,1130 1379,1027 1348,874 1278,670 1325,661 1354,642 1364,614 1379,571 1372,510 1345,429 1342,420 1337,408 1331,391 L 1293,391 C 1309,446 1312,483 1301,502 1290,521 1264,531 1222,533 1185,436 1153,364 1125,317 1071,227 1014,154 951,98 904,56 850,24 790,2 730,-20 661,-31 585,-31 491,-31 422,-15 377,16 332,47 307,87 301,138 297,169 307,222 329,299 352,375 360,423 352,444 344,465 328,475 303,475 291,475 273,472 249,465 L 247,498 C 303,517 349,526 387,526 427,526 456,518 474,502 498,481 511,452 513,415 515,387 504,335 482,259 459,182 459,126 481,91 503,55 543,37 602,37 655,37 709,52 763,83 817,113 867,159 913,220 958,281 1007,385 1059,533 Z M 1111,671 C 1122,702 1130,725 1135,740 1178,865 1207,980 1222,1085 1237,1190 1231,1261 1202,1299 1174,1337 1132,1356 1078,1356 1014,1356 954,1332 899,1285 844,1237 797,1156 758,1043 714,911 708,815 741,755 774,694 842,664 945,664 978,664 1033,666 1111,671 Z " transform="translate(16546,14149) scale(0.241,-0.241)" fill="rgb(0,0,0)" stroke="none"/></g><g class="OutlinedText"><path d="M 491,491 C 422,520 380,552 365,585 349,618 350,658 365,704 386,766 430,818 496,859 586,916 688,944 804,944 872,944 931,936 981,920 1030,904 1060,883 1071,858 1082,832 1083,808 1076,785 1069,764 1054,746 1031,729 1007,712 985,703 962,703 925,703 903,727 895,775 887,822 876,851 864,862 844,879 815,888 777,888 717,888 663,871 616,836 569,801 535,753 515,693 495,634 494,589 513,558 531,527 566,511 618,511 635,511 654,512 676,515 710,520 737,522 755,522 784,522 802,518 810,511 818,504 820,495 817,485 813,475 806,467 796,462 781,453 759,449 729,449 722,449 711,450 697,452 664,457 636,459 614,459 558,459 506,441 458,404 410,367 375,319 355,259 331,189 331,135 355,96 379,57 420,37 479,37 526,37 569,51 609,80 632,97 662,131 700,184 724,219 742,240 752,248 781,269 807,280 831,280 859,280 880,270 892,251 905,232 907,208 897,179 881,133 840,91 775,52 679,-3 572,-31 453,-31 328,-31 241,-3 192,52 143,107 130,169 153,236 170,284 203,330 254,373 305,416 384,456 491,491 Z " transform="translate(14068,14212) scale(0.241,-0.241)" fill="rgb(0,0,0)" stroke="none"/></g><g class="OutlinedText"><path d="M 1360,916 L 1311,771 1069,771 C 994,618 932,472 885,332 861,263 857,214 871,185 885,155 910,140 946,140 974,140 1003,150 1031,170 1059,190 1082,219 1101,257 L 1136,257 C 1089,152 1039,77 985,34 931,-9 880,-31 831,-31 779,-31 744,-7 726,40 707,87 720,176 764,305 791,386 857,542 960,771 L 700,771 C 561,422 461,201 400,108 339,15 283,-31 231,-31 207,-31 190,-23 180,-7 170,9 169,29 177,53 183,70 191,85 200,98 214,115 237,140 272,171 331,225 379,282 415,341 478,442 545,586 617,771 L 571,771 C 522,771 483,763 454,747 407,723 358,683 307,627 L 268,627 C 345,742 415,822 480,866 530,899 589,916 657,916 L 1360,916 Z " transform="translate(13560,14212) scale(0.241,-0.241)" fill="rgb(0,0,0)" stroke="none"/></g><g class="OutlinedText"><path d="M 1059,533 C 932,532 833,556 762,606 691,656 644,731 622,831 600,931 604,1023 633,1108 663,1197 721,1271 806,1332 892,1392 987,1422 1091,1422 1172,1422 1237,1399 1287,1353 1337,1306 1365,1232 1372,1130 1379,1027 1348,874 1278,670 1325,661 1354,642 1364,614 1379,571 1372,510 1345,429 1342,420 1337,408 1331,391 L 1293,391 C 1309,446 1312,483 1301,502 1290,521 1264,531 1222,533 1185,436 1153,364 1125,317 1071,227 1014,154 951,98 904,56 850,24 790,2 730,-20 661,-31 585,-31 491,-31 422,-15 377,16 332,47 307,87 301,138 297,169 307,222 329,299 352,375 360,423 352,444 344,465 328,475 303,475 291,475 273,472 249,465 L 247,498 C 303,517 349,526 387,526 427,526 456,518 474,502 498,481 511,452 513,415 515,387 504,335 482,259 459,182 459,126 481,91 503,55 543,37 602,37 655,37 709,52 763,83 817,113 867,159 913,220 958,281 1007,385 1059,533 Z M 1111,671 C 1122,702 1130,725 1135,740 1178,865 1207,980 1222,1085 1237,1190 1231,1261 1202,1299 1174,1337 1132,1356 1078,1356 1014,1356 954,1332 899,1285 844,1237 797,1156 758,1043 714,911 708,815 741,755 774,694 842,664 945,664 978,664 1033,666 1111,671 Z " transform="translate(10384,14149) scale(0.241,-0.241)" fill="rgb(0,0,0)" stroke="none"/></g><g class="OutlinedText"><path d="M 491,491 C 422,520 380,552 365,585 349,618 350,658 365,704 386,766 430,818 496,859 586,916 688,944 804,944 872,944 931,936 981,920 1030,904 1060,883 1071,858 1082,832 1083,808 1076,785 1069,764 1054,746 1031,729 1007,712 985,703 962,703 925,703 903,727 895,775 887,822 876,851 864,862 844,879 815,888 777,888 717,888 663,871 616,836 569,801 535,753 515,693 495,634 494,589 513,558 531,527 566,511 618,511 635,511 654,512 676,515 710,520 737,522 755,522 784,522 802,518 810,511 818,504 820,495 817,485 813,475 806,467 796,462 781,453 759,449 729,449 722,449 711,450 697,452 664,457 636,459 614,459 558,459 506,441 458,404 410,367 375,319 355,259 331,189 331,135 355,96 379,57 420,37 479,37 526,37 569,51 609,80 632,97 662,131 700,184 724,219 742,240 752,248 781,269 807,280 831,280 859,280 880,270 892,251 905,232 907,208 897,179 881,133 840,91 775,52 679,-3 572,-31 453,-31 328,-31 241,-3 192,52 143,107 130,169 153,236 170,284 203,330 254,373 305,416 384,456 491,491 Z " transform="translate(7906,14212) scale(0.241,-0.241)" fill="rgb(0,0,0)" stroke="none"/></g><g class="OutlinedText"><path d="M 1360,916 L 1311,771 1069,771 C 994,618 932,472 885,332 861,263 857,214 871,185 885,155 910,140 946,140 974,140 1003,150 1031,170 1059,190 1082,219 1101,257 L 1136,257 C 1089,152 1039,77 985,34 931,-9 880,-31 831,-31 779,-31 744,-7 726,40 707,87 720,176 764,305 791,386 857,542 960,771 L 700,771 C 561,422 461,201 400,108 339,15 283,-31 231,-31 207,-31 190,-23 180,-7 170,9 169,29 177,53 183,70 191,85 200,98 214,115 237,140 272,171 331,225 379,282 415,341 478,442 545,586 617,771 L 571,771 C 522,771 483,763 454,747 407,723 358,683 307,627 L 268,627 C 345,742 415,822 480,866 530,899 589,916 657,916 L 1360,916 Z " transform="translate(7399,14212) scale(0.241,-0.241)" fill="rgb(0,0,0)" stroke="none"/></g><text class="SVGTextShape"><tspan class="TextParagraph"><tspan class="TextPosition" x="15066" y="14212"><tspan font-family="Times New Roman, serif" font-size="494px" font-style="italic" font-weight="400" lengthAdjust="spacingAndGlyphs" textLength="216" fill="rgb(0,0,0)" stroke="none" style="white-space: pre">v</tspan></tspan></tspan></text>
        <text class="SVGTextShape"><tspan class="TextParagraph"><tspan class="TextPosition" x="14528" y="14212"><tspan font-family="Times New Roman, serif" font-size="494px" font-style="italic" font-weight="400" lengthAdjust="spacingAndGlyphs" textLength="352" fill="rgb(0,0,0)" stroke="none" style="white-space: pre">m</tspan></tspan></tspan></text>
        <text class="SVGTextShape"><tspan class="TextParagraph"><tspan class="TextPosition" x="14231" y="13520"><tspan font-family="Times New Roman, serif" font-size="494px" font-style="italic" font-weight="400" lengthAdjust="spacingAndGlyphs" textLength="352" fill="rgb(0,0,0)" stroke="none" style="white-space: pre">Q</tspan></tspan></tspan></text>
        <text class="SVGTextShape"><tspan class="TextParagraph"><tspan class="TextPosition" x="13801" y="13520"><tspan font-family="Times New Roman, serif" font-size="494px" font-style="italic" font-weight="400" lengthAdjust="spacingAndGlyphs" textLength="243" fill="rgb(0,0,0)" stroke="none" style="white-space: pre">q</tspan></tspan></tspan></text>
        <text class="SVGTextShape"><tspan class="TextParagraph"><tspan class="TextPosition" x="12574" y="13828"><tspan font-family="Times New Roman, serif" font-size="494px" font-style="italic" font-weight="400" lengthAdjust="spacingAndGlyphs" textLength="433" fill="rgb(0,0,0)" stroke="none" style="white-space: pre">sn</tspan></tspan></tspan></text>
        <text class="SVGTextShape"><tspan class="TextParagraph"><tspan class="TextPosition" x="10851" y="13828"><tspan font-family="Times New Roman, serif" font-size="494px" font-style="italic" font-weight="400" lengthAdjust="spacingAndGlyphs" textLength="243" fill="rgb(0,0,0)" stroke="none" style="white-space: pre">d</tspan></tspan></tspan></text>
        <text class="SVGTextShape"><tspan class="TextParagraph"><tspan class="TextPosition" x="8905" y="14212"><tspan font-family="Times New Roman, serif" font-size="494px" font-style="italic" font-weight="400" lengthAdjust="spacingAndGlyphs" textLength="216" fill="rgb(0,0,0)" stroke="none" style="white-space: pre">v</tspan></tspan></tspan></text>
        <text class="SVGTextShape"><tspan class="TextParagraph"><tspan class="TextPosition" x="8367" y="14212"><tspan font-family="Times New Roman, serif" font-size="494px" font-style="italic" font-weight="400" lengthAdjust="spacingAndGlyphs" textLength="352" fill="rgb(0,0,0)" stroke="none" style="white-space: pre">m</tspan></tspan></tspan></text>
        <text class="SVGTextShape"><tspan class="TextParagraph"><tspan class="TextPosition" x="8069" y="13520"><tspan font-family="Times New Roman, serif" font-size="494px" font-style="italic" font-weight="400" lengthAdjust="spacingAndGlyphs" textLength="352" fill="rgb(0,0,0)" stroke="none" style="white-space: pre">Q</tspan></tspan></tspan></text>
        <text class="SVGTextShape"><tspan class="TextParagraph"><tspan class="TextPosition" x="7639" y="13520"><tspan font-family="Times New Roman, serif" font-size="494px" font-style="italic" font-weight="400" lengthAdjust="spacingAndGlyphs" textLength="243" fill="rgb(0,0,0)" stroke="none" style="white-space: pre">q</tspan></tspan></tspan></text>
        <text class="SVGTextShape"><tspan class="TextParagraph"><tspan class="TextPosition" x="6412" y="13828"><tspan font-family="Times New Roman, serif" font-size="494px" font-style="italic" font-weight="400" lengthAdjust="spacingAndGlyphs" textLength="433" fill="rgb(0,0,0)" stroke="none" style="white-space: pre">sn</tspan></tspan></tspan></text>
        <text class="SVGTextShape"><tspan class="TextParagraph"><tspan class="TextPosition" x="5688" y="14212"><tspan font-family="Times New Roman, serif" font-size="494px" font-style="italic" font-weight="400" lengthAdjust="spacingAndGlyphs" textLength="243" fill="rgb(0,0,0)" stroke="none" style="white-space: pre">d</tspan></tspan></tspan></text>
        <text class="SVGTextShape"><tspan class="TextParagraph"><tspan class="TextPosition" x="4967" y="14212"><tspan font-family="Times New Roman, serif" font-size="494px" font-style="italic" font-weight="400" lengthAdjust="spacingAndGlyphs" textLength="135" fill="rgb(0,0,0)" stroke="none" style="white-space: pre">t</tspan></tspan></tspan></text>
        <text class="SVGTextShape"><tspan class="TextParagraph"><tspan class="TextPosition" x="4720" y="13520"><tspan font-family="Times New Roman, serif" font-size="494px" font-style="italic" font-weight="400" lengthAdjust="spacingAndGlyphs" textLength="325" fill="rgb(0,0,0)" stroke="none" style="white-space: pre">N</tspan></tspan></tspan></text>
        <g class="OutlinedText"><path d="M 37,759 L 1087,759 1087,662 37,662 37,759 Z M 37,386 L 1087,386 1087,287 37,287 37,386 Z " transform="translate(11585,13828) scale(0.241,-0.241)" fill="rgb(0,0,0)" stroke="none"/></g><g class="OutlinedText"><path d="M 1517,0 L 950,0 974,279 C 1068,318 1137,374 1182,447 1226,520 1248,622 1248,753 1248,934 1204,1074 1116,1171 1027,1268 916,1316 782,1316 653,1316 543,1267 454,1169 365,1070 320,936 320,767 320,634 343,527 389,448 434,369 503,312 595,279 L 620,0 56,0 56,279 91,279 C 93,238 104,211 123,196 153,173 199,161 260,161 L 530,161 530,231 C 390,272 282,341 206,440 129,539 91,655 91,789 91,957 153,1099 278,1214 402,1329 570,1387 782,1387 912,1387 1032,1363 1141,1314 1250,1265 1334,1193 1393,1099 1452,1005 1481,902 1481,789 1481,651 1441,531 1360,429 1279,326 1173,260 1042,231 L 1034,161 1309,161 C 1370,161 1413,170 1437,189 1461,208 1475,238 1479,279 L 1517,279 1517,0 Z " transform="translate(11098,13828) scale(0.241,-0.241)" fill="rgb(0,0,0)" stroke="none"/></g><g class="OutlinedText"><path d="M 1517,0 L 950,0 974,279 C 1068,318 1137,374 1182,447 1226,520 1248,622 1248,753 1248,934 1204,1074 1116,1171 1027,1268 916,1316 782,1316 653,1316 543,1267 454,1169 365,1070 320,936 320,767 320,634 343,527 389,448 434,369 503,312 595,279 L 620,0 56,0 56,279 91,279 C 93,238 104,211 123,196 153,173 199,161 260,161 L 530,161 530,231 C 390,272 282,341 206,440 129,539 91,655 91,789 91,957 153,1099 278,1214 402,1329 570,1387 782,1387 912,1387 1032,1363 1141,1314 1250,1265 1334,1193 1393,1099 1452,1005 1481,902 1481,789 1481,651 1441,531 1360,429 1279,326 1173,260 1042,231 L 1034,161 1309,161 C 1370,161 1413,170 1437,189 1461,208 1475,238 1479,279 L 1517,279 1517,0 Z " transform="translate(5935,14212) scale(0.241,-0.241)" fill="rgb(0,0,0)" stroke="none"/></g><g class="OutlinedText"><path d="M 37,759 L 1087,759 1087,662 37,662 37,759 Z M 37,386 L 1087,386 1087,287 37,287 37,386 Z " transform="translate(5274,13828) scale(0.241,-0.241)" fill="rgb(0,0,0)" stroke="none"/></g><g class="OutlinedText"><path d="M 1226,0 L 26,0 654,1387 1226,0 Z M 990,82 L 591,1049 151,82 990,82 Z " transform="translate(4666,14212) scale(0.241,-0.241)" fill="rgb(0,0,0)" stroke="none"/></g></g>
      </g>
     </g>
    </g>
   </g>
  </g>
 </g>
</svg>