<?xml version='1.0' encoding='UTF-8'?>
<!DOCTYPE svg PUBLIC "-//W3C//DTD SVG 1.1//EN" "http://www.w3.org/Graphics/SVG/1.1/DTD/svg11.dtd">
<svg xmlns="http://www.w3.org/2000/svg" xmlns:ooo="http://xml.openoffice.org/svg/export" xmlns:xlink="http://www.w3.org/1999/xlink" xmlns:presentation="http://sun.com/xmlns/staroffice/presentation" xmlns:smil="http://www.w3.org/2001/SMIL20/" xmlns:anim="urn:oasis:names:tc:opendocument:xmlns:animation:1.0" xmlns:svg="urn:oasis:names:tc:opendocument:xmlns:svg-compatible:1.0" version="1.2" width="144.640mm" height="45.510mm" viewBox="3563 11694 14464 4551" preserveAspectRatio="xMidYMid" fill-rule="evenodd" stroke-width="28.222" stroke-linejoin="round" xml:space="preserve">
 <defs class="ClipPathGroup">
  <clipPath id="presentation_clip_path" clipPathUnits="userSpaceOnUse">
   <rect x="0" y="0" width="21590" height="27940"/>
  </clipPath>
  <clipPath id="presentation_clip_path_shrink" clipPathUnits="userSpaceOnUse">
   <rect x="21" y="27" width="21547" height="27885"/>
  </clipPath>
 </defs>
 <defs>
  </defs>
 <defs>
  </defs>
 <defs>
  </defs>
 <defs>
  </defs>
 <defs>
  </defs>
 <defs class="TextShapeIndex">
  <g ooo:slide="id1" ooo:id-list="id3"/>
 </defs>
 <defs class="EmbeddedBulletChars">
  <g id="bullet-char-template-57356" transform="scale(0.00048828125,-0.00048828125)">
   <path d="M 580,1141 L 1163,571 580,0 -4,571 580,1141 Z"/>
  </g>
  <g id="bullet-char-template-57354" transform="scale(0.00048828125,-0.00048828125)">
   <path d="M 8,1128 L 1137,1128 1137,0 8,0 8,1128 Z"/>
  </g>
  <g id="bullet-char-template-10146" transform="scale(0.00048828125,-0.00048828125)">
   <path d="M 174,0 L 602,739 174,1481 1456,739 174,0 Z M 1358,739 L 309,1346 659,739 1358,739 Z"/>
  </g>
  <g id="bullet-char-template-10132" transform="scale(0.00048828125,-0.00048828125)">
   <path d="M 2015,739 L 1276,0 717,0 1260,543 174,543 174,936 1260,936 717,1481 1274,1481 2015,739 Z"/>
  </g>
  <g id="bullet-char-template-10007" transform="scale(0.00048828125,-0.00048828125)">
   <path d="M 0,-2 C -7,14 -16,27 -25,37 L 356,567 C 262,823 215,952 215,954 215,979 228,992 255,992 264,992 276,990 289,987 310,991 331,999 354,1012 L 381,999 492,748 772,1049 836,1024 860,1049 C 881,1039 901,1025 922,1006 886,937 835,863 770,784 769,783 710,716 594,584 L 774,223 C 774,196 753,168 711,139 L 727,119 C 717,90 699,76 672,76 641,76 570,178 457,381 L 164,-76 C 142,-110 111,-127 72,-127 30,-127 9,-110 8,-76 1,-67 -2,-52 -2,-32 -2,-23 -1,-13 0,-2 Z"/>
  </g>
  <g id="bullet-char-template-10004" transform="scale(0.00048828125,-0.00048828125)">
   <path d="M 285,-33 C 182,-33 111,30 74,156 52,228 41,333 41,471 41,549 55,616 82,672 116,743 169,778 240,778 293,778 328,747 346,684 L 369,508 C 377,444 397,411 428,410 L 1163,1116 C 1174,1127 1196,1133 1229,1133 1271,1133 1292,1118 1292,1087 L 1292,965 C 1292,929 1282,901 1262,881 L 442,47 C 390,-6 338,-33 285,-33 Z"/>
  </g>
  <g id="bullet-char-template-9679" transform="scale(0.00048828125,-0.00048828125)">
   <path d="M 813,0 C 632,0 489,54 383,161 276,268 223,411 223,592 223,773 276,916 383,1023 489,1130 632,1184 813,1184 992,1184 1136,1130 1245,1023 1353,916 1407,772 1407,592 1407,412 1353,268 1245,161 1136,54 992,0 813,0 Z"/>
  </g>
  <g id="bullet-char-template-8226" transform="scale(0.00048828125,-0.00048828125)">
   <path d="M 346,457 C 273,457 209,483 155,535 101,586 74,649 74,723 74,796 101,859 155,911 209,963 273,989 346,989 419,989 480,963 531,910 582,859 608,796 608,723 608,648 583,586 532,535 482,483 420,457 346,457 Z"/>
  </g>
  <g id="bullet-char-template-8211" transform="scale(0.00048828125,-0.00048828125)">
   <path d="M -4,459 L 1135,459 1135,606 -4,606 -4,459 Z"/>
  </g>
  <g id="bullet-char-template-61548" transform="scale(0.00048828125,-0.00048828125)">
   <path d="M 173,740 C 173,903 231,1043 346,1159 462,1274 601,1332 765,1332 928,1332 1067,1274 1183,1159 1299,1043 1357,903 1357,740 1357,577 1299,437 1183,322 1067,206 928,148 765,148 601,148 462,206 346,322 231,437 173,577 173,740 Z"/>
  </g>
 </defs>
 <g>
  <g id="id2" class="Master_Slide">
   <g id="bg-id2" class="Background"/>
   <g id="bo-id2" class="BackgroundObjects"/>
  </g>
 </g>
 <g class="SlideGroup">
  <g>
   <g id="container-id1">
    <g id="id1" class="Slide" clip-path="url(#presentation_clip_path)">
     <g class="Page">
      <g class="Graphic">
       <g id="id3">
        <rect class="BoundingBox" stroke="none" fill="none" x="3563" y="11694" width="14464" height="4551"/>
        <path fill="none" stroke="rgb(0,0,0)" stroke-width="18" stroke-linejoin="round" stroke-linecap="round" d="M 4544,13019 L 4947,13019 "/>
        <path fill="none" stroke="rgb(0,0,0)" stroke-width="18" stroke-linejoin="round" stroke-linecap="round" d="M 6983,13019 L 7385,13019 "/>
        <path fill="none" stroke="rgb(0,0,0)" stroke-width="18" stroke-linejoin="round" stroke-linecap="round" d="M 8075,13019 L 9905,13019 "/>
        <path fill="none" stroke="rgb(0,0,0)" stroke-width="9" stroke-linejoin="round" stroke-linecap="round" d="M 10946,13649 L 11287,13649 "/>
        <path fill="none" stroke="rgb(0,0,0)" stroke-width="18" stroke-linejoin="round" stroke-linecap="round" d="M 9985,13019 L 11322,13019 "/>
        <path fill="none" stroke="rgb(0,0,0)" stroke-width="18" stroke-linejoin="round" stroke-linecap="round" d="M 11401,13019 L 12030,13019 "/>
        <path fill="none" stroke="rgb(0,0,0)" stroke-width="18" stroke-linejoin="round" stroke-linecap="round" d="M 13098,13019 L 14928,13019 "/>
        <path fill="none" stroke="rgb(0,0,0)" stroke-width="9" stroke-linejoin="round" stroke-linecap="round" d="M 15969,13649 L 16309,13649 "/>
        <path fill="none" stroke="rgb(0,0,0)" stroke-width="18" stroke-linejoin="round" stroke-linecap="round" d="M 15007,13019 L 16345,13019 "/>
        <path fill="none" stroke="rgb(0,0,0)" stroke-width="18" stroke-linejoin="round" stroke-linecap="round" d="M 16424,13019 L 17052,13019 "/>
        <path fill="none" stroke="rgb(0,0,0)" stroke-width="18" stroke-linejoin="round" stroke-linecap="round" d="M 4013,15033 L 6359,15033 "/>
        <path fill="none" stroke="rgb(0,0,0)" stroke-width="9" stroke-linejoin="round" stroke-linecap="round" d="M 7399,15663 L 7740,15663 "/>
        <path fill="none" stroke="rgb(0,0,0)" stroke-width="18" stroke-linejoin="round" stroke-linecap="round" d="M 6438,15033 L 7775,15033 "/>
        <path fill="none" stroke="rgb(0,0,0)" stroke-width="18" stroke-linejoin="round" stroke-linecap="round" d="M 7855,15033 L 8332,15033 "/>
        <text class="SVGTextShape"><tspan class="TextParagraph"><tspan class="TextPosition" x="8133" y="15319"><tspan font-family="Times New Roman, serif" font-size="247px" font-weight="400" lengthAdjust="spacingAndGlyphs" textLength="127" fill="rgb(0,0,0)" stroke="none" style="white-space: pre">2</tspan></tspan></tspan></text>
        <text class="SVGTextShape"><tspan class="TextParagraph"><tspan class="TextPosition" x="7156" y="15565"><tspan font-family="Times New Roman, serif" font-size="247px" font-weight="400" lengthAdjust="spacingAndGlyphs" textLength="127" fill="rgb(0,0,0)" stroke="none" style="white-space: pre">4</tspan></tspan></tspan></text>
        <text class="SVGTextShape"><tspan class="TextParagraph"><tspan class="TextPosition" x="6167" y="15319"><tspan font-family="Times New Roman, serif" font-size="247px" font-weight="400" lengthAdjust="spacingAndGlyphs" textLength="127" fill="rgb(0,0,0)" stroke="none" style="white-space: pre">3</tspan></tspan></tspan></text>
        <text class="SVGTextShape"><tspan class="TextParagraph"><tspan class="TextPosition" x="5737" y="15319"><tspan font-family="Times New Roman, serif" font-size="247px" font-weight="400" lengthAdjust="spacingAndGlyphs" textLength="127" fill="rgb(0,0,0)" stroke="none" style="white-space: pre">3</tspan></tspan></tspan></text>
        <text class="SVGTextShape"><tspan class="TextParagraph"><tspan class="TextPosition" x="5307" y="15319"><tspan font-family="Times New Roman, serif" font-size="247px" font-weight="400" lengthAdjust="spacingAndGlyphs" textLength="127" fill="rgb(0,0,0)" stroke="none" style="white-space: pre">2</tspan></tspan></tspan></text>
        <text class="SVGTextShape"><tspan class="TextParagraph"><tspan class="TextPosition" x="5267" y="15664"><tspan font-family="Times New Roman, serif" font-size="247px" font-weight="400" lengthAdjust="spacingAndGlyphs" textLength="127" fill="rgb(0,0,0)" stroke="none" style="white-space: pre">0</tspan></tspan></tspan></text>
        <text class="SVGTextShape"><tspan class="TextParagraph"><tspan class="TextPosition" x="4869" y="15319"><tspan font-family="Times New Roman, serif" font-size="247px" font-weight="400" lengthAdjust="spacingAndGlyphs" textLength="127" fill="rgb(0,0,0)" stroke="none" style="white-space: pre">2</tspan></tspan></tspan></text>
        <text class="SVGTextShape"><tspan class="TextParagraph"><tspan class="TextPosition" x="5691" y="14627"><tspan font-family="Times New Roman, serif" font-size="247px" font-weight="400" lengthAdjust="spacingAndGlyphs" textLength="127" fill="rgb(0,0,0)" stroke="none" style="white-space: pre">2</tspan></tspan></tspan></text>
        <text class="SVGTextShape"><tspan class="TextParagraph"><tspan class="TextPosition" x="5153" y="14627"><tspan font-family="Times New Roman, serif" font-size="247px" font-weight="400" lengthAdjust="spacingAndGlyphs" textLength="127" fill="rgb(0,0,0)" stroke="none" style="white-space: pre">2</tspan></tspan></tspan></text>
        <text class="SVGTextShape"><tspan class="TextParagraph"><tspan class="TextPosition" x="15725" y="13551"><tspan font-family="Times New Roman, serif" font-size="247px" font-weight="400" lengthAdjust="spacingAndGlyphs" textLength="127" fill="rgb(0,0,0)" stroke="none" style="white-space: pre">2</tspan></tspan></tspan></text>
        <text class="SVGTextShape"><tspan class="TextParagraph"><tspan class="TextPosition" x="14729" y="13305"><tspan font-family="Times New Roman, serif" font-size="247px" font-weight="400" lengthAdjust="spacingAndGlyphs" textLength="127" fill="rgb(0,0,0)" stroke="none" style="white-space: pre">2</tspan></tspan></tspan></text>
        <text class="SVGTextShape"><tspan class="TextParagraph"><tspan class="TextPosition" x="14283" y="13305"><tspan font-family="Times New Roman, serif" font-size="247px" font-weight="400" lengthAdjust="spacingAndGlyphs" textLength="127" fill="rgb(0,0,0)" stroke="none" style="white-space: pre">2</tspan></tspan></tspan></text>
        <text class="SVGTextShape"><tspan class="TextParagraph"><tspan class="TextPosition" x="13845" y="13650"><tspan font-family="Times New Roman, serif" font-size="247px" font-weight="400" lengthAdjust="spacingAndGlyphs" textLength="127" fill="rgb(0,0,0)" stroke="none" style="white-space: pre">0</tspan></tspan></tspan></text>
        <text class="SVGTextShape"><tspan class="TextParagraph"><tspan class="TextPosition" x="12295" y="11957"><tspan font-family="Times New Roman, serif" font-size="247px" font-weight="400" lengthAdjust="spacingAndGlyphs" textLength="127" fill="rgb(0,0,0)" stroke="none" style="white-space: pre">*</tspan></tspan></tspan></text>
        <text class="SVGTextShape"><tspan class="TextParagraph"><tspan class="TextPosition" x="10702" y="13551"><tspan font-family="Times New Roman, serif" font-size="247px" font-weight="400" lengthAdjust="spacingAndGlyphs" textLength="127" fill="rgb(0,0,0)" stroke="none" style="white-space: pre">2</tspan></tspan></tspan></text>
        <text class="SVGTextShape"><tspan class="TextParagraph"><tspan class="TextPosition" x="9706" y="13305"><tspan font-family="Times New Roman, serif" font-size="247px" font-weight="400" lengthAdjust="spacingAndGlyphs" textLength="127" fill="rgb(0,0,0)" stroke="none" style="white-space: pre">2</tspan></tspan></tspan></text>
        <text class="SVGTextShape"><tspan class="TextParagraph"><tspan class="TextPosition" x="9260" y="13305"><tspan font-family="Times New Roman, serif" font-size="247px" font-weight="400" lengthAdjust="spacingAndGlyphs" textLength="127" fill="rgb(0,0,0)" stroke="none" style="white-space: pre">2</tspan></tspan></tspan></text>
        <text class="SVGTextShape"><tspan class="TextParagraph"><tspan class="TextPosition" x="8823" y="13650"><tspan font-family="Times New Roman, serif" font-size="247px" font-weight="400" lengthAdjust="spacingAndGlyphs" textLength="127" fill="rgb(0,0,0)" stroke="none" style="white-space: pre">0</tspan></tspan></tspan></text>
        <text class="SVGTextShape"><tspan class="TextParagraph"><tspan class="TextPosition" x="5377" y="12921"><tspan font-family="Times New Roman, serif" font-size="247px" font-weight="400" lengthAdjust="spacingAndGlyphs" textLength="127" fill="rgb(0,0,0)" stroke="none" style="white-space: pre">*</tspan></tspan></tspan></text>
        <text class="SVGTextShape"><tspan class="TextParagraph"><tspan class="TextPosition" x="7969" y="14848"><tspan font-family="Times New Roman, serif" font-size="494px" font-weight="400" lengthAdjust="spacingAndGlyphs" textLength="243" fill="rgb(0,0,0)" stroke="none" style="white-space: pre">1</tspan></tspan></tspan></text>
        <text class="SVGTextShape"><tspan class="TextParagraph"><tspan class="TextPosition" x="7454" y="16170"><tspan font-family="Times New Roman, serif" font-size="494px" font-weight="400" lengthAdjust="spacingAndGlyphs" textLength="243" fill="rgb(0,0,0)" stroke="none" style="white-space: pre">2</tspan></tspan></tspan></text>
        <text class="SVGTextShape"><tspan class="TextParagraph"><tspan class="TextPosition" x="6450" y="15786"><tspan font-family="Times New Roman, serif" font-size="494px" font-weight="400" lengthAdjust="spacingAndGlyphs" textLength="649" fill="rgb(0,0,0)" stroke="none" style="white-space: pre">sen</tspan></tspan></tspan></text>
        <text class="SVGTextShape"><tspan class="TextParagraph"><tspan class="TextPosition" x="6983" y="14848"><tspan font-family="Times New Roman, serif" font-size="494px" font-weight="400" lengthAdjust="spacingAndGlyphs" textLength="243" fill="rgb(0,0,0)" stroke="none" style="white-space: pre">1</tspan></tspan></tspan></text>
        <text class="SVGTextShape"><tspan class="TextParagraph"><tspan class="TextPosition" x="4033" y="15541"><tspan font-family="Times New Roman, serif" font-size="494px" font-weight="400" lengthAdjust="spacingAndGlyphs" textLength="487" fill="rgb(0,0,0)" stroke="none" style="white-space: pre">64</tspan></tspan></tspan></text>
        <text class="SVGTextShape"><tspan class="TextParagraph"><tspan class="TextPosition" x="16023" y="14156"><tspan font-family="Times New Roman, serif" font-size="494px" font-weight="400" lengthAdjust="spacingAndGlyphs" textLength="243" fill="rgb(0,0,0)" stroke="none" style="white-space: pre">2</tspan></tspan></tspan></text>
        <text class="SVGTextShape"><tspan class="TextParagraph"><tspan class="TextPosition" x="15020" y="13772"><tspan font-family="Times New Roman, serif" font-size="494px" font-weight="400" lengthAdjust="spacingAndGlyphs" textLength="649" fill="rgb(0,0,0)" stroke="none" style="white-space: pre">sen</tspan></tspan></tspan></text>
        <text class="SVGTextShape"><tspan class="TextParagraph"><tspan class="TextPosition" x="15552" y="12834"><tspan font-family="Times New Roman, serif" font-size="494px" font-weight="400" lengthAdjust="spacingAndGlyphs" textLength="243" fill="rgb(0,0,0)" stroke="none" style="white-space: pre">1</tspan></tspan></tspan></text>
        <text class="SVGTextShape"><tspan class="TextParagraph"><tspan class="TextPosition" x="13102" y="13526"><tspan font-family="Times New Roman, serif" font-size="494px" font-weight="400" lengthAdjust="spacingAndGlyphs" textLength="243" fill="rgb(0,0,0)" stroke="none" style="white-space: pre">8</tspan></tspan></tspan></text>
        <text class="SVGTextShape"><tspan class="TextParagraph"><tspan class="TextPosition" x="11000" y="14156"><tspan font-family="Times New Roman, serif" font-size="494px" font-weight="400" lengthAdjust="spacingAndGlyphs" textLength="243" fill="rgb(0,0,0)" stroke="none" style="white-space: pre">2</tspan></tspan></tspan></text>
        <text class="SVGTextShape"><tspan class="TextParagraph"><tspan class="TextPosition" x="9997" y="13772"><tspan font-family="Times New Roman, serif" font-size="494px" font-weight="400" lengthAdjust="spacingAndGlyphs" textLength="649" fill="rgb(0,0,0)" stroke="none" style="white-space: pre">sen</tspan></tspan></tspan></text>
        <text class="SVGTextShape"><tspan class="TextParagraph"><tspan class="TextPosition" x="10529" y="12834"><tspan font-family="Times New Roman, serif" font-size="494px" font-weight="400" lengthAdjust="spacingAndGlyphs" textLength="243" fill="rgb(0,0,0)" stroke="none" style="white-space: pre">1</tspan></tspan></tspan></text>
        <text class="SVGTextShape"><tspan class="TextParagraph"><tspan class="TextPosition" x="8080" y="13526"><tspan font-family="Times New Roman, serif" font-size="494px" font-weight="400" lengthAdjust="spacingAndGlyphs" textLength="243" fill="rgb(0,0,0)" stroke="none" style="white-space: pre">8</tspan></tspan></tspan></text>
        <text class="SVGTextShape"><tspan class="TextParagraph"><tspan class="TextPosition" x="7882" y="15541"><tspan font-family="Times New Roman, serif" font-size="494px" font-style="italic" font-weight="400" lengthAdjust="spacingAndGlyphs" textLength="189" fill="rgb(0,0,0)" stroke="none" style="white-space: pre">r</tspan></tspan></tspan></text>
        <text class="SVGTextShape"><tspan class="TextParagraph"><tspan class="TextPosition" x="5886" y="15541"><tspan font-family="Times New Roman, serif" font-size="494px" font-style="italic" font-weight="400" lengthAdjust="spacingAndGlyphs" textLength="216" fill="rgb(0,0,0)" stroke="none" style="white-space: pre">k</tspan></tspan></tspan></text>
        <text class="SVGTextShape"><tspan class="TextParagraph"><tspan class="TextPosition" x="5294" y="14848"><tspan font-family="Times New Roman, serif" font-size="494px" font-style="italic" font-weight="400" lengthAdjust="spacingAndGlyphs" textLength="352" fill="rgb(0,0,0)" stroke="none" style="white-space: pre">Q</tspan></tspan></tspan></text>
        <text class="SVGTextShape"><tspan class="TextParagraph"><tspan class="TextPosition" x="4509" y="14848"><tspan font-family="Times New Roman, serif" font-size="494px" font-style="italic" font-weight="400" lengthAdjust="spacingAndGlyphs" textLength="595" fill="rgb(0,0,0)" stroke="none" style="white-space: pre">mq</tspan></tspan></tspan></text>
        <text class="SVGTextShape"><tspan class="TextParagraph"><tspan class="TextPosition" x="17315" y="13143"><tspan font-family="Times New Roman, serif" font-size="494px" font-style="italic" font-weight="400" lengthAdjust="spacingAndGlyphs" textLength="216" fill="rgb(0,0,0)" stroke="none" style="white-space: pre">k</tspan></tspan></tspan></text>
        <text class="SVGTextShape"><tspan class="TextParagraph"><tspan class="TextPosition" x="16635" y="13526"><tspan font-family="Times New Roman, serif" font-size="494px" font-style="italic" font-weight="400" lengthAdjust="spacingAndGlyphs" textLength="189" fill="rgb(0,0,0)" stroke="none" style="white-space: pre">r</tspan></tspan></tspan></text>
        <text class="SVGTextShape"><tspan class="TextParagraph"><tspan class="TextPosition" x="16444" y="12834"><tspan font-family="Times New Roman, serif" font-size="494px" font-style="italic" font-weight="400" lengthAdjust="spacingAndGlyphs" textLength="216" fill="rgb(0,0,0)" stroke="none" style="white-space: pre">e</tspan></tspan></tspan></text>
        <text class="SVGTextShape"><tspan class="TextParagraph"><tspan class="TextPosition" x="14440" y="13526"><tspan font-family="Times New Roman, serif" font-size="494px" font-style="italic" font-weight="400" lengthAdjust="spacingAndGlyphs" textLength="216" fill="rgb(0,0,0)" stroke="none" style="white-space: pre">k</tspan></tspan></tspan></text>
        <text class="SVGTextShape"><tspan class="TextParagraph"><tspan class="TextPosition" x="13535" y="12834"><tspan font-family="Times New Roman, serif" font-size="494px" font-style="italic" font-weight="400" lengthAdjust="spacingAndGlyphs" textLength="947" fill="rgb(0,0,0)" stroke="none" style="white-space: pre">mqQ</tspan></tspan></tspan></text>
        <text class="SVGTextShape"><tspan class="TextParagraph"><tspan class="TextPosition" x="11612" y="13526"><tspan font-family="Times New Roman, serif" font-size="494px" font-style="italic" font-weight="400" lengthAdjust="spacingAndGlyphs" textLength="189" fill="rgb(0,0,0)" stroke="none" style="white-space: pre">r</tspan></tspan></tspan></text>
        <text class="SVGTextShape"><tspan class="TextParagraph"><tspan class="TextPosition" x="11421" y="12834"><tspan font-family="Times New Roman, serif" font-size="494px" font-style="italic" font-weight="400" lengthAdjust="spacingAndGlyphs" textLength="216" fill="rgb(0,0,0)" stroke="none" style="white-space: pre">e</tspan></tspan></tspan></text>
        <text class="SVGTextShape"><tspan class="TextParagraph"><tspan class="TextPosition" x="9417" y="13526"><tspan font-family="Times New Roman, serif" font-size="494px" font-style="italic" font-weight="400" lengthAdjust="spacingAndGlyphs" textLength="216" fill="rgb(0,0,0)" stroke="none" style="white-space: pre">k</tspan></tspan></tspan></text>
        <text class="SVGTextShape"><tspan class="TextParagraph"><tspan class="TextPosition" x="8512" y="12834"><tspan font-family="Times New Roman, serif" font-size="494px" font-style="italic" font-weight="400" lengthAdjust="spacingAndGlyphs" textLength="947" fill="rgb(0,0,0)" stroke="none" style="white-space: pre">mqQ</tspan></tspan></tspan></text>
        <text class="SVGTextShape"><tspan class="TextParagraph"><tspan class="TextPosition" x="7010" y="13526"><tspan font-family="Times New Roman, serif" font-size="494px" font-style="italic" font-weight="400" lengthAdjust="spacingAndGlyphs" textLength="352" fill="rgb(0,0,0)" stroke="none" style="white-space: pre">m</tspan></tspan></tspan></text>
        <text class="SVGTextShape"><tspan class="TextParagraph"><tspan class="TextPosition" x="4572" y="13526"><tspan font-family="Times New Roman, serif" font-size="494px" font-style="italic" font-weight="400" lengthAdjust="spacingAndGlyphs" textLength="352" fill="rgb(0,0,0)" stroke="none" style="white-space: pre">m</tspan></tspan></tspan></text>
        <text class="SVGTextShape"><tspan class="TextParagraph"><tspan class="TextPosition" x="3634" y="13143"><tspan font-family="Times New Roman, serif" font-size="494px" font-style="italic" font-weight="400" lengthAdjust="spacingAndGlyphs" textLength="189" fill="rgb(0,0,0)" stroke="none" style="white-space: pre">s</tspan></tspan></tspan></text>
        <text class="SVGTextShape"><tspan class="TextParagraph"><tspan class="TextPosition" x="16686" y="12612"><tspan font-family="Times New Roman, serif" font-size="247px" font-style="italic" font-weight="400" lengthAdjust="spacingAndGlyphs" textLength="282" fill="rgb(0,0,0)" stroke="none" style="white-space: pre">ikr</tspan></tspan></tspan></text>
        <text class="SVGTextShape"><tspan class="TextParagraph"><tspan class="TextPosition" x="11664" y="12612"><tspan font-family="Times New Roman, serif" font-size="247px" font-style="italic" font-weight="400" lengthAdjust="spacingAndGlyphs" textLength="282" fill="rgb(0,0,0)" stroke="none" style="white-space: pre">ikr</tspan></tspan></tspan></text>
        <text class="SVGTextShape"><tspan class="TextParagraph"><tspan class="TextPosition" x="3841" y="13266"><tspan font-family="Times New Roman, serif" font-size="247px" font-style="italic" font-weight="400" lengthAdjust="spacingAndGlyphs" textLength="127" fill="rgb(0,0,0)" stroke="none" style="white-space: pre">d</tspan></tspan></tspan></text>
        <g class="OutlinedText"><path d="M 1059,533 C 932,532 833,556 762,606 691,656 644,731 622,831 600,931 604,1023 633,1108 663,1197 721,1271 806,1332 892,1392 987,1422 1091,1422 1172,1422 1237,1399 1287,1353 1337,1306 1365,1232 1372,1130 1379,1027 1348,874 1278,670 1325,661 1354,642 1364,614 1379,571 1372,510 1345,429 1342,420 1337,408 1331,391 L 1293,391 C 1309,446 1312,483 1301,502 1290,521 1264,531 1222,533 1185,436 1153,364 1125,317 1071,227 1014,154 951,98 904,56 850,24 790,2 730,-20 661,-31 585,-31 491,-31 422,-15 377,16 332,47 307,87 301,138 297,169 307,222 329,299 352,375 360,423 352,444 344,465 328,475 303,475 291,475 273,472 249,465 L 247,498 C 303,517 349,526 387,526 427,526 456,518 474,502 498,481 511,452 513,415 515,387 504,335 482,259 459,182 459,126 481,91 503,55 543,37 602,37 655,37 709,52 763,83 817,113 867,159 913,220 958,281 1007,385 1059,533 Z M 1111,671 C 1122,702 1130,725 1135,740 1178,865 1207,980 1222,1085 1237,1190 1231,1261 1202,1299 1174,1337 1132,1356 1078,1356 1014,1356 954,1332 899,1285 844,1237 797,1156 758,1043 714,911 708,815 741,755 774,694 842,664 945,664 978,664 1033,666 1111,671 Z " transform="translate(7381,15478) scale(0.241,-0.241)" fill="rgb(0,0,0)" stroke="none"/></g><g class="OutlinedText"><path d="M 491,491 C 422,520 380,552 365,585 349,618 350,658 365,704 386,766 430,818 496,859 586,916 688,944 804,944 872,944 931,936 981,920 1030,904 1060,883 1071,858 1082,832 1083,808 1076,785 1069,764 1054,746 1031,729 1007,712 985,703 962,703 925,703 903,727 895,775 887,822 876,851 864,862 844,879 815,888 777,888 717,888 663,871 616,836 569,801 535,753 515,693 495,634 494,589 513,558 531,527 566,511 618,511 635,511 654,512 676,515 710,520 737,522 755,522 784,522 802,518 810,511 818,504 820,495 817,485 813,475 806,467 796,462 781,453 759,449 729,449 722,449 711,450 697,452 664,457 636,459 614,459 558,459 506,441 458,404 410,367 375,319 355,259 331,189 331,135 355,96 379,57 420,37 479,37 526,37 569,51 609,80 632,97 662,131 700,184 724,219 742,240 752,248 781,269 807,280 831,280 859,280 880,270 892,251 905,232 907,208 897,179 881,133 840,91 775,52 679,-3 572,-31 453,-31 328,-31 241,-3 192,52 143,107 130,169 153,236 170,284 203,330 254,373 305,416 384,456 491,491 Z " transform="translate(5003,15541) scale(0.241,-0.241)" fill="rgb(0,0,0)" stroke="none"/></g><g class="OutlinedText"><path d="M 1360,916 L 1311,771 1069,771 C 994,618 932,472 885,332 861,263 857,214 871,185 885,155 910,140 946,140 974,140 1003,150 1031,170 1059,190 1082,219 1101,257 L 1136,257 C 1089,152 1039,77 985,34 931,-9 880,-31 831,-31 779,-31 744,-7 726,40 707,87 720,176 764,305 791,386 857,542 960,771 L 700,771 C 561,422 461,201 400,108 339,15 283,-31 231,-31 207,-31 190,-23 180,-7 170,9 169,29 177,53 183,70 191,85 200,98 214,115 237,140 272,171 331,225 379,282 415,341 478,442 545,586 617,771 L 571,771 C 522,771 483,763 454,747 407,723 358,683 307,627 L 268,627 C 345,742 415,822 480,866 530,899 589,916 657,916 L 1360,916 Z " transform="translate(4496,15541) scale(0.241,-0.241)" fill="rgb(0,0,0)" stroke="none"/></g><g class="OutlinedText"><path d="M 1059,533 C 932,532 833,556 762,606 691,656 644,731 622,831 600,931 604,1023 633,1108 663,1197 721,1271 806,1332 892,1392 987,1422 1091,1422 1172,1422 1237,1399 1287,1353 1337,1306 1365,1232 1372,1130 1379,1027 1348,874 1278,670 1325,661 1354,642 1364,614 1379,571 1372,510 1345,429 1342,420 1337,408 1331,391 L 1293,391 C 1309,446 1312,483 1301,502 1290,521 1264,531 1222,533 1185,436 1153,364 1125,317 1071,227 1014,154 951,98 904,56 850,24 790,2 730,-20 661,-31 585,-31 491,-31 422,-15 377,16 332,47 307,87 301,138 297,169 307,222 329,299 352,375 360,423 352,444 344,465 328,475 303,475 291,475 273,472 249,465 L 247,498 C 303,517 349,526 387,526 427,526 456,518 474,502 498,481 511,452 513,415 515,387 504,335 482,259 459,182 459,126 481,91 503,55 543,37 602,37 655,37 709,52 763,83 817,113 867,159 913,220 958,281 1007,385 1059,533 Z M 1111,671 C 1122,702 1130,725 1135,740 1178,865 1207,980 1222,1085 1237,1190 1231,1261 1202,1299 1174,1337 1132,1356 1078,1356 1014,1356 954,1332 899,1285 844,1237 797,1156 758,1043 714,911 708,815 741,755 774,694 842,664 945,664 978,664 1033,666 1111,671 Z " transform="translate(15950,13463) scale(0.241,-0.241)" fill="rgb(0,0,0)" stroke="none"/></g><g class="OutlinedText"><path d="M 1360,916 L 1311,771 1069,771 C 994,618 932,472 885,332 861,263 857,214 871,185 885,155 910,140 946,140 974,140 1003,150 1031,170 1059,190 1082,219 1101,257 L 1136,257 C 1089,152 1039,77 985,34 931,-9 880,-31 831,-31 779,-31 744,-7 726,40 707,87 720,176 764,305 791,386 857,542 960,771 L 700,771 C 561,422 461,201 400,108 339,15 283,-31 231,-31 207,-31 190,-23 180,-7 170,9 169,29 177,53 183,70 191,85 200,98 214,115 237,140 272,171 331,225 379,282 415,341 478,442 545,586 617,771 L 571,771 C 522,771 483,763 454,747 407,723 358,683 307,627 L 268,627 C 345,742 415,822 480,866 530,899 589,916 657,916 L 1360,916 Z " transform="translate(13311,13526) scale(0.241,-0.241)" fill="rgb(0,0,0)" stroke="none"/><path d="M 491,491 C 422,520 380,552 365,585 349,618 350,658 365,704 386,766 430,818 496,859 586,916 688,944 804,944 872,944 931,936 981,920 1030,904 1060,883 1071,858 1082,832 1083,808 1076,785 1069,764 1054,746 1031,729 1007,712 985,703 962,703 925,703 903,727 895,775 887,822 876,851 864,862 844,879 815,888 777,888 717,888 663,871 616,836 569,801 535,753 515,693 495,634 494,589 513,558 531,527 566,511 618,511 635,511 654,512 676,515 710,520 737,522 755,522 784,522 802,518 810,511 818,504 820,495 817,485 813,475 806,467 796,462 781,453 759,449 729,449 722,449 711,450 697,452 664,457 636,459 614,459 558,459 506,441 458,404 410,367 375,319 355,259 331,189 331,135 355,96 379,57 420,37 479,37 526,37 569,51 609,80 632,97 662,131 700,184 724,219 742,240 752,248 781,269 807,280 831,280 859,280 880,270 892,251 905,232 907,208 897,179 881,133 840,91 775,52 679,-3 572,-31 453,-31 328,-31 241,-3 192,52 143,107 130,169 153,236 170,284 203,330 254,373 305,416 384,456 491,491 Z " transform="translate(13576.64,13526) scale(0.241,-0.241)" fill="rgb(0,0,0)" stroke="none"/></g><g class="OutlinedText"><path d="M 1059,533 C 932,532 833,556 762,606 691,656 644,731 622,831 600,931 604,1023 633,1108 663,1197 721,1271 806,1332 892,1392 987,1422 1091,1422 1172,1422 1237,1399 1287,1353 1337,1306 1365,1232 1372,1130 1379,1027 1348,874 1278,670 1325,661 1354,642 1364,614 1379,571 1372,510 1345,429 1342,420 1337,408 1331,391 L 1293,391 C 1309,446 1312,483 1301,502 1290,521 1264,531 1222,533 1185,436 1153,364 1125,317 1071,227 1014,154 951,98 904,56 850,24 790,2 730,-20 661,-31 585,-31 491,-31 422,-15 377,16 332,47 307,87 301,138 297,169 307,222 329,299 352,375 360,423 352,444 344,465 328,475 303,475 291,475 273,472 249,465 L 247,498 C 303,517 349,526 387,526 427,526 456,518 474,502 498,481 511,452 513,415 515,387 504,335 482,259 459,182 459,126 481,91 503,55 543,37 602,37 655,37 709,52 763,83 817,113 867,159 913,220 958,281 1007,385 1059,533 Z M 1111,671 C 1122,702 1130,725 1135,740 1178,865 1207,980 1222,1085 1237,1190 1231,1261 1202,1299 1174,1337 1132,1356 1078,1356 1014,1356 954,1332 899,1285 844,1237 797,1156 758,1043 714,911 708,815 741,755 774,694 842,664 945,664 978,664 1033,666 1111,671 Z " transform="translate(10927,13463) scale(0.241,-0.241)" fill="rgb(0,0,0)" stroke="none"/></g><g class="OutlinedText"><path d="M 1360,916 L 1311,771 1069,771 C 994,618 932,472 885,332 861,263 857,214 871,185 885,155 910,140 946,140 974,140 1003,150 1031,170 1059,190 1082,219 1101,257 L 1136,257 C 1089,152 1039,77 985,34 931,-9 880,-31 831,-31 779,-31 744,-7 726,40 707,87 720,176 764,305 791,386 857,542 960,771 L 700,771 C 561,422 461,201 400,108 339,15 283,-31 231,-31 207,-31 190,-23 180,-7 170,9 169,29 177,53 183,70 191,85 200,98 214,115 237,140 272,171 331,225 379,282 415,341 478,442 545,586 617,771 L 571,771 C 522,771 483,763 454,747 407,723 358,683 307,627 L 268,627 C 345,742 415,822 480,866 530,899 589,916 657,916 L 1360,916 Z " transform="translate(8288,13526) scale(0.241,-0.241)" fill="rgb(0,0,0)" stroke="none"/><path d="M 491,491 C 422,520 380,552 365,585 349,618 350,658 365,704 386,766 430,818 496,859 586,916 688,944 804,944 872,944 931,936 981,920 1030,904 1060,883 1071,858 1082,832 1083,808 1076,785 1069,764 1054,746 1031,729 1007,712 985,703 962,703 925,703 903,727 895,775 887,822 876,851 864,862 844,879 815,888 777,888 717,888 663,871 616,836 569,801 535,753 515,693 495,634 494,589 513,558 531,527 566,511 618,511 635,511 654,512 676,515 710,520 737,522 755,522 784,522 802,518 810,511 818,504 820,495 817,485 813,475 806,467 796,462 781,453 759,449 729,449 722,449 711,450 697,452 664,457 636,459 614,459 558,459 506,441 458,404 410,367 375,319 355,259 331,189 331,135 355,96 379,57 420,37 479,37 526,37 569,51 609,80 632,97 662,131 700,184 724,219 742,240 752,248 781,269 807,280 831,280 859,280 880,270 892,251 905,232 907,208 897,179 881,133 840,91 775,52 679,-3 572,-31 453,-31 328,-31 241,-3 192,52 143,107 130,169 153,236 170,284 203,330 254,373 305,416 384,456 491,491 Z " transform="translate(8553.64,13526) scale(0.241,-0.241)" fill="rgb(0,0,0)" stroke="none"/></g><g class="OutlinedText"><path d="M 566,28 L 780,660 C 815,762 859,835 913,878 967,921 1028,943 1098,943 1200,943 1275,899 1324,812 1373,724 1376,615 1331,484 1302,397 1251,312 1180,229 1109,146 1032,84 950,45 868,5 770,-19 655,-28 L 515,-442 406,-442 546,-28 C 447,-19 371,5 316,45 261,85 226,146 211,228 196,310 203,395 233,482 258,556 295,625 345,688 395,751 446,801 498,838 550,875 599,901 646,917 693,932 747,941 808,943 L 796,905 C 734,900 669,866 602,803 534,740 477,639 430,500 396,399 382,314 389,243 397,172 418,118 453,83 476,60 514,42 566,28 Z M 675,30 C 745,37 805,53 854,77 923,110 982,157 1033,219 1084,280 1124,354 1153,439 1194,560 1198,660 1164,739 1140,796 1099,825 1042,825 1014,825 986,813 960,788 933,763 906,709 878,628 L 675,30 Z " transform="translate(6147,13143) scale(0.241,-0.241)" fill="rgb(0,0,0)" stroke="none"/></g><g class="OutlinedText"><path d="M 1067,916 L 766,28 C 820,38 868,57 909,84 949,111 992,158 1038,223 1083,288 1142,406 1215,576 1275,717 1330,813 1379,866 1428,918 1490,944 1564,944 1589,944 1625,938 1671,927 L 1660,894 C 1631,894 1608,889 1591,879 1566,864 1542,839 1518,803 1494,767 1460,701 1417,604 1349,448 1289,335 1236,265 1197,214 1148,165 1090,120 1031,74 974,40 920,17 866,-6 808,-21 746,-28 L 606,-442 497,-442 637,-28 C 551,-17 482,15 432,67 381,118 353,184 346,263 341,323 358,437 397,606 420,707 432,775 432,810 433,845 426,868 411,881 402,890 382,894 351,894 L 362,927 C 422,938 462,944 483,944 522,944 555,933 580,911 606,888 620,854 621,809 622,764 609,686 580,575 538,410 517,295 517,228 517,161 528,114 550,87 572,59 608,39 657,28 L 958,916 1067,916 Z " transform="translate(5453,13143) scale(0.241,-0.241)" fill="rgb(0,0,0)" stroke="none"/></g><g class="OutlinedText"><path d="M 1067,916 L 766,28 C 820,38 868,57 909,84 949,111 992,158 1038,223 1083,288 1142,406 1215,576 1275,717 1330,813 1379,866 1428,918 1490,944 1564,944 1589,944 1625,938 1671,927 L 1660,894 C 1631,894 1608,889 1591,879 1566,864 1542,839 1518,803 1494,767 1460,701 1417,604 1349,448 1289,335 1236,265 1197,214 1148,165 1090,120 1031,74 974,40 920,17 866,-6 808,-21 746,-28 L 606,-442 497,-442 637,-28 C 551,-17 482,15 432,67 381,118 353,184 346,263 341,323 358,437 397,606 420,707 432,775 432,810 433,845 426,868 411,881 402,890 382,894 351,894 L 362,927 C 422,938 462,944 483,944 522,944 555,933 580,911 606,888 620,854 621,809 622,764 609,686 580,575 538,410 517,295 517,228 517,161 528,114 550,87 572,59 608,39 657,28 L 958,916 1067,916 Z " transform="translate(4949,13143) scale(0.241,-0.241)" fill="rgb(0,0,0)" stroke="none"/></g><g class="OutlinedText"><path d="M 356,1126 L 379,1210 C 392,1262 393,1292 381,1300 369,1309 332,1313 270,1313 L 270,1350 567,1401 C 567,1368 563,1335 555,1303 L 506,1126 799,1126 799,1044 483,1044 326,471 C 465,699 605,843 745,903 815,933 868,917 903,856 928,815 932,768 917,716 L 782,223 C 764,163 756,121 756,97 756,73 775,68 815,82 838,90 864,115 892,156 920,196 936,219 942,223 957,237 965,237 966,224 968,211 961,194 946,174 909,122 876,82 848,52 819,23 784,1 741,-14 699,-29 662,-23 631,5 599,33 594,84 614,158 L 766,701 C 781,755 777,790 754,805 728,820 699,818 667,799 591,752 509,664 423,533 336,401 275,274 240,150 L 199,0 47,0 334,1044 123,1044 129,1126 356,1126 Z " transform="translate(5456,15541) scale(0.241,-0.241)" fill="rgb(0,0,0)" stroke="none"/></g><g class="OutlinedText"><path d="M 356,1126 L 379,1210 C 392,1262 393,1292 381,1300 369,1309 332,1313 270,1313 L 270,1350 567,1401 C 567,1368 563,1335 555,1303 L 506,1126 799,1126 799,1044 483,1044 326,471 C 465,699 605,843 745,903 815,933 868,917 903,856 928,815 932,768 917,716 L 782,223 C 764,163 756,121 756,97 756,73 775,68 815,82 838,90 864,115 892,156 920,196 936,219 942,223 957,237 965,237 966,224 968,211 961,194 946,174 909,122 876,82 848,52 819,23 784,1 741,-14 699,-29 662,-23 631,5 599,33 594,84 614,158 L 766,701 C 781,755 777,790 754,805 728,820 699,818 667,799 591,752 509,664 423,533 336,401 275,274 240,150 L 199,0 47,0 334,1044 123,1044 129,1126 356,1126 Z " transform="translate(13994,13526) scale(0.241,-0.241)" fill="rgb(0,0,0)" stroke="none"/></g><g class="OutlinedText"><path d="M 356,1126 L 379,1210 C 392,1262 393,1292 381,1300 369,1309 332,1313 270,1313 L 270,1350 567,1401 C 567,1368 563,1335 555,1303 L 506,1126 799,1126 799,1044 483,1044 326,471 C 465,699 605,843 745,903 815,933 868,917 903,856 928,815 932,768 917,716 L 782,223 C 764,163 756,121 756,97 756,73 775,68 815,82 838,90 864,115 892,156 920,196 936,219 942,223 957,237 965,237 966,224 968,211 961,194 946,174 909,122 876,82 848,52 819,23 784,1 741,-14 699,-29 662,-23 631,5 599,33 594,84 614,158 L 766,701 C 781,755 777,790 754,805 728,820 699,818 667,799 591,752 509,664 423,533 336,401 275,274 240,150 L 199,0 47,0 334,1044 123,1044 129,1126 356,1126 Z " transform="translate(8972,13526) scale(0.241,-0.241)" fill="rgb(0,0,0)" stroke="none"/></g><g class="OutlinedText"><path d="M 356,1126 L 379,1210 C 392,1262 393,1292 381,1300 369,1309 332,1313 270,1313 L 270,1350 567,1401 C 567,1368 563,1335 555,1303 L 506,1126 799,1126 799,1044 483,1044 326,471 C 465,699 605,843 745,903 815,933 868,917 903,856 928,815 932,768 917,716 L 782,223 C 764,163 756,121 756,97 756,73 775,68 815,82 838,90 864,115 892,156 920,196 936,219 942,223 957,237 965,237 966,224 968,211 961,194 946,174 909,122 876,82 848,52 819,23 784,1 741,-14 699,-29 662,-23 631,5 599,33 594,84 614,158 L 766,701 C 781,755 777,790 754,805 728,820 699,818 667,799 591,752 509,664 423,533 336,401 275,274 240,150 L 199,0 47,0 334,1044 123,1044 129,1126 356,1126 Z " transform="translate(7057,12834) scale(0.241,-0.241)" fill="rgb(0,0,0)" stroke="none"/></g><g class="OutlinedText"><path d="M 356,1126 L 379,1210 C 392,1262 393,1292 381,1300 369,1309 332,1313 270,1313 L 270,1350 567,1401 C 567,1368 563,1335 555,1303 L 506,1126 799,1126 799,1044 483,1044 326,471 C 465,699 605,843 745,903 815,933 868,917 903,856 928,815 932,768 917,716 L 782,223 C 764,163 756,121 756,97 756,73 775,68 815,82 838,90 864,115 892,156 920,196 936,219 942,223 957,237 965,237 966,224 968,211 961,194 946,174 909,122 876,82 848,52 819,23 784,1 741,-14 699,-29 662,-23 631,5 599,33 594,84 614,158 L 766,701 C 781,755 777,790 754,805 728,820 699,818 667,799 591,752 509,664 423,533 336,401 275,274 240,150 L 199,0 47,0 334,1044 123,1044 129,1126 356,1126 Z " transform="translate(4618,12834) scale(0.241,-0.241)" fill="rgb(0,0,0)" stroke="none"/></g><g class="OutlinedText"><path d="M 37,759 L 1087,759 1087,662 37,662 37,759 Z M 37,386 L 1087,386 1087,287 37,287 37,386 Z " transform="translate(3626,15157) scale(0.241,-0.241)" fill="rgb(0,0,0)" stroke="none"/></g><g class="OutlinedText"><path d="M 37,759 L 1087,759 1087,662 37,662 37,759 Z M 37,386 L 1087,386 1087,287 37,287 37,386 Z " transform="translate(17679,13143) scale(0.241,-0.241)" fill="rgb(0,0,0)" stroke="none"/></g><g class="OutlinedText"><path d="M 702,-166 L 605,-166 605,1897 702,1897 702,-166 Z " transform="translate(17114,13836) scale(0.241,-0.241)" fill="rgb(0,0,0)" stroke="none"/></g><g class="OutlinedText"><path d="M 702,-166 L 605,-166 605,1897 702,1897 702,-166 Z " transform="translate(17114,13572) scale(0.241,-0.241)" fill="rgb(0,0,0)" stroke="none"/></g><g class="OutlinedText"><path d="M 702,-166 L 605,-166 605,1897 702,1897 702,-166 Z " transform="translate(17114,13095) scale(0.241,-0.241)" fill="rgb(0,0,0)" stroke="none"/></g><g class="OutlinedText"><path d="M 702,-166 L 605,-166 605,1897 702,1897 702,-166 Z " transform="translate(17114,12619) scale(0.241,-0.241)" fill="rgb(0,0,0)" stroke="none"/></g><g class="OutlinedText"><path d="M 703,1897 L 703,1370 C 703,1165 678,963 628,766 585,595 525,446 448,317 370,188 279,80 174,-8 99,-73 12,-125 -86,-166 L -109,-146 C 79,-17 228,135 339,309 427,448 493,615 538,810 583,1005 605,1185 605,1350 L 605,1897 703,1897 Z " transform="translate(17114,14153) scale(0.241,-0.241)" fill="rgb(0,0,0)" stroke="none"/></g><g class="OutlinedText"><path d="M 703,-166 L 605,-166 605,380 C 605,591 577,796 521,995 465,1194 381,1369 269,1520 172,1651 46,1769 -109,1876 L -86,1897 C 75,1830 218,1719 343,1565 468,1411 559,1225 617,1006 674,787 703,571 703,360 L 703,-166 Z " transform="translate(17114,12303) scale(0.241,-0.241)" fill="rgb(0,0,0)" stroke="none"/></g><g class="OutlinedText"><path d="M 180,-166 L 83,-166 83,1897 180,1897 180,-166 Z " transform="translate(12464,13836) scale(0.241,-0.241)" fill="rgb(0,0,0)" stroke="none"/></g><g class="OutlinedText"><path d="M 180,-166 L 83,-166 83,1897 180,1897 180,-166 Z " transform="translate(12464,13572) scale(0.241,-0.241)" fill="rgb(0,0,0)" stroke="none"/></g><g class="OutlinedText"><path d="M 180,-166 L 83,-166 83,1897 180,1897 180,-166 Z " transform="translate(12464,13095) scale(0.241,-0.241)" fill="rgb(0,0,0)" stroke="none"/></g><g class="OutlinedText"><path d="M 180,-166 L 83,-166 83,1897 180,1897 180,-166 Z " transform="translate(12464,12619) scale(0.241,-0.241)" fill="rgb(0,0,0)" stroke="none"/></g><g class="OutlinedText"><path d="M 83,1897 L 180,1897 180,1350 C 180,1139 208,934 265,735 321,536 405,361 517,210 614,80 740,-39 895,-146 L 872,-166 C 711,-99 569,12 444,166 319,319 227,506 170,725 112,944 83,1159 83,1370 L 83,1897 Z " transform="translate(12464,14153) scale(0.241,-0.241)" fill="rgb(0,0,0)" stroke="none"/></g><g class="OutlinedText"><path d="M 83,-166 L 83,360 C 83,565 108,767 158,965 201,1135 261,1284 339,1413 416,1542 507,1650 611,1738 687,1803 774,1856 872,1897 L 895,1876 C 707,1747 558,1595 447,1421 359,1282 293,1115 248,920 203,725 180,545 180,380 L 180,-166 83,-166 Z " transform="translate(12464,12303) scale(0.241,-0.241)" fill="rgb(0,0,0)" stroke="none"/></g><g class="OutlinedText"><path d="M 37,576 L 1087,576 1087,477 37,477 37,576 Z " transform="translate(12711,13143) scale(0.241,-0.241)" fill="rgb(0,0,0)" stroke="none"/></g><g class="OutlinedText"><path d="M 702,-166 L 605,-166 605,1897 702,1897 702,-166 Z " transform="translate(12091,13836) scale(0.241,-0.241)" fill="rgb(0,0,0)" stroke="none"/></g><g class="OutlinedText"><path d="M 702,-166 L 605,-166 605,1897 702,1897 702,-166 Z " transform="translate(12091,13572) scale(0.241,-0.241)" fill="rgb(0,0,0)" stroke="none"/></g><g class="OutlinedText"><path d="M 702,-166 L 605,-166 605,1897 702,1897 702,-166 Z " transform="translate(12091,13095) scale(0.241,-0.241)" fill="rgb(0,0,0)" stroke="none"/></g><g class="OutlinedText"><path d="M 702,-166 L 605,-166 605,1897 702,1897 702,-166 Z " transform="translate(12091,12619) scale(0.241,-0.241)" fill="rgb(0,0,0)" stroke="none"/></g><g class="OutlinedText"><path d="M 703,1897 L 703,1370 C 703,1165 678,963 628,766 585,595 525,446 448,317 370,188 279,80 174,-8 99,-73 12,-125 -86,-166 L -109,-146 C 79,-17 228,135 339,309 427,448 493,615 538,810 583,1005 605,1185 605,1350 L 605,1897 703,1897 Z " transform="translate(12091,14153) scale(0.241,-0.241)" fill="rgb(0,0,0)" stroke="none"/></g><g class="OutlinedText"><path d="M 703,-166 L 605,-166 605,380 C 605,591 577,796 521,995 465,1194 381,1369 269,1520 172,1651 46,1769 -109,1876 L -86,1897 C 75,1830 218,1719 343,1565 468,1411 559,1225 617,1006 674,787 703,571 703,360 L 703,-166 Z " transform="translate(12091,12303) scale(0.241,-0.241)" fill="rgb(0,0,0)" stroke="none"/></g><g class="OutlinedText"><path d="M 180,-166 L 83,-166 83,1897 180,1897 180,-166 Z " transform="translate(7441,13836) scale(0.241,-0.241)" fill="rgb(0,0,0)" stroke="none"/></g><g class="OutlinedText"><path d="M 180,-166 L 83,-166 83,1897 180,1897 180,-166 Z " transform="translate(7441,13572) scale(0.241,-0.241)" fill="rgb(0,0,0)" stroke="none"/></g><g class="OutlinedText"><path d="M 180,-166 L 83,-166 83,1897 180,1897 180,-166 Z " transform="translate(7441,13095) scale(0.241,-0.241)" fill="rgb(0,0,0)" stroke="none"/></g><g class="OutlinedText"><path d="M 180,-166 L 83,-166 83,1897 180,1897 180,-166 Z " transform="translate(7441,12619) scale(0.241,-0.241)" fill="rgb(0,0,0)" stroke="none"/></g><g class="OutlinedText"><path d="M 83,1897 L 180,1897 180,1350 C 180,1139 208,934 265,735 321,536 405,361 517,210 614,80 740,-39 895,-146 L 872,-166 C 711,-99 569,12 444,166 319,319 227,506 170,725 112,944 83,1159 83,1370 L 83,1897 Z " transform="translate(7441,14153) scale(0.241,-0.241)" fill="rgb(0,0,0)" stroke="none"/></g><g class="OutlinedText"><path d="M 83,-166 L 83,360 C 83,565 108,767 158,965 201,1135 261,1284 339,1413 416,1542 507,1650 611,1738 687,1803 774,1856 872,1897 L 895,1876 C 707,1747 558,1595 447,1421 359,1282 293,1115 248,920 203,725 180,545 180,380 L 180,-166 83,-166 Z " transform="translate(7441,12303) scale(0.241,-0.241)" fill="rgb(0,0,0)" stroke="none"/></g><g class="OutlinedText"><path d="M 37,576 L 1087,576 1087,477 37,477 37,576 Z " transform="translate(7688,13143) scale(0.241,-0.241)" fill="rgb(0,0,0)" stroke="none"/></g><g class="OutlinedText"><path d="M 37,759 L 1087,759 1087,662 37,662 37,759 Z M 37,386 L 1087,386 1087,287 37,287 37,386 Z " transform="translate(6596,13143) scale(0.241,-0.241)" fill="rgb(0,0,0)" stroke="none"/></g><g class="OutlinedText"><path d="M 690,-31 L 74,1356 1389,1356 690,-31 Z M 755,284 L 1257,1275 313,1275 755,284 Z " transform="translate(5792,13143) scale(0.241,-0.241)" fill="rgb(0,0,0)" stroke="none"/></g><g class="OutlinedText"><path d="M 37,759 L 1087,759 1087,662 37,662 37,759 Z M 37,386 L 1087,386 1087,287 37,287 37,386 Z " transform="translate(4157,13143) scale(0.241,-0.241)" fill="rgb(0,0,0)" stroke="none"/></g></g>
      </g>
     </g>
    </g>
   </g>
  </g>
 </g>
</svg>