<?xml version='1.0' encoding='UTF-8'?>
<!DOCTYPE svg PUBLIC "-//W3C//DTD SVG 1.1//EN" "http://www.w3.org/Graphics/SVG/1.1/DTD/svg11.dtd">
<svg xmlns="http://www.w3.org/2000/svg" xmlns:ooo="http://xml.openoffice.org/svg/export" xmlns:xlink="http://www.w3.org/1999/xlink" xmlns:presentation="http://sun.com/xmlns/staroffice/presentation" xmlns:smil="http://www.w3.org/2001/SMIL20/" xmlns:anim="urn:oasis:names:tc:opendocument:xmlns:animation:1.0" xmlns:svg="urn:oasis:names:tc:opendocument:xmlns:svg-compatible:1.0" version="1.2" width="103.010mm" height="15.520mm" viewBox="5644 13194 10301 1552" preserveAspectRatio="xMidYMid" fill-rule="evenodd" stroke-width="28.222" stroke-linejoin="round" xml:space="preserve">
 <defs class="ClipPathGroup">
  <clipPath id="presentation_clip_path" clipPathUnits="userSpaceOnUse">
   <rect x="0" y="0" width="21590" height="27940"/>
  </clipPath>
  <clipPath id="presentation_clip_path_shrink" clipPathUnits="userSpaceOnUse">
   <rect x="21" y="27" width="21547" height="27885"/>
  </clipPath>
 </defs>
 <defs>
  </defs>
 <defs>
  </defs>
 <defs>
  </defs>
 <defs>
  </defs>
 <defs>
  </defs>
 <defs class="TextShapeIndex">
  <g ooo:slide="id1" ooo:id-list="id3"/>
 </defs>
 <defs class="EmbeddedBulletChars">
  <g id="bullet-char-template-57356" transform="scale(0.00048828125,-0.00048828125)">
   <path d="M 580,1141 L 1163,571 580,0 -4,571 580,1141 Z"/>
  </g>
  <g id="bullet-char-template-57354" transform="scale(0.00048828125,-0.00048828125)">
   <path d="M 8,1128 L 1137,1128 1137,0 8,0 8,1128 Z"/>
  </g>
  <g id="bullet-char-template-10146" transform="scale(0.00048828125,-0.00048828125)">
   <path d="M 174,0 L 602,739 174,1481 1456,739 174,0 Z M 1358,739 L 309,1346 659,739 1358,739 Z"/>
  </g>
  <g id="bullet-char-template-10132" transform="scale(0.00048828125,-0.00048828125)">
   <path d="M 2015,739 L 1276,0 717,0 1260,543 174,543 174,936 1260,936 717,1481 1274,1481 2015,739 Z"/>
  </g>
  <g id="bullet-char-template-10007" transform="scale(0.00048828125,-0.00048828125)">
   <path d="M 0,-2 C -7,14 -16,27 -25,37 L 356,567 C 262,823 215,952 215,954 215,979 228,992 255,992 264,992 276,990 289,987 310,991 331,999 354,1012 L 381,999 492,748 772,1049 836,1024 860,1049 C 881,1039 901,1025 922,1006 886,937 835,863 770,784 769,783 710,716 594,584 L 774,223 C 774,196 753,168 711,139 L 727,119 C 717,90 699,76 672,76 641,76 570,178 457,381 L 164,-76 C 142,-110 111,-127 72,-127 30,-127 9,-110 8,-76 1,-67 -2,-52 -2,-32 -2,-23 -1,-13 0,-2 Z"/>
  </g>
  <g id="bullet-char-template-10004" transform="scale(0.00048828125,-0.00048828125)">
   <path d="M 285,-33 C 182,-33 111,30 74,156 52,228 41,333 41,471 41,549 55,616 82,672 116,743 169,778 240,778 293,778 328,747 346,684 L 369,508 C 377,444 397,411 428,410 L 1163,1116 C 1174,1127 1196,1133 1229,1133 1271,1133 1292,1118 1292,1087 L 1292,965 C 1292,929 1282,901 1262,881 L 442,47 C 390,-6 338,-33 285,-33 Z"/>
  </g>
  <g id="bullet-char-template-9679" transform="scale(0.00048828125,-0.00048828125)">
   <path d="M 813,0 C 632,0 489,54 383,161 276,268 223,411 223,592 223,773 276,916 383,1023 489,1130 632,1184 813,1184 992,1184 1136,1130 1245,1023 1353,916 1407,772 1407,592 1407,412 1353,268 1245,161 1136,54 992,0 813,0 Z"/>
  </g>
  <g id="bullet-char-template-8226" transform="scale(0.00048828125,-0.00048828125)">
   <path d="M 346,457 C 273,457 209,483 155,535 101,586 74,649 74,723 74,796 101,859 155,911 209,963 273,989 346,989 419,989 480,963 531,910 582,859 608,796 608,723 608,648 583,586 532,535 482,483 420,457 346,457 Z"/>
  </g>
  <g id="bullet-char-template-8211" transform="scale(0.00048828125,-0.00048828125)">
   <path d="M -4,459 L 1135,459 1135,606 -4,606 -4,459 Z"/>
  </g>
  <g id="bullet-char-template-61548" transform="scale(0.00048828125,-0.00048828125)">
   <path d="M 173,740 C 173,903 231,1043 346,1159 462,1274 601,1332 765,1332 928,1332 1067,1274 1183,1159 1299,1043 1357,903 1357,740 1357,577 1299,437 1183,322 1067,206 928,148 765,148 601,148 462,206 346,322 231,437 173,577 173,740 Z"/>
  </g>
 </defs>
 <g>
  <g id="id2" class="Master_Slide">
   <g id="bg-id2" class="Background"/>
   <g id="bo-id2" class="BackgroundObjects"/>
  </g>
 </g>
 <g class="SlideGroup">
  <g>
   <g id="container-id1">
    <g id="id1" class="Slide" clip-path="url(#presentation_clip_path)">
     <g class="Page">
      <g class="Graphic">
       <g id="id3">
        <rect class="BoundingBox" stroke="none" fill="none" x="5644" y="13194" width="10301" height="1552"/>
        <defs>
         <clipPath id="clip_path_1" clipPathUnits="userSpaceOnUse">
          <path d="M 5644,13194 L 15944,13194 15944,14745 5644,14745 5644,13194 Z "/>
         </clipPath>
        </defs>
        <g clip-path="url(#clip_path_1)">
         <g class="OutlinedText"><path d="M 636,-399 L 636,-442 C 462,-355 327,-228 230,-60 133,107 84,291 84,490 84,697 135,886 237,1057 339,1227 472,1349 636,1422 L 636,1380 C 554,1335 487,1273 434,1194 381,1115 342,1016 316,895 290,774 277,647 277,516 277,367 289,233 313,113 337,-7 374,-106 423,-185 472,-264 543,-336 636,-399 Z " transform="translate(6083,13686) scale(0.312,-0.312)" fill="rgb(0,0,0)" stroke="none"/></g><g class="OutlinedText"><path d="M 45,1380 L 45,1422 C 219,1336 355,1209 452,1042 549,874 597,690 597,491 597,284 546,95 444,-76 342,-247 209,-369 45,-442 L 45,-399 C 128,-354 195,-292 248,-213 301,-134 340,-35 366,86 391,207 404,333 404,465 404,613 392,747 369,868 345,988 308,1088 259,1167 209,1246 138,1317 45,1380 Z " transform="translate(8154,13686) scale(0.312,-0.312)" fill="rgb(0,0,0)" stroke="none"/></g><g class="OutlinedText"><path d="M 636,-399 L 636,-442 C 462,-355 327,-228 230,-60 133,107 84,291 84,490 84,697 135,886 237,1057 339,1227 472,1349 636,1422 L 636,1380 C 554,1335 487,1273 434,1194 381,1115 342,1016 316,895 290,774 277,647 277,516 277,367 289,233 313,113 337,-7 374,-106 423,-185 472,-264 543,-336 636,-399 Z " transform="translate(9416,13686) scale(0.312,-0.312)" fill="rgb(0,0,0)" stroke="none"/></g><g class="OutlinedText"><path d="M 45,1380 L 45,1422 C 219,1336 355,1209 452,1042 549,874 597,690 597,491 597,284 546,95 444,-76 342,-247 209,-369 45,-442 L 45,-399 C 128,-354 195,-292 248,-213 301,-134 340,-35 366,86 391,207 404,333 404,465 404,613 392,747 369,868 345,988 308,1088 259,1167 209,1246 138,1317 45,1380 Z " transform="translate(10584,13686) scale(0.312,-0.312)" fill="rgb(0,0,0)" stroke="none"/></g><g class="OutlinedText"><path d="M 636,-399 L 636,-442 C 462,-355 327,-228 230,-60 133,107 84,291 84,490 84,697 135,886 237,1057 339,1227 472,1349 636,1422 L 636,1380 C 554,1335 487,1273 434,1194 381,1115 342,1016 316,895 290,774 277,647 277,516 277,367 289,233 313,113 337,-7 374,-106 423,-185 472,-264 543,-336 636,-399 Z " transform="translate(12004,13686) scale(0.312,-0.312)" fill="rgb(0,0,0)" stroke="none"/></g><g class="OutlinedText"><path d="M 45,1380 L 45,1422 C 219,1336 355,1209 452,1042 549,874 597,690 597,491 597,284 546,95 444,-76 342,-247 209,-369 45,-442 L 45,-399 C 128,-354 195,-292 248,-213 301,-134 340,-35 366,86 391,207 404,333 404,465 404,613 392,747 369,868 345,988 308,1088 259,1167 209,1246 138,1317 45,1380 Z " transform="translate(12336,13686) scale(0.312,-0.312)" fill="rgb(0,0,0)" stroke="none"/></g><g class="OutlinedText"><path d="M 636,-399 L 636,-442 C 462,-355 327,-228 230,-60 133,107 84,291 84,490 84,697 135,886 237,1057 339,1227 472,1349 636,1422 L 636,1380 C 554,1335 487,1273 434,1194 381,1115 342,1016 316,895 290,774 277,647 277,516 277,367 289,233 313,113 337,-7 374,-106 423,-185 472,-264 543,-336 636,-399 Z " transform="translate(14555,13686) scale(0.347,-0.347)" fill="rgb(0,0,0)" stroke="none"/></g><g class="OutlinedText"><path d="M 45,1380 L 45,1422 C 219,1336 355,1209 452,1042 549,874 597,690 597,491 597,284 546,95 444,-76 342,-247 209,-369 45,-442 L 45,-399 C 128,-354 195,-292 248,-213 301,-134 340,-35 366,86 391,207 404,333 404,465 404,613 392,747 369,868 345,988 308,1088 259,1167 209,1246 138,1317 45,1380 Z " transform="translate(15344,13686) scale(0.347,-0.347)" fill="rgb(0,0,0)" stroke="none"/></g><g class="OutlinedText"><path d="M 0,55 L 1393,55 C 1578,55 1708,78 1782,125 1887,190 1957,293 1993,432 L 2040,432 C 2024,330 1998,247 1964,183 1930,119 1882,68 1821,28 1731,-28 1588,-56 1393,-56 L 0,-56 0,55 Z " transform="translate(14946,13934) scale(0.241,-0.241)" fill="rgb(0,0,0)" stroke="none"/></g><g class="OutlinedText"><path d="M 1004,-438 C 968,-296 900,-194 801,-132 772,-113 728,-95 670,-79 611,-64 557,-56 508,-56 L 0,-56 0,55 479,55 C 651,55 782,15 872,-66 918,-105 950,-143 969,-177 988,-212 1012,-276 1040,-369 1073,-268 1098,-202 1115,-171 1132,-141 1163,-105 1208,-66 1298,15 1430,55 1602,55 L 2089,55 2089,-56 1573,-56 C 1524,-56 1470,-64 1413,-79 1356,-95 1311,-113 1280,-132 1180,-194 1113,-296 1077,-438 L 1004,-438 Z " transform="translate(14615,13934) scale(0.241,-0.241)" fill="rgb(0,0,0)" stroke="none"/></g><g class="OutlinedText"><path d="M 2050,-56 L 647,-56 C 452,-56 309,-28 219,28 160,65 114,115 80,177 46,239 19,324 0,432 L 47,432 C 83,293 153,190 258,125 303,99 358,81 422,70 486,60 561,55 647,55 L 2050,55 2050,-56 Z " transform="translate(14292,13934) scale(0.241,-0.241)" fill="rgb(0,0,0)" stroke="none"/></g><g class="OutlinedText"><path d="M 0,-56 L 0,55 0,55 2079,55 2079,-56 0,-56 Z " transform="translate(12497,13934) scale(0.241,-0.241)" fill="rgb(0,0,0)" stroke="none"/></g><g class="OutlinedText"><path d="M 0,55 L 1393,55 C 1578,55 1708,78 1782,125 1887,190 1957,293 1993,432 L 2040,432 C 2024,330 1998,247 1964,183 1930,119 1882,68 1821,28 1731,-28 1588,-56 1393,-56 L 0,-56 0,55 Z " transform="translate(12648,13934) scale(0.241,-0.241)" fill="rgb(0,0,0)" stroke="none"/></g><g class="OutlinedText"><path d="M 0,-56 L 0,55 0,55 2079,55 2079,-56 0,-56 Z " transform="translate(11784,13934) scale(0.241,-0.241)" fill="rgb(0,0,0)" stroke="none"/></g><g class="OutlinedText"><path d="M 1004,-438 C 968,-296 900,-194 801,-132 772,-113 728,-95 670,-79 611,-64 557,-56 508,-56 L 0,-56 0,55 479,55 C 651,55 782,15 872,-66 918,-105 950,-143 969,-177 988,-212 1012,-276 1040,-369 1073,-268 1098,-202 1115,-171 1132,-141 1163,-105 1208,-66 1298,15 1430,55 1602,55 L 2089,55 2089,-56 1573,-56 C 1524,-56 1470,-64 1413,-79 1356,-95 1311,-113 1280,-132 1180,-194 1113,-296 1077,-438 L 1004,-438 Z " transform="translate(12161,13934) scale(0.241,-0.241)" fill="rgb(0,0,0)" stroke="none"/></g><g class="OutlinedText"><path d="M 2050,-56 L 647,-56 C 452,-56 309,-28 219,28 160,65 114,115 80,177 46,239 19,324 0,432 L 47,432 C 83,293 153,190 258,125 303,99 358,81 422,70 486,60 561,55 647,55 L 2050,55 2050,-56 Z " transform="translate(11682,13934) scale(0.241,-0.241)" fill="rgb(0,0,0)" stroke="none"/></g><g class="OutlinedText"><path d="M 0,-56 L 0,55 0,55 2079,55 2079,-56 0,-56 Z " transform="translate(10040,13934) scale(0.241,-0.241)" fill="rgb(0,0,0)" stroke="none"/></g><g class="OutlinedText"><path d="M 0,55 L 1393,55 C 1578,55 1708,78 1782,125 1887,190 1957,293 1993,432 L 2040,432 C 2024,330 1998,247 1964,183 1930,119 1882,68 1821,28 1731,-28 1588,-56 1393,-56 L 0,-56 0,55 Z " transform="translate(10191,13934) scale(0.241,-0.241)" fill="rgb(0,0,0)" stroke="none"/></g><g class="OutlinedText"><path d="M 0,-56 L 0,55 0,55 2079,55 2079,-56 0,-56 Z " transform="translate(9239,13934) scale(0.241,-0.241)" fill="rgb(0,0,0)" stroke="none"/></g><g class="OutlinedText"><path d="M 1004,-438 C 968,-296 900,-194 801,-132 772,-113 728,-95 670,-79 611,-64 557,-56 508,-56 L 0,-56 0,55 479,55 C 651,55 782,15 872,-66 918,-105 950,-143 969,-177 988,-212 1012,-276 1040,-369 1073,-268 1098,-202 1115,-171 1132,-141 1163,-105 1208,-66 1298,15 1430,55 1602,55 L 2089,55 2089,-56 1573,-56 C 1524,-56 1470,-64 1413,-79 1356,-95 1311,-113 1280,-132 1180,-194 1113,-296 1077,-438 L 1004,-438 Z " transform="translate(9616,13934) scale(0.241,-0.241)" fill="rgb(0,0,0)" stroke="none"/></g><g class="OutlinedText"><path d="M 2050,-56 L 647,-56 C 452,-56 309,-28 219,28 160,65 114,115 80,177 46,239 19,324 0,432 L 47,432 C 83,293 153,190 258,125 303,99 358,81 422,70 486,60 561,55 647,55 L 2050,55 2050,-56 Z " transform="translate(9048,13934) scale(0.241,-0.241)" fill="rgb(0,0,0)" stroke="none"/></g><text class="SVGTextShape"><tspan class="TextParagraph"><tspan class="TextPosition" x="14710" y="14586"><tspan font-family="Times New Roman, serif" font-size="317px" font-weight="400" lengthAdjust="spacingAndGlyphs" textLength="1181" fill="rgb(0,0,0)" stroke="none" style="white-space: pre">superiore</tspan></tspan></tspan></text>
         <text class="SVGTextShape"><tspan class="TextParagraph"><tspan class="TextPosition" x="14645" y="14586"><tspan font-family="Times New Roman, serif" font-size="317px" font-weight="400" lengthAdjust="spacingAndGlyphs" textLength="79" fill="rgb(0,0,0)" stroke="none" style="white-space: pre"> </tspan></tspan></tspan></text>
         <text class="SVGTextShape"><tspan class="TextParagraph"><tspan class="TextPosition" x="13847" y="14586"><tspan font-family="Times New Roman, serif" font-size="317px" font-weight="400" lengthAdjust="spacingAndGlyphs" textLength="811" fill="rgb(0,0,0)" stroke="none" style="white-space: pre">ordine</tspan></tspan></tspan></text>
         <text class="SVGTextShape"><tspan class="TextParagraph"><tspan class="TextPosition" x="15545" y="14304"><tspan font-family="Times New Roman, serif" font-size="317px" font-weight="400" lengthAdjust="spacingAndGlyphs" textLength="247" fill="rgb(0,0,0)" stroke="none" style="white-space: pre">di</tspan></tspan></tspan></text>
         <text class="SVGTextShape"><tspan class="TextParagraph"><tspan class="TextPosition" x="15475" y="14304"><tspan font-family="Times New Roman, serif" font-size="317px" font-weight="400" lengthAdjust="spacingAndGlyphs" textLength="79" fill="rgb(0,0,0)" stroke="none" style="white-space: pre"> </tspan></tspan></tspan></text>
         <text class="SVGTextShape"><tspan class="TextParagraph"><tspan class="TextPosition" x="15084" y="14304"><tspan font-family="Times New Roman, serif" font-size="317px" font-weight="400" lengthAdjust="spacingAndGlyphs" textLength="406" fill="rgb(0,0,0)" stroke="none" style="white-space: pre">mo</tspan></tspan></tspan></text>
         <text class="SVGTextShape"><tspan class="TextParagraph"><tspan class="TextPosition" x="13944" y="14304"><tspan font-family="Times New Roman, serif" font-size="317px" font-weight="400" lengthAdjust="spacingAndGlyphs" textLength="1146" fill="rgb(0,0,0)" stroke="none" style="white-space: pre">Infinitesi</tspan></tspan></tspan></text>
         <text class="SVGTextShape"><tspan class="TextParagraph"><tspan class="TextPosition" x="12417" y="14586"><tspan font-family="Times New Roman, serif" font-size="317px" font-weight="400" lengthAdjust="spacingAndGlyphs" textLength="811" fill="rgb(0,0,0)" stroke="none" style="white-space: pre">ordine</tspan></tspan></tspan></text>
         <text class="SVGTextShape"><tspan class="TextParagraph"><tspan class="TextPosition" x="12348" y="14586"><tspan font-family="Times New Roman, serif" font-size="317px" font-weight="400" lengthAdjust="spacingAndGlyphs" textLength="79" fill="rgb(0,0,0)" stroke="none" style="white-space: pre"> </tspan></tspan></tspan></text>
         <text class="SVGTextShape"><tspan class="TextParagraph"><tspan class="TextPosition" x="11605" y="14586"><tspan font-family="Times New Roman, serif" font-size="317px" font-weight="400" lengthAdjust="spacingAndGlyphs" textLength="758" fill="rgb(0,0,0)" stroke="none" style="white-space: pre">primo</tspan></tspan></tspan></text>
         <text class="SVGTextShape"><tspan class="TextParagraph"><tspan class="TextPosition" x="12967" y="14304"><tspan font-family="Times New Roman, serif" font-size="317px" font-weight="400" lengthAdjust="spacingAndGlyphs" textLength="388" fill="rgb(0,0,0)" stroke="none" style="white-space: pre">del</tspan></tspan></tspan></text>
         <text class="SVGTextShape"><tspan class="TextParagraph"><tspan class="TextPosition" x="12898" y="14304"><tspan font-family="Times New Roman, serif" font-size="317px" font-weight="400" lengthAdjust="spacingAndGlyphs" textLength="79" fill="rgb(0,0,0)" stroke="none" style="white-space: pre"> </tspan></tspan></tspan></text>
         <text class="SVGTextShape"><tspan class="TextParagraph"><tspan class="TextPosition" x="11480" y="14304"><tspan font-family="Times New Roman, serif" font-size="317px" font-weight="400" lengthAdjust="spacingAndGlyphs" textLength="1446" fill="rgb(0,0,0)" stroke="none" style="white-space: pre">Incremento</tspan></tspan></tspan></text>
         <text class="SVGTextShape"><tspan class="TextParagraph"><tspan class="TextPosition" x="10823" y="14304"><tspan font-family="Times New Roman, serif" font-size="317px" font-weight="400" lengthAdjust="spacingAndGlyphs" textLength="159" fill="rgb(0,0,0)" stroke="none" style="white-space: pre">0</tspan></tspan></tspan></text>
         <text class="SVGTextShape"><tspan class="TextParagraph"><tspan class="TextPosition" x="9893" y="14304"><tspan font-family="Times New Roman, serif" font-size="317px" font-weight="400" lengthAdjust="spacingAndGlyphs" textLength="485" fill="rgb(0,0,0)" stroke="none" style="white-space: pre">per </tspan></tspan></tspan></text>
         <text class="SVGTextShape"><tspan class="TextParagraph"><tspan class="TextPosition" x="9818" y="14304"><tspan font-family="Times New Roman, serif" font-size="317px" font-weight="400" lengthAdjust="spacingAndGlyphs" textLength="79" fill="rgb(0,0,0)" stroke="none" style="white-space: pre"> </tspan></tspan></tspan></text>
         <text class="SVGTextShape"><tspan class="TextParagraph"><tspan class="TextPosition" x="8757" y="14304"><tspan font-family="Times New Roman, serif" font-size="317px" font-weight="400" lengthAdjust="spacingAndGlyphs" textLength="1053" fill="rgb(0,0,0)" stroke="none" style="white-space: pre">Termine</tspan></tspan></tspan></text>
         <text class="SVGTextShape"><tspan class="TextParagraph"><tspan class="TextPosition" x="15141" y="13466"><tspan font-family="Times New Roman, serif" font-size="247px" font-weight="400" lengthAdjust="spacingAndGlyphs" textLength="127" fill="rgb(0,0,0)" stroke="none" style="white-space: pre">2</tspan></tspan></tspan></text>
         <text class="SVGTextShape"><tspan class="TextParagraph"><tspan class="TextPosition" x="14698" y="13688"><tspan font-family="Times New Roman, serif" font-size="494px" font-style="italic" font-weight="400" lengthAdjust="spacingAndGlyphs" textLength="379" fill="rgb(0,0,0)" stroke="none" style="white-space: pre">dt</tspan></tspan></tspan></text>
         <text class="SVGTextShape"><tspan class="TextParagraph"><tspan class="TextPosition" x="12748" y="13688"><tspan font-family="Times New Roman, serif" font-size="494px" font-style="italic" font-weight="400" lengthAdjust="spacingAndGlyphs" textLength="379" fill="rgb(0,0,0)" stroke="none" style="white-space: pre">dt</tspan></tspan></tspan></text>
         <text class="SVGTextShape"><tspan class="TextParagraph"><tspan class="TextPosition" x="12145" y="13688"><tspan font-family="Times New Roman, serif" font-size="494px" font-style="italic" font-weight="400" lengthAdjust="spacingAndGlyphs" textLength="135" fill="rgb(0,0,0)" stroke="none" style="white-space: pre">t</tspan></tspan></tspan></text>
         <text class="SVGTextShape"><tspan class="TextParagraph"><tspan class="TextPosition" x="11713" y="13688"><tspan font-family="Times New Roman, serif" font-size="494px" font-style="italic" font-weight="400" lengthAdjust="spacingAndGlyphs" textLength="297" fill="rgb(0,0,0)" stroke="none" style="white-space: pre">A</tspan></tspan></tspan></text>
         <text class="SVGTextShape"><tspan class="TextParagraph"><tspan class="TextPosition" x="10393" y="13688"><tspan font-family="Times New Roman, serif" font-size="494px" font-style="italic" font-weight="400" lengthAdjust="spacingAndGlyphs" textLength="135" fill="rgb(0,0,0)" stroke="none" style="white-space: pre">t</tspan></tspan></tspan></text>
         <text class="SVGTextShape"><tspan class="TextParagraph"><tspan class="TextPosition" x="9558" y="13688"><tspan font-family="Times New Roman, serif" font-size="494px" font-style="italic" font-weight="400" lengthAdjust="spacingAndGlyphs" textLength="135" fill="rgb(0,0,0)" stroke="none" style="white-space: pre">t</tspan></tspan></tspan></text>
         <text class="SVGTextShape"><tspan class="TextParagraph"><tspan class="TextPosition" x="8994" y="13688"><tspan font-family="Times New Roman, serif" font-size="494px" font-style="italic" font-weight="400" lengthAdjust="spacingAndGlyphs" textLength="352" fill="rgb(0,0,0)" stroke="none" style="white-space: pre">U</tspan></tspan></tspan></text>
         <text class="SVGTextShape"><tspan class="TextParagraph"><tspan class="TextPosition" x="7717" y="13688"><tspan font-family="Times New Roman, serif" font-size="494px" font-style="italic" font-weight="400" lengthAdjust="spacingAndGlyphs" textLength="379" fill="rgb(0,0,0)" stroke="none" style="white-space: pre">dt</tspan></tspan></tspan></text>
         <text class="SVGTextShape"><tspan class="TextParagraph"><tspan class="TextPosition" x="7060" y="13688"><tspan font-family="Times New Roman, serif" font-size="494px" font-style="italic" font-weight="400" lengthAdjust="spacingAndGlyphs" textLength="135" fill="rgb(0,0,0)" stroke="none" style="white-space: pre">t</tspan></tspan></tspan></text>
         <text class="SVGTextShape"><tspan class="TextParagraph"><tspan class="TextPosition" x="6224" y="13688"><tspan font-family="Times New Roman, serif" font-size="494px" font-style="italic" font-weight="400" lengthAdjust="spacingAndGlyphs" textLength="135" fill="rgb(0,0,0)" stroke="none" style="white-space: pre">t</tspan></tspan></tspan></text>
         <text class="SVGTextShape"><tspan class="TextParagraph"><tspan class="TextPosition" x="5661" y="13688"><tspan font-family="Times New Roman, serif" font-size="494px" font-style="italic" font-weight="400" lengthAdjust="spacingAndGlyphs" textLength="352" fill="rgb(0,0,0)" stroke="none" style="white-space: pre">U</tspan></tspan></tspan></text>
         <text class="SVGTextShape"><tspan class="TextParagraph"><tspan class="TextPosition" x="10369" y="14304"><tspan font-family="Times New Roman, serif" font-size="317px" font-style="italic" font-weight="400" lengthAdjust="spacingAndGlyphs" textLength="247" fill="rgb(0,0,0)" stroke="none" style="white-space: pre">dt</tspan></tspan></tspan></text>
         <g class="OutlinedText"><path d="M 1197,475 C 1169,390 1120,308 1051,229 982,150 902,87 811,40 720,-7 629,-31 537,-31 409,-31 316,14 257,103 198,192 190,300 233,427 263,514 314,599 387,682 460,765 544,829 638,875 732,920 819,943 899,943 977,943 1045,922 1105,880 1165,837 1202,778 1216,703 1230,628 1223,552 1197,475 Z M 989,406 C 1045,570 1048,695 998,780 961,843 907,874 835,874 764,874 691,843 616,781 542,718 484,628 444,509 399,376 390,264 419,173 447,82 509,37 604,37 674,37 746,68 818,131 891,193 948,285 989,406 Z " transform="translate(14238,13688) scale(0.241,-0.241)" fill="rgb(0,0,0)" stroke="none"/></g><g class="OutlinedText"><path d="M 514,1050 L 612,1050 612,572 1087,572 1087,475 612,475 612,0 514,0 514,475 37,475 37,572 514,572 514,1050 Z " transform="translate(13463,13688) scale(0.241,-0.241)" fill="rgb(0,0,0)" stroke="none"/></g><g class="OutlinedText"><path d="M 366,524 C 366,493 355,467 334,446 312,424 286,413 256,413 225,413 199,424 178,446 156,467 145,493 145,524 145,555 156,581 178,603 199,624 225,635 256,635 286,635 312,624 334,603 355,581 366,555 366,524 Z " transform="translate(12539,13688) scale(0.241,-0.241)" fill="rgb(0,0,0)" stroke="none"/></g><g class="OutlinedText"><path d="M 514,1050 L 612,1050 612,572 1087,572 1087,475 612,475 612,0 514,0 514,475 37,475 37,572 514,572 514,1050 Z " transform="translate(11091,13688) scale(0.241,-0.241)" fill="rgb(0,0,0)" stroke="none"/></g><g class="OutlinedText"><path d="M 1609,448 L 75,448 75,545 1609,545 C 1514,654 1448,739 1410,799 1372,858 1335,932 1299,1021 L 1379,1021 C 1457,925 1554,828 1670,729 1786,630 1878,562 1946,523 L 1946,467 C 1857,418 1761,347 1656,255 1551,163 1458,69 1379,-28 L 1299,-28 C 1337,62 1376,138 1416,201 1456,264 1520,346 1609,448 Z " transform="translate(9821,13688) scale(0.241,-0.241)" fill="rgb(0,0,0)" stroke="none"/></g><g class="OutlinedText"><path d="M 37,759 L 1087,759 1087,662 37,662 37,759 Z M 37,386 L 1087,386 1087,287 37,287 37,386 Z " transform="translate(8380,13688) scale(0.241,-0.241)" fill="rgb(0,0,0)" stroke="none"/></g><g class="OutlinedText"><path d="M 514,1050 L 612,1050 612,572 1087,572 1087,475 612,475 612,0 514,0 514,475 37,475 37,572 514,572 514,1050 Z " transform="translate(7331,13688) scale(0.241,-0.241)" fill="rgb(0,0,0)" stroke="none"/></g><g class="OutlinedText"><path d="M 1609,448 L 75,448 75,545 1609,545 C 1514,654 1448,739 1410,799 1372,858 1335,932 1299,1021 L 1379,1021 C 1457,925 1554,828 1670,729 1786,630 1878,562 1946,523 L 1946,467 C 1857,418 1761,347 1656,255 1551,163 1458,69 1379,-28 L 1299,-28 C 1337,62 1376,138 1416,201 1456,264 1520,346 1609,448 Z " transform="translate(6487,13688) scale(0.241,-0.241)" fill="rgb(0,0,0)" stroke="none"/></g><g class="OutlinedText"><path d="M 37,759 L 1087,759 1087,662 37,662 37,759 Z M 37,386 L 1087,386 1087,287 37,287 37,386 Z " transform="translate(10643,14304) scale(0.155,-0.155)" fill="rgb(0,0,0)" stroke="none"/></g></g>
       </g>
      </g>
     </g>
    </g>
   </g>
  </g>
 </g>
</svg>