<?xml version='1.0' encoding='UTF-8'?>
<!DOCTYPE svg PUBLIC "-//W3C//DTD SVG 1.1//EN" "http://www.w3.org/Graphics/SVG/1.1/DTD/svg11.dtd">
<svg xmlns="http://www.w3.org/2000/svg" xmlns:ooo="http://xml.openoffice.org/svg/export" xmlns:xlink="http://www.w3.org/1999/xlink" xmlns:presentation="http://sun.com/xmlns/staroffice/presentation" xmlns:smil="http://www.w3.org/2001/SMIL20/" xmlns:anim="urn:oasis:names:tc:opendocument:xmlns:animation:1.0" xmlns:svg="urn:oasis:names:tc:opendocument:xmlns:svg-compatible:1.0" version="1.2" width="145.340mm" height="13.760mm" viewBox="3528 13282 14534 1376" preserveAspectRatio="xMidYMid" fill-rule="evenodd" stroke-width="28.222" stroke-linejoin="round" xml:space="preserve">
 <defs class="ClipPathGroup">
  <clipPath id="presentation_clip_path" clipPathUnits="userSpaceOnUse">
   <rect x="0" y="0" width="21590" height="27940"/>
  </clipPath>
  <clipPath id="presentation_clip_path_shrink" clipPathUnits="userSpaceOnUse">
   <rect x="21" y="27" width="21547" height="27885"/>
  </clipPath>
 </defs>
 <defs>
  </defs>
 <defs>
  </defs>
 <defs>
  </defs>
 <defs>
  </defs>
 <defs class="TextShapeIndex">
  <g ooo:slide="id1" ooo:id-list="id3"/>
 </defs>
 <defs class="EmbeddedBulletChars">
  <g id="bullet-char-template-57356" transform="scale(0.00048828125,-0.00048828125)">
   <path d="M 580,1141 L 1163,571 580,0 -4,571 580,1141 Z"/>
  </g>
  <g id="bullet-char-template-57354" transform="scale(0.00048828125,-0.00048828125)">
   <path d="M 8,1128 L 1137,1128 1137,0 8,0 8,1128 Z"/>
  </g>
  <g id="bullet-char-template-10146" transform="scale(0.00048828125,-0.00048828125)">
   <path d="M 174,0 L 602,739 174,1481 1456,739 174,0 Z M 1358,739 L 309,1346 659,739 1358,739 Z"/>
  </g>
  <g id="bullet-char-template-10132" transform="scale(0.00048828125,-0.00048828125)">
   <path d="M 2015,739 L 1276,0 717,0 1260,543 174,543 174,936 1260,936 717,1481 1274,1481 2015,739 Z"/>
  </g>
  <g id="bullet-char-template-10007" transform="scale(0.00048828125,-0.00048828125)">
   <path d="M 0,-2 C -7,14 -16,27 -25,37 L 356,567 C 262,823 215,952 215,954 215,979 228,992 255,992 264,992 276,990 289,987 310,991 331,999 354,1012 L 381,999 492,748 772,1049 836,1024 860,1049 C 881,1039 901,1025 922,1006 886,937 835,863 770,784 769,783 710,716 594,584 L 774,223 C 774,196 753,168 711,139 L 727,119 C 717,90 699,76 672,76 641,76 570,178 457,381 L 164,-76 C 142,-110 111,-127 72,-127 30,-127 9,-110 8,-76 1,-67 -2,-52 -2,-32 -2,-23 -1,-13 0,-2 Z"/>
  </g>
  <g id="bullet-char-template-10004" transform="scale(0.00048828125,-0.00048828125)">
   <path d="M 285,-33 C 182,-33 111,30 74,156 52,228 41,333 41,471 41,549 55,616 82,672 116,743 169,778 240,778 293,778 328,747 346,684 L 369,508 C 377,444 397,411 428,410 L 1163,1116 C 1174,1127 1196,1133 1229,1133 1271,1133 1292,1118 1292,1087 L 1292,965 C 1292,929 1282,901 1262,881 L 442,47 C 390,-6 338,-33 285,-33 Z"/>
  </g>
  <g id="bullet-char-template-9679" transform="scale(0.00048828125,-0.00048828125)">
   <path d="M 813,0 C 632,0 489,54 383,161 276,268 223,411 223,592 223,773 276,916 383,1023 489,1130 632,1184 813,1184 992,1184 1136,1130 1245,1023 1353,916 1407,772 1407,592 1407,412 1353,268 1245,161 1136,54 992,0 813,0 Z"/>
  </g>
  <g id="bullet-char-template-8226" transform="scale(0.00048828125,-0.00048828125)">
   <path d="M 346,457 C 273,457 209,483 155,535 101,586 74,649 74,723 74,796 101,859 155,911 209,963 273,989 346,989 419,989 480,963 531,910 582,859 608,796 608,723 608,648 583,586 532,535 482,483 420,457 346,457 Z"/>
  </g>
  <g id="bullet-char-template-8211" transform="scale(0.00048828125,-0.00048828125)">
   <path d="M -4,459 L 1135,459 1135,606 -4,606 -4,459 Z"/>
  </g>
  <g id="bullet-char-template-61548" transform="scale(0.00048828125,-0.00048828125)">
   <path d="M 173,740 C 173,903 231,1043 346,1159 462,1274 601,1332 765,1332 928,1332 1067,1274 1183,1159 1299,1043 1357,903 1357,740 1357,577 1299,437 1183,322 1067,206 928,148 765,148 601,148 462,206 346,322 231,437 173,577 173,740 Z"/>
  </g>
 </defs>
 <g>
  <g id="id2" class="Master_Slide">
   <g id="bg-id2" class="Background"/>
   <g id="bo-id2" class="BackgroundObjects"/>
  </g>
 </g>
 <g class="SlideGroup">
  <g>
   <g id="container-id1">
    <g id="id1" class="Slide" clip-path="url(#presentation_clip_path)">
     <g class="Page">
      <g class="Graphic">
       <g id="id3">
        <rect class="BoundingBox" stroke="none" fill="none" x="3528" y="13282" width="14534" height="1376"/>
        <path fill="none" stroke="rgb(0,0,0)" stroke-width="18" stroke-linejoin="round" stroke-linecap="round" d="M 3714,13680 L 3607,13970 3714,14260 "/>
        <path fill="none" stroke="rgb(0,0,0)" stroke-width="18" stroke-linejoin="round" stroke-linecap="round" d="M 4033,13680 L 4140,13970 4033,14260 "/>
        <g class="OutlinedText"><path d="M 636,-399 L 636,-442 C 462,-355 327,-228 230,-60 133,107 84,291 84,490 84,697 135,886 237,1057 339,1227 472,1349 636,1422 L 636,1380 C 554,1335 487,1273 434,1194 381,1115 342,1016 316,895 290,774 277,647 277,516 277,367 289,233 313,113 337,-7 374,-106 423,-185 472,-264 543,-336 636,-399 Z " transform="translate(5303,14091) scale(0.312,-0.312)" fill="rgb(0,0,0)" stroke="none"/></g><g class="OutlinedText"><path d="M 45,1380 L 45,1422 C 219,1336 355,1209 452,1042 549,874 597,690 597,491 597,284 546,95 444,-76 342,-247 209,-369 45,-442 L 45,-399 C 128,-354 195,-292 248,-213 301,-134 340,-35 366,86 391,207 404,333 404,465 404,613 392,747 369,868 345,988 308,1088 259,1167 209,1246 138,1317 45,1380 Z " transform="translate(5735,14091) scale(0.312,-0.312)" fill="rgb(0,0,0)" stroke="none"/></g><g class="OutlinedText"><path d="M 636,-399 L 636,-442 C 462,-355 327,-228 230,-60 133,107 84,291 84,490 84,697 135,886 237,1057 339,1227 472,1349 636,1422 L 636,1380 C 554,1335 487,1273 434,1194 381,1115 342,1016 316,895 290,774 277,647 277,516 277,367 289,233 313,113 337,-7 374,-106 423,-185 472,-264 543,-336 636,-399 Z " transform="translate(7888,14091) scale(0.312,-0.312)" fill="rgb(0,0,0)" stroke="none"/></g><g class="OutlinedText"><path d="M 45,1380 L 45,1422 C 219,1336 355,1209 452,1042 549,874 597,690 597,491 597,284 546,95 444,-76 342,-247 209,-369 45,-442 L 45,-399 C 128,-354 195,-292 248,-213 301,-134 340,-35 366,86 391,207 404,333 404,465 404,613 392,747 369,868 345,988 308,1088 259,1167 209,1246 138,1317 45,1380 Z " transform="translate(8320,14091) scale(0.312,-0.312)" fill="rgb(0,0,0)" stroke="none"/></g><g class="OutlinedText"><path d="M 636,-399 L 636,-442 C 462,-355 327,-228 230,-60 133,107 84,291 84,490 84,697 135,886 237,1057 339,1227 472,1349 636,1422 L 636,1380 C 554,1335 487,1273 434,1194 381,1115 342,1016 316,895 290,774 277,647 277,516 277,367 289,233 313,113 337,-7 374,-106 423,-185 472,-264 543,-336 636,-399 Z " transform="translate(9106,14091) scale(0.312,-0.312)" fill="rgb(0,0,0)" stroke="none"/></g><g class="OutlinedText"><path d="M 45,1380 L 45,1422 C 219,1336 355,1209 452,1042 549,874 597,690 597,491 597,284 546,95 444,-76 342,-247 209,-369 45,-442 L 45,-399 C 128,-354 195,-292 248,-213 301,-134 340,-35 366,86 391,207 404,333 404,465 404,613 392,747 369,868 345,988 308,1088 259,1167 209,1246 138,1317 45,1380 Z " transform="translate(9538,14091) scale(0.312,-0.312)" fill="rgb(0,0,0)" stroke="none"/></g><g class="OutlinedText"><path d="M 636,-399 L 636,-442 C 462,-355 327,-228 230,-60 133,107 84,291 84,490 84,697 135,886 237,1057 339,1227 472,1349 636,1422 L 636,1380 C 554,1335 487,1273 434,1194 381,1115 342,1016 316,895 290,774 277,647 277,516 277,367 289,233 313,113 337,-7 374,-106 423,-185 472,-264 543,-336 636,-399 Z " transform="translate(11819,14091) scale(0.312,-0.312)" fill="rgb(0,0,0)" stroke="none"/></g><g class="OutlinedText"><path d="M 45,1380 L 45,1422 C 219,1336 355,1209 452,1042 549,874 597,690 597,491 597,284 546,95 444,-76 342,-247 209,-369 45,-442 L 45,-399 C 128,-354 195,-292 248,-213 301,-134 340,-35 366,86 391,207 404,333 404,465 404,613 392,747 369,868 345,988 308,1088 259,1167 209,1246 138,1317 45,1380 Z " transform="translate(12251,14091) scale(0.312,-0.312)" fill="rgb(0,0,0)" stroke="none"/></g><g class="OutlinedText"><path d="M 636,-399 L 636,-442 C 462,-355 327,-228 230,-60 133,107 84,291 84,490 84,697 135,886 237,1057 339,1227 472,1349 636,1422 L 636,1380 C 554,1335 487,1273 434,1194 381,1115 342,1016 316,895 290,774 277,647 277,516 277,367 289,233 313,113 337,-7 374,-106 423,-185 472,-264 543,-336 636,-399 Z " transform="translate(12806,14091) scale(0.312,-0.312)" fill="rgb(0,0,0)" stroke="none"/></g><g class="OutlinedText"><path d="M 45,1380 L 45,1422 C 219,1336 355,1209 452,1042 549,874 597,690 597,491 597,284 546,95 444,-76 342,-247 209,-369 45,-442 L 45,-399 C 128,-354 195,-292 248,-213 301,-134 340,-35 366,86 391,207 404,333 404,465 404,613 392,747 369,868 345,988 308,1088 259,1167 209,1246 138,1317 45,1380 Z " transform="translate(13771,14091) scale(0.312,-0.312)" fill="rgb(0,0,0)" stroke="none"/></g><g class="OutlinedText"><path d="M 636,-399 L 636,-442 C 462,-355 327,-228 230,-60 133,107 84,291 84,490 84,697 135,886 237,1057 339,1227 472,1349 636,1422 L 636,1380 C 554,1335 487,1273 434,1194 381,1115 342,1016 316,895 290,774 277,647 277,516 277,367 289,233 313,113 337,-7 374,-106 423,-185 472,-264 543,-336 636,-399 Z " transform="translate(14249,14091) scale(0.312,-0.312)" fill="rgb(0,0,0)" stroke="none"/></g><g class="OutlinedText"><path d="M 45,1380 L 45,1422 C 219,1336 355,1209 452,1042 549,874 597,690 597,491 597,284 546,95 444,-76 342,-247 209,-369 45,-442 L 45,-399 C 128,-354 195,-292 248,-213 301,-134 340,-35 366,86 391,207 404,333 404,465 404,613 392,747 369,868 345,988 308,1088 259,1167 209,1246 138,1317 45,1380 Z " transform="translate(14681,14091) scale(0.312,-0.312)" fill="rgb(0,0,0)" stroke="none"/></g><path fill="none" stroke="rgb(0,0,0)" stroke-width="18" stroke-linejoin="round" stroke-linecap="round" d="M 16458,13680 L 16351,13970 16458,14260 "/>
        <path fill="none" stroke="rgb(0,0,0)" stroke-width="18" stroke-linejoin="round" stroke-linecap="round" d="M 16910,13680 L 16910,14260 "/>
        <path fill="none" stroke="rgb(0,0,0)" stroke-width="18" stroke-linejoin="round" stroke-linecap="round" d="M 17407,13680 L 17407,14260 "/>
        <path fill="none" stroke="rgb(0,0,0)" stroke-width="18" stroke-linejoin="round" stroke-linecap="round" d="M 17868,13680 L 17975,13970 17868,14260 "/>
        <g class="OutlinedText"><path d="M 1067,916 L 766,28 C 820,38 868,57 909,84 949,111 992,158 1038,223 1083,288 1142,406 1215,576 1275,717 1330,813 1379,866 1428,918 1490,944 1564,944 1589,944 1625,938 1671,927 L 1660,894 C 1631,894 1608,889 1591,879 1566,864 1542,839 1518,803 1494,767 1460,701 1417,604 1349,448 1289,335 1236,265 1197,214 1148,165 1090,120 1031,74 974,40 920,17 866,-6 808,-21 746,-28 L 606,-442 497,-442 637,-28 C 551,-17 482,15 432,67 381,118 353,184 346,263 341,323 358,437 397,606 420,707 432,775 432,810 433,845 426,868 411,881 402,890 382,894 351,894 L 362,927 C 422,938 462,944 483,944 522,944 555,933 580,911 606,888 620,854 621,809 622,764 609,686 580,575 538,410 517,295 517,228 517,161 528,114 550,87 572,59 608,39 657,28 L 958,916 1067,916 Z " transform="translate(17427,14093) scale(0.241,-0.241)" fill="rgb(0,0,0)" stroke="none"/></g><g class="OutlinedText"><path d="M 1067,916 L 766,28 C 820,38 868,57 909,84 949,111 992,158 1038,223 1083,288 1142,406 1215,576 1275,717 1330,813 1379,866 1428,918 1490,944 1564,944 1589,944 1625,938 1671,927 L 1660,894 C 1631,894 1608,889 1591,879 1566,864 1542,839 1518,803 1494,767 1460,701 1417,604 1349,448 1289,335 1236,265 1197,214 1148,165 1090,120 1031,74 974,40 920,17 866,-6 808,-21 746,-28 L 606,-442 497,-442 637,-28 C 551,-17 482,15 432,67 381,118 353,184 346,263 341,323 358,437 397,606 420,707 432,775 432,810 433,845 426,868 411,881 402,890 382,894 351,894 L 362,927 C 422,938 462,944 483,944 522,944 555,933 580,911 606,888 620,854 621,809 622,764 609,686 580,575 538,410 517,295 517,228 517,161 528,114 550,87 572,59 608,39 657,28 L 958,916 1067,916 Z " transform="translate(16428,14093) scale(0.241,-0.241)" fill="rgb(0,0,0)" stroke="none"/></g><g class="OutlinedText"><path d="M 1067,916 L 766,28 C 820,38 868,57 909,84 949,111 992,158 1038,223 1083,288 1142,406 1215,576 1275,717 1330,813 1379,866 1428,918 1490,944 1564,944 1589,944 1625,938 1671,927 L 1660,894 C 1631,894 1608,889 1591,879 1566,864 1542,839 1518,803 1494,767 1460,701 1417,604 1349,448 1289,335 1236,265 1197,214 1148,165 1090,120 1031,74 974,40 920,17 866,-6 808,-21 746,-28 L 606,-442 497,-442 637,-28 C 551,-17 482,15 432,67 381,118 353,184 346,263 341,323 358,437 397,606 420,707 432,775 432,810 433,845 426,868 411,881 402,890 382,894 351,894 L 362,927 C 422,938 462,944 483,944 522,944 555,933 580,911 606,888 620,854 621,809 622,764 609,686 580,575 538,410 517,295 517,228 517,161 528,114 550,87 572,59 608,39 657,28 L 958,916 1067,916 Z " transform="translate(13834,14093) scale(0.241,-0.241)" fill="rgb(0,0,0)" stroke="none"/></g><g class="OutlinedText"><path d="M 1067,916 L 766,28 C 820,38 868,57 909,84 949,111 992,158 1038,223 1083,288 1142,406 1215,576 1275,717 1330,813 1379,866 1428,918 1490,944 1564,944 1589,944 1625,938 1671,927 L 1660,894 C 1631,894 1608,889 1591,879 1566,864 1542,839 1518,803 1494,767 1460,701 1417,604 1349,448 1289,335 1236,265 1197,214 1148,165 1090,120 1031,74 974,40 920,17 866,-6 808,-21 746,-28 L 606,-442 497,-442 637,-28 C 551,-17 482,15 432,67 381,118 353,184 346,263 341,323 358,437 397,606 420,707 432,775 432,810 433,845 426,868 411,881 402,890 382,894 351,894 L 362,927 C 422,938 462,944 483,944 522,944 555,933 580,911 606,888 620,854 621,809 622,764 609,686 580,575 538,410 517,295 517,228 517,161 528,114 550,87 572,59 608,39 657,28 L 958,916 1067,916 Z " transform="translate(11217,14093) scale(0.241,-0.241)" fill="rgb(0,0,0)" stroke="none"/></g><g class="OutlinedText"><path d="M 1067,916 L 766,28 C 820,38 868,57 909,84 949,111 992,158 1038,223 1083,288 1142,406 1215,576 1275,717 1330,813 1379,866 1428,918 1490,944 1564,944 1589,944 1625,938 1671,927 L 1660,894 C 1631,894 1608,889 1591,879 1566,864 1542,839 1518,803 1494,767 1460,701 1417,604 1349,448 1289,335 1236,265 1197,214 1148,165 1090,120 1031,74 974,40 920,17 866,-6 808,-21 746,-28 L 606,-442 497,-442 637,-28 C 551,-17 482,15 432,67 381,118 353,184 346,263 341,323 358,437 397,606 420,707 432,775 432,810 433,845 426,868 411,881 402,890 382,894 351,894 L 362,927 C 422,938 462,944 483,944 522,944 555,933 580,911 606,888 620,854 621,809 622,764 609,686 580,575 538,410 517,295 517,228 517,161 528,114 550,87 572,59 608,39 657,28 L 958,916 1067,916 Z " transform="translate(8692,14093) scale(0.241,-0.241)" fill="rgb(0,0,0)" stroke="none"/></g><g class="OutlinedText"><path d="M 1067,916 L 766,28 C 820,38 868,57 909,84 949,111 992,158 1038,223 1083,288 1142,406 1215,576 1275,717 1330,813 1379,866 1428,918 1490,944 1564,944 1589,944 1625,938 1671,927 L 1660,894 C 1631,894 1608,889 1591,879 1566,864 1542,839 1518,803 1494,767 1460,701 1417,604 1349,448 1289,335 1236,265 1197,214 1148,165 1090,120 1031,74 974,40 920,17 866,-6 808,-21 746,-28 L 606,-442 497,-442 637,-28 C 551,-17 482,15 432,67 381,118 353,184 346,263 341,323 358,437 397,606 420,707 432,775 432,810 433,845 426,868 411,881 402,890 382,894 351,894 L 362,927 C 422,938 462,944 483,944 522,944 555,933 580,911 606,888 620,854 621,809 622,764 609,686 580,575 538,410 517,295 517,228 517,161 528,114 550,87 572,59 608,39 657,28 L 958,916 1067,916 Z " transform="translate(7286,14093) scale(0.241,-0.241)" fill="rgb(0,0,0)" stroke="none"/></g><text class="SVGTextShape"><tspan class="TextParagraph"><tspan class="TextPosition" x="16997" y="14093"><tspan font-family="Times New Roman, serif" font-size="494px" font-style="italic" font-weight="400" lengthAdjust="spacingAndGlyphs" textLength="297" fill="rgb(0,0,0)" stroke="none" style="white-space: pre">X</tspan></tspan></tspan></text>
        <text class="SVGTextShape"><tspan class="TextParagraph"><tspan class="TextPosition" x="15375" y="14093"><tspan font-family="Times New Roman, serif" font-size="494px" font-style="italic" font-weight="400" lengthAdjust="spacingAndGlyphs" textLength="459" fill="rgb(0,0,0)" stroke="none" style="white-space: pre">dx</tspan></tspan></tspan></text>
        <text class="SVGTextShape"><tspan class="TextParagraph"><tspan class="TextPosition" x="15060" y="14093"><tspan font-family="Times New Roman, serif" font-size="494px" font-style="italic" font-weight="400" lengthAdjust="spacingAndGlyphs" textLength="216" fill="rgb(0,0,0)" stroke="none" style="white-space: pre">x</tspan></tspan></tspan></text>
        <text class="SVGTextShape"><tspan class="TextParagraph"><tspan class="TextPosition" x="14813" y="14093"><tspan font-family="Times New Roman, serif" font-size="494px" font-style="italic" font-weight="400" lengthAdjust="spacingAndGlyphs" textLength="243" fill="rgb(0,0,0)" stroke="none" style="white-space: pre">d</tspan></tspan></tspan></text>
        <text class="SVGTextShape"><tspan class="TextParagraph"><tspan class="TextPosition" x="14429" y="14093"><tspan font-family="Times New Roman, serif" font-size="494px" font-style="italic" font-weight="400" lengthAdjust="spacingAndGlyphs" textLength="216" fill="rgb(0,0,0)" stroke="none" style="white-space: pre">x</tspan></tspan></tspan></text>
        <text class="SVGTextShape"><tspan class="TextParagraph"><tspan class="TextPosition" x="13404" y="14093"><tspan font-family="Times New Roman, serif" font-size="494px" font-style="italic" font-weight="400" lengthAdjust="spacingAndGlyphs" textLength="216" fill="rgb(0,0,0)" stroke="none" style="white-space: pre">x</tspan></tspan></tspan></text>
        <text class="SVGTextShape"><tspan class="TextParagraph"><tspan class="TextPosition" x="12985" y="14093"><tspan font-family="Times New Roman, serif" font-size="494px" font-style="italic" font-weight="400" lengthAdjust="spacingAndGlyphs" textLength="216" fill="rgb(0,0,0)" stroke="none" style="white-space: pre">x</tspan></tspan></tspan></text>
        <text class="SVGTextShape"><tspan class="TextParagraph"><tspan class="TextPosition" x="12422" y="14093"><tspan font-family="Times New Roman, serif" font-size="494px" font-style="italic" font-weight="400" lengthAdjust="spacingAndGlyphs" textLength="297" fill="rgb(0,0,0)" stroke="none" style="white-space: pre">X</tspan></tspan></tspan></text>
        <text class="SVGTextShape"><tspan class="TextParagraph"><tspan class="TextPosition" x="11999" y="14093"><tspan font-family="Times New Roman, serif" font-size="494px" font-style="italic" font-weight="400" lengthAdjust="spacingAndGlyphs" textLength="216" fill="rgb(0,0,0)" stroke="none" style="white-space: pre">x</tspan></tspan></tspan></text>
        <text class="SVGTextShape"><tspan class="TextParagraph"><tspan class="TextPosition" x="9671" y="14093"><tspan font-family="Times New Roman, serif" font-size="494px" font-style="italic" font-weight="400" lengthAdjust="spacingAndGlyphs" textLength="459" fill="rgb(0,0,0)" stroke="none" style="white-space: pre">dx</tspan></tspan></tspan></text>
        <text class="SVGTextShape"><tspan class="TextParagraph"><tspan class="TextPosition" x="9286" y="14093"><tspan font-family="Times New Roman, serif" font-size="494px" font-style="italic" font-weight="400" lengthAdjust="spacingAndGlyphs" textLength="216" fill="rgb(0,0,0)" stroke="none" style="white-space: pre">x</tspan></tspan></tspan></text>
        <text class="SVGTextShape"><tspan class="TextParagraph"><tspan class="TextPosition" x="8476" y="14093"><tspan font-family="Times New Roman, serif" font-size="494px" font-style="italic" font-weight="400" lengthAdjust="spacingAndGlyphs" textLength="216" fill="rgb(0,0,0)" stroke="none" style="white-space: pre">x</tspan></tspan></tspan></text>
        <text class="SVGTextShape"><tspan class="TextParagraph"><tspan class="TextPosition" x="8068" y="14093"><tspan font-family="Times New Roman, serif" font-size="494px" font-style="italic" font-weight="400" lengthAdjust="spacingAndGlyphs" textLength="216" fill="rgb(0,0,0)" stroke="none" style="white-space: pre">x</tspan></tspan></tspan></text>
        <text class="SVGTextShape"><tspan class="TextParagraph"><tspan class="TextPosition" x="5852" y="14093"><tspan font-family="Times New Roman, serif" font-size="494px" font-style="italic" font-weight="400" lengthAdjust="spacingAndGlyphs" textLength="676" fill="rgb(0,0,0)" stroke="none" style="white-space: pre">xdx</tspan></tspan></tspan></text>
        <text class="SVGTextShape"><tspan class="TextParagraph"><tspan class="TextPosition" x="5483" y="14093"><tspan font-family="Times New Roman, serif" font-size="494px" font-style="italic" font-weight="400" lengthAdjust="spacingAndGlyphs" textLength="216" fill="rgb(0,0,0)" stroke="none" style="white-space: pre">x</tspan></tspan></tspan></text>
        <text class="SVGTextShape"><tspan class="TextParagraph"><tspan class="TextPosition" x="5043" y="14093"><tspan font-family="Times New Roman, serif" font-size="494px" font-style="italic" font-weight="400" lengthAdjust="spacingAndGlyphs" textLength="243" fill="rgb(0,0,0)" stroke="none" style="white-space: pre">p</tspan></tspan></tspan></text>
        <text class="SVGTextShape"><tspan class="TextParagraph"><tspan class="TextPosition" x="3777" y="14093"><tspan font-family="Times New Roman, serif" font-size="494px" font-style="italic" font-weight="400" lengthAdjust="spacingAndGlyphs" textLength="216" fill="rgb(0,0,0)" stroke="none" style="white-space: pre">x</tspan></tspan></tspan></text>
        <g class="OutlinedText"><path d="M 37,759 L 1087,759 1087,662 37,662 37,759 Z M 37,386 L 1087,386 1087,287 37,287 37,386 Z " transform="translate(15955,14093) scale(0.241,-0.241)" fill="rgb(0,0,0)" stroke="none"/></g><g class="OutlinedText"><path d="M 121,803 L 152,1099 C 161,1183 169,1240 178,1269 191,1311 209,1341 232,1360 255,1378 280,1387 309,1387 333,1387 352,1380 366,1367 380,1354 387,1337 387,1316 387,1300 384,1283 377,1265 368,1240 344,1184 303,1098 L 165,803 121,803 Z " transform="translate(15291,14065) scale(0.241,-0.241)" fill="rgb(0,0,0)" stroke="none"/></g><g class="OutlinedText"><path d="M 121,803 L 152,1099 C 161,1183 169,1240 178,1269 191,1311 209,1341 232,1360 255,1378 280,1387 309,1387 333,1387 352,1380 366,1367 380,1354 387,1337 387,1316 387,1300 384,1283 377,1265 368,1240 344,1184 303,1098 L 165,803 121,803 Z " transform="translate(13635,14065) scale(0.241,-0.241)" fill="rgb(0,0,0)" stroke="none"/></g><g class="OutlinedText"><path d="M 37,759 L 1087,759 1087,662 37,662 37,759 Z M 37,386 L 1087,386 1087,287 37,287 37,386 Z " transform="translate(10250,14093) scale(0.241,-0.241)" fill="rgb(0,0,0)" stroke="none"/></g><g class="OutlinedText"><path d="M 37,759 L 1087,759 1087,662 37,662 37,759 Z M 37,386 L 1087,386 1087,287 37,287 37,386 Z " transform="translate(6648,14093) scale(0.241,-0.241)" fill="rgb(0,0,0)" stroke="none"/></g><g class="OutlinedText"><path d="M 37,759 L 1087,759 1087,662 37,662 37,759 Z M 37,386 L 1087,386 1087,287 37,287 37,386 Z " transform="translate(4273,14093) scale(0.241,-0.241)" fill="rgb(0,0,0)" stroke="none"/></g><g class="OutlinedText"><path d="M 201,948 C 213,1315 221,1515 224,1546 239,1670 266,1754 305,1798 343,1841 386,1863 435,1863 468,1863 498,1852 523,1830 548,1807 560,1783 560,1756 560,1725 551,1700 534,1681 516,1662 494,1652 468,1652 445,1652 419,1664 392,1688 377,1701 363,1708 352,1708 341,1708 331,1703 324,1694 316,1684 312,1667 312,1644 312,1616 315,1568 321,1499 346,1226 358,1004 358,834 358,789 353,593 342,246 337,49 307,-84 252,-153 216,-198 171,-220 118,-220 83,-220 55,-209 33,-186 11,-163 0,-134 0,-99 0,-69 9,-45 26,-27 43,-9 64,0 90,0 117,0 140,-11 159,-32 178,-53 195,-64 208,-64 219,-64 229,-59 236,-50 243,-41 247,-25 247,-3 247,25 244,65 238,117 213,327 201,604 201,948 Z " transform="translate(10699,14257) scale(0.345,-0.345)" fill="rgb(0,0,0)" stroke="none"/></g><g class="OutlinedText"><path d="M 201,948 C 213,1315 221,1515 224,1546 239,1670 266,1754 305,1798 343,1841 386,1863 435,1863 468,1863 498,1852 523,1830 548,1807 560,1783 560,1756 560,1725 551,1700 534,1681 516,1662 494,1652 468,1652 445,1652 419,1664 392,1688 377,1701 363,1708 352,1708 341,1708 331,1703 324,1694 316,1684 312,1667 312,1644 312,1616 315,1568 321,1499 346,1226 358,1004 358,834 358,789 353,593 342,246 337,49 307,-84 252,-153 216,-198 171,-220 118,-220 83,-220 55,-209 33,-186 11,-163 0,-134 0,-99 0,-69 9,-45 26,-27 43,-9 64,0 90,0 117,0 140,-11 159,-32 178,-53 195,-64 208,-64 219,-64 229,-59 236,-50 243,-41 247,-25 247,-3 247,25 244,65 238,117 213,327 201,604 201,948 Z " transform="translate(11028,14257) scale(0.345,-0.345)" fill="rgb(0,0,0)" stroke="none"/></g><g class="OutlinedText"><path d="M 201,948 C 213,1315 221,1515 224,1546 239,1670 266,1754 305,1798 343,1841 386,1863 435,1863 468,1863 498,1852 523,1830 548,1807 560,1783 560,1756 560,1725 551,1700 534,1681 516,1662 494,1652 468,1652 445,1652 419,1664 392,1688 377,1701 363,1708 352,1708 341,1708 331,1703 324,1694 316,1684 312,1667 312,1644 312,1616 315,1568 321,1499 346,1226 358,1004 358,834 358,789 353,593 342,246 337,49 307,-84 252,-153 216,-198 171,-220 118,-220 83,-220 55,-209 33,-186 11,-163 0,-134 0,-99 0,-69 9,-45 26,-27 43,-9 64,0 90,0 117,0 140,-11 159,-32 178,-53 195,-64 208,-64 219,-64 229,-59 236,-50 243,-41 247,-25 247,-3 247,25 244,65 238,117 213,327 201,604 201,948 Z " transform="translate(7096,14257) scale(0.345,-0.345)" fill="rgb(0,0,0)" stroke="none"/></g><g class="OutlinedText"><path d="M 201,948 C 213,1315 221,1515 224,1546 239,1670 266,1754 305,1798 343,1841 386,1863 435,1863 468,1863 498,1852 523,1830 548,1807 560,1783 560,1756 560,1725 551,1700 534,1681 516,1662 494,1652 468,1652 445,1652 419,1664 392,1688 377,1701 363,1708 352,1708 341,1708 331,1703 324,1694 316,1684 312,1667 312,1644 312,1616 315,1568 321,1499 346,1226 358,1004 358,834 358,789 353,593 342,246 337,49 307,-84 252,-153 216,-198 171,-220 118,-220 83,-220 55,-209 33,-186 11,-163 0,-134 0,-99 0,-69 9,-45 26,-27 43,-9 64,0 90,0 117,0 140,-11 159,-32 178,-53 195,-64 208,-64 219,-64 229,-59 236,-50 243,-41 247,-25 247,-3 247,25 244,65 238,117 213,327 201,604 201,948 Z " transform="translate(4722,14257) scale(0.345,-0.345)" fill="rgb(0,0,0)" stroke="none"/></g><g class="OutlinedText"><path d="M 514,1050 L 612,1050 612,572 1087,572 1087,475 612,475 612,0 514,0 514,475 37,475 37,572 514,572 514,1050 Z " transform="translate(10640,13555) scale(0.121,-0.121)" fill="rgb(0,0,0)" stroke="none"/><path d="M 654,667 C 699,771 749,843 803,884 857,924 931,944 1024,944 1131,944 1222,905 1296,828 1370,751 1407,650 1407,527 1407,405 1371,305 1299,226 1227,147 1147,107 1058,107 992,107 931,131 874,180 837,212 786,283 721,393 678,310 632,251 581,215 530,178 469,160 397,160 301,160 220,194 154,263 87,332 54,420 54,529 54,639 85,728 146,795 207,862 279,896 361,896 418,896 469,881 513,852 557,822 604,760 654,667 Z M 750,464 C 800,360 849,290 898,255 947,219 1001,201 1062,201 1144,201 1213,231 1268,290 1323,349 1350,428 1350,527 1350,625 1321,706 1263,770 1205,834 1140,866 1068,866 1022,866 982,854 948,831 913,808 882,770 854,719 838,689 803,604 750,464 Z M 625,590 C 592,663 555,717 513,752 471,787 419,804 358,804 287,804 228,779 181,730 133,680 109,613 109,530 109,441 133,371 180,318 227,265 280,238 339,238 402,238 458,266 507,323 538,360 578,449 625,590 Z " transform="translate(10779.834,13555) scale(0.121,-0.121)" fill="rgb(0,0,0)" stroke="none"/></g><g class="OutlinedText"><path d="M 654,667 C 699,771 749,843 803,884 857,924 931,944 1024,944 1131,944 1222,905 1296,828 1370,751 1407,650 1407,527 1407,405 1371,305 1299,226 1227,147 1147,107 1058,107 992,107 931,131 874,180 837,212 786,283 721,393 678,310 632,251 581,215 530,178 469,160 397,160 301,160 220,194 154,263 87,332 54,420 54,529 54,639 85,728 146,795 207,862 279,896 361,896 418,896 469,881 513,852 557,822 604,760 654,667 Z M 750,464 C 800,360 849,290 898,255 947,219 1001,201 1062,201 1144,201 1213,231 1268,290 1323,349 1350,428 1350,527 1350,625 1321,706 1263,770 1205,834 1140,866 1068,866 1022,866 982,854 948,831 913,808 882,770 854,719 838,689 803,604 750,464 Z M 625,590 C 592,663 555,717 513,752 471,787 419,804 358,804 287,804 228,779 181,730 133,680 109,613 109,530 109,441 133,371 180,318 227,265 280,238 339,238 402,238 458,266 507,323 538,360 578,449 625,590 Z " transform="translate(10780,14570) scale(0.121,-0.121)" fill="rgb(0,0,0)" stroke="none"/></g><g class="OutlinedText"><path d="M 37,576 L 1087,576 1087,477 37,477 37,576 Z " transform="translate(10634,14570) scale(0.121,-0.121)" fill="rgb(0,0,0)" stroke="none"/></g><g class="OutlinedText"><path d="M 514,1050 L 612,1050 612,572 1087,572 1087,475 612,475 612,0 514,0 514,475 37,475 37,572 514,572 514,1050 Z " transform="translate(10968,13555) scale(0.121,-0.121)" fill="rgb(0,0,0)" stroke="none"/><path d="M 654,667 C 699,771 749,843 803,884 857,924 931,944 1024,944 1131,944 1222,905 1296,828 1370,751 1407,650 1407,527 1407,405 1371,305 1299,226 1227,147 1147,107 1058,107 992,107 931,131 874,180 837,212 786,283 721,393 678,310 632,251 581,215 530,178 469,160 397,160 301,160 220,194 154,263 87,332 54,420 54,529 54,639 85,728 146,795 207,862 279,896 361,896 418,896 469,881 513,852 557,822 604,760 654,667 Z M 750,464 C 800,360 849,290 898,255 947,219 1001,201 1062,201 1144,201 1213,231 1268,290 1323,349 1350,428 1350,527 1350,625 1321,706 1263,770 1205,834 1140,866 1068,866 1022,866 982,854 948,831 913,808 882,770 854,719 838,689 803,604 750,464 Z M 625,590 C 592,663 555,717 513,752 471,787 419,804 358,804 287,804 228,779 181,730 133,680 109,613 109,530 109,441 133,371 180,318 227,265 280,238 339,238 402,238 458,266 507,323 538,360 578,449 625,590 Z " transform="translate(11107.834,13555) scale(0.121,-0.121)" fill="rgb(0,0,0)" stroke="none"/></g><g class="OutlinedText"><path d="M 654,667 C 699,771 749,843 803,884 857,924 931,944 1024,944 1131,944 1222,905 1296,828 1370,751 1407,650 1407,527 1407,405 1371,305 1299,226 1227,147 1147,107 1058,107 992,107 931,131 874,180 837,212 786,283 721,393 678,310 632,251 581,215 530,178 469,160 397,160 301,160 220,194 154,263 87,332 54,420 54,529 54,639 85,728 146,795 207,862 279,896 361,896 418,896 469,881 513,852 557,822 604,760 654,667 Z M 750,464 C 800,360 849,290 898,255 947,219 1001,201 1062,201 1144,201 1213,231 1268,290 1323,349 1350,428 1350,527 1350,625 1321,706 1263,770 1205,834 1140,866 1068,866 1022,866 982,854 948,831 913,808 882,770 854,719 838,689 803,604 750,464 Z M 625,590 C 592,663 555,717 513,752 471,787 419,804 358,804 287,804 228,779 181,730 133,680 109,613 109,530 109,441 133,371 180,318 227,265 280,238 339,238 402,238 458,266 507,323 538,360 578,449 625,590 Z " transform="translate(11108,14570) scale(0.121,-0.121)" fill="rgb(0,0,0)" stroke="none"/></g><g class="OutlinedText"><path d="M 37,576 L 1087,576 1087,477 37,477 37,576 Z " transform="translate(10963,14570) scale(0.121,-0.121)" fill="rgb(0,0,0)" stroke="none"/></g><g class="OutlinedText"><path d="M 514,1050 L 612,1050 612,572 1087,572 1087,475 612,475 612,0 514,0 514,475 37,475 37,572 514,572 514,1050 Z " transform="translate(7037,13555) scale(0.121,-0.121)" fill="rgb(0,0,0)" stroke="none"/><path d="M 654,667 C 699,771 749,843 803,884 857,924 931,944 1024,944 1131,944 1222,905 1296,828 1370,751 1407,650 1407,527 1407,405 1371,305 1299,226 1227,147 1147,107 1058,107 992,107 931,131 874,180 837,212 786,283 721,393 678,310 632,251 581,215 530,178 469,160 397,160 301,160 220,194 154,263 87,332 54,420 54,529 54,639 85,728 146,795 207,862 279,896 361,896 418,896 469,881 513,852 557,822 604,760 654,667 Z M 750,464 C 800,360 849,290 898,255 947,219 1001,201 1062,201 1144,201 1213,231 1268,290 1323,349 1350,428 1350,527 1350,625 1321,706 1263,770 1205,834 1140,866 1068,866 1022,866 982,854 948,831 913,808 882,770 854,719 838,689 803,604 750,464 Z M 625,590 C 592,663 555,717 513,752 471,787 419,804 358,804 287,804 228,779 181,730 133,680 109,613 109,530 109,441 133,371 180,318 227,265 280,238 339,238 402,238 458,266 507,323 538,360 578,449 625,590 Z " transform="translate(7176.834,13555) scale(0.121,-0.121)" fill="rgb(0,0,0)" stroke="none"/></g><g class="OutlinedText"><path d="M 654,667 C 699,771 749,843 803,884 857,924 931,944 1024,944 1131,944 1222,905 1296,828 1370,751 1407,650 1407,527 1407,405 1371,305 1299,226 1227,147 1147,107 1058,107 992,107 931,131 874,180 837,212 786,283 721,393 678,310 632,251 581,215 530,178 469,160 397,160 301,160 220,194 154,263 87,332 54,420 54,529 54,639 85,728 146,795 207,862 279,896 361,896 418,896 469,881 513,852 557,822 604,760 654,667 Z M 750,464 C 800,360 849,290 898,255 947,219 1001,201 1062,201 1144,201 1213,231 1268,290 1323,349 1350,428 1350,527 1350,625 1321,706 1263,770 1205,834 1140,866 1068,866 1022,866 982,854 948,831 913,808 882,770 854,719 838,689 803,604 750,464 Z M 625,590 C 592,663 555,717 513,752 471,787 419,804 358,804 287,804 228,779 181,730 133,680 109,613 109,530 109,441 133,371 180,318 227,265 280,238 339,238 402,238 458,266 507,323 538,360 578,449 625,590 Z " transform="translate(7177,14570) scale(0.121,-0.121)" fill="rgb(0,0,0)" stroke="none"/></g><g class="OutlinedText"><path d="M 37,576 L 1087,576 1087,477 37,477 37,576 Z " transform="translate(7031,14570) scale(0.121,-0.121)" fill="rgb(0,0,0)" stroke="none"/></g><g class="OutlinedText"><path d="M 514,1050 L 612,1050 612,572 1087,572 1087,475 612,475 612,0 514,0 514,475 37,475 37,572 514,572 514,1050 Z " transform="translate(4662,13555) scale(0.121,-0.121)" fill="rgb(0,0,0)" stroke="none"/><path d="M 654,667 C 699,771 749,843 803,884 857,924 931,944 1024,944 1131,944 1222,905 1296,828 1370,751 1407,650 1407,527 1407,405 1371,305 1299,226 1227,147 1147,107 1058,107 992,107 931,131 874,180 837,212 786,283 721,393 678,310 632,251 581,215 530,178 469,160 397,160 301,160 220,194 154,263 87,332 54,420 54,529 54,639 85,728 146,795 207,862 279,896 361,896 418,896 469,881 513,852 557,822 604,760 654,667 Z M 750,464 C 800,360 849,290 898,255 947,219 1001,201 1062,201 1144,201 1213,231 1268,290 1323,349 1350,428 1350,527 1350,625 1321,706 1263,770 1205,834 1140,866 1068,866 1022,866 982,854 948,831 913,808 882,770 854,719 838,689 803,604 750,464 Z M 625,590 C 592,663 555,717 513,752 471,787 419,804 358,804 287,804 228,779 181,730 133,680 109,613 109,530 109,441 133,371 180,318 227,265 280,238 339,238 402,238 458,266 507,323 538,360 578,449 625,590 Z " transform="translate(4801.834,13555) scale(0.121,-0.121)" fill="rgb(0,0,0)" stroke="none"/></g><g class="OutlinedText"><path d="M 654,667 C 699,771 749,843 803,884 857,924 931,944 1024,944 1131,944 1222,905 1296,828 1370,751 1407,650 1407,527 1407,405 1371,305 1299,226 1227,147 1147,107 1058,107 992,107 931,131 874,180 837,212 786,283 721,393 678,310 632,251 581,215 530,178 469,160 397,160 301,160 220,194 154,263 87,332 54,420 54,529 54,639 85,728 146,795 207,862 279,896 361,896 418,896 469,881 513,852 557,822 604,760 654,667 Z M 750,464 C 800,360 849,290 898,255 947,219 1001,201 1062,201 1144,201 1213,231 1268,290 1323,349 1350,428 1350,527 1350,625 1321,706 1263,770 1205,834 1140,866 1068,866 1022,866 982,854 948,831 913,808 882,770 854,719 838,689 803,604 750,464 Z M 625,590 C 592,663 555,717 513,752 471,787 419,804 358,804 287,804 228,779 181,730 133,680 109,613 109,530 109,441 133,371 180,318 227,265 280,238 339,238 402,238 458,266 507,323 538,360 578,449 625,590 Z " transform="translate(4802,14570) scale(0.121,-0.121)" fill="rgb(0,0,0)" stroke="none"/></g><g class="OutlinedText"><path d="M 37,576 L 1087,576 1087,477 37,477 37,576 Z " transform="translate(4657,14570) scale(0.121,-0.121)" fill="rgb(0,0,0)" stroke="none"/></g><text class="SVGTextShape"><tspan class="TextParagraph"><tspan class="TextPosition" x="13209" y="14093"><tspan font-family="Times New Roman, serif" font-size="494px" font-weight="400" lengthAdjust="spacingAndGlyphs" textLength="122" fill="rgb(0,0,0)" stroke="none" style="white-space: pre">,</tspan></tspan></tspan></text>
        <text class="SVGTextShape"><tspan class="TextParagraph"><tspan class="TextPosition" x="11645" y="13872"><tspan font-family="Times New Roman, serif" font-size="247px" font-weight="400" lengthAdjust="spacingAndGlyphs" textLength="127" fill="rgb(0,0,0)" stroke="none" style="white-space: pre">*</tspan></tspan></tspan></text>
        <text class="SVGTextShape"><tspan class="TextParagraph"><tspan class="TextPosition" x="7714" y="13872"><tspan font-family="Times New Roman, serif" font-size="247px" font-weight="400" lengthAdjust="spacingAndGlyphs" textLength="127" fill="rgb(0,0,0)" stroke="none" style="white-space: pre">*</tspan></tspan></tspan></text>
       </g>
      </g>
     </g>
    </g>
   </g>
  </g>
 </g>
</svg>