<?xml version='1.0' encoding='utf-8'?>
<svg xmlns="http://www.w3.org/2000/svg" width="200.0mm" height="105.0mm" viewBox="-16542 245423 446701 234598"><defs><style>.C1 {stroke: #000000; stroke-width: 678; stroke-opacity: 1.000; fill: none; fill-opacity: 1.000;}</style><style>.C2 {stroke: none; stroke-width: none; stroke-opacity: 1.000; fill: #000000; fill-opacity: 1.000;}</style></defs><rect fill="#ffffff" x="-16542" y="245423" width="446701" height="234598" fill-opacity="1.0" /><g stroke-linecap="round" stroke-linejoin="round"><path d="M 175624 364939 l 62368 0" class="C1" /><path d="M 237992 362227 l -62368 0" class="C1" /><path d="M 237992 324264 l -62368 0" class="C1" /><path d="M 175624 321552 l 62368 0" class="C1" /><path d="M 28206 268549 c -23989 46909 -23989 102485 0 149394" class="C1" /><path d="M 26998 267931 c -24188 47297 -24188 103332 0 150629" class="C1" /><path d="M 170201 364939 l -31326 0 c -1428 0 -2831 376 -4067 1090 l -98912 57107 c -1931 1115 -4234 1388 -6372 757 c -2138 -632 -3923 -2113 -4938 -4098 c -24584 -48072 -24584 -105026 0 -153098 c 1015 -1985 2800 -3466 4938 -4098 c 2138 -632 4441 -358 6372 757 l 98912 57107 c 1237 714 2639 1090 4067 1090 l 31326 0" class="C1" /><path d="M 133451 363680 l -98912 57107" class="C1" /><path d="M 26998 418560 c 677 1323 1867 2311 3292 2732 c 1425 421 2961 239 4248 -504" class="C1" /><path d="M 138874 362227 c -1904 0 -3774 501 -5423 1453" class="C1" /><path d="M 170201 362227 l -31326 0" class="C1" /><path d="M 176980 364939 l 0 5423" class="C1" /><path d="M 168845 364939 l 0 5423" class="C1" /><path d="M 168845 370362 l 8135 0" class="C1" /><path d="M 170201 362227 l 0 2712" class="C1" /><path d="M 175624 362227 l 0 2712" class="C1" /><path d="M 34539 265704 l 98912 57107" class="C1" /><path d="M 34539 265704 c -1287 -743 -2823 -925 -4248 -504 c -1425 421 -2615 1409 -3292 2732" class="C1" /><path d="M 133451 322811 c 1649 952 3519 1453 5423 1453" class="C1" /><path d="M 138874 324264 l 31326 0" class="C1" /><path d="M 175624 324264 l 0 -2712" class="C1" /><path d="M 170201 321552 l 0 2712" class="C1" /><path d="M 176980 316129 l -8135 0" class="C1" /><path d="M 168845 316129 l 0 5423" class="C1" /><path d="M 176980 321552 l 0 -5423" class="C1" /><path d="M 385410 417942 c 23989 -46909 23989 -102485 0 -149394" class="C1" /><path d="M 386617 418560 c 24188 -47297 24188 -103332 0 -150629" class="C1" /><path d="M 243415 364939 l 31326 0 c 1428 0 2831 376 4067 1090 l 98912 57107 c 1931 1115 4234 1388 6372 757 c 2138 -632 3923 -2113 4938 -4098 c 24584 -48072 24584 -105026 0 -153098 c -1015 -1985 -2800 -3466 -4938 -4098 c -2138 -632 -4441 -358 -6372 757 l -98912 57107 c -1237 714 -2639 1090 -4067 1090 l -31326 0" class="C1" /><path d="M 280165 363680 l 98912 57107" class="C1" /><path d="M 243415 362227 l 31326 0" class="C1" /><path d="M 244771 370362 l -8135 0" class="C1" /><path d="M 236636 364939 l 0 5423" class="C1" /><path d="M 237992 362227 l 0 2712" class="C1" /><path d="M 243415 362227 l 0 2712" class="C1" /><path d="M 244771 364939 l 0 5423" class="C1" /><path d="M 280165 363680 c -1649 -952 -3519 -1453 -5423 -1453" class="C1" /><path d="M 379077 420787 c 1287 743 2823 925 4248 504 c 1425 -421 2615 -1409 3292 -2732" class="C1" /><path d="M 379077 265704 l -98912 57107" class="C1" /><path d="M 274741 324264 l -31326 0" class="C1" /><path d="M 236636 316129 l 8135 0" class="C1" /><path d="M 237992 324264 l 0 -2712" class="C1" /><path d="M 243415 321552 l 0 2712" class="C1" /><path d="M 236636 321552 l 0 -5423" class="C1" /><path d="M 244771 316129 l 0 5423" class="C1" /><path d="M 274741 324264 c 1904 0 3774 -501 5423 -1453" class="C1" /><path d="M 386617 267931 c -677 -1323 -1867 -2311 -3292 -2732 c -1425 -421 -2961 -239 -4248 504" class="C1" /><path d="M 238670 370362 l 10 199 29 197 48 194 67 188 85 180 103 171 119 160 134 148 148 134 160 119 171 103 180 85 188 67 194 48 197 29 199 10 199 -10 197 -29 194 -48 188 -67 180 -85 171 -103 160 -119 148 -134 134 -148 119 -160 103 -171 85 -180 67 -188 48 -194 29 -197 10 -199 -2034 0 Z" class="C2" /><path d="M 242737 370362 l -10 -199 -29 -197 -48 -194 -67 -188 -85 -180 -103 -171 -119 -160 -134 -148 -148 -134 -160 -119 -171 -103 -180 -85 -188 -67 -194 -48 -197 -29 -199 -10 -199 10 -197 29 -194 48 -188 67 -180 85 -171 103 -160 119 -148 134 -134 148 -119 160 -103 171 -85 180 -67 188 -48 194 -29 197 -10 199 2034 0 Z" class="C2" /><path d="M 170878 370362 l 10 199 29 197 48 194 67 188 85 180 103 171 119 160 134 148 148 134 160 119 171 103 180 85 188 67 194 48 197 29 199 10 199 -10 197 -29 194 -48 188 -67 180 -85 171 -103 160 -119 148 -134 134 -148 119 -160 103 -171 85 -180 67 -188 48 -194 29 -197 10 -199 -2034 0 Z" class="C2" /><path d="M 174946 370362 l -10 -199 -29 -197 -48 -194 -67 -188 -85 -180 -103 -171 -119 -160 -134 -148 -148 -134 -160 -119 -171 -103 -180 -85 -188 -67 -194 -48 -197 -29 -199 -10 -199 10 -197 29 -194 48 -188 67 -180 85 -171 103 -160 119 -148 134 -134 148 -119 160 -103 171 -85 180 -67 188 -48 194 -29 197 -10 199 2034 0 Z" class="C2" /><path d="M 240703 370362 l 0 72828" class="C1" /><path d="M 172912 370362 l 0 72828" class="C1" /><path d="M 172912 443190 l 13610 0" class="C1" /><path d="M 227093 443190 c 0 11203 -9082 20286 -20286 20286 c -11203 0 -20286 -9082 -20286 -20286 c 0 -11203 9082 -20286 20286 -20286 c 11203 0 20286 9082 20286 20286" class="C1" /><path d="M 227093 443190 l 13610 0" class="C1" /><path d="M 213203 443190 l 11553 0" class="C1" /><path d="M 218980 438054 l 0 10479" class="C1" /><path d="M 189792 443190 l 11553 0" class="C1" /><path d="M 168845 345957 l 0 16270" class="C1" /><path d="M 176980 345957 l 0 16270" class="C1" /><path d="M 168845 324264 l 0 16270" class="C1" /><path d="M 176980 340534 l 0 -16270" class="C1" /><path d="M 176980 345957 l -8135 0" class="C1" /><path d="M 168845 340534 l 8135 0" class="C1" /><path d="M 236636 345957 l 0 16270" class="C1" /><path d="M 244771 345957 l 0 16270" class="C1" /><path d="M 236636 340534 l 0 -16270" class="C1" /><path d="M 244771 324264 l 0 16270" class="C1" /><path d="M 244771 340534 l -8135 0" class="C1" /><path d="M 236636 345957 l 8135 0" class="C1" /><path d="M 200215 343006 c 0 1809 -1467 3276 -3276 3276 c -1809 0 -3276 -1467 -3276 -3276 c 0 -1809 1467 -3276 3276 -3276 c 1809 0 3276 1467 3276 3276" class="C1" /><path d="M 194894 343110 l 4216 0" class="C1" /><path d="M 213398 343110 l 4216 0" class="C1" /><path d="M 218718 343006 c 0 1809 -1467 3276 -3276 3276 c -1809 0 -3276 -1467 -3276 -3276 c 0 -1809 1467 -3276 3276 -3276 c 1809 0 3276 1467 3276 3276" class="C1" /><path d="M 196895 341029 l 0 4012" class="C1" /><path d="M 93996 344747 l 0 -3390 -10169 1695 Z" class="C2" /><path d="M 10214 343052 l 182823 0" class="C1" /><path d="M 403402 343052 l -183885 0" class="C1" /><path d="M 309397 344747 l 0 -3390 10169 1695 Z" class="C2" /><path d="M 400012 343052 l 16 332 49 329 81 323 112 313 142 301 171 285 198 267 223 246 246 223 267 198 285 171 301 142 313 112 323 81 329 49 332 16 332 -16 329 -49 323 -81 313 -112 301 -142 285 -171 267 -198 246 -223 223 -246 198 -267 171 -285 142 -301 112 -313 81 -323 49 -329 16 -332 -3390 0 Z" class="C2" /><path d="M 406791 343052 l -16 -332 -49 -329 -81 -323 -112 -313 -142 -301 -171 -285 -198 -267 -223 -246 -246 -223 -267 -198 -285 -171 -301 -142 -313 -112 -323 -81 -329 -49 -332 -16 -332 16 -329 49 -323 81 -313 112 -301 142 -285 171 -267 198 -246 223 -223 246 -198 267 -171 285 -142 301 -112 313 -81 323 -49 329 -16 332 3390 0 Z" class="C2" /><path d="M 8381 342574 l 16 332 49 329 81 323 112 313 142 301 171 285 198 267 223 246 246 223 267 198 285 171 301 142 313 112 323 81 329 49 332 16 332 -16 329 -49 323 -81 313 -112 301 -142 285 -171 267 -198 246 -223 223 -246 198 -267 171 -285 142 -301 112 -313 81 -323 49 -329 16 -332 -3390 0 Z" class="C2" /><path d="M 15160 342574 l -16 -332 -49 -329 -81 -323 -112 -313 -142 -301 -171 -285 -198 -267 -223 -246 -246 -223 -267 -198 -285 -171 -301 -142 -313 -112 -323 -81 -329 -49 -332 -16 -332 16 -329 49 -323 81 -313 112 -301 142 -285 171 -267 198 -246 223 -223 246 -198 267 -171 285 -142 301 -112 313 -81 323 -49 329 -16 332 3390 0 Z" class="C2" /></g></svg>
