<?xml version='1.0' encoding='UTF-8'?>
<svg xmlns="http://www.w3.org/2000/svg" width="200.0mm" height="63.0mm" viewBox="250646 682782 671282 211572"><defs><style>.C1 {stroke: #000000; stroke-width: 430; stroke-opacity: 1.000; fill: none; fill-opacity: 1.000;}</style><style>.C2 {stroke: none; stroke-width: none; stroke-opacity: 1.000; fill: #000000; fill-opacity: 1.000;}</style></defs><rect fill="#ffffff" x="250646" y="682782" width="671282" height="211572" fill-opacity="1.0"/><g stroke-linecap="round" stroke-linejoin="round"><path d="M 897065 754132 l -404614 0" class="C1"/><path d="M 492451 707645 l 404614 0" class="C1"/><path d="M 492451 869490 l 404614 0" class="C1"/><path d="M 897065 823003 l -404614 0" class="C1"/><path d="M 492451 823003 l 0 46488" class="C1"/><path d="M 492451 754132 l 0 -46488" class="C1"/><path d="M 897065 869490 l 0 -46488" class="C1"/><path d="M 897065 707645 l 0 46488" class="C1"/><path d="M 603289 764032 l 2152 0 -1076 -6457 Z" class="C2"/><path d="M 604366 764032 l 0 29700" class="C1"/><path d="M 658386 769198 l 2152 0 -1076 -6457 Z" class="C2"/><path d="M 659462 769198 l 0 27979" class="C1"/><path d="M 801292 765754 l 2152 0 -1076 -6457 Z" class="C2"/><path d="M 802368 765754 l 0 26257" class="C1"/><path d="M 703582 807937 l -2152 0 1076 6457 Z" class="C2"/><path d="M 702506 807937 l 0 -26257" class="C1"/><path d="M 558954 806216 l -2152 0 1076 6457 Z" class="C2"/><path d="M 557878 806216 l 0 -29700" class="C1"/><path d="M 742752 770919 l 2152 0 -1076 -6457 Z" class="C2"/><path d="M 743828 770919 l 0 38309" class="C1"/><path d="M 487286 730888 l 25 506 74 501 123 492 171 477 217 458 261 435 302 407 340 376 376 340 407 302 435 261 458 217 477 171 492 123 501 74 506 25 506 -25 501 -74 492 -123 477 -171 458 -217 435 -261 407 -302 376 -340 340 -376 302 -407 261 -435 217 -458 171 -477 123 -492 74 -501 25 -506 -5165 0 Z" class="C2"/><path d="M 497616 730888 l -25 -506 -74 -501 -123 -492 -171 -477 -217 -458 -261 -435 -302 -407 -340 -376 -376 -340 -407 -302 -435 -261 -458 -217 -477 -171 -492 -123 -501 -74 -506 -25 -506 25 -501 74 -492 123 -477 171 -458 217 -435 261 -407 302 -376 340 -340 376 -302 407 -261 435 -217 458 -171 477 -123 492 -74 501 -25 506 5165 0 Z" class="C2"/><path d="M 487286 846247 l 25 506 74 501 123 492 171 477 217 458 261 435 302 407 340 376 376 340 407 302 435 261 458 217 477 171 492 123 501 74 506 25 506 -25 501 -74 492 -123 477 -171 458 -217 435 -261 407 -302 376 -340 340 -376 302 -407 261 -435 217 -458 171 -477 123 -492 74 -501 25 -506 -5165 0 Z" class="C2"/><path d="M 497616 846247 l -25 -506 -74 -501 -123 -492 -171 -477 -217 -458 -261 -435 -302 -407 -340 -376 -376 -340 -407 -302 -435 -261 -458 -217 -477 -171 -492 -123 -501 -74 -506 -25 -506 25 -501 74 -492 123 -477 171 -458 217 -435 261 -407 302 -376 340 -340 376 -302 407 -261 435 -217 458 -171 477 -123 492 -74 501 -25 506 5165 0 Z" class="C2"/><path d="M 492451 730888 l -170455 0" class="C1"/><path d="M 492451 846247 l -170455 0" class="C1"/><path d="M 321996 846247 l 0 -11191" class="C1"/><path d="M 368484 788567 c 0 25674 -20813 46488 -46488 46488 c -25674 0 -46488 -20813 -46488 -46488 c 0 -25674 20813 -46488 46488 -46488 c 25674 0 46488 20813 46488 46488" class="C1"/><path d="M 321996 742080 l 0 -11191" class="C1"/><path d="M 321996 748967 l 0 20661" class="C1"/><path d="M 311666 759298 l 20661 0" class="C1"/><path d="M 311666 821281 l 20661 0" class="C1"/><path d="M 798925 792011 l 17 338 50 334 82 328 114 318 144 305 174 290 201 271 227 250 250 227 271 201 290 174 305 144 318 114 328 82 334 50 338 17 338 -17 334 -50 328 -82 318 -114 305 -144 290 -174 271 -201 250 -227 227 -250 201 -271 174 -290 144 -305 114 -318 82 -328 50 -334 17 -338 -3444 0 Z" class="C2"/><path d="M 805812 792011 l -17 -338 -50 -334 -82 -328 -114 -318 -144 -305 -174 -290 -201 -271 -227 -250 -250 -227 -271 -201 -290 -174 -305 -144 -318 -114 -328 -82 -334 -50 -338 -17 -338 17 -334 50 -328 82 -318 114 -305 144 -290 174 -271 201 -250 227 -227 250 -201 271 -174 290 -144 305 -114 318 -82 328 -50 334 -17 338 3444 0 Z" class="C2"/><path d="M 740385 809229 l 17 338 50 334 82 328 114 318 144 305 174 290 201 271 227 250 250 227 271 201 290 174 305 144 318 114 328 82 334 50 338 17 338 -17 334 -50 328 -82 318 -114 305 -144 290 -174 271 -201 250 -227 227 -250 201 -271 174 -290 144 -305 114 -318 82 -328 50 -334 17 -338 -3444 0 Z" class="C2"/><path d="M 747272 809229 l -17 -338 -50 -334 -82 -328 -114 -318 -144 -305 -174 -290 -201 -271 -227 -250 -250 -227 -271 -201 -290 -174 -305 -144 -318 -114 -328 -82 -334 -50 -338 -17 -338 17 -334 50 -328 82 -318 114 -305 144 -290 174 -271 201 -250 227 -227 250 -201 271 -174 290 -144 305 -114 318 -82 328 -50 334 -17 338 3444 0 Z" class="C2"/><path d="M 699063 781680 l 17 338 50 334 82 328 114 318 144 305 174 290 201 271 227 250 250 227 271 201 290 174 305 144 318 114 328 82 334 50 338 17 338 -17 334 -50 328 -82 318 -114 305 -144 290 -174 271 -201 250 -227 227 -250 201 -271 174 -290 144 -305 114 -318 82 -328 50 -334 17 -338 -3444 0 Z" class="C2"/><path d="M 705950 781680 l -17 -338 -50 -334 -82 -328 -114 -318 -144 -305 -174 -290 -201 -271 -227 -250 -250 -227 -271 -201 -290 -174 -305 -144 -318 -114 -328 -82 -334 -50 -338 -17 -338 17 -334 50 -328 82 -318 114 -305 144 -290 174 -271 201 -250 227 -227 250 -201 271 -174 290 -144 305 -114 318 -82 328 -50 334 -17 338 3444 0 Z" class="C2"/><path d="M 656018 797176 l 17 338 50 334 82 328 114 318 144 305 174 290 201 271 227 250 250 227 271 201 290 174 305 144 318 114 328 82 334 50 338 17 338 -17 334 -50 328 -82 318 -114 305 -144 290 -174 271 -201 250 -227 227 -250 201 -271 174 -290 144 -305 114 -318 82 -328 50 -334 17 -338 -3444 0 Z" class="C2"/><path d="M 662906 797176 l -17 -338 -50 -334 -82 -328 -114 -318 -144 -305 -174 -290 -201 -271 -227 -250 -250 -227 -271 -201 -290 -174 -305 -144 -318 -114 -328 -82 -334 -50 -338 -17 -338 17 -334 50 -328 82 -318 114 -305 144 -290 174 -271 201 -250 227 -227 250 -201 271 -174 290 -144 305 -114 318 -82 328 -50 334 -17 338 3444 0 Z" class="C2"/><path d="M 600922 793733 l 17 338 50 334 82 328 114 318 144 305 174 290 201 271 227 250 250 227 271 201 290 174 305 144 318 114 328 82 334 50 338 17 338 -17 334 -50 328 -82 318 -114 305 -144 290 -174 271 -201 250 -227 227 -250 201 -271 174 -290 144 -305 114 -318 82 -328 50 -334 17 -338 -3444 0 Z" class="C2"/><path d="M 607809 793733 l -17 -338 -50 -334 -82 -328 -114 -318 -144 -305 -174 -290 -201 -271 -227 -250 -250 -227 -271 -201 -290 -174 -305 -144 -318 -114 -328 -82 -334 -50 -338 -17 -338 17 -334 50 -328 82 -318 114 -305 144 -290 174 -271 201 -250 227 -227 250 -201 271 -174 290 -144 305 -114 318 -82 328 -50 334 -17 338 3444 0 Z" class="C2"/><path d="M 554434 776515 l 17 338 50 334 82 328 114 318 144 305 174 290 201 271 227 250 250 227 271 201 290 174 305 144 318 114 328 82 334 50 338 17 338 -17 334 -50 328 -82 318 -114 305 -144 290 -174 271 -201 250 -227 227 -250 201 -271 174 -290 144 -305 114 -318 82 -328 50 -334 17 -338 -3444 0 Z" class="C2"/><path d="M 561322 776515 l -17 -338 -50 -334 -82 -328 -114 -318 -144 -305 -174 -290 -201 -271 -227 -250 -250 -227 -271 -201 -290 -174 -305 -144 -318 -114 -328 -82 -334 -50 -338 -17 -338 17 -334 50 -328 82 -318 114 -305 144 -290 174 -271 201 -250 227 -227 250 -201 271 -174 290 -144 305 -114 318 -82 328 -50 334 -17 338 3444 0 Z" class="C2"/></g><!--labels--><text x="252000" y="790000" font-family="Arial, Helvetica, sans-serif" font-size="40000" font-weight="bold" fill="#111">V</text></svg>