<?xml version='1.0' encoding='utf-8'?>
<svg xmlns="http://www.w3.org/2000/svg" width="200.0mm" height="122.2mm" viewBox="472150 -20301 548124 335023"><defs><style>.C1 {stroke: #000000; stroke-width: 430; stroke-opacity: 1.000; fill: none; fill-opacity: 1.000;}</style><style>.C2 {stroke: none; stroke-width: none; stroke-opacity: 1.000; fill: #000000; fill-opacity: 1.000;}</style></defs><rect fill="#ffffff" x="472150" y="-20301" width="548124" height="335023" fill-opacity="1.0" /><g stroke-linecap="round" stroke-linejoin="round"><path d="M 897065 46488 l -404614 0" class="C1" /><path d="M 492451 46488 l 0 -46488" class="C1" /><path d="M 492451 -0 l 404614 0" class="C1" /><path d="M 897065 -0 l 0 46488" class="C1" /><path d="M 492451 161846 l 404614 0" class="C1" /><path d="M 897065 115358 l -404614 0" class="C1" /><path d="M 492451 115358 l 0 46488" class="C1" /><path d="M 897065 161846 l 0 -46488" class="C1" /><path d="M 922892 70592 l -44766 0" class="C1" /><path d="M 910839 82645 l -56818 0" class="C1" /><path d="M 921170 92975 l -30992 0" class="C1" /><path d="M 857465 75758 l -32713 0" class="C1" /><path d="M 860908 92975 l -41322 0" class="C1" /><path d="M 857465 63705 l -18939 0" class="C1" /><path d="M 607809 61983 l 8 169 25 167 41 164 57 159 72 153 87 145 101 136 113 125 125 113 136 101 145 87 153 72 159 57 164 41 167 25 169 8 169 -8 167 -25 164 -41 159 -57 153 -72 145 -87 136 -101 125 -113 113 -125 101 -136 87 -145 72 -153 57 -159 41 -164 25 -167 8 -169 -1722 0 Z" class="C2" /><path d="M 611253 61983 l -8 -169 -25 -167 -41 -164 -57 -159 -72 -153 -87 -145 -101 -136 -113 -125 -125 -113 -136 -101 -145 -87 -153 -72 -159 -57 -164 -41 -167 -25 -169 -8 -169 8 -167 25 -164 41 -159 57 -153 72 -145 87 -136 101 -125 113 -113 125 -101 136 -87 145 -72 153 -57 159 -41 164 -25 167 -8 169 1722 0 Z" class="C2" /><path d="M 668071 68871 l 8 169 25 167 41 164 57 159 72 153 87 145 101 136 113 125 125 113 136 101 145 87 153 72 159 57 164 41 167 25 169 8 169 -8 167 -25 164 -41 159 -57 153 -72 145 -87 136 -101 125 -113 113 -125 101 -136 87 -145 72 -153 57 -159 41 -164 25 -167 8 -169 -1722 0 Z" class="C2" /><path d="M 671514 68871 l -8 -169 -25 -167 -41 -164 -57 -159 -72 -153 -87 -145 -101 -136 -113 -125 -125 -113 -136 -101 -145 -87 -153 -72 -159 -57 -164 -41 -167 -25 -169 -8 -169 8 -167 25 -164 41 -159 57 -153 72 -145 87 -136 101 -125 113 -113 125 -101 136 -87 145 -72 153 -57 159 -41 164 -25 167 -8 169 1722 0 Z" class="C2" /><path d="M 712837 55096 l 8 169 25 167 41 164 57 159 72 153 87 145 101 136 113 125 125 113 136 101 145 87 153 72 159 57 164 41 167 25 169 8 169 -8 167 -25 164 -41 159 -57 153 -72 145 -87 136 -101 125 -113 113 -125 101 -136 87 -145 72 -153 57 -159 41 -164 25 -167 8 -169 -1722 0 Z" class="C2" /><path d="M 716280 55096 l -8 -169 -25 -167 -41 -164 -57 -159 -72 -153 -87 -145 -101 -136 -113 -125 -125 -113 -136 -101 -145 -87 -153 -72 -159 -57 -164 -41 -167 -25 -169 -8 -169 8 -167 25 -164 41 -159 57 -153 72 -145 87 -136 101 -125 113 -113 125 -101 136 -87 145 -72 153 -57 159 -41 164 -25 167 -8 169 1722 0 Z" class="C2" /><path d="M 705950 82645 l 8 169 25 167 41 164 57 159 72 153 87 145 101 136 113 125 125 113 136 101 145 87 153 72 159 57 164 41 167 25 169 8 169 -8 167 -25 164 -41 159 -57 153 -72 145 -87 136 -101 125 -113 113 -125 101 -136 87 -145 72 -153 57 -159 41 -164 25 -167 8 -169 -1722 0 Z" class="C2" /><path d="M 709393 82645 l -8 -169 -25 -167 -41 -164 -57 -159 -72 -153 -87 -145 -101 -136 -113 -125 -125 -113 -136 -101 -145 -87 -153 -72 -159 -57 -164 -41 -167 -25 -169 -8 -169 8 -167 25 -164 41 -159 57 -153 72 -145 87 -136 101 -125 113 -113 125 -101 136 -87 145 -72 153 -57 159 -41 164 -25 167 -8 169 1722 0 Z" class="C2" /><path d="M 757603 68871 l 8 169 25 167 41 164 57 159 72 153 87 145 101 136 113 125 125 113 136 101 145 87 153 72 159 57 164 41 167 25 169 8 169 -8 167 -25 164 -41 159 -57 153 -72 145 -87 136 -101 125 -113 113 -125 101 -136 87 -145 72 -153 57 -159 41 -164 25 -167 8 -169 -1722 0 Z" class="C2" /><path d="M 761046 68871 l -8 -169 -25 -167 -41 -164 -57 -159 -72 -153 -87 -145 -101 -136 -113 -125 -125 -113 -136 -101 -145 -87 -153 -72 -159 -57 -164 -41 -167 -25 -169 -8 -169 8 -167 25 -164 41 -159 57 -153 72 -145 87 -136 101 -125 113 -113 125 -101 136 -87 145 -72 153 -57 159 -41 164 -25 167 -8 169 1722 0 Z" class="C2" /><path d="M 785151 58540 l 8 169 25 167 41 164 57 159 72 153 87 145 101 136 113 125 125 113 136 101 145 87 153 72 159 57 164 41 167 25 169 8 169 -8 167 -25 164 -41 159 -57 153 -72 145 -87 136 -101 125 -113 113 -125 101 -136 87 -145 72 -153 57 -159 41 -164 25 -167 8 -169 -1722 0 Z" class="C2" /><path d="M 788594 58540 l -8 -169 -25 -167 -41 -164 -57 -159 -72 -153 -87 -145 -101 -136 -113 -125 -125 -113 -136 -101 -145 -87 -153 -72 -159 -57 -164 -41 -167 -25 -169 -8 -169 8 -167 25 -164 41 -159 57 -153 72 -145 87 -136 101 -125 113 -113 125 -101 136 -87 145 -72 153 -57 159 -41 164 -25 167 -8 169 1722 0 Z" class="C2" /><path d="M 788594 86088 l 8 169 25 167 41 164 57 159 72 153 87 145 101 136 113 125 125 113 136 101 145 87 153 72 159 57 164 41 167 25 169 8 169 -8 167 -25 164 -41 159 -57 153 -72 145 -87 136 -101 125 -113 113 -125 101 -136 87 -145 72 -153 57 -159 41 -164 25 -167 8 -169 -1722 0 Z" class="C2" /><path d="M 792038 86088 l -8 -169 -25 -167 -41 -164 -57 -159 -72 -153 -87 -145 -101 -136 -113 -125 -125 -113 -136 -101 -145 -87 -153 -72 -159 -57 -164 -41 -167 -25 -169 -8 -169 8 -167 25 -164 41 -159 57 -153 72 -145 87 -136 101 -125 113 -113 125 -101 136 -87 145 -72 153 -57 159 -41 164 -25 167 -8 169 1722 0 Z" class="C2" /><path d="M 733498 91253 l 8 169 25 167 41 164 57 159 72 153 87 145 101 136 113 125 125 113 136 101 145 87 153 72 159 57 164 41 167 25 169 8 169 -8 167 -25 164 -41 159 -57 153 -72 145 -87 136 -101 125 -113 113 -125 101 -136 87 -145 72 -153 57 -159 41 -164 25 -167 8 -169 -1722 0 Z" class="C2" /><path d="M 736941 91253 l -8 -169 -25 -167 -41 -164 -57 -159 -72 -153 -87 -145 -101 -136 -113 -125 -125 -113 -136 -101 -145 -87 -153 -72 -159 -57 -164 -41 -167 -25 -169 -8 -169 8 -167 25 -164 41 -159 57 -153 72 -145 87 -136 101 -125 113 -113 125 -101 136 -87 145 -72 153 -57 159 -41 164 -25 167 -8 169 1722 0 Z" class="C2" /><path d="M 697341 101584 l 8 169 25 167 41 164 57 159 72 153 87 145 101 136 113 125 125 113 136 101 145 87 153 72 159 57 164 41 167 25 169 8 169 -8 167 -25 164 -41 159 -57 153 -72 145 -87 136 -101 125 -113 113 -125 101 -136 87 -145 72 -153 57 -159 41 -164 25 -167 8 -169 -1722 0 Z" class="C2" /><path d="M 700784 101584 l -8 -169 -25 -167 -41 -164 -57 -159 -72 -153 -87 -145 -101 -136 -113 -125 -125 -113 -136 -101 -145 -87 -153 -72 -159 -57 -164 -41 -167 -25 -169 -8 -169 8 -167 25 -164 41 -159 57 -153 72 -145 87 -136 101 -125 113 -113 125 -101 136 -87 145 -72 153 -57 159 -41 164 -25 167 -8 169 1722 0 Z" class="C2" /><path d="M 662906 86088 l 8 169 25 167 41 164 57 159 72 153 87 145 101 136 113 125 125 113 136 101 145 87 153 72 159 57 164 41 167 25 169 8 169 -8 167 -25 164 -41 159 -57 153 -72 145 -87 136 -101 125 -113 113 -125 101 -136 87 -145 72 -153 57 -159 41 -164 25 -167 8 -169 -1722 0 Z" class="C2" /><path d="M 666349 86088 l -8 -169 -25 -167 -41 -164 -57 -159 -72 -153 -87 -145 -101 -136 -113 -125 -125 -113 -136 -101 -145 -87 -153 -72 -159 -57 -164 -41 -167 -25 -169 -8 -169 8 -167 25 -164 41 -159 57 -153 72 -145 87 -136 101 -125 113 -113 125 -101 136 -87 145 -72 153 -57 159 -41 164 -25 167 -8 169 1722 0 Z" class="C2" /><path d="M 619861 89532 l 8 169 25 167 41 164 57 159 72 153 87 145 101 136 113 125 125 113 136 101 145 87 153 72 159 57 164 41 167 25 169 8 169 -8 167 -25 164 -41 159 -57 153 -72 145 -87 136 -101 125 -113 113 -125 101 -136 87 -145 72 -153 57 -159 41 -164 25 -167 8 -169 -1722 0 Z" class="C2" /><path d="M 623305 89532 l -8 -169 -25 -167 -41 -164 -57 -159 -72 -153 -87 -145 -101 -136 -113 -125 -125 -113 -136 -101 -145 -87 -153 -72 -159 -57 -164 -41 -167 -25 -169 -8 -169 8 -167 25 -164 41 -159 57 -153 72 -145 87 -136 101 -125 113 -113 125 -101 136 -87 145 -72 153 -57 159 -41 164 -25 167 -8 169 1722 0 Z" class="C2" /><path d="M 638801 79201 l 8 169 25 167 41 164 57 159 72 153 87 145 101 136 113 125 125 113 136 101 145 87 153 72 159 57 164 41 167 25 169 8 169 -8 167 -25 164 -41 159 -57 153 -72 145 -87 136 -101 125 -113 113 -125 101 -136 87 -145 72 -153 57 -159 41 -164 25 -167 8 -169 -1722 0 Z" class="C2" /><path d="M 642244 79201 l -8 -169 -25 -167 -41 -164 -57 -159 -72 -153 -87 -145 -101 -136 -113 -125 -125 -113 -136 -101 -145 -87 -153 -72 -159 -57 -164 -41 -167 -25 -169 -8 -169 8 -167 25 -164 41 -159 57 -153 72 -145 87 -136 101 -125 113 -113 125 -101 136 -87 145 -72 153 -57 159 -41 164 -25 167 -8 169 1722 0 Z" class="C2" /><path d="M 852299 82645 l 8 169 25 167 41 164 57 159 72 153 87 145 101 136 113 125 125 113 136 101 145 87 153 72 159 57 164 41 167 25 169 8 169 -8 167 -25 164 -41 159 -57 153 -72 145 -87 136 -101 125 -113 113 -125 101 -136 87 -145 72 -153 57 -159 41 -164 25 -167 8 -169 -1722 0 Z" class="C2" /><path d="M 855743 82645 l -8 -169 -25 -167 -41 -164 -57 -159 -72 -153 -87 -145 -101 -136 -113 -125 -125 -113 -136 -101 -145 -87 -153 -72 -159 -57 -164 -41 -167 -25 -169 -8 -169 8 -167 25 -164 41 -159 57 -153 72 -145 87 -136 101 -125 113 -113 125 -101 136 -87 145 -72 153 -57 159 -41 164 -25 167 -8 169 1722 0 Z" class="C2" /><path d="M 876404 70592 l 8 169 25 167 41 164 57 159 72 153 87 145 101 136 113 125 125 113 136 101 145 87 153 72 159 57 164 41 167 25 169 8 169 -8 167 -25 164 -41 159 -57 153 -72 145 -87 136 -101 125 -113 113 -125 101 -136 87 -145 72 -153 57 -159 41 -164 25 -167 8 -169 -1722 0 Z" class="C2" /><path d="M 879848 70592 l -8 -169 -25 -167 -41 -164 -57 -159 -72 -153 -87 -145 -101 -136 -113 -125 -125 -113 -136 -101 -145 -87 -153 -72 -159 -57 -164 -41 -167 -25 -169 -8 -169 8 -167 25 -164 41 -159 57 -153 72 -145 87 -136 101 -125 113 -113 125 -101 136 -87 145 -72 153 -57 159 -41 164 -25 167 -8 169 1722 0 Z" class="C2" /><path d="M 888456 92975 l 8 169 25 167 41 164 57 159 72 153 87 145 101 136 113 125 125 113 136 101 145 87 153 72 159 57 164 41 167 25 169 8 169 -8 167 -25 164 -41 159 -57 153 -72 145 -87 136 -101 125 -113 113 -125 101 -136 87 -145 72 -153 57 -159 41 -164 25 -167 8 -169 -1722 0 Z" class="C2" /><path d="M 891900 92975 l -8 -169 -25 -167 -41 -164 -57 -159 -72 -153 -87 -145 -101 -136 -113 -125 -125 -113 -136 -101 -145 -87 -153 -72 -159 -57 -164 -41 -167 -25 -169 -8 -169 8 -167 25 -164 41 -159 57 -153 72 -145 87 -136 101 -125 113 -113 125 -101 136 -87 145 -72 153 -57 159 -41 164 -25 167 -8 169 1722 0 Z" class="C2" /><path d="M 836804 63705 l 8 169 25 167 41 164 57 159 72 153 87 145 101 136 113 125 125 113 136 101 145 87 153 72 159 57 164 41 167 25 169 8 169 -8 167 -25 164 -41 159 -57 153 -72 145 -87 136 -101 125 -113 113 -125 101 -136 87 -145 72 -153 57 -159 41 -164 25 -167 8 -169 -1722 0 Z" class="C2" /><path d="M 840247 63705 l -8 -169 -25 -167 -41 -164 -57 -159 -72 -153 -87 -145 -101 -136 -113 -125 -125 -113 -136 -101 -145 -87 -153 -72 -159 -57 -164 -41 -167 -25 -169 -8 -169 8 -167 25 -164 41 -159 57 -153 72 -145 87 -136 101 -125 113 -113 125 -101 136 -87 145 -72 153 -57 159 -41 164 -25 167 -8 169 1722 0 Z" class="C2" /><path d="M 823030 75758 l 8 169 25 167 41 164 57 159 72 153 87 145 101 136 113 125 125 113 136 101 145 87 153 72 159 57 164 41 167 25 169 8 169 -8 167 -25 164 -41 159 -57 153 -72 145 -87 136 -101 125 -113 113 -125 101 -136 87 -145 72 -153 57 -159 41 -164 25 -167 8 -169 -1722 0 Z" class="C2" /><path d="M 826473 75758 l -8 -169 -25 -167 -41 -164 -57 -159 -72 -153 -87 -145 -101 -136 -113 -125 -125 -113 -136 -101 -145 -87 -153 -72 -159 -57 -164 -41 -167 -25 -169 -8 -169 8 -167 25 -164 41 -159 57 -153 72 -145 87 -136 101 -125 113 -113 125 -101 136 -87 145 -72 153 -57 159 -41 164 -25 167 -8 169 1722 0 Z" class="C2" /><path d="M 817864 92975 l 8 169 25 167 41 164 57 159 72 153 87 145 101 136 113 125 125 113 136 101 145 87 153 72 159 57 164 41 167 25 169 8 169 -8 167 -25 164 -41 159 -57 153 -72 145 -87 136 -101 125 -113 113 -125 101 -136 87 -145 72 -153 57 -159 41 -164 25 -167 8 -169 -1722 0 Z" class="C2" /><path d="M 821308 92975 l -8 -169 -25 -167 -41 -164 -57 -159 -72 -153 -87 -145 -101 -136 -113 -125 -125 -113 -136 -101 -145 -87 -153 -72 -159 -57 -164 -41 -167 -25 -169 -8 -169 8 -167 25 -164 41 -159 57 -153 72 -145 87 -136 101 -125 113 -113 125 -101 136 -87 145 -72 153 -57 159 -41 164 -25 167 -8 169 1722 0 Z" class="C2" /><path d="M 597479 86088 l 8 169 25 167 41 164 57 159 72 153 87 145 101 136 113 125 125 113 136 101 145 87 153 72 159 57 164 41 167 25 169 8 169 -8 167 -25 164 -41 159 -57 153 -72 145 -87 136 -101 125 -113 113 -125 101 -136 87 -145 72 -153 57 -159 41 -164 25 -167 8 -169 -1722 0 Z" class="C2" /><path d="M 600922 86088 l -8 -169 -25 -167 -41 -164 -57 -159 -72 -153 -87 -145 -101 -136 -113 -125 -125 -113 -136 -101 -145 -87 -153 -72 -159 -57 -164 -41 -167 -25 -169 -8 -169 8 -167 25 -164 41 -159 57 -153 72 -145 87 -136 101 -125 113 -113 125 -101 136 -87 145 -72 153 -57 159 -41 164 -25 167 -8 169 1722 0 Z" class="C2" /><path d="M 645688 103306 l 8 169 25 167 41 164 57 159 72 153 87 145 101 136 113 125 125 113 136 101 145 87 153 72 159 57 164 41 167 25 169 8 169 -8 167 -25 164 -41 159 -57 153 -72 145 -87 136 -101 125 -113 113 -125 101 -136 87 -145 72 -153 57 -159 41 -164 25 -167 8 -169 -1722 0 Z" class="C2" /><path d="M 649131 103306 l -8 -169 -25 -167 -41 -164 -57 -159 -72 -153 -87 -145 -101 -136 -113 -125 -125 -113 -136 -101 -145 -87 -153 -72 -159 -57 -164 -41 -167 -25 -169 -8 -169 8 -167 25 -164 41 -159 57 -153 72 -145 87 -136 101 -125 113 -113 125 -101 136 -87 145 -72 153 -57 159 -41 164 -25 167 -8 169 1722 0 Z" class="C2" /><path d="M 989665 152835 c 0 -9515 -7714 -17229 -17229 -17229" class="C1" /><path d="M 986221 152835 c 0 -7613 -6172 -13785 -13785 -13785" class="C1" /><path d="M 979086 152835 c 0 -3672 -2977 -6650 -6650 -6650" class="C1" /><path d="M 982529 152835 c 0 -5574 -4519 -10093 -10093 -10093" class="C1" /><path d="M 968886 148972 c -103 -295 -413 -464 -716 -390 c -304 73 -502 365 -459 674" class="C1" /><path d="M 972307 158769 l -3422 -9797" class="C1" /><path d="M 962353 158769 l 3422 -9797" class="C1" /><path d="M 966951 149256 c 43 -309 -156 -601 -459 -674 c -304 -73 -613 96 -716 390" class="C1" /><path d="M 996530 123967 l 0 84366" class="C1" /><path d="M 948213 208333 l 0 -89532" class="C1" /><path d="M 929327 63227 c 17714 6566 34499 15408 49931 26305 c 12746 6760 20715 20008 20715 34435 l 0 84366 c 0 10168 -5590 19512 -14549 24320 c -1677 900 -2723 2648 -2723 4551 l 0 34408" class="C1" /><path d="M 962041 271613 l 0 -34408 c 0 -1903 -1046 -3651 -2723 -4551 c -8959 -4808 -14549 -14153 -14549 -24320 l 0 -89532 c 0 -3195 -1211 -6271 -3390 -8609 c -3576 -3837 -7626 -7203 -12052 -10017" class="C1" /><path d="M 982702 294421 l 0 -49931" class="C1" /><path d="M 986145 244490 l 0 49931" class="C1" /><path d="M 958597 244490 l 0 49931" class="C1" /><path d="M 962041 294421 l 0 -49931" class="C1" /><path d="M 976380 222363 l 0 0 m 4719 -3621 l 0 0 m 4510 -3461 l 0 0 m 4219 -3237 l 0 0 m 4719 -3621 l 0 0 m -18387 7198 l 0 0 m 4719 -3621 l 0 0 m 4510 -3461 l 0 0 m 8938 -6858 l 0 0 m -36054 20755 l 0 0 m 17667 -13556 l 0 0 m 9229 -7082 l 0 0 m 8938 -6858 l 0 0 m -40564 24216 l 0 0 m 4510 -3461 l 0 0 m 17667 -13556 l 0 0 m 9229 -7082 l 0 0 m 8938 -6858 l 0 0 m -40564 24216 l 0 0 m 4510 -3461 l 0 0 m 17667 -13556 l 0 0 m 9229 -7082 l 0 0 m 8938 -6858 l 0 0 m -45283 27837 l 0 0 m 4719 -3621 l 0 0 m 4510 -3461 l 0 0 m 4219 -3237 l 0 0 m 13448 -10319 l 0 0 m 9229 -7082 l 0 0 m 8938 -6858 l 0 0 m -40564 24216 l 0 0 m 4510 -3461 l 0 0 m 4219 -3237 l 0 0 m 13448 -10319 l 0 0 m 9229 -7082 l 0 0 m 8938 -6858 l 0 0 m -40564 24216 l 0 0 m 4510 -3461 l 0 0 m 4219 -3237 l 0 0 m 13448 -10319 l 0 0 m 9229 -7082 l 0 0 m -31627 17358 l 0 0 m 4510 -3461 l 0 0 m 4219 -3237 l 0 0 m 13448 -10319 l 0 0 m -22398 10276 l 0 0 m 4510 -3461 l 0 0 m 4219 -3237 l 0 0 m 15652 57093 l 0 0 m 4719 -3621 l 0 0 m 4510 -3461 l 0 0 m 4219 -3237 l 0 0 m 4719 -3621 l 0 0 m -42768 -43197 l 0 0 m 4510 -3461 l 0 0 m 4219 -3237 l 0 0 m -8950 -43 l 0 0 m 1670 55210 l 0 0 m 4752 -626 l 0 0 m 1821 -240 l 0 0 m 17014 -2240 l 0 0 m 1821 -240 l 0 0 m 2844 -374 l 0 0 m 4752 -626 l 0 0 m 1821 -240 l 0 0 m 2844 -374 l 0 0 m -40896 -3675 l 0 0 m 4752 -626 l 0 0 m 1821 -240 l 0 0 m 2844 -374 l 0 0 m 14170 -1865 l 0 0 m 1821 -240 l 0 0 m 2844 -374 l 0 0 m 4752 -626 l 0 0 m 1821 -240 l 0 0 m 7596 -1000 l 0 0 m 1821 -240 l 0 0 m -42717 -3435 l 0 0 m 1821 -240 l 0 0 m 2844 -374 l 0 0 m 4752 -626 l 0 0 m 14083 -1854 l 0 0 m 9417 -1240 l 0 0 m 6573 -865 l 0 0 m 2844 -374 l 0 0 m -45561 -3060 l 0 0 m 1821 -240 l 0 0 m 2844 -374 l 0 0 m 4752 -626 l 0 0 m 1821 -240 l 0 0 m 17014 -2240 l 0 0 m 1821 -240 l 0 0 m 7596 -1000 l 0 0 m 4665 -614 l 0 0 m 4752 -626 l 0 0 m -45648 -3049 l 0 0 m 4752 -626 l 0 0 m 1821 -240 l 0 0 m 2844 -374 l 0 0 m 14170 -1865 l 0 0 m 1821 -240 l 0 0 m 2844 -374 l 0 0 m 4752 -626 l 0 0 m 1821 -240 l 0 0 m 7596 -1000 l 0 0 m 1821 -240 l 0 0 m -42717 -3435 l 0 0 m 1821 -240 l 0 0 m 2844 -374 l 0 0 m 4752 -626 l 0 0 m 14083 -1854 l 0 0 m 9417 -1240 l 0 0 m 6573 -865 l 0 0 m 2844 -374 l 0 0 m -45561 -3060 l 0 0 m 1821 -240 l 0 0 m 2844 -374 l 0 0 m 4752 -626 l 0 0 m 1821 -240 l 0 0 m 17014 -2240 l 0 0 m 1821 -240 l 0 0 m -5672 64156 l 0 0 m 2844 -374 l 0 0 m 4752 -626 l 0 0 m 1821 -240 l 0 0 m 2844 -374 l 0 0 m 4752 -626 l 0 0 m -37898 -16767 l 0 0 m 6934 4418 l 0 0 m 1475 940 l 0 0 m 13721 8741 l 0 0 m 5311 3384 l 0 0 m -30267 -26243 l 0 0 m 6934 4418 l 0 0 m 1475 940 l 0 0 m 19032 12125 l 0 0 m 6934 4418 l 0 0 m 1475 940 l 0 0 m -31743 -27183 l 0 0 m 1475 940 l 0 0 m 5311 3384 l 0 0 m 13721 8741 l 0 0 m 6934 4418 l 0 0 m 1475 940 l 0 0 m 5311 3384 l 0 0 m -37054 -30567 l 0 0 m 1475 940 l 0 0 m 5311 3384 l 0 0 m 20655 13159 l 0 0 m 6787 4324 l 0 0 m 6934 4418 l 0 0 m 1475 940 l 0 0 m -43988 -34984 l 0 0 m 5311 3384 l 0 0 m 6934 4418 l 0 0 m 13721 8741 l 0 0 m 1475 940 l 0 0 m 13721 8741 l 0 0 m 5311 3384 l 0 0 m -43988 -34984 l 0 0 m 6934 4418 l 0 0 m 1475 940 l 0 0 m 13721 8741 l 0 0 m 5311 3384 l 0 0 m 6934 4418 l 0 0 m 6787 4324 l 0 0 m -43988 -34984 l 0 0 m 6934 4418 l 0 0 m 1475 940 l 0 0 m 19032 12125 l 0 0 m 6934 4418 l 0 0 m 1475 940 l 0 0 m 5311 3384 l 0 0 m -30267 -26243 l 0 0 m 13721 8741 l 0 0 m 20655 13159 l 0 0 m 1475 940 l 0 0 m -18022 -18442 l 0 0 m 1475 940 l 0 0 m 5311 3384 l 0 0 m 6934 4418 l 0 0 m 1475 940 l 0 0 m -43174 35143 l 0 0 m 5311 3384 l 0 0 m 6934 4418 l 0 0 m 13721 8741 l 0 0 m 1475 940 l 0 0 m 18218 -58002 l 0 0 m -2826 -8761 l 0 0 m -34697 61425 l 0 0 m -6729 -29014 l 0 0 m 3482 3191 l 0 0 m 645 591 l 0 0 m 3044 2789 l 0 0 m 3482 3191 l 0 0 m 645 591 l 0 0 m 13697 12551 l 0 0 m 645 591 l 0 0 m 3044 2789 l 0 0 m 3482 3191 l 0 0 m 645 591 l 0 0 m -33153 -43087 l 0 0 m 645 591 l 0 0 m 3044 2789 l 0 0 m 3482 3191 l 0 0 m 645 591 l 0 0 m 3044 2789 l 0 0 m 14342 13142 l 0 0 m 3482 3191 l 0 0 m 645 591 l 0 0 m 3044 2789 l 0 0 m 3482 3191 l 0 0 m 645 591 l 0 0 m 3044 2789 l 0 0 m -39679 -49067 l 0 0 m 3482 3191 l 0 0 m 645 591 l 0 0 m 3044 2789 l 0 0 m 3482 3191 l 0 0 m 645 591 l 0 0 m 13697 12551 l 0 0 m 645 591 l 0 0 m 3044 2789 l 0 0 m 4127 3782 l 0 0 m 3044 2789 l 0 0 m 4127 3782 l 0 0 m 3044 2789 l 0 0 m -36197 -45876 l 0 0 m 645 591 l 0 0 m 3044 2789 l 0 0 m 14342 13142 l 0 0 m 3482 3191 l 0 0 m 7171 6571 l 0 0 m 7171 6571 l 0 0 m 645 591 l 0 0 m -18811 -29945 l 0 0 m 645 591 l 0 0 m 3044 2789 l 0 0 m 4127 3782 l 0 0 m 3044 2789 l 0 0 m 4127 3782 l 0 0 m 3044 2789 l 0 0 m 3482 3191 l 0 0 m -10995 -22783 l 0 0 m 645 591 l 0 0 m 6526 5980 l 0 0 m 645 591 l 0 0 m 3044 2789 l 0 0 m -45280 34757 l 0 0 m 645 591 l 0 0 m 3044 2789 l 0 0 m 3482 3191 l 0 0 m 645 591 l 0 0 m 3044 2789 l 0 0" class="C1" /><path d="M 972620 162546 l 0 63777 c 0 1692 804 3282 2165 4286 c 1362 1004 3119 1301 4735 800 c 10114 -3133 17010 -12488 17010 -23076 l 0 -45787 l -6865 0 l 0 46065 c 0 951 -771 1722 -1722 1722 c -951 0 -1722 -771 -1722 -1722 l 0 -46065 l -3692 0 l 0 46065 c 0 951 -771 1722 -1722 1722 c -951 0 -1722 -771 -1722 -1722 l 0 -46065 l -6466 0" class="C1" /><path d="M 948213 162546 l 0 45787 c 0 6491 2612 12710 7248 17253 c 1113 1091 2771 1408 4208 804 c 1437 -604 2371 -2010 2371 -3568 l 0 -60276 l -13828 0" class="C1" /><path d="M 969176 228129 l 0 -67891" class="C1" /><path d="M 979520 231410 c 10114 -3133 17010 -12488 17010 -23076" class="C1" /><path d="M 972620 226324 l 0 -65712" class="C1" /><path d="M 962041 222823 l 0 -62211" class="C1" /><path d="M 965484 271613 l 0 -111374" class="C1" /><path d="M 948213 208333 c 0 6491 2612 12710 7248 17253" class="C1" /><path d="M 955461 225587 c 1113 1091 2771 1408 4208 804 c 1437 -604 2371 -2010 2371 -3568" class="C1" /><path d="M 962041 244490 c -0 -951 -771 -1722 -1722 -1722 c -951 0 -1722 771 -1722 1722" class="C1" /><path d="M 956875 252407 l 8 169 25 167 41 164 57 159 72 153 87 145 101 136 113 125 125 113 136 101 145 87 153 72 159 57 164 41 167 25 169 8 169 -8 167 -25 164 -41 159 -57 153 -72 145 -87 136 -101 125 -113 113 -125 101 -136 87 -145 72 -153 57 -159 41 -164 25 -167 8 -169 -1722 0 Z" class="C2" /><path d="M 960319 252407 l -8 -169 -25 -167 -41 -164 -57 -159 -72 -153 -87 -145 -101 -136 -113 -125 -125 -113 -136 -101 -145 -87 -153 -72 -159 -57 -164 -41 -167 -25 -169 -8 -169 8 -167 25 -164 41 -159 57 -153 72 -145 87 -136 101 -125 113 -113 125 -101 136 -87 145 -72 153 -57 159 -41 164 -25 167 -8 169 1722 0 Z" class="C2" /><path d="M 979258 271613 l 0 -29064" class="C1" /><path d="M 984424 252407 l 8 169 25 167 41 164 57 159 72 153 87 145 101 136 113 125 125 113 136 101 145 87 153 72 159 57 164 41 167 25 169 8 169 -8 167 -25 164 -41 159 -57 153 -72 145 -87 136 -101 125 -113 113 -125 101 -136 87 -145 72 -153 57 -159 41 -164 25 -167 8 -169 -1722 0 Z" class="C2" /><path d="M 987867 252407 l -8 -169 -25 -167 -41 -164 -57 -159 -72 -153 -87 -145 -101 -136 -113 -125 -125 -113 -136 -101 -145 -87 -153 -72 -159 -57 -164 -41 -167 -25 -169 -8 -169 8 -167 25 -164 41 -159 57 -153 72 -145 87 -136 101 -125 113 -113 125 -101 136 -87 145 -72 153 -57 159 -41 164 -25 167 -8 169 1722 0 Z" class="C2" /><path d="M 979258 271613 c 0 951 771 1722 1722 1722 c 951 -0 1722 -771 1722 -1722" class="C1" /><path d="M 962041 271613 c 0 951 771 1722 1722 1722 c 951 -0 1722 -771 1722 -1722" class="C1" /><path d="M 971492 233070 l 5451 4538" class="C1" /><path d="M 979258 242548 c 0 -1909 -848 -3719 -2315 -4941" class="C1" /><path d="M 986145 244490 c 0 -951 -771 -1722 -1722 -1722 c -951 -0 -1722 771 -1722 1722" class="C1" /><path d="M 969176 228129 c 0 1909 848 3719 2315 4941" class="C1" /><path d="M 972620 226324 c 0 1692 804 3282 2165 4286 c 1362 1004 3119 1301 4735 800" class="C1" /><path d="M 962353 158769 c -207 592 -313 1216 -313 1843" class="C1" /><path d="M 948213 162546 l 13828 0" class="C1" /><path d="M 979086 208611 l 0 -55776" class="C1" /><path d="M 982529 208611 l 0 -55776" class="C1" /><path d="M 986221 208611 l 0 -55776" class="C1" /><path d="M 989665 208611 l 0 -55776" class="C1" /><path d="M 979086 208611 c 0 951 771 1722 1722 1722 c 951 0 1722 -771 1722 -1722" class="C1" /><path d="M 962019 202221 l 0 0" class="C1" /><path d="M 962019 213154 l 0 0" class="C1" /><path d="M 986221 208611 c 0 951 771 1722 1722 1722 c 951 0 1722 -771 1722 -1722" class="C1" /><path d="M 962019 191288 l 0 0" class="C1" /><path d="M 962019 169421 l 0 0" class="C1" /><path d="M 962019 180355 l 0 0" class="C1" /><path d="M 972620 162546 l 6466 0" class="C1" /><path d="M 969124 159472 l -1414 -10216" class="C1" /><path d="M 969176 160238 c 0 -256 -18 -512 -53 -766" class="C1" /><path d="M 972620 160612 c 0 -628 -106 -1251 -313 -1843" class="C1" /><path d="M 965537 159472 c -35 254 -53 510 -53 766" class="C1" /><path d="M 965537 159472 l 1414 -10216" class="C1" /><path d="M 982529 162546 l 3692 0" class="C1" /><path d="M 989665 162546 l 6865 0" class="C1" /><path d="M 977455 92474 c -15238 -10783 -31820 -19530 -49324 -26018" class="C1" /><path d="M 948213 118802 c 0 -4067 -1542 -7982 -4314 -10957" class="C1" /><path d="M 931175 97270 c -519 -330 -1175 -358 -1720 -73 c -545 285 -897 838 -924 1453 c -26 615 277 1196 796 1526" class="C1" /><path d="M 943899 107845 c -3775 -4051 -8051 -7604 -12724 -10575" class="C1" /><path d="M 996530 123967 c 0 -13230 -7350 -25365 -19075 -31493" class="C1" /><path d="M 972436 142742 c -951 0 -1722 771 -1722 1722 c 0 951 771 1722 1722 1722" class="C1" /><path d="M 972436 135606 c -951 0 -1722 771 -1722 1722 c 0 951 771 1722 1722 1722" class="C1" /><path d="M 929327 63227 c -892 -330 -1882 124 -2213 1016 c -330 892 124 1882 1016 2213" class="C1" /></g></svg>
