<?xml version='1.0' encoding='UTF-8'?>
<svg xmlns="http://www.w3.org/2000/svg" width="200.0mm" height="105.0mm" viewBox="-16542 516460 446701 234598"><defs><style>.C1 {stroke: #000000; stroke-width: 678; stroke-opacity: 1.000; fill: none; fill-opacity: 1.000;}</style><style>.C2 {stroke: none; stroke-width: none; stroke-opacity: 1.000; fill: #000000; fill-opacity: 1.000;}</style></defs><rect fill="#ffffff" x="-16542" y="516460" width="446701" height="234598" fill-opacity="1.0"/><g stroke-linecap="round" stroke-linejoin="round"><path d="M 189792 714227 l 11553 0" class="C1"/><path d="M 227093 714227 c 0 11203 -9082 20286 -20286 20286 c -11203 -0 -20286 -9082 -20286 -20286 c 0 -11203 9082 -20286 20286 -20286 c 11203 0 20286 9082 20286 20286" class="C1"/><path d="M 175624 592590 l 62368 0" class="C1"/><path d="M 237992 595301 l -62368 0" class="C1"/><path d="M 237992 633264 l -62368 0" class="C1"/><path d="M 175624 635976 l 62368 0" class="C1"/><path d="M 34539 536741 l 98912 57107" class="C1"/><path d="M 170201 635976 l -31326 0 c -1428 0 -2831 376 -4067 1090 l -98912 57107 c -1931 1115 -4234 1388 -6372 757 c -2138 -632 -3923 -2113 -4938 -4098 c -24584 -48072 -24584 -105026 -0 -153098 c 1015 -1985 2800 -3466 4938 -4098 c 2138 -632 4441 -358 6372 757 l 98912 57107 c 1237 714 2639 1090 4067 1090 l 31326 0" class="C1"/><path d="M 26998 538969 c -24188 47297 -24188 103332 0 150629" class="C1"/><path d="M 28206 539586 c -23989 46909 -23989 102485 0 149394" class="C1"/><path d="M 133451 634718 l -98912 57107" class="C1"/><path d="M 26998 689597 c 677 1323 1867 2311 3292 2732 c 1425 421 2961 239 4248 -504" class="C1"/><path d="M 176980 616995 l 0 16270" class="C1"/><path d="M 168845 616995 l 0 16270" class="C1"/><path d="M 138874 633264 c -1904 0 -3774 501 -5423 1453" class="C1"/><path d="M 172912 641399 l 0 72828" class="C1"/><path d="M 172912 714227 l 13610 0" class="C1"/><path d="M 170201 633264 l -31326 0" class="C1"/><path d="M 170878 641399 l 10 199 29 197 48 194 67 188 85 180 103 171 119 160 134 148 148 134 160 119 171 103 180 85 188 67 194 48 197 29 199 10 199 -10 197 -29 194 -48 188 -67 180 -85 171 -103 160 -119 148 -134 134 -148 119 -160 103 -171 85 -180 67 -188 48 -194 29 -197 10 -199 -2034 0 Z" class="C2"/><path d="M 174946 641399 l -10 -199 -29 -197 -48 -194 -67 -188 -85 -180 -103 -171 -119 -160 -134 -148 -148 -134 -160 -119 -171 -103 -180 -85 -188 -67 -194 -48 -197 -29 -199 -10 -199 10 -197 29 -194 48 -188 67 -180 85 -171 103 -160 119 -148 134 -134 148 -119 160 -103 171 -85 180 -67 188 -48 194 -29 197 -10 199 2034 0 Z" class="C2"/><path d="M 168845 641399 l 8135 0" class="C1"/><path d="M 170201 633264 l 0 2712" class="C1"/><path d="M 168845 635976 l 0 5423" class="C1"/><path d="M 175624 633264 l 0 2712" class="C1"/><path d="M 176980 635976 l 0 5423" class="C1"/><path d="M 133451 593848 c 1649 952 3519 1453 5423 1453" class="C1"/><path d="M 176980 592590 l 0 -5423" class="C1"/><path d="M 168845 587166 l 0 5423" class="C1"/><path d="M 138874 595301 l 31326 0" class="C1"/><path d="M 176980 611571 l 0 -16270" class="C1"/><path d="M 168845 595301 l 0 16270" class="C1"/><path d="M 168845 611571 l 8135 0" class="C1"/><path d="M 176980 616995 l -8135 0" class="C1"/><path d="M 170201 592590 l 0 2712" class="C1"/><path d="M 175624 595301 l 0 -2712" class="C1"/><path d="M 176980 587166 l -8135 0" class="C1"/><path d="M 34539 536741 c -1287 -743 -2823 -925 -4248 -504 c -1425 421 -2615 1409 -3292 2732" class="C1"/><path d="M 379077 536741 l -98912 57107" class="C1"/><path d="M 243415 635976 l 31326 0 c 1428 0 2831 376 4067 1090 l 98912 57107 c 1931 1115 4234 1388 6372 757 c 2138 -632 3923 -2113 4938 -4098 c 24584 -48072 24584 -105026 0 -153098 c -1015 -1985 -2800 -3466 -4938 -4098 c -2138 -632 -4441 -358 -6372 757 l -98912 57107 c -1237 714 -2639 1090 -4067 1090 l -31326 0" class="C1"/><path d="M 386617 689597 c 24188 -47297 24188 -103332 0 -150629" class="C1"/><path d="M 385410 688980 c 23989 -46909 23989 -102485 0 -149394" class="C1"/><path d="M 280165 634718 l 98912 57107" class="C1"/><path d="M 244771 616995 l 0 16270" class="C1"/><path d="M 236636 616995 l 0 16270" class="C1"/><path d="M 243415 633264 l 31326 0" class="C1"/><path d="M 240703 641399 l 0 72828" class="C1"/><path d="M 227093 714227 l 13610 0" class="C1"/><path d="M 218980 709091 l 0 10479" class="C1"/><path d="M 213203 714227 l 11553 0" class="C1"/><path d="M 244771 641399 l -8135 0" class="C1"/><path d="M 236636 635976 l 0 5423" class="C1"/><path d="M 238670 641399 l 10 199 29 197 48 194 67 188 85 180 103 171 119 160 134 148 148 134 160 119 171 103 180 85 188 67 194 48 197 29 199 10 199 -10 197 -29 194 -48 188 -67 180 -85 171 -103 160 -119 148 -134 134 -148 119 -160 103 -171 85 -180 67 -188 48 -194 29 -197 10 -199 -2034 0 Z" class="C2"/><path d="M 242737 641399 l -10 -199 -29 -197 -48 -194 -67 -188 -85 -180 -103 -171 -119 -160 -134 -148 -148 -134 -160 -119 -171 -103 -180 -85 -188 -67 -194 -48 -197 -29 -199 -10 -199 10 -197 29 -194 48 -188 67 -180 85 -171 103 -160 119 -148 134 -134 148 -119 160 -103 171 -85 180 -67 188 -48 194 -29 197 -10 199 2034 0 Z" class="C2"/><path d="M 243415 633264 l 0 2712" class="C1"/><path d="M 237992 633264 l 0 2712" class="C1"/><path d="M 244771 635976 l 0 5423" class="C1"/><path d="M 280165 634718 c -1649 -952 -3519 -1453 -5423 -1453" class="C1"/><path d="M 274741 595301 l -31326 0" class="C1"/><path d="M 244771 587166 l 0 5423" class="C1"/><path d="M 236636 592590 l 0 -5423" class="C1"/><path d="M 244771 595301 l 0 16270" class="C1"/><path d="M 236636 611571 l 0 -16270" class="C1"/><path d="M 236636 616995 l 8135 0" class="C1"/><path d="M 244771 611571 l -8135 0" class="C1"/><path d="M 243415 592590 l 0 2712" class="C1"/><path d="M 237992 595301 l 0 -2712" class="C1"/><path d="M 236636 587166 l 8135 0" class="C1"/><path d="M 274741 595301 c 1904 0 3774 -501 5423 -1453" class="C1"/><path d="M 379077 691825 c 1287 743 2823 925 4248 504 c 1425 -421 2615 -1409 3292 -2732" class="C1"/><path d="M 386617 538969 c -677 -1323 -1867 -2311 -3292 -2732 c -1425 -421 -2961 -239 -4248 504" class="C1"/><path d="M 10214 614283 l 6508 0 m 9762 0 l 6508 0 m 9762 0 l 6508 0 m 9762 0 l 6508 0 m 9762 0 l 6508 0 m 9762 0 l 6508 0 m 9762 0 l 6508 0 m 9762 0 l 6508 0 m 9762 0 l 6508 0 m 9762 0 l 6508 0 m 9762 0 l 6508 0 m 9762 0 l 6508 0 m 9762 0 l 6508 0 m 9762 0 l 6508 0 m 9762 0 l 6508 0 m 9762 0 l 6508 0 m 9762 0 l 6508 0 m 9762 0 l 6508 0 m 9762 0 l 6508 0 m 9762 0 l 6508 0 m 9762 0 l 6508 0 m 9762 0 l 6508 0 m 9762 0 l 6508 0 m 9762 0 l 6508 0 m 9762 0 l 2712 0" class="C1"/><path d="M 95666 624508 l 40525 0" class="C1"/><path d="M 136191 624508 l 0 4004" class="C1"/><path d="M 136191 628512 l -40525 0" class="C1"/><path d="M 95666 628512 l 0 -4004" class="C1"/><path d="M 115928 628512 l 0 44046" class="C1"/><path d="M 113895 672559 l 10 199 29 197 48 194 67 188 85 180 103 171 119 160 134 148 148 134 160 119 171 103 180 85 188 67 194 48 197 29 199 10 199 -10 197 -29 194 -48 188 -67 180 -85 171 -103 160 -119 148 -134 134 -148 119 -160 103 -171 85 -180 67 -188 48 -194 29 -197 10 -199 -2034 0 Z" class="C2"/><path d="M 117962 672559 l -10 -199 -29 -197 -48 -194 -67 -188 -85 -180 -103 -171 -119 -160 -134 -148 -148 -134 -160 -119 -171 -103 -180 -85 -188 -67 -194 -48 -197 -29 -199 -10 -199 10 -197 29 -194 48 -188 67 -180 85 -171 103 -160 119 -148 134 -134 148 -119 160 -103 171 -85 180 -67 188 -48 194 -29 197 -10 199 2034 0 Z" class="C2"/><path d="M 95666 604057 l 40525 0" class="C1"/><path d="M 136191 600053 l -40525 0" class="C1"/><path d="M 133451 593848 c 1649 952 3519 1453 5423 1453" class="C1"/><path d="M 115928 600053 l 0 -44046" class="C1"/><path d="M 117962 556007 l -10 -199 -29 -197 -48 -194 -67 -188 -85 -180 -103 -171 -119 -160 -134 -148 -148 -134 -160 -119 -171 -103 -180 -85 -188 -67 -194 -48 -197 -29 -199 -10 -199 10 -197 29 -194 48 -188 67 -180 85 -171 103 -160 119 -148 134 -134 148 -119 160 -103 171 -85 180 -67 188 -48 194 -29 197 -10 199 2034 0 Z" class="C2"/><path d="M 113895 556007 l 10 199 29 197 48 194 67 188 85 180 103 171 119 160 134 148 148 134 160 119 171 103 180 85 188 67 194 48 197 29 199 10 199 -10 197 -29 194 -48 188 -67 180 -85 171 -103 160 -119 148 -134 134 -148 119 -160 103 -171 85 -180 67 -188 48 -194 29 -197 10 -199 -2034 0 Z" class="C2"/><path d="M 95666 600053 l 0 4004" class="C1"/><path d="M 136191 604057 l 0 -4004" class="C1"/><path d="M 115256 548789 l 11553 0" class="C1"/><path d="M 121033 543653 l 0 10479" class="C1"/><path d="M 119443 676948 l 11553 0" class="C1"/><path d="M 317949 624508 l -40525 0" class="C1"/><path d="M 277425 628512 l 40525 0" class="C1"/><path d="M 317949 628512 l 0 -4004" class="C1"/><path d="M 277425 624508 l 0 4004" class="C1"/><path d="M 297687 628512 l 0 44046" class="C1"/><path d="M 295653 672559 l 10 199 29 197 48 194 67 188 85 180 103 171 119 160 134 148 148 134 160 119 171 103 180 85 188 67 194 48 197 29 199 10 199 -10 197 -29 194 -48 188 -67 180 -85 171 -103 160 -119 148 -134 134 -148 119 -160 103 -171 85 -180 67 -188 48 -194 29 -197 10 -199 -2034 0 Z" class="C2"/><path d="M 299721 672559 l -10 -199 -29 -197 -48 -194 -67 -188 -85 -180 -103 -171 -119 -160 -134 -148 -148 -134 -160 -119 -171 -103 -180 -85 -188 -67 -194 -48 -197 -29 -199 -10 -199 10 -197 29 -194 48 -188 67 -180 85 -171 103 -160 119 -148 134 -134 148 -119 160 -103 171 -85 180 -67 188 -48 194 -29 197 -10 199 2034 0 Z" class="C2"/><path d="M 314042 676948 l -11553 0" class="C1"/><path d="M 277425 600053 l 40525 0" class="C1"/><path d="M 317949 604057 l -40525 0" class="C1"/><path d="M 317949 600053 l 0 4004" class="C1"/><path d="M 277425 604057 l 0 -4004" class="C1"/><path d="M 297687 600053 l 0 -44046" class="C1"/><path d="M 312452 548789 l -11553 0" class="C1"/><path d="M 299721 556007 l -10 -199 -29 -197 -48 -194 -67 -188 -85 -180 -103 -171 -119 -160 -134 -148 -148 -134 -160 -119 -171 -103 -180 -85 -188 -67 -194 -48 -197 -29 -199 -10 -199 10 -197 29 -194 48 -188 67 -180 85 -171 103 -160 119 -148 134 -134 148 -119 160 -103 171 -85 180 -67 188 -48 194 -29 197 -10 199 2034 0 Z" class="C2"/><path d="M 295653 556007 l 10 199 29 197 48 194 67 188 85 180 103 171 119 160 134 148 148 134 160 119 171 103 180 85 188 67 194 48 197 29 199 10 199 -10 197 -29 194 -48 188 -67 180 -85 171 -103 160 -119 148 -134 134 -148 119 -160 103 -171 85 -180 67 -188 48 -194 29 -197 10 -199 -2034 0 Z" class="C2"/><path d="M 306675 543653 l 0 10479" class="C1"/><path d="M 236138 614283 l 0 0 l 13463 -49 l 11262 -146 l 9361 -239 l 7759 -329 l 6457 -415 l 5454 -498 l 4750 -577 l 4346 -652 l 4318 -805 l 4980 -1357 l 6410 -2390 l 8607 -3902 l 11571 -5894 l 15302 -8366 l 19801 -11318 l 25067 -14750" class="C1"/><path d="M 391657 562595 l 16 332 49 329 81 323 112 313 142 301 171 285 198 267 223 246 246 223 267 198 285 171 301 142 313 112 323 81 329 49 332 16 332 -16 329 -49 323 -81 313 -112 301 -142 285 -171 267 -198 246 -223 223 -246 198 -267 171 -285 142 -301 112 -313 81 -323 49 -329 16 -332 -3390 0 Z" class="C2"/><path d="M 398436 562595 l -16 -332 -49 -329 -81 -323 -112 -313 -142 -301 -171 -285 -198 -267 -223 -246 -246 -223 -267 -198 -285 -171 -301 -142 -313 -112 -323 -81 -329 -49 -332 -16 -332 16 -329 49 -323 81 -313 112 -301 142 -285 171 -267 198 -246 223 -223 246 -198 267 -171 285 -142 301 -112 313 -81 323 -49 329 -16 332 3390 0 Z" class="C2"/><path d="M 176474 614283 l 0 0 l -13165 31 l -10961 90 l -9062 143 l -7467 189 l -6177 230 l -5191 264 l -4509 292 l -4132 315 l -4155 353 l -4959 496 l -6640 768 l -9198 1166 l -12633 1692 l -16944 2346 l -22133 3127 l -28198 4036" class="C1"/><path d="M 7562 629822 l 16 332 49 329 81 323 112 313 142 301 171 285 198 267 223 246 246 223 267 198 285 171 301 142 313 112 323 81 329 49 332 16 332 -16 329 -49 323 -81 313 -112 301 -142 285 -171 267 -198 246 -223 223 -246 198 -267 171 -285 142 -301 112 -313 81 -323 49 -329 16 -332 -3390 0 Z" class="C2"/><path d="M 14341 629822 l -16 -332 -49 -329 -81 -323 -112 -313 -142 -301 -171 -285 -198 -267 -223 -246 -246 -223 -267 -198 -285 -171 -301 -142 -313 -112 -323 -81 -329 -49 -332 -16 -332 16 -329 49 -323 81 -313 112 -301 142 -285 171 -267 198 -246 223 -223 246 -198 267 -171 285 -142 301 -112 313 -81 323 -49 329 -16 332 3390 0 Z" class="C2"/></g></svg>