<?xml version='1.0' encoding='utf-8'?>
<svg xmlns="http://www.w3.org/2000/svg" width="200.0mm" height="408.4mm" viewBox="-11025 51845 146123 298393"><defs><style>.C1 {stroke: #000000; stroke-width: 430; stroke-opacity: 1.000; fill: none; fill-opacity: 1.000;}</style><style>.C2 {stroke: none; stroke-width: none; stroke-opacity: 1.000; fill: #000000; fill-opacity: 1.000;}</style></defs><rect fill="#ffffff" x="-11025" y="51845" width="146123" height="298393" fill-opacity="1.0" /><g stroke-linecap="round" stroke-linejoin="round"><path d="M 89558 271613 l 0 -111374" class="C1" /><path d="M 86115 271613 l 0 -34408 c 0 -1903 -1046 -3651 -2723 -4551 c -8959 -4808 -14549 -14153 -14549 -24320 l 0 -89532 c 0 -3195 -1211 -6271 -3390 -8609 c -3576 -3837 -7626 -7203 -12052 -10017" class="C1" /><path d="M 53401 63227 c 17714 6566 34499 15408 49931 26305 c 12746 6760 20715 20008 20715 34435 l 0 84366 c 0 10168 -5590 19512 -14549 24320 c -1677 900 -2723 2648 -2723 4551 l 0 34408" class="C1" /><path d="M 86115 222823 l 0 -62211" class="C1" /><path d="M 72287 208333 c 0 6491 2612 12710 7248 17253" class="C1" /><path d="M 72287 208333 l 0 -89532" class="C1" /><path d="M 72287 118802 c 0 -4067 -1542 -7982 -4314 -10957" class="C1" /><path d="M 67973 107845 c -3775 -4051 -8051 -7604 -12724 -10575" class="C1" /><path d="M 101529 92474 c -15238 -10783 -31820 -19530 -49324 -26018" class="C1" /><path d="M 120604 123967 c 0 -13230 -7350 -25365 -19075 -31493" class="C1" /><path d="M 120604 123967 l 0 84366" class="C1" /><path d="M 103594 231410 c 10114 -3133 17010 -12488 17010 -23076" class="C1" /><path d="M 103333 271613 l 0 -29064" class="C1" /><path d="M 86428 158769 l 3422 -9797" class="C1" /><path d="M 89611 159472 l 1414 -10216" class="C1" /><path d="M 55249 97270 c -519 -330 -1175 -358 -1720 -73 c -545 285 -897 838 -924 1453 c -26 615 277 1196 796 1526" class="C1" /><path d="M 53401 63227 c -892 -330 -1882 124 -2213 1016 c -330 892 124 1882 1016 2213" class="C1" /><path d="M 86115 271613 c 0 951 771 1722 1722 1722 c 951 -0 1722 -771 1722 -1722" class="C1" /><path d="M 103333 271613 c 0 951 771 1722 1722 1722 c 951 -0 1722 -771 1722 -1722" class="C1" /><path d="M 72287 162546 l 13828 0" class="C1" /><path d="M 86093 169421 l 0 0" class="C1" /><path d="M 86093 180355 l 0 0" class="C1" /><path d="M 86093 191288 l 0 0" class="C1" /><path d="M 86093 202221 l 0 0" class="C1" /><path d="M 86093 213154 l 0 0" class="C1" /><path d="M 86115 294421 l 0 -49931" class="C1" /><path d="M 82671 244490 l 0 49931" class="C1" /><path d="M 86115 244490 c -0 -951 -771 -1722 -1722 -1722 c -951 0 -1722 771 -1722 1722" class="C1" /><path d="M 80950 252407 l 8 169 25 167 41 164 57 159 72 153 87 145 101 136 113 125 125 113 136 101 145 87 153 72 159 57 164 41 167 25 169 8 169 -8 167 -25 164 -41 159 -57 153 -72 145 -87 136 -101 125 -113 113 -125 101 -136 87 -145 72 -153 57 -159 41 -164 25 -167 8 -169 -1722 0 Z" class="C2" /><path d="M 84393 252407 l -8 -169 -25 -167 -41 -164 -57 -159 -72 -153 -87 -145 -101 -136 -113 -125 -125 -113 -136 -101 -145 -87 -153 -72 -159 -57 -164 -41 -167 -25 -169 -8 -169 8 -167 25 -164 41 -159 57 -153 72 -145 87 -136 101 -125 113 -113 125 -101 136 -87 145 -72 153 -57 159 -41 164 -25 167 -8 169 1722 0 Z" class="C2" /><path d="M 110220 244490 l 0 49931" class="C1" /><path d="M 106776 294421 l 0 -49931" class="C1" /><path d="M 108498 252407 l 8 169 25 167 41 164 57 159 72 153 87 145 101 136 113 125 125 113 136 101 145 87 153 72 159 57 164 41 167 25 169 8 169 -8 167 -25 164 -41 159 -57 153 -72 145 -87 136 -101 125 -113 113 -125 101 -136 87 -145 72 -153 57 -159 41 -164 25 -167 8 -169 -1722 0 Z" class="C2" /><path d="M 111941 252407 l -8 -169 -25 -167 -41 -164 -57 -159 -72 -153 -87 -145 -101 -136 -113 -125 -125 -113 -136 -101 -145 -87 -153 -72 -159 -57 -164 -41 -167 -25 -169 -8 -169 8 -167 25 -164 41 -159 57 -153 72 -145 87 -136 101 -125 113 -113 125 -101 136 -87 145 -72 153 -57 159 -41 164 -25 167 -8 169 1722 0 Z" class="C2" /><path d="M 110220 244490 c 0 -951 -771 -1722 -1722 -1722 c -951 -0 -1722 771 -1722 1722" class="C1" /><path d="M 95369 262999 l 2152 0 -1076 -6457 Z" class="C2" /><path d="M 96445 262999 l 0 76188" class="C1" /><path d="M 5812 66768 l 681 -2042 -6466 -1021 Z" class="C2" /><path d="M 6152 65747 l 61023 20341" class="C1" /><path d="M 79535 225587 c 1113 1091 2771 1408 4208 804 c 1437 -604 2371 -2010 2371 -3568" class="C1" /><path d="M 91025 149256 c 43 -309 -156 -601 -459 -674 c -304 -73 -613 96 -716 390" class="C1" /><path d="M 89611 159472 c -35 254 -53 510 -53 766" class="C1" /><path d="M 86428 158769 c -207 592 -313 1216 -313 1843" class="C1" /><path d="M 93251 228129 l 0 -67891" class="C1" /><path d="M 96694 226324 l 0 -65712" class="C1" /><path d="M 96382 158769 l -3422 -9797" class="C1" /><path d="M 92960 148972 c -103 -295 -413 -464 -716 -390 c -304 73 -502 365 -459 674" class="C1" /><path d="M 96694 160612 c 0 -628 -106 -1251 -313 -1843" class="C1" /><path d="M 93251 160238 c 0 -256 -18 -512 -53 -766" class="C1" /><path d="M 93198 159472 l -1414 -10216" class="C1" /><path d="M 96694 226324 c 0 1692 804 3282 2165 4286 c 1362 1004 3119 1301 4735 800" class="C1" /><path d="M 106603 208611 l 0 -55776" class="C1" /><path d="M 103160 208611 l 0 -55776" class="C1" /><path d="M 110295 208611 l 0 -55776" class="C1" /><path d="M 113739 208611 l 0 -55776" class="C1" /><path d="M 103160 208611 c 0 951 771 1722 1722 1722 c 951 0 1722 -771 1722 -1722" class="C1" /><path d="M 110295 208611 c 0 951 771 1722 1722 1722 c 951 0 1722 -771 1722 -1722" class="C1" /><path d="M 103160 152835 c 0 -3672 -2977 -6650 -6650 -6650" class="C1" /><path d="M 106603 152835 c 0 -5574 -4519 -10093 -10093 -10093" class="C1" /><path d="M 110295 152835 c 0 -7613 -6172 -13785 -13785 -13785" class="C1" /><path d="M 113739 152835 c 0 -9515 -7714 -17229 -17229 -17229" class="C1" /><path d="M 96510 135606 c -951 0 -1722 771 -1722 1722 c 0 951 771 1722 1722 1722" class="C1" /><path d="M 96510 142742 c -951 0 -1722 771 -1722 1722 c 0 951 771 1722 1722 1722" class="C1" /><path d="M 96694 162546 l 6466 0" class="C1" /><path d="M 113739 162546 l 6865 0" class="C1" /><path d="M 106603 162546 l 3692 0" class="C1" /><path d="M 95566 233070 l 5451 4538" class="C1" /><path d="M 103333 242548 c 0 -1909 -848 -3719 -2315 -4941" class="C1" /><path d="M 93251 228129 c 0 1909 848 3719 2315 4941" class="C1" /><path d="M 72287 162546 l 0 45787 c 0 6491 2612 12710 7248 17253 c 1113 1091 2771 1408 4208 804 c 1437 -604 2371 -2010 2371 -3568 l 0 -60276 l -13828 0" class="C1" /><path d="M 96694 162546 l 0 63777 c 0 1692 804 3282 2165 4286 c 1362 1004 3119 1301 4735 800 c 10114 -3133 17010 -12488 17010 -23076 l 0 -45787 l -6865 0 l -0 46065 c 0 951 -771 1722 -1722 1722 c -951 0 -1722 -771 -1722 -1722 l 0 -46065 l -3692 0 l 0 46065 c 0 951 -771 1722 -1722 1722 c -951 0 -1722 -771 -1722 -1722 l 0 -46065 l -6466 0" class="C1" /><path d="M 100461 222364 l 0 0 m 4719 -3621 l 0 0 m 4510 -3461 l 0 0 m 4219 -3237 l 0 0 m 4719 -3621 l 0 0 m -18387 7198 l 0 0 m 4719 -3621 l 0 0 m 4510 -3461 l 0 0 m 8938 -6858 l 0 0 m -36054 20755 l 0 0 m 17667 -13556 l 0 0 m 9229 -7082 l 0 0 m 8938 -6858 l 0 0 m -40564 24216 l 0 0 m 4510 -3461 l 0 0 m 17667 -13556 l 0 0 m 9229 -7082 l 0 0 m 8938 -6858 l 0 0 m -40564 24216 l 0 0 m 4510 -3461 l 0 0 m 17667 -13556 l 0 0 m 9229 -7082 l 0 0 m 8938 -6858 l 0 0 m -45283 27837 l 0 0 m 4719 -3621 l 0 0 m 4510 -3461 l 0 0 m 4219 -3237 l 0 0 m 13448 -10319 l 0 0 m 9229 -7082 l 0 0 m 8938 -6858 l 0 0 m -40564 24216 l 0 0 m 4510 -3461 l 0 0 m 4219 -3237 l 0 0 m 13448 -10319 l 0 0 m 9229 -7082 l 0 0 m 8938 -6858 l 0 0 m -40564 24216 l 0 0 m 4510 -3461 l 0 0 m 4219 -3237 l 0 0 m 13448 -10319 l 0 0 m 9229 -7082 l 0 0 m -31627 17358 l 0 0 m 4510 -3461 l 0 0 m 4219 -3237 l 0 0 m 13448 -10319 l 0 0 m -22398 10276 l 0 0 m 4510 -3461 l 0 0 m 4219 -3237 l 0 0 m 15652 57093 l 0 0 m 4719 -3621 l 0 0 m 4510 -3461 l 0 0 m 4219 -3237 l 0 0 m 4719 -3621 l 0 0 m -42768 -43197 l 0 0 m 4510 -3461 l 0 0 m 4219 -3237 l 0 0 m -8950 -43 l 0 0 m 1670 55210 l 0 0 m 4752 -626 l 0 0 m 1821 -240 l 0 0 m 17014 -2240 l 0 0 m 1821 -240 l 0 0 m 2844 -374 l 0 0 m 4752 -626 l 0 0 m 1821 -240 l 0 0 m 2844 -374 l 0 0 m -40896 -3675 l 0 0 m 4752 -626 l 0 0 m 1821 -240 l 0 0 m 2844 -374 l 0 0 m 14170 -1865 l 0 0 m 1821 -240 l 0 0 m 2844 -374 l 0 0 m 4752 -626 l 0 0 m 1821 -240 l 0 0 m 7596 -1000 l 0 0 m 1821 -240 l 0 0 m -42717 -3435 l 0 0 m 1821 -240 l 0 0 m 2844 -374 l 0 0 m 4752 -626 l 0 0 m 14083 -1854 l 0 0 m 9417 -1240 l 0 0 m 6573 -865 l 0 0 m 2844 -374 l 0 0 m -45561 -3060 l 0 0 m 1821 -240 l 0 0 m 2844 -374 l 0 0 m 4752 -626 l 0 0 m 1821 -240 l 0 0 m 17014 -2240 l 0 0 m 1821 -240 l 0 0 m 7596 -1000 l 0 0 m 4665 -614 l 0 0 m 4752 -626 l 0 0 m -45648 -3049 l 0 0 m 4752 -626 l 0 0 m 1821 -240 l 0 0 m 2844 -374 l 0 0 m 14170 -1865 l 0 0 m 1821 -240 l 0 0 m 2844 -374 l 0 0 m 4752 -626 l 0 0 m 1821 -240 l 0 0 m 7596 -1000 l 0 0 m 1821 -240 l 0 0 m -42717 -3435 l 0 0 m 1821 -240 l 0 0 m 2844 -374 l 0 0 m 4752 -626 l 0 0 m 14083 -1854 l 0 0 m 9417 -1240 l 0 0 m 6573 -865 l 0 0 m 2844 -374 l 0 0 m -45561 -3060 l 0 0 m 1821 -240 l 0 0 m 2844 -374 l 0 0 m 4752 -626 l 0 0 m 1821 -240 l 0 0 m 17014 -2240 l 0 0 m 1821 -240 l 0 0 m -5672 64156 l 0 0 m 2844 -374 l 0 0 m 4752 -626 l 0 0 m 1821 -240 l 0 0 m 2844 -374 l 0 0 m 4752 -626 l 0 0 m -37898 -16767 l 0 0 m 6934 4418 l 0 0 m 1475 940 l 0 0 m 13721 8741 l 0 0 m 5311 3384 l 0 0 m -30267 -26243 l 0 0 m 6934 4418 l 0 0 m 1475 940 l 0 0 m 19032 12125 l 0 0 m 6934 4418 l 0 0 m 1475 940 l 0 0 m -31743 -27183 l 0 0 m 1475 940 l 0 0 m 5311 3384 l 0 0 m 13721 8741 l 0 0 m 6934 4418 l 0 0 m 1475 940 l 0 0 m 5311 3384 l 0 0 m -37054 -30567 l 0 0 m 1475 940 l 0 0 m 5311 3384 l 0 0 m 20655 13159 l 0 0 m 6787 4324 l 0 0 m 6934 4418 l 0 0 m 1475 940 l 0 0 m -43988 -34984 l 0 0 m 5311 3384 l 0 0 m 6934 4418 l 0 0 m 13721 8741 l 0 0 m 1475 940 l 0 0 m 13721 8741 l 0 0 m 5311 3384 l 0 0 m -43988 -34984 l 0 0 m 6934 4418 l 0 0 m 1475 940 l 0 0 m 13721 8741 l 0 0 m 5311 3384 l 0 0 m 6934 4418 l 0 0 m 6787 4324 l 0 0 m -43988 -34984 l 0 0 m 6934 4418 l 0 0 m 1475 940 l 0 0 m 19032 12125 l 0 0 m 6934 4418 l 0 0 m 1475 940 l 0 0 m 5311 3384 l 0 0 m -30267 -26243 l 0 0 m 13721 8741 l 0 0 m 20655 13159 l 0 0 m 1475 940 l 0 0 m -18022 -18442 l 0 0 m 1475 940 l 0 0 m 5311 3384 l 0 0 m 6934 4418 l 0 0 m 1475 940 l 0 0 m -43174 35143 l 0 0 m 5311 3384 l 0 0 m 6934 4418 l 0 0 m 13721 8741 l 0 0 m 1475 940 l 0 0 m 18218 -58002 l 0 0 m -2826 -8761 l 0 0 m -34697 61425 l 0 0 m -6729 -29014 l 0 0 m 3482 3191 l 0 0 m 645 591 l 0 0 m 3044 2789 l 0 0 m 3482 3191 l 0 0 m 645 591 l 0 0 m 13697 12551 l 0 0 m 645 591 l 0 0 m 3044 2789 l 0 0 m 3482 3191 l 0 0 m 645 591 l 0 0 m -33153 -43087 l 0 0 m 645 591 l 0 0 m 3044 2789 l 0 0 m 3482 3191 l 0 0 m 645 591 l 0 0 m 3044 2789 l 0 0 m 14342 13142 l 0 0 m 3482 3191 l 0 0 m 645 591 l 0 0 m 3044 2789 l 0 0 m 3482 3191 l 0 0 m 645 591 l 0 0 m 3044 2789 l 0 0 m -39679 -49067 l 0 0 m 3482 3191 l 0 0 m 645 591 l 0 0 m 3044 2789 l 0 0 m 3482 3191 l 0 0 m 645 591 l 0 0 m 13697 12551 l 0 0 m 645 591 l 0 0 m 3044 2789 l 0 0 m 4127 3782 l 0 0 m 3044 2789 l 0 0 m 4127 3782 l 0 0 m 3044 2789 l 0 0 m -36197 -45876 l 0 0 m 645 591 l 0 0 m 3044 2789 l 0 0 m 14342 13142 l 0 0 m 3482 3191 l 0 0 m 7171 6571 l 0 0 m 7171 6571 l 0 0 m 645 591 l 0 0 m -18811 -29945 l 0 0 m 645 591 l 0 0 m 3044 2789 l 0 0 m 4127 3782 l 0 0 m 3044 2789 l 0 0 m 4127 3782 l 0 0 m 3044 2789 l 0 0 m 3482 3191 l 0 0 m -10995 -22783 l 0 0 m 645 591 l 0 0 m 6526 5980 l 0 0 m 645 591 l 0 0 m 3044 2789 l 0 0 m -45280 34757 l 0 0 m 645 591 l 0 0 m 3044 2789 l 0 0 m 3482 3191 l 0 0 m 645 591 l 0 0 m 3044 2789 l 0 0" class="C1" /></g></svg>
