<?xml version='1.0' encoding='UTF-8'?>
<svg xmlns="http://www.w3.org/2000/svg" width="200.0mm" height="105.0mm" viewBox="-16542 781865 446701 234599"><defs><style>.C1 {stroke: #000000; stroke-width: 678; stroke-opacity: 1.000; fill: none; fill-opacity: 1.000;}</style><style>.C2 {stroke: none; stroke-width: none; stroke-opacity: 1.000; fill: #000000; fill-opacity: 1.000;}</style></defs><rect fill="#ffffff" x="-16542" y="781865" width="446701" height="234599" fill-opacity="1.0"/><g stroke-linecap="round" stroke-linejoin="round"><path d="M 10214 879688 l 6508 0 m 9762 0 l 6508 0 m 9762 0 l 6508 0 m 9762 0 l 6508 0 m 9762 0 l 6508 0 m 9762 0 l 6508 0 m 9762 0 l 6508 0 m 9762 0 l 6508 0 m 9762 0 l 6508 0 m 9762 0 l 6508 0 m 9762 0 l 6508 0 m 9762 0 l 6508 0 m 9762 0 l 6508 0 m 9762 0 l 6508 0 m 9762 0 l 6508 0 m 9762 0 l 6508 0 m 9762 0 l 6508 0 m 9762 0 l 6508 0 m 9762 0 l 6508 0 m 9762 0 l 6508 0 m 9762 0 l 6508 0 m 9762 0 l 6508 0 m 9762 0 l 6508 0 m 9762 0 l 6508 0 m 9762 0 l 2712 0" class="C1"/><path d="M 175624 901381 l 62368 0" class="C1"/><path d="M 237992 898670 l -62368 0" class="C1"/><path d="M 237992 860707 l -62368 0" class="C1"/><path d="M 175624 857995 l 62368 0" class="C1"/><path d="M 227093 979633 c 0 11203 -9082 20286 -20286 20286 c -11203 0 -20286 -9082 -20286 -20286 c 0 -11203 9082 -20286 20286 -20286 c 11203 0 20286 9082 20286 20286" class="C1"/><path d="M 189792 979633 l 11553 0" class="C1"/><path d="M 115928 865459 l 0 -44046" class="C1"/><path d="M 34539 802147 l 98912 57107" class="C1"/><path d="M 28206 804991 c -23989 46909 -23989 102485 0 149394" class="C1"/><path d="M 26998 804374 c -24188 47297 -24188 103332 0 150629" class="C1"/><path d="M 170201 901381 l -31326 0 c -1428 0 -2831 376 -4067 1090 l -98912 57107 c -1931 1115 -4234 1388 -6372 757 c -2138 -632 -3923 -2113 -4938 -4098 c -24584 -48072 -24584 -105026 -0 -153098 c 1015 -1985 2800 -3466 4938 -4098 c 2138 -632 4441 -358 6372 757 l 98912 57107 c 1237 714 2639 1090 4067 1090 l 31326 0" class="C1"/><path d="M 176474 879688 l 0 0 l -13165 31 l -10961 90 l -9062 143 l -7467 189 l -6177 230 l -5191 264 l -4509 292 l -4132 315 l -4155 353 l -4959 496 l -6640 768 l -9198 1166 l -12633 1692 l -16944 2346 l -22133 3127 l -28198 4036" class="C1"/><path d="M 133451 900123 l -98912 57107" class="C1"/><path d="M 7562 895227 l 16 332 49 329 81 323 112 313 142 301 171 285 198 267 223 246 246 223 267 198 285 171 301 142 313 112 323 81 329 49 332 16 332 -16 329 -49 323 -81 313 -112 301 -142 285 -171 267 -198 246 -223 223 -246 198 -267 171 -285 142 -301 112 -313 81 -323 49 -329 16 -332 -3390 0 Z" class="C2"/><path d="M 14341 895227 l -16 -332 -49 -329 -81 -323 -112 -313 -142 -301 -171 -285 -198 -267 -223 -246 -246 -223 -267 -198 -285 -171 -301 -142 -313 -112 -323 -81 -329 -49 -332 -16 -332 16 -329 49 -323 81 -313 112 -301 142 -285 171 -267 198 -246 223 -223 246 -198 267 -171 285 -142 301 -112 313 -81 323 -49 329 -16 332 3390 0 Z" class="C2"/><path d="M 26998 955003 c 677 1323 1867 2311 3292 2732 c 1425 421 2961 239 4248 -504" class="C1"/><path d="M 172912 906805 l 0 72828" class="C1"/><path d="M 172912 979633 l 13610 0" class="C1"/><path d="M 133451 859254 c 1649 952 3519 1453 5423 1453" class="C1"/><path d="M 136191 865459 l -40525 0" class="C1"/><path d="M 95666 869463 l 40525 0" class="C1"/><path d="M 95666 889914 l 40525 0" class="C1"/><path d="M 136191 893918 l -40525 0" class="C1"/><path d="M 133451 859254 c 1649 952 3519 1453 5423 1453" class="C1"/><path d="M 138874 898670 c -1904 -0 -3774 501 -5423 1453" class="C1"/><path d="M 115928 893918 l 0 44046" class="C1"/><path d="M 113895 937964 l 10 199 29 197 48 194 67 188 85 180 103 171 119 160 134 148 148 134 160 119 171 103 180 85 188 67 194 48 197 29 199 10 199 -10 197 -29 194 -48 188 -67 180 -85 171 -103 160 -119 148 -134 134 -148 119 -160 103 -171 85 -180 67 -188 48 -194 29 -197 10 -199 -2034 0 Z" class="C2"/><path d="M 117962 937964 l -10 -199 -29 -197 -48 -194 -67 -188 -85 -180 -103 -171 -119 -160 -134 -148 -148 -134 -160 -119 -171 -103 -180 -85 -188 -67 -194 -48 -197 -29 -199 -10 -199 10 -197 29 -194 48 -188 67 -180 85 -171 103 -160 119 -148 134 -134 148 -119 160 -103 171 -85 180 -67 188 -48 194 -29 197 -10 199 2034 0 Z" class="C2"/><path d="M 119443 942353 l 11553 0" class="C1"/><path d="M 95666 893918 l 0 -4004" class="C1"/><path d="M 95666 865459 l 0 4004" class="C1"/><path d="M 175624 898670 l 0 2712" class="C1"/><path d="M 170201 898670 l 0 2712" class="C1"/><path d="M 168845 906805 l 8135 0" class="C1"/><path d="M 170878 906805 l 10 199 29 197 48 194 67 188 85 180 103 171 119 160 134 148 148 134 160 119 171 103 180 85 188 67 194 48 197 29 199 10 199 -10 197 -29 194 -48 188 -67 180 -85 171 -103 160 -119 148 -134 134 -148 119 -160 103 -171 85 -180 67 -188 48 -194 29 -197 10 -199 -2034 0 Z" class="C2"/><path d="M 174946 906805 l -10 -199 -29 -197 -48 -194 -67 -188 -85 -180 -103 -171 -119 -160 -134 -148 -148 -134 -160 -119 -171 -103 -180 -85 -188 -67 -194 -48 -197 -29 -199 -10 -199 10 -197 29 -194 48 -188 67 -180 85 -171 103 -160 119 -148 134 -134 148 -119 160 -103 171 -85 180 -67 188 -48 194 -29 197 -10 199 2034 0 Z" class="C2"/><path d="M 168845 901381 l 0 5423" class="C1"/><path d="M 176980 901381 l 0 5423" class="C1"/><path d="M 138874 860707 l 31326 0" class="C1"/><path d="M 170201 898670 l -31326 0" class="C1"/><path d="M 136191 889914 l 0 4004" class="C1"/><path d="M 136191 869463 l 0 -4004" class="C1"/><path d="M 168845 860707 l 0 16270" class="C1"/><path d="M 176980 876977 l 0 -16270" class="C1"/><path d="M 176980 882400 l -8135 0" class="C1"/><path d="M 168845 882400 l 0 16270" class="C1"/><path d="M 176980 882400 l 0 16270" class="C1"/><path d="M 168845 876977 l 8135 0" class="C1"/><path d="M 176980 852572 l -8135 0" class="C1"/><path d="M 170201 857995 l 0 2712" class="C1"/><path d="M 168845 852572 l 0 5423" class="C1"/><path d="M 175624 860707 l 0 -2712" class="C1"/><path d="M 176980 857995 l 0 -5423" class="C1"/><path d="M 34539 802147 c -1287 -743 -2823 -925 -4248 -504 c -1425 421 -2615 1409 -3292 2732" class="C1"/><path d="M 115256 814194 l 11553 0" class="C1"/><path d="M 117962 821413 l -10 -199 -29 -197 -48 -194 -67 -188 -85 -180 -103 -171 -119 -160 -134 -148 -148 -134 -160 -119 -171 -103 -180 -85 -188 -67 -194 -48 -197 -29 -199 -10 -199 10 -197 29 -194 48 -188 67 -180 85 -171 103 -160 119 -148 134 -134 148 -119 160 -103 171 -85 180 -67 188 -48 194 -29 197 -10 199 2034 0 Z" class="C2"/><path d="M 113895 821413 l 10 199 29 197 48 194 67 188 85 180 103 171 119 160 134 148 148 134 160 119 171 103 180 85 188 67 194 48 197 29 199 10 199 -10 197 -29 194 -48 188 -67 180 -85 171 -103 160 -119 148 -134 134 -148 119 -160 103 -171 85 -180 67 -188 48 -194 29 -197 10 -199 -2034 0 Z" class="C2"/><path d="M 121033 809058 l 0 10479" class="C1"/><path d="M 391657 828000 l 16 332 49 329 81 323 112 313 142 301 171 285 198 267 223 246 246 223 267 198 285 171 301 142 313 112 323 81 329 49 332 16 332 -16 329 -49 323 -81 313 -112 301 -142 285 -171 267 -198 246 -223 223 -246 198 -267 171 -285 142 -301 112 -313 81 -323 49 -329 16 -332 -3390 0 Z" class="C2"/><path d="M 398436 828000 l -16 -332 -49 -329 -81 -323 -112 -313 -142 -301 -171 -285 -198 -267 -223 -246 -246 -223 -267 -198 -285 -171 -301 -142 -313 -112 -323 -81 -329 -49 -332 -16 -332 16 -329 49 -323 81 -313 112 -301 142 -285 171 -267 198 -246 223 -223 246 -198 267 -171 285 -142 301 -112 313 -81 323 -49 329 -16 332 3390 0 Z" class="C2"/><path d="M 297687 865459 l 0 -44046" class="C1"/><path d="M 379077 802147 l -98912 57107" class="C1"/><path d="M 385410 954385 c 23989 -46909 23989 -102485 0 -149394" class="C1"/><path d="M 386617 955003 c 24188 -47297 24188 -103332 0 -150629" class="C1"/><path d="M 243415 901381 l 31326 0 c 1428 0 2831 376 4067 1090 l 98912 57107 c 1931 1115 4234 1388 6372 757 c 2138 -632 3923 -2113 4938 -4098 c 24584 -48072 24584 -105026 0 -153098 c -1015 -1985 -2800 -3466 -4938 -4098 c -2138 -632 -4441 -358 -6372 757 l -98912 57107 c -1237 714 -2639 1090 -4067 1090 l -31326 0" class="C1"/><path d="M 236138 879688 l 0 0 l 13463 -49 l 11262 -146 l 9361 -239 l 7759 -329 l 6457 -415 l 5454 -498 l 4750 -577 l 4346 -652 l 4318 -805 l 4980 -1357 l 6410 -2390 l 8607 -3902 l 11571 -5894 l 15302 -8366 l 19801 -11318 l 25067 -14750" class="C1"/><path d="M 280165 900123 l 98912 57107" class="C1"/><path d="M 240703 906805 l 0 72828" class="C1"/><path d="M 227093 979633 l 13610 0" class="C1"/><path d="M 213203 979633 l 11553 0" class="C1"/><path d="M 218980 974496 l 0 10479" class="C1"/><path d="M 274741 860707 l -31326 0" class="C1"/><path d="M 243415 898670 l 31326 0" class="C1"/><path d="M 237992 898670 l 0 2712" class="C1"/><path d="M 243415 898670 l 0 2712" class="C1"/><path d="M 244771 906805 l -8135 0" class="C1"/><path d="M 236636 901381 l 0 5423" class="C1"/><path d="M 238670 906805 l 10 199 29 197 48 194 67 188 85 180 103 171 119 160 134 148 148 134 160 119 171 103 180 85 188 67 194 48 197 29 199 10 199 -10 197 -29 194 -48 188 -67 180 -85 171 -103 160 -119 148 -134 134 -148 119 -160 103 -171 85 -180 67 -188 48 -194 29 -197 10 -199 -2034 0 Z" class="C2"/><path d="M 242737 906805 l -10 -199 -29 -197 -48 -194 -67 -188 -85 -180 -103 -171 -119 -160 -134 -148 -148 -134 -160 -119 -171 -103 -180 -85 -188 -67 -194 -48 -197 -29 -199 -10 -199 10 -197 29 -194 48 -188 67 -180 85 -171 103 -160 119 -148 134 -134 148 -119 160 -103 171 -85 180 -67 188 -48 194 -29 197 -10 199 2034 0 Z" class="C2"/><path d="M 244771 901381 l 0 5423" class="C1"/><path d="M 236636 876977 l 0 -16270" class="C1"/><path d="M 244771 860707 l 0 16270" class="C1"/><path d="M 244771 876977 l -8135 0" class="C1"/><path d="M 236636 882400 l 8135 0" class="C1"/><path d="M 236636 882400 l 0 16270" class="C1"/><path d="M 244771 882400 l 0 16270" class="C1"/><path d="M 236636 852572 l 8135 0" class="C1"/><path d="M 236636 857995 l 0 -5423" class="C1"/><path d="M 237992 860707 l 0 -2712" class="C1"/><path d="M 243415 857995 l 0 2712" class="C1"/><path d="M 244771 852572 l 0 5423" class="C1"/><path d="M 297687 893918 l 0 44046" class="C1"/><path d="M 280165 900123 c -1649 -952 -3519 -1453 -5423 -1453" class="C1"/><path d="M 314042 942353 l -11553 0" class="C1"/><path d="M 295653 937964 l 10 199 29 197 48 194 67 188 85 180 103 171 119 160 134 148 148 134 160 119 171 103 180 85 188 67 194 48 197 29 199 10 199 -10 197 -29 194 -48 188 -67 180 -85 171 -103 160 -119 148 -134 134 -148 119 -160 103 -171 85 -180 67 -188 48 -194 29 -197 10 -199 -2034 0 Z" class="C2"/><path d="M 299721 937964 l -10 -199 -29 -197 -48 -194 -67 -188 -85 -180 -103 -171 -119 -160 -134 -148 -148 -134 -160 -119 -171 -103 -180 -85 -188 -67 -194 -48 -197 -29 -199 -10 -199 10 -197 29 -194 48 -188 67 -180 85 -171 103 -160 119 -148 134 -134 148 -119 160 -103 171 -85 180 -67 188 -48 194 -29 197 -10 199 2034 0 Z" class="C2"/><path d="M 317949 869463 l -40525 0" class="C1"/><path d="M 277425 865459 l 40525 0" class="C1"/><path d="M 277425 893918 l 40525 0" class="C1"/><path d="M 317949 889914 l -40525 0" class="C1"/><path d="M 277425 889914 l 0 4004" class="C1"/><path d="M 277425 869463 l 0 -4004" class="C1"/><path d="M 274741 860707 c 1904 0 3774 -501 5423 -1453" class="C1"/><path d="M 317949 893918 l 0 -4004" class="C1"/><path d="M 317949 865459 l 0 4004" class="C1"/><path d="M 379077 957230 c 1287 743 2823 925 4248 504 c 1425 -421 2615 -1409 3292 -2732" class="C1"/><path d="M 312452 814194 l -11553 0" class="C1"/><path d="M 299721 821413 l -10 -199 -29 -197 -48 -194 -67 -188 -85 -180 -103 -171 -119 -160 -134 -148 -148 -134 -160 -119 -171 -103 -180 -85 -188 -67 -194 -48 -197 -29 -199 -10 -199 10 -197 29 -194 48 -188 67 -180 85 -171 103 -160 119 -148 134 -134 148 -119 160 -103 171 -85 180 -67 188 -48 194 -29 197 -10 199 2034 0 Z" class="C2"/><path d="M 295653 821413 l 10 199 29 197 48 194 67 188 85 180 103 171 119 160 134 148 148 134 160 119 171 103 180 85 188 67 194 48 197 29 199 10 199 -10 197 -29 194 -48 188 -67 180 -85 171 -103 160 -119 148 -134 134 -148 119 -160 103 -171 85 -180 67 -188 48 -194 29 -197 10 -199 -2034 0 Z" class="C2"/><path d="M 306675 809058 l 0 10479" class="C1"/><path d="M 386617 804374 c -677 -1323 -1867 -2311 -3292 -2732 c -1425 -421 -2961 -239 -4248 504" class="C1"/><path d="M 176474 879688 l 0 0 l -8122 39 l -7812 114 l -7492 183 l -7163 247 l -6824 304 l -6475 355 l -6117 401 l -5749 441 l -5519 522 l -6022 838 l -7406 1437 l -9671 2317 l -12816 3480 l -16843 4926 l -21751 6653 l -27539 8663" class="C1"/><path d="M 176474 879688 l 0 0 l -12772 621 l -10725 574 l -8954 534 l -7460 500 l -6244 473 l -5305 453 l -4643 439 l -4258 433 l -4239 508 l -4943 969 l -6459 1890 l -8786 3272 l -11926 5114 l -15878 7418 l -20641 10181 l -26217 13406" class="C1"/><path d="M 9765 910611 l 16 332 49 329 81 323 112 313 142 301 171 285 198 267 223 246 246 223 267 198 285 171 301 142 313 112 323 81 329 49 332 16 332 -16 329 -49 323 -81 313 -112 301 -142 285 -171 267 -198 246 -223 223 -246 198 -267 171 -285 142 -301 112 -313 81 -323 49 -329 16 -332 -3390 0 Z" class="C2"/><path d="M 16544 910611 l -16 -332 -49 -329 -81 -323 -112 -313 -142 -301 -171 -285 -198 -267 -223 -246 -246 -223 -267 -198 -285 -171 -301 -142 -313 -112 -323 -81 -329 -49 -332 -16 -332 16 -329 49 -323 81 -313 112 -301 142 -285 171 -267 198 -246 223 -223 246 -198 267 -171 285 -142 301 -112 313 -81 323 -49 329 -16 332 3390 0 Z" class="C2"/><path d="M 13636 926473 l 16 332 49 329 81 323 112 313 142 301 171 285 198 267 223 246 246 223 267 198 285 171 301 142 313 112 323 81 329 49 332 16 332 -16 329 -49 323 -81 313 -112 301 -142 285 -171 267 -198 246 -223 223 -246 198 -267 171 -285 142 -301 112 -313 81 -323 49 -329 16 -332 -3390 0 Z" class="C2"/><path d="M 20415 926473 l -16 -332 -49 -329 -81 -323 -112 -313 -142 -301 -171 -285 -198 -267 -223 -246 -246 -223 -267 -198 -285 -171 -301 -142 -313 -112 -323 -81 -329 -49 -332 -16 -332 16 -329 49 -323 81 -313 112 -301 142 -285 171 -267 198 -246 223 -223 246 -198 267 -171 285 -142 301 -112 313 -81 323 -49 329 -16 332 3390 0 Z" class="C2"/></g></svg>