<?xml version='1.0' encoding='UTF-8'?>
<svg xmlns="http://www.w3.org/2000/svg" width="200.0mm" height="358.4mm" viewBox="621378 -26905 405344 726459"><defs><style>.C1 {stroke: #000000; stroke-width: 915; stroke-opacity: 1.000; fill: none; fill-opacity: 1.000;}</style><style>.C2 {stroke: none; stroke-width: none; stroke-opacity: 1.000; fill: #000000; fill-opacity: 1.000;}</style></defs><rect fill="#ffffff" x="621378" y="-26905" width="405344" height="726459" fill-opacity="1.0"/><g stroke-linecap="round" stroke-linejoin="round"><path d="M 822099 110559 c 1106 643 2532 1373 4235 2108 c 2645 1142 5959 2293 9727 3264 c 3769 971 7991 1766 12436 2291 c 4444 526 9110 784 13762 749 c 4652 -35 9289 -364 13676 -953 c 4387 -589 8523 -1439 12179 -2450 c 3655 -1011 6827 -2184 9307 -3318 c 1295 -592 2401 -1171 3298 -1692" class="C1"/><path d="M 863759 44326 l 1873 8826 l 2066 7630 l 2172 6289 l 2278 5213 l 2384 4402 l 2490 3855 l 2629 3544 l 2931 3354 l 3430 3257 l 4125 3252 l 5017 3339 l 6105 3519 l 7389 3791 l 8870 4156" class="C1"/><path d="M 775138 434934 l 1095 -1883 m 0 0 l 1229 -1844 m 0 0 l 1359 -1804 m 0 0 l 1486 -1763 m 0 0 l 1609 -1720 m 0 0 l 1729 -1676 m 0 0 l 1846 -1630 m 0 0 l 1959 -1583 m 0 0 l 2068 -1535 m 0 0 l 566 -386 m 4622 -2962 l 1640 -954 m 0 0 l 2472 -1328 m 0 0 l 2565 -1273 m 0 0 l 2654 -1216 m 0 0 l 2739 -1158 m 0 0 l 2822 -1099 m 0 0 l 2900 -1038 m 0 0 l 2276 -746 m 5266 -1554 l 1598 -434 m 0 0 l 3181 -781 m 0 0 l 3243 -713 m 0 0 l 3301 -644 m 0 0 l 3356 -573 m 0 0 l 3407 -501 m 0 0 l 3455 -428 m 0 0 l 19 -2 m 5467 -507 l 1555 -122 m 0 0 l 3578 -200 m 0 0 l 3613 -121 m 0 0 l 3643 -41 m 0 0 l 3643 41 m 0 0 l 3613 121 m 0 0 l 2300 128 m 5475 415 l 2844 287 m 0 0 l 3455 428 m 0 0 l 3407 501 m 0 0 l 3356 573 m 0 0 l 3301 644 m 0 0 l 3243 713 m 0 0 l 2032 499 m 5299 1438 l 2015 603 m 0 0 l 2976 976 m 0 0 l 2900 1038 m 0 0 l 2822 1099 m 0 0 l 2739 1158 m 0 0 l 2654 1216 m 0 0 l 2565 1273 m 0 0 l 1642 882 m 4729 2787 l 754 475 m 0 0 l 2174 1486 m 0 0 l 2068 1535 m 0 0 l 1959 1583 m 0 0 l 1846 1630 m 0 0 l 1729 1676 m 0 0 l 1609 1720 m 0 0 l 1486 1763 m 0 0 l 1359 1804 m 0 0 l 862 1294" class="C1"/><path d="M 782204 459285 c 514 854 1093 1711 1738 2570 c 1747 2323 3984 4649 6699 6893 c 2715 2244 5907 4404 9514 6404 c 5434 3013 11813 5661 18833 7767 c 7021 2107 14681 3674 22622 4611 c 7941 937 16161 1245 24281 907 c 8120 -338 16138 -1323 23684 -2900 c 7545 -1576 14615 -3745 20874 -6374 c 6260 -2628 11704 -5718 16085 -9042 c 3407 -2585 6169 -5306 8254 -8027 c 719 -939 1358 -1876 1920 -2809" class="C1"/><path d="M 771600 448303 c 0 26283 39335 47589 87856 47589 c 48522 0 87856 -21306 87856 -47589" class="C1"/><path d="M 830683 467837 l 0 -239207" class="C1"/><path d="M 801607 440601 l 0 -239207" class="C1"/><path d="M 771600 144467 l 0 303836" class="C1"/><path d="M 827754 552241 l 14 287 42 284 70 279 97 271 123 260 148 247 171 231 193 213 213 193 231 171 247 148 260 123 271 97 279 70 284 42 287 14 287 -14 284 -42 279 -70 271 -97 260 -123 247 -148 231 -171 213 -193 193 -213 171 -231 148 -247 123 -260 97 -271 70 -279 42 -284 14 -287 -2929 0 Z" class="C2"/><path d="M 833613 552241 l -14 -287 -42 -284 -70 -279 -97 -271 -123 -260 -148 -247 -171 -231 -193 -213 -213 -193 -231 -171 -247 -148 -260 -123 -271 -97 -279 -70 -284 -42 -287 -14 -287 14 -284 42 -279 70 -271 97 -260 123 -247 148 -231 171 -213 193 -193 213 -171 231 -148 247 -123 260 -97 271 -70 279 -42 284 -14 287 2929 0 Z" class="C2"/><path d="M 801607 484119 l 0 40886" class="C1"/><path d="M 798678 525005 l 14 287 42 284 70 279 97 271 123 260 148 247 171 231 193 213 213 193 231 171 247 148 260 123 271 97 279 70 284 42 287 14 287 -14 284 -42 279 -70 271 -97 260 -123 247 -148 231 -171 213 -193 193 -213 171 -231 148 -247 123 -260 97 -271 70 -279 42 -284 14 -287 -2929 0 Z" class="C2"/><path d="M 804537 525005 l -14 -287 -42 -284 -70 -279 -97 -271 -123 -260 -148 -247 -171 -231 -193 -213 -213 -193 -231 -171 -247 -148 -260 -123 -271 -97 -279 -70 -284 -42 -287 -14 -287 14 -284 42 -279 70 -271 97 -260 123 -247 148 -231 171 -213 193 -193 213 -171 231 -148 247 -123 260 -97 271 -70 279 -42 284 -14 287 2929 0 Z" class="C2"/><path d="M 830683 493267 l 0 58974" class="C1"/><path d="M 821898 467837 c 0 -2628 3933 -4759 8786 -4759 c 4852 0 8786 2131 8786 4759" class="C1"/><path d="M 821898 467837 c 0 2628 3933 4759 8786 4759 c 4852 0 8786 -2131 8786 -4759" class="C1"/><path d="M 792822 440601 c 0 2628 3933 4759 8786 4759 c 4852 0 8786 -2131 8786 -4759" class="C1"/><path d="M 792822 440601 c 0 -2628 3933 -4759 8786 -4759 c 4852 0 8786 2131 8786 4759" class="C1"/><path d="M 861102 11291 l 0 0 l -237 6454 l -104 6930 l 90 7389 l 346 7830 l 664 8253 l 1043 8659 l 1485 9047 l 1988 9418" class="C1"/><path d="M 855787 40640 l -547 3277 l -1960 9235 l -2066 7630 l -2172 6289 l -2278 5213 l -2384 4402 l -2490 3855 l -2629 3544 l -2931 3354 l -3430 3257 l -4125 3252 l -5017 3339 l -6105 3519 l -7389 3791 l -8870 4156" class="C1"/><path d="M 801607 201394 l 3063 3094 l 2202 -8555 l 734 19066 l 3915 -16866 l 734 20777 l 5138 -18088 l 245 23221 l 5138 -16622 l 245 21022 l 4404 -13444 l 0 11977 l 3259 1654" class="C1"/><path d="M 771600 144467 c 0 -13965 11325 -27226 30974 -36268" class="C1"/><path d="M 855787 40640 l 0 0 l 261 -5300 l 190 -4650 l 123 -4057 l 58 -3519 l -2 -3037 l -60 -2611 l -114 -2241 l -164 -1926 l -208 -1663 l -233 -1434 l -236 -1234 l -217 -1063 l -176 -922 l -113 -811 l -27 -728 l 80 -675 l 204 -644 l 323 -603 l 432 -544 l 531 -468 l 619 -373 l 697 -262 l 765 -132 l 822 15 l 866 173 l 884 319 l 872 445 l 831 553 l 760 641 l 660 710 l 531 760 l 372 791 l 193 807 l 33 829 l -97 859 l -200 900 l -273 950 l -318 1009 l -334 1078 l -322 1157 l -283 1279 l -229 1580 l -163 2094 l -83 2821 l 9 3761 l 114 4914 l 231 6280 l 362 7859" class="C1"/><path d="M 917857 443790 l 0 -226238" class="C1"/><path d="M 947312 144467 l 0 303836" class="C1"/><path d="M 917857 483855 l 0 44339" class="C1"/><path d="M 914928 528194 l 14 287 42 284 70 279 97 271 123 260 148 247 171 231 193 213 213 193 231 171 247 148 260 123 271 97 279 70 284 42 287 14 287 -14 284 -42 279 -70 271 -97 260 -123 247 -148 231 -171 213 -193 193 -213 171 -231 148 -247 123 -260 97 -271 70 -279 42 -284 14 -287 -2929 0 Z" class="C2"/><path d="M 920787 528194 l -14 -287 -42 -284 -70 -279 -97 -271 -123 -260 -148 -247 -171 -231 -193 -213 -213 -193 -231 -171 -247 -148 -260 -123 -271 -97 -279 -70 -284 -42 -287 -14 -287 14 -284 42 -279 70 -271 97 -260 123 -247 148 -231 171 -213 193 -193 213 -171 231 -148 247 -123 260 -97 271 -70 279 -42 284 -14 287 2929 0 Z" class="C2"/><path d="M 909072 443790 c 0 -2628 3933 -4759 8786 -4759 c 4852 0 8786 2131 8786 4759" class="C1"/><path d="M 909072 443790 c 0 2628 3933 4759 8786 4759 c 4852 0 8786 -2131 8786 -4759" class="C1"/><path d="M 917857 217552 l 0 0 l 252 -2728 l 473 -2445 l 674 -2160 l 856 -1872 l 1019 -1581 l 1162 -1287 l 1287 -990 l 1392 -690 l 1475 -393 l 1530 -122 l 1553 119 l 1545 328 l 1506 507 l 1436 655 l 1334 771 l 1201 857 l 1042 915 l 877 957 l 712 987 l 546 1005 l 380 1011 l 214 1004 l 47 985 l -120 953 l -287 910 l -448 860 l -602 802 l -750 738 l -890 667 l -1024 589 l -1151 504 l -1271 413 l -1383 316 l -1484 219 l -1572 124 l -1648 31 l -1712 -60 l -1764 -149 l -1803 -237 l -1830 -322 l -1844 -406 l -1841 -490 l -1822 -574 l -1786 -658 l -1733 -742 l -1663 -826 l -1577 -910 l -1473 -993 l -1354 -1074 l -1222 -1140 l -1080 -1189 l -927 -1219 l -763 -1232 l -588 -1227 l -401 -1204 l -204 -1164 l 0 -1107 l 199 -1041 l 389 -969 l 570 -888 l 741 -801 l 903 -706 l 1057 -604 l 1201 -495 l 1332 -379 l 1437 -259 l 1512 -136 l 1557 -9 l 1571 120 l 1556 253 l 1510 388 l 1435 527 l 1335 662 l 1234 760 l 1138 815 l 1047 826 l 961 793 l 881 716 l 805 596 l 734 432 l 667 237 l 597 60 l 523 -85 l 445 -198 l 363 -280 l 277 -331 l 187 -350 l 92 -337 l -3 -298 l -87 -249 l -157 -196 l -212 -137 l -254 -73 l -280 -4 l -293 70 l -290 148 l -271 231 l -222 310 l -142 383 l -29 452 l 116 516 l 293 575 l 503 629 l 744 677" class="C1"/><path d="M 916338 108199 c 19649 9042 30974 22302 30974 36268" class="C1"/><path d="M 801607 525005 l -153323 15218" class="C1"/><path d="M 648285 540223 l 32960 25494" class="C1"/><path d="M 769367 633876 l 61316 -81635" class="C1"/><path d="M 743695 587050 c 0 19257 -15611 34869 -34869 34869 c -19257 0 -34869 -15611 -34869 -34869 c 0 -19257 15611 -34869 34869 -34869 c 19257 0 34869 15611 34869 34869" class="C1"/><path d="M 736407 608383 l 32960 25494" class="C1"/><path d="M 690986 565359 l 0 18290" class="C1"/><path d="M 682242 574367 l 18307 0" class="C1"/><path d="M 716124 603030 l 20493 0" class="C1"/><path d="M 830683 552241 l 28520 110902" class="C1"/><path d="M 859203 663143 l 37345 -13991" class="C1"/><path d="M 999816 610463 l -81958 -82269" class="C1"/><path d="M 964378 637779 c 0 19257 -15611 34869 -34869 34869 c -19257 0 -34869 -15611 -34869 -34869 c 0 -19257 15611 -34869 34869 -34869 c 19257 0 34869 15611 34869 34869" class="C1"/><path d="M 961830 624694 l 37986 -14231" class="C1"/><path d="M 940632 632000 l 18307 0" class="C1"/><path d="M 949376 622992 l 0 18290" class="C1"/><path d="M 901203 646855 l 20493 0" class="C1"/></g></svg>