<?xml version='1.0' encoding='UTF-8'?>
<svg xmlns="http://www.w3.org/2000/svg" width="200.0mm" height="70.1mm" viewBox="706421 89918 304777 106781"><defs><style>.C1 {stroke: #000000; stroke-width: 287; stroke-opacity: 1.000; fill: none; fill-opacity: 1.000;}</style><style>.C2 {stroke: none; stroke-width: none; stroke-opacity: 1.000; fill: #000000; fill-opacity: 1.000;}</style></defs><rect fill="#ffffff" x="706421" y="89918" width="304777" height="106781" fill-opacity="1.0"/><g stroke-linecap="round" stroke-linejoin="round"><path d="M 962394 101206 l 32891 27726" class="C1"/><path d="M 967019 101206 l 32891 27726" class="C1"/><path d="M 962394 101206 l 0 37224" class="C1"/><path d="M 962394 157685 l 32891 27726" class="C1"/><path d="M 973960 139639 l 16 327 48 324 80 318 110 308 140 296 168 281 195 263 220 243 243 220 263 195 281 168 296 140 308 110 318 80 324 48 327 16 327 -16 324 -48 318 -80 308 -110 296 -140 281 -168 263 -195 243 -220 220 -243 195 -263 168 -281 140 -296 110 -308 80 -318 48 -324 16 -327 -3337 0 Z" class="C2"/><path d="M 980635 139639 l -16 -327 -48 -324 -80 -318 -110 -308 -140 -296 -168 -281 -195 -263 -220 -243 -243 -220 -263 -195 -281 -168 -296 -140 -308 -110 -318 -80 -324 -48 -327 -16 -327 16 -324 48 -318 80 -308 110 -296 140 -281 168 -263 195 -243 220 -220 243 -195 263 -168 281 -140 296 -110 308 -80 318 -48 324 -16 327 3337 0 Z" class="C2"/><path d="M 995285 185410 l 0 -56478" class="C1"/><path d="M 999910 128932 l 0 56478" class="C1"/><path d="M 995285 185410 l 4625 0" class="C1"/><path d="M 995285 128932 l 4625 0" class="C1"/><path d="M 962394 101206 l 4625 0" class="C1"/><path d="M 773974 129364 l -49005 0" class="C1"/><path d="M 773974 149915 l -49005 0" class="C1"/><path d="M 781184 138430 c -452 -5402 -3801 -9369 -7637 -9049 c -3837 321 -6832 4818 -6832 10258 c 0 5440 2995 9937 6832 10258 c 3837 321 7185 -3647 7637 -9049" class="C1"/><path d="M 977297 138430 l -203323 0" class="C1"/><path d="M 977297 140848 l -203323 0" class="C1"/><path d="M 962394 140848 l 0 16836" class="C1"/><path d="M 973467 142865 l -5814 4896" class="C1"/><path d="M 975964 146124 l -1401 6814" class="C1"/><path d="M 979864 144818 l 3683 7430" class="C1"/><path d="M 982253 140867 l 7858 1946" class="C1"/><path d="M 980834 136294 l 4785 -4526" class="C1"/><path d="M 976512 134026 l -912 -6516" class="C1"/><path d="M 973968 136327 l -5278 -5250" class="C1"/><path d="M 773974 138430 c -340 0 -616 541 -616 1209 c 0 668 276 1209 616 1209" class="C1"/><path d="M 724969 129364 c -4010 0 -7260 4600 -7260 10275 c 0 5675 3250 10275 7260 10275" class="C1"/></g><!--labels--><text x="707000" y="115000" font-family="Arial, Helvetica, sans-serif" font-size="9200" fill="#111">Cannone elettronico</text><line x1="752000" y1="119000" x2="752000" y2="126500" stroke="#111" stroke-width="1000"/><text x="795000" y="183000" font-family="Arial, Helvetica, sans-serif" font-size="9200" fill="#111">Fascio non visibile</text><line x1="846000" y1="173500" x2="846000" y2="141000" stroke="#111" stroke-width="1000"/><text x="873000" y="115000" font-family="Arial, Helvetica, sans-serif" font-size="9200" fill="#111">Schermo ai fosfori</text><line x1="940000" y1="119000" x2="953000" y2="132000" stroke="#111" stroke-width="1000"/></svg>