<?xml version='1.0' encoding='UTF-8'?>
<svg xmlns="http://www.w3.org/2000/svg" width="200.0mm" height="116.7mm" viewBox="-24158 643258 652803 380920"><defs><style>.C1 {stroke: #000000; stroke-width: 652; stroke-opacity: 1.000; fill: none; fill-opacity: 1.000;}</style><style>.C2 {stroke: none; stroke-width: none; stroke-opacity: 1.000; fill: #000000; fill-opacity: 1.000;}</style></defs><rect fill="#ffffff" x="-24158" y="643258" width="652803" height="380920" fill-opacity="1.0"/><g stroke-linecap="round" stroke-linejoin="round"><path d="M 180822 766176 l 9393 0 m 14090 0 l 9393 0 m 14090 0 l 9393 0 m 14090 0 l 9393 0 m 14090 0 l 9393 0 m 14090 0 l 9393 0 m 14090 0 l 7328 0" class="C1"/><path d="M 305223 851009 c 11152 -10470 19965 -26141 25221 -44849" class="C1"/><path d="M 273169 667436 l 268658 0" class="C1"/><path d="M 273169 864916 l 268658 0" class="C1"/><path d="M 271876 798684 c 8304 -3987 14066 -17169 14088 -32224 c 22 -15055 -5703 -28287 -13995 -32347" class="C1"/><path d="M 273169 814851 c 0 -10753 -8717 -19470 -19470 -19470" class="C1"/><path d="M 273169 667436 c -34595 0 -62640 44207 -62640 98740 c 0 54533 28045 98740 62640 98740" class="C1"/><path d="M 64501 758286 c 758 0 1372 1227 1372 2741 c 0 1514 -614 2741 -1372 2741 c -758 0 -1372 -1227 -1372 -2741 c 0 -1514 614 -2741 1372 -2741" class="C1"/><path d="M 76026 748297 c -4737 -9875 -12841 -13795 -20163 -9756 c -7322 4040 -12242 15146 -12242 27635 c 0 12488 4920 23595 12242 27635 c 7322 4040 15425 119 20163 -9756" class="C1"/><path d="M 70511 755545 l -65460 0" class="C1"/><path d="M 69326 760571 l -68391 0" class="C1"/><path d="M 68918 765596 l -66612 0" class="C1"/><path d="M 69227 771079 l -69207 0" class="C1"/><path d="M 70429 776561 l -67665 0" class="C1"/><path d="M 253699 736972 l -191981 0" class="C1"/><path d="M 253699 795381 l -191981 0" class="C1"/><path d="M 58556 752804 c 758 0 1372 1227 1372 2741 c 0 1514 -614 2741 -1372 2741 c -758 0 -1372 -1227 -1372 -2741 c 0 -1514 614 -2741 1372 -2741" class="C1"/><path d="M 59928 773820 c 758 0 1372 1227 1372 2741 c 0 1514 -614 2741 -1372 2741 c -758 0 -1372 -1227 -1372 -2741 c 0 -1514 614 -2741 1372 -2741" class="C1"/><path d="M 58099 762398 c 758 0 1372 1227 1372 2741 c 0 1514 -614 2741 -1372 2741 c -758 0 -1372 -1227 -1372 -2741 c 0 -1514 614 -2741 1372 -2741" class="C1"/><path d="M 53526 768338 c 758 0 1372 1227 1372 2741 c 0 1514 -614 2741 -1372 2741 c -758 0 -1372 -1227 -1372 -2741 c 0 -1514 614 -2741 1372 -2741" class="C1"/><path d="M 180822 748097 c 4613 0 8352 8094 8352 18079 c 0 9985 -3739 18079 -8352 18079 c -4613 0 -8352 -8094 -8352 -18079 c 0 -9985 3739 -18079 8352 -18079" class="C1"/><path d="M 77266 784256 l 103556 0" class="C1"/><path d="M 77266 748097 l 103556 0" class="C1"/><path d="M 77266 748097 c -4613 0 -8352 8094 -8352 18079 c 0 9985 3739 18079 8352 18079" class="C1"/><path d="M 180822 759215 c 1515 0 2744 3117 2744 6961 c 0 3845 -1228 6961 -2744 6961 c -1515 0 -2744 -3117 -2744 -6961 c 0 -3845 1228 -6961 2744 -6961" class="C1"/><path d="M 253699 736972 c 10753 0 19470 -8717 19470 -19470" class="C1"/><path d="M 541827 667436 c 34595 0 62640 44207 62640 98740 c 0 54533 -28045 98740 -62640 98740 c -34595 0 -62640 -44207 -62640 -98740 c 0 -54533 28045 -98740 62640 -98740" class="C1"/><path d="M 537382 701823 l 21 436 64 431 106 423 147 411 186 394 224 374 260 350 293 323 323 293 350 260 374 224 394 186 411 147 423 106 431 64 436 21 436 -21 431 -64 423 -106 411 -147 394 -186 374 -224 350 -260 323 -293 293 -323 260 -350 224 -374 186 -394 147 -411 106 -423 64 -431 21 -436 -4444 0 Z" class="C2"/><path d="M 546271 701823 l -21 -436 -64 -431 -106 -423 -147 -411 -186 -394 -224 -374 -260 -350 -293 -323 -323 -293 -350 -260 -374 -224 -394 -186 -411 -147 -423 -106 -431 -64 -436 -21 -436 21 -431 64 -423 106 -411 147 -394 186 -374 224 -350 260 -323 293 -293 323 -260 350 -224 374 -186 394 -147 411 -106 423 -64 431 -21 436 4444 0 Z" class="C2"/><path d="M 372898 732443 c 25850 0 46805 23226 46805 51876 c 0 28650 -20956 51876 -46805 51876 c -25850 0 -46805 -23226 -46805 -51876 c 0 -28650 20956 -51876 46805 -51876" class="C1"/><path d="M 372898 744494 c 3071 0 6142 469 9126 1404 c 3813 1194 7485 3153 10797 5814 c 3313 2661 6260 6028 8621 9920 c 2360 3893 4128 8309 5154 12961 c 1026 4652 1309 9534 825 14309 c -485 4775 -1736 9436 -3648 13670 c -1911 4234 -4479 8037 -7497 11185 c -3019 3149 -6483 5643 -10165 7383 c -3681 1740 -7578 2731 -11497 2955 c -3673 209 -7371 -255 -10942 -1387 c -3571 -1132 -7017 -2934 -10158 -5358 c -3141 -2424 -5973 -5471 -8310 -9004 c -2337 -3533 -4176 -7549 -5381 -11822 c -1205 -4273 -1775 -8800 -1666 -13306 c 109 -4506 897 -8986 2303 -13171 c 1407 -4185 3430 -8070 5923 -11443 c 2493 -3373 5452 -6231 8687 -8452 c 3236 -2222 6745 -3809 10354 -4724 c 2460 -624 4967 -936 7474 -936" class="C1"/><path d="M 363962 745839 c -1735 1594 -3350 3388 -4805 5357 c -2493 3373 -4516 7258 -5923 11443 c -1407 4185 -2194 8665 -2303 13171 c -109 4506 461 9033 1666 13306 c 1205 4273 3044 8289 5381 11822 c 2337 3533 5170 6580 8310 9004 c 3141 2424 6587 4226 10158 5358 c 3571 1132 7268 1596 10942 1387 c 2431 -138 4854 -572 7222 -1297" class="C1"/><path d="M 403719 824774 c 16114 -7463 27138 -24248 28595 -43536 c 1457 -19288 -6896 -37872 -21665 -48201 c -14769 -10329 -33499 -10686 -48580 -925" class="C1"/><path d="M 390829 832238 l 19984 -11572" class="C1"/><path d="M 347913 740453 l 17456 -10285" class="C1"/><path d="M 180822 766176 l 22127 -3 l 21331 -19 l 20435 -51 l 19438 -100 l 18341 -165 l 17144 -247 l 15847 -344 l 14045 -445" class="C1"/><path d="M 335286 753443 c -2477 -30028 -13559 -56604 -30063 -72099" class="C1"/><path d="M 352210 766176 l 9393 0 m 14090 0 l 9393 0 m 14090 0 l 4645 0" class="C1"/><path d="M 431465 766176 l 9393 0 m 14090 0 l 9393 0 m 14090 0 l 9393 0 m 14090 0 l 9393 0 m 14090 0 l 9393 0" class="C1"/><path d="M 352936 763560 l 1771 -113 l 10768 -946 l 10026 -1172 l 9534 -1430 l 9295 -1720 l 4061 -891" class="C1"/><path d="M 425780 750168 l 8567 -2657 l 12332 -4248 l 14037 -5299 l 16137 -6572 l 18633 -8066 l 21526 -9782 l 24815 -11720" class="C1"/><path d="M 449660 792340 c 16114 -7463 27138 -24248 28595 -43536 c 1457 -19288 -6896 -37872 -21665 -48201 c -14769 -10329 -33499 -10686 -48580 -925" class="C1"/><path d="M 393853 708018 l 17456 -10285" class="C1"/><path d="M 372510 744496 c -3242 24975 10198 48913 31847 56719" class="C1"/><path d="M 409903 713405 c -1735 1594 -3350 3388 -4805 5357 c -1963 2656 -3635 5629 -4943 8816" class="C1"/><path d="M 384378 746740 c -154 1342 -248 2693 -280 4046 c -109 4506 461 9033 1666 13306 c 1205 4273 3044 8289 5381 11822 c 2337 3533 5170 6580 8310 9004 c 2475 1910 5139 3434 7905 4548" class="C1"/><path d="M 436769 799804 l 19984 -11572" class="C1"/><path d="M 398917 757951 c 1198 3799 2898 7371 5002 10552 c 533 805 1092 1586 1674 2339" class="C1"/><path d="M 426053 803141 c 21509 -3719 37865 -23382 39465 -47444 c 1600 -24062 -11979 -46170 -32764 -53343 c -20785 -7173 -43287 2483 -54295 23298" class="C1"/><path d="M 431165 789110 c 297 -130 593 -264 887 -403 c 3681 -1740 7146 -4235 10165 -7383 c 3019 -3149 5586 -6951 7497 -11185 c 1911 -4234 3163 -8896 3648 -13670 c 485 -4775 202 -9657 -825 -14309 c -1026 -4652 -2794 -9068 -5154 -12961 c -2360 -3893 -5308 -7259 -8621 -9920 c -3313 -2661 -6985 -4620 -10797 -5814 c -2984 -935 -6055 -1404 -9126 -1404 c -2507 0 -5014 313 -7474 936 c -3608 915 -7118 2502 -10354 4724 c -3060 2101 -5872 4771 -8277 7907" class="C1"/><path d="M 432001 784297 c 443 -6 886 -21 1328 -46 c 2431 -138 4854 -572 7222 -1297" class="C1"/><path d="M 401147 826610 c 16114 -7463 27138 -24248 28595 -43536 c 1457 -19288 -6896 -37872 -21665 -48201 c -14769 -10329 -33499 -10686 -48580 -925" class="C1"/><path d="M 397471 828813 c 16114 -7463 27138 -24248 28595 -43536 c 1457 -19288 -6896 -37872 -21665 -48201 c -14769 -10329 -33499 -10686 -48580 -925" class="C1"/><path d="M 393796 831016 c 16114 -7463 27138 -24248 28595 -43536 c 1457 -19288 -6896 -37872 -21665 -48201 c -14769 -10329 -33499 -10686 -48580 -925" class="C1"/><path d="M 440104 797970 c 16114 -7463 27138 -24248 28595 -43536 c 1457 -19288 -6896 -37872 -21665 -48201 c -14769 -10329 -33499 -10686 -48580 -925" class="C1"/><path d="M 443779 795767 c 16114 -7463 27138 -24248 28595 -43536 c 1457 -19288 -6896 -37872 -21665 -48201 c -14769 -10329 -33499 -10686 -48580 -925" class="C1"/><path d="M 447455 793564 c 16114 -7463 27138 -24248 28595 -43536 c 1457 -19288 -6896 -37872 -21665 -48201 c -14769 -10329 -33499 -10686 -48580 -925" class="C1"/><path d="M 348177 828369 l 0 0 l 7969 5418 l 6618 5425 l 5410 5465 l 4343 5539 l 3419 5646 l 2636 5786 l 1996 5960 l 1497 6167 l 1118 6391 l 773 6560 l 440 6658 l 118 6685 l -192 6641 l -491 6526 l -778 6339 l -1053 6081 l -1302 5764 l -1465 5430 l -1527 5092 l -1490 4748 l -1351 4401 l -1112 4048 l -772 3691 l -332 3329 l 211 2957 l 869 2556 l 1644 2119 l 2536 1648 l 3544 1142 l 4670 601 l 5913 26 l 7272 -585" class="C1"/><path d="M 470437 770329 l 0 0 l -4499 6876 l -4043 6456 l -3605 6061 l -3183 5690 l -2779 5342 l -2392 5019 l -2022 4720 l -1669 4445 l -1329 4210 l -984 4085 l -628 4085 l -261 4210 l 116 4461 l 503 4837 l 901 5339 l 1309 5967 l 1717 6669 l 2076 7241 l 2375 7633 l 2616 7845 l 2797 7876 l 2918 7727 l 2980 7397 l 2982 6886 l 2924 6237 l 2804 5617 l 2621 5068 l 2375 4590 l 2067 4183 l 1695 3847 l 1260 3582 l 763 3388 l 197 3249 l -458 3103 l -1208 2935 l -2053 2744 l -2993 2531 l -4027 2295 l -5156 2037 l -6380 1756" class="C1"/><path d="M 382575 725146 l 0 0 l 8799 -1093 l 6907 -1078 l 5248 -1072 l 3822 -1074 l 2628 -1083 l 1667 -1101 l 939 -1127 l 443 -1162 l 140 -1199 l -132 -1219 l -412 -1219 l -701 -1196 l -998 -1153 l -1304 -1087 l -1618 -1000 l -1941 -892 l -2256 -770 l -2501 -664 l -2658 -581 l -2729 -522 l -2712 -486 l -2609 -474 l -2419 -485 l -2142 -520 l -1798 -573 l -1466 -624 l -1166 -668 l -897 -705 l -660 -734 l -454 -756 l -281 -770 l -138 -778 l -22 -777 l 95 -766 l 219 -743 l 349 -709 l 485 -663 l 628 -607 l 777 -538 l 933 -459 l 1090 -371 l 1228 -286 l 1340 -206 l 1427 -132 l 1488 -64 l 1525 -2 l 1536 55 l 1523 106 l 1488 154 l 1448 206 l 1408 264 l 1368 329 l 1328 400 l 1287 478 l 1245 563 l 1203 653 l 1195 747 l 1352 827 l 1710 890 l 2268 937 l 3026 966 l 3984 978 l 5142 974 l 6500 952" class="C1"/><path d="M 460769 969174 c 0 17025 -13801 30826 -30826 30826 c -17025 0 -30826 -13801 -30826 -30826 c 0 -17025 13801 -30826 30826 -30826 c 17025 0 30826 13801 30826 30826" class="C1"/><path d="M 409918 971446 l 43036 -3225" class="C1"/><path d="M 452955 968222 l -18649 -4300" class="C1"/><path d="M 452955 968222 l -16856 7166" class="C1"/></g></svg>