<?xml version='1.0' encoding='UTF-8'?>
<svg xmlns="http://www.w3.org/2000/svg" width="131.2mm" height="135mm" viewBox="0 0 971852 1000000"><defs><style>.C1 {stroke: #000000; stroke-width: 1852; stroke-opacity: 1.000; fill: none; fill-opacity: 1.000;}</style><style>.C2 {stroke: none; stroke-width: none; stroke-opacity: 1.000; fill: #000000; fill-opacity: 1.000;}</style></defs><rect fill="#ffffff" x="0" y="0" width="971852" height="1000000" fill-opacity="1.0"/><g stroke-linecap="round" stroke-linejoin="round" fill-rule="evenodd"><path d="M 277532 22900 l 370268 0" class="C1"/><path d="M 647800 22900 l 0 22216" class="C1"/><path d="M 647800 45116 l -370268 0" class="C1"/><path d="M 277532 45116 l 0 -22216" class="C1"/><path d="M 647800 208034 l -370268 0" class="C1"/><path d="M 277532 185818 l 370268 0" class="C1"/><path d="M 277532 208034 l 0 -22216" class="C1"/><path d="M 647800 185818 l 0 22216" class="C1"/><path d="M 467295 143237 l -9257 0 4628 27770 Z" class="C2"/><path d="M 462666 143237 l 0 -75905" class="C1"/><path d="M 484562 88724 l 0 14309 l 7955 0 q 3097 0 4138 -934 q 1388 -1228 1548 -4325 l 988 0 l 0 12600 l -988 0 q -374 -2643 -747 -3390 q -481 -934 -1575 -1468 q -1095 -534 -3364 -534 l -7955 0 l 0 11933 q 0 2403 214 2923 q 214 521 747 828 q 534 307 2029 307 l 6140 0 q 3070 0 4458 -427 q 1388 -427 2670 -1682 q 1655 -1655 3390 -4992 l 1068 0 l -3123 9077 l -27897 0 l 0 -988 l 1281 0 q 1281 0 2429 -614 q 854 -427 1161 -1281 q 307 -854 307 -3497 l 0 -23519 q 0 -3444 -694 -4245 q -961 -1068 -3203 -1068 l -1281 0 l 0 -988 l 27897 0 l 400 7929 l -1041 0 q -561 -2856 -1241 -3924 q -681 -1068 -2016 -1628 q -1068 -400 -3764 -400 l -9931 0 Z" class="C2"/><path d="M 249762 110839 l 0 9257 27770 -4628 Z" class="C2"/><path d="M 249762 115467 l -223508 0" class="C1"/><path d="M 896368 115467 l -223508 0" class="C1"/><path d="M 896368 110839 l 0 9257 27770 -4628 Z" class="C2"/><path d="M 277532 214976 l 0 91540" class="C1"/><path d="M 647800 214976 l 0 91540" class="C1"/><path d="M 305302 292632 l 314728 0" class="C1"/><path d="M 305302 288003 l 0 9257 -27770 -4628 Z" class="C2"/><path d="M 620030 288003 l 0 9257 27770 -4628 Z" class="C2"/><path d="M 464558 256868 l 0 24326 q 0 1722 250 2282 q 250 561 771 851 q 521 290 1942 290 l 0 721 l -8990 0 l 0 -721 q 1261 0 1722 -260 q 460 -260 721 -861 q 260 -601 260 -2302 l 0 -16658 q 0 -3103 -140 -3814 q -140 -711 -450 -971 q -310 -260 -791 -260 q -521 0 -1321 320 l -340 -701 l 5466 -2242 l 901 0 Z" class="C2"/><path d="M 253536 28778 l 0 -13321 l -13294 0 l 0 -2189 l 13294 0 l 0 -13268 l 2136 0 l 0 13268 l 13348 0 l 0 2189 l -13348 0 l 0 13321 l -2136 0 Z" class="C2"/><path d="M 244254 197680 l 13802 0 l 0 4031 l -13802 0 l 0 -4031 Z" class="C2"/><path d="M 28100 81804 l 11506 0 l 0 988 l -747 0 q -1041 0 -1588 507 q -547 507 -547 1361 q 0 934 561 2216 l 5686 13508 l 5713 -14015 q 614 -1495 614 -2269 q 0 -374 -214 -614 q -294 -400 -747 -547 q -454 -147 -1842 -147 l 0 -988 l 7982 0 l 0 988 q -1388 107 -1922 561 q -934 801 -1682 2670 l -8676 20983 l -1095 0 l -8729 -20636 q -587 -1442 -1121 -2069 q -534 -627 -1361 -1054 q -454 -240 -1789 -454 l 0 -988 Z" class="C2"/><path d="M 50885 96497 l 6903 0 l 0 593 q -657 0 -921 224 q -264 224 -264 593 q 0 384 561 1185 q 176 256 529 801 l 1041 1666 l 1201 -1666 q 1153 -1586 1153 -2002 q 0 -336 -272 -569 q -272 -232 -881 -232 l 0 -593 l 4965 0 l 0 593 q -785 48 -1361 432 q -785 545 -2146 2371 l -2002 2675 l 3652 5254 q 1345 1938 1922 2331 q 577 392 1490 440 l 0 577 l -6919 0 l 0 -577 q 721 0 1121 -320 q 304 -224 304 -593 q 0 -368 -1025 -1858 l -2146 -3139 l -2355 3139 q -1089 1458 -1089 1730 q 0 384 360 697 q 360 312 1081 344 l 0 577 l -4789 0 l 0 -577 q 577 -80 1009 -400 q 609 -465 2050 -2371 l 3075 -4084 l -2787 -4036 q -1185 -1730 -1834 -2170 q -649 -440 -1626 -440 l 0 -593 Z" class="C2"/><path d="M 700612 44897 l 6839 0 l 0 593 l -336 0 q -721 0 -1081 312 q -360 312 -360 777 q 0 625 529 1730 l 3572 7400 l 3284 -8105 q 272 -657 272 -1297 q 0 -288 -112 -432 q -128 -176 -400 -280 q -272 -104 -961 -104 l 0 -593 l 4773 0 l 0 593 q -593 64 -913 256 q -320 192 -705 721 q -144 224 -545 1233 l -5974 14640 q -865 2130 -2266 3219 q -1402 1089 -2699 1089 q -945 0 -1554 -545 q -609 -545 -609 -1249 q 0 -673 440 -1081 q 440 -408 1209 -408 q 529 0 1442 352 q 641 240 801 240 q 481 0 1049 -497 q 569 -497 1145 -1922 l 1041 -2547 l -5270 -11068 q -240 -497 -769 -1233 q -400 -561 -657 -753 q -368 -256 -1185 -448 l 0 -593 Z" class="C2"/><path d="M 679244 27089 l 11506 0 l 0 988 l -747 0 q -1041 0 -1588 507 q -547 507 -547 1361 q 0 934 561 2216 l 5686 13508 l 5713 -14015 q 614 -1495 614 -2269 q 0 -374 -214 -614 q -294 -400 -747 -547 q -454 -147 -1842 -147 l 0 -988 l 7982 0 l 0 988 q -1388 107 -1922 561 q -934 801 -1682 2670 l -8676 20983 l -1095 0 l -8729 -20636 q -587 -1442 -1121 -2069 q -534 -627 -1361 -1054 q -454 -240 -1789 -454 l 0 -988 Z" class="C2"/><path d="M 672859 115467 l 0 -70131" class="C1"/><path d="M 668231 73106 l 9257 0 -4628 -27770 Z" class="C2"/><path d="M 955970 109546 l 6903 0 l 0 593 q -657 0 -921 224 q -264 224 -264 593 q 0 384 561 1185 q 176 256 529 801 l 1041 1666 l 1201 -1666 q 1153 -1586 1153 -2002 q 0 -336 -272 -569 q -272 -232 -881 -232 l 0 -593 l 4965 0 l 0 593 q -785 48 -1361 432 q -785 545 -2146 2371 l -2002 2675 l 3652 5254 q 1345 1938 1922 2331 q 577 392 1490 440 l 0 577 l -6919 0 l 0 -577 q 721 0 1121 -320 q 304 -224 304 -593 q 0 -368 -1025 -1858 l -2146 -3139 l -2355 3139 q -1089 1458 -1089 1730 q 0 384 360 697 q 360 312 1081 344 l 0 577 l -4789 0 l 0 -577 q 577 -80 1009 -400 q 609 -465 2050 -2371 l 3075 -4084 l -2787 -4036 q -1185 -1730 -1834 -2170 q -649 -440 -1626 -440 l 0 -593 Z" class="C2"/><path d="M 933184 94854 l 11506 0 l 0 988 l -747 0 q -1041 0 -1588 507 q -547 507 -547 1361 q 0 934 561 2216 l 5686 13508 l 5713 -14015 q 614 -1495 614 -2269 q 0 -374 -214 -614 q -294 -400 -747 -547 q -454 -147 -1842 -147 l 0 -988 l 7982 0 l 0 988 q -1388 107 -1922 561 q -934 801 -1682 2670 l -8676 20983 l -1095 0 l -8729 -20636 q -587 -1442 -1121 -2069 q -534 -627 -1361 -1054 q -454 -240 -1789 -454 l 0 -988 Z" class="C2"/><path d="M 731981 45336 l 227929 0" class="C1"/><path d="M 924138 115467 l 0 -100165" class="C1"/><path d="M 896146 48343 l 2488 8916 25504 -11923 Z" class="C2"/><path d="M 897390 52801 l -224531 62666" class="C1"/><path d="M 839812 115467 c 0 -15170 -2068 -30269 -6146 -44881" class="C1"/><path d="M 847983 59618 l 0 -5279 l 4546 0 l 0 5279 l -4546 0 m -5759 42154 l 859 -3864 q 1364 354 2147 354 q 1389 0 2071 -922 q 682 -922 682 -4609 l 0 -28187 l 4546 0 l 0 28288 q 0 4950 -1288 6895 q -1642 2526 -5456 2526 q -1844 0 -3561 -480 Z" class="C2"/><path d="M 874478 111154 l 0 -22216 l 16063 0 l 0 2622 l -13124 0 l 0 6804 l 12290 0 l 0 2607 l -12290 0 l 0 7562 l 13639 0 l 0 2622 l -16579 0 Z" class="C2"/><path d="M 223822 731202 l -223508 0" class="C1"/><path d="M 2159 697539 l 11506 0 l 0 988 l -747 0 q -1041 0 -1588 507 q -547 507 -547 1361 q 0 934 561 2216 l 5686 13508 l 5713 -14015 q 614 -1495 614 -2269 q 0 -374 -214 -614 q -294 -400 -747 -547 q -454 -147 -1842 -147 l 0 -988 l 7982 0 l 0 988 q -1388 107 -1922 561 q -934 801 -1682 2670 l -8676 20983 l -1095 0 l -8729 -20636 q -587 -1442 -1121 -2069 q -534 -627 -1361 -1054 q -454 -240 -1789 -454 l 0 -988 Z" class="C2"/><path d="M 24945 712232 l 6903 0 l 0 593 q -657 0 -921 224 q -264 224 -264 593 q 0 384 561 1185 q 176 256 529 801 l 1041 1666 l 1201 -1666 q 1153 -1586 1153 -2002 q 0 -336 -272 -569 q -272 -232 -881 -232 l 0 -593 l 4965 0 l 0 593 q -785 48 -1361 432 q -785 545 -2146 2371 l -2002 2675 l 3652 5254 q 1345 1938 1922 2331 q 577 392 1490 440 l 0 577 l -6919 0 l 0 -577 q 721 0 1121 -320 q 304 -224 304 -593 q 0 -368 -1025 -1858 l -2146 -3139 l -2355 3139 q -1089 1458 -1089 1730 q 0 384 360 697 q 360 312 1081 344 l 0 577 l -4789 0 l 0 -577 q 577 -80 1009 -400 q 609 -465 2050 -2371 l 3075 -4084 l -2787 -4036 q -1185 -1730 -1834 -2170 q -649 -440 -1626 -440 l 0 -593 Z" class="C2"/><path d="M 223822 726574 l 0 9257 27770 -4628 Z" class="C2"/><path d="M 515938 702596 q 3764 801 5633 2563 q 2589 2456 2589 6007 q 0 2696 -1709 5166 q -1709 2469 -4685 3604 q -2977 1135 -9090 1135 l -17085 0 l 0 -988 l 1361 0 q 2269 0 3257 -1442 q 614 -934 614 -3978 l 0 -23385 q 0 -3364 -774 -4245 q -1041 -1175 -3097 -1175 l -1361 0 l 0 -988 l 15644 0 q 4378 0 7021 641 q 4004 961 6113 3404 q 2109 2443 2109 5619 q 0 2723 -1655 4872 q -1655 2149 -4885 3190 m -13988 -1442 q 988 187 2256 280 q 1268 93 2790 93 q 3898 0 5860 -841 q 1962 -841 3003 -2576 q 1041 -1735 1041 -3791 q 0 -3177 -2589 -5419 q -2589 -2242 -7555 -2242 q -2670 0 -4805 587 l 0 13908 m 0 17299 q 3097 721 6113 721 q 4832 0 7368 -2176 q 2536 -2176 2536 -5379 q 0 -2109 -1148 -4058 q -1148 -1949 -3737 -3070 q -2589 -1121 -6407 -1121 q -1655 0 -2830 53 q -1175 53 -1895 187 l 0 14843 Z" class="C2"/><path d="M 874296 726889 l 0 -22216 l 8335 0 q 2546 0 4084 674 q 1538 674 2410 2076 q 871 1402 871 2932 q 0 1424 -773 2682 q -773 1258 -2334 2031 q 2016 591 3099 2016 q 1084 1424 1084 3364 q 0 1561 -659 2902 q -659 1341 -1629 2069 q -970 727 -2432 1099 q -1462 371 -3584 371 l -8471 0 m 2940 -12881 l 4804 0 q 1955 0 2804 -258 q 1121 -333 1690 -1106 q 568 -773 568 -1940 q 0 -1106 -530 -1947 q -530 -841 -1515 -1152 q -985 -311 -3379 -311 l -4440 0 l 0 6713 m 0 10259 l 5531 0 q 1424 0 2000 -106 q 1015 -182 1697 -606 q 682 -424 1121 -1235 q 439 -811 439 -1872 q 0 -1243 -636 -2159 q -636 -917 -1765 -1288 q -1129 -371 -3251 -371 l -5137 0 l 0 7638 Z" class="C2"/><path d="M 896368 731202 l -223508 0" class="C1"/><path d="M 897390 668536 l -224531 62666" class="C1"/><path d="M 731981 661071 l 227929 -0" class="C1"/><path d="M 847983 675353 l 0 -5279 l 4546 0 l 0 5279 l -4546 0 m -5759 42154 l 859 -3864 q 1364 354 2147 354 q 1389 0 2071 -922 q 682 -922 682 -4609 l 0 -28187 l 4546 0 l 0 28288 q 0 4950 -1288 6895 q -1642 2526 -5456 2526 q -1844 0 -3561 -480 Z" class="C2"/><path d="M 700612 660632 l 6839 0 l 0 593 l -336 0 q -721 0 -1081 312 q -360 312 -360 777 q 0 625 529 1730 l 3572 7400 l 3284 -8105 q 272 -657 272 -1297 q 0 -288 -112 -432 q -128 -176 -400 -280 q -272 -104 -961 -104 l 0 -593 l 4773 0 l 0 593 q -593 64 -913 256 q -320 192 -705 721 q -144 224 -545 1233 l -5974 14640 q -865 2130 -2266 3219 q -1402 1089 -2699 1089 q -945 0 -1554 -545 q -609 -545 -609 -1249 q 0 -673 440 -1081 q 440 -408 1209 -408 q 529 0 1442 352 q 641 240 801 240 q 481 0 1049 -497 q 569 -497 1145 -1922 l 1041 -2547 l -5270 -11068 q -240 -497 -769 -1233 q -400 -561 -657 -753 q -368 -256 -1185 -448 l 0 -593 Z" class="C2"/><path d="M 679244 642824 l 11506 0 l 0 988 l -747 0 q -1041 0 -1588 507 q -547 507 -547 1361 q 0 934 561 2216 l 5686 13508 l 5713 -14015 q 614 -1495 614 -2269 q 0 -374 -214 -614 q -294 -400 -747 -547 q -454 -147 -1842 -147 l 0 -988 l 7982 0 l 0 988 q -1388 107 -1922 561 q -934 801 -1682 2670 l -8676 20983 l -1095 0 l -8729 -20636 q -587 -1442 -1121 -2069 q -534 -627 -1361 -1054 q -454 -240 -1789 -454 l 0 -988 Z" class="C2"/><path d="M 668231 688841 l 9257 0 -4628 -27770 Z" class="C2"/><path d="M 672859 731202 l 0 -70131" class="C1"/><path d="M 839812 731202 c 0 -15170 -2068 -30269 -6146 -44881" class="C1"/><path d="M 933184 710589 l 11506 0 l 0 988 l -747 0 q -1041 0 -1588 507 q -547 507 -547 1361 q 0 934 561 2216 l 5686 13508 l 5713 -14015 q 614 -1495 614 -2269 q 0 -374 -214 -614 q -294 -400 -747 -547 q -454 -147 -1842 -147 l 0 -988 l 7982 0 l 0 988 q -1388 107 -1922 561 q -934 801 -1682 2670 l -8676 20983 l -1095 0 l -8729 -20636 q -587 -1442 -1121 -2069 q -534 -627 -1361 -1054 q -454 -240 -1789 -454 l 0 -988 Z" class="C2"/><path d="M 924138 731202 l 0 -100165" class="C1"/><path d="M 955970 725281 l 6903 0 l 0 593 q -657 0 -921 224 q -264 224 -264 593 q 0 384 561 1185 q 176 256 529 801 l 1041 1666 l 1201 -1666 q 1153 -1586 1153 -2002 q 0 -336 -272 -569 q -272 -232 -881 -232 l 0 -593 l 4965 0 l 0 593 q -785 48 -1361 432 q -785 545 -2146 2371 l -2002 2675 l 3652 5254 q 1345 1938 1922 2331 q 577 392 1490 440 l 0 577 l -6919 0 l 0 -577 q 721 0 1121 -320 q 304 -224 304 -593 q 0 -368 -1025 -1858 l -2146 -3139 l -2355 3139 q -1089 1458 -1089 1730 q 0 384 360 697 q 360 312 1081 344 l 0 577 l -4789 0 l 0 -577 q 577 -80 1009 -400 q 609 -465 2050 -2371 l 3075 -4084 l -2787 -4036 q -1185 -1730 -1834 -2170 q -649 -440 -1626 -440 l 0 -593 Z" class="C2"/><path d="M 896368 726574 l 0 9257 27770 -4628 Z" class="C2"/><path d="M 896146 664078 l 2488 8916 25504 -11923 Z" class="C2"/><path d="M 647800 731202 c 0 102247 -82887 185134 -185134 185134 c -102247 0 -185134 -82887 -185134 -185134 c 0 -102247 82887 -185134 185134 -185134 c 102247 0 185134 82887 185134 185134" class="C1"/><path d="M 277532 830711 l 0 169289" class="C1"/><path d="M 647800 830711 l 0 169289" class="C1"/><path d="M 305302 986115 l 314728 0" class="C1"/><path d="M 305302 981487 l 0 9257 -27770 -4628 Z" class="C2"/><path d="M 620030 981487 l 0 9257 27770 -4628 Z" class="C2"/><path d="M 464558 950351 l 0 24326 q 0 1722 250 2282 q 250 561 771 851 q 521 290 1942 290 l 0 721 l -8990 0 l 0 -721 q 1261 0 1722 -260 q 460 -260 721 -861 q 260 -601 260 -2302 l 0 -16658 q 0 -3103 -140 -3814 q -140 -711 -450 -971 q -310 -260 -791 -260 q -521 0 -1321 320 l -340 -701 l 5466 -2242 l 901 0 Z" class="C2"/><path d="M 329685 853512 l -6256 6823 23596 15357 Z" class="C2"/><path d="M 576906 591037 l 5141 -7698 -25665 -11573 Z" class="C2"/><path d="M 481088 731202 c 0 10174 -8247 18421 -18421 18421 c -10174 0 -18421 -8247 -18421 -18421 c 0 -10174 8247 -18421 18421 -18421 c 10174 0 18421 8247 18421 18421" class="C1"/><path d="M 457572 731202 l 25 499 73 495 121 485 168 471 214 452 257 429 298 402 336 370 370 336 402 298 429 257 452 214 471 168 485 121 495 73 499 25 499 -25 495 -73 485 -121 471 -168 452 -214 429 -257 402 -298 370 -336 336 -370 298 -402 257 -429 214 -452 168 -471 121 -485 73 -495 25 -499 -5095 0 Z" class="C2"/><path d="M 467761 731202 l -25 -499 -73 -495 -121 -485 -168 -471 -214 -452 -257 -429 -298 -402 -336 -370 -370 -336 -402 -298 -429 -257 -452 -214 -471 -168 -485 -121 -495 -73 -499 -25 -499 25 -495 73 -485 121 -471 168 -452 214 -429 257 -402 298 -370 336 -336 370 -298 402 -257 429 -214 452 -168 471 -121 485 -73 495 -25 499 5095 0 Z" class="C2"/></g></svg>