<?xml version='1.0' encoding='UTF-8'?>
<svg xmlns="http://www.w3.org/2000/svg" width="200.0mm" height="87.6mm" viewBox="-16542 -16463 446701 195646"><defs><style>.C1 {stroke: #000000; stroke-width: 678; stroke-opacity: 1.000; fill: none; fill-opacity: 1.000;}</style><style>.C2 {stroke: none; stroke-width: none; stroke-opacity: 1.000; fill: #000000; fill-opacity: 1.000;}</style></defs><rect fill="#ffffff" x="-16542" y="-16463" width="446701" height="195646" fill-opacity="1.0"/><g stroke-linecap="round" stroke-linejoin="round"><path d="M 168845 54244 l 0 5423" class="C1"/><path d="M 168845 108476 l 8135 0" class="C1"/><path d="M 176980 54244 l -8135 0" class="C1"/><path d="M 168845 78648 l 8135 0" class="C1"/><path d="M 176980 84072 l -8135 0" class="C1"/><path d="M 168845 84072 l 0 16270" class="C1"/><path d="M 176980 78648 l 0 -16270" class="C1"/><path d="M 170201 103053 l -31326 0 c -1428 0 -2831 376 -4067 1090 l -98912 57107 c -1931 1115 -4234 1388 -6372 757 c -2138 -632 -3923 -2113 -4938 -4098 c -24584 -48072 -24584 -105026 0 -153098 c 1015 -1985 2800 -3466 4938 -4098 c 2138 -632 4441 -358 6372 757 l 98912 57107 c 1237 714 2639 1090 4067 1090 l 31326 0" class="C1"/><path d="M 170201 100341 l 0 2712" class="C1"/><path d="M 170201 59667 l 0 2712" class="C1"/><path d="M 168845 103053 l 0 5423" class="C1"/><path d="M 168845 62378 l 0 16270" class="C1"/><path d="M 243415 103053 l 31326 0 c 1428 0 2831 376 4067 1090 l 98912 57107 c 1931 1115 4234 1388 6372 757 c 2138 -632 3923 -2113 4938 -4098 c 24584 -48072 24584 -105026 0 -153098 c -1015 -1985 -2800 -3466 -4938 -4098 c -2138 -632 -4441 -358 -6372 757 l -98912 57107 c -1237 714 -2639 1090 -4067 1090 l -31326 0" class="C1"/><path d="M 244771 103053 l 0 5423" class="C1"/><path d="M 244771 108476 l -8135 0" class="C1"/><path d="M 243415 100341 l 0 2712" class="C1"/><path d="M 243415 59667 l 0 2712" class="C1"/><path d="M 236636 54244 l 8135 0" class="C1"/><path d="M 244771 54244 l 0 5423" class="C1"/><path d="M 175624 59667 l 62368 0" class="C1"/><path d="M 237992 62378 l -62368 0" class="C1"/><path d="M 175624 62378 l 0 -2712" class="C1"/><path d="M 237992 62378 l 0 -2712" class="C1"/><path d="M 176980 59667 l 0 -5423" class="C1"/><path d="M 236636 59667 l 0 -5423" class="C1"/><path d="M 237992 100341 l -62368 0" class="C1"/><path d="M 175624 103053 l 62368 0" class="C1"/><path d="M 176980 84072 l 0 16270" class="C1"/><path d="M 175624 100341 l 0 2712" class="C1"/><path d="M 176980 103053 l 0 5423" class="C1"/><path d="M 237992 100341 l 0 2712" class="C1"/><path d="M 236636 103053 l 0 5423" class="C1"/><path d="M 170201 100341 l -31326 0" class="C1"/><path d="M 138874 100341 c -1904 0 -3774 501 -5423 1453" class="C1"/><path d="M 133451 101795 l -98912 57107" class="C1"/><path d="M 26998 156674 c 677 1323 1867 2311 3292 2732 c 1425 421 2961 239 4248 -504" class="C1"/><path d="M 26998 6046 c -24188 47297 -24188 103332 0 150629" class="C1"/><path d="M 34539 3818 c -1287 -743 -2823 -925 -4248 -504 c -1425 421 -2615 1409 -3292 2732" class="C1"/><path d="M 34539 3818 l 98912 57107" class="C1"/><path d="M 133451 60925 c 1649 952 3519 1453 5423 1453" class="C1"/><path d="M 138874 62378 l 31326 0" class="C1"/><path d="M 243415 100341 l 31326 0" class="C1"/><path d="M 280165 101795 c -1649 -952 -3519 -1453 -5423 -1453" class="C1"/><path d="M 280165 101795 l 98912 57107" class="C1"/><path d="M 379077 158902 c 1287 743 2823 925 4248 504 c 1425 -421 2615 -1409 3292 -2732" class="C1"/><path d="M 386617 156674 c 24188 -47297 24188 -103332 0 -150629" class="C1"/><path d="M 386617 6046 c -677 -1323 -1867 -2311 -3292 -2732 c -1425 -421 -2961 -239 -4248 504" class="C1"/><path d="M 379077 3818 l -98912 57107" class="C1"/><path d="M 274741 62378 c 1904 0 3774 -501 5423 -1453" class="C1"/><path d="M 274741 62378 l -31326 0" class="C1"/><path d="M 28206 6663 c -23989 46909 -23989 102485 0 149394" class="C1"/><path d="M 385410 156057 c 23989 -46909 23989 -102485 0 -149394" class="C1"/><path d="M 244771 84072 l 0 16270" class="C1"/><path d="M 236636 84072 l 0 16270" class="C1"/><path d="M 244771 62378 l 0 16270" class="C1"/><path d="M 236636 78648 l 0 -16270" class="C1"/><path d="M 236636 84072 l 8135 0" class="C1"/><path d="M 244771 78648 l -8135 0" class="C1"/></g></svg>