<?xml version='1.0' encoding='UTF-8'?>
<!DOCTYPE svg PUBLIC "-//W3C//DTD SVG 1.1//EN" "http://www.w3.org/Graphics/SVG/1.1/DTD/svg11.dtd">
<svg xmlns:xlink="http://www.w3.org/1999/xlink" xmlns="http://www.w3.org/2000/svg" width="518.4pt" height="223.2pt" viewBox="0 0 518.4 223.2" version="1.1">
 <metadata>
  <rdf:RDF xmlns:dc="http://purl.org/dc/elements/1.1/" xmlns:cc="http://creativecommons.org/ns#" xmlns:rdf="http://www.w3.org/1999/02/22-rdf-syntax-ns#">
   <cc:Work>
    <dc:type rdf:resource="http://purl.org/dc/dcmitype/StillImage"/>
    <dc:date>2026-07-22T19:22:47.977038</dc:date>
    <dc:format>image/svg+xml</dc:format>
    <dc:creator>
     <cc:Agent>
      <dc:title>Matplotlib v3.11.1, https://matplotlib.org/</dc:title>
     </cc:Agent>
    </dc:creator>
   </cc:Work>
  </rdf:RDF>
 </metadata>
 <defs>
  <style type="text/css">*{stroke-linejoin: round; stroke-linecap: butt}</style>
 </defs>
 <g id="figure_1">
  <g id="patch_1">
   <path d="M 0 223.2  L 518.4 223.2  L 518.4 0  L 0 0  z " style="fill: #ffffff"/>
  </g>
  <g id="axes_1">
   <g id="patch_2">
    <path d="M 36.288 169.632  L 508.032 169.632  L 508.032 15.624  L 36.288 15.624  z " style="fill: #ffffff"/>
   </g>
   <g id="matplotlib.axis_1">
    <g id="xtick_1">
     <g id="line2d_1">
      <defs>
       <path id="m7bf9257a95" d="M 0 0  L 0 4  " style="stroke: #000000; stroke-width: 0.8"/>
      </defs>
      <g>
       <use xlink:href="#m7bf9257a95" x="36.288" y="169.632" style="stroke: #000000; stroke-width: 0.8"/>
      </g>
     </g>
     <g id="text_1">
      <!-- 0,0 -->
      <g transform="translate(28.336438 184.729656) scale(0.1 -0.1)">
       <defs>
        <path id="DejaVuSerif-13" d="M 2034 219  Q 2513 219 2750 744  Q 2988 1269 2988 2328  Q 2988 3391 2750 3916  Q 2513 4441 2034 4441  Q 1556 4441 1318 3916  Q 1081 3391 1081 2328  Q 1081 1269 1318 744  Q 1556 219 2034 219  z M 2034 -91  Q 1275 -91 848 546  Q 422 1184 422 2328  Q 422 3475 848 4112  Q 1275 4750 2034 4750  Q 2797 4750 3222 4112  Q 3647 3475 3647 2328  Q 3647 1184 3222 546  Q 2797 -91 2034 -91  z " transform="scale(0.015625)"/>
        <path id="DejaVuSerif-f" d="M 231 -622  Q 525 -406 662 -114  Q 800 178 800 594  L 800 709  L 1416 709  Q 1391 175 1164 -208  Q 938 -591 481 -872  L 231 -622  z " transform="scale(0.015625)"/>
       </defs>
       <use xlink:href="#DejaVuSerif-13"/>
       <use xlink:href="#DejaVuSerif-f" transform="translate(63.625 0)"/>
       <use xlink:href="#DejaVuSerif-13" transform="translate(95.40625 0)"/>
      </g>
     </g>
    </g>
    <g id="xtick_2">
     <g id="line2d_2">
      <g>
       <use xlink:href="#m7bf9257a95" x="120.1536" y="169.632" style="stroke: #000000; stroke-width: 0.8"/>
      </g>
     </g>
     <g id="text_2">
      <!-- 1,6 -->
      <g transform="translate(112.202038 184.729656) scale(0.1 -0.1)">
       <defs>
        <path id="DejaVuSerif-14" d="M 909 0  L 909 331  L 1722 331  L 1722 4213  L 781 3603  L 781 4013  L 1919 4750  L 2350 4750  L 2350 331  L 3163 331  L 3163 0  L 909 0  z " transform="scale(0.015625)"/>
        <path id="DejaVuSerif-19" d="M 2094 219  Q 2534 219 2771 542  Q 3009 866 3009 1472  Q 3009 2078 2771 2401  Q 2534 2725 2094 2725  Q 1647 2725 1412 2412  Q 1178 2100 1178 1509  Q 1178 888 1415 553  Q 1653 219 2094 219  z M 1075 2569  Q 1288 2803 1556 2918  Q 1825 3034 2163 3034  Q 2859 3034 3264 2615  Q 3669 2197 3669 1472  Q 3669 763 3233 336  Q 2797 -91 2069 -91  Q 1278 -91 853 498  Q 428 1088 428 2181  Q 428 3406 931 4078  Q 1434 4750 2350 4750  Q 2597 4750 2869 4703  Q 3141 4656 3425 4563  L 3425 3794  L 3072 3794  Q 3034 4109 2831 4275  Q 2628 4441 2284 4441  Q 1678 4441 1381 3981  Q 1084 3522 1075 2569  z " transform="scale(0.015625)"/>
       </defs>
       <use xlink:href="#DejaVuSerif-14"/>
       <use xlink:href="#DejaVuSerif-f" transform="translate(63.625 0)"/>
       <use xlink:href="#DejaVuSerif-19" transform="translate(95.40625 0)"/>
      </g>
     </g>
    </g>
    <g id="xtick_3">
     <g id="line2d_3">
      <g>
       <use xlink:href="#m7bf9257a95" x="204.0192" y="169.632" style="stroke: #000000; stroke-width: 0.8"/>
      </g>
     </g>
     <g id="text_3">
      <!-- 3,2 -->
      <g transform="translate(196.067638 184.729656) scale(0.1 -0.1)">
       <defs>
        <path id="DejaVuSerif-16" d="M 622 4469  Q 988 4606 1323 4678  Q 1659 4750 1953 4750  Q 2638 4750 3022 4454  Q 3406 4159 3406 3634  Q 3406 3213 3140 2930  Q 2875 2647 2388 2547  Q 2963 2466 3280 2130  Q 3597 1794 3597 1259  Q 3597 606 3158 257  Q 2719 -91 1894 -91  Q 1528 -91 1179 -12  Q 831 66 488 225  L 488 1131  L 838 1131  Q 869 681 1141 450  Q 1413 219 1906 219  Q 2384 219 2661 495  Q 2938 772 2938 1253  Q 2938 1803 2653 2086  Q 2369 2369 1819 2369  L 1522 2369  L 1522 2688  L 1678 2688  Q 2225 2688 2498 2914  Q 2772 3141 2772 3597  Q 2772 4006 2547 4223  Q 2322 4441 1900 4441  Q 1478 4441 1245 4241  Q 1013 4041 972 3647  L 622 3647  L 622 4469  z " transform="scale(0.015625)"/>
        <path id="DejaVuSerif-15" d="M 819 3553  L 469 3553  L 469 4384  Q 803 4563 1142 4656  Q 1481 4750 1806 4750  Q 2534 4750 2956 4397  Q 3378 4044 3378 3438  Q 3378 2753 2422 1800  Q 2347 1728 2309 1691  L 1131 513  L 3078 513  L 3078 1088  L 3444 1088  L 3444 0  L 434 0  L 434 341  L 1850 1753  Q 2319 2222 2519 2614  Q 2719 3006 2719 3438  Q 2719 3909 2473 4175  Q 2228 4441 1797 4441  Q 1350 4441 1106 4219  Q 863 3997 819 3553  z " transform="scale(0.015625)"/>
       </defs>
       <use xlink:href="#DejaVuSerif-16"/>
       <use xlink:href="#DejaVuSerif-f" transform="translate(63.625 0)"/>
       <use xlink:href="#DejaVuSerif-15" transform="translate(95.40625 0)"/>
      </g>
     </g>
    </g>
    <g id="xtick_4">
     <g id="line2d_4">
      <g>
       <use xlink:href="#m7bf9257a95" x="287.8848" y="169.632" style="stroke: #000000; stroke-width: 0.8"/>
      </g>
     </g>
     <g id="text_4">
      <!-- 4,8 -->
      <g transform="translate(279.933237 184.729656) scale(0.1 -0.1)">
       <defs>
        <path id="DejaVuSerif-17" d="M 2234 1581  L 2234 4063  L 641 1581  L 2234 1581  z M 3609 0  L 1484 0  L 1484 331  L 2234 331  L 2234 1247  L 197 1247  L 197 1588  L 2241 4750  L 2859 4750  L 2859 1581  L 3750 1581  L 3750 1247  L 2859 1247  L 2859 331  L 3609 331  L 3609 0  z " transform="scale(0.015625)"/>
        <path id="DejaVuSerif-1b" d="M 2981 1275  Q 2981 1775 2732 2051  Q 2484 2328 2034 2328  Q 1584 2328 1336 2051  Q 1088 1775 1088 1275  Q 1088 772 1336 495  Q 1584 219 2034 219  Q 2484 219 2732 495  Q 2981 772 2981 1275  z M 2853 3541  Q 2853 3966 2637 4203  Q 2422 4441 2034 4441  Q 1650 4441 1433 4203  Q 1216 3966 1216 3541  Q 1216 3113 1433 2875  Q 1650 2638 2034 2638  Q 2422 2638 2637 2875  Q 2853 3113 2853 3541  z M 2516 2484  Q 3047 2413 3344 2092  Q 3641 1772 3641 1275  Q 3641 619 3225 264  Q 2809 -91 2034 -91  Q 1263 -91 845 264  Q 428 619 428 1275  Q 428 1772 725 2092  Q 1022 2413 1556 2484  Q 1084 2569 832 2842  Q 581 3116 581 3541  Q 581 4103 968 4426  Q 1356 4750 2034 4750  Q 2713 4750 3100 4426  Q 3488 4103 3488 3541  Q 3488 3116 3236 2842  Q 2984 2569 2516 2484  z " transform="scale(0.015625)"/>
       </defs>
       <use xlink:href="#DejaVuSerif-17"/>
       <use xlink:href="#DejaVuSerif-f" transform="translate(63.625 0)"/>
       <use xlink:href="#DejaVuSerif-1b" transform="translate(95.40625 0)"/>
      </g>
     </g>
    </g>
    <g id="xtick_5">
     <g id="line2d_5">
      <g>
       <use xlink:href="#m7bf9257a95" x="371.7504" y="169.632" style="stroke: #000000; stroke-width: 0.8"/>
      </g>
     </g>
     <g id="text_5">
      <!-- 6,4 -->
      <g transform="translate(363.798837 184.729656) scale(0.1 -0.1)">
       <use xlink:href="#DejaVuSerif-19"/>
       <use xlink:href="#DejaVuSerif-f" transform="translate(63.625 0)"/>
       <use xlink:href="#DejaVuSerif-17" transform="translate(95.40625 0)"/>
      </g>
     </g>
    </g>
    <g id="xtick_6">
     <g id="line2d_6">
      <g>
       <use xlink:href="#m7bf9257a95" x="455.616" y="169.632" style="stroke: #000000; stroke-width: 0.8"/>
      </g>
     </g>
     <g id="text_6">
      <!-- 8,0 -->
      <g transform="translate(447.664437 184.729656) scale(0.1 -0.1)">
       <use xlink:href="#DejaVuSerif-1b"/>
       <use xlink:href="#DejaVuSerif-f" transform="translate(63.625 0)"/>
       <use xlink:href="#DejaVuSerif-13" transform="translate(95.40625 0)"/>
      </g>
     </g>
    </g>
   </g>
   <g id="matplotlib.axis_2">
    <g id="ytick_1">
     <g id="line2d_7">
      <defs>
       <path id="m18c3768911" d="M 0 0  L -4 0  " style="stroke: #000000; stroke-width: 0.8"/>
      </defs>
      <g>
       <use xlink:href="#m18c3768911" x="36.288" y="169.632" style="stroke: #000000; stroke-width: 0.8"/>
      </g>
     </g>
     <g id="text_7">
      <!-- 0 -->
      <g transform="translate(22.4255 173.430828) scale(0.1 -0.1)">
       <use xlink:href="#DejaVuSerif-13"/>
      </g>
     </g>
    </g>
    <g id="ytick_2">
     <g id="line2d_8">
      <g>
       <use xlink:href="#m18c3768911" x="36.288" y="132.069073" style="stroke: #000000; stroke-width: 0.8"/>
      </g>
     </g>
     <g id="text_8">
      <!-- 2 -->
      <g transform="translate(22.4255 135.867901) scale(0.1 -0.1)">
       <use xlink:href="#DejaVuSerif-15"/>
      </g>
     </g>
    </g>
    <g id="ytick_3">
     <g id="line2d_9">
      <g>
       <use xlink:href="#m18c3768911" x="36.288" y="94.506146" style="stroke: #000000; stroke-width: 0.8"/>
      </g>
     </g>
     <g id="text_9">
      <!-- 4 -->
      <g transform="translate(22.4255 98.304974) scale(0.1 -0.1)">
       <use xlink:href="#DejaVuSerif-17"/>
      </g>
     </g>
    </g>
    <g id="ytick_4">
     <g id="line2d_10">
      <g>
       <use xlink:href="#m18c3768911" x="36.288" y="56.94322" style="stroke: #000000; stroke-width: 0.8"/>
      </g>
     </g>
     <g id="text_10">
      <!-- 6 -->
      <g transform="translate(22.4255 60.742048) scale(0.1 -0.1)">
       <use xlink:href="#DejaVuSerif-19"/>
      </g>
     </g>
    </g>
    <g id="ytick_5">
     <g id="line2d_11">
      <g>
       <use xlink:href="#m18c3768911" x="36.288" y="19.380293" style="stroke: #000000; stroke-width: 0.8"/>
      </g>
     </g>
     <g id="text_11">
      <!-- 8 -->
      <g transform="translate(22.4255 23.179121) scale(0.1 -0.1)">
       <use xlink:href="#DejaVuSerif-1b"/>
      </g>
     </g>
    </g>
   </g>
   <g id="line2d_12">
    <defs>
     <path id="m1eb2649c19" d="M 3.5 0  L -3.5 -3.5  L -3.5 3.5  z " style="stroke: #000000; stroke-linejoin: miter"/>
    </defs>
    <g>
     <use xlink:href="#m1eb2649c19" x="508.032" y="169.632" style="stroke: #000000; stroke-linejoin: miter"/>
    </g>
   </g>
   <g id="line2d_13">
    <defs>
     <path id="mccb9b9c17a" d="M 0 -3.5  L -3.5 3.5  L 3.5 3.5  z " style="stroke: #000000; stroke-linejoin: miter"/>
    </defs>
    <g>
     <use xlink:href="#mccb9b9c17a" x="36.288" y="15.624" style="stroke: #000000; stroke-linejoin: miter"/>
    </g>
   </g>
   <g id="patch_3">
    <path d="M 36.288 169.632  L 36.288 15.624  " style="fill: none; stroke: #000000; stroke-width: 1.1; stroke-linejoin: miter; stroke-linecap: square"/>
   </g>
   <g id="patch_4">
    <path d="M 36.288 169.632  L 508.032 169.632  " style="fill: none; stroke: #000000; stroke-width: 1.1; stroke-linejoin: miter; stroke-linecap: square"/>
   </g>
   <g id="patch_5">
    <path d="M 103.64256 169.632  L 110.45664 169.632  L 110.45664 150.850537  L 103.64256 150.850537  z " clip-path="url(#p6980191f33)" style="fill: #ffffff; stroke: #7a1420; stroke-width: 1.3; stroke-linejoin: miter"/>
   </g>
   <g id="patch_6">
    <path d="M 114.12576 169.632  L 120.93984 169.632  L 120.93984 94.506146  L 114.12576 94.506146  z " clip-path="url(#p6980191f33)" style="fill: #ffffff; stroke: #7a1420; stroke-width: 1.3; stroke-linejoin: miter"/>
   </g>
   <g id="patch_7">
    <path d="M 124.60896 169.632  L 131.42304 169.632  L 131.42304 38.161756  L 124.60896 38.161756  z " clip-path="url(#p6980191f33)" style="fill: #ffffff; stroke: #7a1420; stroke-width: 1.3; stroke-linejoin: miter"/>
   </g>
   <g id="patch_8">
    <path d="M 190.12896 169.632  L 196.94304 169.632  L 196.94304 75.724683  L 190.12896 75.724683  z " clip-path="url(#p6980191f33)" style="fill: #ffffff; stroke: #7a1420; stroke-width: 1.3; stroke-linejoin: miter"/>
   </g>
   <g id="patch_9">
    <path d="M 200.61216 169.632  L 207.42624 169.632  L 207.42624 56.94322  L 200.61216 56.94322  z " clip-path="url(#p6980191f33)" style="fill: #ffffff; stroke: #7a1420; stroke-width: 1.3; stroke-linejoin: miter"/>
   </g>
   <g id="patch_10">
    <path d="M 211.09536 169.632  L 217.90944 169.632  L 217.90944 150.850537  L 211.09536 150.850537  z " clip-path="url(#p6980191f33)" style="fill: #ffffff; stroke: #7a1420; stroke-width: 1.3; stroke-linejoin: miter"/>
   </g>
   <g id="patch_11">
    <path d="M 271.37376 169.632  L 278.18784 169.632  L 278.18784 75.724683  L 271.37376 75.724683  z " clip-path="url(#p6980191f33)" style="fill: #ffffff; stroke: #7a1420; stroke-width: 1.3; stroke-linejoin: miter"/>
   </g>
   <g id="patch_12">
    <path d="M 281.85696 169.632  L 288.67104 169.632  L 288.67104 113.28761  L 281.85696 113.28761  z " clip-path="url(#p6980191f33)" style="fill: #ffffff; stroke: #7a1420; stroke-width: 1.3; stroke-linejoin: miter"/>
   </g>
   <g id="patch_13">
    <path d="M 360.48096 169.632  L 367.29504 169.632  L 367.29504 94.506146  L 360.48096 94.506146  z " clip-path="url(#p6980191f33)" style="fill: #ffffff; stroke: #7a1420; stroke-width: 1.3; stroke-linejoin: miter"/>
   </g>
   <g id="patch_14">
    <path d="M 370.96416 169.632  L 377.77824 169.632  L 377.77824 75.724683  L 370.96416 75.724683  z " clip-path="url(#p6980191f33)" style="fill: #ffffff; stroke: #7a1420; stroke-width: 1.3; stroke-linejoin: miter"/>
   </g>
   <g id="patch_15">
    <path d="M 444.34656 169.632  L 451.16064 169.632  L 451.16064 94.506146  L 444.34656 94.506146  z " clip-path="url(#p6980191f33)" style="fill: #ffffff; stroke: #7a1420; stroke-width: 1.3; stroke-linejoin: miter"/>
   </g>
   <g id="patch_16">
    <path d="M 454.82976 169.632  L 461.64384 169.632  L 461.64384 75.724683  L 454.82976 75.724683  z " clip-path="url(#p6980191f33)" style="fill: #ffffff; stroke: #7a1420; stroke-width: 1.3; stroke-linejoin: miter"/>
   </g>
   <g id="text_12">
    <!-- Carica $q$ $(10^{-19}\,$C) -->
    <g transform="translate(398.952 206.266976) scale(0.12 -0.12)">
     <defs>
      <path id="DejaVuSerif-26" d="M 4513 1234  Q 4306 581 3820 245  Q 3334 -91 2591 -91  Q 2134 -91 1743 65  Q 1353 222 1050 525  Q 700 875 529 1320  Q 359 1766 359 2328  Q 359 3416 987 4083  Q 1616 4750 2644 4750  Q 3025 4750 3456 4650  Q 3888 4550 4384 4347  L 4384 3272  L 4031 3272  Q 3916 3859 3567 4137  Q 3219 4416 2591 4416  Q 1844 4416 1459 3886  Q 1075 3356 1075 2328  Q 1075 1303 1459 773  Q 1844 244 2591 244  Q 3113 244 3450 492  Q 3788 741 3938 1234  L 4513 1234  z " transform="scale(0.015625)"/>
      <path id="DejaVuSerif-44" d="M 2547 1044  L 2547 1747  L 1806 1747  Q 1378 1747 1168 1562  Q 959 1378 959 997  Q 959 650 1171 447  Q 1384 244 1747 244  Q 2106 244 2326 466  Q 2547 688 2547 1044  z M 3122 2075  L 3122 331  L 3634 331  L 3634 0  L 2547 0  L 2547 359  Q 2356 128 2106 18  Q 1856 -91 1522 -91  Q 969 -91 644 203  Q 319 497 319 997  Q 319 1513 691 1797  Q 1063 2081 1741 2081  L 2547 2081  L 2547 2309  Q 2547 2688 2317 2895  Q 2088 3103 1672 3103  Q 1328 3103 1125 2947  Q 922 2791 872 2484  L 575 2484  L 575 3156  Q 875 3284 1158 3348  Q 1441 3413 1709 3413  Q 2400 3413 2761 3070  Q 3122 2728 3122 2075  z " transform="scale(0.015625)"/>
      <path id="DejaVuSerif-55" d="M 3059 3328  L 3059 2497  L 2728 2497  Q 2713 2744 2591 2866  Q 2469 2988 2234 2988  Q 1809 2988 1582 2694  Q 1356 2400 1356 1850  L 1356 331  L 2022 331  L 2022 0  L 263 0  L 263 331  L 781 331  L 781 2994  L 231 2994  L 231 3322  L 1356 3322  L 1356 2731  Q 1525 3078 1790 3245  Q 2056 3413 2438 3413  Q 2578 3413 2733 3391  Q 2888 3369 3059 3328  z " transform="scale(0.015625)"/>
      <path id="DejaVuSerif-4c" d="M 622 4353  Q 622 4497 726 4603  Q 831 4709 978 4709  Q 1122 4709 1226 4603  Q 1331 4497 1331 4353  Q 1331 4206 1228 4103  Q 1125 4000 978 4000  Q 831 4000 726 4103  Q 622 4206 622 4353  z M 1356 331  L 1900 331  L 1900 0  L 231 0  L 231 331  L 781 331  L 781 2988  L 231 2988  L 231 3322  L 1356 3322  L 1356 331  z " transform="scale(0.015625)"/>
      <path id="DejaVuSerif-46" d="M 3291 997  Q 3169 466 2822 187  Q 2475 -91 1925 -91  Q 1200 -91 759 389  Q 319 869 319 1663  Q 319 2459 759 2936  Q 1200 3413 1925 3413  Q 2241 3413 2553 3339  Q 2866 3266 3181 3116  L 3181 2266  L 2847 2266  Q 2781 2703 2561 2903  Q 2341 3103 1931 3103  Q 1466 3103 1228 2742  Q 991 2381 991 1663  Q 991 944 1227 581  Q 1463 219 1931 219  Q 2303 219 2525 412  Q 2747 606 2828 997  L 3291 997  z " transform="scale(0.015625)"/>
      <path id="DejaVuSerif-3" transform="scale(0.015625)"/>
      <path id="DejaVuSans-Oblique-54" d="M 2669 525  Q 2438 222 2123 65  Q 1809 -91 1428 -91  Q 897 -91 595 267  Q 294 625 294 1253  Q 294 1759 480 2231  Q 666 2703 1013 3078  Q 1238 3322 1530 3453  Q 1822 3584 2144 3584  Q 2531 3584 2781 3431  Q 3031 3278 3144 2969  L 3244 3494  L 3822 3494  L 2888 -1319  L 2309 -1319  L 2669 525  z M 891 1338  Q 891 875 1084 633  Q 1278 391 1644 391  Q 2188 391 2572 911  Q 2956 1431 2956 2175  Q 2956 2625 2757 2864  Q 2559 3103 2188 3103  Q 1916 3103 1684 2976  Q 1453 2850 1281 2606  Q 1100 2350 995 2006  Q 891 1663 891 1338  z " transform="scale(0.015625)"/>
      <path id="DejaVuSans-b" d="M 1984 4856  Q 1566 4138 1362 3434  Q 1159 2731 1159 2009  Q 1159 1288 1364 580  Q 1569 -128 1984 -844  L 1484 -844  Q 1016 -109 783 600  Q 550 1309 550 2009  Q 550 2706 781 3412  Q 1013 4119 1484 4856  L 1984 4856  z " transform="scale(0.015625)"/>
      <path id="DejaVuSans-14" d="M 794 531  L 1825 531  L 1825 4091  L 703 3866  L 703 4441  L 1819 4666  L 2450 4666  L 2450 531  L 3481 531  L 3481 0  L 794 0  L 794 531  z " transform="scale(0.015625)"/>
      <path id="DejaVuSans-13" d="M 2034 4250  Q 1547 4250 1301 3770  Q 1056 3291 1056 2328  Q 1056 1369 1301 889  Q 1547 409 2034 409  Q 2525 409 2770 889  Q 3016 1369 3016 2328  Q 3016 3291 2770 3770  Q 2525 4250 2034 4250  z M 2034 4750  Q 2819 4750 3233 4129  Q 3647 3509 3647 2328  Q 3647 1150 3233 529  Q 2819 -91 2034 -91  Q 1250 -91 836 529  Q 422 1150 422 2328  Q 422 3509 836 4129  Q 1250 4750 2034 4750  z " transform="scale(0.015625)"/>
      <path id="DejaVuSans-c9c" d="M 678 2272  L 4684 2272  L 4684 1741  L 678 1741  L 678 2272  z " transform="scale(0.015625)"/>
      <path id="DejaVuSans-1c" d="M 703 97  L 703 672  Q 941 559 1184 500  Q 1428 441 1663 441  Q 2288 441 2617 861  Q 2947 1281 2994 2138  Q 2813 1869 2534 1725  Q 2256 1581 1919 1581  Q 1219 1581 811 2004  Q 403 2428 403 3163  Q 403 3881 828 4315  Q 1253 4750 1959 4750  Q 2769 4750 3195 4129  Q 3622 3509 3622 2328  Q 3622 1225 3098 567  Q 2575 -91 1691 -91  Q 1453 -91 1209 -44  Q 966 3 703 97  z M 1959 2075  Q 2384 2075 2632 2365  Q 2881 2656 2881 3163  Q 2881 3666 2632 3958  Q 2384 4250 1959 4250  Q 1534 4250 1286 3958  Q 1038 3666 1038 3163  Q 1038 2656 1286 2365  Q 1534 2075 1959 2075  z " transform="scale(0.015625)"/>
      <path id="DejaVuSerif-c" d="M 453 -997  L 453 -691  Q 934 -359 1145 242  Q 1356 844 1356 1931  Q 1356 3022 1145 3623  Q 934 4225 453 4556  L 453 4863  Q 1216 4522 1603 3783  Q 1991 3044 1991 1931  Q 1991 822 1603 83  Q 1216 -656 453 -997  z " transform="scale(0.015625)"/>
     </defs>
     <use xlink:href="#DejaVuSerif-26" transform="translate(0 0.746875)"/>
     <use xlink:href="#DejaVuSerif-44" transform="translate(76.513672 0.746875)"/>
     <use xlink:href="#DejaVuSerif-55" transform="translate(136.132812 0.746875)"/>
     <use xlink:href="#DejaVuSerif-4c" transform="translate(183.935547 0.746875)"/>
     <use xlink:href="#DejaVuSerif-46" transform="translate(215.917969 0.746875)"/>
     <use xlink:href="#DejaVuSerif-44" transform="translate(271.923828 0.746875)"/>
     <use xlink:href="#DejaVuSerif-3" transform="translate(331.542969 0.746875)"/>
     <use xlink:href="#DejaVuSans-Oblique-54" transform="translate(363.330078 0.746875)"/>
     <use xlink:href="#DejaVuSerif-3" transform="translate(426.806641 0.746875)"/>
     <use xlink:href="#DejaVuSans-b" transform="translate(458.59375 0.746875)"/>
     <use xlink:href="#DejaVuSans-14" transform="translate(497.607422 0.746875)"/>
     <use xlink:href="#DejaVuSans-13" transform="translate(561.230469 0.746875)"/>
     <use xlink:href="#DejaVuSans-c9c" transform="translate(625.810547 42.046875) scale(0.7)"/>
     <use xlink:href="#DejaVuSans-14" transform="translate(684.462891 42.046875) scale(0.7)"/>
     <use xlink:href="#DejaVuSans-1c" transform="translate(728.999023 42.046875) scale(0.7)"/>
     <use xlink:href="#DejaVuSerif-26" transform="translate(792.505208 0.746875)"/>
     <use xlink:href="#DejaVuSerif-c" transform="translate(869.018879 0.746875)"/>
    </g>
   </g>
   <g id="text_13">
    <!-- Frequenza -->
    <g transform="translate(28.4256 10.863041) scale(0.12 -0.12)">
     <defs>
      <path id="DejaVuSerif-29" d="M 353 0  L 353 331  L 947 331  L 947 4331  L 353 4331  L 353 4666  L 4172 4666  L 4172 3628  L 3788 3628  L 3788 4281  L 1581 4281  L 1581 2719  L 3175 2719  L 3175 3303  L 3559 3303  L 3559 1753  L 3175 1753  L 3175 2338  L 1581 2338  L 1581 331  L 2328 331  L 2328 0  L 353 0  z " transform="scale(0.015625)"/>
      <path id="DejaVuSerif-48" d="M 3469 1600  L 991 1600  L 991 1575  Q 991 903 1244 561  Q 1497 219 1991 219  Q 2369 219 2611 417  Q 2853 616 2950 1006  L 3413 1006  Q 3275 459 2904 184  Q 2534 -91 1931 -91  Q 1203 -91 761 389  Q 319 869 319 1663  Q 319 2450 753 2931  Q 1188 3413 1894 3413  Q 2647 3413 3050 2948  Q 3453 2484 3469 1600  z M 2791 1931  Q 2772 2513 2545 2808  Q 2319 3103 1894 3103  Q 1497 3103 1269 2806  Q 1041 2509 991 1931  L 2791 1931  z " transform="scale(0.015625)"/>
      <path id="DejaVuSerif-54" d="M 3359 2988  L 3359 -997  L 3909 -997  L 3909 -1331  L 2241 -1331  L 2241 -997  L 2784 -997  L 2784 519  Q 2616 206 2355 57  Q 2094 -91 1709 -91  Q 1097 -91 708 395  Q 319 881 319 1663  Q 319 2444 706 2928  Q 1094 3413 1709 3413  Q 2094 3413 2355 3264  Q 2616 3116 2784 2803  L 2784 3322  L 3909 3322  L 3909 2988  L 3359 2988  z M 2784 1825  Q 2784 2422 2554 2737  Q 2325 3053 1888 3053  Q 1444 3053 1217 2703  Q 991 2353 991 1663  Q 991 975 1217 622  Q 1444 269 1888 269  Q 2325 269 2554 583  Q 2784 897 2784 1497  L 2784 1825  z " transform="scale(0.015625)"/>
      <path id="DejaVuSerif-58" d="M 2266 3322  L 3341 3322  L 3341 331  L 3884 331  L 3884 0  L 2766 0  L 2766 588  Q 2606 256 2353 82  Q 2100 -91 1766 -91  Q 1213 -91 952 223  Q 691 538 691 1209  L 691 2988  L 172 2988  L 172 3322  L 1269 3322  L 1269 1388  Q 1269 781 1417 556  Q 1566 331 1947 331  Q 2347 331 2556 625  Q 2766 919 2766 1478  L 2766 2988  L 2266 2988  L 2266 3322  z " transform="scale(0.015625)"/>
      <path id="DejaVuSerif-51" d="M 263 0  L 263 331  L 781 331  L 781 2988  L 231 2988  L 231 3322  L 1356 3322  L 1356 2731  Q 1516 3069 1770 3241  Q 2025 3413 2363 3413  Q 2913 3413 3172 3097  Q 3431 2781 3431 2113  L 3431 331  L 3944 331  L 3944 0  L 2356 0  L 2356 331  L 2853 331  L 2853 1931  Q 2853 2541 2703 2767  Q 2553 2994 2175 2994  Q 1775 2994 1565 2701  Q 1356 2409 1356 1850  L 1356 331  L 1856 331  L 1856 0  L 263 0  z " transform="scale(0.015625)"/>
      <path id="DejaVuSerif-5d" d="M 256 0  L 256 269  L 2338 2988  L 691 2988  L 691 2413  L 359 2413  L 359 3322  L 3078 3322  L 3078 3053  L 997 331  L 2803 331  L 2803 934  L 3138 934  L 3138 0  L 256 0  z " transform="scale(0.015625)"/>
     </defs>
     <use xlink:href="#DejaVuSerif-29"/>
     <use xlink:href="#DejaVuSerif-55" transform="translate(69.390625 0)"/>
     <use xlink:href="#DejaVuSerif-48" transform="translate(117.1875 0)"/>
     <use xlink:href="#DejaVuSerif-54" transform="translate(176.375 0)"/>
     <use xlink:href="#DejaVuSerif-58" transform="translate(240.390625 0)"/>
     <use xlink:href="#DejaVuSerif-48" transform="translate(304.796875 0)"/>
     <use xlink:href="#DejaVuSerif-51" transform="translate(363.984375 0)"/>
     <use xlink:href="#DejaVuSerif-5d" transform="translate(428.390625 0)"/>
     <use xlink:href="#DejaVuSerif-44" transform="translate(481.078125 0)"/>
    </g>
   </g>
  </g>
 </g>
 <defs>
  <clipPath id="p6980191f33">
   <rect x="36.288" y="15.624" width="471.744" height="154.008"/>
  </clipPath>
 </defs>
</svg>