<?xml version='1.0' encoding='UTF-8'?>
<!DOCTYPE svg PUBLIC "-//W3C//DTD SVG 1.1//EN" "http://www.w3.org/Graphics/SVG/1.1/DTD/svg11.dtd">
<svg xmlns="http://www.w3.org/2000/svg" xmlns:ooo="http://xml.openoffice.org/svg/export" xmlns:xlink="http://www.w3.org/1999/xlink" xmlns:presentation="http://sun.com/xmlns/staroffice/presentation" xmlns:smil="http://www.w3.org/2001/SMIL20/" xmlns:anim="urn:oasis:names:tc:opendocument:xmlns:animation:1.0" xmlns:svg="urn:oasis:names:tc:opendocument:xmlns:svg-compatible:1.0" version="1.2" width="59.270mm" height="28.280mm" viewBox="7831 12556 5927 2828" preserveAspectRatio="xMidYMid" fill-rule="evenodd" stroke-width="28.222" stroke-linejoin="round" xml:space="preserve">
 <defs class="ClipPathGroup">
  <clipPath id="presentation_clip_path" clipPathUnits="userSpaceOnUse">
   <rect x="0" y="0" width="21590" height="27940"/>
  </clipPath>
  <clipPath id="presentation_clip_path_shrink" clipPathUnits="userSpaceOnUse">
   <rect x="21" y="27" width="21547" height="27885"/>
  </clipPath>
 </defs>
 <defs class="TextShapeIndex">
  <g ooo:slide="id1" ooo:id-list="id3"/>
 </defs>
 <defs class="EmbeddedBulletChars">
  <g id="bullet-char-template-57356" transform="scale(0.00048828125,-0.00048828125)">
   <path d="M 580,1141 L 1163,571 580,0 -4,571 580,1141 Z"/>
  </g>
  <g id="bullet-char-template-57354" transform="scale(0.00048828125,-0.00048828125)">
   <path d="M 8,1128 L 1137,1128 1137,0 8,0 8,1128 Z"/>
  </g>
  <g id="bullet-char-template-10146" transform="scale(0.00048828125,-0.00048828125)">
   <path d="M 174,0 L 602,739 174,1481 1456,739 174,0 Z M 1358,739 L 309,1346 659,739 1358,739 Z"/>
  </g>
  <g id="bullet-char-template-10132" transform="scale(0.00048828125,-0.00048828125)">
   <path d="M 2015,739 L 1276,0 717,0 1260,543 174,543 174,936 1260,936 717,1481 1274,1481 2015,739 Z"/>
  </g>
  <g id="bullet-char-template-10007" transform="scale(0.00048828125,-0.00048828125)">
   <path d="M 0,-2 C -7,14 -16,27 -25,37 L 356,567 C 262,823 215,952 215,954 215,979 228,992 255,992 264,992 276,990 289,987 310,991 331,999 354,1012 L 381,999 492,748 772,1049 836,1024 860,1049 C 881,1039 901,1025 922,1006 886,937 835,863 770,784 769,783 710,716 594,584 L 774,223 C 774,196 753,168 711,139 L 727,119 C 717,90 699,76 672,76 641,76 570,178 457,381 L 164,-76 C 142,-110 111,-127 72,-127 30,-127 9,-110 8,-76 1,-67 -2,-52 -2,-32 -2,-23 -1,-13 0,-2 Z"/>
  </g>
  <g id="bullet-char-template-10004" transform="scale(0.00048828125,-0.00048828125)">
   <path d="M 285,-33 C 182,-33 111,30 74,156 52,228 41,333 41,471 41,549 55,616 82,672 116,743 169,778 240,778 293,778 328,747 346,684 L 369,508 C 377,444 397,411 428,410 L 1163,1116 C 1174,1127 1196,1133 1229,1133 1271,1133 1292,1118 1292,1087 L 1292,965 C 1292,929 1282,901 1262,881 L 442,47 C 390,-6 338,-33 285,-33 Z"/>
  </g>
  <g id="bullet-char-template-9679" transform="scale(0.00048828125,-0.00048828125)">
   <path d="M 813,0 C 632,0 489,54 383,161 276,268 223,411 223,592 223,773 276,916 383,1023 489,1130 632,1184 813,1184 992,1184 1136,1130 1245,1023 1353,916 1407,772 1407,592 1407,412 1353,268 1245,161 1136,54 992,0 813,0 Z"/>
  </g>
  <g id="bullet-char-template-8226" transform="scale(0.00048828125,-0.00048828125)">
   <path d="M 346,457 C 273,457 209,483 155,535 101,586 74,649 74,723 74,796 101,859 155,911 209,963 273,989 346,989 419,989 480,963 531,910 582,859 608,796 608,723 608,648 583,586 532,535 482,483 420,457 346,457 Z"/>
  </g>
  <g id="bullet-char-template-8211" transform="scale(0.00048828125,-0.00048828125)">
   <path d="M -4,459 L 1135,459 1135,606 -4,606 -4,459 Z"/>
  </g>
  <g id="bullet-char-template-61548" transform="scale(0.00048828125,-0.00048828125)">
   <path d="M 173,740 C 173,903 231,1043 346,1159 462,1274 601,1332 765,1332 928,1332 1067,1274 1183,1159 1299,1043 1357,903 1357,740 1357,577 1299,437 1183,322 1067,206 928,148 765,148 601,148 462,206 346,322 231,437 173,577 173,740 Z"/>
  </g>
 </defs>
 <g>
  <g id="id2" class="Master_Slide">
   <g id="bg-id2" class="Background"/>
   <g id="bo-id2" class="BackgroundObjects"/>
  </g>
 </g>
 <g class="SlideGroup">
  <g>
   <g id="container-id1">
    <g id="id1" class="Slide" clip-path="url(#presentation_clip_path)">
     <g class="Page">
      <g class="Graphic">
       <g id="id3">
        <rect class="BoundingBox" stroke="none" fill="none" x="7831" y="12556" width="5927" height="2828"/>
        <defs>
         <clipPath id="clip_path_1" clipPathUnits="userSpaceOnUse">
          <path d="M 7831,12556 L 13757,12556 13757,15383 7831,15383 7831,12556 Z "/>
         </clipPath>
        </defs>
        <g clip-path="url(#clip_path_1)">
         <path fill="rgb(255,255,255)" stroke="none" d="M 7831,12556 L 13732,12556 13732,15358 7831,15358 7831,12556 Z "/>
         <path fill="none" stroke="rgb(255,255,255)" stroke-width="25" stroke-linejoin="round" stroke-linecap="round" d="M 7831,12556 L 13732,12556 13732,15358 7831,15358 7831,12556 Z "/>
         <path fill="none" stroke="rgb(0,0,0)" stroke-width="25" stroke-linejoin="round" stroke-linecap="round" d="M 9270,12844 L 9270,13064 9279,13064 "/>
         <path fill="none" stroke="rgb(0,0,0)" stroke-width="25" stroke-linejoin="round" stroke-linecap="round" d="M 9270,13106 L 9270,13115 9279,13115 "/>
         <path fill="none" stroke="rgb(0,0,0)" stroke-width="25" stroke-linejoin="round" stroke-linecap="round" d="M 9270,13166 L 9270,13521 9279,13521 "/>
         <path fill="none" stroke="rgb(0,0,0)" stroke-width="25" stroke-linejoin="round" stroke-linecap="round" d="M 9270,13564 L 9270,13572 9279,13572 "/>
         <path fill="none" stroke="rgb(0,0,0)" stroke-width="25" stroke-linejoin="round" stroke-linecap="round" d="M 9270,13614 L 9270,13970 9279,13970 "/>
         <path fill="none" stroke="rgb(0,0,0)" stroke-width="25" stroke-linejoin="round" stroke-linecap="round" d="M 9270,14012 L 9270,14021 9279,14021 "/>
         <path fill="none" stroke="rgb(0,0,0)" stroke-width="25" stroke-linejoin="round" stroke-linecap="round" d="M 9270,14072 L 9270,14427 9279,14427 "/>
         <path fill="none" stroke="rgb(0,0,0)" stroke-width="25" stroke-linejoin="round" stroke-linecap="round" d="M 9270,14470 L 9270,14478 9279,14478 "/>
         <path fill="none" stroke="rgb(0,0,0)" stroke-width="25" stroke-linejoin="round" stroke-linecap="round" d="M 9270,14520 L 9270,14876 9279,14876 "/>
         <path fill="none" stroke="rgb(0,0,0)" stroke-width="25" stroke-linejoin="round" stroke-linecap="round" d="M 9270,14927 L 9270,14927 9279,14927 "/>
         <path fill="none" stroke="rgb(0,0,0)" stroke-width="25" stroke-linejoin="round" stroke-linecap="round" d="M 9270,14978 L 9270,15198 9279,15198 "/>
         <path fill="none" stroke="rgb(0,0,0)" stroke-width="25" stroke-linejoin="round" stroke-linecap="round" d="M 8949,14681 L 9601,14681 9601,14681 "/>
         <path fill="none" stroke="rgb(0,0,0)" stroke-width="25" stroke-linejoin="round" stroke-linecap="round" d="M 9601,14681 L 9601,14089 9601,14089 "/>
         <path fill="none" stroke="rgb(0,0,0)" stroke-width="25" stroke-linejoin="round" stroke-linecap="round" d="M 8949,14089 L 9033,14182 9143,14241 9270,14266 9397,14241 9516,14182 9601,14089 9601,14089 "/>
         <path fill="none" stroke="rgb(0,0,0)" stroke-width="25" stroke-linejoin="round" stroke-linecap="round" d="M 8949,14089 L 8949,14681 8949,14681 "/>
         <path fill="none" stroke="rgb(0,0,0)" stroke-width="25" stroke-linejoin="round" stroke-linecap="round" d="M 9270,12844 L 9270,13064 9279,13064 "/>
         <path fill="none" stroke="rgb(0,0,0)" stroke-width="25" stroke-linejoin="round" stroke-linecap="round" d="M 9270,13106 L 9270,13115 9279,13115 "/>
         <path fill="none" stroke="rgb(0,0,0)" stroke-width="25" stroke-linejoin="round" stroke-linecap="round" d="M 9270,13166 L 9270,13521 9279,13521 "/>
         <path fill="none" stroke="rgb(0,0,0)" stroke-width="25" stroke-linejoin="round" stroke-linecap="round" d="M 9270,13564 L 9270,13572 9279,13572 "/>
         <path fill="none" stroke="rgb(0,0,0)" stroke-width="25" stroke-linejoin="round" stroke-linecap="round" d="M 9270,13614 L 9270,13970 9279,13970 "/>
         <path fill="none" stroke="rgb(0,0,0)" stroke-width="25" stroke-linejoin="round" stroke-linecap="round" d="M 9270,14012 L 9270,14021 9279,14021 "/>
         <path fill="none" stroke="rgb(0,0,0)" stroke-width="25" stroke-linejoin="round" stroke-linecap="round" d="M 9270,14072 L 9270,14427 9279,14427 "/>
         <path fill="none" stroke="rgb(0,0,0)" stroke-width="25" stroke-linejoin="round" stroke-linecap="round" d="M 9270,14470 L 9270,14478 9279,14478 "/>
         <path fill="none" stroke="rgb(0,0,0)" stroke-width="25" stroke-linejoin="round" stroke-linecap="round" d="M 9270,14520 L 9270,14876 9279,14876 "/>
         <path fill="none" stroke="rgb(0,0,0)" stroke-width="25" stroke-linejoin="round" stroke-linecap="round" d="M 9270,14927 L 9270,14927 9279,14927 "/>
         <path fill="none" stroke="rgb(0,0,0)" stroke-width="25" stroke-linejoin="round" stroke-linecap="round" d="M 9270,14978 L 9270,15198 9279,15198 "/>
         <path fill="none" stroke="rgb(0,0,0)" stroke-width="25" stroke-linejoin="round" stroke-linecap="round" d="M 9601,13284 L 9601,13428 9601,13428 "/>
         <path fill="none" stroke="rgb(0,0,0)" stroke-width="25" stroke-linejoin="round" stroke-linecap="round" d="M 9601,13428 L 9321,13911 9321,13911 "/>
         <path fill="none" stroke="rgb(0,0,0)" stroke-width="25" stroke-linejoin="round" stroke-linecap="round" d="M 9220,13911 L 9253,13936 9296,13936 9321,13911 9321,13911 "/>
         <path fill="none" stroke="rgb(0,0,0)" stroke-width="25" stroke-linejoin="round" stroke-linecap="round" d="M 9220,13911 L 8949,13428 8949,13428 "/>
         <path fill="none" stroke="rgb(0,0,0)" stroke-width="25" stroke-linejoin="round" stroke-linecap="round" d="M 8949,13428 L 8949,13284 8949,13284 "/>
         <path fill="none" stroke="rgb(0,0,0)" stroke-width="25" stroke-linejoin="round" stroke-linecap="round" d="M 8949,13284 L 9601,13284 9601,13284 "/>
         <path fill="none" stroke="rgb(0,0,0)" stroke-width="25" stroke-linejoin="round" stroke-linecap="round" d="M 9423,14004 L 9567,13987 9702,13928 9821,13843 9821,13843 "/>
         <path fill="none" stroke="rgb(0,0,0)" stroke-width="25" stroke-linejoin="round" stroke-linecap="round" d="M 10210,13674 L 10066,13699 9931,13750 9821,13843 9821,13843 "/>
         <path fill="none" stroke="rgb(0,0,0)" stroke-width="25" stroke-linejoin="round" stroke-linecap="round" d="M 10210,13682 L 10837,13682 10837,13682 "/>
         <path fill="none" stroke="rgb(0,0,0)" stroke-width="25" stroke-linejoin="round" stroke-linecap="round" d="M 9423,14004 L 7950,14004 7950,14004 "/>
         <path fill="none" stroke="rgb(0,0,0)" stroke-width="25" stroke-linejoin="round" stroke-linecap="round" d="M 9821,14165 L 9702,14080 9567,14021 9423,14004 9423,14004 "/>
         <path fill="none" stroke="rgb(0,0,0)" stroke-width="25" stroke-linejoin="round" stroke-linecap="round" d="M 9821,14165 L 9931,14258 10066,14317 10210,14334 10210,14334 "/>
         <path fill="none" stroke="rgb(0,0,0)" stroke-width="25" stroke-linejoin="round" stroke-linecap="round" d="M 10210,14207 L 10261,14156 10261,14156 "/>
         <path fill="none" stroke="rgb(0,0,0)" stroke-width="25" stroke-linejoin="round" stroke-linecap="round" d="M 10210,14275 L 10278,14207 10278,14207 "/>
         <path fill="none" stroke="rgb(0,0,0)" stroke-width="25" stroke-linejoin="round" stroke-linecap="round" d="M 10210,14343 L 10278,14275 10278,14275 "/>
         <path fill="none" stroke="rgb(0,0,0)" stroke-width="25" stroke-linejoin="round" stroke-linecap="round" d="M 10210,14410 L 10278,14343 10278,14343 "/>
         <path fill="none" stroke="rgb(0,0,0)" stroke-width="25" stroke-linejoin="round" stroke-linecap="round" d="M 10210,14478 L 10278,14410 10278,14410 "/>
         <path fill="none" stroke="rgb(0,0,0)" stroke-width="25" stroke-linejoin="round" stroke-linecap="round" d="M 10253,14503 L 10278,14478 10278,14478 "/>
         <path fill="none" stroke="rgb(0,0,0)" stroke-width="25" stroke-linejoin="round" stroke-linecap="round" d="M 10210,14156 L 10210,14503 10278,14503 10278,14156 10210,14156 Z "/>
         <path fill="none" stroke="rgb(0,0,0)" stroke-width="25" stroke-linejoin="round" stroke-linecap="round" d="M 10837,14461 L 12403,14461 12403,12895 10837,12895 10837,14461 Z "/>
         <path fill="none" stroke="rgb(0,0,0)" stroke-width="25" stroke-linejoin="round" stroke-linecap="round" d="M 12403,13682 L 13047,13682 13047,13682 "/>
         <path fill="none" stroke="rgb(0,0,0)" stroke-width="25" stroke-linejoin="round" stroke-linecap="round" d="M 10837,13682 L 10930,13682 10930,13682 "/>
         <path fill="none" stroke="rgb(0,0,0)" stroke-width="25" stroke-linejoin="round" stroke-linecap="round" d="M 10972,13682 L 11150,13682 11150,13682 "/>
         <path fill="none" stroke="rgb(0,0,0)" stroke-width="25" stroke-linejoin="round" stroke-linecap="round" d="M 11192,13682 L 11370,13682 11370,13682 "/>
         <path fill="none" stroke="rgb(0,0,0)" stroke-width="25" stroke-linejoin="round" stroke-linecap="round" d="M 11421,13682 L 11599,13682 11599,13682 "/>
         <path fill="none" stroke="rgb(0,0,0)" stroke-width="25" stroke-linejoin="round" stroke-linecap="round" d="M 11641,13682 L 11819,13682 11819,13682 "/>
         <path fill="none" stroke="rgb(0,0,0)" stroke-width="25" stroke-linejoin="round" stroke-linecap="round" d="M 11861,13682 L 12039,13682 12039,13682 "/>
         <path fill="none" stroke="rgb(0,0,0)" stroke-width="25" stroke-linejoin="round" stroke-linecap="round" d="M 12082,13682 L 12268,13682 12268,13682 "/>
         <path fill="none" stroke="rgb(0,0,0)" stroke-width="25" stroke-linejoin="round" stroke-linecap="round" d="M 12310,13682 L 12403,13682 12403,13682 "/>
         <path fill="none" stroke="rgb(0,0,0)" stroke-width="25" stroke-linejoin="round" stroke-linecap="round" d="M 13047,13945 L 13580,13945 13580,13411 13047,13411 13047,13945 Z "/>
         <path fill="none" stroke="rgb(0,0,0)" stroke-width="25" stroke-linejoin="round" stroke-linecap="round" d="M 13580,13411 L 13047,13945 13047,13945 "/>
         <path fill="none" stroke="rgb(0,0,0)" stroke-width="25" stroke-linejoin="round" stroke-linecap="round" d="M 13047,13411 L 13580,13945 13580,13945 "/>
        </g>
       </g>
      </g>
     </g>
    </g>
   </g>
  </g>
 </g>
</svg>