<?xml version='1.0' encoding='UTF-8'?>
<!DOCTYPE svg PUBLIC "-//W3C//DTD SVG 1.1//EN" "http://www.w3.org/Graphics/SVG/1.1/DTD/svg11.dtd">
<svg xmlns="http://www.w3.org/2000/svg" xmlns:ooo="http://xml.openoffice.org/svg/export" xmlns:xlink="http://www.w3.org/1999/xlink" xmlns:presentation="http://sun.com/xmlns/staroffice/presentation" xmlns:smil="http://www.w3.org/2001/SMIL20/" xmlns:anim="urn:oasis:names:tc:opendocument:xmlns:animation:1.0" xmlns:svg="urn:oasis:names:tc:opendocument:xmlns:svg-compatible:1.0" version="1.2" width="155.280mm" height="94.230mm" viewBox="3031 9258 15528 9423" preserveAspectRatio="xMidYMid" fill-rule="evenodd" stroke-width="28.222" stroke-linejoin="round" xml:space="preserve">
 <defs class="ClipPathGroup">
  <clipPath id="presentation_clip_path" clipPathUnits="userSpaceOnUse">
   <rect x="0" y="0" width="21590" height="27940"/>
  </clipPath>
  <clipPath id="presentation_clip_path_shrink" clipPathUnits="userSpaceOnUse">
   <rect x="21" y="27" width="21547" height="27885"/>
  </clipPath>
 </defs>
 <defs>
  </defs>
 <defs class="TextShapeIndex">
  <g ooo:slide="id1" ooo:id-list="id3"/>
 </defs>
 <defs class="EmbeddedBulletChars">
  <g id="bullet-char-template-57356" transform="scale(0.00048828125,-0.00048828125)">
   <path d="M 580,1141 L 1163,571 580,0 -4,571 580,1141 Z"/>
  </g>
  <g id="bullet-char-template-57354" transform="scale(0.00048828125,-0.00048828125)">
   <path d="M 8,1128 L 1137,1128 1137,0 8,0 8,1128 Z"/>
  </g>
  <g id="bullet-char-template-10146" transform="scale(0.00048828125,-0.00048828125)">
   <path d="M 174,0 L 602,739 174,1481 1456,739 174,0 Z M 1358,739 L 309,1346 659,739 1358,739 Z"/>
  </g>
  <g id="bullet-char-template-10132" transform="scale(0.00048828125,-0.00048828125)">
   <path d="M 2015,739 L 1276,0 717,0 1260,543 174,543 174,936 1260,936 717,1481 1274,1481 2015,739 Z"/>
  </g>
  <g id="bullet-char-template-10007" transform="scale(0.00048828125,-0.00048828125)">
   <path d="M 0,-2 C -7,14 -16,27 -25,37 L 356,567 C 262,823 215,952 215,954 215,979 228,992 255,992 264,992 276,990 289,987 310,991 331,999 354,1012 L 381,999 492,748 772,1049 836,1024 860,1049 C 881,1039 901,1025 922,1006 886,937 835,863 770,784 769,783 710,716 594,584 L 774,223 C 774,196 753,168 711,139 L 727,119 C 717,90 699,76 672,76 641,76 570,178 457,381 L 164,-76 C 142,-110 111,-127 72,-127 30,-127 9,-110 8,-76 1,-67 -2,-52 -2,-32 -2,-23 -1,-13 0,-2 Z"/>
  </g>
  <g id="bullet-char-template-10004" transform="scale(0.00048828125,-0.00048828125)">
   <path d="M 285,-33 C 182,-33 111,30 74,156 52,228 41,333 41,471 41,549 55,616 82,672 116,743 169,778 240,778 293,778 328,747 346,684 L 369,508 C 377,444 397,411 428,410 L 1163,1116 C 1174,1127 1196,1133 1229,1133 1271,1133 1292,1118 1292,1087 L 1292,965 C 1292,929 1282,901 1262,881 L 442,47 C 390,-6 338,-33 285,-33 Z"/>
  </g>
  <g id="bullet-char-template-9679" transform="scale(0.00048828125,-0.00048828125)">
   <path d="M 813,0 C 632,0 489,54 383,161 276,268 223,411 223,592 223,773 276,916 383,1023 489,1130 632,1184 813,1184 992,1184 1136,1130 1245,1023 1353,916 1407,772 1407,592 1407,412 1353,268 1245,161 1136,54 992,0 813,0 Z"/>
  </g>
  <g id="bullet-char-template-8226" transform="scale(0.00048828125,-0.00048828125)">
   <path d="M 346,457 C 273,457 209,483 155,535 101,586 74,649 74,723 74,796 101,859 155,911 209,963 273,989 346,989 419,989 480,963 531,910 582,859 608,796 608,723 608,648 583,586 532,535 482,483 420,457 346,457 Z"/>
  </g>
  <g id="bullet-char-template-8211" transform="scale(0.00048828125,-0.00048828125)">
   <path d="M -4,459 L 1135,459 1135,606 -4,606 -4,459 Z"/>
  </g>
  <g id="bullet-char-template-61548" transform="scale(0.00048828125,-0.00048828125)">
   <path d="M 173,740 C 173,903 231,1043 346,1159 462,1274 601,1332 765,1332 928,1332 1067,1274 1183,1159 1299,1043 1357,903 1357,740 1357,577 1299,437 1183,322 1067,206 928,148 765,148 601,148 462,206 346,322 231,437 173,577 173,740 Z"/>
  </g>
 </defs>
 <g>
  <g id="id2" class="Master_Slide">
   <g id="bg-id2" class="Background"/>
   <g id="bo-id2" class="BackgroundObjects"/>
  </g>
 </g>
 <g class="SlideGroup">
  <g>
   <g id="container-id1">
    <g id="id1" class="Slide" clip-path="url(#presentation_clip_path)">
     <g class="Page">
      <g class="Graphic">
       <g id="id3">
        <rect class="BoundingBox" stroke="none" fill="none" x="3031" y="9258" width="15528" height="9423"/>
        <defs>
         <clipPath id="clip_path_1" clipPathUnits="userSpaceOnUse">
          <path d="M 3336,10714 L 4157,10714 4157,11916 3336,11916 3336,10714 Z "/>
         </clipPath>
        </defs>
        <g clip-path="url(#clip_path_1)">
         <text class="SVGTextShape"><tspan class="TextParagraph"><tspan class="TextPosition" x="3336" y="11562"><tspan font-family="Times New Roman, serif" font-size="914px" font-weight="400" lengthAdjust="spacingAndGlyphs" textLength="457" fill="rgb(0,0,0)" stroke="none" style="white-space: pre">1</tspan></tspan></tspan></text>
        </g>
        <defs>
         <clipPath id="clip_path_2" clipPathUnits="userSpaceOnUse">
          <path d="M 3293,13830 L 4123,13830 4123,15032 3293,15032 3293,13830 Z "/>
         </clipPath>
        </defs>
        <g clip-path="url(#clip_path_2)">
         <text class="SVGTextShape"><tspan class="TextParagraph"><tspan class="TextPosition" x="3293" y="14678"><tspan font-family="Times New Roman, serif" font-size="914px" font-weight="400" lengthAdjust="spacingAndGlyphs" textLength="457" fill="rgb(0,0,0)" stroke="none" style="white-space: pre">2</tspan></tspan></tspan></text>
        </g>
        <defs>
         <clipPath id="clip_path_3" clipPathUnits="userSpaceOnUse">
          <path d="M 3268,16945 L 4089,16945 4089,18148 3268,18148 3268,16945 Z "/>
         </clipPath>
        </defs>
        <g clip-path="url(#clip_path_3)">
         <text class="SVGTextShape"><tspan class="TextParagraph"><tspan class="TextPosition" x="3268" y="17793"><tspan font-family="Times New Roman, serif" font-size="914px" font-weight="400" lengthAdjust="spacingAndGlyphs" textLength="457" fill="rgb(0,0,0)" stroke="none" style="white-space: pre">3</tspan></tspan></tspan></text>
        </g>
        <path fill="none" stroke="rgb(0,0,0)" stroke-width="34" stroke-linejoin="round" stroke-linecap="round" d="M 5503,11349 L 5800,11307 6087,11188 6325,11002 6325,11002 "/>
        <path fill="none" stroke="rgb(0,0,0)" stroke-width="34" stroke-linejoin="round" stroke-linecap="round" d="M 7154,10663 L 6706,10757 6325,11002 6325,11002 "/>
        <path fill="none" stroke="rgb(0,0,0)" stroke-width="34" stroke-linejoin="round" stroke-linecap="round" d="M 7154,10663 L 10092,10663 10092,10663 "/>
        <path fill="none" stroke="rgb(0,0,0)" stroke-width="34" stroke-linejoin="round" stroke-linecap="round" d="M 10092,10663 L 10168,10663 10168,10663 "/>
        <path fill="none" stroke="rgb(0,0,0)" stroke-width="34" stroke-linejoin="round" stroke-linecap="round" d="M 5503,11349 L 4030,11349 4030,11349 "/>
        <path fill="none" stroke="rgb(0,0,0)" stroke-width="34" stroke-linejoin="round" stroke-linecap="round" d="M 6325,11688 L 6087,11502 5800,11392 5503,11349 5503,11349 "/>
        <path fill="none" stroke="rgb(0,0,0)" stroke-width="34" stroke-linejoin="round" stroke-linecap="round" d="M 6325,11688 L 6706,11942 7154,12035 7154,12035 "/>
        <path fill="none" stroke="rgb(0,0,0)" stroke-width="34" stroke-linejoin="round" stroke-linecap="round" d="M 7154,11772 L 7256,11671 7256,11671 "/>
        <path fill="none" stroke="rgb(0,0,0)" stroke-width="34" stroke-linejoin="round" stroke-linecap="round" d="M 7154,11916 L 7290,11781 7290,11781 "/>
        <path fill="none" stroke="rgb(0,0,0)" stroke-width="34" stroke-linejoin="round" stroke-linecap="round" d="M 7154,12052 L 7290,11916 7290,11916 "/>
        <path fill="none" stroke="rgb(0,0,0)" stroke-width="34" stroke-linejoin="round" stroke-linecap="round" d="M 7154,12196 L 7290,12060 7290,12060 "/>
        <path fill="none" stroke="rgb(0,0,0)" stroke-width="34" stroke-linejoin="round" stroke-linecap="round" d="M 7154,12331 L 7290,12196 7290,12196 "/>
        <path fill="none" stroke="rgb(0,0,0)" stroke-width="34" stroke-linejoin="round" stroke-linecap="round" d="M 7231,12391 L 7290,12340 7290,12340 "/>
        <path fill="none" stroke="rgb(0,0,0)" stroke-width="34" stroke-linejoin="round" stroke-linecap="round" d="M 7154,11671 L 7154,12391 7290,12391 7290,11671 7154,11671 Z "/>
        <path fill="none" stroke="rgb(0,0,0)" stroke-width="34" stroke-linejoin="round" stroke-linecap="round" d="M 10998,11002 L 11371,11256 11819,11349 11819,11349 "/>
        <path fill="none" stroke="rgb(0,0,0)" stroke-width="34" stroke-linejoin="round" stroke-linecap="round" d="M 10998,11002 L 10753,10824 10473,10706 10168,10663 10168,10663 "/>
        <path fill="none" stroke="rgb(0,0,0)" stroke-width="34" stroke-linejoin="round" stroke-linecap="round" d="M 10168,10663 L 10473,10621 10753,10503 10998,10316 10998,10316 "/>
        <path fill="none" stroke="rgb(0,0,0)" stroke-width="34" stroke-linejoin="round" stroke-linecap="round" d="M 11819,9978 L 11371,10071 10998,10316 10998,10316 "/>
        <path fill="none" stroke="rgb(0,0,0)" stroke-width="34" stroke-linejoin="round" stroke-linecap="round" d="M 11819,9978 L 13005,9978 13005,9978 "/>
        <path fill="none" stroke="rgb(0,0,0)" stroke-width="34" stroke-linejoin="round" stroke-linecap="round" d="M 11819,11349 L 14190,11349 14190,11349 "/>
        <path fill="none" stroke="rgb(0,0,0)" stroke-width="34" stroke-linejoin="round" stroke-linecap="round" d="M 15841,10663 L 15536,10706 15257,10824 15020,11002 15020,11002 "/>
        <path fill="none" stroke="rgb(0,0,0)" stroke-width="34" stroke-linejoin="round" stroke-linecap="round" d="M 14190,11349 L 14639,11256 15020,11002 15020,11002 "/>
        <path fill="none" stroke="rgb(0,0,0)" stroke-width="34" stroke-linejoin="round" stroke-linecap="round" d="M 15917,10663 L 17348,10663 17348,10663 "/>
        <path fill="none" stroke="rgb(0,0,0)" stroke-width="34" stroke-linejoin="round" stroke-linecap="round" d="M 6325,14795 L 6087,14609 5800,14499 5503,14456 5503,14456 "/>
        <path fill="none" stroke="rgb(0,0,0)" stroke-width="34" stroke-linejoin="round" stroke-linecap="round" d="M 5503,14456 L 5800,14414 6087,14295 6325,14118 6325,14118 "/>
        <path fill="none" stroke="rgb(0,0,0)" stroke-width="34" stroke-linejoin="round" stroke-linecap="round" d="M 5503,14456 L 4030,14456 4030,14456 "/>
        <path fill="none" stroke="rgb(0,0,0)" stroke-width="34" stroke-linejoin="round" stroke-linecap="round" d="M 15020,13432 L 15257,13618 15545,13728 15841,13771 15841,13771 "/>
        <path fill="none" stroke="rgb(0,0,0)" stroke-width="34" stroke-linejoin="round" stroke-linecap="round" d="M 10168,13771 L 10473,13728 10753,13618 10998,13432 10998,13432 "/>
        <path fill="none" stroke="rgb(0,0,0)" stroke-width="34" stroke-linejoin="round" stroke-linecap="round" d="M 10998,14118 L 10753,13931 10473,13813 10168,13771 10168,13771 "/>
        <path fill="none" stroke="rgb(0,0,0)" stroke-width="34" stroke-linejoin="round" stroke-linecap="round" d="M 7154,13771 L 10092,13771 10092,13771 "/>
        <path fill="none" stroke="rgb(0,0,0)" stroke-width="34" stroke-linejoin="round" stroke-linecap="round" d="M 7154,14778 L 7154,15498 7290,15498 7290,14778 7154,14778 Z "/>
        <path fill="none" stroke="rgb(0,0,0)" stroke-width="34" stroke-linejoin="round" stroke-linecap="round" d="M 7154,14888 L 7256,14778 7256,14778 "/>
        <path fill="none" stroke="rgb(0,0,0)" stroke-width="34" stroke-linejoin="round" stroke-linecap="round" d="M 7154,15024 L 7290,14888 7290,14888 "/>
        <path fill="none" stroke="rgb(0,0,0)" stroke-width="34" stroke-linejoin="round" stroke-linecap="round" d="M 7154,15159 L 7290,15024 7290,15024 "/>
        <path fill="none" stroke="rgb(0,0,0)" stroke-width="34" stroke-linejoin="round" stroke-linecap="round" d="M 7154,15303 L 7290,15167 7290,15167 "/>
        <path fill="none" stroke="rgb(0,0,0)" stroke-width="34" stroke-linejoin="round" stroke-linecap="round" d="M 7154,15447 L 7290,15303 7290,15303 "/>
        <path fill="none" stroke="rgb(0,0,0)" stroke-width="34" stroke-linejoin="round" stroke-linecap="round" d="M 7231,15498 L 7290,15447 7290,15447 "/>
        <path fill="none" stroke="rgb(0,0,0)" stroke-width="34" stroke-linejoin="round" stroke-linecap="round" d="M 6325,14795 L 6706,15049 7154,15142 7154,15142 "/>
        <path fill="none" stroke="rgb(0,0,0)" stroke-width="34" stroke-linejoin="round" stroke-linecap="round" d="M 7154,13771 L 6706,13864 6325,14118 6325,14118 "/>
        <path fill="none" stroke="rgb(0,0,0)" stroke-width="34" stroke-linejoin="round" stroke-linecap="round" d="M 10092,13771 L 10168,13771 10168,13771 "/>
        <path fill="none" stroke="rgb(0,0,0)" stroke-width="34" stroke-linejoin="round" stroke-linecap="round" d="M 11819,13085 L 14190,13085 14190,13085 "/>
        <path fill="none" stroke="rgb(0,0,0)" stroke-width="34" stroke-linejoin="round" stroke-linecap="round" d="M 11819,14456 L 13005,14456 13005,14456 "/>
        <path fill="none" stroke="rgb(0,0,0)" stroke-width="34" stroke-linejoin="round" stroke-linecap="round" d="M 11819,13085 L 11371,13178 10998,13432 10998,13432 "/>
        <path fill="none" stroke="rgb(0,0,0)" stroke-width="34" stroke-linejoin="round" stroke-linecap="round" d="M 10998,14118 L 11371,14363 11819,14456 11819,14456 "/>
        <path fill="none" stroke="rgb(0,0,0)" stroke-width="34" stroke-linejoin="round" stroke-linecap="round" d="M 15020,13432 L 14639,13178 14190,13085 14190,13085 "/>
        <path fill="none" stroke="rgb(0,0,0)" stroke-width="34" stroke-linejoin="round" stroke-linecap="round" d="M 15917,13771 L 17348,13771 17348,13771 "/>
        <path fill="none" stroke="rgb(0,0,0)" stroke-width="34" stroke-linejoin="round" stroke-linecap="round" d="M 6325,17902 L 6087,17724 5800,17606 5503,17563 5503,17563 "/>
        <path fill="none" stroke="rgb(0,0,0)" stroke-width="34" stroke-linejoin="round" stroke-linecap="round" d="M 5503,17563 L 5800,17521 6087,17411 6325,17225 6325,17225 "/>
        <path fill="none" stroke="rgb(0,0,0)" stroke-width="34" stroke-linejoin="round" stroke-linecap="round" d="M 5503,17563 L 4030,17563 4030,17563 "/>
        <path fill="none" stroke="rgb(0,0,0)" stroke-width="34" stroke-linejoin="round" stroke-linecap="round" d="M 15020,16539 L 15257,16725 15545,16844 15841,16878 15841,16878 "/>
        <path fill="none" stroke="rgb(0,0,0)" stroke-width="34" stroke-linejoin="round" stroke-linecap="round" d="M 15841,16878 L 15536,16920 15257,17039 15020,17225 15020,17225 "/>
        <path fill="none" stroke="rgb(0,0,0)" stroke-width="34" stroke-linejoin="round" stroke-linecap="round" d="M 10168,16878 L 10473,16844 10753,16725 10998,16539 10998,16539 "/>
        <path fill="none" stroke="rgb(0,0,0)" stroke-width="34" stroke-linejoin="round" stroke-linecap="round" d="M 10998,17225 L 10753,17039 10473,16920 10168,16878 10168,16878 "/>
        <path fill="none" stroke="rgb(0,0,0)" stroke-width="34" stroke-linejoin="round" stroke-linecap="round" d="M 7154,16878 L 10092,16878 10092,16878 "/>
        <path fill="none" stroke="rgb(0,0,0)" stroke-width="34" stroke-linejoin="round" stroke-linecap="round" d="M 7154,17885 L 7154,18613 7290,18613 7290,17885 7154,17885 Z "/>
        <path fill="none" stroke="rgb(0,0,0)" stroke-width="34" stroke-linejoin="round" stroke-linecap="round" d="M 7154,17995 L 7256,17885 7256,17885 "/>
        <path fill="none" stroke="rgb(0,0,0)" stroke-width="34" stroke-linejoin="round" stroke-linecap="round" d="M 7154,18131 L 7290,17995 7290,17995 "/>
        <path fill="none" stroke="rgb(0,0,0)" stroke-width="34" stroke-linejoin="round" stroke-linecap="round" d="M 7154,18275 L 7290,18139 7290,18139 "/>
        <path fill="none" stroke="rgb(0,0,0)" stroke-width="34" stroke-linejoin="round" stroke-linecap="round" d="M 7154,18410 L 7290,18275 7290,18275 "/>
        <path fill="none" stroke="rgb(0,0,0)" stroke-width="34" stroke-linejoin="round" stroke-linecap="round" d="M 7154,18554 L 7290,18410 7290,18410 "/>
        <path fill="none" stroke="rgb(0,0,0)" stroke-width="34" stroke-linejoin="round" stroke-linecap="round" d="M 7231,18613 L 7290,18554 7290,18554 "/>
        <path fill="none" stroke="rgb(0,0,0)" stroke-width="34" stroke-linejoin="round" stroke-linecap="round" d="M 6325,17902 L 6706,18165 7154,18249 7154,18249 "/>
        <path fill="none" stroke="rgb(0,0,0)" stroke-width="34" stroke-linejoin="round" stroke-linecap="round" d="M 7154,16878 L 6706,16971 6325,17225 6325,17225 "/>
        <path fill="none" stroke="rgb(0,0,0)" stroke-width="34" stroke-linejoin="round" stroke-linecap="round" d="M 10092,16878 L 10168,16878 10168,16878 "/>
        <path fill="none" stroke="rgb(0,0,0)" stroke-width="34" stroke-linejoin="round" stroke-linecap="round" d="M 11819,16192 L 14190,16192 14190,16192 "/>
        <path fill="none" stroke="rgb(0,0,0)" stroke-width="34" stroke-linejoin="round" stroke-linecap="round" d="M 11819,17563 L 14190,17563 14190,17563 "/>
        <path fill="none" stroke="rgb(0,0,0)" stroke-width="34" stroke-linejoin="round" stroke-linecap="round" d="M 11819,16192 L 11371,16285 10998,16539 10998,16539 "/>
        <path fill="none" stroke="rgb(0,0,0)" stroke-width="34" stroke-linejoin="round" stroke-linecap="round" d="M 10998,17225 L 11371,17479 11819,17563 11819,17563 "/>
        <path fill="none" stroke="rgb(0,0,0)" stroke-width="34" stroke-linejoin="round" stroke-linecap="round" d="M 15020,16539 L 14639,16285 14190,16192 14190,16192 "/>
        <path fill="none" stroke="rgb(0,0,0)" stroke-width="34" stroke-linejoin="round" stroke-linecap="round" d="M 14190,17563 L 14639,17479 15020,17225 15020,17225 "/>
        <path fill="none" stroke="rgb(0,0,0)" stroke-width="34" stroke-linejoin="round" stroke-linecap="round" d="M 15917,16878 L 17348,16878 17348,16878 "/>
        <path fill="none" stroke="rgb(0,0,0)" stroke-width="34" stroke-linejoin="round" stroke-linecap="round" d="M 15917,16878 L 15841,16878 15841,16878 "/>
        <path fill="none" stroke="rgb(0,0,0)" stroke-width="34" stroke-linejoin="round" stroke-linecap="round" d="M 13987,9487 L 13005,9487 13005,10469 13987,10469 13987,9487 Z "/>
        <path fill="none" stroke="rgb(0,0,0)" stroke-width="34" stroke-linejoin="round" stroke-linecap="round" d="M 13987,13965 L 13005,13965 13005,14947 13987,14947 13987,13965 Z "/>
        <path fill="none" stroke="rgb(0,0,0)" stroke-width="34" stroke-linejoin="round" stroke-linecap="round" d="M 18330,16387 L 17348,16387 17348,17369 18330,17369 18330,16387 Z "/>
        <path fill="none" stroke="rgb(0,0,0)" stroke-width="34" stroke-linejoin="round" stroke-linecap="round" d="M 13005,9487 L 13987,10469 13987,10469 "/>
        <path fill="none" stroke="rgb(0,0,0)" stroke-width="34" stroke-linejoin="round" stroke-linecap="round" d="M 13987,9487 L 13005,10469 13005,10469 "/>
        <path fill="none" stroke="rgb(0,0,0)" stroke-width="34" stroke-linejoin="round" stroke-linecap="round" d="M 13987,13965 L 13005,14947 13005,14947 "/>
        <path fill="none" stroke="rgb(0,0,0)" stroke-width="34" stroke-linejoin="round" stroke-linecap="round" d="M 13005,13965 L 13987,14947 13987,14947 "/>
        <path fill="none" stroke="rgb(0,0,0)" stroke-width="34" stroke-linejoin="round" stroke-linecap="round" d="M 18322,16387 L 17348,17369 17348,17369 "/>
        <path fill="none" stroke="rgb(0,0,0)" stroke-width="34" stroke-linejoin="round" stroke-linecap="round" d="M 17348,16387 L 18330,17369 18330,17369 "/>
       </g>
      </g>
     </g>
    </g>
   </g>
  </g>
 </g>
</svg>