<?xml version='1.0' encoding='UTF-8'?>
<!DOCTYPE svg PUBLIC "-//W3C//DTD SVG 1.1//EN" "http://www.w3.org/Graphics/SVG/1.1/DTD/svg11.dtd">
<svg xmlns="http://www.w3.org/2000/svg" xmlns:ooo="http://xml.openoffice.org/svg/export" xmlns:xlink="http://www.w3.org/1999/xlink" xmlns:presentation="http://sun.com/xmlns/staroffice/presentation" xmlns:smil="http://www.w3.org/2001/SMIL20/" xmlns:anim="urn:oasis:names:tc:opendocument:xmlns:animation:1.0" xmlns:svg="urn:oasis:names:tc:opendocument:xmlns:svg-compatible:1.0" version="1.2" width="144.640mm" height="32.810mm" viewBox="3563 12329 14464 3281" preserveAspectRatio="xMidYMid" fill-rule="evenodd" stroke-width="28.222" stroke-linejoin="round" xml:space="preserve">
 <defs class="ClipPathGroup">
  <clipPath id="presentation_clip_path" clipPathUnits="userSpaceOnUse">
   <rect x="0" y="0" width="21590" height="27940"/>
  </clipPath>
  <clipPath id="presentation_clip_path_shrink" clipPathUnits="userSpaceOnUse">
   <rect x="21" y="27" width="21547" height="27885"/>
  </clipPath>
 </defs>
 <defs>
  </defs>
 <defs>
  </defs>
 <defs>
  </defs>
 <defs>
  </defs>
 <defs class="TextShapeIndex">
  <g ooo:slide="id1" ooo:id-list="id3"/>
 </defs>
 <defs class="EmbeddedBulletChars">
  <g id="bullet-char-template-57356" transform="scale(0.00048828125,-0.00048828125)">
   <path d="M 580,1141 L 1163,571 580,0 -4,571 580,1141 Z"/>
  </g>
  <g id="bullet-char-template-57354" transform="scale(0.00048828125,-0.00048828125)">
   <path d="M 8,1128 L 1137,1128 1137,0 8,0 8,1128 Z"/>
  </g>
  <g id="bullet-char-template-10146" transform="scale(0.00048828125,-0.00048828125)">
   <path d="M 174,0 L 602,739 174,1481 1456,739 174,0 Z M 1358,739 L 309,1346 659,739 1358,739 Z"/>
  </g>
  <g id="bullet-char-template-10132" transform="scale(0.00048828125,-0.00048828125)">
   <path d="M 2015,739 L 1276,0 717,0 1260,543 174,543 174,936 1260,936 717,1481 1274,1481 2015,739 Z"/>
  </g>
  <g id="bullet-char-template-10007" transform="scale(0.00048828125,-0.00048828125)">
   <path d="M 0,-2 C -7,14 -16,27 -25,37 L 356,567 C 262,823 215,952 215,954 215,979 228,992 255,992 264,992 276,990 289,987 310,991 331,999 354,1012 L 381,999 492,748 772,1049 836,1024 860,1049 C 881,1039 901,1025 922,1006 886,937 835,863 770,784 769,783 710,716 594,584 L 774,223 C 774,196 753,168 711,139 L 727,119 C 717,90 699,76 672,76 641,76 570,178 457,381 L 164,-76 C 142,-110 111,-127 72,-127 30,-127 9,-110 8,-76 1,-67 -2,-52 -2,-32 -2,-23 -1,-13 0,-2 Z"/>
  </g>
  <g id="bullet-char-template-10004" transform="scale(0.00048828125,-0.00048828125)">
   <path d="M 285,-33 C 182,-33 111,30 74,156 52,228 41,333 41,471 41,549 55,616 82,672 116,743 169,778 240,778 293,778 328,747 346,684 L 369,508 C 377,444 397,411 428,410 L 1163,1116 C 1174,1127 1196,1133 1229,1133 1271,1133 1292,1118 1292,1087 L 1292,965 C 1292,929 1282,901 1262,881 L 442,47 C 390,-6 338,-33 285,-33 Z"/>
  </g>
  <g id="bullet-char-template-9679" transform="scale(0.00048828125,-0.00048828125)">
   <path d="M 813,0 C 632,0 489,54 383,161 276,268 223,411 223,592 223,773 276,916 383,1023 489,1130 632,1184 813,1184 992,1184 1136,1130 1245,1023 1353,916 1407,772 1407,592 1407,412 1353,268 1245,161 1136,54 992,0 813,0 Z"/>
  </g>
  <g id="bullet-char-template-8226" transform="scale(0.00048828125,-0.00048828125)">
   <path d="M 346,457 C 273,457 209,483 155,535 101,586 74,649 74,723 74,796 101,859 155,911 209,963 273,989 346,989 419,989 480,963 531,910 582,859 608,796 608,723 608,648 583,586 532,535 482,483 420,457 346,457 Z"/>
  </g>
  <g id="bullet-char-template-8211" transform="scale(0.00048828125,-0.00048828125)">
   <path d="M -4,459 L 1135,459 1135,606 -4,606 -4,459 Z"/>
  </g>
  <g id="bullet-char-template-61548" transform="scale(0.00048828125,-0.00048828125)">
   <path d="M 173,740 C 173,903 231,1043 346,1159 462,1274 601,1332 765,1332 928,1332 1067,1274 1183,1159 1299,1043 1357,903 1357,740 1357,577 1299,437 1183,322 1067,206 928,148 765,148 601,148 462,206 346,322 231,437 173,577 173,740 Z"/>
  </g>
 </defs>
 <g>
  <g id="id2" class="Master_Slide">
   <g id="bg-id2" class="Background"/>
   <g id="bo-id2" class="BackgroundObjects"/>
  </g>
 </g>
 <g class="SlideGroup">
  <g>
   <g id="container-id1">
    <g id="id1" class="Slide" clip-path="url(#presentation_clip_path)">
     <g class="Page">
      <g class="Graphic">
       <g id="id3">
        <rect class="BoundingBox" stroke="none" fill="none" x="3563" y="12329" width="14464" height="3281"/>
        <path fill="none" stroke="rgb(0,0,0)" stroke-width="18" stroke-linejoin="round" stroke-linecap="round" d="M 3749,12479 L 3642,12769 3749,13059 "/>
        <path fill="none" stroke="rgb(0,0,0)" stroke-width="18" stroke-linejoin="round" stroke-linecap="round" d="M 4286,12479 L 4286,13059 "/>
        <path fill="none" stroke="rgb(0,0,0)" stroke-width="18" stroke-linejoin="round" stroke-linecap="round" d="M 4855,12479 L 4962,12769 4855,13059 "/>
        <path fill="none" stroke="rgb(0,0,0)" stroke-width="18" stroke-linejoin="round" stroke-linecap="round" d="M 5598,12479 L 5491,12769 5598,13059 "/>
        <path fill="none" stroke="rgb(0,0,0)" stroke-width="18" stroke-linejoin="round" stroke-linecap="round" d="M 7404,12479 L 7404,13059 "/>
        <path fill="none" stroke="rgb(0,0,0)" stroke-width="18" stroke-linejoin="round" stroke-linecap="round" d="M 8147,12479 L 8254,12769 8147,13059 "/>
        <path fill="none" stroke="rgb(0,0,0)" stroke-width="18" stroke-linejoin="round" stroke-linecap="round" d="M 8417,12479 L 8310,12769 8417,13059 "/>
        <path fill="none" stroke="rgb(0,0,0)" stroke-width="18" stroke-linejoin="round" stroke-linecap="round" d="M 10223,12479 L 10223,13059 "/>
        <path fill="none" stroke="rgb(0,0,0)" stroke-width="18" stroke-linejoin="round" stroke-linecap="round" d="M 10966,12479 L 11073,12769 10966,13059 "/>
        <path fill="none" stroke="rgb(0,0,0)" stroke-width="18" stroke-linejoin="round" stroke-linecap="round" d="M 11904,12479 L 11797,12769 11904,13059 "/>
        <path fill="none" stroke="rgb(0,0,0)" stroke-width="18" stroke-linejoin="round" stroke-linecap="round" d="M 13702,12479 L 13702,13059 "/>
        <path fill="none" stroke="rgb(0,0,0)" stroke-width="18" stroke-linejoin="round" stroke-linecap="round" d="M 14445,12479 L 14552,12769 14445,13059 "/>
        <path fill="none" stroke="rgb(0,0,0)" stroke-width="18" stroke-linejoin="round" stroke-linecap="round" d="M 14715,12479 L 14608,12769 14715,13059 "/>
        <path fill="none" stroke="rgb(0,0,0)" stroke-width="18" stroke-linejoin="round" stroke-linecap="round" d="M 16513,12479 L 16513,13059 "/>
        <path fill="none" stroke="rgb(0,0,0)" stroke-width="18" stroke-linejoin="round" stroke-linecap="round" d="M 17256,12479 L 17363,12769 17256,13059 "/>
        <path fill="none" stroke="rgb(0,0,0)" stroke-width="18" stroke-linejoin="round" stroke-linecap="round" d="M 4129,13306 L 4022,13596 4129,13886 "/>
        <path fill="none" stroke="rgb(0,0,0)" stroke-width="18" stroke-linejoin="round" stroke-linecap="round" d="M 5934,13306 L 5934,13886 "/>
        <path fill="none" stroke="rgb(0,0,0)" stroke-width="18" stroke-linejoin="round" stroke-linecap="round" d="M 6677,13306 L 6784,13596 6677,13886 "/>
        <path fill="none" stroke="rgb(0,0,0)" stroke-width="18" stroke-linejoin="round" stroke-linecap="round" d="M 6947,13306 L 6841,13596 6947,13886 "/>
        <path fill="none" stroke="rgb(0,0,0)" stroke-width="18" stroke-linejoin="round" stroke-linecap="round" d="M 7682,13306 L 7682,13886 "/>
        <path fill="none" stroke="rgb(0,0,0)" stroke-width="18" stroke-linejoin="round" stroke-linecap="round" d="M 9496,13306 L 9603,13596 9496,13886 "/>
        <path fill="none" stroke="rgb(0,0,0)" stroke-width="18" stroke-linejoin="round" stroke-linecap="round" d="M 10247,13306 L 10140,13596 10247,13886 "/>
        <path fill="none" stroke="rgb(0,0,0)" stroke-width="18" stroke-linejoin="round" stroke-linecap="round" d="M 12045,13306 L 12045,13886 "/>
        <path fill="none" stroke="rgb(0,0,0)" stroke-width="18" stroke-linejoin="round" stroke-linecap="round" d="M 12788,13306 L 12895,13596 12788,13886 "/>
        <path fill="none" stroke="rgb(0,0,0)" stroke-width="18" stroke-linejoin="round" stroke-linecap="round" d="M 13058,13306 L 12951,13596 13058,13886 "/>
        <path fill="none" stroke="rgb(0,0,0)" stroke-width="18" stroke-linejoin="round" stroke-linecap="round" d="M 13793,13306 L 13793,13886 "/>
        <path fill="none" stroke="rgb(0,0,0)" stroke-width="18" stroke-linejoin="round" stroke-linecap="round" d="M 15599,13306 L 15706,13596 15599,13886 "/>
        <path fill="none" stroke="rgb(0,0,0)" stroke-width="18" stroke-linejoin="round" stroke-linecap="round" d="M 4129,14133 L 4022,14423 4129,14713 "/>
        <path fill="none" stroke="rgb(0,0,0)" stroke-width="18" stroke-linejoin="round" stroke-linecap="round" d="M 4863,14133 L 4863,14713 "/>
        <path fill="none" stroke="rgb(0,0,0)" stroke-width="18" stroke-linejoin="round" stroke-linecap="round" d="M 5168,14133 L 5061,14423 5168,14713 "/>
        <path fill="none" stroke="rgb(0,0,0)" stroke-width="18" stroke-linejoin="round" stroke-linecap="round" d="M 6974,14133 L 6974,14713 "/>
        <path fill="none" stroke="rgb(0,0,0)" stroke-width="18" stroke-linejoin="round" stroke-linecap="round" d="M 7717,14133 L 7824,14423 7717,14713 "/>
        <path fill="none" stroke="rgb(0,0,0)" stroke-width="18" stroke-linejoin="round" stroke-linecap="round" d="M 7880,14133 L 7880,14713 "/>
        <path fill="none" stroke="rgb(0,0,0)" stroke-width="18" stroke-linejoin="round" stroke-linecap="round" d="M 9695,14133 L 9802,14423 9695,14713 "/>
        <path fill="none" stroke="rgb(0,0,0)" stroke-width="18" stroke-linejoin="round" stroke-linecap="round" d="M 10446,14133 L 10339,14423 10446,14713 "/>
        <path fill="none" stroke="rgb(0,0,0)" stroke-width="18" stroke-linejoin="round" stroke-linecap="round" d="M 12244,14133 L 12244,14713 "/>
        <path fill="none" stroke="rgb(0,0,0)" stroke-width="18" stroke-linejoin="round" stroke-linecap="round" d="M 12987,14133 L 13094,14423 12987,14713 "/>
        <path fill="none" stroke="rgb(0,0,0)" stroke-width="18" stroke-linejoin="round" stroke-linecap="round" d="M 13150,14133 L 13150,14713 "/>
        <path fill="none" stroke="rgb(0,0,0)" stroke-width="18" stroke-linejoin="round" stroke-linecap="round" d="M 14957,14133 L 15064,14423 14957,14713 "/>
        <g class="OutlinedText"><path d="M 636,-399 L 636,-442 C 462,-355 327,-228 230,-60 133,107 84,291 84,490 84,697 135,886 237,1057 339,1227 472,1349 636,1422 L 636,1380 C 554,1335 487,1273 434,1194 381,1115 342,1016 316,895 290,774 277,647 277,516 277,367 289,233 313,113 337,-7 374,-106 423,-185 472,-264 543,-336 636,-399 Z " transform="translate(4904,14545) scale(0.351,-0.351)" fill="rgb(0,0,0)" stroke="none"/></g><g class="OutlinedText"><path d="M 45,1380 L 45,1422 C 219,1336 355,1209 452,1042 549,874 597,690 597,491 597,284 546,95 444,-76 342,-247 209,-369 45,-442 L 45,-399 C 128,-354 195,-292 248,-213 301,-134 340,-35 366,86 391,207 404,333 404,465 404,613 392,747 369,868 345,988 308,1088 259,1167 209,1246 138,1317 45,1380 Z " transform="translate(15111,14545) scale(0.351,-0.351)" fill="rgb(0,0,0)" stroke="none"/></g><path fill="none" stroke="rgb(0,0,0)" stroke-width="18" stroke-linejoin="round" stroke-linecap="round" d="M 4129,14960 L 4022,15249 4129,15539 "/>
        <path fill="none" stroke="rgb(0,0,0)" stroke-width="18" stroke-linejoin="round" stroke-linecap="round" d="M 4863,14960 L 4863,15539 "/>
        <path fill="none" stroke="rgb(0,0,0)" stroke-width="18" stroke-linejoin="round" stroke-linecap="round" d="M 5606,14960 L 5713,15249 5606,15539 "/>
        <text class="SVGTextShape"><tspan class="TextParagraph"><tspan class="TextPosition" x="5394" y="15496"><tspan font-family="Times New Roman, serif" font-size="247px" font-weight="400" lengthAdjust="spacingAndGlyphs" textLength="127" fill="rgb(0,0,0)" stroke="none" style="white-space: pre">0</tspan></tspan></tspan></text>
        <text class="SVGTextShape"><tspan class="TextParagraph"><tspan class="TextPosition" x="4610" y="15496"><tspan font-family="Times New Roman, serif" font-size="247px" font-weight="400" lengthAdjust="spacingAndGlyphs" textLength="127" fill="rgb(0,0,0)" stroke="none" style="white-space: pre">0</tspan></tspan></tspan></text>
        <text class="SVGTextShape"><tspan class="TextParagraph"><tspan class="TextPosition" x="13593" y="14670"><tspan font-family="Times New Roman, serif" font-size="247px" font-weight="400" lengthAdjust="spacingAndGlyphs" textLength="254" fill="rgb(0,0,0)" stroke="none" style="white-space: pre">90</tspan></tspan></tspan></text>
        <text class="SVGTextShape"><tspan class="TextParagraph"><tspan class="TextPosition" x="12775" y="14670"><tspan font-family="Times New Roman, serif" font-size="247px" font-weight="400" lengthAdjust="spacingAndGlyphs" textLength="127" fill="rgb(0,0,0)" stroke="none" style="white-space: pre">0</tspan></tspan></tspan></text>
        <text class="SVGTextShape"><tspan class="TextParagraph"><tspan class="TextPosition" x="10839" y="14670"><tspan font-family="Times New Roman, serif" font-size="247px" font-weight="400" lengthAdjust="spacingAndGlyphs" textLength="254" fill="rgb(0,0,0)" stroke="none" style="white-space: pre">90</tspan></tspan></tspan></text>
        <text class="SVGTextShape"><tspan class="TextParagraph"><tspan class="TextPosition" x="8323" y="14670"><tspan font-family="Times New Roman, serif" font-size="247px" font-weight="400" lengthAdjust="spacingAndGlyphs" textLength="254" fill="rgb(0,0,0)" stroke="none" style="white-space: pre">90</tspan></tspan></tspan></text>
        <text class="SVGTextShape"><tspan class="TextParagraph"><tspan class="TextPosition" x="7505" y="14670"><tspan font-family="Times New Roman, serif" font-size="247px" font-weight="400" lengthAdjust="spacingAndGlyphs" textLength="127" fill="rgb(0,0,0)" stroke="none" style="white-space: pre">0</tspan></tspan></tspan></text>
        <text class="SVGTextShape"><tspan class="TextParagraph"><tspan class="TextPosition" x="5562" y="14670"><tspan font-family="Times New Roman, serif" font-size="247px" font-weight="400" lengthAdjust="spacingAndGlyphs" textLength="254" fill="rgb(0,0,0)" stroke="none" style="white-space: pre">90</tspan></tspan></tspan></text>
        <text class="SVGTextShape"><tspan class="TextParagraph"><tspan class="TextPosition" x="4610" y="14670"><tspan font-family="Times New Roman, serif" font-size="247px" font-weight="400" lengthAdjust="spacingAndGlyphs" textLength="127" fill="rgb(0,0,0)" stroke="none" style="white-space: pre">0</tspan></tspan></tspan></text>
        <text class="SVGTextShape"><tspan class="TextParagraph"><tspan class="TextPosition" x="14236" y="13843"><tspan font-family="Times New Roman, serif" font-size="247px" font-weight="400" lengthAdjust="spacingAndGlyphs" textLength="254" fill="rgb(0,0,0)" stroke="none" style="white-space: pre">90</tspan></tspan></tspan></text>
        <text class="SVGTextShape"><tspan class="TextParagraph"><tspan class="TextPosition" x="13540" y="13843"><tspan font-family="Times New Roman, serif" font-size="247px" font-weight="400" lengthAdjust="spacingAndGlyphs" textLength="127" fill="rgb(0,0,0)" stroke="none" style="white-space: pre">0</tspan></tspan></tspan></text>
        <text class="SVGTextShape"><tspan class="TextParagraph"><tspan class="TextPosition" x="12577" y="13843"><tspan font-family="Times New Roman, serif" font-size="247px" font-weight="400" lengthAdjust="spacingAndGlyphs" textLength="127" fill="rgb(0,0,0)" stroke="none" style="white-space: pre">0</tspan></tspan></tspan></text>
        <text class="SVGTextShape"><tspan class="TextParagraph"><tspan class="TextPosition" x="10641" y="13843"><tspan font-family="Times New Roman, serif" font-size="247px" font-weight="400" lengthAdjust="spacingAndGlyphs" textLength="254" fill="rgb(0,0,0)" stroke="none" style="white-space: pre">90</tspan></tspan></tspan></text>
        <text class="SVGTextShape"><tspan class="TextParagraph"><tspan class="TextPosition" x="8125" y="13843"><tspan font-family="Times New Roman, serif" font-size="247px" font-weight="400" lengthAdjust="spacingAndGlyphs" textLength="254" fill="rgb(0,0,0)" stroke="none" style="white-space: pre">90</tspan></tspan></tspan></text>
        <text class="SVGTextShape"><tspan class="TextParagraph"><tspan class="TextPosition" x="7429" y="13843"><tspan font-family="Times New Roman, serif" font-size="247px" font-weight="400" lengthAdjust="spacingAndGlyphs" textLength="127" fill="rgb(0,0,0)" stroke="none" style="white-space: pre">0</tspan></tspan></tspan></text>
        <text class="SVGTextShape"><tspan class="TextParagraph"><tspan class="TextPosition" x="6466" y="13843"><tspan font-family="Times New Roman, serif" font-size="247px" font-weight="400" lengthAdjust="spacingAndGlyphs" textLength="127" fill="rgb(0,0,0)" stroke="none" style="white-space: pre">0</tspan></tspan></tspan></text>
        <text class="SVGTextShape"><tspan class="TextParagraph"><tspan class="TextPosition" x="4522" y="13843"><tspan font-family="Times New Roman, serif" font-size="247px" font-weight="400" lengthAdjust="spacingAndGlyphs" textLength="254" fill="rgb(0,0,0)" stroke="none" style="white-space: pre">90</tspan></tspan></tspan></text>
        <text class="SVGTextShape"><tspan class="TextParagraph"><tspan class="TextPosition" x="17406" y="12589"><tspan font-family="Times New Roman, serif" font-size="247px" font-weight="400" lengthAdjust="spacingAndGlyphs" textLength="127" fill="rgb(0,0,0)" stroke="none" style="white-space: pre">*</tspan></tspan></tspan></text>
        <text class="SVGTextShape"><tspan class="TextParagraph"><tspan class="TextPosition" x="17045" y="13016"><tspan font-family="Times New Roman, serif" font-size="247px" font-weight="400" lengthAdjust="spacingAndGlyphs" textLength="127" fill="rgb(0,0,0)" stroke="none" style="white-space: pre">0</tspan></tspan></tspan></text>
        <text class="SVGTextShape"><tspan class="TextParagraph"><tspan class="TextPosition" x="15109" y="13016"><tspan font-family="Times New Roman, serif" font-size="247px" font-weight="400" lengthAdjust="spacingAndGlyphs" textLength="254" fill="rgb(0,0,0)" stroke="none" style="white-space: pre">90</tspan></tspan></tspan></text>
        <text class="SVGTextShape"><tspan class="TextParagraph"><tspan class="TextPosition" x="14234" y="13016"><tspan font-family="Times New Roman, serif" font-size="247px" font-weight="400" lengthAdjust="spacingAndGlyphs" textLength="127" fill="rgb(0,0,0)" stroke="none" style="white-space: pre">0</tspan></tspan></tspan></text>
        <text class="SVGTextShape"><tspan class="TextParagraph"><tspan class="TextPosition" x="12298" y="13016"><tspan font-family="Times New Roman, serif" font-size="247px" font-weight="400" lengthAdjust="spacingAndGlyphs" textLength="254" fill="rgb(0,0,0)" stroke="none" style="white-space: pre">90</tspan></tspan></tspan></text>
        <text class="SVGTextShape"><tspan class="TextParagraph"><tspan class="TextPosition" x="11116" y="12589"><tspan font-family="Times New Roman, serif" font-size="247px" font-weight="400" lengthAdjust="spacingAndGlyphs" textLength="127" fill="rgb(0,0,0)" stroke="none" style="white-space: pre">*</tspan></tspan></tspan></text>
        <text class="SVGTextShape"><tspan class="TextParagraph"><tspan class="TextPosition" x="10754" y="13016"><tspan font-family="Times New Roman, serif" font-size="247px" font-weight="400" lengthAdjust="spacingAndGlyphs" textLength="127" fill="rgb(0,0,0)" stroke="none" style="white-space: pre">0</tspan></tspan></tspan></text>
        <text class="SVGTextShape"><tspan class="TextParagraph"><tspan class="TextPosition" x="8811" y="13016"><tspan font-family="Times New Roman, serif" font-size="247px" font-weight="400" lengthAdjust="spacingAndGlyphs" textLength="254" fill="rgb(0,0,0)" stroke="none" style="white-space: pre">90</tspan></tspan></tspan></text>
        <text class="SVGTextShape"><tspan class="TextParagraph"><tspan class="TextPosition" x="7935" y="13016"><tspan font-family="Times New Roman, serif" font-size="247px" font-weight="400" lengthAdjust="spacingAndGlyphs" textLength="127" fill="rgb(0,0,0)" stroke="none" style="white-space: pre">0</tspan></tspan></tspan></text>
        <text class="SVGTextShape"><tspan class="TextParagraph"><tspan class="TextPosition" x="5992" y="13016"><tspan font-family="Times New Roman, serif" font-size="247px" font-weight="400" lengthAdjust="spacingAndGlyphs" textLength="254" fill="rgb(0,0,0)" stroke="none" style="white-space: pre">90</tspan></tspan></tspan></text>
        <text class="SVGTextShape"><tspan class="TextParagraph"><tspan class="TextPosition" x="5238" y="15373"><tspan font-family="Times New Roman, serif" font-size="494px" font-style="italic" font-weight="400" lengthAdjust="spacingAndGlyphs" textLength="135" fill="rgb(0,0,0)" stroke="none" style="white-space: pre">t</tspan></tspan></tspan></text>
        <text class="SVGTextShape"><tspan class="TextParagraph"><tspan class="TextPosition" x="4454" y="15373"><tspan font-family="Times New Roman, serif" font-size="494px" font-style="italic" font-weight="400" lengthAdjust="spacingAndGlyphs" textLength="135" fill="rgb(0,0,0)" stroke="none" style="white-space: pre">t</tspan></tspan></tspan></text>
        <text class="SVGTextShape"><tspan class="TextParagraph"><tspan class="TextPosition" x="14670" y="14546"><tspan font-family="Times New Roman, serif" font-size="494px" font-style="italic" font-weight="400" lengthAdjust="spacingAndGlyphs" textLength="216" fill="rgb(0,0,0)" stroke="none" style="white-space: pre">k</tspan></tspan></tspan></text>
        <text class="SVGTextShape"><tspan class="TextParagraph"><tspan class="TextPosition" x="13239" y="14546"><tspan font-family="Times New Roman, serif" font-size="494px" font-style="italic" font-weight="400" lengthAdjust="spacingAndGlyphs" textLength="352" fill="rgb(0,0,0)" stroke="none" style="white-space: pre">m</tspan></tspan></tspan></text>
        <text class="SVGTextShape"><tspan class="TextParagraph"><tspan class="TextPosition" x="12618" y="14546"><tspan font-family="Times New Roman, serif" font-size="494px" font-style="italic" font-weight="400" lengthAdjust="spacingAndGlyphs" textLength="135" fill="rgb(0,0,0)" stroke="none" style="white-space: pre">t</tspan></tspan></tspan></text>
        <text class="SVGTextShape"><tspan class="TextParagraph"><tspan class="TextPosition" x="11916" y="14546"><tspan font-family="Times New Roman, serif" font-size="494px" font-style="italic" font-weight="400" lengthAdjust="spacingAndGlyphs" textLength="216" fill="rgb(0,0,0)" stroke="none" style="white-space: pre">k</tspan></tspan></tspan></text>
        <text class="SVGTextShape"><tspan class="TextParagraph"><tspan class="TextPosition" x="10485" y="14546"><tspan font-family="Times New Roman, serif" font-size="494px" font-style="italic" font-weight="400" lengthAdjust="spacingAndGlyphs" textLength="352" fill="rgb(0,0,0)" stroke="none" style="white-space: pre">m</tspan></tspan></tspan></text>
        <text class="SVGTextShape"><tspan class="TextParagraph"><tspan class="TextPosition" x="9408" y="14546"><tspan font-family="Times New Roman, serif" font-size="494px" font-style="italic" font-weight="400" lengthAdjust="spacingAndGlyphs" textLength="216" fill="rgb(0,0,0)" stroke="none" style="white-space: pre">k</tspan></tspan></tspan></text>
        <text class="SVGTextShape"><tspan class="TextParagraph"><tspan class="TextPosition" x="7969" y="14546"><tspan font-family="Times New Roman, serif" font-size="494px" font-style="italic" font-weight="400" lengthAdjust="spacingAndGlyphs" textLength="352" fill="rgb(0,0,0)" stroke="none" style="white-space: pre">m</tspan></tspan></tspan></text>
        <text class="SVGTextShape"><tspan class="TextParagraph"><tspan class="TextPosition" x="7349" y="14546"><tspan font-family="Times New Roman, serif" font-size="494px" font-style="italic" font-weight="400" lengthAdjust="spacingAndGlyphs" textLength="135" fill="rgb(0,0,0)" stroke="none" style="white-space: pre">t</tspan></tspan></tspan></text>
        <text class="SVGTextShape"><tspan class="TextParagraph"><tspan class="TextPosition" x="6647" y="14546"><tspan font-family="Times New Roman, serif" font-size="494px" font-style="italic" font-weight="400" lengthAdjust="spacingAndGlyphs" textLength="216" fill="rgb(0,0,0)" stroke="none" style="white-space: pre">k</tspan></tspan></tspan></text>
        <text class="SVGTextShape"><tspan class="TextParagraph"><tspan class="TextPosition" x="5208" y="14546"><tspan font-family="Times New Roman, serif" font-size="494px" font-style="italic" font-weight="400" lengthAdjust="spacingAndGlyphs" textLength="352" fill="rgb(0,0,0)" stroke="none" style="white-space: pre">m</tspan></tspan></tspan></text>
        <text class="SVGTextShape"><tspan class="TextParagraph"><tspan class="TextPosition" x="4454" y="14546"><tspan font-family="Times New Roman, serif" font-size="494px" font-style="italic" font-weight="400" lengthAdjust="spacingAndGlyphs" textLength="135" fill="rgb(0,0,0)" stroke="none" style="white-space: pre">t</tspan></tspan></tspan></text>
        <text class="SVGTextShape"><tspan class="TextParagraph"><tspan class="TextPosition" x="15313" y="13719"><tspan font-family="Times New Roman, serif" font-size="494px" font-style="italic" font-weight="400" lengthAdjust="spacingAndGlyphs" textLength="216" fill="rgb(0,0,0)" stroke="none" style="white-space: pre">k</tspan></tspan></tspan></text>
        <text class="SVGTextShape"><tspan class="TextParagraph"><tspan class="TextPosition" x="13882" y="13719"><tspan font-family="Times New Roman, serif" font-size="494px" font-style="italic" font-weight="400" lengthAdjust="spacingAndGlyphs" textLength="352" fill="rgb(0,0,0)" stroke="none" style="white-space: pre">m</tspan></tspan></tspan></text>
        <text class="SVGTextShape"><tspan class="TextParagraph"><tspan class="TextPosition" x="13384" y="13719"><tspan font-family="Times New Roman, serif" font-size="494px" font-style="italic" font-weight="400" lengthAdjust="spacingAndGlyphs" textLength="135" fill="rgb(0,0,0)" stroke="none" style="white-space: pre">t</tspan></tspan></tspan></text>
        <text class="SVGTextShape"><tspan class="TextParagraph"><tspan class="TextPosition" x="12420" y="13719"><tspan font-family="Times New Roman, serif" font-size="494px" font-style="italic" font-weight="400" lengthAdjust="spacingAndGlyphs" textLength="135" fill="rgb(0,0,0)" stroke="none" style="white-space: pre">t</tspan></tspan></tspan></text>
        <text class="SVGTextShape"><tspan class="TextParagraph"><tspan class="TextPosition" x="11718" y="13719"><tspan font-family="Times New Roman, serif" font-size="494px" font-style="italic" font-weight="400" lengthAdjust="spacingAndGlyphs" textLength="216" fill="rgb(0,0,0)" stroke="none" style="white-space: pre">k</tspan></tspan></tspan></text>
        <text class="SVGTextShape"><tspan class="TextParagraph"><tspan class="TextPosition" x="10287" y="13719"><tspan font-family="Times New Roman, serif" font-size="494px" font-style="italic" font-weight="400" lengthAdjust="spacingAndGlyphs" textLength="352" fill="rgb(0,0,0)" stroke="none" style="white-space: pre">m</tspan></tspan></tspan></text>
        <text class="SVGTextShape"><tspan class="TextParagraph"><tspan class="TextPosition" x="9210" y="13719"><tspan font-family="Times New Roman, serif" font-size="494px" font-style="italic" font-weight="400" lengthAdjust="spacingAndGlyphs" textLength="216" fill="rgb(0,0,0)" stroke="none" style="white-space: pre">k</tspan></tspan></tspan></text>
        <text class="SVGTextShape"><tspan class="TextParagraph"><tspan class="TextPosition" x="7771" y="13719"><tspan font-family="Times New Roman, serif" font-size="494px" font-style="italic" font-weight="400" lengthAdjust="spacingAndGlyphs" textLength="352" fill="rgb(0,0,0)" stroke="none" style="white-space: pre">m</tspan></tspan></tspan></text>
        <text class="SVGTextShape"><tspan class="TextParagraph"><tspan class="TextPosition" x="7273" y="13719"><tspan font-family="Times New Roman, serif" font-size="494px" font-style="italic" font-weight="400" lengthAdjust="spacingAndGlyphs" textLength="135" fill="rgb(0,0,0)" stroke="none" style="white-space: pre">t</tspan></tspan></tspan></text>
        <text class="SVGTextShape"><tspan class="TextParagraph"><tspan class="TextPosition" x="6309" y="13719"><tspan font-family="Times New Roman, serif" font-size="494px" font-style="italic" font-weight="400" lengthAdjust="spacingAndGlyphs" textLength="135" fill="rgb(0,0,0)" stroke="none" style="white-space: pre">t</tspan></tspan></tspan></text>
        <text class="SVGTextShape"><tspan class="TextParagraph"><tspan class="TextPosition" x="5607" y="13719"><tspan font-family="Times New Roman, serif" font-size="494px" font-style="italic" font-weight="400" lengthAdjust="spacingAndGlyphs" textLength="216" fill="rgb(0,0,0)" stroke="none" style="white-space: pre">k</tspan></tspan></tspan></text>
        <text class="SVGTextShape"><tspan class="TextParagraph"><tspan class="TextPosition" x="4168" y="13719"><tspan font-family="Times New Roman, serif" font-size="494px" font-style="italic" font-weight="400" lengthAdjust="spacingAndGlyphs" textLength="352" fill="rgb(0,0,0)" stroke="none" style="white-space: pre">m</tspan></tspan></tspan></text>
        <text class="SVGTextShape"><tspan class="TextParagraph"><tspan class="TextPosition" x="16888" y="12892"><tspan font-family="Times New Roman, serif" font-size="494px" font-style="italic" font-weight="400" lengthAdjust="spacingAndGlyphs" textLength="135" fill="rgb(0,0,0)" stroke="none" style="white-space: pre">t</tspan></tspan></tspan></text>
        <text class="SVGTextShape"><tspan class="TextParagraph"><tspan class="TextPosition" x="16186" y="12892"><tspan font-family="Times New Roman, serif" font-size="494px" font-style="italic" font-weight="400" lengthAdjust="spacingAndGlyphs" textLength="216" fill="rgb(0,0,0)" stroke="none" style="white-space: pre">k</tspan></tspan></tspan></text>
        <text class="SVGTextShape"><tspan class="TextParagraph"><tspan class="TextPosition" x="14755" y="12892"><tspan font-family="Times New Roman, serif" font-size="494px" font-style="italic" font-weight="400" lengthAdjust="spacingAndGlyphs" textLength="352" fill="rgb(0,0,0)" stroke="none" style="white-space: pre">m</tspan></tspan></tspan></text>
        <text class="SVGTextShape"><tspan class="TextParagraph"><tspan class="TextPosition" x="14077" y="12892"><tspan font-family="Times New Roman, serif" font-size="494px" font-style="italic" font-weight="400" lengthAdjust="spacingAndGlyphs" textLength="135" fill="rgb(0,0,0)" stroke="none" style="white-space: pre">t</tspan></tspan></tspan></text>
        <text class="SVGTextShape"><tspan class="TextParagraph"><tspan class="TextPosition" x="13375" y="12892"><tspan font-family="Times New Roman, serif" font-size="494px" font-style="italic" font-weight="400" lengthAdjust="spacingAndGlyphs" textLength="216" fill="rgb(0,0,0)" stroke="none" style="white-space: pre">k</tspan></tspan></tspan></text>
        <text class="SVGTextShape"><tspan class="TextParagraph"><tspan class="TextPosition" x="11944" y="12892"><tspan font-family="Times New Roman, serif" font-size="494px" font-style="italic" font-weight="400" lengthAdjust="spacingAndGlyphs" textLength="352" fill="rgb(0,0,0)" stroke="none" style="white-space: pre">m</tspan></tspan></tspan></text>
        <text class="SVGTextShape"><tspan class="TextParagraph"><tspan class="TextPosition" x="10598" y="12892"><tspan font-family="Times New Roman, serif" font-size="494px" font-style="italic" font-weight="400" lengthAdjust="spacingAndGlyphs" textLength="135" fill="rgb(0,0,0)" stroke="none" style="white-space: pre">t</tspan></tspan></tspan></text>
        <text class="SVGTextShape"><tspan class="TextParagraph"><tspan class="TextPosition" x="9895" y="12892"><tspan font-family="Times New Roman, serif" font-size="494px" font-style="italic" font-weight="400" lengthAdjust="spacingAndGlyphs" textLength="216" fill="rgb(0,0,0)" stroke="none" style="white-space: pre">k</tspan></tspan></tspan></text>
        <text class="SVGTextShape"><tspan class="TextParagraph"><tspan class="TextPosition" x="8457" y="12892"><tspan font-family="Times New Roman, serif" font-size="494px" font-style="italic" font-weight="400" lengthAdjust="spacingAndGlyphs" textLength="352" fill="rgb(0,0,0)" stroke="none" style="white-space: pre">m</tspan></tspan></tspan></text>
        <text class="SVGTextShape"><tspan class="TextParagraph"><tspan class="TextPosition" x="7779" y="12892"><tspan font-family="Times New Roman, serif" font-size="494px" font-style="italic" font-weight="400" lengthAdjust="spacingAndGlyphs" textLength="135" fill="rgb(0,0,0)" stroke="none" style="white-space: pre">t</tspan></tspan></tspan></text>
        <text class="SVGTextShape"><tspan class="TextParagraph"><tspan class="TextPosition" x="7076" y="12892"><tspan font-family="Times New Roman, serif" font-size="494px" font-style="italic" font-weight="400" lengthAdjust="spacingAndGlyphs" textLength="216" fill="rgb(0,0,0)" stroke="none" style="white-space: pre">k</tspan></tspan></tspan></text>
        <text class="SVGTextShape"><tspan class="TextParagraph"><tspan class="TextPosition" x="5638" y="12892"><tspan font-family="Times New Roman, serif" font-size="494px" font-style="italic" font-weight="400" lengthAdjust="spacingAndGlyphs" textLength="352" fill="rgb(0,0,0)" stroke="none" style="white-space: pre">m</tspan></tspan></tspan></text>
        <text class="SVGTextShape"><tspan class="TextParagraph"><tspan class="TextPosition" x="4661" y="12892"><tspan font-family="Times New Roman, serif" font-size="494px" font-style="italic" font-weight="400" lengthAdjust="spacingAndGlyphs" textLength="135" fill="rgb(0,0,0)" stroke="none" style="white-space: pre">t</tspan></tspan></tspan></text>
        <text class="SVGTextShape"><tspan class="TextParagraph"><tspan class="TextPosition" x="4051" y="12892"><tspan font-family="Times New Roman, serif" font-size="494px" font-style="italic" font-weight="400" lengthAdjust="spacingAndGlyphs" textLength="135" fill="rgb(0,0,0)" stroke="none" style="white-space: pre">t</tspan></tspan></tspan></text>
        <g class="OutlinedText"><path d="M 357,78 L 299,-91 C 262,-199 209,-316 140,-442 L -29,-442 C 17,-359 47,-303 60,-273 101,-180 128,-111 143,-68 L 490,954 C 531,1073 573,1162 616,1220 659,1277 718,1325 793,1364 868,1403 948,1422 1034,1422 1154,1422 1238,1390 1288,1326 1337,1262 1347,1186 1317,1098 1298,1041 1265,988 1219,937 1172,886 1113,841 1039,804 1189,719 1233,586 1172,406 1145,326 1101,251 1040,182 979,113 910,60 832,24 754,-13 681,-31 611,-31 567,-31 525,-23 487,-8 448,7 405,36 357,78 Z M 383,157 C 433,112 478,79 519,59 550,44 584,37 620,37 687,37 753,65 817,121 882,176 935,264 976,385 1002,461 1013,528 1011,585 1009,642 992,704 960,772 909,757 867,749 834,749 794,749 767,755 755,767 743,779 739,792 744,806 748,819 758,830 774,840 791,850 813,855 841,855 873,855 920,846 980,829 1058,922 1111,1009 1139,1092 1168,1176 1169,1241 1143,1287 1118,1333 1074,1356 1013,1356 935,1356 864,1323 800,1258 757,1215 719,1145 687,1049 L 383,157 Z " transform="translate(4968,15373) scale(0.241,-0.241)" fill="rgb(0,0,0)" stroke="none"/></g><g class="OutlinedText"><path d="M 357,78 L 299,-91 C 262,-199 209,-316 140,-442 L -29,-442 C 17,-359 47,-303 60,-273 101,-180 128,-111 143,-68 L 490,954 C 531,1073 573,1162 616,1220 659,1277 718,1325 793,1364 868,1403 948,1422 1034,1422 1154,1422 1238,1390 1288,1326 1337,1262 1347,1186 1317,1098 1298,1041 1265,988 1219,937 1172,886 1113,841 1039,804 1189,719 1233,586 1172,406 1145,326 1101,251 1040,182 979,113 910,60 832,24 754,-13 681,-31 611,-31 567,-31 525,-23 487,-8 448,7 405,36 357,78 Z M 383,157 C 433,112 478,79 519,59 550,44 584,37 620,37 687,37 753,65 817,121 882,176 935,264 976,385 1002,461 1013,528 1011,585 1009,642 992,704 960,772 909,757 867,749 834,749 794,749 767,755 755,767 743,779 739,792 744,806 748,819 758,830 774,840 791,850 813,855 841,855 873,855 920,846 980,829 1058,922 1111,1009 1139,1092 1168,1176 1169,1241 1143,1287 1118,1333 1074,1356 1013,1356 935,1356 864,1323 800,1258 757,1215 719,1145 687,1049 L 383,157 Z " transform="translate(4184,15373) scale(0.241,-0.241)" fill="rgb(0,0,0)" stroke="none"/></g><g class="OutlinedText"><path d="M 357,78 L 299,-91 C 262,-199 209,-316 140,-442 L -29,-442 C 17,-359 47,-303 60,-273 101,-180 128,-111 143,-68 L 490,954 C 531,1073 573,1162 616,1220 659,1277 718,1325 793,1364 868,1403 948,1422 1034,1422 1154,1422 1238,1390 1288,1326 1337,1262 1347,1186 1317,1098 1298,1041 1265,988 1219,937 1172,886 1113,841 1039,804 1189,719 1233,586 1172,406 1145,326 1101,251 1040,182 979,113 910,60 832,24 754,-13 681,-31 611,-31 567,-31 525,-23 487,-8 448,7 405,36 357,78 Z M 383,157 C 433,112 478,79 519,59 550,44 584,37 620,37 687,37 753,65 817,121 882,176 935,264 976,385 1002,461 1013,528 1011,585 1009,642 992,704 960,772 909,757 867,749 834,749 794,749 767,755 755,767 743,779 739,792 744,806 748,819 758,830 774,840 791,850 813,855 841,855 873,855 920,846 980,829 1058,922 1111,1009 1139,1092 1168,1176 1169,1241 1143,1287 1118,1333 1074,1356 1013,1356 935,1356 864,1323 800,1258 757,1215 719,1145 687,1049 L 383,157 Z " transform="translate(12348,14546) scale(0.241,-0.241)" fill="rgb(0,0,0)" stroke="none"/></g><g class="OutlinedText"><path d="M 357,78 L 299,-91 C 262,-199 209,-316 140,-442 L -29,-442 C 17,-359 47,-303 60,-273 101,-180 128,-111 143,-68 L 490,954 C 531,1073 573,1162 616,1220 659,1277 718,1325 793,1364 868,1403 948,1422 1034,1422 1154,1422 1238,1390 1288,1326 1337,1262 1347,1186 1317,1098 1298,1041 1265,988 1219,937 1172,886 1113,841 1039,804 1189,719 1233,586 1172,406 1145,326 1101,251 1040,182 979,113 910,60 832,24 754,-13 681,-31 611,-31 567,-31 525,-23 487,-8 448,7 405,36 357,78 Z M 383,157 C 433,112 478,79 519,59 550,44 584,37 620,37 687,37 753,65 817,121 882,176 935,264 976,385 1002,461 1013,528 1011,585 1009,642 992,704 960,772 909,757 867,749 834,749 794,749 767,755 755,767 743,779 739,792 744,806 748,819 758,830 774,840 791,850 813,855 841,855 873,855 920,846 980,829 1058,922 1111,1009 1139,1092 1168,1176 1169,1241 1143,1287 1118,1333 1074,1356 1013,1356 935,1356 864,1323 800,1258 757,1215 719,1145 687,1049 L 383,157 Z " transform="translate(7079,14546) scale(0.241,-0.241)" fill="rgb(0,0,0)" stroke="none"/></g><g class="OutlinedText"><path d="M 357,78 L 299,-91 C 262,-199 209,-316 140,-442 L -29,-442 C 17,-359 47,-303 60,-273 101,-180 128,-111 143,-68 L 490,954 C 531,1073 573,1162 616,1220 659,1277 718,1325 793,1364 868,1403 948,1422 1034,1422 1154,1422 1238,1390 1288,1326 1337,1262 1347,1186 1317,1098 1298,1041 1265,988 1219,937 1172,886 1113,841 1039,804 1189,719 1233,586 1172,406 1145,326 1101,251 1040,182 979,113 910,60 832,24 754,-13 681,-31 611,-31 567,-31 525,-23 487,-8 448,7 405,36 357,78 Z M 383,157 C 433,112 478,79 519,59 550,44 584,37 620,37 687,37 753,65 817,121 882,176 935,264 976,385 1002,461 1013,528 1011,585 1009,642 992,704 960,772 909,757 867,749 834,749 794,749 767,755 755,767 743,779 739,792 744,806 748,819 758,830 774,840 791,850 813,855 841,855 873,855 920,846 980,829 1058,922 1111,1009 1139,1092 1168,1176 1169,1241 1143,1287 1118,1333 1074,1356 1013,1356 935,1356 864,1323 800,1258 757,1215 719,1145 687,1049 L 383,157 Z " transform="translate(4184,14546) scale(0.241,-0.241)" fill="rgb(0,0,0)" stroke="none"/></g><g class="OutlinedText"><path d="M 357,78 L 299,-91 C 262,-199 209,-316 140,-442 L -29,-442 C 17,-359 47,-303 60,-273 101,-180 128,-111 143,-68 L 490,954 C 531,1073 573,1162 616,1220 659,1277 718,1325 793,1364 868,1403 948,1422 1034,1422 1154,1422 1238,1390 1288,1326 1337,1262 1347,1186 1317,1098 1298,1041 1265,988 1219,937 1172,886 1113,841 1039,804 1189,719 1233,586 1172,406 1145,326 1101,251 1040,182 979,113 910,60 832,24 754,-13 681,-31 611,-31 567,-31 525,-23 487,-8 448,7 405,36 357,78 Z M 383,157 C 433,112 478,79 519,59 550,44 584,37 620,37 687,37 753,65 817,121 882,176 935,264 976,385 1002,461 1013,528 1011,585 1009,642 992,704 960,772 909,757 867,749 834,749 794,749 767,755 755,767 743,779 739,792 744,806 748,819 758,830 774,840 791,850 813,855 841,855 873,855 920,846 980,829 1058,922 1111,1009 1139,1092 1168,1176 1169,1241 1143,1287 1118,1333 1074,1356 1013,1356 935,1356 864,1323 800,1258 757,1215 719,1145 687,1049 L 383,157 Z " transform="translate(13113,13719) scale(0.241,-0.241)" fill="rgb(0,0,0)" stroke="none"/></g><g class="OutlinedText"><path d="M 357,78 L 299,-91 C 262,-199 209,-316 140,-442 L -29,-442 C 17,-359 47,-303 60,-273 101,-180 128,-111 143,-68 L 490,954 C 531,1073 573,1162 616,1220 659,1277 718,1325 793,1364 868,1403 948,1422 1034,1422 1154,1422 1238,1390 1288,1326 1337,1262 1347,1186 1317,1098 1298,1041 1265,988 1219,937 1172,886 1113,841 1039,804 1189,719 1233,586 1172,406 1145,326 1101,251 1040,182 979,113 910,60 832,24 754,-13 681,-31 611,-31 567,-31 525,-23 487,-8 448,7 405,36 357,78 Z M 383,157 C 433,112 478,79 519,59 550,44 584,37 620,37 687,37 753,65 817,121 882,176 935,264 976,385 1002,461 1013,528 1011,585 1009,642 992,704 960,772 909,757 867,749 834,749 794,749 767,755 755,767 743,779 739,792 744,806 748,819 758,830 774,840 791,850 813,855 841,855 873,855 920,846 980,829 1058,922 1111,1009 1139,1092 1168,1176 1169,1241 1143,1287 1118,1333 1074,1356 1013,1356 935,1356 864,1323 800,1258 757,1215 719,1145 687,1049 L 383,157 Z " transform="translate(12150,13719) scale(0.241,-0.241)" fill="rgb(0,0,0)" stroke="none"/></g><g class="OutlinedText"><path d="M 357,78 L 299,-91 C 262,-199 209,-316 140,-442 L -29,-442 C 17,-359 47,-303 60,-273 101,-180 128,-111 143,-68 L 490,954 C 531,1073 573,1162 616,1220 659,1277 718,1325 793,1364 868,1403 948,1422 1034,1422 1154,1422 1238,1390 1288,1326 1337,1262 1347,1186 1317,1098 1298,1041 1265,988 1219,937 1172,886 1113,841 1039,804 1189,719 1233,586 1172,406 1145,326 1101,251 1040,182 979,113 910,60 832,24 754,-13 681,-31 611,-31 567,-31 525,-23 487,-8 448,7 405,36 357,78 Z M 383,157 C 433,112 478,79 519,59 550,44 584,37 620,37 687,37 753,65 817,121 882,176 935,264 976,385 1002,461 1013,528 1011,585 1009,642 992,704 960,772 909,757 867,749 834,749 794,749 767,755 755,767 743,779 739,792 744,806 748,819 758,830 774,840 791,850 813,855 841,855 873,855 920,846 980,829 1058,922 1111,1009 1139,1092 1168,1176 1169,1241 1143,1287 1118,1333 1074,1356 1013,1356 935,1356 864,1323 800,1258 757,1215 719,1145 687,1049 L 383,157 Z " transform="translate(7003,13719) scale(0.241,-0.241)" fill="rgb(0,0,0)" stroke="none"/></g><g class="OutlinedText"><path d="M 357,78 L 299,-91 C 262,-199 209,-316 140,-442 L -29,-442 C 17,-359 47,-303 60,-273 101,-180 128,-111 143,-68 L 490,954 C 531,1073 573,1162 616,1220 659,1277 718,1325 793,1364 868,1403 948,1422 1034,1422 1154,1422 1238,1390 1288,1326 1337,1262 1347,1186 1317,1098 1298,1041 1265,988 1219,937 1172,886 1113,841 1039,804 1189,719 1233,586 1172,406 1145,326 1101,251 1040,182 979,113 910,60 832,24 754,-13 681,-31 611,-31 567,-31 525,-23 487,-8 448,7 405,36 357,78 Z M 383,157 C 433,112 478,79 519,59 550,44 584,37 620,37 687,37 753,65 817,121 882,176 935,264 976,385 1002,461 1013,528 1011,585 1009,642 992,704 960,772 909,757 867,749 834,749 794,749 767,755 755,767 743,779 739,792 744,806 748,819 758,830 774,840 791,850 813,855 841,855 873,855 920,846 980,829 1058,922 1111,1009 1139,1092 1168,1176 1169,1241 1143,1287 1118,1333 1074,1356 1013,1356 935,1356 864,1323 800,1258 757,1215 719,1145 687,1049 L 383,157 Z " transform="translate(6039,13719) scale(0.241,-0.241)" fill="rgb(0,0,0)" stroke="none"/></g><g class="OutlinedText"><path d="M 357,78 L 299,-91 C 262,-199 209,-316 140,-442 L -29,-442 C 17,-359 47,-303 60,-273 101,-180 128,-111 143,-68 L 490,954 C 531,1073 573,1162 616,1220 659,1277 718,1325 793,1364 868,1403 948,1422 1034,1422 1154,1422 1238,1390 1288,1326 1337,1262 1347,1186 1317,1098 1298,1041 1265,988 1219,937 1172,886 1113,841 1039,804 1189,719 1233,586 1172,406 1145,326 1101,251 1040,182 979,113 910,60 832,24 754,-13 681,-31 611,-31 567,-31 525,-23 487,-8 448,7 405,36 357,78 Z M 383,157 C 433,112 478,79 519,59 550,44 584,37 620,37 687,37 753,65 817,121 882,176 935,264 976,385 1002,461 1013,528 1011,585 1009,642 992,704 960,772 909,757 867,749 834,749 794,749 767,755 755,767 743,779 739,792 744,806 748,819 758,830 774,840 791,850 813,855 841,855 873,855 920,846 980,829 1058,922 1111,1009 1139,1092 1168,1176 1169,1241 1143,1287 1118,1333 1074,1356 1013,1356 935,1356 864,1323 800,1258 757,1215 719,1145 687,1049 L 383,157 Z " transform="translate(16618,12892) scale(0.241,-0.241)" fill="rgb(0,0,0)" stroke="none"/></g><g class="OutlinedText"><path d="M 357,78 L 299,-91 C 262,-199 209,-316 140,-442 L -29,-442 C 17,-359 47,-303 60,-273 101,-180 128,-111 143,-68 L 490,954 C 531,1073 573,1162 616,1220 659,1277 718,1325 793,1364 868,1403 948,1422 1034,1422 1154,1422 1238,1390 1288,1326 1337,1262 1347,1186 1317,1098 1298,1041 1265,988 1219,937 1172,886 1113,841 1039,804 1189,719 1233,586 1172,406 1145,326 1101,251 1040,182 979,113 910,60 832,24 754,-13 681,-31 611,-31 567,-31 525,-23 487,-8 448,7 405,36 357,78 Z M 383,157 C 433,112 478,79 519,59 550,44 584,37 620,37 687,37 753,65 817,121 882,176 935,264 976,385 1002,461 1013,528 1011,585 1009,642 992,704 960,772 909,757 867,749 834,749 794,749 767,755 755,767 743,779 739,792 744,806 748,819 758,830 774,840 791,850 813,855 841,855 873,855 920,846 980,829 1058,922 1111,1009 1139,1092 1168,1176 1169,1241 1143,1287 1118,1333 1074,1356 1013,1356 935,1356 864,1323 800,1258 757,1215 719,1145 687,1049 L 383,157 Z " transform="translate(13807,12892) scale(0.241,-0.241)" fill="rgb(0,0,0)" stroke="none"/></g><g class="OutlinedText"><path d="M 357,78 L 299,-91 C 262,-199 209,-316 140,-442 L -29,-442 C 17,-359 47,-303 60,-273 101,-180 128,-111 143,-68 L 490,954 C 531,1073 573,1162 616,1220 659,1277 718,1325 793,1364 868,1403 948,1422 1034,1422 1154,1422 1238,1390 1288,1326 1337,1262 1347,1186 1317,1098 1298,1041 1265,988 1219,937 1172,886 1113,841 1039,804 1189,719 1233,586 1172,406 1145,326 1101,251 1040,182 979,113 910,60 832,24 754,-13 681,-31 611,-31 567,-31 525,-23 487,-8 448,7 405,36 357,78 Z M 383,157 C 433,112 478,79 519,59 550,44 584,37 620,37 687,37 753,65 817,121 882,176 935,264 976,385 1002,461 1013,528 1011,585 1009,642 992,704 960,772 909,757 867,749 834,749 794,749 767,755 755,767 743,779 739,792 744,806 748,819 758,830 774,840 791,850 813,855 841,855 873,855 920,846 980,829 1058,922 1111,1009 1139,1092 1168,1176 1169,1241 1143,1287 1118,1333 1074,1356 1013,1356 935,1356 864,1323 800,1258 757,1215 719,1145 687,1049 L 383,157 Z " transform="translate(10328,12892) scale(0.241,-0.241)" fill="rgb(0,0,0)" stroke="none"/></g><g class="OutlinedText"><path d="M 357,78 L 299,-91 C 262,-199 209,-316 140,-442 L -29,-442 C 17,-359 47,-303 60,-273 101,-180 128,-111 143,-68 L 490,954 C 531,1073 573,1162 616,1220 659,1277 718,1325 793,1364 868,1403 948,1422 1034,1422 1154,1422 1238,1390 1288,1326 1337,1262 1347,1186 1317,1098 1298,1041 1265,988 1219,937 1172,886 1113,841 1039,804 1189,719 1233,586 1172,406 1145,326 1101,251 1040,182 979,113 910,60 832,24 754,-13 681,-31 611,-31 567,-31 525,-23 487,-8 448,7 405,36 357,78 Z M 383,157 C 433,112 478,79 519,59 550,44 584,37 620,37 687,37 753,65 817,121 882,176 935,264 976,385 1002,461 1013,528 1011,585 1009,642 992,704 960,772 909,757 867,749 834,749 794,749 767,755 755,767 743,779 739,792 744,806 748,819 758,830 774,840 791,850 813,855 841,855 873,855 920,846 980,829 1058,922 1111,1009 1139,1092 1168,1176 1169,1241 1143,1287 1118,1333 1074,1356 1013,1356 935,1356 864,1323 800,1258 757,1215 719,1145 687,1049 L 383,157 Z " transform="translate(7509,12892) scale(0.241,-0.241)" fill="rgb(0,0,0)" stroke="none"/></g><g class="OutlinedText"><path d="M 357,78 L 299,-91 C 262,-199 209,-316 140,-442 L -29,-442 C 17,-359 47,-303 60,-273 101,-180 128,-111 143,-68 L 490,954 C 531,1073 573,1162 616,1220 659,1277 718,1325 793,1364 868,1403 948,1422 1034,1422 1154,1422 1238,1390 1288,1326 1337,1262 1347,1186 1317,1098 1298,1041 1265,988 1219,937 1172,886 1113,841 1039,804 1189,719 1233,586 1172,406 1145,326 1101,251 1040,182 979,113 910,60 832,24 754,-13 681,-31 611,-31 567,-31 525,-23 487,-8 448,7 405,36 357,78 Z M 383,157 C 433,112 478,79 519,59 550,44 584,37 620,37 687,37 753,65 817,121 882,176 935,264 976,385 1002,461 1013,528 1011,585 1009,642 992,704 960,772 909,757 867,749 834,749 794,749 767,755 755,767 743,779 739,792 744,806 748,819 758,830 774,840 791,850 813,855 841,855 873,855 920,846 980,829 1058,922 1111,1009 1139,1092 1168,1176 1169,1241 1143,1287 1118,1333 1074,1356 1013,1356 935,1356 864,1323 800,1258 757,1215 719,1145 687,1049 L 383,157 Z " transform="translate(4391,12892) scale(0.241,-0.241)" fill="rgb(0,0,0)" stroke="none"/></g><g class="OutlinedText"><path d="M 1248,916 L 1414,916 1130,461 C 1111,432 1082,387 1043,326 1033,223 1031,162 1037,142 1049,105 1073,87 1110,87 1136,87 1165,98 1195,120 1225,142 1252,176 1275,223 L 1315,223 C 1273,127 1230,61 1187,24 1143,-13 1101,-31 1060,-31 1022,-31 993,-15 973,17 953,49 949,118 960,223 911,165 867,121 829,91 776,50 722,19 669,-1 617,-22 561,-32 502,-32 355,-32 263,17 227,115 191,213 194,325 237,450 287,597 368,716 480,807 592,898 703,943 812,943 888,943 948,920 990,874 1032,827 1055,741 1060,615 L 1248,916 Z M 987,503 C 998,640 984,736 946,791 907,845 859,872 800,872 735,872 669,836 601,765 533,693 473,579 419,422 388,329 373,257 373,204 374,151 388,110 416,81 444,52 479,37 521,37 572,37 627,61 686,108 765,172 866,304 987,503 Z " transform="translate(3743,12892) scale(0.241,-0.241)" fill="rgb(0,0,0)" stroke="none"/></g><g class="OutlinedText"><path d="M 37,759 L 1087,759 1087,662 37,662 37,759 Z M 37,386 L 1087,386 1087,287 37,287 37,386 Z " transform="translate(3626,15373) scale(0.241,-0.241)" fill="rgb(0,0,0)" stroke="none"/></g><g class="OutlinedText"><path d="M 37,759 L 1087,759 1087,662 37,662 37,759 Z M 37,386 L 1087,386 1087,287 37,287 37,386 Z " transform="translate(15330,14546) scale(0.241,-0.241)" fill="rgb(0,0,0)" stroke="none"/></g><g class="OutlinedText"><path d="M 37,576 L 1087,576 1087,477 37,477 37,576 Z " transform="translate(14385,14546) scale(0.241,-0.241)" fill="rgb(0,0,0)" stroke="none"/></g><g class="OutlinedText"><path d="M 37,759 L 1087,759 1087,662 37,662 37,759 Z M 37,386 L 1087,386 1087,287 37,287 37,386 Z " transform="translate(14005,14546) scale(0.241,-0.241)" fill="rgb(0,0,0)" stroke="none"/></g><g class="OutlinedText"><path d="M 37,576 L 1087,576 1087,477 37,477 37,576 Z " transform="translate(11631,14546) scale(0.241,-0.241)" fill="rgb(0,0,0)" stroke="none"/></g><g class="OutlinedText"><path d="M 37,759 L 1087,759 1087,662 37,662 37,759 Z M 37,386 L 1087,386 1087,287 37,287 37,386 Z " transform="translate(11251,14546) scale(0.241,-0.241)" fill="rgb(0,0,0)" stroke="none"/></g><g class="OutlinedText"><path d="M 514,1050 L 612,1050 612,572 1087,572 1087,475 612,475 612,0 514,0 514,475 37,475 37,572 514,572 514,1050 Z " transform="translate(9935,14546) scale(0.241,-0.241)" fill="rgb(0,0,0)" stroke="none"/></g><g class="OutlinedText"><path d="M 514,1050 L 612,1050 612,572 1087,572 1087,475 612,475 612,0 514,0 514,475 37,475 37,572 514,572 514,1050 Z " transform="translate(9115,14546) scale(0.241,-0.241)" fill="rgb(0,0,0)" stroke="none"/></g><g class="OutlinedText"><path d="M 37,759 L 1087,759 1087,662 37,662 37,759 Z M 37,386 L 1087,386 1087,287 37,287 37,386 Z " transform="translate(8736,14546) scale(0.241,-0.241)" fill="rgb(0,0,0)" stroke="none"/></g><g class="OutlinedText"><path d="M 514,1050 L 612,1050 612,572 1087,572 1087,475 612,475 612,0 514,0 514,475 37,475 37,572 514,572 514,1050 Z " transform="translate(6353,14546) scale(0.241,-0.241)" fill="rgb(0,0,0)" stroke="none"/></g><g class="OutlinedText"><path d="M 37,759 L 1087,759 1087,662 37,662 37,759 Z M 37,386 L 1087,386 1087,287 37,287 37,386 Z " transform="translate(5974,14546) scale(0.241,-0.241)" fill="rgb(0,0,0)" stroke="none"/></g><g class="OutlinedText"><path d="M 37,759 L 1087,759 1087,662 37,662 37,759 Z M 37,386 L 1087,386 1087,287 37,287 37,386 Z " transform="translate(3626,14546) scale(0.241,-0.241)" fill="rgb(0,0,0)" stroke="none"/></g><g class="OutlinedText"><path d="M 37,759 L 1087,759 1087,662 37,662 37,759 Z M 37,386 L 1087,386 1087,287 37,287 37,386 Z " transform="translate(15840,13719) scale(0.241,-0.241)" fill="rgb(0,0,0)" stroke="none"/></g><g class="OutlinedText"><path d="M 37,576 L 1087,576 1087,477 37,477 37,576 Z " transform="translate(15027,13719) scale(0.241,-0.241)" fill="rgb(0,0,0)" stroke="none"/></g><g class="OutlinedText"><path d="M 37,759 L 1087,759 1087,662 37,662 37,759 Z M 37,386 L 1087,386 1087,287 37,287 37,386 Z " transform="translate(14648,13719) scale(0.241,-0.241)" fill="rgb(0,0,0)" stroke="none"/></g><g class="OutlinedText"><path d="M 37,576 L 1087,576 1087,477 37,477 37,576 Z " transform="translate(11432,13719) scale(0.241,-0.241)" fill="rgb(0,0,0)" stroke="none"/></g><g class="OutlinedText"><path d="M 37,759 L 1087,759 1087,662 37,662 37,759 Z M 37,386 L 1087,386 1087,287 37,287 37,386 Z " transform="translate(11053,13719) scale(0.241,-0.241)" fill="rgb(0,0,0)" stroke="none"/></g><g class="OutlinedText"><path d="M 514,1050 L 612,1050 612,572 1087,572 1087,475 612,475 612,0 514,0 514,475 37,475 37,572 514,572 514,1050 Z " transform="translate(9737,13719) scale(0.241,-0.241)" fill="rgb(0,0,0)" stroke="none"/></g><g class="OutlinedText"><path d="M 514,1050 L 612,1050 612,572 1087,572 1087,475 612,475 612,0 514,0 514,475 37,475 37,572 514,572 514,1050 Z " transform="translate(8916,13719) scale(0.241,-0.241)" fill="rgb(0,0,0)" stroke="none"/></g><g class="OutlinedText"><path d="M 37,759 L 1087,759 1087,662 37,662 37,759 Z M 37,386 L 1087,386 1087,287 37,287 37,386 Z " transform="translate(8537,13719) scale(0.241,-0.241)" fill="rgb(0,0,0)" stroke="none"/></g><g class="OutlinedText"><path d="M 514,1050 L 612,1050 612,572 1087,572 1087,475 612,475 612,0 514,0 514,475 37,475 37,572 514,572 514,1050 Z " transform="translate(5314,13719) scale(0.241,-0.241)" fill="rgb(0,0,0)" stroke="none"/></g><g class="OutlinedText"><path d="M 37,759 L 1087,759 1087,662 37,662 37,759 Z M 37,386 L 1087,386 1087,287 37,287 37,386 Z " transform="translate(4934,13719) scale(0.241,-0.241)" fill="rgb(0,0,0)" stroke="none"/></g><g class="OutlinedText"><path d="M 37,759 L 1087,759 1087,662 37,662 37,759 Z M 37,386 L 1087,386 1087,287 37,287 37,386 Z " transform="translate(3626,13719) scale(0.241,-0.241)" fill="rgb(0,0,0)" stroke="none"/></g><g class="OutlinedText"><path d="M 37,759 L 1087,759 1087,662 37,662 37,759 Z M 37,386 L 1087,386 1087,287 37,287 37,386 Z " transform="translate(17684,12892) scale(0.241,-0.241)" fill="rgb(0,0,0)" stroke="none"/></g><g class="OutlinedText"><path d="M 37,576 L 1087,576 1087,477 37,477 37,576 Z " transform="translate(15900,12892) scale(0.241,-0.241)" fill="rgb(0,0,0)" stroke="none"/></g><g class="OutlinedText"><path d="M 37,759 L 1087,759 1087,662 37,662 37,759 Z M 37,386 L 1087,386 1087,287 37,287 37,386 Z " transform="translate(15521,12892) scale(0.241,-0.241)" fill="rgb(0,0,0)" stroke="none"/></g><g class="OutlinedText"><path d="M 37,576 L 1087,576 1087,477 37,477 37,576 Z " transform="translate(13089,12892) scale(0.241,-0.241)" fill="rgb(0,0,0)" stroke="none"/></g><g class="OutlinedText"><path d="M 37,759 L 1087,759 1087,662 37,662 37,759 Z M 37,386 L 1087,386 1087,287 37,287 37,386 Z " transform="translate(12710,12892) scale(0.241,-0.241)" fill="rgb(0,0,0)" stroke="none"/></g><g class="OutlinedText"><path d="M 514,1050 L 612,1050 612,572 1087,572 1087,475 612,475 612,0 514,0 514,475 37,475 37,572 514,572 514,1050 Z " transform="translate(11394,12892) scale(0.241,-0.241)" fill="rgb(0,0,0)" stroke="none"/></g><g class="OutlinedText"><path d="M 514,1050 L 612,1050 612,572 1087,572 1087,475 612,475 612,0 514,0 514,475 37,475 37,572 514,572 514,1050 Z " transform="translate(9602,12892) scale(0.241,-0.241)" fill="rgb(0,0,0)" stroke="none"/></g><g class="OutlinedText"><path d="M 37,759 L 1087,759 1087,662 37,662 37,759 Z M 37,386 L 1087,386 1087,287 37,287 37,386 Z " transform="translate(9223,12892) scale(0.241,-0.241)" fill="rgb(0,0,0)" stroke="none"/></g><g class="OutlinedText"><path d="M 514,1050 L 612,1050 612,572 1087,572 1087,475 612,475 612,0 514,0 514,475 37,475 37,572 514,572 514,1050 Z " transform="translate(6783,12892) scale(0.241,-0.241)" fill="rgb(0,0,0)" stroke="none"/></g><g class="OutlinedText"><path d="M 37,759 L 1087,759 1087,662 37,662 37,759 Z M 37,386 L 1087,386 1087,287 37,287 37,386 Z " transform="translate(6404,12892) scale(0.241,-0.241)" fill="rgb(0,0,0)" stroke="none"/></g><g class="OutlinedText"><path d="M 37,759 L 1087,759 1087,662 37,662 37,759 Z M 37,386 L 1087,386 1087,287 37,287 37,386 Z " transform="translate(5095,12892) scale(0.241,-0.241)" fill="rgb(0,0,0)" stroke="none"/></g></g>
      </g>
     </g>
    </g>
   </g>
  </g>
 </g>
</svg>