<?xml version='1.0' encoding='UTF-8'?>
<!DOCTYPE svg PUBLIC "-//W3C//DTD SVG 1.1//EN" "http://www.w3.org/Graphics/SVG/1.1/DTD/svg11.dtd">
<svg xmlns="http://www.w3.org/2000/svg" xmlns:ooo="http://xml.openoffice.org/svg/export" xmlns:xlink="http://www.w3.org/1999/xlink" xmlns:presentation="http://sun.com/xmlns/staroffice/presentation" xmlns:smil="http://www.w3.org/2001/SMIL20/" xmlns:anim="urn:oasis:names:tc:opendocument:xmlns:animation:1.0" xmlns:svg="urn:oasis:names:tc:opendocument:xmlns:svg-compatible:1.0" version="1.2" width="101.850mm" height="48.430mm" viewBox="5702 11548 10185 4843" preserveAspectRatio="xMidYMid" fill-rule="evenodd" stroke-width="28.222" stroke-linejoin="round" xml:space="preserve">
 <defs class="ClipPathGroup">
  <clipPath id="presentation_clip_path" clipPathUnits="userSpaceOnUse">
   <rect x="0" y="0" width="21590" height="27940"/>
  </clipPath>
  <clipPath id="presentation_clip_path_shrink" clipPathUnits="userSpaceOnUse">
   <rect x="21" y="27" width="21547" height="27885"/>
  </clipPath>
 </defs>
 <defs class="TextShapeIndex">
  <g ooo:slide="id1" ooo:id-list="id3"/>
 </defs>
 <defs class="EmbeddedBulletChars">
  <g id="bullet-char-template-57356" transform="scale(0.00048828125,-0.00048828125)">
   <path d="M 580,1141 L 1163,571 580,0 -4,571 580,1141 Z"/>
  </g>
  <g id="bullet-char-template-57354" transform="scale(0.00048828125,-0.00048828125)">
   <path d="M 8,1128 L 1137,1128 1137,0 8,0 8,1128 Z"/>
  </g>
  <g id="bullet-char-template-10146" transform="scale(0.00048828125,-0.00048828125)">
   <path d="M 174,0 L 602,739 174,1481 1456,739 174,0 Z M 1358,739 L 309,1346 659,739 1358,739 Z"/>
  </g>
  <g id="bullet-char-template-10132" transform="scale(0.00048828125,-0.00048828125)">
   <path d="M 2015,739 L 1276,0 717,0 1260,543 174,543 174,936 1260,936 717,1481 1274,1481 2015,739 Z"/>
  </g>
  <g id="bullet-char-template-10007" transform="scale(0.00048828125,-0.00048828125)">
   <path d="M 0,-2 C -7,14 -16,27 -25,37 L 356,567 C 262,823 215,952 215,954 215,979 228,992 255,992 264,992 276,990 289,987 310,991 331,999 354,1012 L 381,999 492,748 772,1049 836,1024 860,1049 C 881,1039 901,1025 922,1006 886,937 835,863 770,784 769,783 710,716 594,584 L 774,223 C 774,196 753,168 711,139 L 727,119 C 717,90 699,76 672,76 641,76 570,178 457,381 L 164,-76 C 142,-110 111,-127 72,-127 30,-127 9,-110 8,-76 1,-67 -2,-52 -2,-32 -2,-23 -1,-13 0,-2 Z"/>
  </g>
  <g id="bullet-char-template-10004" transform="scale(0.00048828125,-0.00048828125)">
   <path d="M 285,-33 C 182,-33 111,30 74,156 52,228 41,333 41,471 41,549 55,616 82,672 116,743 169,778 240,778 293,778 328,747 346,684 L 369,508 C 377,444 397,411 428,410 L 1163,1116 C 1174,1127 1196,1133 1229,1133 1271,1133 1292,1118 1292,1087 L 1292,965 C 1292,929 1282,901 1262,881 L 442,47 C 390,-6 338,-33 285,-33 Z"/>
  </g>
  <g id="bullet-char-template-9679" transform="scale(0.00048828125,-0.00048828125)">
   <path d="M 813,0 C 632,0 489,54 383,161 276,268 223,411 223,592 223,773 276,916 383,1023 489,1130 632,1184 813,1184 992,1184 1136,1130 1245,1023 1353,916 1407,772 1407,592 1407,412 1353,268 1245,161 1136,54 992,0 813,0 Z"/>
  </g>
  <g id="bullet-char-template-8226" transform="scale(0.00048828125,-0.00048828125)">
   <path d="M 346,457 C 273,457 209,483 155,535 101,586 74,649 74,723 74,796 101,859 155,911 209,963 273,989 346,989 419,989 480,963 531,910 582,859 608,796 608,723 608,648 583,586 532,535 482,483 420,457 346,457 Z"/>
  </g>
  <g id="bullet-char-template-8211" transform="scale(0.00048828125,-0.00048828125)">
   <path d="M -4,459 L 1135,459 1135,606 -4,606 -4,459 Z"/>
  </g>
  <g id="bullet-char-template-61548" transform="scale(0.00048828125,-0.00048828125)">
   <path d="M 173,740 C 173,903 231,1043 346,1159 462,1274 601,1332 765,1332 928,1332 1067,1274 1183,1159 1299,1043 1357,903 1357,740 1357,577 1299,437 1183,322 1067,206 928,148 765,148 601,148 462,206 346,322 231,437 173,577 173,740 Z"/>
  </g>
 </defs>
 <g>
  <g id="id2" class="Master_Slide">
   <g id="bg-id2" class="Background"/>
   <g id="bo-id2" class="BackgroundObjects"/>
  </g>
 </g>
 <g class="SlideGroup">
  <g>
   <g id="container-id1">
    <g id="id1" class="Slide" clip-path="url(#presentation_clip_path)">
     <g class="Page">
      <g class="Graphic">
       <g id="id3">
        <rect class="BoundingBox" stroke="none" fill="none" x="5702" y="11548" width="10185" height="4843"/>
        <defs>
         <clipPath id="clip_path_1" clipPathUnits="userSpaceOnUse">
          <path d="M 5702,11548 L 15886,11548 15886,16390 5702,16390 5702,11548 Z "/>
         </clipPath>
        </defs>
        <g clip-path="url(#clip_path_1)">
         <path fill="rgb(255,255,255)" stroke="none" d="M 5702,11540 L 15869,11540 15869,16374 5702,16374 5702,11540 Z "/>
         <path fill="none" stroke="rgb(255,255,255)" stroke-width="34" stroke-linejoin="round" stroke-linecap="round" d="M 5702,11540 L 15869,11540 15869,16374 5702,16374 5702,11540 Z "/>
         <path fill="none" stroke="rgb(0,0,0)" stroke-width="34" stroke-linejoin="round" stroke-linecap="round" d="M 6523,13741 L 7514,13741 7514,13741 "/>
         <path fill="none" stroke="rgb(0,0,0)" stroke-width="34" stroke-linejoin="round" stroke-linecap="round" d="M 7514,13741 L 7514,12835 7522,12835 "/>
         <path fill="none" stroke="rgb(0,0,0)" stroke-width="34" stroke-linejoin="round" stroke-linecap="round" d="M 6523,12835 L 6650,12979 6828,13072 7023,13106 7217,13072 7387,12979 7514,12835 7514,12835 "/>
         <path fill="none" stroke="rgb(0,0,0)" stroke-width="34" stroke-linejoin="round" stroke-linecap="round" d="M 6523,12835 L 6523,13741 6523,13741 "/>
         <path fill="none" stroke="rgb(0,0,0)" stroke-width="34" stroke-linejoin="round" stroke-linecap="round" d="M 7514,11616 L 7514,11844 7522,11844 "/>
         <path fill="none" stroke="rgb(0,0,0)" stroke-width="34" stroke-linejoin="round" stroke-linecap="round" d="M 7514,11844 L 7099,12564 7099,12564 "/>
         <path fill="none" stroke="rgb(0,0,0)" stroke-width="34" stroke-linejoin="round" stroke-linecap="round" d="M 6938,12564 L 6989,12606 7048,12606 7099,12564 7099,12564 "/>
         <path fill="none" stroke="rgb(0,0,0)" stroke-width="34" stroke-linejoin="round" stroke-linecap="round" d="M 6938,12564 L 6523,11844 6523,11844 "/>
         <path fill="none" stroke="rgb(0,0,0)" stroke-width="34" stroke-linejoin="round" stroke-linecap="round" d="M 6523,11844 L 6523,11616 6523,11616 "/>
         <path fill="none" stroke="rgb(0,0,0)" stroke-width="34" stroke-linejoin="round" stroke-linecap="round" d="M 6523,11616 L 7514,11616 7514,11616 "/>
         <path fill="none" stroke="rgb(0,0,0)" stroke-width="34" stroke-linejoin="round" stroke-linecap="round" d="M 7006,15451 L 7226,15426 7438,15341 7607,15206 7607,15206 "/>
         <path fill="none" stroke="rgb(0,0,0)" stroke-width="34" stroke-linejoin="round" stroke-linecap="round" d="M 8208,14952 L 7988,14986 7785,15070 7607,15206 7607,15206 "/>
         <path fill="none" stroke="rgb(0,0,0)" stroke-width="34" stroke-linejoin="round" stroke-linecap="round" d="M 8208,14952 L 10350,14952 10350,14952 "/>
         <path fill="none" stroke="rgb(0,0,0)" stroke-width="34" stroke-linejoin="round" stroke-linecap="round" d="M 10350,14952 L 10401,14952 10401,14952 "/>
         <path fill="none" stroke="rgb(0,0,0)" stroke-width="34" stroke-linejoin="round" stroke-linecap="round" d="M 7006,15451 L 5939,15451 5939,15451 "/>
         <path fill="none" stroke="rgb(0,0,0)" stroke-width="34" stroke-linejoin="round" stroke-linecap="round" d="M 7607,15697 L 7429,15561 7226,15485 7006,15451 7006,15451 "/>
         <path fill="none" stroke="rgb(0,0,0)" stroke-width="34" stroke-linejoin="round" stroke-linecap="round" d="M 7607,15697 L 7785,15832 7988,15917 8208,15951 8208,15951 "/>
         <path fill="none" stroke="rgb(0,0,0)" stroke-width="34" stroke-linejoin="round" stroke-linecap="round" d="M 8208,15764 L 8284,15688 8284,15688 "/>
         <path fill="none" stroke="rgb(0,0,0)" stroke-width="34" stroke-linejoin="round" stroke-linecap="round" d="M 8208,15866 L 8310,15764 8310,15764 "/>
         <path fill="none" stroke="rgb(0,0,0)" stroke-width="34" stroke-linejoin="round" stroke-linecap="round" d="M 8208,15968 L 8310,15866 8310,15866 "/>
         <path fill="none" stroke="rgb(0,0,0)" stroke-width="34" stroke-linejoin="round" stroke-linecap="round" d="M 8208,16069 L 8310,15968 8310,15968 "/>
         <path fill="none" stroke="rgb(0,0,0)" stroke-width="34" stroke-linejoin="round" stroke-linecap="round" d="M 8208,16171 L 8310,16069 8310,16069 "/>
         <path fill="none" stroke="rgb(0,0,0)" stroke-width="34" stroke-linejoin="round" stroke-linecap="round" d="M 8267,16213 L 8310,16171 8310,16171 "/>
         <path fill="none" stroke="rgb(0,0,0)" stroke-width="34" stroke-linejoin="round" stroke-linecap="round" d="M 8208,15688 L 8208,16213 8310,16213 8310,15688 8208,15688 Z "/>
         <path fill="none" stroke="rgb(0,0,0)" stroke-width="34" stroke-linejoin="round" stroke-linecap="round" d="M 11002,15206 L 11180,15341 11383,15426 11603,15451 11603,15451 "/>
         <path fill="none" stroke="rgb(0,0,0)" stroke-width="34" stroke-linejoin="round" stroke-linecap="round" d="M 11002,15206 L 10833,15070 10621,14986 10401,14952 10401,14952 "/>
         <path fill="none" stroke="rgb(0,0,0)" stroke-width="34" stroke-linejoin="round" stroke-linecap="round" d="M 10401,14952 L 10621,14926 10824,14842 11002,14706 11002,14706 "/>
         <path fill="none" stroke="rgb(0,0,0)" stroke-width="34" stroke-linejoin="round" stroke-linecap="round" d="M 11603,14452 L 11383,14486 11180,14571 11002,14706 11002,14706 "/>
         <path fill="none" stroke="rgb(0,0,0)" stroke-width="34" stroke-linejoin="round" stroke-linecap="round" d="M 9165,12361 L 9385,12361 9385,12361 "/>
         <path fill="none" stroke="rgb(0,0,0)" stroke-width="34" stroke-linejoin="round" stroke-linecap="round" d="M 9385,12361 L 10113,12784 10113,12784 "/>
         <path fill="none" stroke="rgb(0,0,0)" stroke-width="34" stroke-linejoin="round" stroke-linecap="round" d="M 10113,12937 L 10155,12894 10155,12826 10113,12784 10113,12784 "/>
         <path fill="none" stroke="rgb(0,0,0)" stroke-width="34" stroke-linejoin="round" stroke-linecap="round" d="M 10113,12937 L 9385,13360 9385,13360 "/>
         <path fill="none" stroke="rgb(0,0,0)" stroke-width="34" stroke-linejoin="round" stroke-linecap="round" d="M 9385,13360 L 9165,13360 9165,13360 "/>
         <path fill="none" stroke="rgb(0,0,0)" stroke-width="34" stroke-linejoin="round" stroke-linecap="round" d="M 9165,13360 L 9165,12361 9165,12361 "/>
         <path fill="none" stroke="rgb(0,0,0)" stroke-width="34" stroke-linejoin="round" stroke-linecap="round" d="M 11290,13360 L 11290,12361 11290,12361 "/>
         <path fill="none" stroke="rgb(0,0,0)" stroke-width="34" stroke-linejoin="round" stroke-linecap="round" d="M 11290,12361 L 10384,12361 10384,12361 "/>
         <path fill="none" stroke="rgb(0,0,0)" stroke-width="34" stroke-linejoin="round" stroke-linecap="round" d="M 10384,13360 L 10528,13224 10621,13055 10655,12860 10621,12666 10528,12496 10384,12361 10384,12361 "/>
         <path fill="none" stroke="rgb(0,0,0)" stroke-width="34" stroke-linejoin="round" stroke-linecap="round" d="M 10384,13360 L 11290,13360 11290,13360 "/>
         <path fill="none" stroke="rgb(0,0,0)" stroke-width="34" stroke-linejoin="round" stroke-linecap="round" d="M 12619,12691 L 12839,12691 12839,12691 "/>
         <path fill="none" stroke="rgb(0,0,0)" stroke-width="34" stroke-linejoin="round" stroke-linecap="round" d="M 12839,12691 L 13567,13106 13567,13106 "/>
         <path fill="none" stroke="rgb(0,0,0)" stroke-width="34" stroke-linejoin="round" stroke-linecap="round" d="M 13567,13267 L 13610,13216 13610,13157 13567,13106 13567,13106 "/>
         <path fill="none" stroke="rgb(0,0,0)" stroke-width="34" stroke-linejoin="round" stroke-linecap="round" d="M 13567,13267 L 12839,13682 12839,13682 "/>
         <path fill="none" stroke="rgb(0,0,0)" stroke-width="34" stroke-linejoin="round" stroke-linecap="round" d="M 12839,13690 L 12619,13690 12619,13690 "/>
         <path fill="none" stroke="rgb(0,0,0)" stroke-width="34" stroke-linejoin="round" stroke-linecap="round" d="M 12619,13682 L 12619,12691 12619,12691 "/>
         <path fill="none" stroke="rgb(0,0,0)" stroke-width="34" stroke-linejoin="round" stroke-linecap="round" d="M 14736,13682 L 14736,12691 14744,12691 "/>
         <path fill="none" stroke="rgb(0,0,0)" stroke-width="34" stroke-linejoin="round" stroke-linecap="round" d="M 14736,12691 L 13830,12691 13830,12691 "/>
         <path fill="none" stroke="rgb(0,0,0)" stroke-width="34" stroke-linejoin="round" stroke-linecap="round" d="M 13830,13682 L 13982,13555 14075,13385 14109,13191 14075,12996 13982,12818 13830,12691 13830,12691 "/>
         <path fill="none" stroke="rgb(0,0,0)" stroke-width="34" stroke-linejoin="round" stroke-linecap="round" d="M 13830,13690 L 14736,13690 14736,13690 "/>
         <path fill="none" stroke="rgb(0,0,0)" stroke-width="34" stroke-linejoin="round" stroke-linecap="round" d="M 14744,12979 L 15049,12979 15049,11988 14143,11988 14143,11988 "/>
         <path fill="none" stroke="rgb(0,0,0)" stroke-width="34" stroke-linejoin="round" stroke-linecap="round" d="M 14380,12691 L 14422,12496 14388,12293 14295,12124 14143,11988 14143,11988 "/>
         <path fill="none" stroke="rgb(0,0,0)" stroke-width="34" stroke-linejoin="round" stroke-linecap="round" d="M 12932,12742 L 12932,11988 13152,11988 13880,12403 13880,12403 "/>
         <path fill="none" stroke="rgb(0,0,0)" stroke-width="34" stroke-linejoin="round" stroke-linecap="round" d="M 13880,12564 L 13914,12513 13914,12454 13880,12403 13880,12403 "/>
         <path fill="none" stroke="rgb(0,0,0)" stroke-width="34" stroke-linejoin="round" stroke-linecap="round" d="M 13880,12564 L 13246,12928 13246,12928 "/>
         <path fill="none" stroke="rgb(0,0,0)" stroke-width="34" stroke-linejoin="round" stroke-linecap="round" d="M 11603,14452 L 13330,14452 13330,14452 "/>
         <path fill="none" stroke="rgb(0,0,0)" stroke-width="34" stroke-linejoin="round" stroke-linecap="round" d="M 11603,15451 L 13330,15451 13330,15451 "/>
         <path fill="none" stroke="rgb(0,0,0)" stroke-width="34" stroke-linejoin="round" stroke-linecap="round" d="M 13931,14706 L 14101,14842 14312,14926 14532,14952 14532,14952 "/>
         <path fill="none" stroke="rgb(0,0,0)" stroke-width="34" stroke-linejoin="round" stroke-linecap="round" d="M 14532,14952 L 14312,14986 14101,15070 13931,15206 13931,15206 "/>
         <path fill="none" stroke="rgb(0,0,0)" stroke-width="34" stroke-linejoin="round" stroke-linecap="round" d="M 14583,14952 L 14532,14952 14532,14952 "/>
         <path fill="none" stroke="rgb(0,0,0)" stroke-width="34" stroke-linejoin="round" stroke-linecap="round" d="M 13931,14706 L 13753,14571 13550,14486 13330,14452 13330,14452 "/>
         <path fill="none" stroke="rgb(0,0,0)" stroke-width="34" stroke-linejoin="round" stroke-linecap="round" d="M 13330,15451 L 13550,15426 13753,15341 13931,15206 13931,15206 "/>
         <path fill="none" stroke="rgb(0,0,0)" stroke-width="34" stroke-linejoin="round" stroke-linecap="round" d="M 14583,14952 L 15625,14952 15625,14952 "/>
        </g>
       </g>
      </g>
     </g>
    </g>
   </g>
  </g>
 </g>
</svg>