<?xml version='1.0' encoding='UTF-8'?>
<!DOCTYPE svg PUBLIC "-//W3C//DTD SVG 1.1//EN" "http://www.w3.org/Graphics/SVG/1.1/DTD/svg11.dtd">
<svg xmlns="http://www.w3.org/2000/svg" xmlns:ooo="http://xml.openoffice.org/svg/export" xmlns:xlink="http://www.w3.org/1999/xlink" xmlns:presentation="http://sun.com/xmlns/staroffice/presentation" xmlns:smil="http://www.w3.org/2001/SMIL20/" xmlns:anim="urn:oasis:names:tc:opendocument:xmlns:animation:1.0" xmlns:svg="urn:oasis:names:tc:opendocument:xmlns:svg-compatible:1.0" version="1.2" width="43.430mm" height="41.570mm" viewBox="8623 11891 4343 4157" preserveAspectRatio="xMidYMid" fill-rule="evenodd" stroke-width="28.222" stroke-linejoin="round" xml:space="preserve">
 <defs class="ClipPathGroup">
  <clipPath id="presentation_clip_path" clipPathUnits="userSpaceOnUse">
   <rect x="0" y="0" width="21590" height="27940"/>
  </clipPath>
  <clipPath id="presentation_clip_path_shrink" clipPathUnits="userSpaceOnUse">
   <rect x="21" y="27" width="21547" height="27885"/>
  </clipPath>
 </defs>
 <defs>
  </defs>
 <defs class="TextShapeIndex">
  <g ooo:slide="id1" ooo:id-list="id3"/>
 </defs>
 <defs class="EmbeddedBulletChars">
  <g id="bullet-char-template-57356" transform="scale(0.00048828125,-0.00048828125)">
   <path d="M 580,1141 L 1163,571 580,0 -4,571 580,1141 Z"/>
  </g>
  <g id="bullet-char-template-57354" transform="scale(0.00048828125,-0.00048828125)">
   <path d="M 8,1128 L 1137,1128 1137,0 8,0 8,1128 Z"/>
  </g>
  <g id="bullet-char-template-10146" transform="scale(0.00048828125,-0.00048828125)">
   <path d="M 174,0 L 602,739 174,1481 1456,739 174,0 Z M 1358,739 L 309,1346 659,739 1358,739 Z"/>
  </g>
  <g id="bullet-char-template-10132" transform="scale(0.00048828125,-0.00048828125)">
   <path d="M 2015,739 L 1276,0 717,0 1260,543 174,543 174,936 1260,936 717,1481 1274,1481 2015,739 Z"/>
  </g>
  <g id="bullet-char-template-10007" transform="scale(0.00048828125,-0.00048828125)">
   <path d="M 0,-2 C -7,14 -16,27 -25,37 L 356,567 C 262,823 215,952 215,954 215,979 228,992 255,992 264,992 276,990 289,987 310,991 331,999 354,1012 L 381,999 492,748 772,1049 836,1024 860,1049 C 881,1039 901,1025 922,1006 886,937 835,863 770,784 769,783 710,716 594,584 L 774,223 C 774,196 753,168 711,139 L 727,119 C 717,90 699,76 672,76 641,76 570,178 457,381 L 164,-76 C 142,-110 111,-127 72,-127 30,-127 9,-110 8,-76 1,-67 -2,-52 -2,-32 -2,-23 -1,-13 0,-2 Z"/>
  </g>
  <g id="bullet-char-template-10004" transform="scale(0.00048828125,-0.00048828125)">
   <path d="M 285,-33 C 182,-33 111,30 74,156 52,228 41,333 41,471 41,549 55,616 82,672 116,743 169,778 240,778 293,778 328,747 346,684 L 369,508 C 377,444 397,411 428,410 L 1163,1116 C 1174,1127 1196,1133 1229,1133 1271,1133 1292,1118 1292,1087 L 1292,965 C 1292,929 1282,901 1262,881 L 442,47 C 390,-6 338,-33 285,-33 Z"/>
  </g>
  <g id="bullet-char-template-9679" transform="scale(0.00048828125,-0.00048828125)">
   <path d="M 813,0 C 632,0 489,54 383,161 276,268 223,411 223,592 223,773 276,916 383,1023 489,1130 632,1184 813,1184 992,1184 1136,1130 1245,1023 1353,916 1407,772 1407,592 1407,412 1353,268 1245,161 1136,54 992,0 813,0 Z"/>
  </g>
  <g id="bullet-char-template-8226" transform="scale(0.00048828125,-0.00048828125)">
   <path d="M 346,457 C 273,457 209,483 155,535 101,586 74,649 74,723 74,796 101,859 155,911 209,963 273,989 346,989 419,989 480,963 531,910 582,859 608,796 608,723 608,648 583,586 532,535 482,483 420,457 346,457 Z"/>
  </g>
  <g id="bullet-char-template-8211" transform="scale(0.00048828125,-0.00048828125)">
   <path d="M -4,459 L 1135,459 1135,606 -4,606 -4,459 Z"/>
  </g>
  <g id="bullet-char-template-61548" transform="scale(0.00048828125,-0.00048828125)">
   <path d="M 173,740 C 173,903 231,1043 346,1159 462,1274 601,1332 765,1332 928,1332 1067,1274 1183,1159 1299,1043 1357,903 1357,740 1357,577 1299,437 1183,322 1067,206 928,148 765,148 601,148 462,206 346,322 231,437 173,577 173,740 Z"/>
  </g>
 </defs>
 <g>
  <g id="id2" class="Master_Slide">
   <g id="bg-id2" class="Background"/>
   <g id="bo-id2" class="BackgroundObjects"/>
  </g>
 </g>
 <g class="SlideGroup">
  <g>
   <g id="container-id1">
    <g id="id1" class="Slide" clip-path="url(#presentation_clip_path)">
     <g class="Page">
      <g class="Graphic">
       <g id="id3">
        <rect class="BoundingBox" stroke="none" fill="none" x="8623" y="11891" width="4343" height="4157"/>
        <defs>
         <clipPath id="clip_path_1" clipPathUnits="userSpaceOnUse">
          <path d="M 8623,11891 L 12965,11891 12965,16047 8623,16047 8623,11891 Z "/>
         </clipPath>
        </defs>
        <g clip-path="url(#clip_path_1)">
         <path fill="rgb(255,255,255)" stroke="none" d="M 8631,11883 L 12956,11883 12956,16031 8631,16031 8631,11883 Z "/>
         <path fill="none" stroke="rgb(255,255,255)" stroke-width="25" stroke-linejoin="round" stroke-linecap="round" d="M 8631,11883 L 12956,11883 12956,16031 8631,16031 8631,11883 Z "/>
         <path fill="none" stroke="rgb(0,0,0)" stroke-width="25" stroke-linejoin="round" stroke-linecap="round" d="M 9106,12196 L 9165,12433 9165,12433 "/>
         <path fill="none" stroke="rgb(0,0,0)" stroke-width="25" stroke-linejoin="round" stroke-linecap="round" d="M 9182,12475 L 9182,12484 9182,12484 "/>
         <path fill="none" stroke="rgb(0,0,0)" stroke-width="25" stroke-linejoin="round" stroke-linecap="round" d="M 9190,12534 L 9300,12907 9300,12907 "/>
         <path fill="none" stroke="rgb(0,0,0)" stroke-width="25" stroke-linejoin="round" stroke-linecap="round" d="M 9309,12958 L 9317,12966 9317,12966 "/>
         <path fill="none" stroke="rgb(0,0,0)" stroke-width="25" stroke-linejoin="round" stroke-linecap="round" d="M 9326,13009 L 9427,13381 9427,13381 "/>
         <path fill="none" stroke="rgb(0,0,0)" stroke-width="25" stroke-linejoin="round" stroke-linecap="round" d="M 9444,13432 L 9444,13440 9444,13440 "/>
         <path fill="none" stroke="rgb(0,0,0)" stroke-width="25" stroke-linejoin="round" stroke-linecap="round" d="M 9461,13483 L 9563,13855 9563,13855 "/>
         <path fill="none" stroke="rgb(0,0,0)" stroke-width="25" stroke-linejoin="round" stroke-linecap="round" d="M 9571,13906 L 9571,13914 9571,13914 "/>
         <path fill="none" stroke="rgb(0,0,0)" stroke-width="25" stroke-linejoin="round" stroke-linecap="round" d="M 9588,13965 L 9690,14338 9690,14338 "/>
         <path fill="none" stroke="rgb(0,0,0)" stroke-width="25" stroke-linejoin="round" stroke-linecap="round" d="M 9707,14380 L 9707,14389 9707,14389 "/>
         <path fill="none" stroke="rgb(0,0,0)" stroke-width="25" stroke-linejoin="round" stroke-linecap="round" d="M 9724,14439 L 9783,14668 9783,14668 "/>
         <path fill="none" stroke="rgb(0,0,0)" stroke-width="25" stroke-linejoin="round" stroke-linecap="round" d="M 9292,14228 L 9978,14033 9978,14033 "/>
         <path fill="none" stroke="rgb(0,0,0)" stroke-width="25" stroke-linejoin="round" stroke-linecap="round" d="M 9978,14033 L 9808,13406 9808,13406 "/>
         <path fill="none" stroke="rgb(0,0,0)" stroke-width="25" stroke-linejoin="round" stroke-linecap="round" d="M 9122,13601 L 9241,13669 9376,13703 9512,13694 9639,13635 9740,13533 9808,13406 9808,13406 "/>
         <path fill="none" stroke="rgb(0,0,0)" stroke-width="25" stroke-linejoin="round" stroke-linecap="round" d="M 9122,13593 L 9292,14228 9292,14228 "/>
         <path fill="none" stroke="rgb(0,0,0)" stroke-width="25" stroke-linejoin="round" stroke-linecap="round" d="M 9470,12153 L 9470,12391 9470,12391 "/>
         <path fill="none" stroke="rgb(0,0,0)" stroke-width="25" stroke-linejoin="round" stroke-linecap="round" d="M 9470,12441 L 9470,12450 9470,12450 "/>
         <path fill="none" stroke="rgb(0,0,0)" stroke-width="25" stroke-linejoin="round" stroke-linecap="round" d="M 9470,12492 L 9470,12882 9470,12882 "/>
         <path fill="none" stroke="rgb(0,0,0)" stroke-width="25" stroke-linejoin="round" stroke-linecap="round" d="M 9470,12932 L 9470,12941 9470,12941 "/>
         <path fill="none" stroke="rgb(0,0,0)" stroke-width="25" stroke-linejoin="round" stroke-linecap="round" d="M 9470,12992 L 9470,13381 9470,13381 "/>
         <path fill="none" stroke="rgb(0,0,0)" stroke-width="25" stroke-linejoin="round" stroke-linecap="round" d="M 9470,13423 L 9470,13432 9470,13432 "/>
         <path fill="none" stroke="rgb(0,0,0)" stroke-width="25" stroke-linejoin="round" stroke-linecap="round" d="M 9470,13483 L 9470,13872 9470,13872 "/>
         <path fill="none" stroke="rgb(0,0,0)" stroke-width="25" stroke-linejoin="round" stroke-linecap="round" d="M 9470,13923 L 9470,13931 9470,13931 "/>
         <path fill="none" stroke="rgb(0,0,0)" stroke-width="25" stroke-linejoin="round" stroke-linecap="round" d="M 9470,13974 L 9470,14363 9470,14363 "/>
         <path fill="none" stroke="rgb(0,0,0)" stroke-width="25" stroke-linejoin="round" stroke-linecap="round" d="M 9470,14414 L 9470,14422 9470,14422 "/>
         <path fill="none" stroke="rgb(0,0,0)" stroke-width="25" stroke-linejoin="round" stroke-linecap="round" d="M 9470,14473 L 9470,14710 9470,14710 "/>
         <path fill="none" stroke="rgb(0,0,0)" stroke-width="25" stroke-linejoin="round" stroke-linecap="round" d="M 9571,12568 L 9614,12721 9614,12721 "/>
         <path fill="none" stroke="rgb(0,0,0)" stroke-width="25" stroke-linejoin="round" stroke-linecap="round" d="M 9614,12721 L 9461,13305 9461,13305 "/>
         <path fill="none" stroke="rgb(0,0,0)" stroke-width="25" stroke-linejoin="round" stroke-linecap="round" d="M 9360,13330 L 9393,13347 9444,13339 9470,13305 9470,13305 "/>
         <path fill="none" stroke="rgb(0,0,0)" stroke-width="25" stroke-linejoin="round" stroke-linecap="round" d="M 9360,13330 L 8928,12907 8928,12907 "/>
         <path fill="none" stroke="rgb(0,0,0)" stroke-width="25" stroke-linejoin="round" stroke-linecap="round" d="M 8928,12907 L 8885,12755 8885,12755 "/>
         <path fill="none" stroke="rgb(0,0,0)" stroke-width="25" stroke-linejoin="round" stroke-linecap="round" d="M 8885,12755 L 9571,12568 9571,12568 "/>
         <path fill="none" stroke="rgb(0,0,0)" stroke-width="25" stroke-linejoin="round" stroke-linecap="round" d="M 9461,15379 L 9690,15328 9893,15201 9893,15201 "/>
         <path fill="none" stroke="rgb(0,0,0)" stroke-width="25" stroke-linejoin="round" stroke-linecap="round" d="M 10316,15024 L 10088,15066 9893,15201 9893,15201 "/>
         <path fill="none" stroke="rgb(0,0,0)" stroke-width="25" stroke-linejoin="round" stroke-linecap="round" d="M 10316,15024 L 11849,15024 11849,15024 "/>
         <path fill="none" stroke="rgb(0,0,0)" stroke-width="25" stroke-linejoin="round" stroke-linecap="round" d="M 11849,15024 L 11891,15024 11891,15024 "/>
         <path fill="none" stroke="rgb(0,0,0)" stroke-width="25" stroke-linejoin="round" stroke-linecap="round" d="M 9461,15379 L 8699,15379 8699,15379 "/>
         <path fill="none" stroke="rgb(0,0,0)" stroke-width="25" stroke-linejoin="round" stroke-linecap="round" d="M 9893,15557 L 9690,15421 9461,15379 9461,15379 "/>
         <path fill="none" stroke="rgb(0,0,0)" stroke-width="25" stroke-linejoin="round" stroke-linecap="round" d="M 9893,15557 L 10088,15684 10316,15735 10316,15735 "/>
         <path fill="none" stroke="rgb(0,0,0)" stroke-width="25" stroke-linejoin="round" stroke-linecap="round" d="M 10316,15599 L 10375,15540 10375,15540 "/>
         <path fill="none" stroke="rgb(0,0,0)" stroke-width="25" stroke-linejoin="round" stroke-linecap="round" d="M 10316,15675 L 10392,15599 10392,15599 "/>
         <path fill="none" stroke="rgb(0,0,0)" stroke-width="25" stroke-linejoin="round" stroke-linecap="round" d="M 10316,15743 L 10392,15675 10392,15675 "/>
         <path fill="none" stroke="rgb(0,0,0)" stroke-width="25" stroke-linejoin="round" stroke-linecap="round" d="M 10316,15819 L 10392,15743 10392,15743 "/>
         <path fill="none" stroke="rgb(0,0,0)" stroke-width="25" stroke-linejoin="round" stroke-linecap="round" d="M 10316,15887 L 10392,15819 10392,15819 "/>
         <path fill="none" stroke="rgb(0,0,0)" stroke-width="25" stroke-linejoin="round" stroke-linecap="round" d="M 10359,15921 L 10392,15887 10392,15887 "/>
         <path fill="none" stroke="rgb(0,0,0)" stroke-width="25" stroke-linejoin="round" stroke-linecap="round" d="M 10316,15540 L 10316,15921 10392,15921 10392,15540 10316,15540 Z "/>
         <path fill="none" stroke="rgb(0,0,0)" stroke-width="25" stroke-linejoin="round" stroke-linecap="round" d="M 11891,15024 L 12128,14973 12323,14837 12323,14837 "/>
         <path fill="none" stroke="rgb(0,0,0)" stroke-width="25" stroke-linejoin="round" stroke-linecap="round" d="M 12754,14660 L 12517,14710 12323,14837 12323,14837 "/>
         <path fill="none" stroke="rgb(0,0,0)" stroke-width="25" stroke-linejoin="round" stroke-linecap="round" d="M 11891,12153 L 11891,12391 11891,12391 "/>
         <path fill="none" stroke="rgb(0,0,0)" stroke-width="25" stroke-linejoin="round" stroke-linecap="round" d="M 11891,12441 L 11891,12450 11891,12450 "/>
         <path fill="none" stroke="rgb(0,0,0)" stroke-width="25" stroke-linejoin="round" stroke-linecap="round" d="M 11891,12492 L 11891,12882 11891,12882 "/>
         <path fill="none" stroke="rgb(0,0,0)" stroke-width="25" stroke-linejoin="round" stroke-linecap="round" d="M 11891,12932 L 11891,12941 11891,12941 "/>
         <path fill="none" stroke="rgb(0,0,0)" stroke-width="25" stroke-linejoin="round" stroke-linecap="round" d="M 11891,12992 L 11891,13381 11891,13381 "/>
         <path fill="none" stroke="rgb(0,0,0)" stroke-width="25" stroke-linejoin="round" stroke-linecap="round" d="M 11891,13423 L 11891,13432 11891,13432 "/>
         <path fill="none" stroke="rgb(0,0,0)" stroke-width="25" stroke-linejoin="round" stroke-linecap="round" d="M 11891,13483 L 11891,13872 11891,13872 "/>
         <path fill="none" stroke="rgb(0,0,0)" stroke-width="25" stroke-linejoin="round" stroke-linecap="round" d="M 11891,13923 L 11891,13931 11891,13931 "/>
         <path fill="none" stroke="rgb(0,0,0)" stroke-width="25" stroke-linejoin="round" stroke-linecap="round" d="M 11891,13974 L 11891,14363 11891,14363 "/>
         <path fill="none" stroke="rgb(0,0,0)" stroke-width="25" stroke-linejoin="round" stroke-linecap="round" d="M 11891,14414 L 11891,14422 11891,14422 "/>
         <path fill="none" stroke="rgb(0,0,0)" stroke-width="25" stroke-linejoin="round" stroke-linecap="round" d="M 11891,14473 L 11891,14710 11891,14710 "/>
         <path fill="none" stroke="rgb(0,0,0)" stroke-width="25" stroke-linejoin="round" stroke-linecap="round" d="M 12323,15201 L 12128,15066 11891,15024 11891,15024 "/>
         <path fill="none" stroke="rgb(0,0,0)" stroke-width="25" stroke-linejoin="round" stroke-linecap="round" d="M 11849,15024 L 11891,15024 11891,15024 "/>
         <path fill="none" stroke="rgb(0,0,0)" stroke-width="25" stroke-linejoin="round" stroke-linecap="round" d="M 12323,15201 L 12517,15328 12754,15379 12754,15379 "/>
         <path fill="none" stroke="rgb(0,0,0)" stroke-width="25" stroke-linejoin="round" stroke-linecap="round" d="M 11493,12645 L 11611,12755 11611,12755 "/>
         <path fill="none" stroke="rgb(0,0,0)" stroke-width="25" stroke-linejoin="round" stroke-linecap="round" d="M 11611,12755 L 11781,13330 11781,13330 "/>
         <path fill="none" stroke="rgb(0,0,0)" stroke-width="25" stroke-linejoin="round" stroke-linecap="round" d="M 11705,13415 L 11747,13406 11781,13381 11781,13330 11781,13330 "/>
         <path fill="none" stroke="rgb(0,0,0)" stroke-width="25" stroke-linejoin="round" stroke-linecap="round" d="M 11705,13415 L 11120,13271 11120,13271 "/>
         <path fill="none" stroke="rgb(0,0,0)" stroke-width="25" stroke-linejoin="round" stroke-linecap="round" d="M 11120,13271 L 11002,13161 11002,13161 "/>
         <path fill="none" stroke="rgb(0,0,0)" stroke-width="25" stroke-linejoin="round" stroke-linecap="round" d="M 11002,13161 L 11493,12645 11493,12645 "/>
         <path fill="none" stroke="rgb(0,0,0)" stroke-width="25" stroke-linejoin="round" stroke-linecap="round" d="M 12102,14211 L 12594,13703 12594,13703 "/>
         <path fill="none" stroke="rgb(0,0,0)" stroke-width="25" stroke-linejoin="round" stroke-linecap="round" d="M 12594,13703 L 12128,13254 12128,13254 "/>
         <path fill="none" stroke="rgb(0,0,0)" stroke-width="25" stroke-linejoin="round" stroke-linecap="round" d="M 11637,13762 L 11772,13771 11908,13728 12018,13644 12102,13525 12136,13390 12128,13254 12128,13254 "/>
         <path fill="none" stroke="rgb(0,0,0)" stroke-width="25" stroke-linejoin="round" stroke-linecap="round" d="M 11637,13762 L 12102,14211 12102,14211 "/>
         <path fill="none" stroke="rgb(0,0,0)" stroke-width="25" stroke-linejoin="round" stroke-linecap="round" d="M 11891,12153 L 11891,12391 11891,12391 "/>
         <path fill="none" stroke="rgb(0,0,0)" stroke-width="25" stroke-linejoin="round" stroke-linecap="round" d="M 11891,12441 L 11891,12450 11891,12450 "/>
         <path fill="none" stroke="rgb(0,0,0)" stroke-width="25" stroke-linejoin="round" stroke-linecap="round" d="M 11891,12492 L 11891,12882 11891,12882 "/>
         <path fill="none" stroke="rgb(0,0,0)" stroke-width="25" stroke-linejoin="round" stroke-linecap="round" d="M 11891,12932 L 11891,12941 11891,12941 "/>
         <path fill="none" stroke="rgb(0,0,0)" stroke-width="25" stroke-linejoin="round" stroke-linecap="round" d="M 11891,12992 L 11891,13381 11891,13381 "/>
         <path fill="none" stroke="rgb(0,0,0)" stroke-width="25" stroke-linejoin="round" stroke-linecap="round" d="M 11891,13423 L 11891,13432 11891,13432 "/>
         <path fill="none" stroke="rgb(0,0,0)" stroke-width="25" stroke-linejoin="round" stroke-linecap="round" d="M 11891,13483 L 11891,13872 11891,13872 "/>
         <path fill="none" stroke="rgb(0,0,0)" stroke-width="25" stroke-linejoin="round" stroke-linecap="round" d="M 11891,13923 L 11891,13931 11891,13931 "/>
         <path fill="none" stroke="rgb(0,0,0)" stroke-width="25" stroke-linejoin="round" stroke-linecap="round" d="M 11891,13974 L 11891,14363 11891,14363 "/>
         <path fill="none" stroke="rgb(0,0,0)" stroke-width="25" stroke-linejoin="round" stroke-linecap="round" d="M 11891,14414 L 11891,14422 11891,14422 "/>
         <path fill="none" stroke="rgb(0,0,0)" stroke-width="25" stroke-linejoin="round" stroke-linecap="round" d="M 11891,14473 L 11891,14710 11891,14710 "/>
         <path fill="none" stroke="rgb(0,0,0)" stroke-width="25" stroke-linejoin="round" stroke-linecap="round" d="M 10900,12577 L 11078,12738 11078,12738 "/>
         <path fill="none" stroke="rgb(0,0,0)" stroke-width="25" stroke-linejoin="round" stroke-linecap="round" d="M 11112,12772 L 11120,12780 11120,12780 "/>
         <path fill="none" stroke="rgb(0,0,0)" stroke-width="25" stroke-linejoin="round" stroke-linecap="round" d="M 11154,12814 L 11434,13085 11434,13085 "/>
         <path fill="none" stroke="rgb(0,0,0)" stroke-width="25" stroke-linejoin="round" stroke-linecap="round" d="M 11468,13119 L 11476,13119 11476,13119 "/>
         <path fill="none" stroke="rgb(0,0,0)" stroke-width="25" stroke-linejoin="round" stroke-linecap="round" d="M 11510,13152 L 11789,13423 11789,13423 "/>
         <path fill="none" stroke="rgb(0,0,0)" stroke-width="25" stroke-linejoin="round" stroke-linecap="round" d="M 11823,13457 L 11832,13466 11832,13466 "/>
         <path fill="none" stroke="rgb(0,0,0)" stroke-width="25" stroke-linejoin="round" stroke-linecap="round" d="M 11865,13500 L 12145,13762 12145,13762 "/>
         <path fill="none" stroke="rgb(0,0,0)" stroke-width="25" stroke-linejoin="round" stroke-linecap="round" d="M 12179,13796 L 12187,13804 12187,13804 "/>
         <path fill="none" stroke="rgb(0,0,0)" stroke-width="25" stroke-linejoin="round" stroke-linecap="round" d="M 12221,13838 L 12509,14101 12509,14101 "/>
         <path fill="none" stroke="rgb(0,0,0)" stroke-width="25" stroke-linejoin="round" stroke-linecap="round" d="M 12534,14143 L 12543,14143 12543,14143 "/>
         <path fill="none" stroke="rgb(0,0,0)" stroke-width="25" stroke-linejoin="round" stroke-linecap="round" d="M 12577,14177 L 12754,14346 12754,14346 "/>
        </g>
        <defs>
         <clipPath id="clip_path_2" clipPathUnits="userSpaceOnUse">
          <path d="M 11239,12103 L 11637,12103 11637,12450 11239,12450 11239,12103 Z "/>
         </clipPath>
        </defs>
        <g clip-path="url(#clip_path_2)">
         <g class="OutlinedText"><path d="M 89,655 C 89,918 142,1120 249,1262 330,1369 426,1422 539,1422 648,1422 742,1371 819,1268 927,1125 981,930 981,683 981,448 928,263 822,127 739,22 642,-31 530,-31 469,-31 414,-16 364,13 314,42 270,85 231,140 192,195 163,254 142,316 107,423 89,536 89,655 Z M 788,726 C 787,900 771,1040 738,1145 713,1226 679,1283 637,1318 606,1343 571,1356 531,1356 486,1356 444,1338 406,1303 368,1268 339,1209 320,1126 300,1043 287,910 280,726 L 788,726 Z M 280,660 C 283,541 292,435 307,340 318,268 338,205 366,152 383,120 407,93 439,71 471,48 505,37 542,37 585,37 625,57 664,97 702,137 731,201 751,290 770,379 782,502 786,660 L 280,660 Z " transform="translate(11239,12341) scale(0.12,-0.12)" fill="rgb(0,0,0)" stroke="none"/><path d="M 939,261 L 844,0 44,0 44,42 C 319,291 503,493 596,649 655,749 685,845 685,936 685,1022 659,1093 606,1148 553,1203 490,1231 417,1231 350,1231 291,1212 238,1173 185,1134 145,1076 120,1001 L 83,1001 C 100,1124 143,1219 212,1285 281,1351 367,1384 470,1384 580,1384 672,1349 746,1278 819,1207 856,1123 856,1026 856,958 839,889 806,818 757,711 676,597 564,475 401,296 298,188 257,151 L 611,151 C 708,151 775,159 812,175 848,191 878,220 902,261 L 939,261 Z " transform="translate(11365.788,12341) scale(0.12,-0.12)" fill="rgb(0,0,0)" stroke="none"/></g></g>
        <g clip-path="url(#clip_path_1)">
         <path fill="rgb(0,0,0)" stroke="none" d="M 12814,14660 L 12797,14617 12754,14660 12814,14660 Z "/>
         <path fill="none" stroke="rgb(0,0,0)" stroke-width="25" stroke-linejoin="round" stroke-linecap="round" d="M 12814,14660 L 12797,14617 12754,14660 12814,14660 Z "/>
         <path fill="none" stroke="rgb(0,0,0)" stroke-width="25" stroke-linejoin="round" stroke-linecap="round" d="M 12814,14660 L 12797,14617 12754,14660 12814,14660 Z "/>
         <path fill="rgb(0,0,0)" stroke="none" d="M 12797,14617 L 12754,14600 12754,14660 12797,14617 Z "/>
         <path fill="none" stroke="rgb(0,0,0)" stroke-width="25" stroke-linejoin="round" stroke-linecap="round" d="M 12797,14617 L 12754,14600 12754,14660 12797,14617 Z "/>
         <path fill="none" stroke="rgb(0,0,0)" stroke-width="25" stroke-linejoin="round" stroke-linecap="round" d="M 12797,14617 L 12754,14600 12754,14660 12797,14617 Z "/>
         <path fill="rgb(0,0,0)" stroke="none" d="M 12754,14600 L 12704,14617 12754,14660 12754,14600 Z "/>
         <path fill="none" stroke="rgb(0,0,0)" stroke-width="25" stroke-linejoin="round" stroke-linecap="round" d="M 12754,14600 L 12704,14617 12754,14660 12754,14600 Z "/>
         <path fill="none" stroke="rgb(0,0,0)" stroke-width="25" stroke-linejoin="round" stroke-linecap="round" d="M 12754,14600 L 12704,14617 12754,14660 12754,14600 Z "/>
         <path fill="rgb(0,0,0)" stroke="none" d="M 12704,14617 L 12687,14660 12754,14660 12704,14617 Z "/>
         <path fill="none" stroke="rgb(0,0,0)" stroke-width="25" stroke-linejoin="round" stroke-linecap="round" d="M 12704,14617 L 12687,14660 12754,14660 12704,14617 Z "/>
         <path fill="none" stroke="rgb(0,0,0)" stroke-width="25" stroke-linejoin="round" stroke-linecap="round" d="M 12704,14617 L 12687,14660 12754,14660 12704,14617 Z "/>
         <path fill="rgb(0,0,0)" stroke="none" d="M 12687,14660 L 12704,14710 12754,14660 12687,14660 Z "/>
         <path fill="none" stroke="rgb(0,0,0)" stroke-width="25" stroke-linejoin="round" stroke-linecap="round" d="M 12687,14660 L 12704,14710 12754,14660 12687,14660 Z "/>
         <path fill="none" stroke="rgb(0,0,0)" stroke-width="25" stroke-linejoin="round" stroke-linecap="round" d="M 12687,14660 L 12704,14710 12754,14660 12687,14660 Z "/>
         <path fill="rgb(0,0,0)" stroke="none" d="M 12704,14710 L 12754,14727 12754,14660 12704,14710 Z "/>
         <path fill="none" stroke="rgb(0,0,0)" stroke-width="25" stroke-linejoin="round" stroke-linecap="round" d="M 12704,14710 L 12754,14727 12754,14660 12704,14710 Z "/>
         <path fill="none" stroke="rgb(0,0,0)" stroke-width="25" stroke-linejoin="round" stroke-linecap="round" d="M 12704,14710 L 12754,14727 12754,14660 12704,14710 Z "/>
         <path fill="rgb(0,0,0)" stroke="none" d="M 12754,14727 L 12797,14710 12754,14660 12754,14727 Z "/>
         <path fill="none" stroke="rgb(0,0,0)" stroke-width="25" stroke-linejoin="round" stroke-linecap="round" d="M 12754,14727 L 12797,14710 12754,14660 12754,14727 Z "/>
         <path fill="none" stroke="rgb(0,0,0)" stroke-width="25" stroke-linejoin="round" stroke-linecap="round" d="M 12754,14727 L 12797,14710 12754,14660 12754,14727 Z "/>
         <path fill="rgb(0,0,0)" stroke="none" d="M 12797,14710 L 12814,14660 12754,14660 12797,14710 Z "/>
         <path fill="none" stroke="rgb(0,0,0)" stroke-width="25" stroke-linejoin="round" stroke-linecap="round" d="M 12797,14710 L 12814,14660 12754,14660 12797,14710 Z "/>
         <path fill="none" stroke="rgb(0,0,0)" stroke-width="25" stroke-linejoin="round" stroke-linecap="round" d="M 12797,14710 L 12814,14660 12754,14660 12797,14710 Z "/>
         <path fill="rgb(0,0,0)" stroke="none" d="M 12814,15379 L 12797,15328 12754,15379 12814,15379 Z "/>
         <path fill="none" stroke="rgb(0,0,0)" stroke-width="25" stroke-linejoin="round" stroke-linecap="round" d="M 12814,15379 L 12797,15328 12754,15379 12814,15379 Z "/>
         <path fill="none" stroke="rgb(0,0,0)" stroke-width="25" stroke-linejoin="round" stroke-linecap="round" d="M 12814,15379 L 12797,15328 12754,15379 12814,15379 Z "/>
         <path fill="rgb(0,0,0)" stroke="none" d="M 12797,15328 L 12754,15311 12754,15379 12797,15328 Z "/>
         <path fill="none" stroke="rgb(0,0,0)" stroke-width="25" stroke-linejoin="round" stroke-linecap="round" d="M 12797,15328 L 12754,15311 12754,15379 12797,15328 Z "/>
         <path fill="none" stroke="rgb(0,0,0)" stroke-width="25" stroke-linejoin="round" stroke-linecap="round" d="M 12797,15328 L 12754,15311 12754,15379 12797,15328 Z "/>
         <path fill="rgb(0,0,0)" stroke="none" d="M 12754,15311 L 12704,15328 12754,15379 12754,15311 Z "/>
         <path fill="none" stroke="rgb(0,0,0)" stroke-width="25" stroke-linejoin="round" stroke-linecap="round" d="M 12754,15311 L 12704,15328 12754,15379 12754,15311 Z "/>
         <path fill="none" stroke="rgb(0,0,0)" stroke-width="25" stroke-linejoin="round" stroke-linecap="round" d="M 12754,15311 L 12704,15328 12754,15379 12754,15311 Z "/>
         <path fill="rgb(0,0,0)" stroke="none" d="M 12704,15328 L 12687,15379 12754,15379 12704,15328 Z "/>
         <path fill="none" stroke="rgb(0,0,0)" stroke-width="25" stroke-linejoin="round" stroke-linecap="round" d="M 12704,15328 L 12687,15379 12754,15379 12704,15328 Z "/>
         <path fill="none" stroke="rgb(0,0,0)" stroke-width="25" stroke-linejoin="round" stroke-linecap="round" d="M 12704,15328 L 12687,15379 12754,15379 12704,15328 Z "/>
         <path fill="rgb(0,0,0)" stroke="none" d="M 12687,15379 L 12704,15421 12754,15379 12687,15379 Z "/>
         <path fill="none" stroke="rgb(0,0,0)" stroke-width="25" stroke-linejoin="round" stroke-linecap="round" d="M 12687,15379 L 12704,15421 12754,15379 12687,15379 Z "/>
         <path fill="none" stroke="rgb(0,0,0)" stroke-width="25" stroke-linejoin="round" stroke-linecap="round" d="M 12687,15379 L 12704,15421 12754,15379 12687,15379 Z "/>
         <path fill="rgb(0,0,0)" stroke="none" d="M 12704,15421 L 12754,15447 12754,15379 12704,15421 Z "/>
         <path fill="none" stroke="rgb(0,0,0)" stroke-width="25" stroke-linejoin="round" stroke-linecap="round" d="M 12704,15421 L 12754,15447 12754,15379 12704,15421 Z "/>
         <path fill="none" stroke="rgb(0,0,0)" stroke-width="25" stroke-linejoin="round" stroke-linecap="round" d="M 12704,15421 L 12754,15447 12754,15379 12704,15421 Z "/>
         <path fill="rgb(0,0,0)" stroke="none" d="M 12754,15447 L 12797,15421 12754,15379 12754,15447 Z "/>
         <path fill="none" stroke="rgb(0,0,0)" stroke-width="25" stroke-linejoin="round" stroke-linecap="round" d="M 12754,15447 L 12797,15421 12754,15379 12754,15447 Z "/>
         <path fill="none" stroke="rgb(0,0,0)" stroke-width="25" stroke-linejoin="round" stroke-linecap="round" d="M 12754,15447 L 12797,15421 12754,15379 12754,15447 Z "/>
         <path fill="rgb(0,0,0)" stroke="none" d="M 12797,15421 L 12814,15379 12754,15379 12797,15421 Z "/>
         <path fill="none" stroke="rgb(0,0,0)" stroke-width="25" stroke-linejoin="round" stroke-linecap="round" d="M 12797,15421 L 12814,15379 12754,15379 12797,15421 Z "/>
        </g>
        <defs>
         <clipPath id="clip_path_3" clipPathUnits="userSpaceOnUse">
          <path d="M 9156,11967 L 9554,11967 9554,12314 9156,12314 9156,11967 Z "/>
         </clipPath>
        </defs>
        <g clip-path="url(#clip_path_3)">
         <g class="OutlinedText"><path d="M 89,655 C 89,918 142,1120 249,1262 330,1369 426,1422 539,1422 648,1422 742,1371 819,1268 927,1125 981,930 981,683 981,448 928,263 822,127 739,22 642,-31 530,-31 469,-31 414,-16 364,13 314,42 270,85 231,140 192,195 163,254 142,316 107,423 89,536 89,655 Z M 788,726 C 787,900 771,1040 738,1145 713,1226 679,1283 637,1318 606,1343 571,1356 531,1356 486,1356 444,1338 406,1303 368,1268 339,1209 320,1126 300,1043 287,910 280,726 L 788,726 Z M 280,660 C 283,541 292,435 307,340 318,268 338,205 366,152 383,120 407,93 439,71 471,48 505,37 542,37 585,37 625,57 664,97 702,137 731,201 751,290 770,379 782,502 786,660 L 280,660 Z " transform="translate(9156,12206) scale(0.12,-0.12)" fill="rgb(0,0,0)" stroke="none"/><path d="M 240,1223 L 570,1384 603,1384 603,238 C 603,163 606,116 613,97 619,78 632,64 652,54 672,44 713,38 774,37 L 774,0 264,0 264,37 C 327,38 368,44 388,54 408,63 422,78 430,99 435,114 438,161 438,240 L 438,971 C 438,1070 435,1133 428,1162 423,1183 415,1198 402,1208 389,1218 374,1223 357,1223 333,1223 299,1213 255,1192 L 240,1223 Z " transform="translate(9314.816,12206) scale(0.12,-0.12)" fill="rgb(0,0,0)" stroke="none"/></g></g>
        <g clip-path="url(#clip_path_1)">
         <path fill="none" stroke="rgb(0,0,0)" stroke-width="25" stroke-linejoin="round" stroke-linecap="round" d="M 12797,15421 L 12814,15379 12754,15379 12797,15421 Z "/>
         <path fill="none" stroke="rgb(0,0,0)" stroke-width="25" stroke-linejoin="round" stroke-linecap="round" d="M 11891,12170 L 11891,12331 11891,12331 "/>
         <path fill="none" stroke="rgb(0,0,0)" stroke-width="25" stroke-linejoin="round" stroke-linecap="round" d="M 10917,12585 L 11036,12704 11036,12704 "/>
         <path fill="none" stroke="rgb(0,0,0)" stroke-width="25" stroke-linejoin="round" stroke-linecap="round" d="M 11815,12297 L 11544,12348 11290,12458 11070,12619 11070,12619 "/>
         <path fill="rgb(0,0,0)" stroke="none" d="M 11815,12280 L 11815,12314 11891,12297 11815,12280 Z "/>
         <path fill="none" stroke="rgb(0,0,0)" stroke-width="25" stroke-linejoin="round" stroke-linecap="round" d="M 11815,12280 L 11815,12314 11891,12297 11815,12280 Z "/>
         <path fill="none" stroke="rgb(0,0,0)" stroke-width="25" stroke-linejoin="round" stroke-linecap="round" d="M 11815,12280 L 11815,12314 11891,12297 11815,12280 Z "/>
         <path fill="rgb(0,0,0)" stroke="none" d="M 11078,12628 L 11061,12611 11010,12670 11078,12628 Z "/>
         <path fill="none" stroke="rgb(0,0,0)" stroke-width="25" stroke-linejoin="round" stroke-linecap="round" d="M 11078,12628 L 11061,12611 11010,12670 11078,12628 Z "/>
         <path fill="none" stroke="rgb(0,0,0)" stroke-width="25" stroke-linejoin="round" stroke-linecap="round" d="M 11078,12628 L 11061,12611 11010,12670 11078,12628 Z "/>
         <path fill="none" stroke="rgb(0,0,0)" stroke-width="25" stroke-linejoin="round" stroke-linecap="round" d="M 9470,12170 L 9470,12289 9470,12289 "/>
         <path fill="none" stroke="rgb(0,0,0)" stroke-width="25" stroke-linejoin="round" stroke-linecap="round" d="M 9106,12221 L 9139,12331 9139,12331 "/>
         <path fill="none" stroke="rgb(0,0,0)" stroke-width="25" stroke-linejoin="round" stroke-linecap="round" d="M 9385,12255 L 9207,12280 9207,12280 "/>
         <path fill="rgb(0,0,0)" stroke="none" d="M 9385,12238 L 9385,12264 9470,12247 9385,12238 Z "/>
         <path fill="none" stroke="rgb(0,0,0)" stroke-width="25" stroke-linejoin="round" stroke-linecap="round" d="M 9385,12238 L 9385,12264 9470,12247 9385,12238 Z "/>
         <path fill="none" stroke="rgb(0,0,0)" stroke-width="25" stroke-linejoin="round" stroke-linecap="round" d="M 9385,12238 L 9385,12264 9470,12247 9385,12238 Z "/>
         <path fill="rgb(0,0,0)" stroke="none" d="M 9216,12289 L 9207,12264 9131,12297 9216,12289 Z "/>
         <path fill="none" stroke="rgb(0,0,0)" stroke-width="25" stroke-linejoin="round" stroke-linecap="round" d="M 9216,12289 L 9207,12264 9131,12297 9216,12289 Z "/>
         <path fill="none" stroke="rgb(0,0,0)" stroke-width="25" stroke-linejoin="round" stroke-linecap="round" d="M 9216,12289 L 9207,12264 9131,12297 9216,12289 Z "/>
        </g>
       </g>
      </g>
     </g>
    </g>
   </g>
  </g>
 </g>
</svg>