<?xml version='1.0' encoding='UTF-8'?>
<!DOCTYPE svg PUBLIC "-//W3C//DTD SVG 1.1//EN" "http://www.w3.org/Graphics/SVG/1.1/DTD/svg11.dtd">
<svg xmlns="http://www.w3.org/2000/svg" xmlns:ooo="http://xml.openoffice.org/svg/export" xmlns:xlink="http://www.w3.org/1999/xlink" xmlns:presentation="http://sun.com/xmlns/staroffice/presentation" xmlns:smil="http://www.w3.org/2001/SMIL20/" xmlns:anim="urn:oasis:names:tc:opendocument:xmlns:animation:1.0" xmlns:svg="urn:oasis:names:tc:opendocument:xmlns:svg-compatible:1.0" version="1.2" width="53.680mm" height="46.310mm" viewBox="8111 11654 5368 4631" preserveAspectRatio="xMidYMid" fill-rule="evenodd" stroke-width="28.222" stroke-linejoin="round" xml:space="preserve">
 <defs class="ClipPathGroup">
  <clipPath id="presentation_clip_path" clipPathUnits="userSpaceOnUse">
   <rect x="0" y="0" width="21590" height="27940"/>
  </clipPath>
  <clipPath id="presentation_clip_path_shrink" clipPathUnits="userSpaceOnUse">
   <rect x="21" y="27" width="21547" height="27885"/>
  </clipPath>
 </defs>
 <defs>
  </defs>
 <defs class="TextShapeIndex">
  <g ooo:slide="id1" ooo:id-list="id3"/>
 </defs>
 <defs class="EmbeddedBulletChars">
  <g id="bullet-char-template-57356" transform="scale(0.00048828125,-0.00048828125)">
   <path d="M 580,1141 L 1163,571 580,0 -4,571 580,1141 Z"/>
  </g>
  <g id="bullet-char-template-57354" transform="scale(0.00048828125,-0.00048828125)">
   <path d="M 8,1128 L 1137,1128 1137,0 8,0 8,1128 Z"/>
  </g>
  <g id="bullet-char-template-10146" transform="scale(0.00048828125,-0.00048828125)">
   <path d="M 174,0 L 602,739 174,1481 1456,739 174,0 Z M 1358,739 L 309,1346 659,739 1358,739 Z"/>
  </g>
  <g id="bullet-char-template-10132" transform="scale(0.00048828125,-0.00048828125)">
   <path d="M 2015,739 L 1276,0 717,0 1260,543 174,543 174,936 1260,936 717,1481 1274,1481 2015,739 Z"/>
  </g>
  <g id="bullet-char-template-10007" transform="scale(0.00048828125,-0.00048828125)">
   <path d="M 0,-2 C -7,14 -16,27 -25,37 L 356,567 C 262,823 215,952 215,954 215,979 228,992 255,992 264,992 276,990 289,987 310,991 331,999 354,1012 L 381,999 492,748 772,1049 836,1024 860,1049 C 881,1039 901,1025 922,1006 886,937 835,863 770,784 769,783 710,716 594,584 L 774,223 C 774,196 753,168 711,139 L 727,119 C 717,90 699,76 672,76 641,76 570,178 457,381 L 164,-76 C 142,-110 111,-127 72,-127 30,-127 9,-110 8,-76 1,-67 -2,-52 -2,-32 -2,-23 -1,-13 0,-2 Z"/>
  </g>
  <g id="bullet-char-template-10004" transform="scale(0.00048828125,-0.00048828125)">
   <path d="M 285,-33 C 182,-33 111,30 74,156 52,228 41,333 41,471 41,549 55,616 82,672 116,743 169,778 240,778 293,778 328,747 346,684 L 369,508 C 377,444 397,411 428,410 L 1163,1116 C 1174,1127 1196,1133 1229,1133 1271,1133 1292,1118 1292,1087 L 1292,965 C 1292,929 1282,901 1262,881 L 442,47 C 390,-6 338,-33 285,-33 Z"/>
  </g>
  <g id="bullet-char-template-9679" transform="scale(0.00048828125,-0.00048828125)">
   <path d="M 813,0 C 632,0 489,54 383,161 276,268 223,411 223,592 223,773 276,916 383,1023 489,1130 632,1184 813,1184 992,1184 1136,1130 1245,1023 1353,916 1407,772 1407,592 1407,412 1353,268 1245,161 1136,54 992,0 813,0 Z"/>
  </g>
  <g id="bullet-char-template-8226" transform="scale(0.00048828125,-0.00048828125)">
   <path d="M 346,457 C 273,457 209,483 155,535 101,586 74,649 74,723 74,796 101,859 155,911 209,963 273,989 346,989 419,989 480,963 531,910 582,859 608,796 608,723 608,648 583,586 532,535 482,483 420,457 346,457 Z"/>
  </g>
  <g id="bullet-char-template-8211" transform="scale(0.00048828125,-0.00048828125)">
   <path d="M -4,459 L 1135,459 1135,606 -4,606 -4,459 Z"/>
  </g>
  <g id="bullet-char-template-61548" transform="scale(0.00048828125,-0.00048828125)">
   <path d="M 173,740 C 173,903 231,1043 346,1159 462,1274 601,1332 765,1332 928,1332 1067,1274 1183,1159 1299,1043 1357,903 1357,740 1357,577 1299,437 1183,322 1067,206 928,148 765,148 601,148 462,206 346,322 231,437 173,577 173,740 Z"/>
  </g>
 </defs>
 <g>
  <g id="id2" class="Master_Slide">
   <g id="bg-id2" class="Background"/>
   <g id="bo-id2" class="BackgroundObjects"/>
  </g>
 </g>
 <g class="SlideGroup">
  <g>
   <g id="container-id1">
    <g id="id1" class="Slide" clip-path="url(#presentation_clip_path)">
     <g class="Page">
      <g class="Graphic">
       <g id="id3">
        <rect class="BoundingBox" stroke="none" fill="none" x="8111" y="11654" width="5368" height="4631"/>
        <defs>
         <clipPath id="clip_path_1" clipPathUnits="userSpaceOnUse">
          <path d="M 8111,11654 L 13478,11654 13478,16284 8111,16284 8111,11654 Z "/>
         </clipPath>
        </defs>
        <g clip-path="url(#clip_path_1)">
         <path fill="rgb(255,255,255)" stroke="none" d="M 8119,11646 L 13461,11646 13461,16276 8119,16276 8119,11646 Z "/>
         <path fill="none" stroke="rgb(255,255,255)" stroke-width="34" stroke-linejoin="round" stroke-linecap="round" d="M 8119,11646 L 13461,11646 13461,16276 8119,16276 8119,11646 Z "/>
         <path fill="none" stroke="rgb(0,0,0)" stroke-width="34" stroke-linejoin="round" stroke-linecap="round" d="M 9229,11815 L 9229,12094 9229,12094 "/>
         <path fill="none" stroke="rgb(0,0,0)" stroke-width="34" stroke-linejoin="round" stroke-linecap="round" d="M 9229,12154 L 9229,12162 9229,12162 "/>
         <path fill="none" stroke="rgb(0,0,0)" stroke-width="34" stroke-linejoin="round" stroke-linecap="round" d="M 9229,12213 L 9229,12670 9229,12670 "/>
         <path fill="none" stroke="rgb(0,0,0)" stroke-width="34" stroke-linejoin="round" stroke-linecap="round" d="M 9229,12729 L 9229,12738 9229,12738 "/>
         <path fill="none" stroke="rgb(0,0,0)" stroke-width="34" stroke-linejoin="round" stroke-linecap="round" d="M 9229,12797 L 9229,13254 9229,13254 "/>
         <path fill="none" stroke="rgb(0,0,0)" stroke-width="34" stroke-linejoin="round" stroke-linecap="round" d="M 9229,13305 L 9229,13313 9229,13313 "/>
         <path fill="none" stroke="rgb(0,0,0)" stroke-width="34" stroke-linejoin="round" stroke-linecap="round" d="M 9229,13373 L 9229,13830 9229,13830 "/>
         <path fill="none" stroke="rgb(0,0,0)" stroke-width="34" stroke-linejoin="round" stroke-linecap="round" d="M 9229,13889 L 9229,13898 9229,13898 "/>
         <path fill="none" stroke="rgb(0,0,0)" stroke-width="34" stroke-linejoin="round" stroke-linecap="round" d="M 9229,13948 L 9229,14406 9229,14406 "/>
         <path fill="none" stroke="rgb(0,0,0)" stroke-width="34" stroke-linejoin="round" stroke-linecap="round" d="M 9229,14465 L 9229,14473 9229,14473 "/>
         <path fill="none" stroke="rgb(0,0,0)" stroke-width="34" stroke-linejoin="round" stroke-linecap="round" d="M 9229,14533 L 9229,14812 9229,14812 "/>
         <path fill="none" stroke="rgb(0,0,0)" stroke-width="34" stroke-linejoin="round" stroke-linecap="round" d="M 8805,14160 L 9644,14160 9644,14160 "/>
         <path fill="none" stroke="rgb(0,0,0)" stroke-width="34" stroke-linejoin="round" stroke-linecap="round" d="M 9644,14160 L 9644,13398 9644,13398 "/>
         <path fill="none" stroke="rgb(0,0,0)" stroke-width="34" stroke-linejoin="round" stroke-linecap="round" d="M 8805,13398 L 8941,13533 9127,13618 9322,13618 9508,13533 9644,13398 9644,13398 "/>
         <path fill="none" stroke="rgb(0,0,0)" stroke-width="34" stroke-linejoin="round" stroke-linecap="round" d="M 8805,13398 L 8805,14160 8805,14160 "/>
         <path fill="none" stroke="rgb(0,0,0)" stroke-width="34" stroke-linejoin="round" stroke-linecap="round" d="M 9229,11815 L 9229,12094 9229,12094 "/>
         <path fill="none" stroke="rgb(0,0,0)" stroke-width="34" stroke-linejoin="round" stroke-linecap="round" d="M 9229,12154 L 9229,12162 9229,12162 "/>
         <path fill="none" stroke="rgb(0,0,0)" stroke-width="34" stroke-linejoin="round" stroke-linecap="round" d="M 9229,12213 L 9229,12670 9229,12670 "/>
         <path fill="none" stroke="rgb(0,0,0)" stroke-width="34" stroke-linejoin="round" stroke-linecap="round" d="M 9229,12729 L 9229,12738 9229,12738 "/>
         <path fill="none" stroke="rgb(0,0,0)" stroke-width="34" stroke-linejoin="round" stroke-linecap="round" d="M 9229,12797 L 9229,13254 9229,13254 "/>
         <path fill="none" stroke="rgb(0,0,0)" stroke-width="34" stroke-linejoin="round" stroke-linecap="round" d="M 9229,13305 L 9229,13313 9229,13313 "/>
         <path fill="none" stroke="rgb(0,0,0)" stroke-width="34" stroke-linejoin="round" stroke-linecap="round" d="M 9229,13373 L 9229,13830 9229,13830 "/>
         <path fill="none" stroke="rgb(0,0,0)" stroke-width="34" stroke-linejoin="round" stroke-linecap="round" d="M 9229,13889 L 9229,13898 9229,13898 "/>
         <path fill="none" stroke="rgb(0,0,0)" stroke-width="34" stroke-linejoin="round" stroke-linecap="round" d="M 9229,13948 L 9229,14406 9229,14406 "/>
         <path fill="none" stroke="rgb(0,0,0)" stroke-width="34" stroke-linejoin="round" stroke-linecap="round" d="M 9229,14465 L 9229,14473 9229,14473 "/>
         <path fill="none" stroke="rgb(0,0,0)" stroke-width="34" stroke-linejoin="round" stroke-linecap="round" d="M 9229,14533 L 9229,14812 9229,14812 "/>
         <path fill="none" stroke="rgb(0,0,0)" stroke-width="34" stroke-linejoin="round" stroke-linecap="round" d="M 9644,12374 L 9644,12560 9644,12560 "/>
         <path fill="none" stroke="rgb(0,0,0)" stroke-width="34" stroke-linejoin="round" stroke-linecap="round" d="M 9644,12560 L 9288,13169 9288,13169 "/>
         <path fill="none" stroke="rgb(0,0,0)" stroke-width="34" stroke-linejoin="round" stroke-linecap="round" d="M 9161,13169 L 9195,13203 9254,13203 9288,13169 9288,13169 "/>
         <path fill="none" stroke="rgb(0,0,0)" stroke-width="34" stroke-linejoin="round" stroke-linecap="round" d="M 9161,13169 L 8805,12560 8805,12560 "/>
         <path fill="none" stroke="rgb(0,0,0)" stroke-width="34" stroke-linejoin="round" stroke-linecap="round" d="M 8805,12560 L 8805,12374 8805,12374 "/>
         <path fill="none" stroke="rgb(0,0,0)" stroke-width="34" stroke-linejoin="round" stroke-linecap="round" d="M 8805,12374 L 9644,12374 9644,12374 "/>
         <path fill="none" stroke="rgb(0,0,0)" stroke-width="34" stroke-linejoin="round" stroke-linecap="round" d="M 12217,14253 L 12861,13720 12861,13720 "/>
         <path fill="none" stroke="rgb(0,0,0)" stroke-width="34" stroke-linejoin="round" stroke-linecap="round" d="M 12861,13720 L 12378,13136 12378,13136 "/>
         <path fill="none" stroke="rgb(0,0,0)" stroke-width="34" stroke-linejoin="round" stroke-linecap="round" d="M 11735,13660 L 11930,13686 12116,13635 12268,13508 12361,13330 12378,13136 12378,13136 "/>
         <path fill="none" stroke="rgb(0,0,0)" stroke-width="34" stroke-linejoin="round" stroke-linecap="round" d="M 11735,13660 L 12217,14253 12217,14253 "/>
         <path fill="none" stroke="rgb(0,0,0)" stroke-width="34" stroke-linejoin="round" stroke-linecap="round" d="M 12065,11815 L 12065,12094 12073,12094 "/>
         <path fill="none" stroke="rgb(0,0,0)" stroke-width="34" stroke-linejoin="round" stroke-linecap="round" d="M 12065,12154 L 12065,12162 12073,12162 "/>
         <path fill="none" stroke="rgb(0,0,0)" stroke-width="34" stroke-linejoin="round" stroke-linecap="round" d="M 12065,12213 L 12065,12670 12073,12670 "/>
         <path fill="none" stroke="rgb(0,0,0)" stroke-width="34" stroke-linejoin="round" stroke-linecap="round" d="M 12065,12729 L 12065,12738 12073,12738 "/>
         <path fill="none" stroke="rgb(0,0,0)" stroke-width="34" stroke-linejoin="round" stroke-linecap="round" d="M 12065,12797 L 12065,13254 12073,13254 "/>
         <path fill="none" stroke="rgb(0,0,0)" stroke-width="34" stroke-linejoin="round" stroke-linecap="round" d="M 12065,13305 L 12065,13313 12073,13313 "/>
         <path fill="none" stroke="rgb(0,0,0)" stroke-width="34" stroke-linejoin="round" stroke-linecap="round" d="M 12065,13373 L 12065,13830 12073,13830 "/>
         <path fill="none" stroke="rgb(0,0,0)" stroke-width="34" stroke-linejoin="round" stroke-linecap="round" d="M 12065,13889 L 12065,13898 12073,13898 "/>
         <path fill="none" stroke="rgb(0,0,0)" stroke-width="34" stroke-linejoin="round" stroke-linecap="round" d="M 12065,13948 L 12065,14406 12073,14406 "/>
         <path fill="none" stroke="rgb(0,0,0)" stroke-width="34" stroke-linejoin="round" stroke-linecap="round" d="M 12065,14465 L 12065,14473 12073,14473 "/>
         <path fill="none" stroke="rgb(0,0,0)" stroke-width="34" stroke-linejoin="round" stroke-linecap="round" d="M 12065,14533 L 12065,14812 12073,14812 "/>
         <path fill="none" stroke="rgb(0,0,0)" stroke-width="34" stroke-linejoin="round" stroke-linecap="round" d="M 11049,12179 L 11227,12391 11227,12391 "/>
         <path fill="none" stroke="rgb(0,0,0)" stroke-width="34" stroke-linejoin="round" stroke-linecap="round" d="M 11269,12441 L 11269,12450 11269,12450 "/>
         <path fill="none" stroke="rgb(0,0,0)" stroke-width="34" stroke-linejoin="round" stroke-linecap="round" d="M 11303,12492 L 11599,12839 11599,12839 "/>
         <path fill="none" stroke="rgb(0,0,0)" stroke-width="34" stroke-linejoin="round" stroke-linecap="round" d="M 11633,12882 L 11642,12890 11642,12890 "/>
         <path fill="none" stroke="rgb(0,0,0)" stroke-width="34" stroke-linejoin="round" stroke-linecap="round" d="M 11676,12932 L 11963,13288 11963,13288 "/>
         <path fill="none" stroke="rgb(0,0,0)" stroke-width="34" stroke-linejoin="round" stroke-linecap="round" d="M 11997,13330 L 12006,13339 12006,13339 "/>
         <path fill="none" stroke="rgb(0,0,0)" stroke-width="34" stroke-linejoin="round" stroke-linecap="round" d="M 12040,13381 L 12328,13737 12328,13737 "/>
         <path fill="none" stroke="rgb(0,0,0)" stroke-width="34" stroke-linejoin="round" stroke-linecap="round" d="M 12370,13779 L 12370,13787 12370,13787 "/>
         <path fill="none" stroke="rgb(0,0,0)" stroke-width="34" stroke-linejoin="round" stroke-linecap="round" d="M 12412,13830 L 12700,14185 12700,14185 "/>
         <path fill="none" stroke="rgb(0,0,0)" stroke-width="34" stroke-linejoin="round" stroke-linecap="round" d="M 12734,14228 L 12742,14236 12742,14236 "/>
         <path fill="none" stroke="rgb(0,0,0)" stroke-width="34" stroke-linejoin="round" stroke-linecap="round" d="M 12776,14279 L 12954,14499 12954,14499 "/>
         <path fill="none" stroke="rgb(0,0,0)" stroke-width="34" stroke-linejoin="round" stroke-linecap="round" d="M 11726,12348 L 11845,12492 11845,12492 "/>
         <path fill="none" stroke="rgb(0,0,0)" stroke-width="34" stroke-linejoin="round" stroke-linecap="round" d="M 11845,12492 L 11963,13186 11963,13186 "/>
         <path fill="none" stroke="rgb(0,0,0)" stroke-width="34" stroke-linejoin="round" stroke-linecap="round" d="M 11862,13271 L 11913,13271 11955,13237 11963,13186 11963,13186 "/>
         <path fill="none" stroke="rgb(0,0,0)" stroke-width="34" stroke-linejoin="round" stroke-linecap="round" d="M 11862,13271 L 11201,13017 11201,13017 "/>
         <path fill="none" stroke="rgb(0,0,0)" stroke-width="34" stroke-linejoin="round" stroke-linecap="round" d="M 11201,13017 L 11083,12873 11083,12873 "/>
         <path fill="none" stroke="rgb(0,0,0)" stroke-width="34" stroke-linejoin="round" stroke-linecap="round" d="M 11083,12873 L 11726,12348 11726,12348 "/>
         <path fill="none" stroke="rgb(0,0,0)" stroke-width="34" stroke-linejoin="round" stroke-linecap="round" d="M 12065,11832 L 12065,12162 12073,12162 "/>
         <path fill="none" stroke="rgb(0,0,0)" stroke-width="34" stroke-linejoin="round" stroke-linecap="round" d="M 11066,12196 L 11278,12450 11278,12450 "/>
         <path fill="none" stroke="rgb(0,0,0)" stroke-width="34" stroke-linejoin="round" stroke-linecap="round" d="M 11972,12120 L 11633,12187 11320,12348 11320,12348 "/>
         <path fill="rgb(0,0,0)" stroke="none" d="M 11972,12103 L 11972,12137 12065,12111 11972,12103 Z "/>
         <path fill="none" stroke="rgb(0,0,0)" stroke-width="34" stroke-linejoin="round" stroke-linecap="round" d="M 11972,12103 L 11972,12137 12065,12111 11972,12103 Z "/>
         <path fill="none" stroke="rgb(0,0,0)" stroke-width="34" stroke-linejoin="round" stroke-linecap="round" d="M 11972,12103 L 11972,12137 12065,12111 11972,12103 Z "/>
         <path fill="rgb(0,0,0)" stroke="none" d="M 11328,12365 L 11311,12340 11244,12407 11328,12365 Z "/>
         <path fill="none" stroke="rgb(0,0,0)" stroke-width="34" stroke-linejoin="round" stroke-linecap="round" d="M 11328,12365 L 11311,12340 11244,12407 11328,12365 Z "/>
         <path fill="none" stroke="rgb(0,0,0)" stroke-width="34" stroke-linejoin="round" stroke-linecap="round" d="M 11328,12365 L 11311,12340 11244,12407 11328,12365 Z "/>
         <path fill="none" stroke="rgb(0,0,0)" stroke-width="34" stroke-linejoin="round" stroke-linecap="round" d="M 9212,15591 L 9398,15565 9576,15498 9720,15379 9720,15379 "/>
         <path fill="none" stroke="rgb(0,0,0)" stroke-width="34" stroke-linejoin="round" stroke-linecap="round" d="M 10228,15176 L 9948,15227 9720,15379 9720,15379 "/>
         <path fill="none" stroke="rgb(0,0,0)" stroke-width="34" stroke-linejoin="round" stroke-linecap="round" d="M 10228,15176 L 12023,15176 12023,15176 "/>
         <path fill="none" stroke="rgb(0,0,0)" stroke-width="34" stroke-linejoin="round" stroke-linecap="round" d="M 12014,15176 L 12065,15176 12065,15176 "/>
         <path fill="none" stroke="rgb(0,0,0)" stroke-width="34" stroke-linejoin="round" stroke-linecap="round" d="M 9212,15591 L 8323,15591 8323,15591 "/>
         <path fill="none" stroke="rgb(0,0,0)" stroke-width="34" stroke-linejoin="round" stroke-linecap="round" d="M 9720,15802 L 9576,15684 9398,15616 9212,15591 9212,15591 "/>
         <path fill="none" stroke="rgb(0,0,0)" stroke-width="34" stroke-linejoin="round" stroke-linecap="round" d="M 9720,15802 L 9948,15955 10228,16006 10228,16006 "/>
         <path fill="none" stroke="rgb(0,0,0)" stroke-width="34" stroke-linejoin="round" stroke-linecap="round" d="M 10228,15853 L 10287,15785 10287,15785 "/>
         <path fill="none" stroke="rgb(0,0,0)" stroke-width="34" stroke-linejoin="round" stroke-linecap="round" d="M 10228,15938 L 10304,15853 10304,15853 "/>
         <path fill="none" stroke="rgb(0,0,0)" stroke-width="34" stroke-linejoin="round" stroke-linecap="round" d="M 10228,16023 L 10304,15938 10304,15938 "/>
         <path fill="none" stroke="rgb(0,0,0)" stroke-width="34" stroke-linejoin="round" stroke-linecap="round" d="M 10228,16107 L 10304,16023 10304,16023 "/>
         <path fill="none" stroke="rgb(0,0,0)" stroke-width="34" stroke-linejoin="round" stroke-linecap="round" d="M 10228,16192 L 10304,16107 10304,16107 "/>
         <path fill="none" stroke="rgb(0,0,0)" stroke-width="34" stroke-linejoin="round" stroke-linecap="round" d="M 10270,16226 L 10304,16192 10304,16192 "/>
         <path fill="none" stroke="rgb(0,0,0)" stroke-width="34" stroke-linejoin="round" stroke-linecap="round" d="M 10228,15785 L 10228,16226 10304,16226 10304,15785 10228,15785 Z "/>
         <path fill="none" stroke="rgb(0,0,0)" stroke-width="34" stroke-linejoin="round" stroke-linecap="round" d="M 12573,15379 L 12802,15540 13073,15591 13073,15591 "/>
         <path fill="none" stroke="rgb(0,0,0)" stroke-width="34" stroke-linejoin="round" stroke-linecap="round" d="M 12573,15379 L 12421,15269 12251,15201 12065,15176 12065,15176 "/>
         <path fill="none" stroke="rgb(0,0,0)" stroke-width="34" stroke-linejoin="round" stroke-linecap="round" d="M 12065,15176 L 12251,15151 12421,15074 12573,14964 12573,14964 "/>
         <path fill="none" stroke="rgb(0,0,0)" stroke-width="34" stroke-linejoin="round" stroke-linecap="round" d="M 13073,14753 L 12802,14812 12573,14964 12573,14964 "/>
         <path fill="rgb(0,0,0)" stroke="none" d="M 13149,14753 L 13132,14702 13073,14753 13149,14753 Z "/>
         <path fill="none" stroke="rgb(0,0,0)" stroke-width="34" stroke-linejoin="round" stroke-linecap="round" d="M 13149,14753 L 13132,14702 13073,14753 13149,14753 Z "/>
         <path fill="none" stroke="rgb(0,0,0)" stroke-width="34" stroke-linejoin="round" stroke-linecap="round" d="M 13149,14753 L 13132,14702 13073,14753 13149,14753 Z "/>
         <path fill="rgb(0,0,0)" stroke="none" d="M 13132,14702 L 13073,14676 13073,14753 13132,14702 Z "/>
         <path fill="none" stroke="rgb(0,0,0)" stroke-width="34" stroke-linejoin="round" stroke-linecap="round" d="M 13132,14702 L 13073,14676 13073,14753 13132,14702 Z "/>
         <path fill="none" stroke="rgb(0,0,0)" stroke-width="34" stroke-linejoin="round" stroke-linecap="round" d="M 13132,14702 L 13073,14676 13073,14753 13132,14702 Z "/>
         <path fill="rgb(0,0,0)" stroke="none" d="M 13073,14676 L 13022,14702 13073,14753 13073,14676 Z "/>
         <path fill="none" stroke="rgb(0,0,0)" stroke-width="34" stroke-linejoin="round" stroke-linecap="round" d="M 13073,14676 L 13022,14702 13073,14753 13073,14676 Z "/>
         <path fill="none" stroke="rgb(0,0,0)" stroke-width="34" stroke-linejoin="round" stroke-linecap="round" d="M 13073,14676 L 13022,14702 13073,14753 13073,14676 Z "/>
         <path fill="rgb(0,0,0)" stroke="none" d="M 13022,14702 L 12996,14753 13073,14753 13022,14702 Z "/>
         <path fill="none" stroke="rgb(0,0,0)" stroke-width="34" stroke-linejoin="round" stroke-linecap="round" d="M 13022,14702 L 12996,14753 13073,14753 13022,14702 Z "/>
         <path fill="none" stroke="rgb(0,0,0)" stroke-width="34" stroke-linejoin="round" stroke-linecap="round" d="M 13022,14702 L 12996,14753 13073,14753 13022,14702 Z "/>
         <path fill="rgb(0,0,0)" stroke="none" d="M 12996,14753 L 13022,14812 13073,14753 12996,14753 Z "/>
         <path fill="none" stroke="rgb(0,0,0)" stroke-width="34" stroke-linejoin="round" stroke-linecap="round" d="M 12996,14753 L 13022,14812 13073,14753 12996,14753 Z "/>
         <path fill="none" stroke="rgb(0,0,0)" stroke-width="34" stroke-linejoin="round" stroke-linecap="round" d="M 12996,14753 L 13022,14812 13073,14753 12996,14753 Z "/>
         <path fill="rgb(0,0,0)" stroke="none" d="M 13022,14812 L 13073,14829 13073,14753 13022,14812 Z "/>
         <path fill="none" stroke="rgb(0,0,0)" stroke-width="34" stroke-linejoin="round" stroke-linecap="round" d="M 13022,14812 L 13073,14829 13073,14753 13022,14812 Z "/>
         <path fill="none" stroke="rgb(0,0,0)" stroke-width="34" stroke-linejoin="round" stroke-linecap="round" d="M 13022,14812 L 13073,14829 13073,14753 13022,14812 Z "/>
         <path fill="rgb(0,0,0)" stroke="none" d="M 13073,14829 L 13132,14812 13073,14753 13073,14829 Z "/>
         <path fill="none" stroke="rgb(0,0,0)" stroke-width="34" stroke-linejoin="round" stroke-linecap="round" d="M 13073,14829 L 13132,14812 13073,14753 13073,14829 Z "/>
         <path fill="none" stroke="rgb(0,0,0)" stroke-width="34" stroke-linejoin="round" stroke-linecap="round" d="M 13073,14829 L 13132,14812 13073,14753 13073,14829 Z "/>
         <path fill="rgb(0,0,0)" stroke="none" d="M 13132,14812 L 13149,14753 13073,14753 13132,14812 Z "/>
         <path fill="none" stroke="rgb(0,0,0)" stroke-width="34" stroke-linejoin="round" stroke-linecap="round" d="M 13132,14812 L 13149,14753 13073,14753 13132,14812 Z "/>
         <path fill="none" stroke="rgb(0,0,0)" stroke-width="34" stroke-linejoin="round" stroke-linecap="round" d="M 13132,14812 L 13149,14753 13073,14753 13132,14812 Z "/>
         <path fill="rgb(0,0,0)" stroke="none" d="M 13149,15591 L 13132,15532 13073,15591 13149,15591 Z "/>
         <path fill="none" stroke="rgb(0,0,0)" stroke-width="34" stroke-linejoin="round" stroke-linecap="round" d="M 13149,15591 L 13132,15532 13073,15591 13149,15591 Z "/>
         <path fill="none" stroke="rgb(0,0,0)" stroke-width="34" stroke-linejoin="round" stroke-linecap="round" d="M 13149,15591 L 13132,15532 13073,15591 13149,15591 Z "/>
         <path fill="rgb(0,0,0)" stroke="none" d="M 13132,15532 L 13073,15515 13073,15591 13132,15532 Z "/>
         <path fill="none" stroke="rgb(0,0,0)" stroke-width="34" stroke-linejoin="round" stroke-linecap="round" d="M 13132,15532 L 13073,15515 13073,15591 13132,15532 Z "/>
         <path fill="none" stroke="rgb(0,0,0)" stroke-width="34" stroke-linejoin="round" stroke-linecap="round" d="M 13132,15532 L 13073,15515 13073,15591 13132,15532 Z "/>
         <path fill="rgb(0,0,0)" stroke="none" d="M 13073,15515 L 13022,15532 13073,15591 13073,15515 Z "/>
         <path fill="none" stroke="rgb(0,0,0)" stroke-width="34" stroke-linejoin="round" stroke-linecap="round" d="M 13073,15515 L 13022,15532 13073,15591 13073,15515 Z "/>
         <path fill="none" stroke="rgb(0,0,0)" stroke-width="34" stroke-linejoin="round" stroke-linecap="round" d="M 13073,15515 L 13022,15532 13073,15591 13073,15515 Z "/>
         <path fill="rgb(0,0,0)" stroke="none" d="M 13022,15532 L 12996,15591 13073,15591 13022,15532 Z "/>
         <path fill="none" stroke="rgb(0,0,0)" stroke-width="34" stroke-linejoin="round" stroke-linecap="round" d="M 13022,15532 L 12996,15591 13073,15591 13022,15532 Z "/>
         <path fill="none" stroke="rgb(0,0,0)" stroke-width="34" stroke-linejoin="round" stroke-linecap="round" d="M 13022,15532 L 12996,15591 13073,15591 13022,15532 Z "/>
         <path fill="rgb(0,0,0)" stroke="none" d="M 12996,15591 L 13022,15642 13073,15591 12996,15591 Z "/>
         <path fill="none" stroke="rgb(0,0,0)" stroke-width="34" stroke-linejoin="round" stroke-linecap="round" d="M 12996,15591 L 13022,15642 13073,15591 12996,15591 Z "/>
         <path fill="none" stroke="rgb(0,0,0)" stroke-width="34" stroke-linejoin="round" stroke-linecap="round" d="M 12996,15591 L 13022,15642 13073,15591 12996,15591 Z "/>
         <path fill="rgb(0,0,0)" stroke="none" d="M 13022,15642 L 13073,15667 13073,15591 13022,15642 Z "/>
         <path fill="none" stroke="rgb(0,0,0)" stroke-width="34" stroke-linejoin="round" stroke-linecap="round" d="M 13022,15642 L 13073,15667 13073,15591 13022,15642 Z "/>
         <path fill="none" stroke="rgb(0,0,0)" stroke-width="34" stroke-linejoin="round" stroke-linecap="round" d="M 13022,15642 L 13073,15667 13073,15591 13022,15642 Z "/>
         <path fill="rgb(0,0,0)" stroke="none" d="M 13073,15667 L 13132,15642 13073,15591 13073,15667 Z "/>
         <path fill="none" stroke="rgb(0,0,0)" stroke-width="34" stroke-linejoin="round" stroke-linecap="round" d="M 13073,15667 L 13132,15642 13073,15591 13073,15667 Z "/>
         <path fill="none" stroke="rgb(0,0,0)" stroke-width="34" stroke-linejoin="round" stroke-linecap="round" d="M 13073,15667 L 13132,15642 13073,15591 13073,15667 Z "/>
         <path fill="rgb(0,0,0)" stroke="none" d="M 13132,15642 L 13149,15591 13073,15591 13132,15642 Z "/>
         <path fill="none" stroke="rgb(0,0,0)" stroke-width="34" stroke-linejoin="round" stroke-linecap="round" d="M 13132,15642 L 13149,15591 13073,15591 13132,15642 Z "/>
        </g>
        <defs>
         <clipPath id="clip_path_2" clipPathUnits="userSpaceOnUse">
          <path d="M 11506,11857 L 11828,11857 11828,12255 11506,12255 11506,11857 Z "/>
         </clipPath>
        </defs>
        <g clip-path="url(#clip_path_2)">
         <g class="OutlinedText"><path d="M 89,655 C 89,918 142,1120 249,1262 330,1369 426,1422 539,1422 648,1422 742,1371 819,1268 927,1125 981,930 981,683 981,448 928,263 822,127 739,22 642,-31 530,-31 469,-31 414,-16 364,13 314,42 270,85 231,140 192,195 163,254 142,316 107,423 89,536 89,655 Z M 788,726 C 787,900 771,1040 738,1145 713,1226 679,1283 637,1318 606,1343 571,1356 531,1356 486,1356 444,1338 406,1303 368,1268 339,1209 320,1126 300,1043 287,910 280,726 L 788,726 Z M 280,660 C 283,541 292,435 307,340 318,268 338,205 366,152 383,120 407,93 439,71 471,48 505,37 542,37 585,37 625,57 664,97 702,137 731,201 751,290 770,379 782,502 786,660 L 280,660 Z " transform="translate(11506,12129) scale(0.136,-0.136)" fill="rgb(0,0,0)" stroke="none"/></g></g>
        <g clip-path="url(#clip_path_1)">
         <path fill="none" stroke="rgb(0,0,0)" stroke-width="34" stroke-linejoin="round" stroke-linecap="round" d="M 13132,15642 L 13149,15591 13073,15591 13132,15642 Z "/>
        </g>
       </g>
      </g>
     </g>
    </g>
   </g>
  </g>
 </g>
</svg>