<?xml version='1.0' encoding='UTF-8'?>
<!DOCTYPE svg PUBLIC "-//W3C//DTD SVG 1.1//EN" "http://www.w3.org/Graphics/SVG/1.1/DTD/svg11.dtd">
<svg xmlns="http://www.w3.org/2000/svg" xmlns:ooo="http://xml.openoffice.org/svg/export" xmlns:xlink="http://www.w3.org/1999/xlink" xmlns:presentation="http://sun.com/xmlns/staroffice/presentation" xmlns:smil="http://www.w3.org/2001/SMIL20/" xmlns:anim="urn:oasis:names:tc:opendocument:xmlns:animation:1.0" xmlns:svg="urn:oasis:names:tc:opendocument:xmlns:svg-compatible:1.0" version="1.2" width="111.130mm" height="33.510mm" viewBox="5238 12294 11113 3351" preserveAspectRatio="xMidYMid" fill-rule="evenodd" stroke-width="28.222" stroke-linejoin="round" xml:space="preserve">
 <defs class="ClipPathGroup">
  <clipPath id="presentation_clip_path" clipPathUnits="userSpaceOnUse">
   <rect x="0" y="0" width="21590" height="27940"/>
  </clipPath>
  <clipPath id="presentation_clip_path_shrink" clipPathUnits="userSpaceOnUse">
   <rect x="21" y="27" width="21547" height="27885"/>
  </clipPath>
 </defs>
 <defs>
  </defs>
 <defs>
  </defs>
 <defs>
  </defs>
 <defs>
  </defs>
 <defs class="TextShapeIndex">
  <g ooo:slide="id1" ooo:id-list="id3"/>
 </defs>
 <defs class="EmbeddedBulletChars">
  <g id="bullet-char-template-57356" transform="scale(0.00048828125,-0.00048828125)">
   <path d="M 580,1141 L 1163,571 580,0 -4,571 580,1141 Z"/>
  </g>
  <g id="bullet-char-template-57354" transform="scale(0.00048828125,-0.00048828125)">
   <path d="M 8,1128 L 1137,1128 1137,0 8,0 8,1128 Z"/>
  </g>
  <g id="bullet-char-template-10146" transform="scale(0.00048828125,-0.00048828125)">
   <path d="M 174,0 L 602,739 174,1481 1456,739 174,0 Z M 1358,739 L 309,1346 659,739 1358,739 Z"/>
  </g>
  <g id="bullet-char-template-10132" transform="scale(0.00048828125,-0.00048828125)">
   <path d="M 2015,739 L 1276,0 717,0 1260,543 174,543 174,936 1260,936 717,1481 1274,1481 2015,739 Z"/>
  </g>
  <g id="bullet-char-template-10007" transform="scale(0.00048828125,-0.00048828125)">
   <path d="M 0,-2 C -7,14 -16,27 -25,37 L 356,567 C 262,823 215,952 215,954 215,979 228,992 255,992 264,992 276,990 289,987 310,991 331,999 354,1012 L 381,999 492,748 772,1049 836,1024 860,1049 C 881,1039 901,1025 922,1006 886,937 835,863 770,784 769,783 710,716 594,584 L 774,223 C 774,196 753,168 711,139 L 727,119 C 717,90 699,76 672,76 641,76 570,178 457,381 L 164,-76 C 142,-110 111,-127 72,-127 30,-127 9,-110 8,-76 1,-67 -2,-52 -2,-32 -2,-23 -1,-13 0,-2 Z"/>
  </g>
  <g id="bullet-char-template-10004" transform="scale(0.00048828125,-0.00048828125)">
   <path d="M 285,-33 C 182,-33 111,30 74,156 52,228 41,333 41,471 41,549 55,616 82,672 116,743 169,778 240,778 293,778 328,747 346,684 L 369,508 C 377,444 397,411 428,410 L 1163,1116 C 1174,1127 1196,1133 1229,1133 1271,1133 1292,1118 1292,1087 L 1292,965 C 1292,929 1282,901 1262,881 L 442,47 C 390,-6 338,-33 285,-33 Z"/>
  </g>
  <g id="bullet-char-template-9679" transform="scale(0.00048828125,-0.00048828125)">
   <path d="M 813,0 C 632,0 489,54 383,161 276,268 223,411 223,592 223,773 276,916 383,1023 489,1130 632,1184 813,1184 992,1184 1136,1130 1245,1023 1353,916 1407,772 1407,592 1407,412 1353,268 1245,161 1136,54 992,0 813,0 Z"/>
  </g>
  <g id="bullet-char-template-8226" transform="scale(0.00048828125,-0.00048828125)">
   <path d="M 346,457 C 273,457 209,483 155,535 101,586 74,649 74,723 74,796 101,859 155,911 209,963 273,989 346,989 419,989 480,963 531,910 582,859 608,796 608,723 608,648 583,586 532,535 482,483 420,457 346,457 Z"/>
  </g>
  <g id="bullet-char-template-8211" transform="scale(0.00048828125,-0.00048828125)">
   <path d="M -4,459 L 1135,459 1135,606 -4,606 -4,459 Z"/>
  </g>
  <g id="bullet-char-template-61548" transform="scale(0.00048828125,-0.00048828125)">
   <path d="M 173,740 C 173,903 231,1043 346,1159 462,1274 601,1332 765,1332 928,1332 1067,1274 1183,1159 1299,1043 1357,903 1357,740 1357,577 1299,437 1183,322 1067,206 928,148 765,148 601,148 462,206 346,322 231,437 173,577 173,740 Z"/>
  </g>
 </defs>
 <g>
  <g id="id2" class="Master_Slide">
   <g id="bg-id2" class="Background"/>
   <g id="bo-id2" class="BackgroundObjects"/>
  </g>
 </g>
 <g class="SlideGroup">
  <g>
   <g id="container-id1">
    <g id="id1" class="Slide" clip-path="url(#presentation_clip_path)">
     <g class="Page">
      <g class="Graphic">
       <g id="id3">
        <rect class="BoundingBox" stroke="none" fill="none" x="5238" y="12294" width="11113" height="3351"/>
        <path fill="none" stroke="rgb(0,0,0)" stroke-width="18" stroke-linejoin="round" stroke-linecap="round" d="M 7705,12476 L 7705,13056 "/>
        <path fill="none" stroke="rgb(0,0,0)" stroke-width="18" stroke-linejoin="round" stroke-linecap="round" d="M 8549,12476 L 8549,13056 "/>
        <path fill="none" stroke="rgb(0,0,0)" stroke-width="18" stroke-linejoin="round" stroke-linecap="round" d="M 6906,13266 L 6906,13846 "/>
        <path fill="none" stroke="rgb(0,0,0)" stroke-width="18" stroke-linejoin="round" stroke-linecap="round" d="M 7749,13266 L 7749,13846 "/>
        <path fill="none" stroke="rgb(0,0,0)" stroke-width="18" stroke-linejoin="round" stroke-linecap="round" d="M 8509,13266 L 8509,13846 "/>
        <path fill="none" stroke="rgb(0,0,0)" stroke-width="18" stroke-linejoin="round" stroke-linecap="round" d="M 9348,13266 L 9348,13846 "/>
        <path fill="none" stroke="rgb(0,0,0)" stroke-width="18" stroke-linejoin="round" stroke-linecap="round" d="M 6862,13122 L 9615,13122 "/>
        <path fill="none" stroke="rgb(0,0,0)" stroke-width="18" stroke-linejoin="round" stroke-linecap="round" d="M 11130,12476 L 11130,13056 "/>
        <path fill="none" stroke="rgb(0,0,0)" stroke-width="18" stroke-linejoin="round" stroke-linecap="round" d="M 11426,12476 L 11426,13056 "/>
        <path fill="none" stroke="rgb(0,0,0)" stroke-width="18" stroke-linejoin="round" stroke-linecap="round" d="M 11705,12476 L 11705,13056 "/>
        <path fill="none" stroke="rgb(0,0,0)" stroke-width="18" stroke-linejoin="round" stroke-linecap="round" d="M 12294,12476 L 12294,13056 "/>
        <path fill="none" stroke="rgb(0,0,0)" stroke-width="18" stroke-linejoin="round" stroke-linecap="round" d="M 10170,13266 L 10170,13846 "/>
        <path fill="none" stroke="rgb(0,0,0)" stroke-width="18" stroke-linejoin="round" stroke-linecap="round" d="M 10467,13266 L 10467,13846 "/>
        <path fill="none" stroke="rgb(0,0,0)" stroke-width="18" stroke-linejoin="round" stroke-linecap="round" d="M 10746,13266 L 10746,13846 "/>
        <path fill="none" stroke="rgb(0,0,0)" stroke-width="18" stroke-linejoin="round" stroke-linecap="round" d="M 11335,13266 L 11335,13846 "/>
        <path fill="none" stroke="rgb(0,0,0)" stroke-width="18" stroke-linejoin="round" stroke-linecap="round" d="M 12094,13266 L 12094,13846 "/>
        <path fill="none" stroke="rgb(0,0,0)" stroke-width="18" stroke-linejoin="round" stroke-linecap="round" d="M 12391,13266 L 12391,13846 "/>
        <path fill="none" stroke="rgb(0,0,0)" stroke-width="18" stroke-linejoin="round" stroke-linecap="round" d="M 12670,13266 L 12670,13846 "/>
        <path fill="none" stroke="rgb(0,0,0)" stroke-width="18" stroke-linejoin="round" stroke-linecap="round" d="M 13254,13266 L 13254,13846 "/>
        <path fill="none" stroke="rgb(0,0,0)" stroke-width="18" stroke-linejoin="round" stroke-linecap="round" d="M 10126,13122 L 13521,13122 "/>
        <path fill="none" stroke="rgb(0,0,0)" stroke-width="18" stroke-linejoin="round" stroke-linecap="round" d="M 14748,12476 L 14748,13056 "/>
        <path fill="none" stroke="rgb(0,0,0)" stroke-width="18" stroke-linejoin="round" stroke-linecap="round" d="M 15337,12476 L 15337,13056 "/>
        <path fill="none" stroke="rgb(0,0,0)" stroke-width="18" stroke-linejoin="round" stroke-linecap="round" d="M 14077,13266 L 14077,13846 "/>
        <path fill="none" stroke="rgb(0,0,0)" stroke-width="18" stroke-linejoin="round" stroke-linecap="round" d="M 14665,13266 L 14665,13846 "/>
        <path fill="none" stroke="rgb(0,0,0)" stroke-width="18" stroke-linejoin="round" stroke-linecap="round" d="M 15425,13266 L 15425,13846 "/>
        <path fill="none" stroke="rgb(0,0,0)" stroke-width="18" stroke-linejoin="round" stroke-linecap="round" d="M 16009,13266 L 16009,13846 "/>
        <path fill="none" stroke="rgb(0,0,0)" stroke-width="18" stroke-linejoin="round" stroke-linecap="round" d="M 14032,13122 L 16276,13122 "/>
        <path fill="none" stroke="rgb(0,0,0)" stroke-width="18" stroke-linejoin="round" stroke-linecap="round" d="M 7830,14171 L 7830,14751 "/>
        <path fill="none" stroke="rgb(0,0,0)" stroke-width="18" stroke-linejoin="round" stroke-linecap="round" d="M 8414,14171 L 8414,14751 "/>
        <path fill="none" stroke="rgb(0,0,0)" stroke-width="18" stroke-linejoin="round" stroke-linecap="round" d="M 6902,14962 L 6902,15541 "/>
        <path fill="none" stroke="rgb(0,0,0)" stroke-width="18" stroke-linejoin="round" stroke-linecap="round" d="M 7745,14962 L 7745,15541 "/>
        <path fill="none" stroke="rgb(0,0,0)" stroke-width="18" stroke-linejoin="round" stroke-linecap="round" d="M 8505,14962 L 8505,15541 "/>
        <path fill="none" stroke="rgb(0,0,0)" stroke-width="18" stroke-linejoin="round" stroke-linecap="round" d="M 9344,14962 L 9344,15541 "/>
        <path fill="none" stroke="rgb(0,0,0)" stroke-width="18" stroke-linejoin="round" stroke-linecap="round" d="M 6858,14817 L 9610,14817 "/>
        <path fill="none" stroke="rgb(0,0,0)" stroke-width="18" stroke-linejoin="round" stroke-linecap="round" d="M 11127,14171 L 11127,14751 "/>
        <path fill="none" stroke="rgb(0,0,0)" stroke-width="18" stroke-linejoin="round" stroke-linecap="round" d="M 11424,14171 L 11424,14751 "/>
        <path fill="none" stroke="rgb(0,0,0)" stroke-width="18" stroke-linejoin="round" stroke-linecap="round" d="M 11703,14171 L 11703,14751 "/>
        <path fill="none" stroke="rgb(0,0,0)" stroke-width="18" stroke-linejoin="round" stroke-linecap="round" d="M 12287,14171 L 12287,14751 "/>
        <path fill="none" stroke="rgb(0,0,0)" stroke-width="18" stroke-linejoin="round" stroke-linecap="round" d="M 10166,14962 L 10166,15541 "/>
        <path fill="none" stroke="rgb(0,0,0)" stroke-width="18" stroke-linejoin="round" stroke-linecap="round" d="M 10463,14962 L 10463,15541 "/>
        <path fill="none" stroke="rgb(0,0,0)" stroke-width="18" stroke-linejoin="round" stroke-linecap="round" d="M 10742,14962 L 10742,15541 "/>
        <path fill="none" stroke="rgb(0,0,0)" stroke-width="18" stroke-linejoin="round" stroke-linecap="round" d="M 11330,14962 L 11330,15541 "/>
        <path fill="none" stroke="rgb(0,0,0)" stroke-width="18" stroke-linejoin="round" stroke-linecap="round" d="M 12090,14962 L 12090,15541 "/>
        <path fill="none" stroke="rgb(0,0,0)" stroke-width="18" stroke-linejoin="round" stroke-linecap="round" d="M 12386,14962 L 12386,15541 "/>
        <path fill="none" stroke="rgb(0,0,0)" stroke-width="18" stroke-linejoin="round" stroke-linecap="round" d="M 12665,14962 L 12665,15541 "/>
        <path fill="none" stroke="rgb(0,0,0)" stroke-width="18" stroke-linejoin="round" stroke-linecap="round" d="M 13250,14962 L 13250,15541 "/>
        <path fill="none" stroke="rgb(0,0,0)" stroke-width="18" stroke-linejoin="round" stroke-linecap="round" d="M 10122,14817 L 13517,14817 "/>
        <path fill="none" stroke="rgb(0,0,0)" stroke-width="18" stroke-linejoin="round" stroke-linecap="round" d="M 14746,14171 L 14746,14751 "/>
        <path fill="none" stroke="rgb(0,0,0)" stroke-width="18" stroke-linejoin="round" stroke-linecap="round" d="M 15330,14171 L 15330,14751 "/>
        <path fill="none" stroke="rgb(0,0,0)" stroke-width="18" stroke-linejoin="round" stroke-linecap="round" d="M 14072,14962 L 14072,15541 "/>
        <path fill="none" stroke="rgb(0,0,0)" stroke-width="18" stroke-linejoin="round" stroke-linecap="round" d="M 14661,14962 L 14661,15541 "/>
        <path fill="none" stroke="rgb(0,0,0)" stroke-width="18" stroke-linejoin="round" stroke-linecap="round" d="M 15421,14962 L 15421,15541 "/>
        <path fill="none" stroke="rgb(0,0,0)" stroke-width="18" stroke-linejoin="round" stroke-linecap="round" d="M 16005,14962 L 16005,15541 "/>
        <path fill="none" stroke="rgb(0,0,0)" stroke-width="18" stroke-linejoin="round" stroke-linecap="round" d="M 14028,14817 L 16272,14817 "/>
        <text class="SVGTextShape"><tspan class="TextParagraph"><tspan class="TextPosition" x="16072" y="15072"><tspan font-family="Times New Roman, serif" font-size="247px" font-weight="400" lengthAdjust="spacingAndGlyphs" textLength="127" fill="rgb(0,0,0)" stroke="none" style="white-space: pre">2</tspan></tspan></tspan></text>
        <text class="SVGTextShape"><tspan class="TextParagraph"><tspan class="TextPosition" x="14728" y="15072"><tspan font-family="Times New Roman, serif" font-size="247px" font-weight="400" lengthAdjust="spacingAndGlyphs" textLength="127" fill="rgb(0,0,0)" stroke="none" style="white-space: pre">2</tspan></tspan></tspan></text>
        <text class="SVGTextShape"><tspan class="TextParagraph"><tspan class="TextPosition" x="15397" y="14281"><tspan font-family="Times New Roman, serif" font-size="247px" font-weight="400" lengthAdjust="spacingAndGlyphs" textLength="127" fill="rgb(0,0,0)" stroke="none" style="white-space: pre">2</tspan></tspan></tspan></text>
        <text class="SVGTextShape"><tspan class="TextParagraph"><tspan class="TextPosition" x="13317" y="15072"><tspan font-family="Times New Roman, serif" font-size="247px" font-weight="400" lengthAdjust="spacingAndGlyphs" textLength="127" fill="rgb(0,0,0)" stroke="none" style="white-space: pre">2</tspan></tspan></tspan></text>
        <text class="SVGTextShape"><tspan class="TextParagraph"><tspan class="TextPosition" x="12454" y="15072"><tspan font-family="Times New Roman, serif" font-size="247px" font-weight="400" lengthAdjust="spacingAndGlyphs" textLength="127" fill="rgb(0,0,0)" stroke="none" style="white-space: pre">2</tspan></tspan></tspan></text>
        <text class="SVGTextShape"><tspan class="TextParagraph"><tspan class="TextPosition" x="11398" y="15072"><tspan font-family="Times New Roman, serif" font-size="247px" font-weight="400" lengthAdjust="spacingAndGlyphs" textLength="127" fill="rgb(0,0,0)" stroke="none" style="white-space: pre">2</tspan></tspan></tspan></text>
        <text class="SVGTextShape"><tspan class="TextParagraph"><tspan class="TextPosition" x="10530" y="15072"><tspan font-family="Times New Roman, serif" font-size="247px" font-weight="400" lengthAdjust="spacingAndGlyphs" textLength="127" fill="rgb(0,0,0)" stroke="none" style="white-space: pre">2</tspan></tspan></tspan></text>
        <text class="SVGTextShape"><tspan class="TextParagraph"><tspan class="TextPosition" x="12355" y="14281"><tspan font-family="Times New Roman, serif" font-size="247px" font-weight="400" lengthAdjust="spacingAndGlyphs" textLength="127" fill="rgb(0,0,0)" stroke="none" style="white-space: pre">2</tspan></tspan></tspan></text>
        <text class="SVGTextShape"><tspan class="TextParagraph"><tspan class="TextPosition" x="11491" y="14281"><tspan font-family="Times New Roman, serif" font-size="247px" font-weight="400" lengthAdjust="spacingAndGlyphs" textLength="127" fill="rgb(0,0,0)" stroke="none" style="white-space: pre">2</tspan></tspan></tspan></text>
        <text class="SVGTextShape"><tspan class="TextParagraph"><tspan class="TextPosition" x="9411" y="15072"><tspan font-family="Times New Roman, serif" font-size="247px" font-weight="400" lengthAdjust="spacingAndGlyphs" textLength="127" fill="rgb(0,0,0)" stroke="none" style="white-space: pre">2</tspan></tspan></tspan></text>
        <text class="SVGTextShape"><tspan class="TextParagraph"><tspan class="TextPosition" x="7812" y="15072"><tspan font-family="Times New Roman, serif" font-size="247px" font-weight="400" lengthAdjust="spacingAndGlyphs" textLength="127" fill="rgb(0,0,0)" stroke="none" style="white-space: pre">2</tspan></tspan></tspan></text>
        <text class="SVGTextShape"><tspan class="TextParagraph"><tspan class="TextPosition" x="8481" y="14281"><tspan font-family="Times New Roman, serif" font-size="247px" font-weight="400" lengthAdjust="spacingAndGlyphs" textLength="127" fill="rgb(0,0,0)" stroke="none" style="white-space: pre">2</tspan></tspan></tspan></text>
        <text class="SVGTextShape"><tspan class="TextParagraph"><tspan class="TextPosition" x="16076" y="13376"><tspan font-family="Times New Roman, serif" font-size="247px" font-weight="400" lengthAdjust="spacingAndGlyphs" textLength="127" fill="rgb(0,0,0)" stroke="none" style="white-space: pre">2</tspan></tspan></tspan></text>
        <text class="SVGTextShape"><tspan class="TextParagraph"><tspan class="TextPosition" x="14733" y="13376"><tspan font-family="Times New Roman, serif" font-size="247px" font-weight="400" lengthAdjust="spacingAndGlyphs" textLength="127" fill="rgb(0,0,0)" stroke="none" style="white-space: pre">2</tspan></tspan></tspan></text>
        <text class="SVGTextShape"><tspan class="TextParagraph"><tspan class="TextPosition" x="15404" y="12586"><tspan font-family="Times New Roman, serif" font-size="247px" font-weight="400" lengthAdjust="spacingAndGlyphs" textLength="127" fill="rgb(0,0,0)" stroke="none" style="white-space: pre">2</tspan></tspan></tspan></text>
        <text class="SVGTextShape"><tspan class="TextParagraph"><tspan class="TextPosition" x="13321" y="13376"><tspan font-family="Times New Roman, serif" font-size="247px" font-weight="400" lengthAdjust="spacingAndGlyphs" textLength="127" fill="rgb(0,0,0)" stroke="none" style="white-space: pre">2</tspan></tspan></tspan></text>
        <text class="SVGTextShape"><tspan class="TextParagraph"><tspan class="TextPosition" x="12458" y="13376"><tspan font-family="Times New Roman, serif" font-size="247px" font-weight="400" lengthAdjust="spacingAndGlyphs" textLength="127" fill="rgb(0,0,0)" stroke="none" style="white-space: pre">2</tspan></tspan></tspan></text>
        <text class="SVGTextShape"><tspan class="TextParagraph"><tspan class="TextPosition" x="11402" y="13376"><tspan font-family="Times New Roman, serif" font-size="247px" font-weight="400" lengthAdjust="spacingAndGlyphs" textLength="127" fill="rgb(0,0,0)" stroke="none" style="white-space: pre">2</tspan></tspan></tspan></text>
        <text class="SVGTextShape"><tspan class="TextParagraph"><tspan class="TextPosition" x="10534" y="13376"><tspan font-family="Times New Roman, serif" font-size="247px" font-weight="400" lengthAdjust="spacingAndGlyphs" textLength="127" fill="rgb(0,0,0)" stroke="none" style="white-space: pre">2</tspan></tspan></tspan></text>
        <text class="SVGTextShape"><tspan class="TextParagraph"><tspan class="TextPosition" x="12361" y="12586"><tspan font-family="Times New Roman, serif" font-size="247px" font-weight="400" lengthAdjust="spacingAndGlyphs" textLength="127" fill="rgb(0,0,0)" stroke="none" style="white-space: pre">2</tspan></tspan></tspan></text>
        <text class="SVGTextShape"><tspan class="TextParagraph"><tspan class="TextPosition" x="11493" y="12586"><tspan font-family="Times New Roman, serif" font-size="247px" font-weight="400" lengthAdjust="spacingAndGlyphs" textLength="127" fill="rgb(0,0,0)" stroke="none" style="white-space: pre">2</tspan></tspan></tspan></text>
        <text class="SVGTextShape"><tspan class="TextParagraph"><tspan class="TextPosition" x="9415" y="13376"><tspan font-family="Times New Roman, serif" font-size="247px" font-weight="400" lengthAdjust="spacingAndGlyphs" textLength="127" fill="rgb(0,0,0)" stroke="none" style="white-space: pre">2</tspan></tspan></tspan></text>
        <text class="SVGTextShape"><tspan class="TextParagraph"><tspan class="TextPosition" x="7817" y="13376"><tspan font-family="Times New Roman, serif" font-size="247px" font-weight="400" lengthAdjust="spacingAndGlyphs" textLength="127" fill="rgb(0,0,0)" stroke="none" style="white-space: pre">2</tspan></tspan></tspan></text>
        <text class="SVGTextShape"><tspan class="TextParagraph"><tspan class="TextPosition" x="8616" y="12586"><tspan font-family="Times New Roman, serif" font-size="247px" font-weight="400" lengthAdjust="spacingAndGlyphs" textLength="127" fill="rgb(0,0,0)" stroke="none" style="white-space: pre">2</tspan></tspan></tspan></text>
        <text class="SVGTextShape"><tspan class="TextParagraph"><tspan class="TextPosition" x="5733" y="15126"><tspan font-family="Times New Roman, serif" font-size="176px" font-weight="400" lengthAdjust="spacingAndGlyphs" textLength="85" fill="rgb(0,0,0)" stroke="none" style="white-space: pre">0</tspan></tspan></tspan></text>
        <text class="SVGTextShape"><tspan class="TextParagraph"><tspan class="TextPosition" x="5733" y="13430"><tspan font-family="Times New Roman, serif" font-size="176px" font-weight="400" lengthAdjust="spacingAndGlyphs" textLength="85" fill="rgb(0,0,0)" stroke="none" style="white-space: pre">0</tspan></tspan></tspan></text>
        <g class="OutlinedText"><path d="M 37,576 L 1087,576 1087,477 37,477 37,576 Z " transform="translate(15778,15498) scale(0.121,-0.121)" fill="rgb(0,0,0)" stroke="none"/></g><g class="OutlinedText"><path d="M 514,1050 L 612,1050 612,572 1087,572 1087,475 612,475 612,0 514,0 514,475 37,475 37,572 514,572 514,1050 Z " transform="translate(14429,15498) scale(0.121,-0.121)" fill="rgb(0,0,0)" stroke="none"/></g><g class="OutlinedText"><path d="M 37,576 L 1087,576 1087,477 37,477 37,576 Z " transform="translate(15103,14708) scale(0.121,-0.121)" fill="rgb(0,0,0)" stroke="none"/></g><g class="OutlinedText"><path d="M 37,576 L 1087,576 1087,477 37,477 37,576 Z " transform="translate(13023,15498) scale(0.121,-0.121)" fill="rgb(0,0,0)" stroke="none"/></g><g class="OutlinedText"><path d="M 514,1050 L 612,1050 612,572 1087,572 1087,475 612,475 612,0 514,0 514,475 37,475 37,572 514,572 514,1050 Z " transform="translate(11099,15498) scale(0.121,-0.121)" fill="rgb(0,0,0)" stroke="none"/></g><g class="OutlinedText"><path d="M 37,576 L 1087,576 1087,477 37,477 37,576 Z " transform="translate(12060,14708) scale(0.121,-0.121)" fill="rgb(0,0,0)" stroke="none"/></g><g class="OutlinedText"><path d="M 37,576 L 1087,576 1087,477 37,477 37,576 Z " transform="translate(9117,15498) scale(0.121,-0.121)" fill="rgb(0,0,0)" stroke="none"/></g><g class="OutlinedText"><path d="M 514,1050 L 612,1050 612,572 1087,572 1087,475 612,475 612,0 514,0 514,475 37,475 37,572 514,572 514,1050 Z " transform="translate(7514,15498) scale(0.121,-0.121)" fill="rgb(0,0,0)" stroke="none"/></g><g class="OutlinedText"><path d="M 37,576 L 1087,576 1087,477 37,477 37,576 Z " transform="translate(8187,14708) scale(0.121,-0.121)" fill="rgb(0,0,0)" stroke="none"/></g><g class="OutlinedText"><path d="M 37,576 L 1087,576 1087,477 37,477 37,576 Z " transform="translate(6012,15064) scale(0.121,-0.121)" fill="rgb(0,0,0)" stroke="none"/></g><g class="OutlinedText"><path d="M 37,759 L 1087,759 1087,662 37,662 37,759 Z M 37,386 L 1087,386 1087,287 37,287 37,386 Z " transform="translate(5862,15064) scale(0.121,-0.121)" fill="rgb(0,0,0)" stroke="none"/></g><g class="OutlinedText"><path d="M 37,576 L 1087,576 1087,477 37,477 37,576 Z " transform="translate(15782,13803) scale(0.121,-0.121)" fill="rgb(0,0,0)" stroke="none"/></g><g class="OutlinedText"><path d="M 514,1050 L 612,1050 612,572 1087,572 1087,475 612,475 612,0 514,0 514,475 37,475 37,572 514,572 514,1050 Z " transform="translate(14434,13803) scale(0.121,-0.121)" fill="rgb(0,0,0)" stroke="none"/></g><g class="OutlinedText"><path d="M 514,1050 L 612,1050 612,572 1087,572 1087,475 612,475 612,0 514,0 514,475 37,475 37,572 514,572 514,1050 Z " transform="translate(15105,13013) scale(0.121,-0.121)" fill="rgb(0,0,0)" stroke="none"/></g><g class="OutlinedText"><path d="M 37,576 L 1087,576 1087,477 37,477 37,576 Z " transform="translate(13027,13803) scale(0.121,-0.121)" fill="rgb(0,0,0)" stroke="none"/></g><g class="OutlinedText"><path d="M 514,1050 L 612,1050 612,572 1087,572 1087,475 612,475 612,0 514,0 514,475 37,475 37,572 514,572 514,1050 Z " transform="translate(11103,13803) scale(0.121,-0.121)" fill="rgb(0,0,0)" stroke="none"/></g><g class="OutlinedText"><path d="M 514,1050 L 612,1050 612,572 1087,572 1087,475 612,475 612,0 514,0 514,475 37,475 37,572 514,572 514,1050 Z " transform="translate(12062,13013) scale(0.121,-0.121)" fill="rgb(0,0,0)" stroke="none"/></g><g class="OutlinedText"><path d="M 37,576 L 1087,576 1087,477 37,477 37,576 Z " transform="translate(9121,13803) scale(0.121,-0.121)" fill="rgb(0,0,0)" stroke="none"/></g><g class="OutlinedText"><path d="M 514,1050 L 612,1050 612,572 1087,572 1087,475 612,475 612,0 514,0 514,475 37,475 37,572 514,572 514,1050 Z " transform="translate(7518,13803) scale(0.121,-0.121)" fill="rgb(0,0,0)" stroke="none"/></g><g class="OutlinedText"><path d="M 514,1050 L 612,1050 612,572 1087,572 1087,475 612,475 612,0 514,0 514,475 37,475 37,572 514,572 514,1050 Z " transform="translate(8317,13013) scale(0.121,-0.121)" fill="rgb(0,0,0)" stroke="none"/></g><g class="OutlinedText"><path d="M 514,1050 L 612,1050 612,572 1087,572 1087,475 612,475 612,0 514,0 514,475 37,475 37,572 514,572 514,1050 Z " transform="translate(6012,13369) scale(0.121,-0.121)" fill="rgb(0,0,0)" stroke="none"/></g><g class="OutlinedText"><path d="M 37,759 L 1087,759 1087,662 37,662 37,759 Z M 37,386 L 1087,386 1087,287 37,287 37,386 Z " transform="translate(5862,13369) scale(0.121,-0.121)" fill="rgb(0,0,0)" stroke="none"/></g><g class="OutlinedText"><path d="M 514,1050 L 612,1050 612,572 1087,572 1087,475 612,475 612,0 514,0 514,475 37,475 37,572 514,572 514,1050 Z " transform="translate(15017,15375) scale(0.241,-0.241)" fill="rgb(0,0,0)" stroke="none"/></g><g class="OutlinedText"><path d="M 37,759 L 1087,759 1087,662 37,662 37,759 Z M 37,386 L 1087,386 1087,287 37,287 37,386 Z " transform="translate(13641,14941) scale(0.241,-0.241)" fill="rgb(0,0,0)" stroke="none"/></g><g class="OutlinedText"><path d="M 514,1050 L 612,1050 612,572 1087,572 1087,475 612,475 612,0 514,0 514,475 37,475 37,572 514,572 514,1050 Z " transform="translate(11686,15375) scale(0.241,-0.241)" fill="rgb(0,0,0)" stroke="none"/></g><g class="OutlinedText"><path d="M 37,759 L 1087,759 1087,662 37,662 37,759 Z M 37,386 L 1087,386 1087,287 37,287 37,386 Z " transform="translate(9735,14941) scale(0.241,-0.241)" fill="rgb(0,0,0)" stroke="none"/></g><g class="OutlinedText"><path d="M 514,1050 L 612,1050 612,572 1087,572 1087,475 612,475 612,0 514,0 514,475 37,475 37,572 514,572 514,1050 Z " transform="translate(8101,15375) scale(0.241,-0.241)" fill="rgb(0,0,0)" stroke="none"/></g><g class="OutlinedText"><path d="M 37,759 L 1087,759 1087,662 37,662 37,759 Z M 37,386 L 1087,386 1087,287 37,287 37,386 Z " transform="translate(6471,14941) scale(0.241,-0.241)" fill="rgb(0,0,0)" stroke="none"/></g><g class="OutlinedText"><path d="M 514,1050 L 612,1050 612,572 1087,572 1087,475 612,475 612,0 514,0 514,475 37,475 37,572 514,572 514,1050 Z " transform="translate(15021,13680) scale(0.241,-0.241)" fill="rgb(0,0,0)" stroke="none"/></g><g class="OutlinedText"><path d="M 37,759 L 1087,759 1087,662 37,662 37,759 Z M 37,386 L 1087,386 1087,287 37,287 37,386 Z " transform="translate(13646,13245) scale(0.241,-0.241)" fill="rgb(0,0,0)" stroke="none"/></g><g class="OutlinedText"><path d="M 514,1050 L 612,1050 612,572 1087,572 1087,475 612,475 612,0 514,0 514,475 37,475 37,572 514,572 514,1050 Z " transform="translate(11691,13680) scale(0.241,-0.241)" fill="rgb(0,0,0)" stroke="none"/></g><g class="OutlinedText"><path d="M 37,759 L 1087,759 1087,662 37,662 37,759 Z M 37,386 L 1087,386 1087,287 37,287 37,386 Z " transform="translate(9739,13245) scale(0.241,-0.241)" fill="rgb(0,0,0)" stroke="none"/></g><g class="OutlinedText"><path d="M 514,1050 L 612,1050 612,572 1087,572 1087,475 612,475 612,0 514,0 514,475 37,475 37,572 514,572 514,1050 Z " transform="translate(8106,13680) scale(0.241,-0.241)" fill="rgb(0,0,0)" stroke="none"/></g><g class="OutlinedText"><path d="M 37,759 L 1087,759 1087,662 37,662 37,759 Z M 37,386 L 1087,386 1087,287 37,287 37,386 Z " transform="translate(6475,13245) scale(0.241,-0.241)" fill="rgb(0,0,0)" stroke="none"/></g><g class="OutlinedText"><path d="M 1248,916 L 1414,916 1130,461 C 1111,432 1082,387 1043,326 1033,223 1031,162 1037,142 1049,105 1073,87 1110,87 1136,87 1165,98 1195,120 1225,142 1252,176 1275,223 L 1315,223 C 1273,127 1230,61 1187,24 1143,-13 1101,-31 1060,-31 1022,-31 993,-15 973,17 953,49 949,118 960,223 911,165 867,121 829,91 776,50 722,19 669,-1 617,-22 561,-32 502,-32 355,-32 263,17 227,115 191,213 194,325 237,450 287,597 368,716 480,807 592,898 703,943 812,943 888,943 948,920 990,874 1032,827 1055,741 1060,615 L 1248,916 Z M 987,503 C 998,640 984,736 946,791 907,845 859,872 800,872 735,872 669,836 601,765 533,693 473,579 419,422 388,329 373,257 373,204 374,151 388,110 416,81 444,52 479,37 521,37 572,37 627,61 686,108 765,172 866,304 987,503 Z " transform="translate(15423,15375) scale(0.241,-0.241)" fill="rgb(0,0,0)" stroke="none"/></g><g class="OutlinedText"><path d="M 1248,916 L 1414,916 1130,461 C 1111,432 1082,387 1043,326 1033,223 1031,162 1037,142 1049,105 1073,87 1110,87 1136,87 1165,98 1195,120 1225,142 1252,176 1275,223 L 1315,223 C 1273,127 1230,61 1187,24 1143,-13 1101,-31 1060,-31 1022,-31 993,-15 973,17 953,49 949,118 960,223 911,165 867,121 829,91 776,50 722,19 669,-1 617,-22 561,-32 502,-32 355,-32 263,17 227,115 191,213 194,325 237,450 287,597 368,716 480,807 592,898 703,943 812,943 888,943 948,920 990,874 1032,827 1055,741 1060,615 L 1248,916 Z M 987,503 C 998,640 984,736 946,791 907,845 859,872 800,872 735,872 669,836 601,765 533,693 473,579 419,422 388,329 373,257 373,204 374,151 388,110 416,81 444,52 479,37 521,37 572,37 627,61 686,108 765,172 866,304 987,503 Z " transform="translate(14074,15375) scale(0.241,-0.241)" fill="rgb(0,0,0)" stroke="none"/></g><g class="OutlinedText"><path d="M 1248,916 L 1414,916 1130,461 C 1111,432 1082,387 1043,326 1033,223 1031,162 1037,142 1049,105 1073,87 1110,87 1136,87 1165,98 1195,120 1225,142 1252,176 1275,223 L 1315,223 C 1273,127 1230,61 1187,24 1143,-13 1101,-31 1060,-31 1022,-31 993,-15 973,17 953,49 949,118 960,223 911,165 867,121 829,91 776,50 722,19 669,-1 617,-22 561,-32 502,-32 355,-32 263,17 227,115 191,213 194,325 237,450 287,597 368,716 480,807 592,898 703,943 812,943 888,943 948,920 990,874 1032,827 1055,741 1060,615 L 1248,916 Z M 987,503 C 998,640 984,736 946,791 907,845 859,872 800,872 735,872 669,836 601,765 533,693 473,579 419,422 388,329 373,257 373,204 374,151 388,110 416,81 444,52 479,37 521,37 572,37 627,61 686,108 765,172 866,304 987,503 Z " transform="translate(14748,14585) scale(0.241,-0.241)" fill="rgb(0,0,0)" stroke="none"/></g><g class="OutlinedText"><path d="M 1248,916 L 1414,916 1130,461 C 1111,432 1082,387 1043,326 1033,223 1031,162 1037,142 1049,105 1073,87 1110,87 1136,87 1165,98 1195,120 1225,142 1252,176 1275,223 L 1315,223 C 1273,127 1230,61 1187,24 1143,-13 1101,-31 1060,-31 1022,-31 993,-15 973,17 953,49 949,118 960,223 911,165 867,121 829,91 776,50 722,19 669,-1 617,-22 561,-32 502,-32 355,-32 263,17 227,115 191,213 194,325 237,450 287,597 368,716 480,807 592,898 703,943 812,943 888,943 948,920 990,874 1032,827 1055,741 1060,615 L 1248,916 Z M 987,503 C 998,640 984,736 946,791 907,845 859,872 800,872 735,872 669,836 601,765 533,693 473,579 419,422 388,329 373,257 373,204 374,151 388,110 416,81 444,52 479,37 521,37 572,37 627,61 686,108 765,172 866,304 987,503 Z " transform="translate(12668,15375) scale(0.241,-0.241)" fill="rgb(0,0,0)" stroke="none"/></g><g class="OutlinedText"><path d="M 1248,916 L 1414,916 1130,461 C 1111,432 1082,387 1043,326 1033,223 1031,162 1037,142 1049,105 1073,87 1110,87 1136,87 1165,98 1195,120 1225,142 1252,176 1275,223 L 1315,223 C 1273,127 1230,61 1187,24 1143,-13 1101,-31 1060,-31 1022,-31 993,-15 973,17 953,49 949,118 960,223 911,165 867,121 829,91 776,50 722,19 669,-1 617,-22 561,-32 502,-32 355,-32 263,17 227,115 191,213 194,325 237,450 287,597 368,716 480,807 592,898 703,943 812,943 888,943 948,920 990,874 1032,827 1055,741 1060,615 L 1248,916 Z M 987,503 C 998,640 984,736 946,791 907,845 859,872 800,872 735,872 669,836 601,765 533,693 473,579 419,422 388,329 373,257 373,204 374,151 388,110 416,81 444,52 479,37 521,37 572,37 627,61 686,108 765,172 866,304 987,503 Z " transform="translate(10744,15375) scale(0.241,-0.241)" fill="rgb(0,0,0)" stroke="none"/></g><g class="OutlinedText"><path d="M 1248,916 L 1414,916 1130,461 C 1111,432 1082,387 1043,326 1033,223 1031,162 1037,142 1049,105 1073,87 1110,87 1136,87 1165,98 1195,120 1225,142 1252,176 1275,223 L 1315,223 C 1273,127 1230,61 1187,24 1143,-13 1101,-31 1060,-31 1022,-31 993,-15 973,17 953,49 949,118 960,223 911,165 867,121 829,91 776,50 722,19 669,-1 617,-22 561,-32 502,-32 355,-32 263,17 227,115 191,213 194,325 237,450 287,597 368,716 480,807 592,898 703,943 812,943 888,943 948,920 990,874 1032,827 1055,741 1060,615 L 1248,916 Z M 987,503 C 998,640 984,736 946,791 907,845 859,872 800,872 735,872 669,836 601,765 533,693 473,579 419,422 388,329 373,257 373,204 374,151 388,110 416,81 444,52 479,37 521,37 572,37 627,61 686,108 765,172 866,304 987,503 Z " transform="translate(11705,14585) scale(0.241,-0.241)" fill="rgb(0,0,0)" stroke="none"/></g><g class="OutlinedText"><path d="M 1248,916 L 1414,916 1130,461 C 1111,432 1082,387 1043,326 1033,223 1031,162 1037,142 1049,105 1073,87 1110,87 1136,87 1165,98 1195,120 1225,142 1252,176 1275,223 L 1315,223 C 1273,127 1230,61 1187,24 1143,-13 1101,-31 1060,-31 1022,-31 993,-15 973,17 953,49 949,118 960,223 911,165 867,121 829,91 776,50 722,19 669,-1 617,-22 561,-32 502,-32 355,-32 263,17 227,115 191,213 194,325 237,450 287,597 368,716 480,807 592,898 703,943 812,943 888,943 948,920 990,874 1032,827 1055,741 1060,615 L 1248,916 Z M 987,503 C 998,640 984,736 946,791 907,845 859,872 800,872 735,872 669,836 601,765 533,693 473,579 419,422 388,329 373,257 373,204 374,151 388,110 416,81 444,52 479,37 521,37 572,37 627,61 686,108 765,172 866,304 987,503 Z " transform="translate(8762,15375) scale(0.241,-0.241)" fill="rgb(0,0,0)" stroke="none"/></g><g class="OutlinedText"><path d="M 1248,916 L 1414,916 1130,461 C 1111,432 1082,387 1043,326 1033,223 1031,162 1037,142 1049,105 1073,87 1110,87 1136,87 1165,98 1195,120 1225,142 1252,176 1275,223 L 1315,223 C 1273,127 1230,61 1187,24 1143,-13 1101,-31 1060,-31 1022,-31 993,-15 973,17 953,49 949,118 960,223 911,165 867,121 829,91 776,50 722,19 669,-1 617,-22 561,-32 502,-32 355,-32 263,17 227,115 191,213 194,325 237,450 287,597 368,716 480,807 592,898 703,943 812,943 888,943 948,920 990,874 1032,827 1055,741 1060,615 L 1248,916 Z M 987,503 C 998,640 984,736 946,791 907,845 859,872 800,872 735,872 669,836 601,765 533,693 473,579 419,422 388,329 373,257 373,204 374,151 388,110 416,81 444,52 479,37 521,37 572,37 627,61 686,108 765,172 866,304 987,503 Z " transform="translate(7159,15375) scale(0.241,-0.241)" fill="rgb(0,0,0)" stroke="none"/></g><g class="OutlinedText"><path d="M 1248,916 L 1414,916 1130,461 C 1111,432 1082,387 1043,326 1033,223 1031,162 1037,142 1049,105 1073,87 1110,87 1136,87 1165,98 1195,120 1225,142 1252,176 1275,223 L 1315,223 C 1273,127 1230,61 1187,24 1143,-13 1101,-31 1060,-31 1022,-31 993,-15 973,17 953,49 949,118 960,223 911,165 867,121 829,91 776,50 722,19 669,-1 617,-22 561,-32 502,-32 355,-32 263,17 227,115 191,213 194,325 237,450 287,597 368,716 480,807 592,898 703,943 812,943 888,943 948,920 990,874 1032,827 1055,741 1060,615 L 1248,916 Z M 987,503 C 998,640 984,736 946,791 907,845 859,872 800,872 735,872 669,836 601,765 533,693 473,579 419,422 388,329 373,257 373,204 374,151 388,110 416,81 444,52 479,37 521,37 572,37 627,61 686,108 765,172 866,304 987,503 Z " transform="translate(7832,14585) scale(0.241,-0.241)" fill="rgb(0,0,0)" stroke="none"/></g><g class="OutlinedText"><path d="M 1248,916 L 1414,916 1130,461 C 1111,432 1082,387 1043,326 1033,223 1031,162 1037,142 1049,105 1073,87 1110,87 1136,87 1165,98 1195,120 1225,142 1252,176 1275,223 L 1315,223 C 1273,127 1230,61 1187,24 1143,-13 1101,-31 1060,-31 1022,-31 993,-15 973,17 953,49 949,118 960,223 911,165 867,121 829,91 776,50 722,19 669,-1 617,-22 561,-32 502,-32 355,-32 263,17 227,115 191,213 194,325 237,450 287,597 368,716 480,807 592,898 703,943 812,943 888,943 948,920 990,874 1032,827 1055,741 1060,615 L 1248,916 Z M 987,503 C 998,640 984,736 946,791 907,845 859,872 800,872 735,872 669,836 601,765 533,693 473,579 419,422 388,329 373,257 373,204 374,151 388,110 416,81 444,52 479,37 521,37 572,37 627,61 686,108 765,172 866,304 987,503 Z " transform="translate(15427,13680) scale(0.241,-0.241)" fill="rgb(0,0,0)" stroke="none"/></g><g class="OutlinedText"><path d="M 1248,916 L 1414,916 1130,461 C 1111,432 1082,387 1043,326 1033,223 1031,162 1037,142 1049,105 1073,87 1110,87 1136,87 1165,98 1195,120 1225,142 1252,176 1275,223 L 1315,223 C 1273,127 1230,61 1187,24 1143,-13 1101,-31 1060,-31 1022,-31 993,-15 973,17 953,49 949,118 960,223 911,165 867,121 829,91 776,50 722,19 669,-1 617,-22 561,-32 502,-32 355,-32 263,17 227,115 191,213 194,325 237,450 287,597 368,716 480,807 592,898 703,943 812,943 888,943 948,920 990,874 1032,827 1055,741 1060,615 L 1248,916 Z M 987,503 C 998,640 984,736 946,791 907,845 859,872 800,872 735,872 669,836 601,765 533,693 473,579 419,422 388,329 373,257 373,204 374,151 388,110 416,81 444,52 479,37 521,37 572,37 627,61 686,108 765,172 866,304 987,503 Z " transform="translate(14079,13680) scale(0.241,-0.241)" fill="rgb(0,0,0)" stroke="none"/></g><g class="OutlinedText"><path d="M 1248,916 L 1414,916 1130,461 C 1111,432 1082,387 1043,326 1033,223 1031,162 1037,142 1049,105 1073,87 1110,87 1136,87 1165,98 1195,120 1225,142 1252,176 1275,223 L 1315,223 C 1273,127 1230,61 1187,24 1143,-13 1101,-31 1060,-31 1022,-31 993,-15 973,17 953,49 949,118 960,223 911,165 867,121 829,91 776,50 722,19 669,-1 617,-22 561,-32 502,-32 355,-32 263,17 227,115 191,213 194,325 237,450 287,597 368,716 480,807 592,898 703,943 812,943 888,943 948,920 990,874 1032,827 1055,741 1060,615 L 1248,916 Z M 987,503 C 998,640 984,736 946,791 907,845 859,872 800,872 735,872 669,836 601,765 533,693 473,579 419,422 388,329 373,257 373,204 374,151 388,110 416,81 444,52 479,37 521,37 572,37 627,61 686,108 765,172 866,304 987,503 Z " transform="translate(14750,12889) scale(0.241,-0.241)" fill="rgb(0,0,0)" stroke="none"/></g><g class="OutlinedText"><path d="M 1248,916 L 1414,916 1130,461 C 1111,432 1082,387 1043,326 1033,223 1031,162 1037,142 1049,105 1073,87 1110,87 1136,87 1165,98 1195,120 1225,142 1252,176 1275,223 L 1315,223 C 1273,127 1230,61 1187,24 1143,-13 1101,-31 1060,-31 1022,-31 993,-15 973,17 953,49 949,118 960,223 911,165 867,121 829,91 776,50 722,19 669,-1 617,-22 561,-32 502,-32 355,-32 263,17 227,115 191,213 194,325 237,450 287,597 368,716 480,807 592,898 703,943 812,943 888,943 948,920 990,874 1032,827 1055,741 1060,615 L 1248,916 Z M 987,503 C 998,640 984,736 946,791 907,845 859,872 800,872 735,872 669,836 601,765 533,693 473,579 419,422 388,329 373,257 373,204 374,151 388,110 416,81 444,52 479,37 521,37 572,37 627,61 686,108 765,172 866,304 987,503 Z " transform="translate(12672,13680) scale(0.241,-0.241)" fill="rgb(0,0,0)" stroke="none"/></g><g class="OutlinedText"><path d="M 1248,916 L 1414,916 1130,461 C 1111,432 1082,387 1043,326 1033,223 1031,162 1037,142 1049,105 1073,87 1110,87 1136,87 1165,98 1195,120 1225,142 1252,176 1275,223 L 1315,223 C 1273,127 1230,61 1187,24 1143,-13 1101,-31 1060,-31 1022,-31 993,-15 973,17 953,49 949,118 960,223 911,165 867,121 829,91 776,50 722,19 669,-1 617,-22 561,-32 502,-32 355,-32 263,17 227,115 191,213 194,325 237,450 287,597 368,716 480,807 592,898 703,943 812,943 888,943 948,920 990,874 1032,827 1055,741 1060,615 L 1248,916 Z M 987,503 C 998,640 984,736 946,791 907,845 859,872 800,872 735,872 669,836 601,765 533,693 473,579 419,422 388,329 373,257 373,204 374,151 388,110 416,81 444,52 479,37 521,37 572,37 627,61 686,108 765,172 866,304 987,503 Z " transform="translate(10748,13680) scale(0.241,-0.241)" fill="rgb(0,0,0)" stroke="none"/></g><g class="OutlinedText"><path d="M 1248,916 L 1414,916 1130,461 C 1111,432 1082,387 1043,326 1033,223 1031,162 1037,142 1049,105 1073,87 1110,87 1136,87 1165,98 1195,120 1225,142 1252,176 1275,223 L 1315,223 C 1273,127 1230,61 1187,24 1143,-13 1101,-31 1060,-31 1022,-31 993,-15 973,17 953,49 949,118 960,223 911,165 867,121 829,91 776,50 722,19 669,-1 617,-22 561,-32 502,-32 355,-32 263,17 227,115 191,213 194,325 237,450 287,597 368,716 480,807 592,898 703,943 812,943 888,943 948,920 990,874 1032,827 1055,741 1060,615 L 1248,916 Z M 987,503 C 998,640 984,736 946,791 907,845 859,872 800,872 735,872 669,836 601,765 533,693 473,579 419,422 388,329 373,257 373,204 374,151 388,110 416,81 444,52 479,37 521,37 572,37 627,61 686,108 765,172 866,304 987,503 Z " transform="translate(11707,12889) scale(0.241,-0.241)" fill="rgb(0,0,0)" stroke="none"/></g><g class="OutlinedText"><path d="M 1248,916 L 1414,916 1130,461 C 1111,432 1082,387 1043,326 1033,223 1031,162 1037,142 1049,105 1073,87 1110,87 1136,87 1165,98 1195,120 1225,142 1252,176 1275,223 L 1315,223 C 1273,127 1230,61 1187,24 1143,-13 1101,-31 1060,-31 1022,-31 993,-15 973,17 953,49 949,118 960,223 911,165 867,121 829,91 776,50 722,19 669,-1 617,-22 561,-32 502,-32 355,-32 263,17 227,115 191,213 194,325 237,450 287,597 368,716 480,807 592,898 703,943 812,943 888,943 948,920 990,874 1032,827 1055,741 1060,615 L 1248,916 Z M 987,503 C 998,640 984,736 946,791 907,845 859,872 800,872 735,872 669,836 601,765 533,693 473,579 419,422 388,329 373,257 373,204 374,151 388,110 416,81 444,52 479,37 521,37 572,37 627,61 686,108 765,172 866,304 987,503 Z " transform="translate(8766,13680) scale(0.241,-0.241)" fill="rgb(0,0,0)" stroke="none"/></g><g class="OutlinedText"><path d="M 1248,916 L 1414,916 1130,461 C 1111,432 1082,387 1043,326 1033,223 1031,162 1037,142 1049,105 1073,87 1110,87 1136,87 1165,98 1195,120 1225,142 1252,176 1275,223 L 1315,223 C 1273,127 1230,61 1187,24 1143,-13 1101,-31 1060,-31 1022,-31 993,-15 973,17 953,49 949,118 960,223 911,165 867,121 829,91 776,50 722,19 669,-1 617,-22 561,-32 502,-32 355,-32 263,17 227,115 191,213 194,325 237,450 287,597 368,716 480,807 592,898 703,943 812,943 888,943 948,920 990,874 1032,827 1055,741 1060,615 L 1248,916 Z M 987,503 C 998,640 984,736 946,791 907,845 859,872 800,872 735,872 669,836 601,765 533,693 473,579 419,422 388,329 373,257 373,204 374,151 388,110 416,81 444,52 479,37 521,37 572,37 627,61 686,108 765,172 866,304 987,503 Z " transform="translate(7163,13680) scale(0.241,-0.241)" fill="rgb(0,0,0)" stroke="none"/></g><g class="OutlinedText"><path d="M 1248,916 L 1414,916 1130,461 C 1111,432 1082,387 1043,326 1033,223 1031,162 1037,142 1049,105 1073,87 1110,87 1136,87 1165,98 1195,120 1225,142 1252,176 1275,223 L 1315,223 C 1273,127 1230,61 1187,24 1143,-13 1101,-31 1060,-31 1022,-31 993,-15 973,17 953,49 949,118 960,223 911,165 867,121 829,91 776,50 722,19 669,-1 617,-22 561,-32 502,-32 355,-32 263,17 227,115 191,213 194,325 237,450 287,597 368,716 480,807 592,898 703,943 812,943 888,943 948,920 990,874 1032,827 1055,741 1060,615 L 1248,916 Z M 987,503 C 998,640 984,736 946,791 907,845 859,872 800,872 735,872 669,836 601,765 533,693 473,579 419,422 388,329 373,257 373,204 374,151 388,110 416,81 444,52 479,37 521,37 572,37 627,61 686,108 765,172 866,304 987,503 Z " transform="translate(7962,12889) scale(0.241,-0.241)" fill="rgb(0,0,0)" stroke="none"/></g><text class="SVGTextShape"><tspan class="TextParagraph"><tspan class="TextPosition" x="12131" y="15375"><tspan font-family="Times New Roman, serif" font-size="494px" font-style="italic" font-weight="400" lengthAdjust="spacingAndGlyphs" textLength="216" fill="rgb(0,0,0)" stroke="none" style="white-space: pre">c</tspan></tspan></tspan></text>
        <text class="SVGTextShape"><tspan class="TextParagraph"><tspan class="TextPosition" x="10207" y="15375"><tspan font-family="Times New Roman, serif" font-size="494px" font-style="italic" font-weight="400" lengthAdjust="spacingAndGlyphs" textLength="216" fill="rgb(0,0,0)" stroke="none" style="white-space: pre">c</tspan></tspan></tspan></text>
        <text class="SVGTextShape"><tspan class="TextParagraph"><tspan class="TextPosition" x="11168" y="14585"><tspan font-family="Times New Roman, serif" font-size="494px" font-style="italic" font-weight="400" lengthAdjust="spacingAndGlyphs" textLength="216" fill="rgb(0,0,0)" stroke="none" style="white-space: pre">c</tspan></tspan></tspan></text>
        <text class="SVGTextShape"><tspan class="TextParagraph"><tspan class="TextPosition" x="8545" y="15375"><tspan font-family="Times New Roman, serif" font-size="494px" font-style="italic" font-weight="400" lengthAdjust="spacingAndGlyphs" textLength="216" fill="rgb(0,0,0)" stroke="none" style="white-space: pre">c</tspan></tspan></tspan></text>
        <text class="SVGTextShape"><tspan class="TextParagraph"><tspan class="TextPosition" x="6942" y="15375"><tspan font-family="Times New Roman, serif" font-size="494px" font-style="italic" font-weight="400" lengthAdjust="spacingAndGlyphs" textLength="216" fill="rgb(0,0,0)" stroke="none" style="white-space: pre">c</tspan></tspan></tspan></text>
        <text class="SVGTextShape"><tspan class="TextParagraph"><tspan class="TextPosition" x="5316" y="14941"><tspan font-family="Times New Roman, serif" font-size="494px" font-style="italic" font-weight="400" lengthAdjust="spacingAndGlyphs" textLength="297" fill="rgb(0,0,0)" stroke="none" style="white-space: pre">P</tspan></tspan></tspan></text>
        <text class="SVGTextShape"><tspan class="TextParagraph"><tspan class="TextPosition" x="12135" y="13680"><tspan font-family="Times New Roman, serif" font-size="494px" font-style="italic" font-weight="400" lengthAdjust="spacingAndGlyphs" textLength="216" fill="rgb(0,0,0)" stroke="none" style="white-space: pre">c</tspan></tspan></tspan></text>
        <text class="SVGTextShape"><tspan class="TextParagraph"><tspan class="TextPosition" x="10211" y="13680"><tspan font-family="Times New Roman, serif" font-size="494px" font-style="italic" font-weight="400" lengthAdjust="spacingAndGlyphs" textLength="216" fill="rgb(0,0,0)" stroke="none" style="white-space: pre">c</tspan></tspan></tspan></text>
        <text class="SVGTextShape"><tspan class="TextParagraph"><tspan class="TextPosition" x="11170" y="12889"><tspan font-family="Times New Roman, serif" font-size="494px" font-style="italic" font-weight="400" lengthAdjust="spacingAndGlyphs" textLength="216" fill="rgb(0,0,0)" stroke="none" style="white-space: pre">c</tspan></tspan></tspan></text>
        <text class="SVGTextShape"><tspan class="TextParagraph"><tspan class="TextPosition" x="8550" y="13680"><tspan font-family="Times New Roman, serif" font-size="494px" font-style="italic" font-weight="400" lengthAdjust="spacingAndGlyphs" textLength="216" fill="rgb(0,0,0)" stroke="none" style="white-space: pre">c</tspan></tspan></tspan></text>
        <text class="SVGTextShape"><tspan class="TextParagraph"><tspan class="TextPosition" x="6947" y="13680"><tspan font-family="Times New Roman, serif" font-size="494px" font-style="italic" font-weight="400" lengthAdjust="spacingAndGlyphs" textLength="216" fill="rgb(0,0,0)" stroke="none" style="white-space: pre">c</tspan></tspan></tspan></text>
        <text class="SVGTextShape"><tspan class="TextParagraph"><tspan class="TextPosition" x="7746" y="12889"><tspan font-family="Times New Roman, serif" font-size="494px" font-style="italic" font-weight="400" lengthAdjust="spacingAndGlyphs" textLength="216" fill="rgb(0,0,0)" stroke="none" style="white-space: pre">c</tspan></tspan></tspan></text>
        <text class="SVGTextShape"><tspan class="TextParagraph"><tspan class="TextPosition" x="5316" y="13245"><tspan font-family="Times New Roman, serif" font-size="494px" font-style="italic" font-weight="400" lengthAdjust="spacingAndGlyphs" textLength="297" fill="rgb(0,0,0)" stroke="none" style="white-space: pre">P</tspan></tspan></tspan></text>
        <text class="SVGTextShape"><tspan class="TextParagraph"><tspan class="TextPosition" x="6174" y="15064"><tspan font-family="Times New Roman, serif" font-size="247px" font-style="italic" font-weight="400" lengthAdjust="spacingAndGlyphs" textLength="113" fill="rgb(0,0,0)" stroke="none" style="white-space: pre">k</tspan></tspan></tspan></text>
        <text class="SVGTextShape"><tspan class="TextParagraph"><tspan class="TextPosition" x="5556" y="15064"><tspan font-family="Times New Roman, serif" font-size="247px" font-style="italic" font-weight="400" lengthAdjust="spacingAndGlyphs" textLength="183" fill="rgb(0,0,0)" stroke="none" style="white-space: pre">m</tspan></tspan></tspan></text>
        <text class="SVGTextShape"><tspan class="TextParagraph"><tspan class="TextPosition" x="6178" y="13369"><tspan font-family="Times New Roman, serif" font-size="247px" font-style="italic" font-weight="400" lengthAdjust="spacingAndGlyphs" textLength="113" fill="rgb(0,0,0)" stroke="none" style="white-space: pre">k</tspan></tspan></tspan></text>
        <text class="SVGTextShape"><tspan class="TextParagraph"><tspan class="TextPosition" x="5556" y="13369"><tspan font-family="Times New Roman, serif" font-size="247px" font-style="italic" font-weight="400" lengthAdjust="spacingAndGlyphs" textLength="183" fill="rgb(0,0,0)" stroke="none" style="white-space: pre">m</tspan></tspan></tspan></text>
       </g>
      </g>
     </g>
    </g>
   </g>
  </g>
 </g>
</svg>