<?xml version='1.0' encoding='utf-8'?>
<svg xmlns="http://www.w3.org/2000/svg" width="244.4mm" height="173.3mm" viewBox="0 0 1000000 709083"><defs><style>.C1 {stroke: #000000; stroke-width: 1023; stroke-opacity: 1.000; fill: none; fill-opacity: 1.000;}</style><style>.C2 {stroke: none; stroke-width: none; stroke-opacity: 1.000; fill: #000000; fill-opacity: 1.000;}</style></defs><rect fill="#ffffff" x="0" y="0" width="1000000" height="709083" fill-opacity="1.0" /><g stroke-linecap="round" stroke-linejoin="round" fill-rule="evenodd"><path d="M 217374 346192 l 777379 0 l 0 -106378 l -12274 0 l 0 94104 l -740556 0 l 0 -65463 l -53189 0 l 0 -28640 l -12274 0 l 0 40915 l 40915 0 l 0 65463" class="C1" /><path d="M 106904 239813 l 0 94104 l -7604 0 c -9521 -9713 -23246 -14060 -36622 -11599 c -13376 2461 -24656 11408 -30096 23873 l 86597 0 l 0 -106378 l -12274 0" class="C1" /><path d="M 217374 378923 l 777379 0 l 0 106378 l -12274 0 l 0 -94104 l -740556 0 l 0 65463 l -53189 0 l 0 28640 l -12274 0 l 0 -40915 l 40915 0 l 0 -65463" class="C1" /><path d="M 106904 485301 l 0 -94104 l -7604 0 c -9521 9713 -23246 14060 -36622 11599 c -13376 -2461 -24656 -11408 -30096 -23873 l 86597 0 l 0 106378 l -12274 0" class="C1" /><path d="M 32582 346192 l 0 32732" class="C1" /><path d="M 119179 346192 l 0 32732" class="C1" /><path d="M 176459 280728 l 0 163659" class="C1" /><path d="M 217374 346192 l 0 32732" class="C1" /><path d="M 994753 346192 l 0 32732" class="C1" /><path d="M 39558 389805 l 10881 -10881 m 32732 -32732 l 14157 -14157 m 9576 -9576 l 12274 -12274 m 57281 -57281 l 12274 -12274 m -123934 105562 l 21288 -21288 m 20816 -20816 l 12274 -12274 m -72750 54379 l 24540 -24540 m 35936 -35936 l 12274 -12274 m -12274 -6097 l 12274 -12274 m -12274 -6097 l 9160 -9160 m -66365 158221 l 19111 -19111 m 32732 -32732 l 17636 -17636 m 57281 -57281 l 12274 -12274 m -81829 210428 l 12274 -12274 m 110962 -110962 l 12274 -12274 m -135511 117140 l 12274 -12274 m 98195 -98195 l 24549 -24549 m -135018 116647 l 12274 -12274 m 98195 -98195 l 24549 -24549 m -135018 116647 l 12274 -12274 m 98195 -98195 l 24549 -24549 m -135018 116647 l 12274 -12274 m 98195 -98195 l 17020 -17020 m -151247 132876 l 22407 -22407 m 98195 -98195 l 12274 -12274 m -152809 134438 l 23968 -23968 m 98195 -98195 l 12274 -12274 m -88249 216848 l 9776 -9776 m 129334 -129334 l 12274 -12274 m 714311 57281 l 12274 -12274 m -30646 12274 l 12274 -12274 m -30646 12274 l 12274 -12274 m 32732 -32732 l 11392 -11392 m -74769 56398 l 12274 -12274 m 32732 -32732 l 12274 -12274 m 5214 -5214 l 12274 -12274 m -93141 74769 l 12274 -12274 m 32732 -32732 l 12274 -12274 m 23586 -23586 l 12274 -12274 m -111512 93141 l 12274 -12274 m 32732 -32732 l 12274 -12274 m 41957 -41957 l 12274 -12274 m -129883 111512 l 12274 -12274 m 32732 -32732 l 12274 -12274 m 60328 -60328 l 12274 -12274 m -148254 129883 l 12274 -12274 m 32732 -32732 l 12274 -12274 m 78699 -78699 l 12274 -12274 m -166625 148254 l 12274 -12274 m 32732 -32732 l 12274 -12274 m -75652 57281 l 12274 -12274 m 32732 -32732 l 12274 -12274 m -75652 57281 l 12274 -12274 m 32732 -32732 l 12274 -12274 m -75652 57281 l 12274 -12274 m 32732 -32732 l 12274 -12274 m -75652 57281 l 12274 -12274 m 32732 -32732 l 12274 -12274 m -75652 57281 l 12274 -12274 m 32732 -32732 l 12274 -12274 m -75652 57281 l 12274 -12274 m 32732 -32732 l 12274 -12274 m -75652 57281 l 12274 -12274 m 32732 -32732 l 12274 -12274 m -75652 57281 l 12274 -12274 m 32732 -32732 l 12274 -12274 m -75652 57281 l 12274 -12274 m 32732 -32732 l 12274 -12274 m -75652 57281 l 12274 -12274 m 32732 -32732 l 12274 -12274 m -75652 57281 l 12274 -12274 m 32732 -32732 l 12274 -12274 m -75652 57281 l 12274 -12274 m 32732 -32732 l 12274 -12274 m -75652 57281 l 12274 -12274 m 32732 -32732 l 12274 -12274 m -75652 57281 l 12274 -12274 m 32732 -32732 l 12274 -12274 m -75652 57281 l 12274 -12274 m 32732 -32732 l 12274 -12274 m -75652 57281 l 12274 -12274 m 32732 -32732 l 12274 -12274 m -75652 57281 l 12274 -12274 m 32732 -32732 l 12274 -12274 m -75652 57281 l 12274 -12274 m 32732 -32732 l 12274 -12274 m -75652 57281 l 12274 -12274 m 32732 -32732 l 12274 -12274 m -75652 57281 l 12274 -12274 m 32732 -32732 l 12274 -12274 m -75652 57281 l 12274 -12274 m 32732 -32732 l 12274 -12274 m -75652 57281 l 12274 -12274 m 32732 -32732 l 12274 -12274 m -75652 57281 l 12274 -12274 m 32732 -32732 l 12274 -12274 m -75652 57281 l 12274 -12274 m 32732 -32732 l 12274 -12274 m -75652 57281 l 12274 -12274 m 32732 -32732 l 12274 -12274 m -75652 57281 l 12274 -12274 m 32732 -32732 l 12274 -12274 m -75652 57281 l 12274 -12274 m 32732 -32732 l 12274 -12274 m -75652 57281 l 12274 -12274 m 32732 -32732 l 12274 -12274 m -141115 122744 l 12024 -12024 m 53439 -53439 l 12274 -12274 m 32732 -32732 l 12274 -12274 m -169756 151384 l 5846 -5846 m 22794 -22794 l 30395 -30395 m 35068 -35068 l 12274 -12274 m 32732 -32732 l 12274 -12274 m -157812 139441 l 12274 -12274 m 4423 -4423 l 12274 -12274 m 11943 -11943 l 24549 -24549 m 16697 -16697 l 12274 -12274 m 32732 -32732 l 12274 -12274 m -139441 121070 l 10600 -10600 m 30314 -30314 l 35149 -35149 m 32732 -32732 l 12274 -12274 m -80155 61784 l 16778 -16778 m 32732 -32732 l 12274 -12274 m 712063 151384 l 3532 -3532 m -12274 -6097 l 12274 -12274 m -12274 -6097 l 12274 -12274 m -12274 -6097 l 12274 -12274 m -12274 -6097 l 12274 -12274 m -12274 -6097 l 12274 -12274" class="C1" /><path d="M 56464 643612 l 0 -40915 c -0 -13558 10991 -24549 24549 -24549 l 114561 0 c 13558 0 24549 10991 24549 24549 l 5072 16366 l 7202 0 l 672436 -0 c 3379 0 6445 -1979 7838 -5058 c 6960 -15787 23226 -25365 40407 -23791 l 3509 -12066 l 12274 0 l 0 13710 c 306 3225 -949 6401 -3377 8545 c -2428 2144 -5736 2997 -8897 2293 c -13409 -2982 -27072 3849 -32732 16366 c -3379 7473 -10821 12274 -19022 12274 l -684711 0 c -3255 0 -6377 -1293 -8679 -3595 c -2302 -2302 -3595 -5424 -3595 -8679 l 0 -16366 c 0 -6779 -5495 -12274 -12274 -12274 l -114561 0 c -3255 0 -6377 1293 -8679 3595 c -2302 2302 -3595 5424 -3595 8679 l 0 40915 l 0 40915 c 0 3255 1293 6377 3595 8679 c 2302 2302 5424 3595 8679 3595 l 114561 0 c 6779 0 12274 -5495 12274 -12274 l 0 -16366 c -0 -3255 1293 -6377 3595 -8679 c 2302 -2302 5424 -3595 8679 -3595 l 684711 0 c 8201 0 15643 4802 19022 12274 c 5660 12516 19323 19348 32732 16366 c 3162 -703 6469 149 8897 2293 c 2428 2144 3683 5321 3377 8545 l 0 13710 l -12274 0 l -3509 -12066 c -17181 1573 -33447 -8004 -40407 -23791 c -1392 -3079 -4458 -5058 -7838 -5058 l -672436 -0 l -7202 0 l -5072 16366 c 0 13558 -10991 24549 -24549 24549 l -114561 0 c -6511 0 -12755 -2586 -17359 -7190 c -4604 -4604 -7190 -10848 -7190 -17359 l 0 -40915" class="C1" /><path d="M 207849 619063 l 0 49098" class="C1" /><path d="M 968862 591859 l 0 103507" class="C1" /><path d="M 57657 628882 l 11082 -11082 m 27377 -27377 l 12274 -12274 m -48437 30066 l 0 0 m 4593 -4593 l 4831 -4831 m 7729 -7729 l 10404 -10404 m -27175 8804 l 1915 -1915 m 4593 -4593 l 0 0 m -4593 114820 l 7776 -7776 m 99575 -99575 l 12062 -12062 m -125190 106818 l 3480 -3480 m 4593 -4593 l 0 0 m 86683 -86683 l 5173 -5173 m 4593 -4593 l 0 0 m -104531 86159 l 10378 -10378 m 68892 -68892 l 0 0 m 4593 -4593 l 4805 -4805 m -88668 70297 l 12274 -12274 m 46328 -46328 l 11694 -11694 m -20700 130927 l 12274 -12274 m 89513 -89513 l 11336 -11336 m -131495 113123 l 12274 -12274 m 104662 -104662 l 0 0 m 4593 -4593 l 2944 -2944 m -140853 122482 l 7014 -7014 m 109647 -109647 l 11900 -11900 m -73322 128436 l 0 0 m 4593 -4593 l 5565 -5565 m 72373 -72373 l 9325 -9325 m 626677 53058 l 12274 -12274 m 24549 -24549 l 12274 -12274 m -67469 49098 l 11722 -11722 m 25101 -25101 l 7049 -7049 m 4593 -4593 l 0 0 m -66836 48465 l 4833 -4833 m 4593 -4593 l 0 0 m 27397 -27397 l 160 -160 m 4593 -4593 l 0 0 m 4593 -4593 l 2929 -2929 m -64932 46561 l 0 0 m 4593 -4593 l 5145 -5145 m 27005 -27005 l 9818 -9818 m -67229 48857 l 12034 -12034 m 24549 -24549 l 12274 -12274 m -67469 49098 l 12274 -12274 m 24549 -24549 l 11642 -11642 m -66836 48465 l 9426 -9426 m 27397 -27397 l 4752 -4752 m 4593 -4593 l 0 0 m -64540 46168 l 2537 -2537 m 4593 -4593 l 0 0 m 4593 -4593 l 552 -552 m 27005 -27005 l 0 0 m 4593 -4593 l 5226 -5226 m -67229 48857 l 0 0 m 4593 -4593 l 7441 -7441 m 24708 -24708 l 12115 -12115 m -67469 49098 l 12274 -12274 m 24549 -24549 l 12274 -12274 m -67469 49098 l 12274 -12274 m 24549 -24549 l 9345 -9345 m -64540 46168 l 7130 -7130 m 4593 -4593 l 0 0 m 25101 -25101 l 2456 -2456 m 4593 -4593 l 0 0 m 4593 -4593 l 633 -633 m -67469 49098 l 240 -240 m 4593 -4593 l 0 0 m 4593 -4593 l 2848 -2848 m 24708 -24708 l 0 0 m 4593 -4593 l 7522 -7522 m -64932 46561 l 9738 -9738 m 24549 -24549 l 12274 -12274 m -67469 49098 l 12274 -12274 m 24549 -24549 l 12274 -12274 m -67469 49098 l 11722 -11722 m 25101 -25101 l 7049 -7049 m 4593 -4593 l 0 0 m -66836 48465 l 4833 -4833 m 4593 -4593 l 0 0 m 27397 -27397 l 160 -160 m 4593 -4593 l 0 0 m 4593 -4593 l 2929 -2929 m -64932 46561 l 0 0 m 4593 -4593 l 5145 -5145 m 27005 -27005 l 9818 -9818 m -67229 48857 l 12034 -12034 m 24549 -24549 l 12274 -12274 m -67469 49098 l 12274 -12274 m 24549 -24549 l 11642 -11642 m -66836 48465 l 9426 -9426 m 27397 -27397 l 4752 -4752 m 4593 -4593 l 0 0 m -64540 46168 l 2537 -2537 m 4593 -4593 l 0 0 m 4593 -4593 l 552 -552 m 27005 -27005 l 0 0 m 4593 -4593 l 5226 -5226 m -67229 48857 l 0 0 m 4593 -4593 l 7441 -7441 m 24708 -24708 l 12115 -12115 m -67469 49098 l 12274 -12274 m 24549 -24549 l 12274 -12274 m -67469 49098 l 12274 -12274 m 24549 -24549 l 9345 -9345 m -64540 46168 l 7130 -7130 m 4593 -4593 l 0 0 m 25101 -25101 l 2456 -2456 m 4593 -4593 l 0 0 m 4593 -4593 l 633 -633 m -67469 49098 l 240 -240 m 4593 -4593 l 0 0 m 4593 -4593 l 2848 -2848 m 24708 -24708 l 0 0 m 4593 -4593 l 7522 -7522 m -64932 46561 l 9738 -9738 m 24549 -24549 l 12274 -12274 m -67469 49098 l 12274 -12274 m 24549 -24549 l 12274 -12274 m -67469 49098 l 11722 -11722 m 25101 -25101 l 7049 -7049 m 4593 -4593 l 0 0 m -66836 48465 l 4833 -4833 m 4593 -4593 l 0 0 m 27397 -27397 l 160 -160 m 4593 -4593 l 0 0 m 4593 -4593 l 2929 -2929 m -64932 46561 l 0 0 m 4593 -4593 l 5145 -5145 m 27005 -27005 l 9818 -9818 m -67229 48857 l 12034 -12034 m 24549 -24549 l 12274 -12274 m -106267 87896 l 19967 -19967 m 18831 -18831 l 12274 -12274 m 24549 -24549 l 11642 -11642 m -107751 89379 l 12274 -12274 m 16028 -16028 l 22038 -22038 m 27397 -27397 l 4752 -4752 m 4593 -4593 l 0 0 m -105454 87083 l 11302 -11302 m 68892 -68892 l 0 0 m 4593 -4593 l 5226 -5226 m -108384 90012 l 4413 -4413 m 4593 -4593 l 0 0 m 68892 -68892 l 12115 -12115 m 633174 46561 l 9738 -9738 m 24549 -24549 l 20827 -20827 m 4593 -4593 l 0 0 m 4593 -4593 l 10298 -10298 m -58762 77134 l 240 -240 m 4593 -4593 l 0 0 m 4593 -4593 l 2848 -2848 m 56858 -56858 l 0 0 m 4593 -4593 l 13312 -13312 m -55930 92672 l 9005 -9005 m -21741 3370 l 7130 -7130 m 23520 31594 l 9254 -9254 m -19741 1370 l 5338 -5338 m 22964 13778 l 0 0 m 4593 -4593 l 4217 -4217 m -2111 20482 l 13173 -13173" class="C1" /><path d="M 726099 586178 l 177 3752 l -448 0 q -130 -991 -354 -1416 q -366 -684 -973 -1009 q -608 -324 -1599 -324 l -2254 0 l 0 12224 q 0 1475 319 1841 q 448 496 1381 496 l 555 0 l 0 437 l -6785 0 l 0 -437 l 566 0 q 1015 0 1440 -614 q 260 -378 260 -1723 l 0 -12224 l -1923 0 q -1121 0 -1593 165 q -614 224 -1050 861 q -437 637 -519 1723 l -448 0 l 189 -3752 l 13062 0 Z M 737108 591370 l 0 6549 q 0 1876 88 2295 q 88 419 283 584 q 195 165 454 165 q 366 0 826 -201 l 165 413 l -3233 1333 l -531 0 l 0 -2289 q -1392 1510 -2124 1900 q -732 389 -1546 389 q -909 0 -1575 -525 q -667 -525 -926 -1351 q -260 -826 -260 -2336 l 0 -4826 q 0 -767 -165 -1062 q -165 -295 -490 -454 q -324 -159 -1174 -147 l 0 -437 l 3788 0 l 0 7233 q 0 1510 525 1982 q 525 472 1268 472 q 507 0 1150 -319 q 643 -319 1528 -1215 l 0 -6124 q 0 -920 -336 -1245 q -336 -324 -1398 -348 l 0 -437 l 3681 0 Z M 742677 593234 q 1569 -2183 3386 -2183 q 1664 0 2903 1422 q 1239 1422 1239 3888 q 0 2879 -1912 4637 q -1640 1510 -3658 1510 q -944 0 -1917 -342 q -973 -342 -1988 -1027 l 0 -11198 q 0 -1841 -88 -2265 q -88 -425 -277 -578 q -189 -153 -472 -153 q -330 0 -826 189 l -165 -413 l 3245 -1322 l 531 0 l 0 7835 m 0 755 l 0 6466 q 602 590 1245 891 q 643 301 1316 301 q 1074 0 2000 -1180 q 926 -1180 926 -3434 q 0 -2077 -926 -3192 q -926 -1115 -2106 -1115 q -625 0 -1251 319 q -472 236 -1204 944 Z M 757084 591051 q 2454 0 3941 1864 q 1263 1593 1263 3658 q 0 1451 -696 2938 q -696 1487 -1917 2242 q -1221 755 -2720 755 q -2442 0 -3882 -1947 q -1215 -1640 -1215 -3681 q 0 -1487 737 -2956 q 737 -1469 1941 -2171 q 1204 -702 2549 -702 m -366 767 q -625 0 -1257 372 q -631 372 -1021 1304 q -389 932 -389 2395 q 0 2360 938 4071 q 938 1711 2472 1711 q 1145 0 1888 -944 q 743 -944 743 -3245 q 0 -2879 -1239 -4531 q -838 -1133 -2136 -1133 Z M 772671 585399 q 496 0 844 348 q 348 348 348 844 q 0 496 -348 850 q -348 354 -844 354 q -496 0 -850 -354 q -354 -354 -354 -850 q 0 -496 348 -844 q 348 -348 855 -348 m 979 5652 l 0 8684 q 0 1015 147 1351 q 147 336 437 501 q 289 165 1056 165 l 0 425 l -5251 0 l 0 -425 q 791 0 1062 -153 q 271 -153 431 -507 q 159 -354 159 -1357 l 0 -4165 q 0 -1758 -106 -2277 q -83 -378 -260 -525 q -177 -147 -484 -147 q -330 0 -802 177 l -165 -425 l 3257 -1322 l 519 0 Z M 779786 593340 q 1900 -2289 3622 -2289 q 885 0 1522 442 q 637 442 1015 1457 q 260 708 260 2171 l 0 4614 q 0 1027 165 1392 q 130 295 419 460 q 289 165 1068 165 l 0 425 l -5345 0 l 0 -425 l 224 0 q 755 0 1056 -230 q 301 -230 419 -678 q 47 -177 47 -1109 l 0 -4425 q 0 -1475 -383 -2142 q -383 -667 -1292 -667 q -1404 0 -2796 1534 l 0 5699 q 0 1097 130 1357 q 165 342 454 501 q 289 159 1174 159 l 0 425 l -5345 0 l 0 -425 l 236 0 q 826 0 1115 -419 q 289 -419 289 -1599 l 0 -4012 q 0 -1947 -88 -2372 q -88 -425 -271 -578 q -183 -153 -490 -153 q -330 0 -791 177 l -177 -425 l 3257 -1322 l 507 0 l 0 2289 Z M 804329 591051 l 0 13900 q 0 1038 142 1333 q 142 295 442 460 q 301 165 1174 165 l 0 437 l -5451 0 l 0 -437 l 224 0 q 661 0 1003 -189 q 236 -130 378 -466 q 142 -336 142 -1304 l 0 -4649 q -1074 1274 -1876 1740 q -802 466 -1664 466 q -1569 0 -2802 -1428 q -1233 -1428 -1233 -3823 q 0 -2749 1628 -4478 q 1628 -1729 3929 -1729 q 673 0 1239 189 q 566 189 1015 566 q 684 -330 1310 -755 l 401 0 m -1947 8507 l 0 -5074 q 0 -885 -230 -1392 q -230 -507 -820 -861 q -590 -354 -1333 -354 q -1322 0 -2265 1121 q -944 1121 -944 3398 q 0 2183 962 3316 q 962 1133 2319 1133 q 696 0 1239 -301 q 543 -301 1074 -985 Z M 816317 591370 l 0 6549 q 0 1876 88 2295 q 88 419 283 584 q 195 165 454 165 q 366 0 826 -201 l 165 413 l -3233 1333 l -531 0 l 0 -2289 q -1392 1510 -2124 1900 q -732 389 -1546 389 q -909 0 -1575 -525 q -667 -525 -926 -1351 q -260 -826 -260 -2336 l 0 -4826 q 0 -767 -165 -1062 q -165 -295 -490 -454 q -324 -159 -1174 -147 l 0 -437 l 3788 0 l 0 7233 q 0 1510 525 1982 q 525 472 1268 472 q 507 0 1150 -319 q 643 -319 1528 -1215 l 0 -6124 q 0 -920 -336 -1245 q -336 -324 -1398 -348 l 0 -437 l 3681 0 Z M 825049 600621 q -1664 1286 -2089 1487 q -637 295 -1357 295 q -1121 0 -1847 -767 q -726 -767 -726 -2018 q 0 -791 354 -1369 q 484 -802 1681 -1510 q 1198 -708 3982 -1723 l 0 -425 q 0 -1617 -513 -2218 q -513 -602 -1493 -602 q -743 0 -1180 401 q -448 401 -448 920 l 24 684 q 0 543 -277 838 q -277 295 -726 295 q -437 0 -714 -307 q -277 -307 -277 -838 q 0 -1015 1038 -1864 q 1038 -850 2914 -850 q 1440 0 2360 484 q 696 366 1027 1145 q 212 507 212 2077 l 0 3670 q 0 1546 59 1894 q 59 348 195 466 q 136 118 313 118 q 189 0 330 -83 q 248 -153 956 -861 l 0 661 q -1322 1770 -2525 1770 q -578 0 -920 -401 q -342 -401 -354 -1369 m 0 -767 l 0 -4118 q -1782 708 -2301 1003 q -932 519 -1333 1086 q -401 566 -401 1239 q 0 850 507 1410 q 507 560 1168 560 q 897 0 2360 -1180 Z M 832813 591051 l 0 2431 q 1357 -2431 2785 -2431 q 649 0 1074 395 q 425 395 425 914 q 0 460 -307 779 q -307 319 -732 319 q -413 0 -926 -407 q -513 -407 -761 -407 q -212 0 -460 236 q -531 484 -1097 1593 l 0 5180 q 0 897 224 1357 q 153 319 543 531 q 389 212 1121 212 l 0 425 l -5534 0 l 0 -425 q 826 0 1227 -260 q 295 -189 413 -602 q 59 -201 59 -1145 l 0 -4189 q 0 -1888 -77 -2248 q -77 -360 -283 -525 q -206 -165 -513 -165 q -366 0 -826 177 l -118 -425 l 3268 -1322 l 496 0 Z M 847090 598863 l -130 3316 l -9534 0 l 0 -425 l 7174 -9558 l -3540 0 q -1145 0 -1499 147 q -354 147 -578 560 q -319 590 -366 1463 l -472 0 l 71 -2997 l 9062 0 l 0 437 l -7245 9581 l 3941 0 q 1239 0 1681 -206 q 442 -206 714 -726 q 189 -378 319 -1593 l 401 0 Z M 853710 591051 q 2454 0 3941 1864 q 1263 1593 1263 3658 q 0 1451 -696 2938 q -696 1487 -1917 2242 q -1221 755 -2720 755 q -2442 0 -3882 -1947 q -1215 -1640 -1215 -3681 q 0 -1487 737 -2956 q 737 -1469 1941 -2171 q 1204 -702 2549 -702 m -366 767 q -625 0 -1257 372 q -631 372 -1021 1304 q -389 932 -389 2395 q 0 2360 938 4071 q 938 1711 2472 1711 q 1145 0 1888 -944 q 743 -944 743 -3245 q 0 -2879 -1239 -4531 q -838 -1133 -2136 -1133 Z" class="C2" /><path d="M 21629 399431 l 3314 801 745 -10343 Z" class="C2" /><path d="M 23286 399832 l -23286 96380" class="C1" /><path d="M 982073 624168 l -3312 -812 -779 10340 Z" class="C2" /><path d="M 980417 623762 l 19583 -79889" class="C1" /><path d="M 0 496211 l 1000000 47662" class="C1" /><path d="M 165899 80957 l 11399 11399 m -11399 6973 l 6388 6388 m -6388 11983 l 1378 1378 m 3513 -69972 l 7383 7383 m -12274 6097 l 12274 12274 m -12274 61210 l 3081 3081 m -3081 15290 l 12274 12274 m -12274 6097 l 12274 12274 m -12274 6097 l 12274 12274" class="C1" /><path d="M 411387 126843 c 0 42933 -34804 77738 -77738 77738 c -42933 0 -77738 -34804 -77738 -77738 c 0 -42933 34804 -77738 77738 -77738 c 42933 0 77738 34804 77738 77738" class="C1" /><path d="M 333650 8 l 0 98195 m 0 12274 l 0 2046 m 0 12274 l 0 98195 m 0 12274 l 0 2046" class="C1" /><path d="M 165899 122752 l 12274 -32732 l 0 -40915 l -12274 0 l 0 73646" class="C1" /><path d="M 133945 126843 l 98195 0 m 12274 0 l 2046 0 m 12274 0 l 98195 0 m 12274 0 l 2046 0 m 12274 0 l 54762 0" class="C1" /><path d="M 178174 90020 l 0 73646" class="C1" /><path d="M 165899 130935 l 12274 32732 l 0 40915 l -12274 0 l 0 -73646" class="C1" /><path d="M 165899 122752 l 0 8183" class="C1" /><path d="M 288643 122752 l 90012 0" class="C1" /><path d="M 288643 130935 l 90012 0" class="C1" /><path d="M 288643 163667 l 90012 0" class="C1" /><path d="M 288643 90020 l 90012 0" class="C1" /><path d="M 288643 163667 l 0 -73646" class="C1" /><path d="M 378656 163667 l 0 -73646" class="C1" /><path d="M 338502 183812 c 0 2680 -2173 4853 -4853 4853 c -2680 0 -4853 -2173 -4853 -4853 c 0 -2680 2173 -4853 4853 -4853 c 2680 0 4853 2173 4853 4853" class="C1" /><path d="M 338502 69874 c 0 2680 -2173 4853 -4853 4853 c -2680 0 -4853 -2173 -4853 -4853 c 0 -2680 2173 -4853 4853 -4853 c 2680 0 4853 2173 4853 4853" class="C1" /><path d="M 194829 349293 l -2455 2366 8326 6182 Z" class="C2" /><path d="M 193602 350476 l -53601 -55610" class="C1" /><path d="M 140001 294866 l 23346 -81634" class="C1" /></g></svg>