<?xml version='1.0' encoding='utf-8'?>
<svg xmlns="http://www.w3.org/2000/svg" width="463.6mm" height="274.2mm" viewBox="0 0 1000000 591458"><defs><style>.C1 {stroke: #000000; stroke-width: 539; stroke-opacity: 1.000; fill: none; fill-opacity: 1.000;}</style><style>.C2 {stroke: none; stroke-width: none; stroke-opacity: 1.000; fill: #000000; fill-opacity: 1.000;}</style></defs><rect fill="#ffffff" x="0" y="0" width="1000000" height="591458" fill-opacity="1.0" /><g stroke-linecap="round" stroke-linejoin="round" fill-rule="evenodd"><path d="M 142481 217091 l 0 -202759 l -94908 0 l 0 202759 l 94908 0" class="C1" /><path d="M 148952 7861 l -107850 0 l 0 215701 l 107850 0 l 0 -215701" class="C1" /><path d="M 47573 14332 l 94908 0 l 0 21343 l -39982 69251 c -1541 2670 -4390 4314 -7472 4314 c -3082 0 -5931 -1644 -7472 -4314 l -39982 -69251 l 0 -21343" class="C1" /><path d="M 47573 130501 l 0 86590 l 94908 0 l 0 -86590 c -10268 16303 -28187 26194 -47454 26194 c -19267 0 -37186 -9891 -47454 -26194" class="C1" /><path d="M 148952 382178 l 0 -78643 l -107850 0 l 0 78643" class="C1" /><path d="M 556627 281965 l -4314 62553 l 21570 49611 l -10785 45297 l 23727 43140 l -25884 23727 l 15099 49611" class="C1" /><path d="M 584668 277651 l -4314 62553 l 21570 49611 l -10785 45297 l 23727 43140 l -25884 23727 l 15099 49611" class="C1" /><path d="M 252489 357461 l 0 21570 l 43140 0 l 0 -75495 l 259510 0 l -446 6471 l -252593 0 l 0 88437 l -6471 -0 l 0 -12942 l -49611 0 l 0 -28041 l 6471 0" class="C1" /><path d="M 0 428642 l 25884 0 m 3236 0 l 539 0 m 3236 0 l 25884 0 m 3236 0 l 539 0 m 3236 0 l 25884 0 m 3236 0 l 539 0 m 3236 0 l 25884 0 m 3236 0 l 539 0 m 3236 0 l 25884 0 m 3236 0 l 539 0 m 3236 0 l 25884 0 m 3236 0 l 539 0 m 3236 0 l 25884 0 m 3236 0 l 539 0 m 3236 0 l 25884 0 m 3236 0 l 539 0 m 3236 0 l 25884 0 m 3236 0 l 539 0 m 3236 0 l 25884 0 m 3236 0 l 539 0 m 3236 0 l 25884 0 m 3236 0 l 539 0 m 3236 0 l 25884 0 m 3236 0 l 539 0 m 3236 0 l 25884 0 m 3236 0 l 539 0 m 3236 0 l 25884 0 m 3236 0 l 539 0 m 3236 0 l 25884 0 m 3236 0 l 539 0 m 3236 0 l 25884 0 m 3236 0 l 539 0 m 3236 0 l 25884 0 m 3236 0 l 539 0 m 3236 0 l 6462 0" class="C1" /><path d="M 295629 458840 l 6471 0 l 0 53925 l 260810 -0 l 1969 6471 l -269251 0 l 0 -40983 l -43140 0 l 0 21570 l -6471 0 l 0 -28041 l 49611 0 l 0 -12942" class="C1" /><path d="M 582437 310006 l 245438 0 l 0 88437 l 6471 -0 l 0 -12942 l 49611 0 l 0 -28041 l -6471 0 l 0 21570 l -43140 0 l 0 -75495 l -251462 0 l -446 6471" class="C1" /><path d="M 827874 458840 l 0 53925 l -235610 -0 l 1969 6471 l 240111 0 l 0 -40983 l 43140 0 l 0 21570 l 6471 0 l 0 -28041 l -49611 0 l 0 -12942 l -6471 0" class="C1" /><path d="M 302100 458840 l 0 -60396" class="C1" /><path d="M 827874 398444 l 0 60396" class="C1" /><path d="M 570216 452369 l 16609 30198 l -25884 23727 l 1969 6471 l -260810 0 l 0 -60396 l 268116 0" class="C1" /><path d="M 302100 404915 l 0 -94908 l 252593 0 l -2380 34512 l 21570 49611 l -2568 10785 l -269215 0" class="C1" /><path d="M 827874 452369 l 0 60396 l -235610 -0 l -3282 -10785 l 25884 -23727 l -14236 -25884 l 227244 0" class="C1" /><path d="M 827874 404915 l -229545 0 l 3595 -15099 l -21570 -49611 l 2083 -30198 l 245438 0 l 0 94908" class="C1" /><path d="M 592680 428642 l 25884 0 m 3236 0 l 539 0 m 3236 0 l 25884 0 m 3236 0 l 539 0 m 3236 0 l 25884 0 m 3236 0 l 539 0 m 3236 0 l 25884 0 m 3236 0 l 539 0 m 3236 0 l 25884 0 m 3236 0 l 539 0 m 3236 0 l 25884 0 m 3236 0 l 539 0 m 3236 0 l 25884 0 m 3236 0 l 539 0 m 3236 0 l 25884 0 m 3236 0 l 539 0 m 3236 0 l 25884 0 m 3236 0 l 539 0 m 3236 0 l 25884 0 m 3236 0 l 539 0 m 3236 0 l 25884 0 m 3236 0 l 539 0 m 3236 0 l 25884 0 m 3236 0 l 539 0 m 3236 0 l 12588 0" class="C1" /><path d="M 166209 428642 c 0 39312 -31869 71181 -71181 71181 c -39312 0 -71181 -31869 -71181 -71181 c 0 -39312 31869 -71181 71181 -71181 c 39312 0 71181 31869 71181 71181" class="C1" /><path d="M 138167 428642 c 0 23826 -19315 43140 -43140 43140 c -23826 0 -43140 -19315 -43140 -43140 c 0 -23826 19315 -43140 43140 -43140 c 23826 0 43140 19315 43140 43140" class="C1" /><path d="M 95027 278304 l 0 25884 m 0 3236 l 0 539 m 0 3236 l 0 25884 m 0 3236 l 0 539 m 0 3236 l 0 25884 m 0 3236 l 0 539 m 0 3236 l 0 25884 m 0 3236 l 0 539 m 0 3236 l 0 25884 m 0 3236 l 0 539 m 0 3236 l 0 25884 m 0 3236 l 0 539 m 0 3236 l 0 25884 m 0 3236 l 0 539 m 0 3236 l 0 25884 m 0 3236 l 0 539 m 0 3236 l 0 25884 m 0 3236 l 0 539 m 0 3236 l 0 6609" class="C1" /><path d="M 41102 475105 l 0 44131 l 107850 0 l 0 -44131" class="C1" /><path d="M 119023 446976 c -15189 7190 -32802 7190 -47990 0" class="C1" /><path d="M 103109 399545 l -609 1056 c -1541 2670 -4390 4314 -7472 4314 c -3082 0 -5931 -1644 -7472 -4314 l -609 -1056" class="C1" /><path d="M 200721 240982 l 6471 -17256 l 0 -21570 l -6471 0 l 0 38826" class="C1" /><path d="M 200721 245296 l 6471 17256 l 0 21570 l -6471 0 l 0 -38826" class="C1" /><path d="M 200721 240982 l 0 4314" class="C1" /><path d="M 207192 223726 l 0 38826" class="C1" /><path d="M 183874 243139 l 25884 0 m 3236 0 l 539 0 m 3236 0 l 25884 0 m 3236 0 l 539 0 m 3236 0 l 25884 0 m 3236 0 l 539 0 m 3236 0 l 25884 0 m 3236 0 l 539 0 m 3236 0 l 25884 0" class="C1" /><path d="M 289158 176272 l 0 25884 m 0 3236 l 0 539 m 0 3236 l 0 25884 m 0 3236 l 0 539 m 0 3236 l 0 25884 m 0 3236 l 0 539 m 0 3236 l 0 25884" class="C1" /><path d="M 330141 243139 c 0 22634 -18349 40983 -40983 40983 c -22634 0 -40983 -18349 -40983 -40983 c 0 -22634 18349 -40983 40983 -40983 c 22634 0 40983 18349 40983 40983" class="C1" /><path d="M 265431 223726 l 47454 0" class="C1" /><path d="M 265431 262552 l 47454 0" class="C1" /><path d="M 265431 262552 l 0 -38826" class="C1" /><path d="M 312885 262552 l 0 -38826" class="C1" /><path d="M 265431 245296 l 47454 0" class="C1" /><path d="M 265431 240982 l 47454 0" class="C1" /><path d="M 291716 273173 c 0 1413 -1145 2558 -2558 2558 c -1413 0 -2558 -1145 -2558 -2558 c 0 -1413 1145 -2558 2558 -2558 c 1413 0 2558 1145 2558 2558" class="C1" /><path d="M 291716 213105 c 0 1413 -1145 2558 -2558 2558 c -1413 0 -2558 -1145 -2558 -2558 c 0 -1413 1145 -2558 2558 -2558 c 1413 0 2558 1145 2558 2558" class="C1" /><path d="M 947381 357461 l 6471 0 l 0 142362 l -6471 0 l 0 -142362" class="C1" /><path d="M 942785 176272 l 0 25884 m 0 3236 l 0 539 m 0 3236 l 0 25884 m 0 3236 l 0 539 m 0 3236 l 0 25884 m 0 3236 l 0 539 m 0 3236 l 0 25884" class="C1" /><path d="M 983768 243139 c 0 22634 -18349 40983 -40983 40983 c -22634 0 -40983 -18349 -40983 -40983 c 0 -22634 18349 -40983 40983 -40983 c 22634 0 40983 18349 40983 40983" class="C1" /><path d="M 837502 243139 l 25884 0 m 3236 0 l 539 0 m 3236 0 l 25884 0 m 3236 0 l 539 0 m 3236 0 l 25884 0 m 3236 0 l 539 0 m 3236 0 l 25884 0 m 3236 0 l 539 0 m 3236 0 l 25884 0" class="C1" /><path d="M 945344 273173 c 0 1413 -1145 2558 -2558 2558 c -1413 0 -2558 -1145 -2558 -2558 c 0 -1413 1145 -2558 2558 -2558 c 1413 0 2558 1145 2558 2558" class="C1" /><path d="M 945344 213105 c 0 1413 -1145 2558 -2558 2558 c -1413 0 -2558 -1145 -2558 -2558 c 0 -1413 1145 -2558 2558 -2558 c 1413 0 2558 1145 2558 2558" class="C1" /><path d="M 855096 202156 l -4314 0" class="C1" /><path d="M 850782 202156 l 0 81966" class="C1" /><path d="M 855096 284122 l -4314 0" class="C1" /><path d="M 855096 202156 l 0 81966" class="C1" /><path d="M 855096 210547 l -4314 0" class="C1" /><path d="M 855096 215664 l -4314 0" class="C1" /><path d="M 855096 270615 l -4314 0" class="C1" /><path d="M 855096 275731 l -4314 0" class="C1" /><path d="M 385894 155794 l 0 86590 l 94908 0 l 0 -86590 c -10268 16303 -28187 26194 -47454 26194 c -19267 0 -37186 -9891 -47454 -26194" class="C1" /><path d="M 385894 39625 l 94908 0 l 0 21343 l -39982 69251 c -1541 2670 -4390 4314 -7472 4314 c -3082 0 -5931 -1644 -7472 -4314 l -39982 -69251 l 0 -21343" class="C1" /><path d="M 774989 93094 c -4587 -3063 -8478 -7059 -11417 -11726" class="C1" /><path d="M 763572 50 l 66436 0 l 0 14940 l -27987 48476 c -881 1527 -2386 2592 -4118 2917" class="C1" /><path d="M 480803 242384 l 349205 -100403" class="C1" /><path d="M 480803 155794 l 349205 -74426" class="C1" /><path d="M 385894 155794 l 377678 -74426" class="C1" /><path d="M 434723 134423 l 363179 -68041" class="C1" /><path d="M 480803 60968 l 349205 -45978" class="C1" /><path d="M 830008 50 l -349205 39575" class="C1" /><path d="M 763572 50 l -377678 39575" class="C1" /><path d="M 830008 141981 l 0 -60613" class="C1" /><path d="M 250567 403048 l -2275 2783 9488 5434 Z" class="C2" /><path d="M 249429 404440 l -67599 -55257" class="C1" /><path d="M 889222 403537 l -2924 -2091 -4810 9819 Z" class="C2" /><path d="M 887760 402492 l 39758 -55608" class="C1" /><path d="M 211056 148674 l 0 4973 l 2305 0 q 793 0 1162 -350 q 369 -350 490 -1386 l 345 0 l 0 4283 l -345 0 q -9 -737 -191 -1082 q -182 -345 -504 -518 q -322 -173 -956 -173 l -2305 0 l 0 3975 q 0 961 121 1269 q 93 233 392 401 q 411 224 858 224 l 457 0 l 0 345 l -5431 0 l 0 -345 l 448 0 q 784 0 1138 -457 q 224 -299 224 -1437 l 0 -8174 q 0 -961 -121 -1269 q -93 -233 -383 -401 q -401 -224 -858 -224 l -448 0 l 0 -345 l 9415 0 l 121 2781 l -327 0 q -243 -886 -565 -1302 q -322 -415 -793 -602 q -471 -187 -1460 -187 l -2790 0 Z M 221768 148674 l 0 5001 l 2781 0 q 1082 0 1446 -327 q 485 -429 541 -1512 l 345 0 l 0 4404 l -345 0 q -131 -924 -261 -1185 q -168 -327 -551 -513 q -383 -187 -1176 -187 l -2781 0 l 0 4171 q 0 840 75 1022 q 75 182 261 289 q 187 107 709 107 l 2146 0 q 1073 0 1558 -149 q 485 -149 933 -588 q 579 -579 1185 -1745 l 373 0 l -1092 3173 l -9751 0 l 0 -345 l 448 0 q 448 0 849 -215 q 299 -149 406 -448 q 107 -299 107 -1222 l 0 -8221 q 0 -1204 -243 -1484 q -336 -373 -1120 -373 l -448 0 l 0 -345 l 9751 0 l 140 2771 l -364 0 q -196 -998 -434 -1372 q -238 -373 -704 -569 q -373 -140 -1316 -140 l -3471 0 Z M 229196 147984 l 3434 0 l 7735 9490 l 0 -7297 q 0 -1166 -261 -1456 q -345 -392 -1092 -392 l -439 0 l 0 -345 l 4404 0 l 0 345 l -448 0 q -802 0 -1138 485 q -205 299 -205 1362 l 0 10665 l -336 0 l -8342 -10189 l 0 7791 q 0 1166 252 1456 q 355 392 1092 392 l 448 0 l 0 345 l -4404 0 l 0 -345 l 439 0 q 812 0 1148 -485 q 205 -299 205 -1362 l 0 -8799 q -551 -644 -835 -849 q -285 -205 -835 -383 q -271 -84 -821 -84 l 0 -345 Z M 243575 160636 l 0 -345 l 476 0 q 802 0 1138 -513 q 205 -308 205 -1381 l 0 -8174 q 0 -1185 -261 -1484 q -364 -411 -1082 -411 l -476 0 l 0 -345 l 5151 0 q 2837 0 4316 644 q 1479 644 2379 2146 q 900 1502 900 3471 q 0 2641 -1605 4414 q -1801 1978 -5487 1978 l -5655 0 m 3611 -914 q 1185 261 1987 261 q 2165 0 3592 -1521 q 1428 -1521 1428 -4124 q 0 -2622 -1428 -4134 q -1428 -1512 -3667 -1512 q -840 0 -1913 271 l 0 10759 Z M 262946 160291 l 0 345 l -5421 0 l 0 -345 l 448 0 q 784 0 1138 -457 q 224 -299 224 -1437 l 0 -8174 q 0 -961 -121 -1269 q -93 -233 -383 -401 q -411 -224 -858 -224 l -448 0 l 0 -345 l 5421 0 l 0 345 l -457 0 q -774 0 -1129 457 q -233 299 -233 1437 l 0 8174 q 0 961 121 1269 q 93 233 392 401 q 401 224 849 224 l 457 0 Z M 274469 147984 l 140 2967 l -355 0 q -103 -784 -280 -1120 q -289 -541 -770 -798 q -481 -257 -1264 -257 l -1782 0 l 0 9667 q 0 1166 252 1456 q 355 392 1092 392 l 439 0 l 0 345 l -5365 0 l 0 -345 l 448 0 q 802 0 1138 -485 q 205 -299 205 -1362 l 0 -9667 l -1521 0 q -886 0 -1260 131 q -485 177 -830 681 q -345 504 -411 1362 l -355 0 l 149 -2967 l 10329 0 Z M 284202 148329 l 0 -345 l 4479 0 l 0 345 l -476 0 q -746 0 -1148 625 q -196 289 -196 1344 l 0 5132 q 0 1904 -378 2953 q -378 1050 -1484 1801 q -1106 751 -3009 751 q -2071 0 -3145 -718 q -1073 -718 -1521 -1932 q -299 -830 -299 -3117 l 0 -4945 q 0 -1166 -322 -1530 q -322 -364 -1040 -364 l -476 0 l 0 -345 l 5468 0 l 0 345 l -485 0 q -784 0 -1120 495 q -233 336 -233 1400 l 0 5515 q 0 737 135 1689 q 135 952 490 1484 q 355 532 1022 877 q 667 345 1638 345 q 1241 0 2221 -541 q 980 -541 1339 -1386 q 359 -844 359 -2860 l 0 -5123 q 0 -1185 -261 -1484 q -364 -411 -1082 -411 l -476 0 Z M 301800 160636 l -3378 0 l -4283 -5916 q -476 19 -774 19 q -121 0 -261 -5 q -140 -5 -289 -14 l 0 3676 q 0 1194 261 1484 q 355 411 1064 411 l 495 0 l 0 345 l -5421 0 l 0 -345 l 476 0 q 802 0 1148 -523 q 196 -289 196 -1372 l 0 -8174 q 0 -1194 -261 -1484 q -364 -411 -1082 -411 l -476 0 l 0 -345 l 4609 0 q 2015 0 2972 294 q 956 294 1624 1082 q 667 788 667 1880 q 0 1166 -760 2025 q -760 858 -2356 1213 l 2613 3630 q 896 1250 1540 1661 q 644 411 1680 523 l 0 345 m -8986 -6504 q 177 0 308 5 q 131 5 215 5 q 1810 0 2729 -784 q 919 -784 919 -1997 q 0 -1185 -742 -1927 q -742 -742 -1964 -742 q -541 0 -1465 177 l 0 5263 Z M 310375 156400 l -4899 0 l -858 1997 q -317 737 -317 1101 q 0 289 275 509 q 275 219 1190 285 l 0 345 l -3984 0 l 0 -345 q 793 -140 1026 -364 q 476 -448 1054 -1820 l 4451 -10413 l 327 0 l 4404 10525 q 532 1269 966 1647 q 434 378 1208 425 l 0 345 l -4992 0 l 0 -345 q 756 -37 1022 -252 q 266 -215 266 -523 q 0 -411 -373 -1297 l -765 -1820 m -261 -690 l -2146 -5113 l -2202 5113 l 4348 0 Z" class="C2" /><path d="M 876642 154882 l 0 345 q -672 121 -1017 429 q -495 457 -877 1400 l -4414 10768 l -345 0 l -4740 -10908 q -364 -840 -513 -1026 q -233 -289 -574 -453 q -341 -163 -919 -210 l 0 -345 l 5169 0 l 0 345 q -877 84 -1138 299 q -261 215 -261 551 q 0 467 429 1456 l 3219 7418 l 2986 -7325 q 439 -1082 439 -1502 q 0 -271 -271 -518 q -271 -247 -914 -350 q -47 -9 -159 -28 l 0 -345 l 3900 0 Z M 880869 155572 l 0 5001 l 2781 0 q 1082 0 1446 -327 q 485 -429 541 -1512 l 345 0 l 0 4404 l -345 0 q -131 -924 -261 -1185 q -168 -327 -551 -513 q -383 -187 -1176 -187 l -2781 0 l 0 4171 q 0 840 75 1022 q 75 182 261 289 q 187 107 709 107 l 2146 0 q 1073 0 1558 -149 q 485 -149 933 -588 q 579 -579 1185 -1745 l 373 0 l -1092 3173 l -9751 0 l 0 -345 l 448 0 q 448 0 849 -215 q 299 -149 406 -448 q 107 -299 107 -1222 l 0 -8221 q 0 -1204 -243 -1484 q -336 -373 -1120 -373 l -448 0 l 0 -345 l 9751 0 l 140 2771 l -364 0 q -196 -998 -434 -1372 q -238 -373 -704 -569 q -373 -140 -1316 -140 l -3471 0 Z M 899606 154882 l 140 2967 l -355 0 q -103 -784 -280 -1120 q -289 -541 -770 -798 q -481 -257 -1264 -257 l -1782 0 l 0 9667 q 0 1166 252 1456 q 355 392 1092 392 l 439 0 l 0 345 l -5365 0 l 0 -345 l 448 0 q 802 0 1138 -485 q 205 -299 205 -1362 l 0 -9667 l -1521 0 q -886 0 -1260 131 q -485 177 -830 681 q -345 504 -411 1362 l -355 0 l 149 -2967 l 10329 0 Z M 913136 167534 l -3378 0 l -4283 -5916 q -476 19 -774 19 q -121 0 -261 -5 q -140 -5 -289 -14 l 0 3676 q 0 1194 261 1484 q 355 411 1064 411 l 495 0 l 0 345 l -5421 0 l 0 -345 l 476 0 q 802 0 1148 -523 q 196 -289 196 -1372 l 0 -8174 q 0 -1194 -261 -1484 q -364 -411 -1082 -411 l -476 0 l 0 -345 l 4609 0 q 2015 0 2972 294 q 956 294 1624 1082 q 667 788 667 1880 q 0 1166 -760 2025 q -760 858 -2356 1213 l 2613 3630 q 896 1250 1540 1661 q 644 411 1680 523 l 0 345 m -8986 -6504 q 177 0 308 5 q 131 5 215 5 q 1810 0 2729 -784 q 919 -784 919 -1997 q 0 -1185 -742 -1927 q -742 -742 -1964 -742 q -541 0 -1465 177 l 0 5263 Z M 918865 167189 l 0 345 l -5421 0 l 0 -345 l 448 0 q 784 0 1138 -457 q 224 -299 224 -1437 l 0 -8174 q 0 -961 -121 -1269 q -93 -233 -383 -401 q -411 -224 -858 -224 l -448 0 l 0 -345 l 5421 0 l 0 345 l -457 0 q -774 0 -1129 457 q -233 299 -233 1437 l 0 8174 q 0 961 121 1269 q 93 233 392 401 q 401 224 849 224 l 457 0 Z M 919080 154882 l 3434 0 l 7735 9490 l 0 -7297 q 0 -1166 -261 -1456 q -345 -392 -1092 -392 l -439 0 l 0 -345 l 4404 0 l 0 345 l -448 0 q -802 0 -1138 485 q -205 299 -205 1362 l 0 10665 l -336 0 l -8342 -10189 l 0 7791 q 0 1166 252 1456 q 355 392 1092 392 l 448 0 l 0 345 l -4404 0 l 0 -345 l 439 0 q 812 0 1148 -485 q 205 -299 205 -1362 l 0 -8799 q -551 -644 -835 -849 q -285 -205 -835 -383 q -271 -84 -821 -84 l 0 -345 Z M 940121 154592 q 2463 0 4269 1871 q 1806 1871 1806 4670 q 0 2883 -1820 4787 q -1820 1904 -4404 1904 q -2613 0 -4390 -1857 q -1778 -1857 -1778 -4805 q 0 -3014 2053 -4917 q 1782 -1652 4264 -1652 m -177 681 q -1698 0 -2725 1260 q -1278 1568 -1278 4591 q 0 3098 1325 4768 q 1017 1269 2687 1269 q 1782 0 2944 -1390 q 1162 -1390 1162 -4386 q 0 -3247 -1278 -4843 q -1026 -1269 -2837 -1269 Z" class="C2" /><path d="M 302100 530021 l 0 61387" class="C1" /><path d="M 827874 530021 l 0 61387" class="C1" /><path d="M 312885 586016 l 504204 0" class="C1" /><path d="M 312885 584218 l 0 3595 -10785 -1798 Z" class="C2" /><path d="M 817089 584218 l 0 3595 10785 -1798 Z" class="C2" /><path d="M 545271 575176 l -1317 103 q -177 -780 -500 -1133 q -537 -566 -1324 -566 q -633 0 -1111 353 q -625 456 -986 1332 q -360 875 -375 2494 q 478 -728 1170 -1081 q 692 -353 1449 -353 q 1324 0 2255 975 q 931 975 931 2520 q 0 1015 -438 1887 q -438 872 -1203 1335 q -765 463 -1736 463 q -1655 0 -2700 -1218 q -1045 -1218 -1045 -4013 q 0 -3127 1155 -4546 q 1008 -1236 2715 -1236 q 1273 0 2086 714 q 813 714 975 1972 m -5407 4649 q 0 684 291 1310 q 291 625 813 953 q 522 327 1096 327 q 839 0 1442 -677 q 603 -677 603 -1839 q 0 -1118 -596 -1762 q -596 -644 -1501 -644 q -898 0 -1523 644 q -625 644 -625 1688 Z M 546779 578001 q 0 -1913 394 -3079 q 394 -1166 1170 -1799 q 776 -633 1953 -633 q 868 0 1523 349 q 655 349 1081 1008 q 427 658 669 1604 q 243 945 243 2549 q 0 1898 -390 3064 q -390 1166 -1166 1802 q -776 636 -1961 636 q -1560 0 -2450 -1118 q -1067 -1346 -1067 -4385 m 1361 0 q 0 2656 622 3535 q 622 879 1534 879 q 912 0 1534 -883 q 622 -883 622 -3531 q 0 -2663 -622 -3539 q -622 -875 -1549 -875 q -912 0 -1457 772 q -684 986 -684 3642 Z M 555158 578001 q 0 -1913 394 -3079 q 394 -1166 1170 -1799 q 776 -633 1953 -633 q 868 0 1523 349 q 655 349 1081 1008 q 427 658 669 1604 q 243 945 243 2549 q 0 1898 -390 3064 q -390 1166 -1166 1802 q -776 636 -1961 636 q -1560 0 -2450 -1118 q -1067 -1346 -1067 -4385 m 1361 0 q 0 2656 622 3535 q 622 879 1534 879 q 912 0 1534 -883 q 622 -883 622 -3531 q 0 -2663 -622 -3539 q -622 -875 -1549 -875 q -912 0 -1457 772 q -684 986 -684 3642 Z" class="C2" /><path d="M 568092 583319 l 0 -7813 l 1184 0 l 0 1096 q 368 -574 978 -923 q 611 -349 1390 -349 q 868 0 1424 360 q 555 360 783 1008 q 927 -1368 2413 -1368 q 1162 0 1788 644 q 625 644 625 1983 l 0 5363 l -1317 0 l 0 -4922 q 0 -795 -129 -1144 q -129 -349 -467 -563 q -338 -213 -795 -213 q -824 0 -1368 548 q -544 548 -544 1755 l 0 4539 l -1324 0 l 0 -5076 q 0 -883 -324 -1324 q -324 -441 -1059 -441 q -559 0 -1034 294 q -475 294 -688 861 q -213 566 -213 1633 l 0 4054 l -1324 0 Z M 580642 583319 l 0 -7813 l 1184 0 l 0 1096 q 368 -574 978 -923 q 611 -349 1390 -349 q 868 0 1424 360 q 555 360 783 1008 q 927 -1368 2413 -1368 q 1162 0 1788 644 q 625 644 625 1983 l 0 5363 l -1317 0 l 0 -4922 q 0 -795 -129 -1144 q -129 -349 -467 -563 q -338 -213 -795 -213 q -824 0 -1368 548 q -544 548 -544 1755 l 0 4539 l -1324 0 l 0 -5076 q 0 -883 -324 -1324 q -324 -441 -1059 -441 q -559 0 -1034 294 q -475 294 -688 861 q -213 566 -213 1633 l 0 4054 l -1324 0 Z" class="C2" /><path d="M 23846 7861 l -13117 0" class="C1" /><path d="M 23846 223562 l -13117 0" class="C1" /><path d="M 16122 18646 l 0 194131" class="C1" /><path d="M 14324 18646 l 3595 0 -1798 -10785 Z" class="C2" /><path d="M 14324 212777 l 3595 0 -1798 10785 Z" class="C2" /><path d="M 13425 137311 l 0 1324 l -8438 0 q 456 478 912 1254 q 456 776 684 1394 l -1280 0 q -522 -1111 -1265 -1942 q -743 -831 -1442 -1177 l 0 -853 l 10829 0 Z M 8106 133920 q -1913 0 -3079 -394 q -1166 -394 -1799 -1170 q -633 -776 -633 -1953 q 0 -868 349 -1523 q 349 -655 1008 -1081 q 658 -427 1604 -669 q 945 -243 2549 -243 q 1898 0 3064 390 q 1166 390 1802 1166 q 636 776 636 1961 q 0 1560 -1118 2450 q -1346 1067 -4385 1067 m 0 -1361 q 2656 0 3535 -622 q 879 -622 879 -1534 q 0 -912 -883 -1534 q -883 -622 -3531 -622 q -2663 0 -3539 622 q -875 622 -875 1549 q 0 912 772 1457 q 986 684 3642 684 Z M 8106 125540 q -1913 0 -3079 -394 q -1166 -394 -1799 -1170 q -633 -776 -633 -1953 q 0 -868 349 -1523 q 349 -655 1008 -1081 q 658 -427 1604 -669 q 945 -243 2549 -243 q 1898 0 3064 390 q 1166 390 1802 1166 q 636 776 636 1961 q 0 1560 -1118 2450 q -1346 1067 -4385 1067 m 0 -1361 q 2656 0 3535 -622 q 879 -622 879 -1534 q 0 -912 -883 -1534 q -883 -622 -3531 -622 q -2663 0 -3539 622 q -875 622 -875 1549 q 0 912 772 1457 q 986 684 3642 684 Z" class="C2" /><path d="M 13425 112607 l -7813 0 l 0 -1184 l 1096 0 q -574 -368 -923 -978 q -349 -611 -349 -1390 q 0 -868 360 -1424 q 360 -555 1008 -783 q -1368 -927 -1368 -2413 q 0 -1162 644 -1788 q 644 -625 1983 -625 l 5363 0 l 0 1317 l -4922 0 q -795 0 -1144 129 q -349 129 -563 467 q -213 338 -213 795 q 0 824 548 1368 q 548 544 1755 544 l 4539 0 l 0 1324 l -5076 0 q -883 0 -1324 324 q -441 324 -441 1059 q 0 559 294 1034 q 294 475 861 688 q 566 213 1633 213 l 4054 0 l 0 1324 Z M 13425 100056 l -7813 0 l 0 -1184 l 1096 0 q -574 -368 -923 -978 q -349 -611 -349 -1390 q 0 -868 360 -1424 q 360 -555 1008 -783 q -1368 -927 -1368 -2413 q 0 -1162 644 -1788 q 644 -625 1983 -625 l 5363 0 l 0 1317 l -4922 0 q -795 0 -1144 129 q -349 129 -563 467 q -213 338 -213 795 q 0 824 548 1368 q 548 544 1755 544 l 4539 0 l 0 1324 l -5076 0 q -883 0 -1324 324 q -441 324 -441 1059 q 0 559 294 1034 q 294 475 861 688 q 566 213 1633 213 l 4054 0 l 0 1324 Z" class="C2" /><path d="M 41102 240818 l 0 17185" class="C1" /><path d="M 148952 240818 l 0 17185" class="C1" /><path d="M 51887 252610 l 86280 0" class="C1" /><path d="M 51887 250813 l 0 3595 -10785 -1798 Z" class="C2" /><path d="M 138167 250813 l 0 3595 10785 -1798 Z" class="C2" /><path d="M 72630 247089 l 1390 -118 q 154 1015 717 1527 q 563 511 1357 511 q 956 0 1618 -721 q 662 -721 662 -1913 q 0 -1133 -636 -1788 q -636 -655 -1666 -655 q -640 0 -1155 291 q -515 291 -809 754 l -1243 -162 l 1045 -5540 l 5363 0 l 0 1265 l -4304 0 l -581 2899 q 971 -677 2038 -677 q 1413 0 2384 978 q 971 978 971 2516 q 0 1464 -853 2531 q -1037 1310 -2832 1310 q -1471 0 -2402 -824 q -931 -824 -1063 -2185 Z M 81009 244595 q 0 -1913 394 -3079 q 394 -1166 1170 -1799 q 776 -633 1953 -633 q 868 0 1523 349 q 655 349 1081 1008 q 427 658 669 1604 q 243 945 243 2549 q 0 1898 -390 3064 q -390 1166 -1166 1802 q -776 636 -1961 636 q -1560 0 -2450 -1118 q -1067 -1346 -1067 -4385 m 1361 0 q 0 2656 622 3535 q 622 879 1534 879 q 912 0 1534 -883 q 622 -883 622 -3531 q 0 -2663 -622 -3539 q -622 -875 -1549 -875 q -912 0 -1457 772 q -684 986 -684 3642 Z" class="C2" /><path d="M 93942 249914 l 0 -7813 l 1184 0 l 0 1096 q 368 -574 978 -923 q 611 -349 1390 -349 q 868 0 1424 360 q 555 360 783 1008 q 927 -1368 2413 -1368 q 1162 0 1788 644 q 625 644 625 1983 l 0 5363 l -1317 0 l 0 -4922 q 0 -795 -129 -1144 q -129 -349 -467 -563 q -338 -213 -795 -213 q -824 0 -1368 548 q -544 548 -544 1755 l 0 4539 l -1324 0 l 0 -5076 q 0 -883 -324 -1324 q -324 -441 -1059 -441 q -559 0 -1034 294 q -475 294 -688 861 q -213 566 -213 1633 l 0 4054 l -1324 0 Z M 106493 249914 l 0 -7813 l 1184 0 l 0 1096 q 368 -574 978 -923 q 611 -349 1390 -349 q 868 0 1424 360 q 555 360 783 1008 q 927 -1368 2413 -1368 q 1162 0 1788 644 q 625 644 625 1983 l 0 5363 l -1317 0 l 0 -4922 q 0 -795 -129 -1144 q -129 -349 -467 -563 q -338 -213 -795 -213 q -824 0 -1368 548 q -544 548 -544 1755 l 0 4539 l -1324 0 l 0 -5076 q 0 -883 -324 -1324 q -324 -441 -1059 -441 q -559 0 -1034 294 q -475 294 -688 861 q -213 566 -213 1633 l 0 4054 l -1324 0 Z" class="C2" /><path d="M 302100 399198 l 89192 -89192 m -89192 60136 l 60136 -60136 m -60136 31080 l 31080 -31080 m -31080 2025 l 2025 -2025 m 29687 202759 l 60396 -60396 m 47454 -47454 l 94908 -94908 m -231814 202759 l 60396 -60396 m 47454 -47454 l 94908 -94908 m -205415 176359 l 33997 -33997 m 47454 -47454 l 94908 -94908 m -176359 147303 l 4941 -4941 m 47454 -47454 l 94908 -94908 m -123964 94908 l 94908 -94908 m -57480 202759 l 60396 -60396 m 47454 -47454 l 83165 -83165 m -103848 191016 l 60396 -60396 m 47454 -47454 l 14418 -14418 m 20851 -20851 l 59639 -59639 m -231814 202759 l 60396 -60396 m 47454 -47454 l 34669 -34669 m 20851 -20851 l 39388 -39388 m -231814 202759 l 60396 -60396 m 47454 -47454 l 54920 -54920 m 26836 -26836 l 13152 -13152 m -57480 202759 l 42730 -42730 m 65120 -65120 l 94908 -94908 m -231814 202759 l 60396 -60396 m 47454 -47454 l 94908 -94908 m -231814 202759 l 60396 -60396 m 62401 -62401 l 79961 -79961 m 145910 202759 l 115 -115 m -29171 115 l 29171 -29171 m -58227 29171 l 58227 -58227 m -87282 58227 l 60396 -60396 m -89452 60396 l 60396 -60396 m 47454 -47454 l 8488 -8488 m -145394 116338 l 60396 -60396 m 47454 -47454 l 37543 -37543 m -174450 145394 l 60396 -60396 m 47454 -47454 l 66599 -66599 m -203505 174450 l 60396 -60396 m 47454 -47454 l 94908 -94908 m -231814 202759 l 60396 -60396 m 47454 -47454 l 94908 -94908 m -188208 159152 l 16790 -16790 m 47454 -47454 l 94908 -94908 m -721443 -121173 l 33820 -33820 m -33820 4765 l 14088 -14088 m 37509 -37509 l 3431 -3431 m -55028 25973 l 86 -86 m 34704 -34704 l 59930 -59930 m -6753 181088 l 6943 -6943 m -35998 6943 l 35998 -35998 m -65054 35998 l 65054 -65054 m -94110 65054 l 62756 -62756 m -39400 -76823 l 63180 -63180 m -73815 44759 l 44759 -44759 m -55395 26339 l 26339 -26339 m -29223 167 l 167 -167" class="C1" /><path d="M 817995 303535 l 6471 6471 m 3408 3408 l 6471 6471 m 43140 43140 l 6471 6471 m -75647 -65962 l 6471 6471 m 13094 13094 l 6471 6471 m 43140 43140 l 6471 6471 m -85332 -75647 l 6471 6471 m 22779 22779 l 6471 6471 m 39774 39774 l 6471 6471 m -91652 -81966 l 6471 6471 m 32464 32464 l 6471 6471 m 30089 30089 l 6471 6471 m -91652 -81966 l 6471 6471 m 42149 42149 l 6471 6471 m 20404 20404 l 6471 6471 m -91652 -81966 l 6471 6471 m 51835 51835 l 6471 6471 m 10719 10719 l 6471 6471 m -91652 -81966 l 6471 6471 m 61520 61520 l 6471 6471 m 1033 1033 l 6471 6471 m -91652 -81966 l 6471 6471 m 71205 71205 l 6471 6471 m -93832 -84147 l 6471 6471 m 80890 80890 l 6471 6471 m -103518 -93832 l 6471 6471 m -16156 -6471 l 6471 6471 m -16156 -6471 l 6471 6471 m 161776 161776 l 4253 4253 m -182185 -172499 l 6471 6471 m 161776 161776 l 6471 6471 m 996 996 l 6471 6471 m -191870 -182185 l 6471 6471 m 161776 161776 l 6471 6471 m 10681 10681 l 6471 6471 m -201555 -191870 l 6471 6471 m 161776 161776 l 6471 6471 m 20366 20366 l 1204 1204 m -205973 -196288 l 6471 6471 m 148834 148834 l 6325 6325 m 6617 6617 l 6471 6471 m -184403 -174718 l 6471 6471 m 158372 158372 l 9874 9874 m -184403 -174718 l 6471 6471 m 168058 168058 l 6471 6471 m -190685 -181000 l 6471 6471 m 177743 177743 l 6471 6471 m -200370 -190685 l 6471 6471 m 187428 187428 l 6471 6471 m -210055 -200370 l 6471 6471 m 197113 197113 l 6471 6471 m -219741 -210055 l 6471 6471 m 202759 202759 l 6471 6471 m -225386 -215701 l 6471 6471 m 202759 202759 l 6471 6471 m -225386 -215701 l 6471 6471 m 202759 202759 l 6471 6471 m -225386 -215701 l 6471 6471 m 202759 202759 l 6471 6471 m 26430 -215701 l 6665 6665 m 47260 47260 l 2351 2351 m -842854 -213314 l 6471 6471 m 64122 64122 l 6471 6471 m 133899 133899 l 424 424 m 21146 21146 l 6471 6471 m 127263 127263 l 6471 6471 m -372738 -363053 l 6471 6471 m 54437 54437 l 6471 6471 m 137537 137537 l 6471 6471 m 11461 11461 l 6471 6471 m 127263 127263 l 6471 6471 m -363053 -353368 l 6471 6471 m 44751 44751 l 6471 6471 m 147222 147222 l 6471 6471 m 1775 1775 l 6471 6471 m 127263 127263 l 6471 6471 m -353368 -392109 l 6471 6471 m 83492 83492 l 6471 6471 m 155469 155469 l 9095 9095 m 124640 124640 l 6471 6471 m -392109 -382423 l 6471 6471 m 73807 73807 l 6471 6471 m 155469 155469 l 6471 6471 m 5838 5838 l 6471 6471 m 114954 114954 l 6471 6471 m -382423 -469590 l 6471 6471 m 94908 94908 l 6471 6471 m 146676 146676 l 6471 6471 m 202122 202122 l 6471 6471 m -469590 -459905 l 6471 6471 m 94908 94908 l 6471 6471 m 146676 146676 l 6471 6471 m 192436 192436 l 6471 6471 m -459905 -450220 l 6471 6471 m 94908 94908 l 6471 6471 m 146676 146676 l 6471 6471 m 182751 182751 l 6471 6471 m -450220 -440535 l 6471 6471 m 94908 94908 l 6471 6471 m 146676 146676 l 6471 6471 m 173066 173066 l 6471 6471 m -440535 -430850 l 6471 6471 m 94908 94908 l 6471 6471 m 146676 146676 l 6471 6471 m 163381 163381 l 6471 6471 m -430850 -421164 l 6471 6471 m 94908 94908 l 6471 6471 m 146676 146676 l 6471 6471 m 153695 153695 l 6471 6471 m -421164 -411479 l 6471 6471 m 94908 94908 l 6471 6471 m 146676 146676 l 6471 6471 m 144010 144010 l 6471 6471 m -411479 -401794 l 6471 6471 m 93178 93178 l 6471 6471 m 148407 148407 l 6471 6471 m 134325 134325 l 6471 6471 m 103912 -215701 l 6471 6471 m 202759 202759 l 6471 6471 m -225386 -215701 l 6471 6471 m 202759 202759 l 6471 6471 m -225386 -215701 l 6471 6471 m 202759 202759 l 6471 6471 m -225386 -215701 l 6471 6471 m 202759 202759 l 6471 6471 m -225386 -215701 l 6471 6471 m 202759 202759 l 6471 6471 m -225386 -215701 l 6471 6471 m 202759 202759 l 6471 6471 m -225386 -215701 l 6471 6471 m 202759 202759 l 6471 6471 m -225386 -215701 l 6471 6471 m 202759 202759 l 6471 6471 m -225386 -215701 l 6471 6471 m 202759 202759 l 6471 6471 m -225386 -215701 l 6471 6471 m 202759 202759 l 6471 6471 m -225386 -215701 l 6471 6471 m 202759 202759 l 6471 6471 m -521060 -511375 l 4356 4356 m 291318 291318 l 6471 6471 m 202759 202759 l 6471 6471 m -521060 -511375 l 6471 6471 m 1099 1099 l 6471 6471 m 281633 281633 l 6471 6471 m 202759 202759 l 6471 6471 m -521060 -511375 l 6471 6471 m 10785 10785 l 6471 6471 m 271947 271947 l 6471 6471 m 202759 202759 l 6471 6471 m -521060 -511375 l 6471 6471 m 20470 20470 l 6471 6471 m 262262 262262 l 6471 6471 m 202759 202759 l 6471 6471 m -521060 -511375 l 6471 6471 m 30155 30155 l 6471 6471 m 252577 252577 l 6471 6471 m 202759 202759 l 6471 6471 m -521060 -511375 l 6471 6471 m 39840 39840 l 6471 6471 m 242892 242892 l 6471 6471 m 202759 202759 l 6471 6471 m -521060 -511375 l 6471 6471 m 49526 49526 l 6471 6471 m 233207 233207 l 6471 6471 m 204017 204017 l 5212 5212 m -521060 -511375 l 6471 6471 m 59211 59211 l 6471 6471 m 223521 223521 l 6471 6471 m -311831 -302145 l 6471 6471 m 68896 68896 l 6471 6471 m 213836 213836 l 6471 6471 m -311831 -302145 l 6471 6471 m 78581 78581 l 6471 6471 m 204151 204151 l 6471 6471 m 202759 202759 l 830 830 m -515419 -505734 l 6471 6471 m 88267 88267 l 6471 6471 m 194466 194466 l 6471 6471 m 202759 202759 l 6471 6471 m -518017 -508331 l 6471 6471 m 94908 94908 l 6471 6471 m 184780 184780 l 6471 6471 m 202759 202759 l 6471 6471 m -508331 -498646 l 6471 6471 m 94908 94908 l 6471 6471 m 175095 175095 l 6471 6471 m 202759 202759 l 6471 6471 m -498646 -488961 l 6471 6471 m 94908 94908 l 6471 6471 m 165410 165410 l 6471 6471 m 202759 202759 l 6471 6471 m -488961 -479276 l 6471 6471 m 94908 94908 l 6471 6471 m 155725 155725 l 6471 6471 m 202759 202759 l 6471 6471 m -479276 -343682 l 6471 6471 m 35066 35066 l 6471 6471 m 156908 156908 l 5032 5032 m 127263 127263 l 6471 6471 m -343682 -314627 l 6471 6471 m 6010 6010 l 6471 6471 m 235574 235574 l 6471 6471 m 47158 47158 l 6471 6471 m -314627 -304941 l 9267 9267 m 245260 245260 l 6471 6471 m 37472 37472 l 6471 6471 m -57139 -47454 l 6471 6471 m 254 254 l 6471 6471 m 27787 27787 l 6471 6471 m -57139 -47454 l 6471 6471 m 9939 9939 l 6471 6471 m 18102 18102 l 6471 6471 m -57139 -47454 l 6471 6471 m 19624 19624 l 6471 6471 m 8417 8417 l 6471 6471 m -275886 -333997 l 6471 6471 m 25381 25381 l 6471 6471 m 289203 289203 l 6471 6471 m -333997 -324312 l 6471 6471 m 15696 15696 l 6471 6471 m 289203 289203 l 6471 6471 m -105566 -47454 l 6471 6471 m 29310 29310 l 11674 11674 m -57139 -47454 l 6471 6471 m 38995 38995 l 1988 1988 m -51600 -41914 l 6471 6471 m -6471 3214 l 6471 6471 m -6471 3214 l 3131 3131 m 535945 12942 l 6471 6471 m -16156 -6471 l 6471 6471 m -16156 -6471 l 6471 6471" class="C1" /><path d="M 200721 218952 l 6008 6008 m -6008 3677 l 3367 3367 m -3367 6318 l 725 725 m 1849 -36892 l 3896 3896 m -6471 3214 l 6471 6471 m -6471 32270 l 1627 1627 m -1627 8058 l 6471 6471 m -6471 3214 l 6471 6471 m -6471 3214 l 6471 6471" class="C1" /><path d="M 246018 471782 l 0 -86280" class="C1" /><path d="M 295629 398444 l 0 60396" class="C1" /><path d="M 125225 428642 c 0 16678 -13520 30198 -30198 30198 c -16678 0 -30198 -13520 -30198 -30198 c 0 -16678 13520 -30198 30198 -30198 c 16678 0 30198 13520 30198 30198" class="C1" /><path d="M 181830 349183 l 19897 -58226" class="C1" /><path d="M 927517 346884 l -70696 -59427" class="C1" /><path d="M 834345 398444 l 0 60396" class="C1" /><path d="M 883956 385502 l 0 86280" class="C1" /></g></svg>