<?xml version='1.0' encoding='UTF-8'?>
<svg xmlns="http://www.w3.org/2000/svg" width="282.9mm" height="398mm" viewBox="0 0 710804 1000000"><defs><style>.C1 {stroke: #000000; stroke-width: 628; stroke-opacity: 1.000; fill: none; fill-opacity: 1.000;}</style><style>.C2 {stroke: none; stroke-width: none; stroke-opacity: 1.000; fill: #000000; fill-opacity: 1.000;}</style></defs><rect fill="#ffffff" x="0" y="0" width="710804" height="1000000" fill-opacity="1.0"/><g stroke-linecap="round" stroke-linejoin="round" fill-rule="evenodd"><path d="M 546049 394431 l -389407 0 l 0 -62808 l 75369 0 l 0 -12562 l 150738 0 l 0 12562 l 125615 0 l 0 -12562 l 37685 0 l 0 75369" class="C1"/><path d="M 546049 17586 l -389407 0 l 0 62808 l 75369 0 l 0 12562 l 150738 0 l 0 -12562 l 125615 0 l 0 12562 l 37685 0 l 0 -75369" class="C1"/><path d="M 390287 315092 l 61663 -61663 m -61663 27821 l 31851 -31851 m -31851 -1991 l 10977 -10977 m 39293 -39293 l 27380 -27380 m 14881 154327 l 18011 -18011 m -51852 18011 l 51852 -51852 m -85694 51852 l 85694 -85694 m -86041 -83167 l 67295 -67295 m -79682 45840 l 45840 -45840 m -57954 24112 l 24112 -24112 m 12775 88750 l 73654 -73654" class="C1"/><path d="M 500828 324087 l 0 -236156 l -110541 0 l 0 236156 l 110541 0" class="C1"/><path d="M 390287 223234 l 0 100853 l 110541 0 l 0 -100853 c -11960 18989 -32830 30508 -55271 30508 c -22441 0 -43311 -11520 -55271 -30508" class="C1"/><path d="M 508365 80394 l -125615 0 l 0 251230 l 125615 0 l 0 -251230" class="C1"/><path d="M 390287 87931 l 110541 0 l 0 24859 l -46568 80658 c -1795 3109 -5113 5025 -8703 5025 c -3590 0 -6908 -1915 -8703 -5025 l -46568 -80658 l 0 -24859" class="C1"/><path d="M 505400 80394 l 2964 2964 m -14245 -2964 l 14245 14245 m -25525 -14245 l 7537 7537 m 10451 10451 l 7537 7537 m -36806 -25525 l 7537 7537 m 21732 21732 l 7537 7537 m -48086 -36806 l 7537 7537 m 33013 33013 l 7537 7537 m -59367 -48086 l 7537 7537 m 44293 44293 l 7537 7537 m -70647 -59367 l 7537 7537 m 55574 55574 l 7537 7537 m -81928 -70647 l 7537 7537 m 66854 66854 l 7537 7537 m -93209 -81928 l 7537 7537 m 78135 78135 l 7537 7537 m -104489 -93209 l 7537 7537 m 89415 89415 l 7537 7537 m -115770 -104489 l 7537 7537 m 100696 100696 l 7537 7537 m -125615 -114334 l 7537 7537 m 110541 110541 l 7537 7537 m -125615 -114334 l 7537 7537 m 110541 110541 l 7537 7537 m -125615 -114334 l 7537 7537 m 110541 110541 l 7537 7537 m -125615 -114334 l 7537 7537 m 110541 110541 l 7537 7537 m -125615 -114334 l 7537 7537 m 110541 110541 l 7537 7537 m -125615 -114334 l 7537 7537 m 110541 110541 l 7537 7537 m -125615 -114334 l 7537 7537 m 110541 110541 l 7537 7537 m -125615 -114334 l 7537 7537 m 110541 110541 l 7537 7537 m -125615 -114334 l 7537 7537 m 110541 110541 l 7537 7537 m -125615 -114334 l 7537 7537 m 110541 110541 l 7537 7537 m -125615 -114334 l 7537 7537 m 110541 110541 l 7537 7537 m -125615 -114334 l 7537 7537 m 110541 110541 l 7537 7537 m -125615 -114334 l 7537 7537 m 99354 99354 l 7537 7537 m -114428 -103148 l 7537 7537 m 88074 88074 l 7537 7537 m -103148 -91867 l 7537 7537 m 76793 76793 l 7537 7537 m -91867 -80587 l 7537 7537 m 65513 65513 l 7537 7537 m -80587 -69306 l 7537 7537 m 54232 54232 l 7537 7537 m -69306 -58025 l 7537 7537 m 42952 42952 l 7537 7537 m -58025 -46745 l 7537 7537 m 31671 31671 l 7537 7537 m -46745 -35464 l 7537 7537 m 20391 20391 l 7537 7537 m -35464 -24184 l 7537 7537 m 9110 9110 l 7537 7537 m -24184 -12903 l 12903 12903 m -12903 -1623 l 1623 1623" class="C1"/><path d="M 156643 80394 l 75369 0 l 0 251230 l -75369 0 l 0 -251230" class="C1"/><path d="M 542281 17586 l 0 -12562" class="C1"/><path d="M 512133 17586 l 0 -12562" class="C1"/><path d="M 519670 17586 l 0 -12562" class="C1"/><path d="M 534744 17586 l 0 -12562" class="C1"/><path d="M 512133 5025 l 30148 0" class="C1"/><path d="M 522182 5025 l 0 -5025" class="C1"/><path d="M 532231 5025 l 0 -5025" class="C1"/><path d="M 522182 -0 l 10049 0" class="C1"/><path d="M 179253 5025 l 30148 0" class="C1"/><path d="M 201864 17586 l 0 -12562" class="C1"/><path d="M 186790 17586 l 0 -12562" class="C1"/><path d="M 179253 17586 l 0 -12562" class="C1"/><path d="M 199352 5025 l 0 -5025" class="C1"/><path d="M 189303 5025 l 0 -5025" class="C1"/><path d="M 189303 -0 l 10049 0" class="C1"/><path d="M 209401 17586 l 0 -12562" class="C1"/><path d="M 512133 406993 l 30148 0" class="C1"/><path d="M 179253 406993 l 30148 0" class="C1"/><path d="M 179253 394431 l 0 12562" class="C1"/><path d="M 209401 394431 l 0 12562" class="C1"/><path d="M 186790 394431 l 0 12562" class="C1"/><path d="M 201864 394431 l 0 12562" class="C1"/><path d="M 189303 406993 l 0 5025" class="C1"/><path d="M 199352 406993 l 0 5025" class="C1"/><path d="M 189303 412017 l 10049 0" class="C1"/><path d="M 534744 394431 l 0 12562" class="C1"/><path d="M 519670 394431 l 0 12562" class="C1"/><path d="M 512133 394431 l 0 12562" class="C1"/><path d="M 532231 406993 l 0 5025" class="C1"/><path d="M 522182 406993 l 0 5025" class="C1"/><path d="M 522182 412017 l 10049 0" class="C1"/><path d="M 542281 394431 l 0 12562" class="C1"/><path d="M 522182 319062 l 0 -226107" class="C1"/><path d="M 532231 319062 l 0 -226107" class="C1"/><path d="M 164916 394431 l 62808 -62808 m 4288 -4288 l 8273 -8273 m 238669 -238669 l 62808 -62808 m -385118 351277 l 37239 -37239 m 251230 -251230 l 62808 -62808 m -351277 317435 l 3397 -3397 m 251230 -251230 l 62808 -62808 m -109211 75369 l 75369 -75369 m -109211 75369 l 75369 -75369 m -109211 75369 l 75369 -75369 m -109211 75369 l 75369 -75369 m -106699 72858 l 72858 -72858 m -96649 62808 l 62808 -62808 m -96649 62808 l 62808 -62808 m -80543 46702 l 46702 -46702 m -46702 12860 l 12860 -12860 m 29255 376845 l 75369 -75369 m 234238 -234238 l 37685 -37685 m -313450 347292 l 75369 -75369 m 226107 -226107 l 11974 -11974 m -8875 313450 l 8875 -8875 m -42717 8875 l 42717 -42717 m -76558 42717 l 75369 -75369 m -109211 75369 l 62808 -62808 m 9908 -9908 l 2653 -2653 m -109211 75369 l 62808 -62808 m -96649 62808 l 62808 -62808 m -96649 62808 l 62808 -62808 m -96649 62808 l 75369 -75369 m -109211 75369 l 75369 -75369" class="C1"/><path d="M 200842 80394 l 31170 31170 m -65012 -31170 l 65012 65012 m -75369 -41527 l 75369 75369 m -75369 -41527 l 75369 75369 m -75369 -41527 l 75369 75369 m -75369 -41527 l 75369 75369 m -75369 -41527 l 75369 75369 m -75369 -41527 l 58538 58538 m -58538 -24696 l 24696 24696" class="C1"/><path d="M 56151 319062 l 0 -10049" class="C1"/><path d="M 156643 319062 l -100492 0" class="C1"/><path d="M 156643 92955 l -100492 0" class="C1"/><path d="M 156643 103004 l -100492 0" class="C1"/><path d="M 156643 309013 l -100492 0" class="C1"/><path d="M 56151 103004 l 0 -10049" class="C1"/><path d="M 66200 103004 l 0 206009" class="C1"/><path d="M 66200 103004 l 90443 206009" class="C1"/><path d="M 156643 103004 l -90443 206009" class="C1"/><path d="M 332504 103004 l 0 -10049" class="C1"/><path d="M 232012 103004 l 90443 206009" class="C1"/><path d="M 322454 103004 l -90443 206009" class="C1"/><path d="M 322454 103004 l 0 206009" class="C1"/><path d="M 232012 309013 l 100492 0" class="C1"/><path d="M 332504 319062 l 0 -10049" class="C1"/><path d="M 232012 103004 l 100492 0" class="C1"/><path d="M 390287 811217 l 0 100853 l 110541 0 l 0 -100853 c -11960 18989 -32830 30508 -55271 30508 c -22441 0 -43311 -11520 -55271 -30508" class="C1"/><path d="M 500828 912069 l 0 -236156 l -110541 0 l 0 236156 l 110541 0" class="C1"/><path d="M 508365 668376 l -125615 0 l 0 251230 l 125615 0 l 0 -251230" class="C1"/><path d="M 390287 675913 l 110541 0 l 0 24859 l -46568 80658 c -1795 3109 -5113 5025 -8703 5025 c -3590 0 -6908 -1915 -8703 -5025 l -46568 -80658 l 0 -24859" class="C1"/><path d="M 546049 605569 l -389407 0 l 0 62808 l 75369 0 l 0 12562 l 150738 0 l 0 -12562 l 125615 0 l 0 12562 l 37685 0 l 0 -75369" class="C1"/><path d="M 546049 982414 l -389407 0 l 0 -62808 l 75369 0 l 0 -12562 l 150738 0 l 0 12562 l 125615 0 l 0 -12562 l 37685 0 l 0 75369" class="C1"/><path d="M 332504 690987 l 0 -10049" class="C1"/><path d="M 56151 690987 l 0 -10049" class="C1"/><path d="M 156643 668376 l 75369 0 l 0 251230 l -75369 0 l 0 -251230" class="C1"/><path d="M 156643 690987 l -90443 206009" class="C1"/><path d="M 66200 690987 l 90443 206009" class="C1"/><path d="M 66200 690987 l 0 206009" class="C1"/><path d="M 156643 896996 l -100492 0" class="C1"/><path d="M 156643 907045 l -100492 0" class="C1"/><path d="M 56151 907045 l 0 -10049" class="C1"/><path d="M 179253 994975 l 30148 0" class="C1"/><path d="M 179253 982414 l 0 12562" class="C1"/><path d="M 199352 994975 l 0 5025" class="C1"/><path d="M 189303 994975 l 0 5025" class="C1"/><path d="M 189303 1000000 l 10049 0" class="C1"/><path d="M 186790 982414 l 0 12562" class="C1"/><path d="M 201864 982414 l 0 12562" class="C1"/><path d="M 209401 982414 l 0 12562" class="C1"/><path d="M 156643 690987 l -100492 0" class="C1"/><path d="M 322454 690987 l 0 206009" class="C1"/><path d="M 322454 690987 l -90443 206009" class="C1"/><path d="M 232012 690987 l 90443 206009" class="C1"/><path d="M 232012 896996 l 100492 0" class="C1"/><path d="M 332504 907045 l 0 -10049" class="C1"/><path d="M 232012 690987 l 100492 0" class="C1"/><path d="M 156643 680938 l -100492 0" class="C1"/><path d="M 209401 605569 l 0 -12562" class="C1"/><path d="M 186790 605569 l 0 -12562" class="C1"/><path d="M 201864 605569 l 0 -12562" class="C1"/><path d="M 179253 605569 l 0 -12562" class="C1"/><path d="M 179253 593007 l 30148 0" class="C1"/><path d="M 189303 587983 l 10049 0" class="C1"/><path d="M 189303 593007 l 0 -5025" class="C1"/><path d="M 199352 593007 l 0 -5025" class="C1"/><path d="M 532231 907045 l 0 -226107" class="C1"/><path d="M 522182 907045 l 0 -226107" class="C1"/><path d="M 522182 1000000 l 10049 0" class="C1"/><path d="M 512133 994975 l 30148 0" class="C1"/><path d="M 522182 994975 l 0 5025" class="C1"/><path d="M 512133 982414 l 0 12562" class="C1"/><path d="M 519670 982414 l 0 12562" class="C1"/><path d="M 532231 994975 l 0 5025" class="C1"/><path d="M 542281 982414 l 0 12562" class="C1"/><path d="M 534744 982414 l 0 12562" class="C1"/><path d="M 542281 605569 l 0 -12562" class="C1"/><path d="M 534744 605569 l 0 -12562" class="C1"/><path d="M 519670 605569 l 0 -12562" class="C1"/><path d="M 512133 605569 l 0 -12562" class="C1"/><path d="M 522182 587983 l 10049 0" class="C1"/><path d="M 512133 593007 l 30148 0" class="C1"/><path d="M 522182 593007 l 0 -5025" class="C1"/><path d="M 532231 593007 l 0 -5025" class="C1"/><path d="M 419395 699428 l 16349 50614 l 1151 4478 l 905 3937 l 697 3441 l 527 2990 l 394 2583 l 300 2222 l 243 1905 l 224 1633 l 224 1420 l 170 1321 l 42 1349 l -159 1505 l -433 1789 l -781 2200 l -1202 2739 l -1696 3405 l -2229 4146 l -2662 4749 l -2960 5160 l -3123 5380 l -3152 5408 l -3045 5245 l -2804 4890 l -2428 4345 l -1950 3658 l -1500 3031 l -1112 2516 l -786 2112 l -521 1819 l -318 1637 l -176 1566 l -95 1607 l -66 1745 l -45 1932 l -21 2154 l 5 2412 l 34 2705 l 64 3033 l 97 3397 l 133 3796 l 166 4206 l 175 4525 l 156 4728 l 109 4816 l 33 4787 l -71 4643 l -203 4383 l -364 4007 l -549 3542 l -738 3091 l -927 2679 l -1116 2308 l -1306 1978 l -1495 1687 l -1684 1436 l -1873 1226 l -2098 1051 l -2497 890 l -3108 739 l -3928 597 l -4960 465 l -6201 342 l -7654 228 l -9317 124 l -11074 26 l -12462 -80 l -13366 -198 l -13785 -328 l -13718 -470 l -13167 -623 l -12131 -789 l -10610 -966 l -8723 -1154 l -6945 -1351 l -5393 -1554 l -4068 -1764 l -2971 -1981 l -2100 -2206 l -1457 -2438 l -1041 -2676 l -817 -2972 l -649 -3525 l -503 -4385 l -377 -5552 l -273 -7027 l -190 -8809 l -129 -10898 l -89 -13294 l -64 -15828 l -31 -17822 l 17 -19108 l 78 -19684 l 154 -19552 l 244 -18711 l 348 -17161 l 466 -14902 l 598 -12110 l 740 -9489 l 891 -7216 l 1052 -5290 l 1222 -3711 l 1402 -2480 l 1591 -1596 l 1790 -1060 l 2028 -816 l 2428 -646 l 3019 -495 l 3802 -362 l 4777 -249 l 5943 -154 l 7300 -79 l 8850 -22 l 10486 21 l 11792 73 l 12662 139 l 13097 220 l 13097 314 l 12662 423 l 11792 546 l 10486 683 l 8851 833 l 7309 994 l 5965 1164 l 4820 1344 l 3874 1533 l 3127 1731 l 2578 1939 l 2228 2157 l 2049 2387 l 1931 2647 l 1846 2940 l 1794 3267 l 1775 3626 l 1789 4018 l 1836 4443 l 1917 4902 l 2016 5365 l 2080 5722 l 2094 5944 l 2059 6032 l 1974 5985 l 1839 5803 l 1655 5486 l 4448 11286 l 1211 19358 l 2422 4840" class="C1"/><path d="M 475102 690958 l -21193 73400 l -1034 4793 l -542 3680 l -69 2853 l 385 2311 l 820 2056 l 1236 2087 l 1634 2404 l 2012 3006 l 2359 3814 l 2621 4504 l 2787 4996 l 2855 5289 l 2827 5383 l 2702 5279 l 2479 4977 l 2160 4476 l 1765 3851 l 1382 3399 l 1032 3196 l 715 3241 l 431 3534 l 181 4075 l -37 4864 l -222 5902 l -375 7095 l -505 8073 l -614 8744 l -701 9108 l -768 9165 l -812 8914 l -836 8357 l -838 7492 l -827 6392 l -829 5348 l -853 4431 l -898 3642 l -964 2980 l -1051 2446 l -1160 2039 l -1290 1760 l -1509 1588 l -2086 1440 l -3089 1293 l -4518 1149 l -6372 1007 l -8652 868 l -11358 731 l -14490 596 l -17830 461 l -20507 314 l -22305 154 l -23222 -21 l -23260 -210 l -22418 -414 l -20696 -631 l -18095 -863 l -14832 -1112 l -11785 -1393 l -9174 -1710 l -6998 -2062 l -5257 -2449 l -3952 -2872 l -3081 -3331 l -2646 -3825 l -2567 -4394 l -2529 -5200 l -2454 -6282 l -2340 -7641 l -2189 -9276 l -1999 -11188 l -1772 -13376 l -1507 -15841 l -1211 -18419 l -911 -20461 l -613 -21803 l -317 -22446 l -24 -22389 l 267 -21633 l 555 -20178 l 842 -18022 l 1131 -15335 l 1446 -12785 l 1791 -10541 l 2167 -8600 l 2574 -6965 l 3011 -5635 l 3480 -4609 l 3979 -3888 l 4543 -3426 l 5307 -3036 l 6305 -2672 l 7537 -2334 l 9004 -2022 l 10704 -1736 l 12639 -1477 l 14808 -1243 l 17068 -1026 l 18849 -789 l 20008 -525 l 20545 -232 l 20460 90 l 19753 440 l 18424 818 l 16472 1224 l 14040 1654 l 11694 2086 l 9575 2516 l 7682 2944 l 6017 3369 l 4579 3792 l 3368 4213 l 2384 4631 l 1599 5051 l 902 5485 l 263 5939 l -317 6412 l -837 6903 l -1298 7414 l -1700 7943 l -2043 8491 l -2320 9014 l -2505 9336 l -2590 9411 l -2576 9241 l -2462 8825 l -2249 8164 l -1937 7256 l -6975 21025 l 6055 -1210" class="C1"/><path d="M 426661 682489 l 14129 76627 l 933 5416 l 701 4260 l 502 3272 l 337 2452 l 204 1800 l 105 1316 l 39 999 l 6 850 l -6 857 l -39 968 l -105 1171 l -204 1466 l -337 1854 l -502 2334 l -701 2905 l -933 3569 l -1181 4289 l -1383 4918 l -1520 5419 l -1593 5792 l -1602 6038 l -1548 6156 l -1430 6146 l -1248 6009 l -1019 5773 l -816 5551 l -655 5371 l -537 5234 l -461 5140 l -428 5088 l -438 5078 l -490 5111 l -577 5166 l -669 5162 l -759 5077 l -846 4911 l -932 4666 l -1014 4339 l -1095 3933 l -1173 3446 l -1269 2904 l -1465 2405 l -1782 1975 l -2220 1614 l -2778 1321 l -3457 1096 l -4256 940 l -5176 853 l -6181 817 l -7127 768 l -7979 687 l -8736 576 l -9398 434 l -9966 262 l -10439 59 l -10817 -175 l -11082 -428 l -11158 -653 l -11025 -837 l -10685 -981 l -10136 -1085 l -9379 -1149 l -8414 -1172 l -7241 -1156 l -5923 -1111 l -4712 -1082 l -3671 -1082 l -2801 -1111 l -2100 -1167 l -1571 -1252 l -1211 -1366 l -1022 -1508 l -973 -1738 l -942 -2298 l -899 -3248 l -845 -4588 l -779 -6318 l -701 -8437 l -611 -10947 l -509 -13846 l -397 -16931 l -284 -19384 l -170 -21001 l -57 -21781 l 57 -21724 l 170 -20831 l 284 -19101 l 397 -16534 l 511 -13341 l 627 -10356 l 745 -7790 l 866 -5642 l 989 -3912 l 1114 -2601 l 1242 -1707 l 1372 -1232 l 1548 -1105 l 1943 -1041 l 2601 -970 l 3521 -892 l 4703 -807 l 6149 -715 l 7856 -616 l 9827 -509 l 11925 -397 l 13611 -281 l 14751 -163 l 15345 -42 l 15392 81 l 14893 206 l 13848 334 l 12256 464 l 10249 596 l 8352 733 l 6696 875 l 5282 1022 l 4109 1173 l 3177 1329 l 2486 1490 l 2037 1655 l 1795 1844 l 1630 2132 l 1507 2539 l 1426 3063 l 1388 3706 l 1393 4467 l 1440 5346 l 1530 6343 l 1647 7388 l 1730 8199 l 1763 8704 l 1747 8905 l 1681 8801 l 1565 8392 l 1399 7679 l 4010 20776 l 0 6049 l 0 7259" class="C1"/><path d="M 441193 682489 l 4239 79652 l 350 5633 l 293 4532 l 237 3709 l 180 3166 l 123 2901 l 66 2915 l 9 3208 l -47 3780 l -104 4574 l -158 5363 l -210 6091 l -260 6758 l -307 7363 l -352 7906 l -395 8388 l -435 8809 l -473 9146 l -514 9311 l -556 9283 l -601 9061 l -648 8645 l -698 8035 l -750 7232 l -805 6235 l -865 5101 l -945 4061 l -1049 3173 l -1177 2436 l -1329 1850 l -1504 1415 l -1702 1131 l -1925 999 l -2183 990 l -2526 992 l -2966 978 l -3503 947 l -4137 900 l -4867 836 l -5695 756 l -6620 659 l -7607 547 l -8515 424 l -9310 291 l -9991 150 l -10559 -2 l -11013 -162 l -11353 -332 l -11580 -512 l -11682 -695 l -11608 -858 l -11348 -995 l -10901 -1106 l -10267 -1191 l -9447 -1250 l -8439 -1284 l -7245 -1291 l -5923 -1280 l -4714 -1287 l -3678 -1321 l -2815 -1380 l -2124 -1465 l -1606 -1576 l -1261 -1713 l -1088 -1876 l -1057 -2126 l -1043 -2705 l -1015 -3673 l -972 -5032 l -915 -6781 l -844 -8919 l -759 -11448 l -660 -14366 l -548 -17469 l -427 -19931 l -299 -21547 l -164 -22318 l -22 -22242 l 127 -21320 l 283 -19553 l 446 -16939 l 615 -13692 l 788 -10660 l 963 -8056 l 1140 -5880 l 1320 -4131 l 1502 -2810 l 1687 -1917 l 1874 -1451 l 2107 -1341 l 2564 -1293 l 3287 -1237 l 4278 -1171 l 5537 -1095 l 7062 -1010 l 8855 -915 l 10915 -811 l 13103 -696 l 14858 -564 l 16041 -413 l 16651 -243 l 16689 -54 l 16154 154 l 15047 381 l 13368 627 l 11253 886 l 9249 1137 l 7494 1373 l 5988 1595 l 4729 1803 l 3719 1997 l 2958 2176 l 2445 2342 l 2142 2515 l 1901 2784 l 1683 3172 l 1489 3678 l 1319 4302 l 1172 5044 l 1049 5904 l 950 6882 l 871 7907 l 797 8694 l 727 9172 l 658 9339 l 592 9198 l 528 8746 l 466 7985 l 1013 21635 l 1211 6049" class="C1"/><path d="M 459359 682489 l -8881 74812 l -515 5366 l -349 4253 l -207 3294 l -89 2488 l 6 1836 l 76 1337 l 124 992 l 147 801 l 155 756 l 179 829 l 226 1013 l 297 1309 l 392 1715 l 510 2233 l 652 2861 l 818 3601 l 995 4402 l 1137 5063 l 1232 5536 l 1279 5819 l 1279 5914 l 1232 5819 l 1137 5536 l 995 5063 l 815 4467 l 635 4006 l 465 3746 l 304 3687 l 153 3829 l 11 4171 l -121 4715 l -244 5459 l -359 6328 l -468 7016 l -572 7446 l -671 7618 l -766 7533 l -855 7190 l -941 6590 l -1021 5732 l -1099 4684 l -1187 3716 l -1286 2893 l -1397 2217 l -1520 1688 l -1655 1305 l -1802 1069 l -1960 979 l -2151 1007 l -2456 1041 l -2896 1050 l -3471 1036 l -4181 998 l -5025 937 l -6004 851 l -7118 743 l -8322 614 l -9436 479 l -10416 342 l -11260 203 l -11970 61 l -12544 -83 l -12984 -230 l -13289 -378 l -13446 -529 l -13396 -675 l -13126 -817 l -12637 -954 l -11927 -1086 l -10997 -1214 l -9848 -1337 l -8478 -1455 l -6958 -1569 l -5562 -1683 l -4361 -1796 l -3353 -1909 l -2540 -2023 l -1920 -2136 l -1494 -2250 l -1262 -2363 l -1192 -2504 l -1152 -2780 l -1109 -3220 l -1064 -3822 l -1017 -4588 l -967 -5517 l -915 -6608 l -861 -7863 l -802 -9231 l -734 -10509 l -653 -11648 l -561 -12648 l -457 -13508 l -341 -14228 l -213 -14810 l -74 -15252 l 74 -15532 l 216 -15560 l 348 -15314 l 471 -14794 l 585 -14000 l 689 -12932 l 784 -11590 l 869 -9974 l 950 -8169 l 1049 -6517 l 1172 -5104 l 1319 -3929 l 1489 -2994 l 1683 -2297 l 1901 -1838 l 2142 -1618 l 2445 -1595 l 2961 -1600 l 3727 -1590 l 4744 -1567 l 6012 -1529 l 7530 -1477 l 9300 -1411 l 11320 -1330 l 13461 -1233 l 15209 -1105 l 16434 -944 l 17137 -751 l 17317 -524 l 16974 -264 l 16108 29 l 14720 355 l 12922 704 l 11169 1032 l 9575 1330 l 8139 1597 l 6862 1833 l 5743 2039 l 4783 2214 l 3981 2358 l 3322 2472 l 2743 2560 l 2227 2621 l 1775 2656 l 1387 2666 l 1063 2649 l 803 2607 l 607 2538 l 463 2473 l 326 2530 l 184 2738 l 37 3097 l -114 3608 l -270 4269 l -431 5082 l -597 6046 l -759 7087 l -884 7905 l -965 8424 l -1000 8647 l -991 8571 l -936 8198 l -837 7526 l -2711 20068 l 1211 7259 l 1211 4840" class="C1"/><path d="M 425354 800497 l -1196 9982" class="C1"/><path d="M 424159 810479 l 8388 -6389" class="C1"/><path d="M 432547 808880 l 1425 10440" class="C1"/><path d="M 433972 819320 l 6966 -8443" class="C1"/><path d="M 442936 814469 l 2566 9952" class="C1"/><path d="M 445502 824421 l 5026 -9154" class="C1"/><path d="M 452925 809679 l 5782 8515" class="C1"/><path d="M 458707 818194 l 1410 -9314" class="C1"/><path d="M 464513 805288 l 7410 6490" class="C1"/><path d="M 471923 811778 l -217 -10882" class="C1"/><path d="M 515952 211452 l 1699 -1223 -4518 -4487 Z" class="C2"/><path d="M 516802 210841 l 57986 80600" class="C1"/><path d="M 603960 263566 l -3804 0 l -667 1550 q -246 572 -246 855 q 0 225 214 395 q 214 170 924 221 l 0 268 l -3094 0 l 0 -268 q 616 -109 797 -283 q 370 -348 819 -1413 l 3456 -8086 l 254 0 l 3420 8173 q 413 985 750 1279 q 337 293 938 330 l 0 268 l -3876 0 l 0 -268 q 587 -29 793 -196 q 206 -167 206 -406 q 0 -319 -290 -1007 l -594 -1413 m -203 -536 l -1666 -3970 l -1710 3970 l 3376 0 Z M 613988 264334 q -268 1311 -1051 2018 q -782 706 -1732 706 q -1130 0 -1971 -949 q -840 -949 -840 -2565 q 0 -1565 931 -2543 q 931 -978 2235 -978 q 978 0 1608 518 q 630 518 630 1076 q 0 275 -178 446 q -178 170 -496 170 q -427 0 -645 -275 q -123 -152 -163 -580 q -40 -427 -293 -652 q -254 -217 -703 -217 q -725 0 -1166 536 q -587 710 -587 1877 q 0 1188 583 2098 q 583 909 1576 909 q 710 0 1275 -485 q 398 -333 775 -1210 l 210 101 Z M 620574 264334 q -268 1311 -1051 2018 q -782 706 -1732 706 q -1130 0 -1971 -949 q -840 -949 -840 -2565 q 0 -1565 931 -2543 q 931 -978 2235 -978 q 978 0 1608 518 q 630 518 630 1076 q 0 275 -178 446 q -178 170 -496 170 q -427 0 -645 -275 q -123 -152 -163 -580 q -40 -427 -293 -652 q -254 -217 -703 -217 q -725 0 -1166 536 q -587 710 -587 1877 q 0 1188 583 2098 q 583 909 1576 909 q 710 0 1275 -485 q 398 -333 775 -1210 l 210 101 Z M 623211 256553 q 304 0 518 214 q 214 214 214 518 q 0 304 -214 522 q -214 217 -518 217 q -304 0 -522 -217 q -217 -217 -217 -522 q 0 -304 214 -518 q 214 -214 525 -214 m 601 3470 l 0 5333 q 0 623 91 830 q 91 206 268 308 q 178 101 648 101 l 0 261 l -3224 0 l 0 -261 q 485 0 652 -94 q 167 -94 264 -312 q 98 -217 98 -833 l 0 -2558 q 0 -1080 -65 -1398 q -51 -232 -159 -322 q -109 -91 -297 -91 q -203 0 -493 109 l -101 -261 l 2000 -811 l 319 0 Z M 629406 265899 q -1022 790 -1282 913 q -391 181 -833 181 q -688 0 -1134 -471 q -446 -471 -446 -1239 q 0 -485 217 -840 q 297 -493 1032 -927 q 735 -435 2445 -1058 l 0 -261 q 0 -993 -315 -1362 q -315 -370 -917 -370 q -456 0 -725 246 q -275 246 -275 565 l 14 420 q 0 333 -170 514 q -170 181 -446 181 q -268 0 -438 -188 q -170 -188 -170 -514 q 0 -623 638 -1145 q 638 -522 1790 -522 q 884 0 1449 297 q 427 225 630 703 q 130 312 130 1275 l 0 2253 q 0 949 36 1163 q 36 214 120 286 q 83 72 192 72 q 116 0 203 -51 q 152 -94 587 -529 l 0 406 q -811 1087 -1550 1087 q -355 0 -565 -246 q -210 -246 -217 -840 m 0 -471 l 0 -2529 q -1094 435 -1413 616 q -572 319 -819 667 q -246 348 -246 761 q 0 522 312 866 q 312 344 717 344 q 551 0 1449 -725 Z M 633919 256553 q 304 0 518 214 q 214 214 214 518 q 0 304 -214 522 q -214 217 -518 217 q -304 0 -522 -217 q -217 -217 -217 -522 q 0 -304 214 -518 q 214 -214 525 -214 m 601 3470 l 0 5333 q 0 623 91 830 q 91 206 268 308 q 178 101 648 101 l 0 261 l -3224 0 l 0 -261 q 485 0 652 -94 q 167 -94 264 -312 q 98 -217 98 -833 l 0 -2558 q 0 -1080 -65 -1398 q -51 -232 -159 -322 q -109 -91 -297 -91 q -203 0 -493 109 l -101 -261 l 2000 -811 l 319 0 Z M 639600 260023 q 1507 0 2420 1145 q 775 978 775 2246 q 0 891 -427 1804 q -427 913 -1177 1377 q -750 464 -1670 464 q -1500 0 -2384 -1195 q -746 -1007 -746 -2261 q 0 -913 453 -1815 q 453 -902 1192 -1333 q 739 -431 1565 -431 m -225 471 q -384 0 -772 228 q -388 228 -627 801 q -239 572 -239 1471 q 0 1449 576 2500 q 576 1051 1518 1051 q 703 0 1159 -580 q 456 -580 456 -1992 q 0 -1768 -761 -2782 q -514 -696 -1311 -696 Z M 651598 266587 l 0 268 l -4210 0 l 0 -268 l 348 0 q 609 0 884 -355 q 174 -232 174 -1116 l 0 -6347 q 0 -746 -94 -985 q -72 -181 -297 -312 q -319 -174 -667 -174 l -348 0 l 0 -268 l 4210 0 l 0 268 l -355 0 q -601 0 -877 355 q -181 232 -181 1116 l 0 6347 q 0 746 94 985 q 72 181 304 312 q 312 174 659 174 l 355 0 Z M 651764 257031 l 2666 0 l 6006 7368 l 0 -5666 q 0 -906 -203 -1130 q -268 -304 -848 -304 l -341 0 l 0 -268 l 3420 0 l 0 268 l -348 0 q -623 0 -884 377 q -159 232 -159 1058 l 0 8281 l -261 0 l -6477 -7912 l 0 6050 q 0 906 196 1130 q 275 304 848 304 l 348 0 l 0 268 l -3420 0 l 0 -268 l 341 0 q 630 0 891 -377 q 159 -232 159 -1058 l 0 -6832 q -427 -500 -648 -659 q -221 -159 -648 -297 q -210 -65 -638 -65 l 0 -268 Z M 668103 256806 q 1913 0 3315 1453 q 1402 1453 1402 3626 q 0 2239 -1413 3717 q -1413 1478 -3420 1478 q -2029 0 -3409 -1442 q -1380 -1442 -1380 -3731 q 0 -2340 1594 -3818 q 1384 -1282 3311 -1282 m -138 529 q -1319 0 -2116 978 q -993 1217 -993 3565 q 0 2405 1029 3702 q 790 985 2087 985 q 1384 0 2286 -1080 q 902 -1080 902 -3405 q 0 -2521 -993 -3760 q -797 -985 -2203 -985 Z M 679449 261414 l 2108 3144 q 877 1304 1301 1648 q 424 344 1076 380 l 0 268 l -4217 0 l 0 -268 q 420 -7 623 -87 q 152 -65 250 -199 q 98 -134 98 -272 q 0 -167 -65 -333 q -51 -123 -398 -638 l -1666 -2521 l -2058 2637 q -326 420 -391 562 q -65 141 -65 293 q 0 232 196 384 q 196 152 746 174 l 0 268 l -3485 0 l 0 -268 q 370 -36 638 -152 q 449 -188 855 -507 q 406 -319 927 -978 l 2318 -2927 l -1934 -2833 q -790 -1152 -1340 -1511 q -551 -359 -1268 -380 l 0 -268 l 4543 0 l 0 268 q -580 22 -793 188 q -214 167 -214 370 q 0 268 348 782 l 1507 2253 l 1746 -2210 q 304 -391 373 -536 q 69 -145 69 -297 q 0 -152 -87 -268 q -109 -152 -275 -214 q -167 -62 -688 -69 l 0 -268 l 3485 0 l 0 268 q -413 22 -674 130 q -391 167 -717 449 q -326 283 -920 1043 l -1949 2492 Z" class="C2"/><path d="M 583736 286824 l 0 268 q -1094 -551 -1826 -1290 q -1043 -1051 -1608 -2478 q -565 -1427 -565 -2963 q 0 -2246 1109 -4097 q 1109 -1851 2891 -2648 l 0 304 q -891 493 -1464 1348 q -572 855 -855 2166 q -283 1311 -283 2739 q 0 1550 239 2818 q 188 1000 456 1605 q 268 605 721 1163 q 453 558 1185 1065 Z M 586468 278491 q 1166 -1406 2224 -1406 q 543 0 935 272 q 391 272 623 895 q 159 435 159 1333 l 0 2833 q 0 630 101 855 q 80 181 257 283 q 178 101 656 101 l 0 261 l -3282 0 l 0 -261 l 138 0 q 464 0 648 -141 q 185 -141 257 -417 q 29 -109 29 -681 l 0 -2717 q 0 -906 -235 -1315 q -235 -409 -793 -409 q -862 0 -1717 942 l 0 3499 q 0 674 80 833 q 101 210 279 308 q 178 98 721 98 l 0 261 l -3282 0 l 0 -261 l 145 0 q 507 0 685 -257 q 178 -257 178 -982 l 0 -2463 q 0 -1195 -54 -1456 q -54 -261 -167 -355 q -112 -94 -301 -94 q -203 0 -485 109 l -109 -261 l 2000 -811 l 312 0 l 0 1406 Z M 595198 277086 q 1507 0 2420 1145 q 775 978 775 2246 q 0 891 -427 1804 q -427 913 -1177 1377 q -750 464 -1670 464 q -1500 0 -2384 -1195 q -746 -1007 -746 -2261 q 0 -913 453 -1815 q 453 -902 1192 -1333 q 739 -431 1565 -431 m -225 471 q -384 0 -772 228 q -388 228 -627 801 q -239 572 -239 1471 q 0 1449 576 2500 q 576 1051 1518 1051 q 703 0 1159 -580 q 456 -580 456 -1992 q 0 -1768 -761 -2782 q -514 -696 -1311 -696 Z M 601306 278491 q 1166 -1406 2224 -1406 q 543 0 935 272 q 391 272 623 895 q 159 435 159 1333 l 0 2833 q 0 630 101 855 q 80 181 257 283 q 178 101 656 101 l 0 261 l -3282 0 l 0 -261 l 138 0 q 464 0 648 -141 q 185 -141 257 -417 q 29 -109 29 -681 l 0 -2717 q 0 -906 -235 -1315 q -235 -409 -793 -409 q -862 0 -1717 942 l 0 3499 q 0 674 80 833 q 101 210 279 308 q 178 98 721 98 l 0 261 l -3282 0 l 0 -261 l 145 0 q 507 0 685 -257 q 178 -257 178 -982 l 0 -2463 q 0 -1195 -54 -1456 q -54 -261 -167 -355 q -112 -94 -301 -94 q -203 0 -485 109 l -109 -261 l 2000 -811 l 312 0 l 0 1406 Z M 613094 277803 l 0 4362 q 0 927 203 1174 q 268 319 717 319 l 601 0 l 0 261 l -3963 0 l 0 -261 l 297 0 q 290 0 529 -145 q 239 -145 330 -391 q 91 -246 91 -956 l 0 -4362 l -1290 0 l 0 -522 l 1290 0 l 0 -435 q 0 -993 319 -1681 q 319 -688 974 -1112 q 656 -424 1474 -424 q 761 0 1398 493 q 420 326 420 732 q 0 217 -188 409 q -188 192 -406 192 q -167 0 -351 -120 q -185 -120 -453 -514 q -268 -395 -493 -533 q -225 -138 -500 -138 q -333 0 -565 178 q -232 178 -333 551 q -101 373 -101 1924 l 0 478 l 1710 0 l 0 522 l -1710 0 Z M 616557 279781 q -7 1478 717 2318 q 725 840 1703 840 q 652 0 1134 -359 q 482 -359 808 -1228 l 225 145 q -152 993 -884 1808 q -732 815 -1833 815 q -1195 0 -2047 -931 q -851 -931 -851 -2503 q 0 -1703 873 -2655 q 873 -953 2192 -953 q 1116 0 1833 735 q 717 735 717 1967 l -4586 0 m 0 -420 l 3072 0 q -36 -638 -152 -898 q -181 -406 -540 -638 q -359 -232 -750 -232 q -601 0 -1076 467 q -475 467 -554 1301 Z M 623969 277086 l 0 1493 q 833 -1493 1710 -1493 q 398 0 659 243 q 261 243 261 562 q 0 283 -188 478 q -188 196 -449 196 q -254 0 -569 -250 q -315 -250 -467 -250 q -130 0 -283 145 q -326 297 -674 978 l 0 3181 q 0 551 138 833 q 94 196 333 326 q 239 130 688 130 l 0 261 l -3398 0 l 0 -261 q 507 0 754 -159 q 181 -116 254 -370 q 36 -123 36 -703 l 0 -2572 q 0 -1159 -47 -1380 q -47 -221 -174 -322 q -127 -101 -315 -101 q -225 0 -507 109 l -72 -261 l 2007 -811 l 304 0 Z M 628911 277086 l 0 1493 q 833 -1493 1710 -1493 q 398 0 659 243 q 261 243 261 562 q 0 283 -188 478 q -188 196 -449 196 q -254 0 -569 -250 q -315 -250 -467 -250 q -130 0 -283 145 q -326 297 -674 978 l 0 3181 q 0 551 138 833 q 94 196 333 326 q 239 130 688 130 l 0 261 l -3398 0 l 0 -261 q 507 0 754 -159 q 181 -116 254 -370 q 36 -123 36 -703 l 0 -2572 q 0 -1159 -47 -1380 q -47 -221 -174 -322 q -127 -101 -315 -101 q -225 0 -507 109 l -72 -261 l 2007 -811 l 304 0 Z M 635156 277086 q 1507 0 2420 1145 q 775 978 775 2246 q 0 891 -427 1804 q -427 913 -1177 1377 q -750 464 -1670 464 q -1500 0 -2384 -1195 q -746 -1007 -746 -2261 q 0 -913 453 -1815 q 453 -902 1192 -1333 q 739 -431 1565 -431 m -225 471 q -384 0 -772 228 q -388 228 -627 801 q -239 572 -239 1471 q 0 1449 576 2500 q 576 1051 1518 1051 q 703 0 1159 -580 q 456 -580 456 -1992 q 0 -1768 -761 -2782 q -514 -696 -1311 -696 Z M 641300 278499 q 725 -725 855 -833 q 326 -275 703 -427 q 377 -152 746 -152 q 623 0 1072 362 q 449 362 601 1051 q 746 -869 1261 -1141 q 514 -272 1058 -272 q 529 0 938 272 q 409 272 648 888 q 159 420 159 1319 l 0 2855 q 0 623 94 855 q 72 159 268 272 q 196 112 638 112 l 0 261 l -3275 0 l 0 -261 l 138 0 q 427 0 667 -167 q 167 -116 239 -370 q 29 -123 29 -703 l 0 -2855 q 0 -811 -196 -1145 q -283 -464 -906 -464 q -384 0 -772 192 q -388 192 -938 714 l -14 80 l 14 312 l 0 3166 q 0 681 76 848 q 76 167 286 279 q 210 112 717 112 l 0 261 l -3355 0 l 0 -261 q 551 0 757 -130 q 206 -130 286 -391 q 36 -123 36 -717 l 0 -2855 q 0 -811 -239 -1166 q -319 -464 -891 -464 q -391 0 -775 210 q -601 319 -927 717 l 0 3557 q 0 652 91 848 q 91 196 268 293 q 178 98 721 98 l 0 261 l -3282 0 l 0 -261 q 456 0 638 -98 q 181 -98 275 -312 q 94 -214 94 -830 l 0 -2536 q 0 -1094 -65 -1413 q -51 -239 -159 -330 q -109 -91 -297 -91 q -203 0 -485 109 l -109 -261 l 2000 -811 l 312 0 l 0 1413 Z M 654631 282962 q -1022 790 -1282 913 q -391 181 -833 181 q -688 0 -1134 -471 q -446 -471 -446 -1239 q 0 -485 217 -840 q 297 -493 1032 -927 q 735 -435 2445 -1058 l 0 -261 q 0 -993 -315 -1362 q -315 -370 -917 -370 q -456 0 -725 246 q -275 246 -275 565 l 14 420 q 0 333 -170 514 q -170 181 -446 181 q -268 0 -438 -188 q -170 -188 -170 -514 q 0 -623 638 -1145 q 638 -522 1790 -522 q 884 0 1449 297 q 427 225 630 703 q 130 312 130 1275 l 0 2253 q 0 949 36 1163 q 36 214 120 286 q 83 72 192 72 q 116 0 203 -51 q 152 -94 587 -529 l 0 406 q -811 1087 -1550 1087 q -355 0 -565 -246 q -210 -246 -217 -840 m 0 -471 l 0 -2529 q -1094 435 -1413 616 q -572 319 -819 667 q -246 348 -246 761 q 0 522 312 866 q 312 344 717 344 q 551 0 1449 -725 Z M 659232 281498 q -609 -297 -935 -830 q -326 -533 -326 -1177 q 0 -985 743 -1695 q 743 -710 1902 -710 q 949 0 1645 464 l 1406 0 q 312 0 362 18 q 51 18 72 62 q 43 65 43 232 q 0 188 -36 261 q -22 36 -76 58 q -54 22 -366 22 l -862 0 q 406 522 406 1333 q 0 927 -710 1587 q -710 659 -1906 659 q -493 0 -1007 -145 q -319 275 -431 482 q -112 206 -112 351 q 0 123 120 239 q 120 116 467 167 q 203 29 1014 51 q 1493 36 1934 101 q 674 94 1076 500 q 402 406 402 1000 q 0 819 -768 1536 q -1130 1058 -2949 1058 q -1398 0 -2362 -630 q -543 -362 -543 -754 q 0 -174 80 -348 q 123 -268 507 -746 q 51 -65 739 -782 q -377 -225 -533 -402 q -156 -178 -156 -402 q 0 -254 206 -594 q 206 -341 953 -964 m 1261 -4065 q -536 0 -898 427 q -362 427 -362 1311 q 0 1145 493 1775 q 377 478 956 478 q 551 0 906 -413 q 355 -413 355 -1297 q 0 -1152 -500 -1804 q -370 -478 -949 -478 m -1333 6485 q -341 370 -514 688 q -174 319 -174 587 q 0 348 420 609 q 725 449 2094 449 q 1304 0 1924 -460 q 619 -460 619 -982 q 0 -377 -370 -536 q -377 -159 -1493 -188 q -1630 -43 -2507 -167 Z M 666811 278491 q 1166 -1406 2224 -1406 q 543 0 935 272 q 391 272 623 895 q 159 435 159 1333 l 0 2833 q 0 630 101 855 q 80 181 257 283 q 178 101 656 101 l 0 261 l -3282 0 l 0 -261 l 138 0 q 464 0 648 -141 q 185 -141 257 -417 q 29 -109 29 -681 l 0 -2717 q 0 -906 -235 -1315 q -235 -409 -793 -409 q -862 0 -1717 942 l 0 3499 q 0 674 80 833 q 101 210 279 308 q 178 98 721 98 l 0 261 l -3282 0 l 0 -261 l 145 0 q 507 0 685 -257 q 178 -257 178 -982 l 0 -2463 q 0 -1195 -54 -1456 q -54 -261 -167 -355 q -112 -94 -301 -94 q -203 0 -485 109 l -109 -261 l 2000 -811 l 312 0 l 0 1406 Z M 673411 279781 q -7 1478 717 2318 q 725 840 1703 840 q 652 0 1134 -359 q 482 -359 808 -1228 l 225 145 q -152 993 -884 1808 q -732 815 -1833 815 q -1195 0 -2047 -931 q -851 -931 -851 -2503 q 0 -1703 873 -2655 q 873 -953 2192 -953 q 1116 0 1833 735 q 717 735 717 1967 l -4586 0 m 0 -420 l 3072 0 q -36 -638 -152 -898 q -181 -406 -540 -638 q -359 -232 -750 -232 q -601 0 -1076 467 q -475 467 -554 1301 Z M 680809 275101 l 0 2181 l 1550 0 l 0 507 l -1550 0 l 0 4304 q 0 645 185 869 q 185 225 475 225 q 239 0 464 -149 q 225 -149 348 -438 l 283 0 q -254 710 -717 1069 q -464 359 -956 359 q -333 0 -652 -185 q -319 -185 -471 -529 q -152 -344 -152 -1061 l 0 -4463 l -1051 0 l 0 -239 q 398 -159 815 -540 q 417 -380 743 -902 q 167 -275 464 -1007 l 225 0 Z M 684692 273615 q 304 0 518 214 q 214 214 214 518 q 0 304 -214 522 q -214 217 -518 217 q -304 0 -522 -217 q -217 -217 -217 -522 q 0 -304 214 -518 q 214 -214 525 -214 m 601 3470 l 0 5333 q 0 623 91 830 q 91 206 268 308 q 178 101 648 101 l 0 261 l -3224 0 l 0 -261 q 485 0 652 -94 q 167 -94 264 -312 q 98 -217 98 -833 l 0 -2558 q 0 -1080 -65 -1398 q -51 -232 -159 -322 q -109 -91 -297 -91 q -203 0 -493 109 l -101 -261 l 2000 -811 l 319 0 Z M 692763 281397 q -268 1311 -1051 2018 q -782 706 -1732 706 q -1130 0 -1971 -949 q -840 -949 -840 -2565 q 0 -1565 931 -2543 q 931 -978 2235 -978 q 978 0 1608 518 q 630 518 630 1076 q 0 275 -178 446 q -178 170 -496 170 q -427 0 -645 -275 q -123 -152 -163 -580 q -40 -427 -293 -652 q -254 -217 -703 -217 q -725 0 -1166 536 q -587 710 -587 1877 q 0 1188 583 2098 q 583 909 1576 909 q 710 0 1275 -485 q 398 -333 775 -1210 l 210 101 Z M 696958 277086 q 1507 0 2420 1145 q 775 978 775 2246 q 0 891 -427 1804 q -427 913 -1177 1377 q -750 464 -1670 464 q -1500 0 -2384 -1195 q -746 -1007 -746 -2261 q 0 -913 453 -1815 q 453 -902 1192 -1333 q 739 -431 1565 -431 m -225 471 q -384 0 -772 228 q -388 228 -627 801 q -239 572 -239 1471 q 0 1449 576 2500 q 576 1051 1518 1051 q 703 0 1159 -580 q 456 -580 456 -1992 q 0 -1768 -761 -2782 q -514 -696 -1311 -696 Z M 701001 273920 l 0 -304 q 1101 543 1833 1282 q 1036 1058 1601 2482 q 565 1424 565 2967 q 0 2246 -1105 4097 q -1105 1851 -2894 2648 l 0 -268 q 891 -500 1467 -1351 q 576 -851 855 -2166 q 279 -1315 279 -2742 q 0 -1543 -239 -2818 q -181 -1000 -453 -1601 q -272 -601 -721 -1159 q -449 -558 -1188 -1065 Z" class="C2"/><path d="M 574788 291441 l 135949 0" class="C1"/><path d="M 101127 665644 l -1872 937 3747 5148 Z" class="C2"/><path d="M 100191 666113 l -21314 -42589" class="C1"/><path d="M 78877 623524 l -78809 0" class="C1"/><path d="M 16760 599679 l -2623 0 l -3326 -4594 q -370 14 -601 14 q -94 0 -203 -4 q -109 -4 -225 -11 l 0 2855 q 0 927 203 1152 q 275 319 826 319 l 384 0 l 0 268 l -4210 0 l 0 -268 l 370 0 q 623 0 891 -406 q 152 -225 152 -1065 l 0 -6347 q 0 -927 -203 -1152 q -283 -319 -840 -319 l -370 0 l 0 -268 l 3579 0 q 1565 0 2308 228 q 743 228 1261 840 q 518 612 518 1460 q 0 906 -590 1572 q -590 667 -1829 942 l 2029 2818 q 696 971 1195 1290 q 500 319 1304 406 l 0 268 m -6977 -5050 q 138 0 239 4 q 101 4 167 4 q 1406 0 2119 -609 q 714 -609 714 -1550 q 0 -920 -576 -1496 q -576 -576 -1525 -576 q -420 0 -1138 138 l 0 4086 Z M 20339 592847 q 1507 0 2420 1145 q 775 978 775 2246 q 0 891 -427 1804 q -427 913 -1177 1377 q -750 464 -1670 464 q -1500 0 -2384 -1195 q -746 -1007 -746 -2261 q 0 -913 453 -1815 q 453 -902 1192 -1333 q 739 -431 1565 -431 m -225 471 q -384 0 -772 228 q -388 228 -627 801 q -239 572 -239 1471 q 0 1449 576 2500 q 576 1051 1518 1051 q 703 0 1159 -580 q 456 -580 456 -1992 q 0 -1768 -761 -2782 q -514 -696 -1311 -696 Z M 30149 597158 q -268 1311 -1051 2018 q -782 706 -1732 706 q -1130 0 -1971 -949 q -840 -949 -840 -2565 q 0 -1565 931 -2543 q 931 -978 2235 -978 q 978 0 1608 518 q 630 518 630 1076 q 0 275 -178 446 q -178 170 -496 170 q -427 0 -645 -275 q -123 -152 -163 -580 q -40 -427 -293 -652 q -254 -217 -703 -217 q -725 0 -1166 536 q -587 710 -587 1877 q 0 1188 583 2098 q 583 909 1576 909 q 710 0 1275 -485 q 398 -333 775 -1210 l 210 101 Z M 36735 597158 q -268 1311 -1051 2018 q -782 706 -1732 706 q -1130 0 -1971 -949 q -840 -949 -840 -2565 q 0 -1565 931 -2543 q 931 -978 2235 -978 q 978 0 1608 518 q 630 518 630 1076 q 0 275 -178 446 q -178 170 -496 170 q -427 0 -645 -275 q -123 -152 -163 -580 q -40 -427 -293 -652 q -254 -217 -703 -217 q -725 0 -1166 536 q -587 710 -587 1877 q 0 1188 583 2098 q 583 909 1576 909 q 710 0 1275 -485 q 398 -333 775 -1210 l 210 101 Z M 39633 589376 l 0 4854 q 804 -884 1275 -1134 q 471 -250 942 -250 q 565 0 971 312 q 406 312 601 978 q 138 464 138 1695 l 0 2347 q 0 630 101 862 q 72 174 246 275 q 174 101 638 101 l 0 261 l -3260 0 l 0 -261 l 152 0 q 464 0 645 -141 q 181 -141 254 -417 q 22 -116 22 -681 l 0 -2347 q 0 -1087 -112 -1427 q -112 -341 -359 -511 q -246 -170 -594 -170 q -355 0 -739 188 q -384 188 -920 761 l 0 3507 q 0 681 76 848 q 76 167 283 279 q 206 112 714 112 l 0 261 l -3289 0 l 0 -261 q 442 0 696 -138 q 145 -72 232 -275 q 87 -203 87 -826 l 0 -6006 q 0 -1138 -54 -1398 q -54 -261 -167 -355 q -112 -94 -301 -94 q -152 0 -493 116 l -101 -254 l 1985 -811 l 333 0 Z M 46219 595542 q -7 1478 717 2318 q 725 840 1703 840 q 652 0 1134 -359 q 482 -359 808 -1228 l 225 145 q -152 993 -884 1808 q -732 815 -1833 815 q -1195 0 -2047 -931 q -851 -931 -851 -2503 q 0 -1703 873 -2655 q 873 -953 2192 -953 q 1116 0 1833 735 q 717 735 717 1967 l -4586 0 m 0 -420 l 3072 0 q -36 -638 -152 -898 q -181 -406 -540 -638 q -359 -232 -750 -232 q -601 0 -1076 467 q -475 467 -554 1301 Z M 53616 590862 l 0 2181 l 1550 0 l 0 507 l -1550 0 l 0 4304 q 0 645 185 869 q 185 225 475 225 q 239 0 464 -149 q 225 -149 348 -438 l 283 0 q -254 710 -717 1069 q -464 359 -956 359 q -333 0 -652 -185 q -319 -185 -471 -529 q -152 -344 -152 -1061 l 0 -4463 l -1051 0 l 0 -239 q 398 -159 815 -540 q 417 -380 743 -902 q 167 -275 464 -1007 l 225 0 Z M 57739 590862 l 0 2181 l 1550 0 l 0 507 l -1550 0 l 0 4304 q 0 645 185 869 q 185 225 475 225 q 239 0 464 -149 q 225 -149 348 -438 l 283 0 q -254 710 -717 1069 q -464 359 -956 359 q -333 0 -652 -185 q -319 -185 -471 -529 q -152 -344 -152 -1061 l 0 -4463 l -1051 0 l 0 -239 q 398 -159 815 -540 q 417 -380 743 -902 q 167 -275 464 -1007 l 225 0 Z M 63180 592847 q 1507 0 2420 1145 q 775 978 775 2246 q 0 891 -427 1804 q -427 913 -1177 1377 q -750 464 -1670 464 q -1500 0 -2384 -1195 q -746 -1007 -746 -2261 q 0 -913 453 -1815 q 453 -902 1192 -1333 q 739 -431 1565 -431 m -225 471 q -384 0 -772 228 q -388 228 -627 801 q -239 572 -239 1471 q 0 1449 576 2500 q 576 1051 1518 1051 q 703 0 1159 -580 q 456 -580 456 -1992 q 0 -1768 -761 -2782 q -514 -696 -1311 -696 Z" class="C2"/><path d="M 11883 615996 q -485 507 -949 728 q -464 221 -1000 221 q -1087 0 -1898 -909 q -811 -909 -811 -2337 q 0 -1427 898 -2612 q 898 -1185 2311 -1185 q 877 0 1449 558 l 0 -1224 q 0 -1138 -54 -1398 q -54 -261 -170 -355 q -116 -94 -290 -94 q -188 0 -500 116 l -94 -254 l 1978 -811 l 326 0 l 0 7673 q 0 1166 54 1424 q 54 257 174 359 q 120 101 279 101 q 196 0 522 -123 l 80 254 l -1971 819 l -333 0 l 0 -949 m 0 -507 l 0 -3420 q -43 -493 -261 -898 q -217 -406 -576 -612 q -359 -206 -699 -206 q -638 0 -1138 572 q -659 754 -659 2203 q 0 1464 638 2242 q 638 779 1420 779 q 659 0 1275 -659 Z M 16303 606439 q 304 0 518 214 q 214 214 214 518 q 0 304 -214 522 q -214 217 -518 217 q -304 0 -522 -217 q -217 -217 -217 -522 q 0 -304 214 -518 q 214 -214 525 -214 m 601 3470 l 0 5333 q 0 623 91 830 q 91 206 268 308 q 178 101 648 101 l 0 261 l -3224 0 l 0 -261 q 485 0 652 -94 q 167 -94 264 -312 q 98 -217 98 -833 l 0 -2558 q 0 -1080 -65 -1398 q -51 -232 -159 -322 q -109 -91 -297 -91 q -203 0 -493 109 l -101 -261 l 2000 -811 l 319 0 Z M 26736 609910 l 0 2261 l -239 0 q -275 -1065 -706 -1449 q -431 -384 -1098 -384 q -507 0 -819 268 q -312 268 -312 594 q 0 406 232 696 q 225 297 913 630 l 1058 514 q 1471 717 1471 1891 q 0 906 -685 1460 q -685 554 -1532 554 q -609 0 -1391 -217 q -239 -72 -391 -72 q -167 0 -261 188 l -239 0 l 0 -2369 l 239 0 q 203 1014 775 1529 q 572 514 1282 514 q 500 0 815 -293 q 315 -293 315 -706 q 0 -500 -351 -840 q -351 -341 -1402 -862 q -1051 -522 -1377 -942 q -326 -413 -326 -1043 q 0 -819 562 -1369 q 562 -551 1453 -551 q 391 0 949 167 q 370 109 493 109 q 116 0 181 -51 q 65 -51 152 -225 l 239 0 Z M 27743 610764 l 2043 -826 l 275 0 l 0 1550 q 514 -877 1032 -1228 q 518 -351 1090 -351 q 1000 0 1666 782 q 819 956 819 2492 q 0 1717 -985 2840 q -811 920 -2043 920 q -536 0 -927 -152 q -290 -109 -652 -435 l 0 2021 q 0 681 83 866 q 83 185 290 293 q 206 109 750 109 l 0 268 l -3478 0 l 0 -268 l 181 0 q 398 7 681 -152 q 138 -80 214 -257 q 76 -178 76 -902 l 0 -6274 q 0 -645 -58 -819 q -58 -174 -185 -261 q -127 -87 -344 -87 q -174 0 -442 101 l -87 -232 m 2318 1152 l 0 2478 q 0 804 65 1058 q 101 420 496 739 q 395 319 996 319 q 725 0 1174 -565 q 587 -739 587 -2079 q 0 -1522 -667 -2340 q -464 -565 -1101 -565 q -348 0 -688 174 q -261 130 -862 782 Z M 37329 606439 q 304 0 518 214 q 214 214 214 518 q 0 304 -214 522 q -214 217 -518 217 q -304 0 -522 -217 q -217 -217 -217 -522 q 0 -304 214 -518 q 214 -214 525 -214 m 601 3470 l 0 5333 q 0 623 91 830 q 91 206 268 308 q 178 101 648 101 l 0 261 l -3224 0 l 0 -261 q 485 0 652 -94 q 167 -94 264 -312 q 98 -217 98 -833 l 0 -2558 q 0 -1080 -65 -1398 q -51 -232 -159 -322 q -109 -91 -297 -91 q -203 0 -493 109 l -101 -261 l 2000 -811 l 319 0 Z M 41705 609910 l 0 1493 q 833 -1493 1710 -1493 q 398 0 659 243 q 261 243 261 562 q 0 283 -188 478 q -188 196 -449 196 q -254 0 -569 -250 q -315 -250 -467 -250 q -130 0 -283 145 q -326 297 -674 978 l 0 3181 q 0 551 138 833 q 94 196 333 326 q 239 130 688 130 l 0 261 l -3398 0 l 0 -261 q 507 0 754 -159 q 181 -116 254 -370 q 36 -123 36 -703 l 0 -2572 q 0 -1159 -47 -1380 q -47 -221 -174 -322 q -127 -101 -315 -101 q -225 0 -507 109 l -72 -261 l 2007 -811 l 304 0 Z M 45820 612605 q -7 1478 717 2318 q 725 840 1703 840 q 652 0 1134 -359 q 482 -359 808 -1228 l 225 145 q -152 993 -884 1808 q -732 815 -1833 815 q -1195 0 -2047 -931 q -851 -931 -851 -2503 q 0 -1703 873 -2655 q 873 -953 2192 -953 q 1116 0 1833 735 q 717 735 717 1967 l -4586 0 m 0 -420 l 3072 0 q -36 -638 -152 -898 q -181 -406 -540 -638 q -359 -232 -750 -232 q -601 0 -1076 467 q -475 467 -554 1301 Z" class="C2"/></g></svg>