<?xml version='1.0' encoding='utf-8'?>
<svg xmlns="http://www.w3.org/2000/svg" width="129mm" height="784.5mm" viewBox="0 0 164436 1000000"><defs><style>.C1 {stroke: #000000; stroke-width: 319; stroke-opacity: 1.000; fill: none; fill-opacity: 1.000;}</style></defs><rect fill="#ffffff" x="0" y="0" width="164436" height="1000000" fill-opacity="1.0" /><g stroke-linecap="round" stroke-linejoin="round" fill-rule="evenodd"><path d="M 93053 648503 l -35691 0" class="C1" /><path d="M 49713 619185 l 50987 0" class="C1" /><path d="M 57362 652327 l 35691 0" class="C1" /><path d="M 86679 648503 l -22944 0" class="C1" /><path d="M 76482 644679 l -2549 0" class="C1" /><path d="M 99426 969408 l -48438 0" class="C1" /><path d="M 99426 966858 l -48438 0" class="C1" /><path d="M 100701 996176 l -50987 0" class="C1" /><path d="M 93053 966858 l -35691 0" class="C1" /><path d="M 93053 963034 l -35691 0" class="C1" /><path d="M 55947 969408 l 0 -2549" class="C1" /><path d="M 50988 969408 l 0 -2549" class="C1" /><path d="M 58971 969408 l 0 -2549" class="C1" /><path d="M 91444 969408 l 0 -2549" class="C1" /><path d="M 94468 969408 l 0 -2549" class="C1" /><path d="M 99426 969408 l 0 -2549" class="C1" /><path d="M 144116 652327 l 1199 1199" class="C1" /><path d="M 126945 652327 l 18370 18370" class="C1" /><path d="M 109775 652327 l 35540 35540" class="C1" /><path d="M 92604 652327 l 52711 52711" class="C1" /><path d="M 89229 666122 l 56086 56086" class="C1" /><path d="M 58263 652327 l 2922 2922" class="C1" /><path d="M 89229 683293 l 56086 56086" class="C1" /><path d="M 41093 652327 l 20093 20093" class="C1" /><path d="M 89229 700463 l 56086 56086" class="C1" /><path d="M 25494 653899 l 35691 35691" class="C1" /><path d="M 89229 717634 l 56086 56086" class="C1" /><path d="M 25494 671070 l 35691 35691" class="C1" /><path d="M 89229 734804 l 56086 56086" class="C1" /><path d="M 25494 688240 l 35691 35691" class="C1" /><path d="M 89229 751975 l 49144 49144" class="C1" /><path d="M 25494 705411 l 35691 35691" class="C1" /><path d="M 137540 817456 l 7775 7775" class="C1" /><path d="M 89229 769145 l 32453 32453" class="C1" /><path d="M 25494 722581 l 35691 35691" class="C1" /><path d="M 122037 819124 l 23278 23278" class="C1" /><path d="M 89229 786316 l 20486 20486" class="C1" /><path d="M 25494 739752 l 35691 35691" class="C1" /><path d="M 110069 824327 l 35246 35246" class="C1" /><path d="M 89229 803486 l 8519 8519" class="C1" /><path d="M 25494 756922 l 35691 35691" class="C1" /><path d="M 98058 829486 l 47257 47257" class="C1" /><path d="M 25494 774093 l 35691 35691" class="C1" /><path d="M 89229 837827 l 56086 56086" class="C1" /><path d="M 25494 791263 l 25250 25250" class="C1" /><path d="M 89229 854998 l 56086 56086" class="C1" /><path d="M 51262 834202 l 9924 9924" class="C1" /><path d="M 89229 872168 l 56086 56086" class="C1" /><path d="M 25494 825605 l 35691 35691" class="C1" /><path d="M 89229 889339 l 56086 56086" class="C1" /><path d="M 25494 842775 l 35691 35691" class="C1" /><path d="M 89229 906509 l 56086 56086" class="C1" /><path d="M 25494 859946 l 35691 35691" class="C1" /><path d="M 89229 923680 l 39354 39354" class="C1" /><path d="M 25494 877116 l 35691 35691" class="C1" /><path d="M 89229 940850 l 22184 22184" class="C1" /><path d="M 25494 894287 l 35691 35691" class="C1" /><path d="M 89229 958021 l 5013 5013" class="C1" /><path d="M 25494 911457 l 35691 35691" class="C1" /><path d="M 25494 928628 l 34406 34406" class="C1" /><path d="M 25494 945798 l 17236 17236" class="C1" /><path d="M 25494 962969 l 65 65" class="C1" /><path d="M 33143 621030 l 1845 -1845" class="C1" /><path d="M 36887 623009 l 3824 -3824" class="C1" /><path d="M 42610 623009 l 3824 -3824" class="C1" /><path d="M 21670 649673 l 1170 -1170" class="C1" /><path d="M 45889 625454 l 3824 -3824" class="C1" /><path d="M 21670 655396 l 6893 -6893" class="C1" /><path d="M 45889 631177 l 3824 -3824" class="C1" /><path d="M 21670 661120 l 3824 -3824" class="C1" /><path d="M 45889 636901 l 3824 -3824" class="C1" /><path d="M 30463 652327 l 3824 -3824" class="C1" /><path d="M 21670 666843 l 3824 -3824" class="C1" /><path d="M 45889 642624 l 3824 -3824" class="C1" /><path d="M 36186 652327 l 3824 -3824" class="C1" /><path d="M 21670 672567 l 3824 -3824" class="C1" /><path d="M 45889 648348 l 3824 -3824" class="C1" /><path d="M 41910 652327 l 3824 -3824" class="C1" /><path d="M 21670 678290 l 3824 -3824" class="C1" /><path d="M 47633 652327 l 3824 -3824" class="C1" /><path d="M 21670 684014 l 3824 -3824" class="C1" /><path d="M 53357 652327 l 3824 -3824" class="C1" /><path d="M 21670 689737 l 3824 -3824" class="C1" /><path d="M 21670 695461 l 3824 -3824" class="C1" /><path d="M 21670 701184 l 3824 -3824" class="C1" /><path d="M 100701 622154 l 2968 -2968" class="C1" /><path d="M 21670 706908 l 3824 -3824" class="C1" /><path d="M 100701 627877 l 3824 -3824" class="C1" /><path d="M 105569 623009 l 3824 -3824" class="C1" /><path d="M 21670 712631 l 3824 -3824" class="C1" /><path d="M 100701 633601 l 3824 -3824" class="C1" /><path d="M 111292 623009 l 3824 -3824" class="C1" /><path d="M 21670 718355 l 3824 -3824" class="C1" /><path d="M 100701 639324 l 3824 -3824" class="C1" /><path d="M 117016 623009 l 256 -256" class="C1" /><path d="M 21670 724078 l 3824 -3824" class="C1" /><path d="M 93421 652327 l 3824 -3824" class="C1" /><path d="M 100701 645048 l 3824 -3824" class="C1" /><path d="M 21670 729802 l 3824 -3824" class="C1" /><path d="M 99145 652327 l 5380 -5380" class="C1" /><path d="M 21670 735525 l 3824 -3824" class="C1" /><path d="M 104868 652327 l 3824 -3824" class="C1" /><path d="M 21670 741249 l 3824 -3824" class="C1" /><path d="M 110592 652327 l 3824 -3824" class="C1" /><path d="M 21670 746972 l 3824 -3824" class="C1" /><path d="M 116315 652327 l 3824 -3824" class="C1" /><path d="M 21670 752696 l 3824 -3824" class="C1" /><path d="M 122039 652327 l 3824 -3824" class="C1" /><path d="M 21670 758419 l 3824 -3824" class="C1" /><path d="M 127763 652327 l 3824 -3824" class="C1" /><path d="M 21670 764143 l 3824 -3824" class="C1" /><path d="M 133486 652327 l 3824 -3824" class="C1" /><path d="M 21670 769866 l 3824 -3824" class="C1" /><path d="M 139210 652327 l 3824 -3824" class="C1" /><path d="M 21670 775590 l 3824 -3824" class="C1" /><path d="M 144933 652327 l 3824 -3824" class="C1" /><path d="M 21670 781313 l 3824 -3824" class="C1" /><path d="M 145315 657669 l 3824 -3824" class="C1" /><path d="M 21670 787037 l 3824 -3824" class="C1" /><path d="M 145315 663392 l 3824 -3824" class="C1" /><path d="M 21670 792760 l 3824 -3824" class="C1" /><path d="M 145315 669116 l 3824 -3824" class="C1" /><path d="M 21670 798484 l 3824 -3824" class="C1" /><path d="M 145315 674839 l 3824 -3824" class="C1" /><path d="M 21670 804207 l 3824 -3824" class="C1" /><path d="M 145315 680563 l 3824 -3824" class="C1" /><path d="M 24996 806605 l 498 -498" class="C1" /><path d="M 145315 686286 l 3824 -3824" class="C1" /><path d="M 145315 692010 l 3824 -3824" class="C1" /><path d="M 145315 697733 l 3824 -3824" class="C1" /><path d="M 21670 827101 l 3072 -3072" class="C1" /><path d="M 145315 703457 l 3824 -3824" class="C1" /><path d="M 21670 832825 l 3824 -3824" class="C1" /><path d="M 145315 709180 l 3824 -3824" class="C1" /><path d="M 21670 838548 l 3824 -3824" class="C1" /><path d="M 145315 714904 l 3824 -3824" class="C1" /><path d="M 21670 844272 l 3824 -3824" class="C1" /><path d="M 145315 720627 l 3824 -3824" class="C1" /><path d="M 21670 849995 l 3824 -3824" class="C1" /><path d="M 145315 726351 l 3824 -3824" class="C1" /><path d="M 21670 855719 l 3824 -3824" class="C1" /><path d="M 145315 732074 l 3824 -3824" class="C1" /><path d="M 21670 861442 l 3824 -3824" class="C1" /><path d="M 145315 737798 l 3824 -3824" class="C1" /><path d="M 21670 867166 l 3824 -3824" class="C1" /><path d="M 145315 743521 l 3824 -3824" class="C1" /><path d="M 21670 872889 l 3824 -3824" class="C1" /><path d="M 145315 749245 l 3824 -3824" class="C1" /><path d="M 21670 878613 l 3824 -3824" class="C1" /><path d="M 145315 754968 l 3824 -3824" class="C1" /><path d="M 21670 884336 l 3824 -3824" class="C1" /><path d="M 145315 760692 l 3824 -3824" class="C1" /><path d="M 21670 890060 l 3824 -3824" class="C1" /><path d="M 145315 766415 l 3824 -3824" class="C1" /><path d="M 21670 895783 l 3824 -3824" class="C1" /><path d="M 145315 772139 l 3824 -3824" class="C1" /><path d="M 21670 901507 l 3824 -3824" class="C1" /><path d="M 145315 777862 l 3824 -3824" class="C1" /><path d="M 21670 907230 l 3824 -3824" class="C1" /><path d="M 145315 783586 l 3824 -3824" class="C1" /><path d="M 21670 912954 l 3824 -3824" class="C1" /><path d="M 145315 789309 l 3824 -3824" class="C1" /><path d="M 21670 918677 l 3824 -3824" class="C1" /><path d="M 145315 795033 l 3824 -3824" class="C1" /><path d="M 21670 924401 l 3824 -3824" class="C1" /><path d="M 145315 800756 l 3824 -3824" class="C1" /><path d="M 21670 930124 l 3824 -3824" class="C1" /><path d="M 21670 935848 l 3824 -3824" class="C1" /><path d="M 21670 941571 l 3824 -3824" class="C1" /><path d="M 21670 947295 l 3824 -3824" class="C1" /><path d="M 145315 823650 l 3824 -3824" class="C1" /><path d="M 21670 953018 l 3824 -3824" class="C1" /><path d="M 145315 829374 l 3824 -3824" class="C1" /><path d="M 21670 958742 l 3824 -3824" class="C1" /><path d="M 145315 835097 l 3824 -3824" class="C1" /><path d="M 21670 964465 l 3824 -3824" class="C1" /><path d="M 145315 840821 l 3824 -3824" class="C1" /><path d="M 25001 966858 l 3824 -3824" class="C1" /><path d="M 145315 846544 l 3824 -3824" class="C1" /><path d="M 30725 966858 l 3824 -3824" class="C1" /><path d="M 145315 852268 l 3824 -3824" class="C1" /><path d="M 36448 966858 l 3824 -3824" class="C1" /><path d="M 145315 857991 l 3824 -3824" class="C1" /><path d="M 42172 966858 l 3824 -3824" class="C1" /><path d="M 145315 863715 l 3824 -3824" class="C1" /><path d="M 45889 968864 l 5830 -5830" class="C1" /><path d="M 145315 869438 l 3824 -3824" class="C1" /><path d="M 45889 974587 l 3824 -3824" class="C1" /><path d="M 145315 875162 l 3824 -3824" class="C1" /><path d="M 53619 966858 l 3743 -3743" class="C1" /><path d="M 33143 993058 l 706 -706" class="C1" /><path d="M 145315 880885 l 3824 -3824" class="C1" /><path d="M 45889 980311 l 3824 -3824" class="C1" /><path d="M 35748 996176 l 3824 -3824" class="C1" /><path d="M 145315 886609 l 3824 -3824" class="C1" /><path d="M 45889 986034 l 3824 -3824" class="C1" /><path d="M 41471 996176 l 3824 -3824" class="C1" /><path d="M 145315 892332 l 3824 -3824" class="C1" /><path d="M 45889 991758 l 3824 -3824" class="C1" /><path d="M 47195 996176 l 2519 -2519" class="C1" /><path d="M 145315 898056 l 3824 -3824" class="C1" /><path d="M 145315 903779 l 3824 -3824" class="C1" /><path d="M 145315 909503 l 3824 -3824" class="C1" /><path d="M 93683 966858 l 3824 -3824" class="C1" /><path d="M 145315 915226 l 3824 -3824" class="C1" /><path d="M 99407 966858 l 3824 -3824" class="C1" /><path d="M 145315 920950 l 3824 -3824" class="C1" /><path d="M 100701 971287 l 3824 -3824" class="C1" /><path d="M 145315 926673 l 3824 -3824" class="C1" /><path d="M 105130 966858 l 3824 -3824" class="C1" /><path d="M 100701 977011 l 3824 -3824" class="C1" /><path d="M 145315 932397 l 3824 -3824" class="C1" /><path d="M 110854 966858 l 3824 -3824" class="C1" /><path d="M 100701 982734 l 3824 -3824" class="C1" /><path d="M 145315 938120 l 3824 -3824" class="C1" /><path d="M 116577 966858 l 3824 -3824" class="C1" /><path d="M 100701 988458 l 3824 -3824" class="C1" /><path d="M 145315 943844 l 3824 -3824" class="C1" /><path d="M 122301 966858 l 3824 -3824" class="C1" /><path d="M 100701 994181 l 3824 -3824" class="C1" /><path d="M 145315 949567 l 3824 -3824" class="C1" /><path d="M 128024 966858 l 3824 -3824" class="C1" /><path d="M 104430 996176 l 3824 -3824" class="C1" /><path d="M 145315 955291 l 3824 -3824" class="C1" /><path d="M 133748 966858 l 3824 -3824" class="C1" /><path d="M 110153 996176 l 3824 -3824" class="C1" /><path d="M 145315 961014 l 3824 -3824" class="C1" /><path d="M 139471 966858 l 3824 -3824" class="C1" /><path d="M 115877 996176 l 1395 -1395" class="C1" /><path d="M 145195 966858 l 3944 -3944" class="C1" /><path d="M 80306 376995 l -10197 0" class="C1" /><path d="M 100701 364248 l -50987 0" class="C1" /><path d="M 80306 364248 l -10197 0" class="C1" /><path d="M 80306 337269 l -10197 0" class="C1" /><path d="M 86679 376995 l -22944 0" class="C1" /><path d="M 76482 373171 l -2549 0" class="C1" /><path d="M 80306 619185 l -10197 0" class="C1" /><path d="M 83104 115876 l -15296 0" class="C1" /><path d="M 89229 652327 l 56086 0" class="C1" /><path d="M 145315 652327 l 0 149270" class="C1" /><path d="M 145315 801597 l -20395 -1407" class="C1" /><path d="M 124920 800191 l -29318 12747" class="C1" /><path d="M 95602 812938 l -6373 -1517" class="C1" /><path d="M 89229 811420 l 0 -159093" class="C1" /><path d="M 161886 802740 l -36966 -2549" class="C1" /><path d="M 124920 800191 l -29318 12747" class="C1" /><path d="M 95602 812938 l -26768 -6373" class="C1" /><path d="M 68834 806564 l -25494 14022" class="C1" /><path d="M 43340 820586 l -14022 -15296" class="C1" /><path d="M 29318 805289 l -29318 8923" class="C1" /><path d="M 164435 819311 l -36966 -2549" class="C1" /><path d="M 127469 816762 l -29318 12747" class="C1" /><path d="M 98152 829508 l -26768 -6373" class="C1" /><path d="M 71383 823135 l -25494 14022" class="C1" /><path d="M 45889 837157 l -14022 -15296" class="C1" /><path d="M 31868 821860 l -29318 8923" class="C1" /><path d="M 80306 376995 l -0 242190" class="C1" /><path d="M 80306 619185 l 33142 0" class="C1" /><path d="M 113448 619185 l 0 -3824" class="C1" /><path d="M 113448 615361 l -29318 0" class="C1" /><path d="M 84130 615361 l 0 -230718" class="C1" /><path d="M 84130 384643 l 20395 0" class="C1" /><path d="M 104525 384643 l 0 -16571" class="C1" /><path d="M 104525 368072 l 8923 0" class="C1" /><path d="M 113448 368072 l 0 -3824" class="C1" /><path d="M 113448 364248 l -12747 0" class="C1" /><path d="M 100701 364248 l 0 12747" class="C1" /><path d="M 100701 376995 l -20395 0" class="C1" /><path d="M 80306 376995 l 0 0" class="C1" /><path d="M 70108 376995 l -0 242190" class="C1" /><path d="M 70108 619185 l -33142 0" class="C1" /><path d="M 36967 619185 l 0 -3824" class="C1" /><path d="M 36967 615361 l 29318 0" class="C1" /><path d="M 66284 615361 l 0 -230718" class="C1" /><path d="M 66284 384643 l -20395 0" class="C1" /><path d="M 45889 384643 l 0 -16571" class="C1" /><path d="M 45889 368072 l -8923 0" class="C1" /><path d="M 36967 368072 l 0 -3824" class="C1" /><path d="M 36967 364248 l 12747 0" class="C1" /><path d="M 49713 364248 l -0 12747" class="C1" /><path d="M 49713 376995 l 20395 0" class="C1" /><path d="M 70108 376995 l 0 0" class="C1" /><path d="M 111272 360424 l 2176 2176" class="C1" /><path d="M 105548 360424 l 3824 3824" class="C1" /><path d="M 109372 364248 l 3824 3824" class="C1" /><path d="M 80306 340905 l 7642 7642" class="C1" /><path d="M 103649 364248 l 3824 3824" class="C1" /><path d="M 99824 360424 l 3824 3824" class="C1" /><path d="M 80306 346629 l 6826 6826" class="C1" /><path d="M 100701 367024 l 3824 3824" class="C1" /><path d="M 94101 360424 l 3824 3824" class="C1" /><path d="M 67083 339129 l 3026 3026" class="C1" /><path d="M 100701 372747 l 3824 3824" class="C1" /><path d="M 80306 352352 l 4724 4724" class="C1" /><path d="M 88377 360424 l 3824 3824" class="C1" /><path d="M 64409 342179 l 5700 5700" class="C1" /><path d="M 99225 376995 l 5300 5300" class="C1" /><path d="M 80306 358076 l 6172 6172" class="C1" /><path d="M 62751 346245 l 7357 7357" class="C1" /><path d="M 93501 376995 l 7648 7648" class="C1" /><path d="M 80306 363799 l 449 449" class="C1" /><path d="M 62846 352063 l 7263 7263" class="C1" /><path d="M 87778 376995 l 7648 7648" class="C1" /><path d="M 65483 360424 l 3824 3824" class="C1" /><path d="M 82054 376995 l 7648 7648" class="C1" /><path d="M 59760 360424 l 3824 3824" class="C1" /><path d="M 80306 380970 l 3824 3824" class="C1" /><path d="M 54036 360424 l 3824 3824" class="C1" /><path d="M 80306 386693 l 3824 3824" class="C1" /><path d="M 48313 360424 l 3824 3824" class="C1" /><path d="M 80306 392417 l 3824 3824" class="C1" /><path d="M 64884 376995 l 5225 5225" class="C1" /><path d="M 42589 360424 l 3824 3824" class="C1" /><path d="M 80306 398140 l 3824 3824" class="C1" /><path d="M 46414 364248 l 3300 3300" class="C1" /><path d="M 59160 376995 l 10948 10948" class="C1" /><path d="M 36967 360525 l 3723 3723" class="C1" /><path d="M 80306 403864 l 3824 3824" class="C1" /><path d="M 40690 364248 l 3824 3824" class="C1" /><path d="M 66284 389842 l 3824 3824" class="C1" /><path d="M 45889 369447 l 3824 3824" class="C1" /><path d="M 53437 376995 l 7648 7648" class="C1" /><path d="M 36967 366248 l 1824 1824" class="C1" /><path d="M 80306 409587 l 3824 3824" class="C1" /><path d="M 45889 375171 l 9472 9472" class="C1" /><path d="M 66284 395566 l 3824 3824" class="C1" /><path d="M 45889 380894 l 3749 3749" class="C1" /><path d="M 80306 415311 l 3824 3824" class="C1" /><path d="M 66284 401289 l 3824 3824" class="C1" /><path d="M 66284 407013 l 3824 3824" class="C1" /><path d="M 80306 421034 l 3824 3824" class="C1" /><path d="M 66284 412736 l 3824 3824" class="C1" /><path d="M 80306 426758 l 3824 3824" class="C1" /><path d="M 66284 418460 l 3824 3824" class="C1" /><path d="M 80306 432481 l 3824 3824" class="C1" /><path d="M 66284 424183 l 3824 3824" class="C1" /><path d="M 80306 438205 l 3824 3824" class="C1" /><path d="M 66284 429907 l 3824 3824" class="C1" /><path d="M 80306 443928 l 3824 3824" class="C1" /><path d="M 66284 435630 l 3824 3824" class="C1" /><path d="M 80306 449652 l 3824 3824" class="C1" /><path d="M 66284 441354 l 3824 3824" class="C1" /><path d="M 80306 455375 l 3824 3824" class="C1" /><path d="M 66284 447077 l 3824 3824" class="C1" /><path d="M 80306 461099 l 3824 3824" class="C1" /><path d="M 66284 452801 l 3824 3824" class="C1" /><path d="M 80306 466822 l 3824 3824" class="C1" /><path d="M 66284 458524 l 3824 3824" class="C1" /><path d="M 80306 472546 l 3824 3824" class="C1" /><path d="M 66284 464248 l 3824 3824" class="C1" /><path d="M 80306 478269 l 3824 3824" class="C1" /><path d="M 66284 469971 l 3824 3824" class="C1" /><path d="M 80306 483993 l 3824 3824" class="C1" /><path d="M 66284 475695 l 3824 3824" class="C1" /><path d="M 80306 489716 l 3824 3824" class="C1" /><path d="M 66284 481418 l 3824 3824" class="C1" /><path d="M 80306 495440 l 3824 3824" class="C1" /><path d="M 66284 487142 l 3824 3824" class="C1" /><path d="M 80306 501163 l 3824 3824" class="C1" /><path d="M 66284 492865 l 3824 3824" class="C1" /><path d="M 80306 506887 l 3824 3824" class="C1" /><path d="M 66284 498589 l 3824 3824" class="C1" /><path d="M 80306 512610 l 3824 3824" class="C1" /><path d="M 66284 504312 l 3824 3824" class="C1" /><path d="M 80306 518334 l 3824 3824" class="C1" /><path d="M 66284 510036 l 3824 3824" class="C1" /><path d="M 80306 524058 l 3824 3824" class="C1" /><path d="M 66284 515759 l 3824 3824" class="C1" /><path d="M 80306 529781 l 3824 3824" class="C1" /><path d="M 66284 521483 l 3824 3824" class="C1" /><path d="M 80306 535505 l 3824 3824" class="C1" /><path d="M 66284 527206 l 3824 3824" class="C1" /><path d="M 80306 541228 l 3824 3824" class="C1" /><path d="M 66284 532930 l 3824 3824" class="C1" /><path d="M 80306 546952 l 3824 3824" class="C1" /><path d="M 66284 538653 l 3824 3824" class="C1" /><path d="M 80306 552675 l 3824 3824" class="C1" /><path d="M 66284 544377 l 3824 3824" class="C1" /><path d="M 80306 558399 l 3824 3824" class="C1" /><path d="M 66284 550100 l 3824 3824" class="C1" /><path d="M 80306 564122 l 3824 3824" class="C1" /><path d="M 66284 555824 l 3824 3824" class="C1" /><path d="M 80306 569846 l 3824 3824" class="C1" /><path d="M 66284 561548 l 3824 3824" class="C1" /><path d="M 80306 575569 l 3824 3824" class="C1" /><path d="M 66284 567271 l 3824 3824" class="C1" /><path d="M 80306 581293 l 3824 3824" class="C1" /><path d="M 66284 572995 l 3824 3824" class="C1" /><path d="M 108651 615361 l 3824 3824" class="C1" /><path d="M 80306 587016 l 3824 3824" class="C1" /><path d="M 66284 578718 l 3824 3824" class="C1" /><path d="M 102928 615361 l 3824 3824" class="C1" /><path d="M 80306 592740 l 3824 3824" class="C1" /><path d="M 66284 584442 l 3824 3824" class="C1" /><path d="M 97204 615361 l 3824 3824" class="C1" /><path d="M 80306 598463 l 3824 3824" class="C1" /><path d="M 66284 590165 l 3824 3824" class="C1" /><path d="M 91481 615361 l 3824 3824" class="C1" /><path d="M 80306 604187 l 3824 3824" class="C1" /><path d="M 66284 595889 l 3824 3824" class="C1" /><path d="M 85757 615361 l 3824 3824" class="C1" /><path d="M 80306 609910 l 3824 3824" class="C1" /><path d="M 66284 601612 l 3824 3824" class="C1" /><path d="M 80306 615634 l 3552 3552" class="C1" /><path d="M 66284 607336 l 3824 3824" class="C1" /><path d="M 66284 613059 l 3824 3824" class="C1" /><path d="M 62863 615361 l 3824 3824" class="C1" /><path d="M 57140 615361 l 3824 3824" class="C1" /><path d="M 51416 615361 l 3824 3824" class="C1" /><path d="M 45692 615361 l 3824 3824" class="C1" /><path d="M 39969 615361 l 3824 3824" class="C1" /><path d="M 36967 618082 l 1103 1103" class="C1" /><path d="M 117272 996176 l 0 3824" class="C1" /><path d="M 117272 1000000 l -84129 0" class="C1" /><path d="M 33143 1000000 l 0 -3824" class="C1" /><path d="M 33143 996176 l 84129 0" class="C1" /><path d="M 57362 963034 l -31867 0" class="C1" /><path d="M 25494 963034 l 0 -139234" class="C1" /><path d="M 25494 823800 l -3824 1164" class="C1" /><path d="M 21670 824964 l -0 141894" class="C1" /><path d="M 21670 966858 l 24219 0" class="C1" /><path d="M 45889 966858 l 0 25494" class="C1" /><path d="M 45889 992352 l -12747 0" class="C1" /><path d="M 33143 992352 l 0 3824" class="C1" /><path d="M 33143 996176 l 16571 0" class="C1" /><path d="M 49713 996176 l 0 -29318" class="C1" /><path d="M 49713 966858 l 7648 0" class="C1" /><path d="M 57362 966858 l -0 -3824" class="C1" /><path d="M 61186 963034 l -35691 0" class="C1" /><path d="M 25494 963034 l 0 -139234" class="C1" /><path d="M 25494 823800 l 6373 -1940" class="C1" /><path d="M 31868 821860 l 14022 15296" class="C1" /><path d="M 45889 837157 l 15296 -8413" class="C1" /><path d="M 61186 828744 l -0 134290" class="C1" /><path d="M 61186 963034 l 0 0" class="C1" /><path d="M 57362 648503 l -0 3824" class="C1" /><path d="M 57362 652327 l -31867 0" class="C1" /><path d="M 25494 652327 l 0 154126" class="C1" /><path d="M 25494 806453 l -3824 1164" class="C1" /><path d="M 21670 807617 l 0 -159114" class="C1" /><path d="M 21670 648503 l 24219 0" class="C1" /><path d="M 45889 648503 l 0 -25494" class="C1" /><path d="M 45889 623009 l -12747 0" class="C1" /><path d="M 33143 623009 l 0 -3824" class="C1" /><path d="M 33143 619185 l 16571 0" class="C1" /><path d="M 49713 619185 l 0 29318" class="C1" /><path d="M 49713 648503 l 7648 0" class="C1" /><path d="M 61186 810771 l -17846 9815" class="C1" /><path d="M 43340 820586 l -14022 -15296" class="C1" /><path d="M 29318 805289 l -3824 1164" class="C1" /><path d="M 25494 806453 l 0 -154126" class="C1" /><path d="M 25494 652327 l 35691 0" class="C1" /><path d="M 61186 652327 l -0 158444" class="C1" /><path d="M 145315 817992 l 0 145042" class="C1" /><path d="M 145315 963034 l -52262 0" class="C1" /><path d="M 93053 963034 l 0 3824" class="C1" /><path d="M 93053 966858 l 7648 0" class="C1" /><path d="M 100701 966858 l 0 29318" class="C1" /><path d="M 100701 996176 l 16571 0" class="C1" /><path d="M 117272 996176 l 0 -3824" class="C1" /><path d="M 117272 992352 l -12747 0" class="C1" /><path d="M 104525 992352 l 0 -25494" class="C1" /><path d="M 104525 966858 l 44614 0" class="C1" /><path d="M 149139 966858 l 0 -148602" class="C1" /><path d="M 149139 818256 l -3824 -264" class="C1" /><path d="M 89229 963034 l 0 -135650" class="C1" /><path d="M 89229 827384 l 8923 2124" class="C1" /><path d="M 98152 829508 l 29318 -12747" class="C1" /><path d="M 127469 816762 l 17846 1231" class="C1" /><path d="M 145315 817992 l 0 145042" class="C1" /><path d="M 145315 963034 l -56086 0" class="C1" /><path d="M 89229 963034 l 0 0" class="C1" /><path d="M 117272 623009 l -12747 0" class="C1" /><path d="M 104525 623009 l 0 25494" class="C1" /><path d="M 104525 648503 l 44614 0" class="C1" /><path d="M 149139 648503 l 0 153358" class="C1" /><path d="M 149139 801861 l -3824 -264" class="C1" /><path d="M 145315 801597 l 0 -149270" class="C1" /><path d="M 145315 652327 l -52262 0" class="C1" /><path d="M 93053 652327 l 0 -3824" class="C1" /><path d="M 93053 648503 l 7648 0" class="C1" /><path d="M 100701 648503 l 0 -29318" class="C1" /><path d="M 100701 619185 l 16571 0" class="C1" /><path d="M 117272 619185 l 0 3824" class="C1" /><path d="M 73933 644679 l -10197 3824" class="C1" /><path d="M 63735 648503 l -12747 -0" class="C1" /><path d="M 50988 648503 l 0 -3824" class="C1" /><path d="M 50988 644679 l 22944 0" class="C1" /><path d="M 73933 644679 l 0 0" class="C1" /><path d="M 51332 648503 l 3824 -3824" class="C1" /><path d="M 57055 648503 l 3824 -3824" class="C1" /><path d="M 62779 648503 l 3824 -3824" class="C1" /><path d="M 71362 645643 l 964 -964" class="C1" /><path d="M 77622 645107 l 428 -428" class="C1" /><path d="M 81785 646668 l 1989 -1989" class="C1" /><path d="M 85947 648228 l 3550 -3550" class="C1" /><path d="M 91396 648503 l 3824 -3824" class="C1" /><path d="M 97120 648503 l 2307 -2307" class="C1" /><path d="M 76482 644679 l 10197 3824" class="C1" /><path d="M 86679 648503 l 12747 0" class="C1" /><path d="M 99426 648503 l 0 -3824" class="C1" /><path d="M 99426 644679 l -22944 0" class="C1" /><path d="M 76482 644679 l 0 0" class="C1" /><path d="M 138174 -0 l 3193 3193" class="C1" /><path d="M 121003 -0 l 20364 20364" class="C1" /><path d="M 103833 -0 l 37534 37534" class="C1" /><path d="M 86662 -0 l 12640 12640" class="C1" /><path d="M 103127 16464 l 38241 38241" class="C1" /><path d="M 69492 -0 l 29811 29811" class="C1" /><path d="M 103127 33635 l 38241 38241" class="C1" /><path d="M 52321 -0 l 46981 46981" class="C1" /><path d="M 103127 50805 l 38241 38241" class="C1" /><path d="M 35151 -0 l 12634 12634" class="C1" /><path d="M 103127 67976 l 38241 38241" class="C1" /><path d="M 51609 16458 l 34529 34529" class="C1" /><path d="M 17980 -0 l 29805 29805" class="C1" /><path d="M 103127 85146 l 38241 38241" class="C1" /><path d="M 51609 33629 l 17359 17359" class="C1" /><path d="M 9544 8735 l 38241 38241" class="C1" /><path d="M 103127 102317 l 38241 38241" class="C1" /><path d="M 51609 50799 l 188 188" class="C1" /><path d="M 9544 25905 l 38241 38241" class="C1" /><path d="M 103127 119488 l 38241 38241" class="C1" /><path d="M 9544 43076 l 38241 38241" class="C1" /><path d="M 103127 136658 l 38241 38241" class="C1" /><path d="M 9544 60246 l 38241 38241" class="C1" /><path d="M 103127 153829 l 38241 38241" class="C1" /><path d="M 9544 77417 l 38241 38241" class="C1" /><path d="M 103127 170999 l 37326 37326" class="C1" /><path d="M 9544 94587 l 38241 38241" class="C1" /><path d="M 103127 188170 l 20156 20156" class="C1" /><path d="M 9544 111758 l 38241 38241" class="C1" /><path d="M 103127 205340 l 2985 2985" class="C1" /><path d="M 9544 128928 l 38241 38241" class="C1" /><path d="M 9544 146099 l 38241 38241" class="C1" /><path d="M 9544 163269 l 38241 38241" class="C1" /><path d="M 9544 180440 l 27886 27886" class="C1" /><path d="M 9544 197610 l 10715 10715" class="C1" /><path d="M 132450 -0 l 8917 8917" class="C1" /><path d="M 115280 -0 l 26087 26087" class="C1" /><path d="M 98109 -0 l 1193 1193" class="C1" /><path d="M 103127 5017 l 38241 38241" class="C1" /><path d="M 80939 -0 l 18364 18364" class="C1" /><path d="M 103127 22188 l 38241 38241" class="C1" /><path d="M 63768 -0 l 35534 35534" class="C1" /><path d="M 103127 39358 l 38241 38241" class="C1" /><path d="M 46598 -0 l 1187 1187" class="C1" /><path d="M 103127 56529 l 38241 38241" class="C1" /><path d="M 51609 5011 l 45976 45976" class="C1" /><path d="M 29427 -0 l 18358 18358" class="C1" /><path d="M 103127 73699 l 38241 38241" class="C1" /><path d="M 51609 22182 l 28806 28806" class="C1" /><path d="M 12257 -0 l 35528 35528" class="C1" /><path d="M 103127 90870 l 38241 38241" class="C1" /><path d="M 51609 39352 l 11635 11635" class="C1" /><path d="M 9544 14458 l 38241 38241" class="C1" /><path d="M 103127 108041 l 38241 38241" class="C1" /><path d="M 9544 31629 l 38241 38241" class="C1" /><path d="M 103127 125211 l 38241 38241" class="C1" /><path d="M 9544 48799 l 38241 38241" class="C1" /><path d="M 103127 142382 l 38241 38241" class="C1" /><path d="M 9544 65970 l 38241 38241" class="C1" /><path d="M 103127 159552 l 38241 38241" class="C1" /><path d="M 9544 83140 l 38241 38241" class="C1" /><path d="M 103127 176723 l 31603 31603" class="C1" /><path d="M 9544 100311 l 38241 38241" class="C1" /><path d="M 103127 193893 l 14432 14432" class="C1" /><path d="M 9544 117481 l 38241 38241" class="C1" /><path d="M 9544 134652 l 38241 38241" class="C1" /><path d="M 9544 151822 l 38241 38241" class="C1" /><path d="M 9544 168993 l 38241 38241" class="C1" /><path d="M 9544 186163 l 22162 22162" class="C1" /><path d="M 9544 203334 l 4992 4992" class="C1" /><path d="M 47785 -0 l -0 208326" class="C1" /><path d="M 47785 208326 l -38241 0" class="C1" /><path d="M 9544 208326 l 0 -208326" class="C1" /><path d="M 9544 -0 l 38241 0" class="C1" /><path d="M 36967 360424 l 29318 0" class="C1" /><path d="M 66284 360424 l 0 -2369" class="C1" /><path d="M 70108 337269 c -3884 1695 -6671 5209 -7438 9376 c -767 4167 588 8443 3614 11409" class="C1" /><path d="M 70108 337269 l 0 26979" class="C1" /><path d="M 70108 364248 l -33142 0" class="C1" /><path d="M 36967 364248 l 0 -3824" class="C1" /><path d="M 103127 -0 l -0 208326" class="C1" /><path d="M 103127 208326 l 38241 0" class="C1" /><path d="M 141367 208326 l 0 -208326" class="C1" /><path d="M 141367 -0 l -38241 0" class="C1" /><path d="M 75456 68713 l 12747 0" class="C1" /><path d="M 95851 76361 c 0 -4224 -3424 -7648 -7648 -7648" class="C1" /><path d="M 95851 76361 l 0 35691" class="C1" /><path d="M 88203 119700 c 4224 0 7648 -3424 7648 -7648" class="C1" /><path d="M 88203 119700 l -5099 1580" class="C1" /><path d="M 83104 121280 l 0 2244" class="C1" /><path d="M 83104 123524 l -0 209496" class="C1" /><path d="M 83104 333020 c 0 1053 616 2008 1576 2442" class="C1" /><path d="M 92092 348050 c 490 -5353 -2494 -10420 -7412 -12589" class="C1" /><path d="M 92092 348050 l 3759 1093" class="C1" /><path d="M 95851 349144 l 0 3824" class="C1" /><path d="M 95851 352968 l -4271 0" class="C1" /><path d="M 88203 349144 c -219 985 47 2016 715 2772 c 668 756 1658 1148 2662 1052" class="C1" /><path d="M 88203 349144 c 929 -4178 -1199 -8434 -5099 -10197" class="C1" /><path d="M 79280 333020 c 0 2555 1496 4873 3824 5926" class="C1" /><path d="M 79280 333020 l 0 -213320" class="C1" /><path d="M 83104 115876 c -2112 0 -3824 1712 -3824 3824" class="C1" /><path d="M 83104 115876 l 5099 0" class="C1" /><path d="M 88203 115876 c 2112 0 3824 -1712 3824 -3824" class="C1" /><path d="M 92027 112052 l 0 -35691" class="C1" /><path d="M 92027 76361 c 0 -2112 -1712 -3824 -3824 -3824" class="C1" /><path d="M 88203 72537 l -12747 0" class="C1" /><path d="M 75456 72537 l -12747 0" class="C1" /><path d="M 62709 72537 c -2112 0 -3824 1712 -3824 3824" class="C1" /><path d="M 58885 76361 l 0 35691" class="C1" /><path d="M 58885 112052 c 0 2112 1712 3824 3824 3824" class="C1" /><path d="M 62709 115876 l 5099 0" class="C1" /><path d="M 71632 119700 c 0 -2112 -1712 -3824 -3824 -3824" class="C1" /><path d="M 71632 119700 l -0 213320" class="C1" /><path d="M 67808 338946 c 2328 -1053 3824 -3371 3824 -5926" class="C1" /><path d="M 67808 338946 c -3899 1763 -6028 6020 -5099 10197" class="C1" /><path d="M 59332 352968 c 1005 95 1994 -296 2662 -1052 c 668 -756 934 -1787 715 -2772" class="C1" /><path d="M 59332 352968 l -4271 0" class="C1" /><path d="M 55061 352968 l 0 -3824" class="C1" /><path d="M 55061 349144 l 3759 -1093" class="C1" /><path d="M 66232 335462 c -4918 2168 -7902 7236 -7412 12589" class="C1" /><path d="M 66232 335462 c 959 -434 1576 -1389 1576 -2442" class="C1" /><path d="M 67808 333020 l 0 -209496" class="C1" /><path d="M 67808 123524 l 0 -2244" class="C1" /><path d="M 67808 121280 l -5099 -1580" class="C1" /><path d="M 55061 112052 c 0 4224 3424 7648 7648 7648" class="C1" /><path d="M 55061 112052 l 0 -35691" class="C1" /><path d="M 62709 68713 c -2028 0 -3974 806 -5408 2240 c -1434 1434 -2240 3380 -2240 5408" class="C1" /><path d="M 62709 68713 l 12747 0" class="C1" /><path d="M 92318 69914 l 597 597" class="C1" /><path d="M 94346 71942 l 0 0" class="C1" /><path d="M 86476 69796 l 0 0" class="C1" /><path d="M 87907 71227 l 1507 1507" class="C1" /><path d="M 91830 75149 l 3232 3232" class="C1" /><path d="M 80037 69080 l 3456 3456" class="C1" /><path d="M 92027 81070 l 3824 3824" class="C1" /><path d="M 73946 68713 l 3824 3824" class="C1" /><path d="M 92200 86966 l 3651 3651" class="C1" /><path d="M 68222 68713 l 3230 3230" class="C1" /><path d="M 92915 93405 l 0 0" class="C1" /><path d="M 94346 94836 l 1505 1505" class="C1" /><path d="M 62502 68715 l 1080 1080" class="C1" /><path d="M 65013 71227 l 0 0" class="C1" /><path d="M 92027 98240 l 1604 1604" class="C1" /><path d="M 95062 101275 l 0 0" class="C1" /><path d="M 58574 70511 l 2428 2428" class="C1" /><path d="M 92027 103964 l 3750 3750" class="C1" /><path d="M 55682 73342 l 2177 2177" class="C1" /><path d="M 92027 109687 l 3706 3706" class="C1" /><path d="M 55061 78445 l 3824 3824" class="C1" /><path d="M 91484 114868 l 0 0" class="C1" /><path d="M 92915 116299 l 923 923" class="C1" /><path d="M 55061 84169 l 3824 3824" class="C1" /><path d="M 86768 115876 l 3531 3531" class="C1" /><path d="M 55712 90544 l 0 0" class="C1" /><path d="M 57143 91974 l 1742 1742" class="C1" /><path d="M 81430 116262 l 2899 2899" class="C1" /><path d="M 55061 95616 l 1367 1367" class="C1" /><path d="M 57859 98413 l 0 0" class="C1" /><path d="M 79322 119877 l 3782 3782" class="C1" /><path d="M 55061 101339 l 3513 3513" class="C1" /><path d="M 80037 126315 l 0 0" class="C1" /><path d="M 81468 127746 l 1636 1636" class="C1" /><path d="M 55061 107063 l 3824 3824" class="C1" /><path d="M 79280 131282 l 1473 1473" class="C1" /><path d="M 82184 134185 l 0 0" class="C1" /><path d="M 63874 115876 l 6862 6862" class="C1" /><path d="M 55712 113438 l 6223 6223" class="C1" /><path d="M 79280 137005 l 3619 3619" class="C1" /><path d="M 67808 125533 l 3824 3824" class="C1" /><path d="M 67875 131324 l 3757 3757" class="C1" /><path d="M 79280 142729 l 3824 3824" class="C1" /><path d="M 68590 137762 l 0 0" class="C1" /><path d="M 70021 139193 l 1611 1611" class="C1" /><path d="M 80037 149209 l 3067 3067" class="C1" /><path d="M 67808 142703 l 1498 1498" class="C1" /><path d="M 70737 145632 l 0 0" class="C1" /><path d="M 79280 154176 l 42 42" class="C1" /><path d="M 80753 155648 l 0 0" class="C1" /><path d="M 82184 157079 l 920 920" class="C1" /><path d="M 67808 148427 l 3644 3644" class="C1" /><path d="M 79280 159899 l 2188 2188" class="C1" /><path d="M 82899 163518 l 0 0" class="C1" /><path d="M 67808 154150 l 3824 3824" class="C1" /><path d="M 79280 165623 l 3824 3824" class="C1" /><path d="M 68590 160656 l 3042 3042" class="C1" /><path d="M 79280 171346 l 3824 3824" class="C1" /><path d="M 67808 165597 l 67 67" class="C1" /><path d="M 69306 167095 l 0 0" class="C1" /><path d="M 70737 168526 l 895 895" class="C1" /><path d="M 79322 177112 l 0 0" class="C1" /><path d="M 80753 178542 l 2351 2351" class="C1" /><path d="M 67808 171321 l 2213 2213" class="C1" /><path d="M 71452 174965 l 0 0" class="C1" /><path d="M 79280 182793 l 757 757" class="C1" /><path d="M 81468 184981 l 0 0" class="C1" /><path d="M 82899 186412 l 205 205" class="C1" /><path d="M 67808 177044 l 3824 3824" class="C1" /><path d="M 79280 188517 l 2904 2904" class="C1" /><path d="M 67808 182768 l 3824 3824" class="C1" /><path d="M 79280 194240 l 3824 3824" class="C1" /><path d="M 67875 188559 l 0 0" class="C1" /><path d="M 69306 189989 l 2326 2326" class="C1" /><path d="M 79322 200006 l 3782 3782" class="C1" /><path d="M 67808 194215 l 783 783" class="C1" /><path d="M 70021 196428 l 0 0" class="C1" /><path d="M 71452 197859 l 180 180" class="C1" /><path d="M 80037 206445 l 0 0" class="C1" /><path d="M 81468 207875 l 1636 1636" class="C1" /><path d="M 67808 199938 l 2929 2929" class="C1" /><path d="M 79280 211411 l 1473 1473" class="C1" /><path d="M 82184 214314 l 0 0" class="C1" /><path d="M 67808 205662 l 3824 3824" class="C1" /><path d="M 79280 217134 l 3619 3619" class="C1" /><path d="M 67875 211453 l 3757 3757" class="C1" /><path d="M 79280 222858 l 3824 3824" class="C1" /><path d="M 68590 217892 l 0 0" class="C1" /><path d="M 70021 219322 l 1611 1611" class="C1" /><path d="M 80037 229339 l 3067 3067" class="C1" /><path d="M 67808 222832 l 1498 1498" class="C1" /><path d="M 70737 225761 l 0 0" class="C1" /><path d="M 79280 234305 l 42 42" class="C1" /><path d="M 80753 235777 l 0 0" class="C1" /><path d="M 82184 237208 l 920 920" class="C1" /><path d="M 67808 228556 l 3644 3644" class="C1" /><path d="M 79280 240028 l 2188 2188" class="C1" /><path d="M 82899 243647 l 0 0" class="C1" /><path d="M 67808 234279 l 3824 3824" class="C1" /><path d="M 79280 245752 l 3824 3824" class="C1" /><path d="M 68590 240786 l 3042 3042" class="C1" /><path d="M 79280 251475 l 3824 3824" class="C1" /><path d="M 67808 245727 l 67 67" class="C1" /><path d="M 69306 247225 l 0 0" class="C1" /><path d="M 70737 248655 l 895 895" class="C1" /><path d="M 79322 257241 l 0 0" class="C1" /><path d="M 80753 258672 l 2351 2351" class="C1" /><path d="M 67808 251450 l 2213 2213" class="C1" /><path d="M 71452 255094 l 0 0" class="C1" /><path d="M 79280 262922 l 757 757" class="C1" /><path d="M 81468 265110 l 0 0" class="C1" /><path d="M 82899 266541 l 205 205" class="C1" /><path d="M 67808 257174 l 3824 3824" class="C1" /><path d="M 79280 268646 l 2904 2904" class="C1" /><path d="M 67808 262897 l 3824 3824" class="C1" /><path d="M 79280 274369 l 3824 3824" class="C1" /><path d="M 67875 268688 l 0 0" class="C1" /><path d="M 69306 270119 l 2326 2326" class="C1" /><path d="M 79322 280135 l 3782 3782" class="C1" /><path d="M 67808 274344 l 783 783" class="C1" /><path d="M 70021 276557 l 0 0" class="C1" /><path d="M 71452 277988 l 180 180" class="C1" /><path d="M 80037 286574 l 0 0" class="C1" /><path d="M 81468 288004 l 1636 1636" class="C1" /><path d="M 67808 280068 l 2929 2929" class="C1" /><path d="M 79280 291540 l 1473 1473" class="C1" /><path d="M 82184 294443 l 0 0" class="C1" /><path d="M 67808 285791 l 3824 3824" class="C1" /><path d="M 79280 297263 l 3619 3619" class="C1" /><path d="M 67875 291582 l 3757 3757" class="C1" /><path d="M 79280 302987 l 3824 3824" class="C1" /><path d="M 68590 298021 l 0 0" class="C1" /><path d="M 70021 299451 l 1611 1611" class="C1" /><path d="M 80037 309468 l 3067 3067" class="C1" /><path d="M 67808 302962 l 1498 1498" class="C1" /><path d="M 70737 305890 l 0 0" class="C1" /><path d="M 79280 314434 l 42 42" class="C1" /><path d="M 80753 315907 l 0 0" class="C1" /><path d="M 82184 317337 l 920 920" class="C1" /><path d="M 67808 308685 l 3644 3644" class="C1" /><path d="M 79280 320157 l 2188 2188" class="C1" /><path d="M 82899 323776 l 0 0" class="C1" /><path d="M 67808 314409 l 3824 3824" class="C1" /><path d="M 79280 325881 l 3824 3824" class="C1" /><path d="M 68590 320915 l 3042 3042" class="C1" /><path d="M 79280 331604 l 6481 6481" class="C1" /><path d="M 87192 339516 l 0 0" class="C1" /><path d="M 88623 340947 l 3216 3216" class="C1" /><path d="M 67808 325856 l 67 67" class="C1" /><path d="M 69306 327354 l 0 0" class="C1" /><path d="M 70737 328784 l 895 895" class="C1" /><path d="M 89338 347386 l 0 0" class="C1" /><path d="M 90769 348817 l 4151 4151" class="C1" /><path d="M 67808 331579 l 2213 2213" class="C1" /><path d="M 66049 335544 l 2806 2806" class="C1" /><path d="M 62641 337859 l 1657 1657" class="C1" /><path d="M 60185 341127 l 2884 2884" class="C1" /><path d="M 60005 346670 l 0 0" class="C1" /><path d="M 61436 348101 l 1322 1322" class="C1" /><path d="M 56373 348762 l 4104 4104" class="C1" /><path d="M 113448 360424 l -29318 0" class="C1" /><path d="M 84130 360424 l 0 -2369" class="C1" /><path d="M 84130 358055 c 3026 -2966 4380 -7242 3614 -11409 c -767 -4167 -3554 -7681 -7438 -9376" class="C1" /><path d="M 80306 337269 l 0 26979" class="C1" /><path d="M 80306 364248 l 33142 0" class="C1" /><path d="M 113448 364248 l 0 -3824" class="C1" /><path d="M 73933 373171 l -10197 3824" class="C1" /><path d="M 63735 376995 l -12747 0" class="C1" /><path d="M 50988 376995 l 0 -3824" class="C1" /><path d="M 50988 373171 l 22944 0" class="C1" /><path d="M 73933 373171 l 0 0" class="C1" /><path d="M 51332 376995 l 3824 -3824" class="C1" /><path d="M 57055 376995 l 3824 -3824" class="C1" /><path d="M 62779 376995 l 3824 -3824" class="C1" /><path d="M 71362 374135 l 964 -964" class="C1" /><path d="M 77622 373598 l 428 -428" class="C1" /><path d="M 81785 375159 l 1989 -1989" class="C1" /><path d="M 85947 376720 l 3550 -3550" class="C1" /><path d="M 91396 376995 l 3824 -3824" class="C1" /><path d="M 97120 376995 l 2307 -2307" class="C1" /><path d="M 76482 373171 l 10197 3824" class="C1" /><path d="M 86679 376995 l 12747 0" class="C1" /><path d="M 99426 376995 l 0 -3824" class="C1" /><path d="M 99426 373171 l -22944 0" class="C1" /><path d="M 76482 373171 l 0 0" class="C1" /><path d="M 99303 -0 l 0 50987" class="C1" /><path d="M 99303 50987 l -47694 0" class="C1" /><path d="M 51609 50987 l -0 -50987" class="C1" /><path d="M 51609 -0 l 47694 0" class="C1" /><path d="M 99303 -0 l 0 0" class="C1" /></g></svg>