<?xml version='1.0' encoding='UTF-8'?>
<svg xmlns="http://www.w3.org/2000/svg" width="167.4mm" height="109mm" viewBox="0 0 1000000 651135"><defs><style>.C1 {stroke: #000000; stroke-width: 1493; stroke-opacity: 1.000; fill: none; fill-opacity: 1.000;}</style><style>.C2 {stroke: none; stroke-width: none; stroke-opacity: 1.000; fill: #000000; fill-opacity: 1.000;}</style></defs><rect fill="#ffffff" x="0" y="0" width="1000000" height="651135" fill-opacity="1.0"/><g stroke-linecap="round" stroke-linejoin="round" fill-rule="evenodd"><path d="M 456157 23902 l 0 0 l -8365 84283 l -11515 85964 l -14456 85964 l -17186 84283 l -19706 80923 l -22016 75883 l -24116 69163 l -26006 60763" class="C1"/><path d="M 140024 287133 l 23428 -72077" class="C1"/><path d="M 140024 287133 l 65243 -36236" class="C1"/><path d="M 257404 351541 l 1624 -70775" class="C1"/><path d="M 397309 394480 l -6861 -71899" class="C1"/><path d="M 257404 351541 l 49413 -52854" class="C1"/><path d="M 397309 394480 l 40927 -65926" class="C1"/><path d="M 527840 23902 l 0 0 l 8365 84283 l 11515 85964 l 14456 85964 l 17186 84283 l 19706 80923 l 22016 75883 l 24116 69163 l 26006 60763" class="C1"/><path d="M 843973 287133 l -23428 -72077" class="C1"/><path d="M 843973 287133 l -65243 -36236" class="C1"/><path d="M 726593 351541 l -49413 -52854" class="C1"/><path d="M 726593 351541 l -1624 -70775" class="C1"/><path d="M 586688 394480 l -40927 -65926" class="C1"/><path d="M 586688 394480 l 6861 -71899" class="C1"/><path d="M 446988 453567 l 41386 23894" class="C1"/><path d="M 488374 477461 l 0 -195933" class="C1"/><path d="M 488374 281528 l -41386 -23894" class="C1"/><path d="M 446988 257634 l 0 195933" class="C1"/><path d="M 446988 357895 l 41386 23894" class="C1"/><path d="M 488374 381790 l 45967 -26539" class="C1"/><path d="M 446988 257634 l 45967 -26539" class="C1"/><path d="M 492955 231095 l 41386 23894" class="C1"/><path d="M 488374 281528 l 45967 -26539" class="C1"/><path d="M 488374 477461 l 45967 -26539" class="C1"/><path d="M 534341 254989 l 0 195933" class="C1"/><path d="M 508422 448369 l 0 -32623 l 4428 0 l 17135 25613 l 0 -25613 l 4139 0 l 0 32623 l -4428 0 l -17135 -25635 l 0 25635 l -4139 0 Z" class="C2"/><path d="M 506998 300430 l 4072 -356 q 289 2448 1346 4017 q 1057 1569 3282 2537 q 2225 968 5007 968 q 2470 0 4362 -734 q 1891 -734 2815 -2014 q 923 -1280 923 -2793 q 0 -1535 -890 -2681 q -890 -1146 -2937 -1925 q -1313 -512 -5808 -1591 q -4495 -1079 -6298 -2036 q -2337 -1224 -3483 -3038 q -1146 -1814 -1146 -4061 q 0 -2470 1402 -4617 q 1402 -2147 4095 -3260 q 2693 -1113 5986 -1113 q 3627 0 6398 1168 q 2770 1168 4261 3438 q 1491 2270 1602 5140 l -4139 312 q -334 -3093 -2259 -4673 q -1925 -1580 -5686 -1580 q -3917 0 -5708 1435 q -1791 1435 -1791 3460 q 0 1758 1268 2893 q 1246 1135 6509 2325 q 5263 1191 7221 2081 q 2848 1313 4206 3327 q 1357 2014 1357 4640 q 0 2604 -1491 4907 q -1491 2303 -4284 3583 q -2793 1280 -6286 1280 q -4428 0 -7421 -1291 q -2993 -1291 -4695 -3883 q -1702 -2592 -1791 -5864 Z" class="C2"/><path d="M 611470 11955 l 15517 81495 l 23498 82125 l 30498 81145 l 36518 78555 l 41558 74355 l 45619 68545 l 48699 61124 l 10662 10934" class="C1"/><path d="M 689127 7 l 25154 82043 l 34955 75883 l 44475 69723 l 53716 63563 l 62676 57402 l 71356 51242 l 18541 10480" class="C1"/><path d="M 372527 11955 l -15517 81495 l -23498 82125 l -30498 81145 l -36518 78555 l -41558 74355 l -45619 68545 l -48699 61124 l -12893 13222" class="C1"/><path d="M 294870 7 l -25154 82043 l -34955 75883 l -44475 69723 l -53716 63563 l -62676 57402 l -71356 51242 l -2538 1435" class="C1"/><path d="M 446988 405304 l 30056 -30056 m -30056 3234 l 13052 -13052 m 24369 109741 l 3965 -3965 m -20970 -5852 l 20970 -20970 m -37974 11152 l 37974 -37974 m -41386 14564 l 41386 -41386" class="C1"/></g></svg>