<?xml version='1.0' encoding='utf-8'?>
<svg xmlns="http://www.w3.org/2000/svg" width="300.4mm" height="133.5mm" viewBox="0 0 1000000 444407"><defs><style>.C1 {stroke: #000000; stroke-width: 832; stroke-opacity: 1.000; fill: none; fill-opacity: 1.000;}</style><style>.C2 {stroke: none; stroke-width: none; stroke-opacity: 1.000; fill: #000000; fill-opacity: 1.000;}</style></defs><rect fill="#ffffff" x="0" y="0" width="1000000" height="444407" fill-opacity="1.0" /><g stroke-linecap="round" stroke-linejoin="round" fill-rule="evenodd"><path d="M 113124 343365 c -4261 -10736 -7894 -23079 -6297 -34283" class="C1" /><path d="M 113124 343365 c -2051 -3289 4500 -23941 13852 -36194 c 6202 -8126 13636 -12558 16516 -19694 c 8384 -20776 -21841 -64474 -27171 -69727" class="C1" /><path d="M 108329 341768 c -1042 -3940 -14914 -24749 -13852 -38323 c 715 -9129 8184 -14986 11188 -25017 c 3738 -12482 562 -31427 -1598 -34065" class="C1" /><path d="M 108329 341768 c -2903 -11380 -5805 -22760 -1598 -32468 c 3192 -7366 10476 -13770 13319 -20758 c 5415 -13312 -5284 -28745 -15983 -44178" class="C1" /><path d="M 116853 342833 c -1071 -5232 -2528 -10529 -3974 -15838" class="C1" /><path d="M 116853 342833 c -630 -7076 -1160 -14284 -1085 -21445" class="C1" /><path d="M 126722 247328 c -2405 -8312 -6659 -16329 -12000 -23190 c -5843 -7506 -12989 -13630 -21311 -17565" class="C1" /><path d="M 115664 262359 c 537 -2397 956 -4842 1189 -7350 c 1745 -18813 -7028 -41202 -23442 -48436" class="C1" /><path d="M 121336 278147 c 1890 -3537 3527 -7140 4574 -10896 c 4444 -15946 -1772 -34623 -9590 -49501" class="C1" /><path d="M 106177 345763 l 12751 0" class="C1" /><path d="M 106177 345763 l 0 8308" class="C1" /><path d="M 118928 345763 l 0 8308" class="C1" /><path d="M 87327 413891 l 0 30463" class="C1" /><path d="M 137778 413891 l 0 30463" class="C1" /><path d="M 106177 354071 l -18850 59819" class="C1" /><path d="M 118928 354071 l 18850 59819" class="C1" /><path d="M 87327 413891 l 50450 0" class="C1" /><path d="M 106177 354071 l 12751 0" class="C1" /><path d="M 221986 99410 l 0 -32358 c 0 -18384 -14903 -33288 -33288 -33288 l -155410 0 c -18384 0 -33288 14903 -33288 33288 l 0 101975 c 0 18384 14903 33288 33288 33288 l 155410 -0 c 18384 0 33288 -14903 33288 -33288 l 0 -30584" class="C1" /><path d="M 215328 99410 l 0 -32358 c 0 -14707 -11923 -26630 -26630 -26630 l -155410 0 c -14707 0 -26630 11923 -26630 26630 l 0 101975 c 0 14707 11923 26630 26630 26630 l 155410 0 c 14707 0 26630 -11923 26630 -26630 l 0 -30584" class="C1" /><path d="M 215328 138443 l 6658 0" class="C1" /><path d="M 215328 99410 l 6658 0" class="C1" /><path d="M 51501 188121 l 15983 -42581 l 79915 -1774 l 7104 42581 l -103001 1774" class="C1" /><path d="M 23087 69248 l 0 0" class="C1" /><path d="M 51501 65700 l 0 0" class="C1" /><path d="M 136743 74571 l 0 0" class="C1" /><path d="M 69260 90539 l 0 0" class="C1" /><path d="M 101225 71022 l 0 0" class="C1" /><path d="M 103001 111829 l 0 0" class="C1" /><path d="M 58604 117152 l 0 0" class="C1" /><path d="M 24862 127797 l 0 0" class="C1" /><path d="M 46173 97636 l 0 0" class="C1" /><path d="M 39069 157959 l 0 0" class="C1" /><path d="M 124312 122475 l 0 0" class="C1" /><path d="M 166933 99410 l 0 0" class="C1" /><path d="M 182916 76345 l 0 0" class="C1" /><path d="M 184692 126023 l 0 0" class="C1" /><path d="M 190020 152636 l 0 0" class="C1" /><path d="M 188244 177476 l 0 0" class="C1" /><path d="M 127864 55054 l 0 0" class="C1" /><path d="M 154502 55054 l 0 0" class="C1" /><path d="M 78139 55054 l 0 0" class="C1" /><path d="M 285029 89010 l 992 5459 15880 -5704 Z" class="C2" /><path d="M 285525 91739 l -81298 14768" class="C1" /><path d="M 204227 106507 l -12483 0" class="C1" /><path d="M 317223 107281 l 0 5548 16644 -2774 Z" class="C2" /><path d="M 317223 110055 l -77478 0" class="C1" /><path d="M 307650 131918 l -1275 5399 16836 1125 Z" class="C2" /><path d="M 307013 134618 l -81475 -19240" class="C1" /><path d="M 272186 138890 l -1319 5389 16826 1261 Z" class="C2" /><path d="M 271526 141584 l -70851 -17335" class="C1" /><path d="M 444148 53 l 0 105118" class="C1" /><path d="M 450806 53 l 0 85146" class="C1" /><path d="M 444148 221831 l 6658 0" class="C1" /><path d="M 444148 53 l 6658 0" class="C1" /><path d="M 444148 105172 l 6658 -19973" class="C1" /><path d="M 450806 138460 l -6658 -19973" class="C1" /><path d="M 450806 138460 l 0 83371" class="C1" /><path d="M 444148 118487 l 0 103344" class="C1" /><path d="M 827739 53 l 0 105118" class="C1" /><path d="M 834397 53 l 0 85146" class="C1" /><path d="M 827739 118487 l 0 103344" class="C1" /><path d="M 834397 138460 l 0 83371" class="C1" /><path d="M 827739 221831 l 6658 0" class="C1" /><path d="M 834397 138460 l -6658 -19973" class="C1" /><path d="M 827739 105172 l 6658 -19973" class="C1" /><path d="M 827739 53 l 6658 0" class="C1" /><path d="M 380216 120706 l 11976 -416 m 17965 -624 l 11976 -416 m 17965 -624 l 11976 -416 m 17965 -624 l 11976 -416 m 17965 -624 l 11976 -416 m 17965 -624 l 11976 -416 m 17965 -624 l 11976 -416 m 17965 -624 l 11976 -416 m 17965 -624 l 11976 -416 m 17965 -624 l 11976 -416 m 17965 -624 l 11976 -416 m 17965 -624 l 11976 -416 m 17965 -624 l 11976 -416 m 17965 -624 l 11976 -416 m 17965 -624 l 11976 -416 m 17965 -624 l 11976 -416 m 17965 -624 l 11976 -416 m 17965 -624 l 11976 -416 m 17965 -624 l 11976 -416 m 17965 -624 l 11976 -416 m 17965 -624 l 11976 -416" class="C1" /><path d="M 380216 102953 l 11976 416 m 17965 624 l 11976 416 m 17965 624 l 11976 416 m 17965 624 l 11976 416 m 17965 624 l 11976 416 m 17965 624 l 11976 416 m 17965 624 l 11976 416 m 17965 624 l 11976 416 m 17965 624 l 11976 416 m 17965 624 l 11976 416 m 17965 624 l 11976 416 m 17965 624 l 11976 416 m 17965 624 l 11976 416 m 17965 624 l 11976 416 m 17965 624 l 11976 416 m 17965 624 l 11976 416 m 17965 624 l 11976 416 m 17965 624 l 11976 416 m 17965 624 l 11976 416 m 17965 624 l 11976 416 m 17965 624 l 11976 416" class="C1" /><path d="M 983356 109055 l 0 5548 16644 -2774 Z" class="C2" /><path d="M 983356 111829 l -130755 0" class="C1" /><path d="M 53852 181856 l 36831 -36831 m -27850 12903 l 12564 -12564 m 17747 42040 l 43397 -43397 m -58606 43659 l 43320 -43320 m -58528 43582 l 43242 -43242 m 48009 41671 l 450 -450 m -15658 712 l 13521 -13521 m -28730 13783 l 26593 -26593 m -41802 26855 l 39665 -39665" class="C1" /></g></svg>