<?xml version='1.0' encoding='UTF-8'?>
<!DOCTYPE svg PUBLIC "-//W3C//DTD SVG 1.1//EN" "http://www.w3.org/Graphics/SVG/1.1/DTD/svg11.dtd">
<svg xmlns="http://www.w3.org/2000/svg" xmlns:ooo="http://xml.openoffice.org/svg/export" xmlns:xlink="http://www.w3.org/1999/xlink" xmlns:presentation="http://sun.com/xmlns/staroffice/presentation" xmlns:smil="http://www.w3.org/2001/SMIL20/" xmlns:anim="urn:oasis:names:tc:opendocument:xmlns:animation:1.0" xmlns:svg="urn:oasis:names:tc:opendocument:xmlns:svg-compatible:1.0" version="1.2" width="79.080mm" height="35.730mm" viewBox="6841 12183 7908 3573" preserveAspectRatio="xMidYMid" fill-rule="evenodd" stroke-width="28.222" stroke-linejoin="round" xml:space="preserve">
 <defs class="ClipPathGroup">
  <clipPath id="presentation_clip_path" clipPathUnits="userSpaceOnUse">
   <rect x="0" y="0" width="21590" height="27940"/>
  </clipPath>
  <clipPath id="presentation_clip_path_shrink" clipPathUnits="userSpaceOnUse">
   <rect x="21" y="27" width="21547" height="27885"/>
  </clipPath>
 </defs>
 <defs class="TextShapeIndex">
  <g ooo:slide="id1" ooo:id-list="id3"/>
 </defs>
 <defs class="EmbeddedBulletChars">
  <g id="bullet-char-template-57356" transform="scale(0.00048828125,-0.00048828125)">
   <path d="M 580,1141 L 1163,571 580,0 -4,571 580,1141 Z"/>
  </g>
  <g id="bullet-char-template-57354" transform="scale(0.00048828125,-0.00048828125)">
   <path d="M 8,1128 L 1137,1128 1137,0 8,0 8,1128 Z"/>
  </g>
  <g id="bullet-char-template-10146" transform="scale(0.00048828125,-0.00048828125)">
   <path d="M 174,0 L 602,739 174,1481 1456,739 174,0 Z M 1358,739 L 309,1346 659,739 1358,739 Z"/>
  </g>
  <g id="bullet-char-template-10132" transform="scale(0.00048828125,-0.00048828125)">
   <path d="M 2015,739 L 1276,0 717,0 1260,543 174,543 174,936 1260,936 717,1481 1274,1481 2015,739 Z"/>
  </g>
  <g id="bullet-char-template-10007" transform="scale(0.00048828125,-0.00048828125)">
   <path d="M 0,-2 C -7,14 -16,27 -25,37 L 356,567 C 262,823 215,952 215,954 215,979 228,992 255,992 264,992 276,990 289,987 310,991 331,999 354,1012 L 381,999 492,748 772,1049 836,1024 860,1049 C 881,1039 901,1025 922,1006 886,937 835,863 770,784 769,783 710,716 594,584 L 774,223 C 774,196 753,168 711,139 L 727,119 C 717,90 699,76 672,76 641,76 570,178 457,381 L 164,-76 C 142,-110 111,-127 72,-127 30,-127 9,-110 8,-76 1,-67 -2,-52 -2,-32 -2,-23 -1,-13 0,-2 Z"/>
  </g>
  <g id="bullet-char-template-10004" transform="scale(0.00048828125,-0.00048828125)">
   <path d="M 285,-33 C 182,-33 111,30 74,156 52,228 41,333 41,471 41,549 55,616 82,672 116,743 169,778 240,778 293,778 328,747 346,684 L 369,508 C 377,444 397,411 428,410 L 1163,1116 C 1174,1127 1196,1133 1229,1133 1271,1133 1292,1118 1292,1087 L 1292,965 C 1292,929 1282,901 1262,881 L 442,47 C 390,-6 338,-33 285,-33 Z"/>
  </g>
  <g id="bullet-char-template-9679" transform="scale(0.00048828125,-0.00048828125)">
   <path d="M 813,0 C 632,0 489,54 383,161 276,268 223,411 223,592 223,773 276,916 383,1023 489,1130 632,1184 813,1184 992,1184 1136,1130 1245,1023 1353,916 1407,772 1407,592 1407,412 1353,268 1245,161 1136,54 992,0 813,0 Z"/>
  </g>
  <g id="bullet-char-template-8226" transform="scale(0.00048828125,-0.00048828125)">
   <path d="M 346,457 C 273,457 209,483 155,535 101,586 74,649 74,723 74,796 101,859 155,911 209,963 273,989 346,989 419,989 480,963 531,910 582,859 608,796 608,723 608,648 583,586 532,535 482,483 420,457 346,457 Z"/>
  </g>
  <g id="bullet-char-template-8211" transform="scale(0.00048828125,-0.00048828125)">
   <path d="M -4,459 L 1135,459 1135,606 -4,606 -4,459 Z"/>
  </g>
  <g id="bullet-char-template-61548" transform="scale(0.00048828125,-0.00048828125)">
   <path d="M 173,740 C 173,903 231,1043 346,1159 462,1274 601,1332 765,1332 928,1332 1067,1274 1183,1159 1299,1043 1357,903 1357,740 1357,577 1299,437 1183,322 1067,206 928,148 765,148 601,148 462,206 346,322 231,437 173,577 173,740 Z"/>
  </g>
 </defs>
 <g>
  <g id="id2" class="Master_Slide">
   <g id="bg-id2" class="Background"/>
   <g id="bo-id2" class="BackgroundObjects"/>
  </g>
 </g>
 <g class="SlideGroup">
  <g>
   <g id="container-id1">
    <g id="id1" class="Slide" clip-path="url(#presentation_clip_path)">
     <g class="Page">
      <g class="Graphic">
       <g id="id3">
        <rect class="BoundingBox" stroke="none" fill="none" x="6841" y="12183" width="7908" height="3573"/>
        <defs>
         <clipPath id="clip_path_1" clipPathUnits="userSpaceOnUse">
          <path d="M 6841,12183 L 14748,12183 14748,15755 6841,15755 6841,12183 Z "/>
         </clipPath>
        </defs>
        <g clip-path="url(#clip_path_1)">
         <path fill="rgb(255,255,255)" stroke="none" d="M 6858,12175 L 14740,12175 14740,15739 6858,15739 6858,12175 Z "/>
         <path fill="none" stroke="rgb(255,255,255)" stroke-width="51" stroke-linejoin="round" stroke-linecap="round" d="M 6858,12175 L 14740,12175 14740,15739 6858,15739 6858,12175 Z "/>
         <path fill="rgb(0,0,0)" stroke="none" d="M 7747,12505 L 7696,12505 7696,14833 7747,14833 7747,12505 Z "/>
         <path fill="rgb(0,0,0)" stroke="none" d="M 8204,12970 L 8153,12970 8153,14367 8153,14367 8162,14376 8170,14384 8179,14393 8179,14393 8187,14393 8187,14342 8179,14342 8204,14367 8196,14359 8187,14351 8179,14342 8179,14367 8204,14367 8204,12970 Z "/>
         <path fill="rgb(0,0,0)" stroke="none" d="M 9136,12970 L 9085,12970 9085,13047 9136,13047 9136,12970 Z "/>
         <path fill="rgb(0,0,0)" stroke="none" d="M 9914,12505 L 9864,12505 9864,13047 9914,13047 9914,12505 Z "/>
         <path fill="rgb(0,0,0)" stroke="none" d="M 7722,14808 L 7722,14859 9889,14859 9889,14808 7722,14808 Z "/>
         <path fill="rgb(0,0,0)" stroke="none" d="M 8179,14342 L 8179,14393 9110,14393 9110,14342 8179,14342 Z "/>
         <path fill="rgb(0,0,0)" stroke="none" d="M 8179,12945 L 8179,12996 9110,12996 9110,12945 8179,12945 Z "/>
         <path fill="rgb(0,0,0)" stroke="none" d="M 7722,12479 L 7722,12530 9889,12530 9889,12479 7722,12479 Z "/>
         <path fill="rgb(0,0,0)" stroke="none" d="M 9136,13699 L 9093,13715 9161,13842 9161,13842 9161,13851 9271,13953 9279,13953 9288,13961 9423,14012 9423,14012 9576,14012 9576,14012 9584,14012 9720,13961 9720,13953 9728,13953 9838,13851 9838,13842 9847,13842 9914,13715 9872,13699 9804,13826 9821,13834 9804,13817 9694,13919 9711,13936 9711,13910 9576,13961 9576,13986 9576,13961 9423,13961 9423,13986 9432,13961 9296,13910 9288,13936 9305,13919 9195,13817 9178,13834 9203,13826 9136,13699 Z "/>
         <path fill="rgb(0,0,0)" stroke="none" d="M 9466,13605 L 9440,13648 9474,13673 9474,13665 9483,13673 9483,13673 9525,13673 9525,13673 9533,13665 9542,13665 9567,13639 9533,13605 9508,13631 9525,13622 9517,13631 9525,13648 9525,13622 9483,13622 9483,13648 9500,13631 9466,13605 Z "/>
         <path fill="rgb(0,0,0)" stroke="none" d="M 9136,13707 L 9085,13707 9085,14367 9136,14367 9136,13707 Z "/>
         <path fill="rgb(0,0,0)" stroke="none" d="M 9914,13707 L 9864,13707 9864,14833 9914,14833 9914,13707 Z "/>
         <path fill="rgb(0,0,0)" stroke="none" d="M 9136,13038 L 9093,13055 9432,13631 9474,13614 9136,13038 Z "/>
         <path fill="rgb(0,0,0)" stroke="none" d="M 9914,13055 L 9872,13038 9533,13614 9576,13631 9914,13055 Z "/>
         <path fill="rgb(0,0,0)" stroke="none" d="M 8170,13258 L 8187,13309 8246,13284 8246,13275 8255,13267 8263,13267 8280,13216 8280,13207 8280,13207 8280,13207 8263,13148 8255,13140 8246,13131 8246,13123 8187,13097 8170,13148 8230,13174 8221,13157 8230,13165 8238,13148 8213,13157 8230,13216 8255,13207 8230,13207 8213,13258 8230,13241 8221,13250 8238,13258 8230,13233 8170,13258 Z "/>
         <path fill="rgb(0,0,0)" stroke="none" d="M 7722,13309 L 7713,13258 7662,13275 7654,13284 7645,13292 7637,13292 7611,13351 7611,13360 7611,13360 7620,13368 7645,13419 7645,13419 7654,13428 7654,13436 7705,13461 7713,13461 7713,13461 7722,13461 7722,13411 7713,13411 7713,13436 7722,13411 7671,13385 7679,13402 7671,13394 7662,13411 7688,13402 7662,13351 7637,13360 7662,13368 7688,13309 7671,13318 7679,13309 7662,13301 7671,13326 7722,13309 Z "/>
         <path fill="rgb(0,0,0)" stroke="none" d="M 7722,13411 L 7722,13461 8179,13461 8179,13411 7722,13411 Z "/>
         <path fill="rgb(0,0,0)" stroke="none" d="M 7722,13614 L 7705,13563 7654,13588 7654,13597 7645,13605 7637,13605 7611,13665 7611,13673 7611,13673 7620,13682 7645,13732 7645,13732 7654,13741 7654,13749 7705,13775 7713,13775 7713,13775 7722,13775 7722,13724 7713,13724 7713,13749 7722,13724 7671,13699 7679,13715 7671,13707 7662,13724 7688,13715 7662,13665 7637,13673 7662,13682 7688,13622 7671,13631 7679,13622 7662,13614 7671,13639 7722,13614 Z "/>
         <path fill="rgb(0,0,0)" stroke="none" d="M 8179,13563 L 8187,13614 8246,13597 8246,13588 8255,13580 8263,13580 8280,13521 8280,13512 8280,13512 8280,13512 8263,13461 8255,13453 8246,13445 8246,13436 8187,13411 8170,13461 8230,13487 8221,13470 8230,13478 8238,13461 8213,13470 8230,13521 8255,13512 8230,13512 8213,13572 8230,13555 8221,13563 8238,13572 8238,13546 8179,13563 Z "/>
         <path fill="rgb(0,0,0)" stroke="none" d="M 7722,13724 L 7722,13775 8179,13775 8179,13724 7722,13724 Z "/>
         <path fill="rgb(0,0,0)" stroke="none" d="M 7722,13927 L 7705,13876 7654,13902 7654,13910 7645,13919 7645,13919 7620,13970 7611,13978 7611,13978 7611,13986 7637,14046 7645,14046 7654,14054 7662,14063 7713,14080 7713,14080 7722,14080 7722,14029 7713,14029 7713,14054 7722,14029 7671,14012 7679,14029 7671,14020 7662,14037 7688,14029 7662,13970 7637,13978 7662,13986 7688,13936 7671,13944 7679,13936 7662,13927 7671,13953 7722,13927 Z "/>
         <path fill="rgb(0,0,0)" stroke="none" d="M 8170,13876 L 8187,13927 8246,13902 8246,13893 8255,13885 8263,13885 8280,13834 8280,13826 8280,13826 8280,13826 8263,13766 8255,13758 8246,13749 8246,13741 8187,13724 8179,13775 8238,13792 8221,13775 8230,13783 8238,13766 8213,13775 8230,13834 8255,13826 8230,13826 8213,13876 8230,13859 8221,13868 8238,13876 8230,13851 8170,13876 Z "/>
         <path fill="rgb(0,0,0)" stroke="none" d="M 7722,14037 L 7722,14088 8179,14088 8179,14037 7722,14037 Z "/>
         <path fill="rgb(0,0,0)" stroke="none" d="M 8170,14190 L 8187,14240 8246,14215 8246,14207 8255,14198 8263,14198 8280,14147 8280,14139 8280,14139 8280,14139 8263,14080 8255,14071 8246,14063 8246,14054 8187,14029 8170,14080 8230,14105 8221,14088 8230,14097 8238,14080 8213,14088 8230,14147 8255,14139 8230,14139 8213,14190 8230,14173 8221,14181 8238,14190 8230,14164 8170,14190 Z "/>
         <path fill="rgb(0,0,0)" stroke="none" d="M 7722,14240 L 7722,14190 7247,14190 7247,14240 7722,14240 Z "/>
         <path fill="rgb(0,0,0)" stroke="none" d="M 8179,13157 L 8179,13106 7264,13106 7264,13157 8179,13157 Z "/>
         <path fill="rgb(0,0,0)" stroke="none" d="M 12641,13648 L 12598,13631 12268,14207 12311,14224 12641,13648 Z "/>
         <path fill="rgb(0,0,0)" stroke="none" d="M 10448,15400 L 10448,15451 12615,15451 12615,15400 10448,15400 Z "/>
         <path fill="rgb(0,0,0)" stroke="none" d="M 11870,14291 L 11819,14308 11879,14435 11887,14435 11887,14444 11997,14545 12006,14545 12006,14554 12150,14613 12158,14613 12302,14613 12302,14613 12311,14613 12446,14554 12446,14545 12454,14545 12565,14444 12565,14435 12573,14435 12641,14308 12598,14291 12531,14418 12548,14427 12531,14410 12421,14511 12438,14528 12429,14503 12294,14562 12302,14588 12302,14562 12158,14562 12158,14588 12167,14562 12023,14503 12014,14528 12031,14511 11921,14410 11921,14418 11904,14427 11930,14418 11870,14291 Z "/>
         <path fill="rgb(0,0,0)" stroke="none" d="M 10448,13080 L 10448,13131 12615,13131 12615,13080 10448,13080 Z "/>
         <path fill="rgb(0,0,0)" stroke="none" d="M 10939,13572 L 10888,13572 10888,14960 10939,14960 10939,13572 Z "/>
         <path fill="rgb(0,0,0)" stroke="none" d="M 10473,13106 L 10422,13106 10422,15426 10473,15426 10473,13106 Z "/>
         <path fill="rgb(0,0,0)" stroke="none" d="M 11870,14300 L 11819,14300 11819,14960 11870,14960 11870,14300 Z "/>
         <path fill="rgb(0,0,0)" stroke="none" d="M 10914,14935 L 10914,14986 11845,14986 11845,14935 10914,14935 Z "/>
         <path fill="rgb(0,0,0)" stroke="none" d="M 10914,13546 L 10914,13597 11845,13597 11845,13546 10914,13546 Z "/>
         <path fill="rgb(0,0,0)" stroke="none" d="M 11870,13631 L 11828,13648 12158,14224 12200,14207 11870,13631 Z "/>
         <path fill="rgb(0,0,0)" stroke="none" d="M 12192,14198 L 12158,14232 12192,14266 12200,14266 12209,14274 12209,14274 12251,14274 12251,14274 12260,14266 12268,14266 12302,14232 12268,14198 12234,14232 12251,14224 12243,14232 12251,14249 12251,14224 12209,14224 12217,14232 12209,14224 12209,14249 12226,14232 12192,14198 Z "/>
         <path fill="rgb(0,0,0)" stroke="none" d="M 11870,13572 L 11819,13572 11819,13639 11870,13639 11870,13572 Z "/>
         <path fill="rgb(0,0,0)" stroke="none" d="M 12641,14300 L 12590,14300 12590,15426 12641,15426 12641,14300 Z "/>
         <path fill="rgb(0,0,0)" stroke="none" d="M 14385,12437 L 14334,12437 14334,12784 14334,12784 14343,12793 14351,12801 14360,12810 14360,12810 14368,12810 14368,12759 14360,12759 14385,12784 14376,12776 14368,12767 14360,12759 14360,12784 14385,12784 14385,12437 Z "/>
         <path fill="rgb(0,0,0)" stroke="none" d="M 14385,13199 L 14334,13199 14334,13927 14334,13927 14343,13936 14351,13944 14360,13953 14360,13953 14368,13953 14368,13902 14360,13902 14385,13927 14376,13919 14368,13910 14360,13902 14360,13927 14385,13927 14385,13199 Z "/>
         <path fill="rgb(0,0,0)" stroke="none" d="M 13919,13275 L 13902,13318 14063,13411 14080,13368 13919,13275 Z "/>
         <path fill="rgb(0,0,0)" stroke="none" d="M 14385,12793 L 14343,12776 14131,13140 14173,13157 14385,12793 Z "/>
         <path fill="rgb(0,0,0)" stroke="none" d="M 14114,13148 L 14148,13182 14165,13165 14131,13131 14114,13148 Z "/>
         <path fill="rgb(0,0,0)" stroke="none" d="M 12971,12412 L 12971,12462 14360,12462 14360,12412 12971,12412 Z "/>
         <path fill="rgb(0,0,0)" stroke="none" d="M 12590,13639 L 12641,13639 12641,13106 12590,13106 12590,13639 Z "/>
         <path fill="rgb(0,0,0)" stroke="none" d="M 11853,14461 L 11836,14418 10905,14943 10922,14986 11853,14461 Z "/>
         <path fill="rgb(0,0,0)" stroke="none" d="M 12607,14283 L 12624,14325 14368,13224 14351,13182 12607,14283 Z "/>
         <path fill="rgb(0,0,0)" stroke="none" d="M 12251,14224 L 12268,14266 14139,13191 14122,13148 12251,14224 Z "/>
         <path fill="rgb(0,0,0)" stroke="none" d="M 11836,14283 L 11853,14325 12141,14164 12124,14122 11836,14283 Z "/>
         <path fill="rgb(0,0,0)" stroke="none" d="M 12607,13614 L 12624,13665 14368,12810 14351,12759 12607,13614 Z "/>
         <path fill="rgb(0,0,0)" stroke="none" d="M 12615,13080 L 12624,13131 14368,12462 14360,12412 12615,13080 Z "/>
         <path fill="rgb(0,0,0)" stroke="none" d="M 12607,15409 L 12632,15451 14376,13953 14351,13910 12607,15409 Z "/>
         <path fill="rgb(0,0,0)" stroke="none" d="M 10448,13080 L 10456,13131 12979,12462 12971,12412 10448,13080 Z "/>
         <path fill="rgb(0,0,0)" stroke="none" d="M 7586,13148 L 7595,13097 7484,13064 7476,13114 7586,13148 Z "/>
         <path fill="rgb(0,0,0)" stroke="none" d="M 7595,13148 L 7586,13097 7476,13140 7484,13191 7595,13148 Z "/>
         <path fill="rgb(0,0,0)" stroke="none" d="M 9474,13656 L 9440,13622 9195,13859 9229,13893 9474,13656 Z "/>
         <path fill="rgb(0,0,0)" stroke="none" d="M 9500,13656 L 9457,13639 9313,13944 9356,13961 9500,13656 Z "/>
         <path fill="rgb(0,0,0)" stroke="none" d="M 9525,13656 L 9474,13656 9449,13995 9500,13995 9525,13656 Z "/>
         <path fill="rgb(0,0,0)" stroke="none" d="M 9542,13648 L 9491,13656 9593,13986 9644,13978 9542,13648 Z "/>
         <path fill="rgb(0,0,0)" stroke="none" d="M 9559,13622 L 9525,13656 9745,13910 9779,13876 9559,13622 Z "/>
         <path fill="rgb(0,0,0)" stroke="none" d="M 9279,13783 L 9322,13800 9347,13758 9305,13741 9279,13783 Z "/>
         <path fill="rgb(0,0,0)" stroke="none" d="M 9288,13766 L 9305,13817 9356,13792 9339,13741 9288,13766 Z "/>
         <path fill="rgb(0,0,0)" stroke="none" d="M 9364,13834 L 9415,13842 9423,13800 9373,13792 9364,13834 Z "/>
         <path fill="rgb(0,0,0)" stroke="none" d="M 9373,13817 L 9406,13851 9440,13817 9406,13783 9373,13817 Z "/>
         <path fill="rgb(0,0,0)" stroke="none" d="M 9457,13859 L 9508,13851 9500,13809 9449,13817 9457,13859 Z "/>
         <path fill="rgb(0,0,0)" stroke="none" d="M 9457,13842 L 9508,13859 9525,13817 9474,13800 9457,13842 Z "/>
         <path fill="rgb(0,0,0)" stroke="none" d="M 9559,13842 L 9601,13826 9576,13783 9533,13800 9559,13842 Z "/>
         <path fill="rgb(0,0,0)" stroke="none" d="M 9550,13834 L 9601,13834 9601,13783 9550,13783 9550,13834 Z "/>
         <path fill="rgb(0,0,0)" stroke="none" d="M 9652,13800 L 9669,13749 9635,13732 9618,13783 9652,13800 Z "/>
         <path fill="rgb(0,0,0)" stroke="none" d="M 9635,13783 L 9686,13766 9669,13724 9618,13741 9635,13783 Z "/>
        </g>
       </g>
      </g>
     </g>
    </g>
   </g>
  </g>
 </g>
</svg>