<?xml version='1.0' encoding='utf-8'?>
<svg xmlns="http://www.w3.org/2000/svg" width="242.2mm" height="186.5mm" viewBox="0 0 1000000 770025"><defs><style>.C1 {stroke: #000000; stroke-width: 1032; stroke-opacity: 1.000; fill: none; fill-opacity: 1.000;}</style><style>.C2 {stroke: none; stroke-width: none; stroke-opacity: 1.000; fill: #000000; fill-opacity: 1.000;}</style></defs><rect fill="#ffffff" x="0" y="0" width="1000000" height="770025" fill-opacity="1.0" /><g stroke-linecap="round" stroke-linejoin="round" fill-rule="evenodd"><path d="M 107430 267546 l -0 57345" class="C1" /><path d="M 248504 770006 l 0 -161022" class="C1" /><path d="M 161022 511878 c 2755 9612 9471 18758 16945 23072 c 7473 4315 14190 2925 16945 -3506" class="C1" /><path d="M 107430 527535 c 15731 36301 42198 67927 70537 84289 c 28339 16362 54806 15296 70537 -2840" class="C1" /><path d="M 248504 406340 l 0 -57345" class="C1" /><path d="M 107430 527535 l 0 161022" class="C1" /><path d="M 107430 324891 l 53592 186987" class="C1" /><path d="M 248504 406340 l -53592 125105" class="C1" /><path d="M 248504 608984 l 569051 -328542" class="C1" /><path d="M 701344 241496 c 28359 37305 64754 57903 92749 52492" class="C1" /><path d="M 817555 77798 l -53592 125105" class="C1" /><path d="M 759883 207699 c 1770 -1014 3158 -2647 4079 -4797" class="C1" /><path d="M 817555 441464 l 0 -161022" class="C1" /><path d="M 817555 77798 l 0 -57345" class="C1" /><path d="M 62498 644830 l 42912 -24775 m 10728 -6194 l 42912 -24775 m 10728 -6194 l 42912 -24775 m 10728 -6194 l 42912 -24775 m 10728 -6194 l 42912 -24775 m 10728 -6194 l 42912 -24775 m 10728 -6194 l 42912 -24775 m 10728 -6194 l 42912 -24775 m 10728 -6194 l 42912 -24775 m 10728 -6194 l 42912 -24775 m 10728 -6194 l 42912 -24775 m 10728 -6194 l 42912 -24775 m 10728 -6194 l 42912 -24775 m 10728 -6194 l 42912 -24775 m 10728 -6194 l 42912 -24775 m 10728 -6194 l 42912 -24775 m 10728 -6194 l 28303 -16341" class="C1" /><path d="M 190496 536424 l 569387 -328725" class="C1" /><path d="M 157263 498764 l -49833 28771" class="C1" /><path d="M 62498 644830 l 273138 -163793 l 243046 -152629 l 370356 -240729" class="C1" /><path d="M 62498 644830 l 273138 -149918 l 231472 -124878 l 379615 -180379" class="C1" /><path d="M 62498 644830 l -62498 36083" class="C1" /><path d="M 938464 189654 l 40 809 119 802 197 786 273 763 347 733 417 695 483 651 544 600 600 544 651 483 695 417 733 347 763 273 786 197 802 119 809 40 809 -40 802 -119 786 -197 763 -273 733 -347 695 -417 651 -483 600 -544 544 -600 483 -651 417 -695 347 -733 273 -763 197 -786 119 -802 40 -809 -8258 0 Z" class="C2" /><path d="M 954981 189654 l -40 -809 -119 -802 -197 -786 -273 -763 -347 -733 -417 -695 -483 -651 -544 -600 -600 -544 -651 -483 -695 -417 -733 -347 -763 -273 -786 -197 -802 -119 -809 -40 -809 40 -802 119 -786 197 -763 273 -733 347 -695 417 -651 483 -600 544 -544 600 -483 651 -417 695 -347 733 -273 763 -197 786 -119 802 -40 809 8258 0 Z" class="C2" /><path d="M 940779 87679 l 40 809 119 802 197 786 273 763 347 733 417 695 483 651 544 600 600 544 651 483 695 417 733 347 763 273 786 197 802 119 809 40 809 -40 802 -119 786 -197 763 -273 733 -347 695 -417 651 -483 600 -544 544 -600 483 -651 417 -695 347 -733 273 -763 197 -786 119 -802 40 -809 -8258 0 Z" class="C2" /><path d="M 957295 87679 l -40 -809 -119 -802 -197 -786 -273 -763 -347 -733 -417 -695 -483 -651 -544 -600 -600 -544 -651 -483 -695 -417 -733 -347 -763 -273 -786 -197 -802 -119 -809 -40 -809 40 -802 119 -786 197 -763 273 -733 347 -695 417 -651 483 -600 544 -544 600 -483 651 -417 695 -347 733 -273 763 -197 786 -119 802 -40 809 8258 0 Z" class="C2" /><path d="M 248504 406340 l 569051 -328542" class="C1" /><path d="M 895642 19 l 104358 60251" class="C1" /><path d="M 1000000 60270 l 0 207973" class="C1" /><path d="M 1000000 268243 l -104358 -60251" class="C1" /><path d="M 895642 207991 l 0 -207973" class="C1" /></g></svg>