<?xml version="1.0" encoding="UTF-8"?>
<!DOCTYPE svg PUBLIC "-//W3C//DTD SVG 1.1//EN" "http://www.w3.org/Graphics/SVG/1.1/DTD/svg11.dtd">
<svg version="1.2" width="94.230mm" height="43.430mm" viewBox="6083 11798 9423 4343" preserveAspectRatio="xMidYMid" fill-rule="evenodd" stroke-width="28.222" stroke-linejoin="round" xmlns="http://www.w3.org/2000/svg" xmlns:ooo="http://xml.openoffice.org/svg/export" xmlns:xlink="http://www.w3.org/1999/xlink" xmlns:presentation="http://sun.com/xmlns/staroffice/presentation" xmlns:smil="http://www.w3.org/2001/SMIL20/" xmlns:anim="urn:oasis:names:tc:opendocument:xmlns:animation:1.0" xmlns:svg="urn:oasis:names:tc:opendocument:xmlns:svg-compatible:1.0" xml:space="preserve">
 <defs class="ClipPathGroup">
  <clipPath id="presentation_clip_path" clipPathUnits="userSpaceOnUse">
   <rect x="0" y="0" width="21590" height="27940"/>
  </clipPath>
  <clipPath id="presentation_clip_path_shrink" clipPathUnits="userSpaceOnUse">
   <rect x="21" y="27" width="21547" height="27885"/>
  </clipPath>
 </defs>
 <defs class="TextShapeIndex">
  <g ooo:slide="id1" ooo:id-list="id3"/>
 </defs>
 <defs class="EmbeddedBulletChars">
  <g id="bullet-char-template-57356" transform="scale(0.00048828125,-0.00048828125)">
   <path d="M 580,1141 L 1163,571 580,0 -4,571 580,1141 Z"/>
  </g>
  <g id="bullet-char-template-57354" transform="scale(0.00048828125,-0.00048828125)">
   <path d="M 8,1128 L 1137,1128 1137,0 8,0 8,1128 Z"/>
  </g>
  <g id="bullet-char-template-10146" transform="scale(0.00048828125,-0.00048828125)">
   <path d="M 174,0 L 602,739 174,1481 1456,739 174,0 Z M 1358,739 L 309,1346 659,739 1358,739 Z"/>
  </g>
  <g id="bullet-char-template-10132" transform="scale(0.00048828125,-0.00048828125)">
   <path d="M 2015,739 L 1276,0 717,0 1260,543 174,543 174,936 1260,936 717,1481 1274,1481 2015,739 Z"/>
  </g>
  <g id="bullet-char-template-10007" transform="scale(0.00048828125,-0.00048828125)">
   <path d="M 0,-2 C -7,14 -16,27 -25,37 L 356,567 C 262,823 215,952 215,954 215,979 228,992 255,992 264,992 276,990 289,987 310,991 331,999 354,1012 L 381,999 492,748 772,1049 836,1024 860,1049 C 881,1039 901,1025 922,1006 886,937 835,863 770,784 769,783 710,716 594,584 L 774,223 C 774,196 753,168 711,139 L 727,119 C 717,90 699,76 672,76 641,76 570,178 457,381 L 164,-76 C 142,-110 111,-127 72,-127 30,-127 9,-110 8,-76 1,-67 -2,-52 -2,-32 -2,-23 -1,-13 0,-2 Z"/>
  </g>
  <g id="bullet-char-template-10004" transform="scale(0.00048828125,-0.00048828125)">
   <path d="M 285,-33 C 182,-33 111,30 74,156 52,228 41,333 41,471 41,549 55,616 82,672 116,743 169,778 240,778 293,778 328,747 346,684 L 369,508 C 377,444 397,411 428,410 L 1163,1116 C 1174,1127 1196,1133 1229,1133 1271,1133 1292,1118 1292,1087 L 1292,965 C 1292,929 1282,901 1262,881 L 442,47 C 390,-6 338,-33 285,-33 Z"/>
  </g>
  <g id="bullet-char-template-9679" transform="scale(0.00048828125,-0.00048828125)">
   <path d="M 813,0 C 632,0 489,54 383,161 276,268 223,411 223,592 223,773 276,916 383,1023 489,1130 632,1184 813,1184 992,1184 1136,1130 1245,1023 1353,916 1407,772 1407,592 1407,412 1353,268 1245,161 1136,54 992,0 813,0 Z"/>
  </g>
  <g id="bullet-char-template-8226" transform="scale(0.00048828125,-0.00048828125)">
   <path d="M 346,457 C 273,457 209,483 155,535 101,586 74,649 74,723 74,796 101,859 155,911 209,963 273,989 346,989 419,989 480,963 531,910 582,859 608,796 608,723 608,648 583,586 532,535 482,483 420,457 346,457 Z"/>
  </g>
  <g id="bullet-char-template-8211" transform="scale(0.00048828125,-0.00048828125)">
   <path d="M -4,459 L 1135,459 1135,606 -4,606 -4,459 Z"/>
  </g>
  <g id="bullet-char-template-61548" transform="scale(0.00048828125,-0.00048828125)">
   <path d="M 173,740 C 173,903 231,1043 346,1159 462,1274 601,1332 765,1332 928,1332 1067,1274 1183,1159 1299,1043 1357,903 1357,740 1357,577 1299,437 1183,322 1067,206 928,148 765,148 601,148 462,206 346,322 231,437 173,577 173,740 Z"/>
  </g>
 </defs>
 <g>
  <g id="id2" class="Master_Slide">
   <g id="bg-id2" class="Background"/>
   <g id="bo-id2" class="BackgroundObjects"/>
  </g>
 </g>
 <g class="SlideGroup">
  <g>
   <g id="container-id1">
    <g id="id1" class="Slide" clip-path="url(#presentation_clip_path)">
     <g class="Page">
      <g class="Graphic">
       <g id="id3">
        <rect class="BoundingBox" stroke="none" fill="none" x="6083" y="11798" width="9423" height="4343"/>
        <defs>
         <clipPath id="clip_path_1" clipPathUnits="userSpaceOnUse">
          <path d="M 6083,11798 L 15505,11798 15505,16140 6083,16140 6083,11798 Z "/>
         </clipPath>
        </defs>
        <g clip-path="url(#clip_path_1)">
         <path fill="rgb(255,255,255)" stroke="none" d="M 6075,11790 L 15480,11790 15480,16115 6075,16115 6075,11790 Z "/>
         <path fill="none" stroke="rgb(255,255,255)" stroke-width="34" stroke-linejoin="round" stroke-linecap="round" d="M 6075,11790 L 15480,11790 15480,16115 6075,16115 6075,11790 Z "/>
         <path fill="none" stroke="rgb(0,0,0)" stroke-width="34" stroke-linejoin="round" stroke-linecap="round" d="M 7607,15100 L 7565,14956 7556,14812 7556,14812 "/>
         <path fill="none" stroke="rgb(0,0,0)" stroke-width="34" stroke-linejoin="round" stroke-linecap="round" d="M 7607,15100 L 7590,15032 7607,14964 7700,14820 7810,14702 7852,14651 7878,14583 7886,14516 7878,14448 7827,14295 7742,14152 7641,14033 7641,14033 "/>
         <path fill="none" stroke="rgb(0,0,0)" stroke-width="34" stroke-linejoin="round" stroke-linecap="round" d="M 7573,15083 L 7480,14880 7455,14778 7480,14685 7531,14583 7573,14473 7573,14355 7531,14262 7531,14262 "/>
         <path fill="none" stroke="rgb(0,0,0)" stroke-width="34" stroke-linejoin="round" stroke-linecap="round" d="M 7573,15083 L 7539,14973 7539,14863 7582,14761 7649,14668 7683,14575 7658,14473 7607,14363 7531,14262 7531,14262 "/>
         <path fill="none" stroke="rgb(0,0,0)" stroke-width="34" stroke-linejoin="round" stroke-linecap="round" d="M 7641,15091 L 7607,14964 7607,14964 "/>
         <path fill="none" stroke="rgb(0,0,0)" stroke-width="34" stroke-linejoin="round" stroke-linecap="round" d="M 7641,15091 L 7632,15007 7632,14913 7632,14913 "/>
         <path fill="none" stroke="rgb(0,0,0)" stroke-width="34" stroke-linejoin="round" stroke-linecap="round" d="M 7725,14287 L 7683,14177 7615,14075 7539,13999 7446,13940 7446,13940 "/>
         <path fill="none" stroke="rgb(0,0,0)" stroke-width="34" stroke-linejoin="round" stroke-linecap="round" d="M 7632,14414 L 7641,14279 7615,14135 7548,14016 7497,13974 7446,13940 7446,13940 "/>
         <path fill="none" stroke="rgb(0,0,0)" stroke-width="34" stroke-linejoin="round" stroke-linecap="round" d="M 7683,14549 L 7725,14422 7725,14287 7692,14160 7641,14033 7641,14033 "/>
         <path fill="none" stroke="rgb(0,0,0)" stroke-width="34" stroke-linejoin="round" stroke-linecap="round" d="M 7548,15117 L 7658,15117 7658,15117 "/>
         <path fill="none" stroke="rgb(0,0,0)" stroke-width="34" stroke-linejoin="round" stroke-linecap="round" d="M 7548,15117 L 7548,15193 7556,15193 "/>
         <path fill="none" stroke="rgb(0,0,0)" stroke-width="34" stroke-linejoin="round" stroke-linecap="round" d="M 7658,15117 L 7658,15193 7658,15193 "/>
         <path fill="none" stroke="rgb(0,0,0)" stroke-width="34" stroke-linejoin="round" stroke-linecap="round" d="M 7395,15701 L 7395,15955 7395,15955 "/>
         <path fill="none" stroke="rgb(0,0,0)" stroke-width="34" stroke-linejoin="round" stroke-linecap="round" d="M 7819,15701 L 7819,15955 7819,15955 "/>
         <path fill="none" stroke="rgb(0,0,0)" stroke-width="34" stroke-linejoin="round" stroke-linecap="round" d="M 7548,15193 L 7395,15701 7395,15701 "/>
         <path fill="none" stroke="rgb(0,0,0)" stroke-width="34" stroke-linejoin="round" stroke-linecap="round" d="M 7658,15193 L 7819,15701 7819,15701 "/>
         <path fill="none" stroke="rgb(0,0,0)" stroke-width="34" stroke-linejoin="round" stroke-linecap="round" d="M 7395,15701 L 7819,15701 7819,15701 "/>
         <path fill="none" stroke="rgb(0,0,0)" stroke-width="34" stroke-linejoin="round" stroke-linecap="round" d="M 7548,15193 L 7658,15193 7658,15193 "/>
         <path fill="none" stroke="rgb(0,0,0)" stroke-width="34" stroke-linejoin="round" stroke-linecap="round" d="M 8530,13026 L 8530,12755 8513,12645 8454,12551 8360,12492 8250,12475 6930,12475 6828,12492 6735,12551 6676,12645 6650,12755 6650,13618 6676,13728 6735,13821 6828,13881 6930,13906 8250,13906 8360,13881 8454,13821 8513,13728 8530,13618 8530,13364 8530,13364 "/>
         <path fill="none" stroke="rgb(0,0,0)" stroke-width="34" stroke-linejoin="round" stroke-linecap="round" d="M 8479,13026 L 8479,12755 8445,12645 8360,12560 8250,12526 6930,12526 6820,12560 6735,12645 6710,12755 6710,13618 6735,13737 6820,13813 6930,13847 8250,13847 8360,13813 8445,13737 8479,13618 8479,13364 8479,13364 "/>
         <path fill="none" stroke="rgb(0,0,0)" stroke-width="34" stroke-linejoin="round" stroke-linecap="round" d="M 8479,13356 L 8530,13356 8530,13356 "/>
         <path fill="none" stroke="rgb(0,0,0)" stroke-width="34" stroke-linejoin="round" stroke-linecap="round" d="M 8479,13034 L 8530,13034 8530,13034 "/>
         <path fill="none" stroke="rgb(0,0,0)" stroke-width="34" stroke-linejoin="round" stroke-linecap="round" d="M 7090,13779 L 7226,13423 7903,13407 7963,13771 7090,13779 Z "/>
         <path fill="rgb(0,0,0)" stroke="none" d="M 9063,12941 L 9080,12983 9207,12941 9063,12941 Z "/>
         <path fill="none" stroke="rgb(0,0,0)" stroke-width="34" stroke-linejoin="round" stroke-linecap="round" d="M 9063,12941 L 9080,12983 9207,12941 9063,12941 Z "/>
         <path fill="none" stroke="rgb(0,0,0)" stroke-width="34" stroke-linejoin="round" stroke-linecap="round" d="M 9063,12941 L 9080,12983 9207,12941 9063,12941 Z "/>
         <path fill="none" stroke="rgb(0,0,0)" stroke-width="34" stroke-linejoin="round" stroke-linecap="round" d="M 9072,12966 L 8386,13085 8386,13085 "/>
         <path fill="none" stroke="rgb(0,0,0)" stroke-width="34" stroke-linejoin="round" stroke-linecap="round" d="M 8386,13093 L 8276,13093 8276,13093 "/>
         <path fill="rgb(0,0,0)" stroke="none" d="M 9343,13093 L 9343,13144 9478,13119 9343,13093 Z "/>
         <path fill="none" stroke="rgb(0,0,0)" stroke-width="34" stroke-linejoin="round" stroke-linecap="round" d="M 9343,13093 L 9343,13144 9478,13119 9343,13093 Z "/>
         <path fill="none" stroke="rgb(0,0,0)" stroke-width="34" stroke-linejoin="round" stroke-linecap="round" d="M 9343,13093 L 9343,13144 9478,13119 9343,13093 Z "/>
         <path fill="none" stroke="rgb(0,0,0)" stroke-width="34" stroke-linejoin="round" stroke-linecap="round" d="M 9343,13119 L 8682,13119 8682,13119 "/>
         <path fill="rgb(0,0,0)" stroke="none" d="M 9258,13305 L 9249,13347 9393,13356 9258,13305 Z "/>
         <path fill="none" stroke="rgb(0,0,0)" stroke-width="34" stroke-linejoin="round" stroke-linecap="round" d="M 9258,13305 L 9249,13347 9393,13356 9258,13305 Z "/>
         <path fill="none" stroke="rgb(0,0,0)" stroke-width="34" stroke-linejoin="round" stroke-linecap="round" d="M 9258,13305 L 9249,13347 9393,13356 9258,13305 Z "/>
         <path fill="none" stroke="rgb(0,0,0)" stroke-width="34" stroke-linejoin="round" stroke-linecap="round" d="M 9258,13330 L 8564,13161 8564,13161 "/>
         <path fill="rgb(0,0,0)" stroke="none" d="M 8962,13364 L 8945,13407 9089,13423 8962,13364 Z "/>
         <path fill="none" stroke="rgb(0,0,0)" stroke-width="34" stroke-linejoin="round" stroke-linecap="round" d="M 8962,13364 L 8945,13407 9089,13423 8962,13364 Z "/>
         <path fill="none" stroke="rgb(0,0,0)" stroke-width="34" stroke-linejoin="round" stroke-linecap="round" d="M 8962,13364 L 8945,13407 9089,13423 8962,13364 Z "/>
         <path fill="none" stroke="rgb(0,0,0)" stroke-width="34" stroke-linejoin="round" stroke-linecap="round" d="M 8953,13390 L 8352,13237 8352,13237 "/>
         <path fill="none" stroke="rgb(0,0,0)" stroke-width="34" stroke-linejoin="round" stroke-linecap="round" d="M 10418,12187 L 10418,13076 10418,13076 "/>
         <path fill="none" stroke="rgb(0,0,0)" stroke-width="34" stroke-linejoin="round" stroke-linecap="round" d="M 10477,12187 L 10477,12907 10477,12907 "/>
         <path fill="none" stroke="rgb(0,0,0)" stroke-width="34" stroke-linejoin="round" stroke-linecap="round" d="M 10418,14067 L 10469,14067 10477,14067 "/>
         <path fill="none" stroke="rgb(0,0,0)" stroke-width="34" stroke-linejoin="round" stroke-linecap="round" d="M 10418,12187 L 10469,12187 10477,12187 "/>
         <path fill="none" stroke="rgb(0,0,0)" stroke-width="34" stroke-linejoin="round" stroke-linecap="round" d="M 10418,13076 L 10469,12907 10477,12907 "/>
         <path fill="none" stroke="rgb(0,0,0)" stroke-width="34" stroke-linejoin="round" stroke-linecap="round" d="M 10477,13356 L 10418,13186 10418,13186 "/>
         <path fill="none" stroke="rgb(0,0,0)" stroke-width="34" stroke-linejoin="round" stroke-linecap="round" d="M 10477,13356 L 10477,14067 10477,14067 "/>
         <path fill="none" stroke="rgb(0,0,0)" stroke-width="34" stroke-linejoin="round" stroke-linecap="round" d="M 10418,13186 L 10418,14067 10418,14067 "/>
         <path fill="none" stroke="rgb(0,0,0)" stroke-width="34" stroke-linejoin="round" stroke-linecap="round" d="M 13669,12187 L 13669,13076 13669,13076 "/>
         <path fill="none" stroke="rgb(0,0,0)" stroke-width="34" stroke-linejoin="round" stroke-linecap="round" d="M 13728,12187 L 13728,12907 13728,12907 "/>
         <path fill="none" stroke="rgb(0,0,0)" stroke-width="34" stroke-linejoin="round" stroke-linecap="round" d="M 13669,13186 L 13669,14067 13669,14067 "/>
         <path fill="none" stroke="rgb(0,0,0)" stroke-width="34" stroke-linejoin="round" stroke-linecap="round" d="M 13728,13356 L 13728,14067 13728,14067 "/>
         <path fill="none" stroke="rgb(0,0,0)" stroke-width="34" stroke-linejoin="round" stroke-linecap="round" d="M 13669,14067 L 13728,14067 13728,14067 "/>
         <path fill="none" stroke="rgb(0,0,0)" stroke-width="34" stroke-linejoin="round" stroke-linecap="round" d="M 13728,13356 L 13669,13186 13669,13186 "/>
         <path fill="none" stroke="rgb(0,0,0)" stroke-width="34" stroke-linejoin="round" stroke-linecap="round" d="M 13669,13076 L 13728,12907 13728,12907 "/>
         <path fill="none" stroke="rgb(0,0,0)" stroke-width="34" stroke-linejoin="round" stroke-linecap="round" d="M 13669,12187 L 13728,12187 13728,12187 "/>
         <path fill="none" stroke="rgb(0,0,0)" stroke-width="34" stroke-linejoin="round" stroke-linecap="round" d="M 9876,13212 L 10003,13203 10003,13203 "/>
         <path fill="none" stroke="rgb(0,0,0)" stroke-width="34" stroke-linejoin="round" stroke-linecap="round" d="M 10155,13203 L 10257,13195 10257,13195 "/>
         <path fill="none" stroke="rgb(0,0,0)" stroke-width="34" stroke-linejoin="round" stroke-linecap="round" d="M 10409,13195 L 10511,13186 10511,13186 "/>
         <path fill="none" stroke="rgb(0,0,0)" stroke-width="34" stroke-linejoin="round" stroke-linecap="round" d="M 10663,13186 L 10765,13178 10765,13178 "/>
         <path fill="none" stroke="rgb(0,0,0)" stroke-width="34" stroke-linejoin="round" stroke-linecap="round" d="M 10917,13169 L 11019,13169 11019,13169 "/>
         <path fill="none" stroke="rgb(0,0,0)" stroke-width="34" stroke-linejoin="round" stroke-linecap="round" d="M 11171,13161 L 11264,13161 11264,13161 "/>
         <path fill="none" stroke="rgb(0,0,0)" stroke-width="34" stroke-linejoin="round" stroke-linecap="round" d="M 11425,13153 L 11518,13153 11518,13153 "/>
         <path fill="none" stroke="rgb(0,0,0)" stroke-width="34" stroke-linejoin="round" stroke-linecap="round" d="M 11679,13144 L 11772,13144 11772,13144 "/>
         <path fill="none" stroke="rgb(0,0,0)" stroke-width="34" stroke-linejoin="round" stroke-linecap="round" d="M 11933,13136 L 12026,13136 12026,13136 "/>
         <path fill="none" stroke="rgb(0,0,0)" stroke-width="34" stroke-linejoin="round" stroke-linecap="round" d="M 12179,13127 L 12280,13127 12280,13127 "/>
         <path fill="none" stroke="rgb(0,0,0)" stroke-width="34" stroke-linejoin="round" stroke-linecap="round" d="M 12433,13119 L 12534,13119 12534,13119 "/>
         <path fill="none" stroke="rgb(0,0,0)" stroke-width="34" stroke-linejoin="round" stroke-linecap="round" d="M 12687,13110 L 12788,13110 12788,13110 "/>
         <path fill="none" stroke="rgb(0,0,0)" stroke-width="34" stroke-linejoin="round" stroke-linecap="round" d="M 12941,13102 L 13042,13102 13042,13102 "/>
         <path fill="none" stroke="rgb(0,0,0)" stroke-width="34" stroke-linejoin="round" stroke-linecap="round" d="M 13195,13093 L 13296,13093 13296,13093 "/>
         <path fill="none" stroke="rgb(0,0,0)" stroke-width="34" stroke-linejoin="round" stroke-linecap="round" d="M 13449,13085 L 13550,13076 13550,13076 "/>
         <path fill="none" stroke="rgb(0,0,0)" stroke-width="34" stroke-linejoin="round" stroke-linecap="round" d="M 13703,13076 L 13804,13076 13804,13076 "/>
         <path fill="none" stroke="rgb(0,0,0)" stroke-width="34" stroke-linejoin="round" stroke-linecap="round" d="M 13957,13068 L 14058,13068 14058,13068 "/>
         <path fill="none" stroke="rgb(0,0,0)" stroke-width="34" stroke-linejoin="round" stroke-linecap="round" d="M 14211,13059 L 14312,13059 14312,13059 "/>
         <path fill="none" stroke="rgb(0,0,0)" stroke-width="34" stroke-linejoin="round" stroke-linecap="round" d="M 14465,13051 L 14566,13042 14566,13042 "/>
         <path fill="none" stroke="rgb(0,0,0)" stroke-width="34" stroke-linejoin="round" stroke-linecap="round" d="M 14719,13042 L 14820,13034 14820,13034 "/>
         <path fill="none" stroke="rgb(0,0,0)" stroke-width="34" stroke-linejoin="round" stroke-linecap="round" d="M 14973,13034 L 15100,13026 15100,13026 "/>
         <path fill="none" stroke="rgb(0,0,0)" stroke-width="34" stroke-linejoin="round" stroke-linecap="round" d="M 9876,13059 L 10003,13059 10003,13059 "/>
         <path fill="none" stroke="rgb(0,0,0)" stroke-width="34" stroke-linejoin="round" stroke-linecap="round" d="M 10155,13068 L 10257,13068 10257,13068 "/>
         <path fill="none" stroke="rgb(0,0,0)" stroke-width="34" stroke-linejoin="round" stroke-linecap="round" d="M 10409,13076 L 10511,13076 10511,13076 "/>
         <path fill="none" stroke="rgb(0,0,0)" stroke-width="34" stroke-linejoin="round" stroke-linecap="round" d="M 10663,13085 L 10765,13085 10765,13085 "/>
         <path fill="none" stroke="rgb(0,0,0)" stroke-width="34" stroke-linejoin="round" stroke-linecap="round" d="M 10917,13093 L 11019,13102 11019,13102 "/>
         <path fill="none" stroke="rgb(0,0,0)" stroke-width="34" stroke-linejoin="round" stroke-linecap="round" d="M 11171,13102 L 11264,13110 11264,13110 "/>
         <path fill="none" stroke="rgb(0,0,0)" stroke-width="34" stroke-linejoin="round" stroke-linecap="round" d="M 11425,13110 L 11518,13119 11518,13119 "/>
         <path fill="none" stroke="rgb(0,0,0)" stroke-width="34" stroke-linejoin="round" stroke-linecap="round" d="M 11679,13119 L 11772,13127 11772,13127 "/>
         <path fill="none" stroke="rgb(0,0,0)" stroke-width="34" stroke-linejoin="round" stroke-linecap="round" d="M 11933,13127 L 12026,13136 12026,13136 "/>
         <path fill="none" stroke="rgb(0,0,0)" stroke-width="34" stroke-linejoin="round" stroke-linecap="round" d="M 12179,13136 L 12280,13144 12280,13144 "/>
         <path fill="none" stroke="rgb(0,0,0)" stroke-width="34" stroke-linejoin="round" stroke-linecap="round" d="M 12433,13144 L 12534,13153 12534,13153 "/>
         <path fill="none" stroke="rgb(0,0,0)" stroke-width="34" stroke-linejoin="round" stroke-linecap="round" d="M 12687,13153 L 12788,13161 12788,13161 "/>
         <path fill="none" stroke="rgb(0,0,0)" stroke-width="34" stroke-linejoin="round" stroke-linecap="round" d="M 12941,13161 L 13042,13169 13042,13169 "/>
         <path fill="none" stroke="rgb(0,0,0)" stroke-width="34" stroke-linejoin="round" stroke-linecap="round" d="M 13195,13169 L 13296,13178 13296,13178 "/>
         <path fill="none" stroke="rgb(0,0,0)" stroke-width="34" stroke-linejoin="round" stroke-linecap="round" d="M 13449,13186 L 13550,13186 13550,13186 "/>
         <path fill="none" stroke="rgb(0,0,0)" stroke-width="34" stroke-linejoin="round" stroke-linecap="round" d="M 13703,13195 L 13804,13195 13804,13195 "/>
         <path fill="none" stroke="rgb(0,0,0)" stroke-width="34" stroke-linejoin="round" stroke-linecap="round" d="M 13957,13203 L 14058,13203 14058,13203 "/>
         <path fill="none" stroke="rgb(0,0,0)" stroke-width="34" stroke-linejoin="round" stroke-linecap="round" d="M 14211,13212 L 14312,13212 14312,13212 "/>
         <path fill="none" stroke="rgb(0,0,0)" stroke-width="34" stroke-linejoin="round" stroke-linecap="round" d="M 14465,13220 L 14566,13220 14566,13220 "/>
         <path fill="none" stroke="rgb(0,0,0)" stroke-width="34" stroke-linejoin="round" stroke-linecap="round" d="M 14719,13229 L 14820,13229 14820,13229 "/>
         <path fill="none" stroke="rgb(0,0,0)" stroke-width="34" stroke-linejoin="round" stroke-linecap="round" d="M 14973,13237 L 15100,13237 15100,13237 "/>
         <path fill="rgb(0,0,0)" stroke="none" d="M 14990,13110 L 14990,13161 15133,13136 14990,13110 Z "/>
         <path fill="none" stroke="rgb(0,0,0)" stroke-width="34" stroke-linejoin="round" stroke-linecap="round" d="M 14990,13110 L 14990,13161 15133,13136 14990,13110 Z "/>
         <path fill="none" stroke="rgb(0,0,0)" stroke-width="34" stroke-linejoin="round" stroke-linecap="round" d="M 14990,13110 L 14990,13161 15133,13136 14990,13110 Z "/>
         <path fill="none" stroke="rgb(0,0,0)" stroke-width="34" stroke-linejoin="round" stroke-linecap="round" d="M 14990,13136 L 13880,13136 13880,13136 "/>
         <path fill="none" stroke="rgb(0,0,0)" stroke-width="34" stroke-linejoin="round" stroke-linecap="round" d="M 7184,13525 L 7285,13415 7285,13415 "/>
         <path fill="none" stroke="rgb(0,0,0)" stroke-width="34" stroke-linejoin="round" stroke-linecap="round" d="M 7107,13728 L 7421,13415 7421,13415 "/>
         <path fill="none" stroke="rgb(0,0,0)" stroke-width="34" stroke-linejoin="round" stroke-linecap="round" d="M 7184,13779 L 7548,13415 7548,13415 "/>
         <path fill="none" stroke="rgb(0,0,0)" stroke-width="34" stroke-linejoin="round" stroke-linecap="round" d="M 7311,13779 L 7683,13407 7683,13407 "/>
         <path fill="none" stroke="rgb(0,0,0)" stroke-width="34" stroke-linejoin="round" stroke-linecap="round" d="M 7438,13779 L 7810,13407 7810,13407 "/>
         <path fill="none" stroke="rgb(0,0,0)" stroke-width="34" stroke-linejoin="round" stroke-linecap="round" d="M 7573,13771 L 7903,13440 7903,13440 "/>
         <path fill="none" stroke="rgb(0,0,0)" stroke-width="34" stroke-linejoin="round" stroke-linecap="round" d="M 7700,13771 L 7920,13542 7920,13542 "/>
         <path fill="none" stroke="rgb(0,0,0)" stroke-width="34" stroke-linejoin="round" stroke-linecap="round" d="M 7827,13771 L 7946,13652 7946,13652 "/>
         <path fill="none" stroke="rgb(0,0,0)" stroke-width="34" stroke-linejoin="round" stroke-linecap="round" d="M 7954,13762 L 7963,13762 7963,13762 "/>
        </g>
       </g>
      </g>
     </g>
    </g>
   </g>
  </g>
 </g>
</svg>