<?xml version='1.0' encoding='utf-8'?>
<svg xmlns="http://www.w3.org/2000/svg" width="200.0mm" height="74.9mm" viewBox="-11557 -37811 1020909 382139"><defs><style>.C1 {stroke: #000000; stroke-width: 1852; stroke-opacity: 1.000; fill: none; fill-opacity: 1.000;}</style><style>.C2 {stroke: none; stroke-width: none; stroke-opacity: 1.000; fill: #000000; fill-opacity: 1.000;}</style></defs><rect fill="#ffffff" x="-11557" y="-37811" width="1020909" height="382139" fill-opacity="1.0" /><g stroke-linecap="round" stroke-linejoin="round"><path d="M 277532 22900 l 370268 0" class="C1" /><path d="M 647800 22900 l 0 22216" class="C1" /><path d="M 647800 45116 l -370268 0" class="C1" /><path d="M 277532 45116 l 0 -22216" class="C1" /><path d="M 647800 208034 l -370268 0" class="C1" /><path d="M 277532 185818 l 370268 0" class="C1" /><path d="M 277532 208034 l 0 -22216" class="C1" /><path d="M 647800 185818 l 0 22216" class="C1" /><path d="M 467295 143237 l -9257 0 4628 27770 Z" class="C2" /><path d="M 462666 143237 l 0 -75905" class="C1" /><path d="M 484562 88724 l 0 14309 l 7955 0 q 3097 0 4138 -934 q 1388 -1228 1548 -4325 l 988 0 l 0 12600 l -988 0 q -374 -2643 -747 -3390 q -481 -934 -1575 -1468 q -1095 -534 -3364 -534 l -7955 0 l 0 11933 q 0 2403 214 2923 q 214 521 747 828 q 534 307 2029 307 l 6140 0 q 3070 0 4458 -427 q 1388 -427 2670 -1682 q 1655 -1655 3390 -4992 l 1068 0 l -3123 9077 l -27897 0 l 0 -988 l 1281 0 q 1281 0 2429 -614 q 854 -427 1161 -1281 q 307 -854 307 -3497 l 0 -23519 q 0 -3444 -694 -4245 q -961 -1068 -3203 -1068 l -1281 0 l 0 -988 l 27897 0 l 400 7929 l -1041 0 q -561 -2856 -1241 -3924 q -681 -1068 -2016 -1628 q -1068 -400 -3764 -400 l -9931 0 Z" class="C2" /><path d="M 249762 110839 l 0 9257 27770 -4628 Z" class="C2" /><path d="M 249762 115467 l -223508 0" class="C1" /><path d="M 896368 115467 l -223508 0" class="C1" /><path d="M 896368 110839 l 0 9257 27770 -4628 Z" class="C2" /><path d="M 277532 214976 l 0 91540" class="C1" /><path d="M 647800 214976 l 0 91540" class="C1" /><path d="M 305302 292632 l 314728 0" class="C1" /><path d="M 305302 288003 l 0 9257 -27770 -4628 Z" class="C2" /><path d="M 620030 288003 l 0 9257 27770 -4628 Z" class="C2" /><path d="M 464558 256868 l 0 24326 q 0 1722 250 2282 q 250 561 771 851 q 521 290 1942 290 l 0 721 l -8990 0 l 0 -721 q 1261 0 1722 -260 q 460 -260 721 -861 q 260 -601 260 -2302 l 0 -16658 q 0 -3103 -140 -3814 q -140 -711 -450 -971 q -310 -260 -791 -260 q -521 0 -1321 320 l -340 -701 l 5466 -2242 l 901 0 Z" class="C2" /><path d="M 253536 28778 l 0 -13321 l -13294 0 l 0 -2189 l 13294 0 l 0 -13268 l 2136 0 l 0 13268 l 13348 0 l 0 2189 l -13348 0 l 0 13321 l -2136 0 Z" class="C2" /><path d="M 244254 197680 l 13802 0 l 0 4031 l -13802 0 l 0 -4031 Z" class="C2" /><path d="M 28100 81804 l 11506 0 l 0 988 l -747 0 q -1041 0 -1588 507 q -547 507 -547 1361 q 0 934 561 2216 l 5686 13508 l 5713 -14015 q 614 -1495 614 -2269 q 0 -374 -214 -614 q -294 -400 -747 -547 q -454 -147 -1842 -147 l 0 -988 l 7982 0 l 0 988 q -1388 107 -1922 561 q -934 801 -1682 2670 l -8676 20983 l -1095 0 l -8729 -20636 q -587 -1442 -1121 -2069 q -534 -627 -1361 -1054 q -454 -240 -1789 -454 l 0 -988 Z" class="C2" /><path d="M 50885 96497 l 6903 0 l 0 593 q -657 0 -921 224 q -264 224 -264 593 q 0 384 561 1185 q 176 256 529 801 l 1041 1666 l 1201 -1666 q 1153 -1586 1153 -2002 q 0 -336 -272 -569 q -272 -232 -881 -232 l 0 -593 l 4965 0 l 0 593 q -785 48 -1361 432 q -785 545 -2146 2371 l -2002 2675 l 3652 5254 q 1345 1938 1922 2331 q 577 392 1490 440 l 0 577 l -6919 0 l 0 -577 q 721 0 1121 -320 q 304 -224 304 -593 q 0 -368 -1025 -1858 l -2146 -3139 l -2355 3139 q -1089 1458 -1089 1730 q 0 384 360 697 q 360 312 1081 344 l 0 577 l -4789 0 l 0 -577 q 577 -80 1009 -400 q 609 -465 2050 -2371 l 3075 -4084 l -2787 -4036 q -1185 -1730 -1834 -2170 q -649 -440 -1626 -440 l 0 -593 Z" class="C2" /><path d="M 700612 44897 l 6839 0 l 0 593 l -336 0 q -721 0 -1081 312 q -360 312 -360 777 q 0 625 529 1730 l 3572 7400 l 3284 -8105 q 272 -657 272 -1297 q 0 -288 -112 -432 q -128 -176 -400 -280 q -272 -104 -961 -104 l 0 -593 l 4773 0 l 0 593 q -593 64 -913 256 q -320 192 -705 721 q -144 224 -545 1233 l -5974 14640 q -865 2130 -2266 3219 q -1402 1089 -2699 1089 q -945 0 -1554 -545 q -609 -545 -609 -1249 q 0 -673 440 -1081 q 440 -408 1209 -408 q 529 0 1442 352 q 641 240 801 240 q 481 0 1049 -497 q 569 -497 1145 -1922 l 1041 -2547 l -5270 -11068 q -240 -497 -769 -1233 q -400 -561 -657 -753 q -368 -256 -1185 -448 l 0 -593 Z" class="C2" /><path d="M 679244 27089 l 11506 0 l 0 988 l -747 0 q -1041 0 -1588 507 q -547 507 -547 1361 q 0 934 561 2216 l 5686 13508 l 5713 -14015 q 614 -1495 614 -2269 q 0 -374 -214 -614 q -294 -400 -747 -547 q -454 -147 -1842 -147 l 0 -988 l 7982 0 l 0 988 q -1388 107 -1922 561 q -934 801 -1682 2670 l -8676 20983 l -1095 0 l -8729 -20636 q -587 -1442 -1121 -2069 q -534 -627 -1361 -1054 q -454 -240 -1789 -454 l 0 -988 Z" class="C2" /><path d="M 672859 115467 l 0 -70131" class="C1" /><path d="M 668231 73106 l 9257 0 -4628 -27770 Z" class="C2" /><path d="M 955970 109546 l 6903 0 l 0 593 q -657 0 -921 224 q -264 224 -264 593 q 0 384 561 1185 q 176 256 529 801 l 1041 1666 l 1201 -1666 q 1153 -1586 1153 -2002 q 0 -336 -272 -569 q -272 -232 -881 -232 l 0 -593 l 4965 0 l 0 593 q -785 48 -1361 432 q -785 545 -2146 2371 l -2002 2675 l 3652 5254 q 1345 1938 1922 2331 q 577 392 1490 440 l 0 577 l -6919 0 l 0 -577 q 721 0 1121 -320 q 304 -224 304 -593 q 0 -368 -1025 -1858 l -2146 -3139 l -2355 3139 q -1089 1458 -1089 1730 q 0 384 360 697 q 360 312 1081 344 l 0 577 l -4789 0 l 0 -577 q 577 -80 1009 -400 q 609 -465 2050 -2371 l 3075 -4084 l -2787 -4036 q -1185 -1730 -1834 -2170 q -649 -440 -1626 -440 l 0 -593 Z" class="C2" /><path d="M 933184 94854 l 11506 0 l 0 988 l -747 0 q -1041 0 -1588 507 q -547 507 -547 1361 q 0 934 561 2216 l 5686 13508 l 5713 -14015 q 614 -1495 614 -2269 q 0 -374 -214 -614 q -294 -400 -747 -547 q -454 -147 -1842 -147 l 0 -988 l 7982 0 l 0 988 q -1388 107 -1922 561 q -934 801 -1682 2670 l -8676 20983 l -1095 0 l -8729 -20636 q -587 -1442 -1121 -2069 q -534 -627 -1361 -1054 q -454 -240 -1789 -454 l 0 -988 Z" class="C2" /><path d="M 731981 45336 l 227929 0" class="C1" /><path d="M 924138 115467 l 0 -100165" class="C1" /><path d="M 896146 48343 l 2488 8916 25504 -11923 Z" class="C2" /><path d="M 897390 52801 l -224531 62666" class="C1" /><path d="M 839812 115467 c 0 -15170 -2068 -30269 -6146 -44881" class="C1" /><path d="M 847983 59618 l 0 -5279 l 4546 0 l 0 5279 l -4546 0 m -5759 42154 l 859 -3864 q 1364 354 2147 354 q 1389 0 2071 -922 q 682 -922 682 -4609 l 0 -28187 l 4546 0 l 0 28288 q 0 4950 -1288 6895 q -1642 2526 -5456 2526 q -1844 0 -3561 -480 Z" class="C2" /><path d="M 874478 111154 l 0 -22216 l 16063 0 l 0 2622 l -13124 0 l 0 6804 l 12290 0 l 0 2607 l -12290 0 l 0 7562 l 13639 0 l 0 2622 l -16579 0 Z" class="C2" /></g></svg>
