<?xml version='1.0' encoding='utf-8'?>
<svg xmlns="http://www.w3.org/2000/svg" width="200.0mm" height="115.8mm" viewBox="147692 -22638 611226 353849"><defs><style>.C1 {stroke: #000000; stroke-width: 484; stroke-opacity: 1.000; fill: none; fill-opacity: 1.000;}</style><style>.C2 {stroke: none; stroke-width: none; stroke-opacity: 1.000; fill: #000000; fill-opacity: 1.000;}</style></defs><rect fill="#ffffff" x="147692" y="-22638" width="611226" height="353849" fill-opacity="1.0" /><g stroke-linecap="round" stroke-linejoin="round"><path d="M 453685 214461 c 18418 41287 54730 71866 98550 82989 c 43820 11123 90320 1566 126200 -25939" class="C1" /><path d="M 426152 196595 l -215606 0" class="C1" /><path d="M 426152 111979 l -215606 0" class="C1" /><path d="M 453685 214461 c -4848 -10867 -15634 -17866 -27533 -17866" class="C1" /><path d="M 426152 111979 c 11899 0 22686 -6999 27533 -17866" class="C1" /><path d="M 201250 121275 l 0 66024" class="C1" /><path d="M 201250 187299 c 0 5134 4162 9296 9296 9296" class="C1" /><path d="M 210546 111979 c -5134 0 -9296 4162 -9296 9296" class="C1" /><path d="M 678436 37062 c -35880 -27504 -82381 -37062 -126200 -25939 c -43820 11123 -80132 41702 -98550 82989" class="C1" /><path d="M 678436 271512 c 36464 -27952 57844 -71280 57844 -117225 c 0 -45945 -21380 -89273 -57844 -117225 l 0 234450" class="C1" /><path d="M 683036 258953 l 0 0 m 12679 -9729 l 0 0 m 11860 -9101 l 0 0 m -25159 -121 l 0 0 m 12679 -9729 l 0 0 m 11860 -9101 l 0 0 m 13265 -10178 l 0 0 m -38424 10058 l 0 0 m 12679 -9729 l 0 0 m 11860 -9101 l 0 0 m 13265 -10178 l 0 0 m 12679 -9729 l 0 0 m -51103 19787 l 0 0 m 12679 -9729 l 0 0 m 11860 -9101 l 0 0 m 13265 -10178 l 0 0 m 12679 -9729 l 0 0 m -51103 19787 l 0 0 m 12679 -9729 l 0 0 m 11860 -9101 l 0 0 m 13265 -10178 l 0 0 m 12679 -9729 l 0 0 m -51103 19787 l 0 0 m 12679 -9729 l 0 0 m 11860 -9101 l 0 0 m 13265 -10178 l 0 0 m 12679 -9729 l 0 0 m -51103 19787 l 0 0 m 12679 -9729 l 0 0 m 11860 -9101 l 0 0 m 13265 -10178 l 0 0 m -38424 10058 l 0 0 m 12679 -9729 l 0 0 m 11860 -9101 l 0 0 m 13265 -10178 l 0 0 m -25744 328 l 0 0 m 11860 -9101 l 0 0 m -12480 -9850 l 0 0 m 11860 -9101 l 0 0 m -12480 -9850 l 0 0 m -3161 202194 l 0 0 m -3949 -24945 l 0 0 m 7996 -1053 l 0 0 m 13359 -1759 l 0 0 m 5119 -674 l 0 0 m -27546 -21838 l 0 0 m 13359 -1759 l 0 0 m 5119 -674 l 0 0 m 7996 -1053 l 0 0 m 13359 -1759 l 0 0 m 5119 -674 l 0 0 m -40661 -20111 l 0 0 m 5119 -674 l 0 0 m 7996 -1053 l 0 0 m 13359 -1759 l 0 0 m 5119 -674 l 0 0 m 7996 -1053 l 0 0 m -43538 -19733 l 0 0 m 7996 -1053 l 0 0 m 13359 -1759 l 0 0 m 5119 -674 l 0 0 m 7996 -1053 l 0 0 m 13359 -1759 l 0 0 m 5119 -674 l 0 0 m -54020 -18353 l 0 0 m 13359 -1759 l 0 0 m 5119 -674 l 0 0 m 7996 -1053 l 0 0 m 13359 -1759 l 0 0 m 5119 -674 l 0 0 m 7996 -1053 l 0 0 m -48657 -19059 l 0 0 m 5119 -674 l 0 0 m 7996 -1053 l 0 0 m 13359 -1759 l 0 0 m 5119 -674 l 0 0 m 7996 -1053 l 0 0 m -43538 -19733 l 0 0 m 7996 -1053 l 0 0 m 13359 -1759 l 0 0 m 5119 -674 l 0 0 m 7996 -1053 l 0 0 m -35542 -20785 l 0 0 m 13359 -1759 l 0 0 m 5119 -674 l 0 0 m -11546 205945 l 0 0 m -7943 -24628 l 0 0 m 4147 2642 l 0 0 m 14931 9512 l 0 0 m -7943 -24628 l 0 0 m 19493 12418 l 0 0 m -27436 -37046 l 0 0 m 19493 12418 l 0 0 m 4147 2642 l 0 0 m -12091 -27270 l 0 0 m 4147 2642 l 0 0 m 14931 9512 l 0 0 m -27021 -36782 l 0 0 m 4147 2642 l 0 0 m 14931 9512 l 0 0 m 19493 12418 l 0 0 m 4147 2642 l 0 0 m -46514 -49201 l 0 0 m 14931 9512 l 0 0 m 19493 12418 l 0 0 m 4147 2642 l 0 0 m -31584 -39689 l 0 0 m 19493 12418 l 0 0 m 4147 2642 l 0 0 m 14931 9512 l 0 0 m -46514 -49201 l 0 0 m 19493 12418 l 0 0 m 4147 2642 l 0 0 m 14931 9512 l 0 0 m -27021 -36782 l 0 0 m 4147 2642 l 0 0 m 14931 9512 l 0 0 m -27021 -36782 l 0 0 m 4147 2642 l 0 0 m 14931 9512 l 0 0 m -22874 -34140 l 0 0 m 14931 9512 l 0 0 m -17135 190802 l 0 0 m 1813 1661 l 0 0 m 8556 7841 l 0 0 m -962 -36605 l 0 0 m 1813 1661 l 0 0 m 8556 7841 l 0 0 m 9789 8970 l 0 0 m 1813 1661 l 0 0 m -30910 -64047 l 0 0 m 8556 7841 l 0 0 m 9789 8970 l 0 0 m 1813 1661 l 0 0 m 8556 7841 l 0 0 m 9789 8970 l 0 0 m 1813 1661 l 0 0 m -32722 -65708 l 0 0 m 1813 1661 l 0 0 m 8556 7841 l 0 0 m 9789 8970 l 0 0 m 1813 1661 l 0 0 m 8556 7841 l 0 0 m 9789 8970 l 0 0 m 1813 1661 l 0 0 m -42511 -74678 l 0 0 m 9789 8970 l 0 0 m 1813 1661 l 0 0 m 8556 7841 l 0 0 m 9789 8970 l 0 0 m 1813 1661 l 0 0 m 8556 7841 l 0 0 m -41279 -73549 l 0 0 m 1813 1661 l 0 0 m 8556 7841 l 0 0 m 9789 8970 l 0 0 m 1813 1661 l 0 0 m 8556 7841 l 0 0 m 9789 8970 l 0 0 m 1813 1661 l 0 0" class="C1" /><path d="M 303462 141683 l 31903 0" class="C1" /><path d="M 342203 136143 l 31008 0" class="C1" /><path d="M 385097 136143 l 11652 0" class="C1" /><path d="M 410153 123218 l 10339 0" class="C1" /><path d="M 303462 166891 l 31903 0" class="C1" /><path d="M 342203 172430 l 31008 0" class="C1" /><path d="M 385097 172430 l 11652 0" class="C1" /><path d="M 410153 185355 l 10339 0" class="C1" /><path d="M 335365 141683 l 0 7802" class="C1" /><path d="M 342203 136143 l 0 13341" class="C1" /><path d="M 373211 137695 l 0 33184" class="C1" /><path d="M 385097 137695 l 0 33184" class="C1" /><path d="M 396750 137695 l 0 33184" class="C1" /><path d="M 410153 124224 l 0 60126" class="C1" /><path d="M 420492 124224 l 0 60126" class="C1" /><path d="M 420492 136625 l 10214 0" class="C1" /><path d="M 420492 171948 l 10214 0" class="C1" /><path d="M 430706 137540 l 0 33494" class="C1" /><path d="M 419248 146322 l 3126 0" class="C1" /><path d="M 419248 162251 l 3126 0" class="C1" /><path d="M 422375 146322 l 0 15929" class="C1" /><path d="M 419248 146322 l 0 15929" class="C1" /><path d="M 421838 146322 l 0 15929" class="C1" /><path d="M 421140 146322 l 0 15929" class="C1" /><path d="M 419744 146322 l 0 15929" class="C1" /><path d="M 342203 159089 l 0 13341" class="C1" /><path d="M 335365 159089 l 0 7802" class="C1" /><path d="M 297704 161391 l 31940 0" class="C1" /><path d="M 329644 161391 l 0 -14208" class="C1" /><path d="M 171287 147183 l 158357 0" class="C1" /><path d="M 329245 161391 l 0 -14208" class="C1" /><path d="M 328686 161391 l -0 -14208" class="C1" /><path d="M 357707 136143 l -10472 -10472" class="C1" /><path d="M 357707 136143 l 19045 -19045" class="C1" /><path d="M 415323 123218 l -6120 -6120" class="C1" /><path d="M 319413 166891 l 19266 19266" class="C1" /><path d="M 390924 172430 l -13726 13726" class="C1" /><path d="M 171287 125671 l 175948 -0" class="C1" /><path d="M 376751 117099 l 32452 0" class="C1" /><path d="M 338679 186157 l 38518 0" class="C1" /><path d="M 311529 141683 l -6010 -6010" class="C1" /><path d="M 305519 135673 l -134232 0" class="C1" /><path d="M 285395 161391 l -114108 0" class="C1" /><path d="M 171287 183775 l 68259 0" class="C1" /><path d="M 318460 166891 l 5 93 14 93 23 91 32 88 40 85 48 80 56 75 63 69 69 63 75 56 80 48 85 40 88 32 91 23 93 14 93 5 93 -5 93 -14 91 -23 88 -32 85 -40 80 -48 75 -56 69 -63 63 -69 56 -75 48 -80 40 -85 32 -88 23 -91 14 -93 5 -93 -953 0 Z" class="C2" /><path d="M 320367 166891 l -5 -93 -14 -93 -23 -91 -32 -88 -40 -85 -48 -80 -56 -75 -63 -69 -69 -63 -75 -56 -80 -48 -85 -40 -88 -32 -91 -23 -93 -14 -93 -5 -93 5 -93 14 -91 23 -88 32 -85 40 -80 48 -75 56 -69 63 -63 69 -56 75 -48 80 -40 85 -32 88 -23 91 -14 93 -5 93 953 0 Z" class="C2" /><path d="M 389970 172430 l 5 93 14 93 23 91 32 88 40 85 48 80 56 75 63 69 69 63 75 56 80 48 85 40 88 32 91 23 93 14 93 5 93 -5 93 -14 91 -23 88 -32 85 -40 80 -48 75 -56 69 -63 63 -69 56 -75 48 -80 40 -85 32 -88 23 -91 14 -93 5 -93 -953 0 Z" class="C2" /><path d="M 391877 172430 l -5 -93 -14 -93 -23 -91 -32 -88 -40 -85 -48 -80 -56 -75 -63 -69 -69 -63 -75 -56 -80 -48 -85 -40 -88 -32 -91 -23 -93 -14 -93 -5 -93 5 -93 14 -91 23 -88 32 -85 40 -80 48 -75 56 -69 63 -63 69 -56 75 -48 80 -40 85 -32 88 -23 91 -14 93 -5 93 953 0 Z" class="C2" /><path d="M 414369 123218 l 5 93 14 93 23 91 32 88 40 85 48 80 56 75 63 69 69 63 75 56 80 48 85 40 88 32 91 23 93 14 93 5 93 -5 93 -14 91 -23 88 -32 85 -40 80 -48 75 -56 69 -63 63 -69 56 -75 48 -80 40 -85 32 -88 23 -91 14 -93 5 -93 -953 0 Z" class="C2" /><path d="M 416276 123218 l -5 -93 -14 -93 -23 -91 -32 -88 -40 -85 -48 -80 -56 -75 -63 -69 -69 -63 -75 -56 -80 -48 -85 -40 -88 -32 -91 -23 -93 -14 -93 -5 -93 5 -93 14 -91 23 -88 32 -85 40 -80 48 -75 56 -69 63 -63 69 -56 75 -48 80 -40 85 -32 88 -23 91 -14 93 -5 93 953 0 Z" class="C2" /><path d="M 356753 136143 l 5 93 14 93 23 91 32 88 40 85 48 80 56 75 63 69 69 63 75 56 80 48 85 40 88 32 91 23 93 14 93 5 93 -5 93 -14 91 -23 88 -32 85 -40 80 -48 75 -56 69 -63 63 -69 56 -75 48 -80 40 -85 32 -88 23 -91 14 -93 5 -93 -953 0 Z" class="C2" /><path d="M 358660 136143 l -5 -93 -14 -93 -23 -91 -32 -88 -40 -85 -48 -80 -56 -75 -63 -69 -69 -63 -75 -56 -80 -48 -85 -40 -88 -32 -91 -23 -93 -14 -93 -5 -93 5 -93 14 -91 23 -88 32 -85 40 -80 48 -75 56 -69 63 -63 69 -56 75 -48 80 -40 85 -32 88 -23 91 -14 93 -5 93 953 0 Z" class="C2" /><path d="M 310575 141683 l 5 93 14 93 23 91 32 88 40 85 48 80 56 75 63 69 69 63 75 56 80 48 85 40 88 32 91 23 93 14 93 5 93 -5 93 -14 91 -23 88 -32 85 -40 80 -48 75 -56 69 -63 63 -69 56 -75 48 -80 40 -85 32 -88 23 -91 14 -93 5 -93 -953 0 Z" class="C2" /><path d="M 312482 141683 l -5 -93 -14 -93 -23 -91 -32 -88 -40 -85 -48 -80 -56 -75 -63 -69 -69 -63 -75 -56 -80 -48 -85 -40 -88 -32 -91 -23 -93 -14 -93 -5 -93 5 -93 14 -91 23 -88 32 -85 40 -80 48 -75 56 -69 63 -63 69 -56 75 -48 80 -40 85 -32 88 -23 91 -14 93 -5 93 953 0 Z" class="C2" /><path d="M 285395 147183 l 4487 4487" class="C1" /><path d="M 289882 151670 l 35499 2617" class="C1" /><path d="M 285395 161391 l 4487 -4487" class="C1" /><path d="M 289882 156904 l 35499 -2617" class="C1" /><path d="M 284441 147183 l 5 93 14 93 23 91 32 88 40 85 48 80 56 75 63 69 69 63 75 56 80 48 85 40 88 32 91 23 93 14 93 5 93 -5 93 -14 91 -23 88 -32 85 -40 80 -48 75 -56 69 -63 63 -69 56 -75 48 -80 40 -85 32 -88 23 -91 14 -93 5 -93 -953 0 Z" class="C2" /><path d="M 286348 147183 l -5 -93 -14 -93 -23 -91 -32 -88 -40 -85 -48 -80 -56 -75 -63 -69 -69 -63 -75 -56 -80 -48 -85 -40 -88 -32 -91 -23 -93 -14 -93 -5 -93 5 -93 14 -91 23 -88 32 -85 40 -80 48 -75 56 -69 63 -63 69 -56 75 -48 80 -40 85 -32 88 -23 91 -14 93 -5 93 953 0 Z" class="C2" /><path d="M 170334 125671 l 5 93 14 93 23 91 32 88 40 85 48 80 56 75 63 69 69 63 75 56 80 48 85 40 88 32 91 23 93 14 93 5 93 -5 93 -14 91 -23 88 -32 85 -40 80 -48 75 -56 69 -63 63 -69 56 -75 48 -80 40 -85 32 -88 23 -91 14 -93 5 -93 -953 0 Z" class="C2" /><path d="M 172240 125671 l -5 -93 -14 -93 -23 -91 -32 -88 -40 -85 -48 -80 -56 -75 -63 -69 -69 -63 -75 -56 -80 -48 -85 -40 -88 -32 -91 -23 -93 -14 -93 -5 -93 5 -93 14 -91 23 -88 32 -85 40 -80 48 -75 56 -69 63 -63 69 -56 75 -48 80 -40 85 -32 88 -23 91 -14 93 -5 93 953 0 Z" class="C2" /><path d="M 170334 135673 l 5 93 14 93 23 91 32 88 40 85 48 80 56 75 63 69 69 63 75 56 80 48 85 40 88 32 91 23 93 14 93 5 93 -5 93 -14 91 -23 88 -32 85 -40 80 -48 75 -56 69 -63 63 -69 56 -75 48 -80 40 -85 32 -88 23 -91 14 -93 5 -93 -953 0 Z" class="C2" /><path d="M 172240 135673 l -5 -93 -14 -93 -23 -91 -32 -88 -40 -85 -48 -80 -56 -75 -63 -69 -69 -63 -75 -56 -80 -48 -85 -40 -88 -32 -91 -23 -93 -14 -93 -5 -93 5 -93 14 -91 23 -88 32 -85 40 -80 48 -75 56 -69 63 -63 69 -56 75 -48 80 -40 85 -32 88 -23 91 -14 93 -5 93 953 0 Z" class="C2" /><path d="M 170334 147183 l 5 93 14 93 23 91 32 88 40 85 48 80 56 75 63 69 69 63 75 56 80 48 85 40 88 32 91 23 93 14 93 5 93 -5 93 -14 91 -23 88 -32 85 -40 80 -48 75 -56 69 -63 63 -69 56 -75 48 -80 40 -85 32 -88 23 -91 14 -93 5 -93 -953 0 Z" class="C2" /><path d="M 172240 147183 l -5 -93 -14 -93 -23 -91 -32 -88 -40 -85 -48 -80 -56 -75 -63 -69 -69 -63 -75 -56 -80 -48 -85 -40 -88 -32 -91 -23 -93 -14 -93 -5 -93 5 -93 14 -91 23 -88 32 -85 40 -80 48 -75 56 -69 63 -63 69 -56 75 -48 80 -40 85 -32 88 -23 91 -14 93 -5 93 953 0 Z" class="C2" /><path d="M 170334 161391 l 5 93 14 93 23 91 32 88 40 85 48 80 56 75 63 69 69 63 75 56 80 48 85 40 88 32 91 23 93 14 93 5 93 -5 93 -14 91 -23 88 -32 85 -40 80 -48 75 -56 69 -63 63 -69 56 -75 48 -80 40 -85 32 -88 23 -91 14 -93 5 -93 -953 0 Z" class="C2" /><path d="M 172240 161391 l -5 -93 -14 -93 -23 -91 -32 -88 -40 -85 -48 -80 -56 -75 -63 -69 -69 -63 -75 -56 -80 -48 -85 -40 -88 -32 -91 -23 -93 -14 -93 -5 -93 5 -93 14 -91 23 -88 32 -85 40 -80 48 -75 56 -69 63 -63 69 -56 75 -48 80 -40 85 -32 88 -23 91 -14 93 -5 93 953 0 Z" class="C2" /><path d="M 170334 183775 l 5 93 14 93 23 91 32 88 40 85 48 80 56 75 63 69 69 63 75 56 80 48 85 40 88 32 91 23 93 14 93 5 93 -5 93 -14 91 -23 88 -32 85 -40 80 -48 75 -56 69 -63 63 -69 56 -75 48 -80 40 -85 32 -88 23 -91 14 -93 5 -93 -953 0 Z" class="C2" /><path d="M 172240 183775 l -5 -93 -14 -93 -23 -91 -32 -88 -40 -85 -48 -80 -56 -75 -63 -69 -69 -63 -75 -56 -80 -48 -85 -40 -88 -32 -91 -23 -93 -14 -93 -5 -93 5 -93 14 -91 23 -88 32 -85 40 -80 48 -75 56 -69 63 -63 69 -56 75 -48 80 -40 85 -32 88 -23 91 -14 93 -5 93 953 0 Z" class="C2" /></g></svg>
