<?xml version='1.0' encoding='utf-8'?>
<svg xmlns="http://www.w3.org/2000/svg" width="200.0mm" height="167.8mm" viewBox="-15142 -15232 411274 344963"><defs><style>.C1 {stroke: #000000; stroke-width: 287; stroke-opacity: 1.000; fill: none; fill-opacity: 1.000;}</style><style>.C2 {stroke: none; stroke-width: none; stroke-opacity: 1.000; fill: #000000; fill-opacity: 1.000;}</style></defs><rect fill="#ffffff" x="-15142" y="-15232" width="411274" height="344963" fill-opacity="1.0" /><g stroke-linecap="round" stroke-linejoin="round"><path d="M 73503 22826 l 44693 0" class="C1" /><path d="M 118196 73249 l -44693 0" class="C1" /><path d="M 105591 22826 l 0 21773" class="C1" /><path d="M 105591 51476 l 0 21773" class="C1" /><path d="M 181225 73249 l -44693 0" class="C1" /><path d="M 136532 22826 l 44693 0" class="C1" /><path d="M 200706 22826 l 44693 0" class="C1" /><path d="M 245399 73249 l -44693 0" class="C1" /><path d="M 286654 51476 l 0 21773" class="C1" /><path d="M 286654 73249 l -22919 0" class="C1" /><path d="M 263734 22826 l 22919 0" class="C1" /><path d="M 286654 22826 l 0 21773" class="C1" /><path d="M 136532 51476 l 0 21773" class="C1" /><path d="M 136532 22826 l 0 21773" class="C1" /><path d="M 181225 51476 l 0 21773" class="C1" /><path d="M 181225 22826 l 0 21773" class="C1" /><path d="M 200706 51476 l 0 21773" class="C1" /><path d="M 200706 22826 l 0 21773" class="C1" /><path d="M 245399 51476 l 0 21773" class="C1" /><path d="M 245399 22826 l 0 21773" class="C1" /><path d="M 263734 51476 l 0 21773" class="C1" /><path d="M 263734 22826 l 0 21773" class="C1" /><path d="M 57460 34286 l -48131 0" class="C1" /><path d="M 57460 61789 l -48131 0" class="C1" /><path d="M 57460 34286 l 0 2292" class="C1" /><path d="M 57460 36578 l 4584 1146" class="C1" /><path d="M 62044 37724 l -9168 2292" class="C1" /><path d="M 52876 40016 l 4584 1146" class="C1" /><path d="M 52876 44600 l 4584 1146" class="C1" /><path d="M 62044 42308 l -9168 2292" class="C1" /><path d="M 57460 41162 l 4584 1146" class="C1" /><path d="M 52876 49184 l 4584 1146" class="C1" /><path d="M 62044 46892 l -9168 2292" class="C1" /><path d="M 57460 45746 l 4584 1146" class="C1" /><path d="M 52876 53767 l 4584 1146" class="C1" /><path d="M 62044 51476 l -9168 2292" class="C1" /><path d="M 57460 50330 l 4584 1146" class="C1" /><path d="M 52876 58351 l 4584 1146" class="C1" /><path d="M 62044 56059 l -9168 2292" class="C1" /><path d="M 57460 54913 l 4584 1146" class="C1" /><path d="M 57460 59497 l 0 2292" class="C1" /><path d="M 9329 34286 l 0 4513" class="C1" /><path d="M 18568 48038 c 0 5103 -4136 9239 -9239 9239 c -5103 0 -9239 -4136 -9239 -9239 c 0 -5103 4136 -9239 9239 -9239 c 5103 0 9239 4136 9239 9239" class="C1" /><path d="M 9329 57277 l 0 4513" class="C1" /><path d="M 9329 40016 l 0 6876" class="C1" /><path d="M 5891 43454 l 6876 0" class="C1" /><path d="M 5891 53767 l 6876 0" class="C1" /><path d="M 63678 38757 l 0 0 l 8146 344 l 6977 625 l 5967 845 l 5115 1004 l 4421 1101 l 3886 1137 l 3509 1111 l 3289 1024 l 3212 887 l 3213 750 l 3276 623 l 3401 507 l 3588 403 l 3836 309 l 4147 226 l 4520 154 l 4939 93 l 5343 40 l 5717 -3 l 6060 -39 l 6372 -65 l 6654 -83 l 6906 -93 l 7127 -94 l 7304 -88 l 7382 -82 l 7348 -78 l 7201 -76 l 6942 -76 l 6570 -78 l 6086 -82 l 5489 -88 l 4827 -95 l 4285 -99 l 3909 -101 l 3701 -100 l 3659 -96 l 3783 -90 l 4075 -80 l 4533 -67 l 5126 -53 l 5725 -40 l 6297 -28 l 6842 -19 l 7360 -12 l 7852 -7 l 8317 -3 l 8755 -2" class="C1" /><path d="M 63678 57318 l 0 0 l 8146 -344 l 6977 -625 l 5967 -845 l 5115 -1004 l 4421 -1101 l 3886 -1137 l 3509 -1111 l 3289 -1024 l 3212 -887 l 3213 -750 l 3276 -623 l 3401 -507 l 3588 -403 l 3836 -309 l 4147 -226 l 4520 -154 l 4939 -93 l 5343 -40 l 5717 3 l 6060 39 l 6372 65 l 6654 83 l 6906 93 l 7127 94 l 7304 88 l 7382 82 l 7348 78 l 7201 76 l 6942 76 l 6570 78 l 6086 82 l 5489 88 l 4827 95 l 4285 99 l 3909 101 l 3701 100 l 3659 96 l 3783 90 l 4075 80 l 4533 67 l 5126 53 l 5725 40 l 6297 28 l 6842 19 l 7360 12 l 7852 7 l 8317 3 l 8755 2" class="C1" /><path d="M 343383 9587 l 0 56478" class="C1" /><path d="M 343383 66065 l 32891 27726" class="C1" /><path d="M 376274 93791 l 0 -56478" class="C1" /><path d="M 343383 9587 l 32891 27726" class="C1" /><path d="M 326666 48020 l 31620 0" class="C1" /><path d="M 354949 48020 l 16 327 48 324 80 318 110 308 140 296 168 281 195 263 220 243 243 220 263 195 281 168 296 140 308 110 318 80 324 48 327 16 327 -16 324 -48 318 -80 308 -110 296 -140 281 -168 263 -195 243 -220 220 -243 195 -263 168 -281 140 -296 110 -308 80 -318 48 -324 16 -327 -3337 0 Z" class="C2" /><path d="M 361624 48020 l -16 -327 -48 -324 -80 -318 -110 -308 -140 -296 -168 -281 -195 -263 -220 -243 -243 -220 -263 -195 -281 -168 -296 -140 -308 -110 -318 -80 -324 -48 -327 -16 -327 16 -324 48 -318 80 -308 110 -296 140 -281 168 -263 195 -243 220 -220 243 -195 263 -168 281 -140 296 -110 308 -80 318 -48 324 -16 327 3337 0 Z" class="C2" /><path d="M 343383 9587 l 4625 0" class="C1" /><path d="M 376274 37313 l 4625 0" class="C1" /><path d="M 376274 93791 l 4625 0" class="C1" /><path d="M 348008 9587 l 32891 27726" class="C1" /><path d="M 380899 37313 l 0 56478" class="C1" /><path d="M 102973 73249 l 13 257 38 254 62 249 87 242 110 232 132 220 153 206 173 190 190 173 206 153 220 132 232 110 242 87 249 62 254 38 257 13 257 -13 254 -38 249 -62 242 -87 232 -110 220 -132 206 -153 190 -173 173 -190 153 -206 132 -220 110 -232 87 -242 62 -249 38 -254 13 -257 -2618 0 Z" class="C2" /><path d="M 108208 73249 l -13 -257 -38 -254 -62 -249 -87 -242 -110 -232 -132 -220 -153 -206 -173 -190 -190 -173 -206 -153 -220 -132 -232 -110 -242 -87 -249 -62 -254 -38 -257 -13 -257 13 -254 38 -249 62 -242 87 -232 110 -220 132 -206 153 -190 173 -173 190 -153 206 -132 220 -110 232 -87 242 -62 249 -38 254 -13 257 2618 0 Z" class="C2" /><path d="M 156261 73249 l 13 257 38 254 62 249 87 242 110 232 132 220 153 206 173 190 190 173 206 153 220 132 232 110 242 87 249 62 254 38 257 13 257 -13 254 -38 249 -62 242 -87 232 -110 220 -132 206 -153 190 -173 173 -190 153 -206 132 -220 110 -232 87 -242 62 -249 38 -254 13 -257 -2618 0 Z" class="C2" /><path d="M 161496 73249 l -13 -257 -38 -254 -62 -249 -87 -242 -110 -232 -132 -220 -153 -206 -173 -190 -190 -173 -206 -153 -220 -132 -232 -110 -242 -87 -249 -62 -254 -38 -257 -13 -257 13 -254 38 -249 62 -242 87 -232 110 -220 132 -206 153 -190 173 -173 190 -153 206 -132 220 -110 232 -87 242 -62 249 -38 254 -13 257 2618 0 Z" class="C2" /><path d="M 220435 73249 l 13 257 38 254 62 249 87 242 110 232 132 220 153 206 173 190 190 173 206 153 220 132 232 110 242 87 249 62 254 38 257 13 257 -13 254 -38 249 -62 242 -87 232 -110 220 -132 206 -153 190 -173 173 -190 153 -206 132 -220 110 -232 87 -242 62 -249 38 -254 13 -257 -2618 0 Z" class="C2" /><path d="M 225670 73249 l -13 -257 -38 -254 -62 -249 -87 -242 -110 -232 -132 -220 -153 -206 -173 -190 -190 -173 -206 -153 -220 -132 -232 -110 -242 -87 -249 -62 -254 -38 -257 -13 -257 13 -254 38 -249 62 -242 87 -232 110 -220 132 -206 153 -190 173 -173 190 -153 206 -132 220 -110 232 -87 242 -62 249 -38 254 -13 257 2618 0 Z" class="C2" /><path d="M 156261 22826 l 13 257 38 254 62 249 87 242 110 232 132 220 153 206 173 190 190 173 206 153 220 132 232 110 242 87 249 62 254 38 257 13 257 -13 254 -38 249 -62 242 -87 232 -110 220 -132 206 -153 190 -173 173 -190 153 -206 132 -220 110 -232 87 -242 62 -249 38 -254 13 -257 -2618 0 Z" class="C2" /><path d="M 161496 22826 l -13 -257 -38 -254 -62 -249 -87 -242 -110 -232 -132 -220 -153 -206 -173 -190 -190 -173 -206 -153 -220 -132 -232 -110 -242 -87 -249 -62 -254 -38 -257 -13 -257 13 -254 38 -249 62 -242 87 -232 110 -220 132 -206 153 -190 173 -173 190 -153 206 -132 220 -110 232 -87 242 -62 249 -38 254 -13 257 2618 0 Z" class="C2" /><path d="M 272576 22826 l 13 257 38 254 62 249 87 242 110 232 132 220 153 206 173 190 190 173 206 153 220 132 232 110 242 87 249 62 254 38 257 13 257 -13 254 -38 249 -62 242 -87 232 -110 220 -132 206 -153 190 -173 173 -190 153 -206 132 -220 110 -232 87 -242 62 -249 38 -254 13 -257 -2618 0 Z" class="C2" /><path d="M 277812 22826 l -13 -257 -38 -254 -62 -249 -87 -242 -110 -232 -132 -220 -153 -206 -173 -190 -190 -173 -206 -153 -220 -132 -232 -110 -242 -87 -249 -62 -254 -38 -257 -13 -257 13 -254 38 -249 62 -242 87 -232 110 -220 132 -206 153 -190 173 -173 190 -153 206 -132 220 -110 232 -87 242 -62 249 -38 254 -13 257 2618 0 Z" class="C2" /><path d="M 158878 22826 l 22826 -22826" class="C1" /><path d="M 275194 22826 l -22826 -22826" class="C1" /><path d="M 181705 0 l 70663 0" class="C1" /><path d="M 105591 73249 l 0 52400" class="C1" /><path d="M 158878 73249 l 0 52400" class="C1" /><path d="M 223053 73249 l 0 52400" class="C1" /><path d="M 105591 125649 l 17405 0" class="C1" /><path d="M 158878 125649 l 22848 0" class="C1" /><path d="M 30777 61789 l 13 257 38 254 62 249 87 242 110 232 132 220 153 206 173 190 190 173 206 153 220 132 232 110 242 87 249 62 254 38 257 13 257 -13 254 -38 249 -62 242 -87 232 -110 220 -132 206 -153 190 -173 173 -190 153 -206 132 -220 110 -232 87 -242 62 -249 38 -254 13 -257 -2618 0 Z" class="C2" /><path d="M 36012 61789 l -13 -257 -38 -254 -62 -249 -87 -242 -110 -232 -132 -220 -153 -206 -173 -190 -190 -173 -206 -153 -220 -132 -232 -110 -242 -87 -249 -62 -254 -38 -257 -13 -257 13 -254 38 -249 62 -242 87 -232 110 -220 132 -206 153 -190 173 -173 190 -153 206 -132 220 -110 232 -87 242 -62 249 -38 254 -13 257 2618 0 Z" class="C2" /><path d="M 33395 61789 l 0 63860" class="C1" /><path d="M 105591 125649 l -26859 0" class="C1" /><path d="M 70639 125649 l 6876 0" class="C1" /><path d="M 78732 125649 c 0 5103 -4136 9239 -9239 9239 c -5103 0 -9239 -4136 -9239 -9239 c 0 -5103 4136 -9239 9239 -9239 c 5103 0 9239 4136 9239 9239" class="C1" /><path d="M 64909 122212 l 0 6876" class="C1" /><path d="M 61471 125649 l 6876 0" class="C1" /><path d="M 123926 125964 l 6876 0" class="C1" /><path d="M 141474 125649 c 0 5103 -4136 9239 -9239 9239 c -5103 0 -9239 -4136 -9239 -9239 c 0 -5103 4136 -9239 9239 -9239 c 5103 0 9239 4136 9239 9239" class="C1" /><path d="M 136818 122212 l 0 6876" class="C1" /><path d="M 133380 125649 l 6876 0" class="C1" /><path d="M 192111 125649 l 6876 0" class="C1" /><path d="M 200204 125649 c 0 5103 -4136 9239 -9239 9239 c -5103 0 -9239 -4136 -9239 -9239 c 0 -5103 4136 -9239 9239 -9239 c 5103 0 9239 4136 9239 9239" class="C1" /><path d="M 186381 122212 l 0 6876" class="C1" /><path d="M 182944 125649 l 6876 0" class="C1" /><path d="M 200204 125649 l 22848 0" class="C1" /><path d="M 141474 125649 l 17405 0" class="C1" /><path d="M 60253 125649 l -26859 0" class="C1" /><path d="M 189682 305259 l 22848 0" class="C1" /><path d="M 189682 202436 l 22826 -22826" class="C1" /><path d="M 167336 202436 l 44693 0" class="C1" /><path d="M 212028 252859 l -44693 0" class="C1" /><path d="M 54705 241399 l 13 257 38 254 62 249 87 242 110 232 132 220 153 206 173 190 190 173 206 153 220 132 232 110 242 87 249 62 254 38 257 13 257 -13 254 -38 249 -62 242 -87 232 -110 220 -132 206 -153 190 -173 173 -190 153 -206 132 -220 110 -232 87 -242 62 -249 38 -254 13 -257 -2618 0 Z" class="C2" /><path d="M 59940 241399 l -13 -257 -38 -254 -62 -249 -87 -242 -110 -232 -132 -220 -153 -206 -173 -190 -190 -173 -206 -153 -220 -132 -232 -110 -242 -87 -249 -62 -254 -38 -257 -13 -257 13 -254 38 -249 62 -242 87 -232 110 -220 132 -206 153 -190 173 -173 190 -153 206 -132 220 -110 232 -87 242 -62 249 -38 254 -13 257 2618 0 Z" class="C2" /><path d="M 33257 236887 l 0 4513" class="C1" /><path d="M 81388 239107 l 0 2292" class="C1" /><path d="M 87619 305259 l -30297 0" class="C1" /><path d="M 57323 241399 l 0 63860" class="C1" /><path d="M 81388 241399 l -48131 0" class="C1" /><path d="M 136394 305259 l 17405 0" class="C1" /><path d="M 149000 252859 l -44693 0" class="C1" /><path d="M 136394 252859 l 0 52400" class="C1" /><path d="M 136394 305259 l -30297 0" class="C1" /><path d="M 106098 305259 c 0 5103 -4136 9239 -9239 9239 c -5103 0 -9239 -4136 -9239 -9239 c 0 -5103 4136 -9239 9239 -9239 c 5103 0 9239 4136 9239 9239" class="C1" /><path d="M 98004 305259 l 6876 0" class="C1" /><path d="M 92275 301822 l 0 6876" class="C1" /><path d="M 88837 305259 l 6876 0" class="C1" /><path d="M 133777 252859 l 13 257 38 254 62 249 87 242 110 232 132 220 153 206 173 190 190 173 206 153 220 132 232 110 242 87 249 62 254 38 257 13 257 -13 254 -38 249 -62 242 -87 232 -110 220 -132 206 -153 190 -173 173 -190 153 -206 132 -220 110 -232 87 -242 62 -249 38 -254 13 -257 -2618 0 Z" class="C2" /><path d="M 139012 252859 l -13 -257 -38 -254 -62 -249 -87 -242 -110 -232 -132 -220 -153 -206 -173 -190 -190 -173 -206 -153 -220 -132 -232 -110 -242 -87 -249 -62 -254 -38 -257 -13 -257 13 -254 38 -249 62 -242 87 -232 110 -220 132 -206 153 -190 173 -173 190 -153 206 -132 220 -110 232 -87 242 -62 249 -38 254 -13 257 2618 0 Z" class="C2" /><path d="M 189682 252859 l 0 52400" class="C1" /><path d="M 164184 305259 l 6876 0" class="C1" /><path d="M 172277 305259 c 0 5103 -4136 9239 -9239 9239 c -5103 0 -9239 -4136 -9239 -9239 c 0 -5103 4136 -9239 9239 -9239 c 5103 0 9239 4136 9239 9239" class="C1" /><path d="M 154730 305574 l 6876 0" class="C1" /><path d="M 167622 301822 l 0 6876" class="C1" /><path d="M 172277 305259 l 17405 0" class="C1" /><path d="M 187064 252859 l 13 257 38 254 62 249 87 242 110 232 132 220 153 206 173 190 190 173 206 153 220 132 232 110 242 87 249 62 254 38 257 13 257 -13 254 -38 249 -62 242 -87 232 -110 220 -132 206 -153 190 -173 173 -190 153 -206 132 -220 110 -232 87 -242 62 -249 38 -254 13 -257 -2618 0 Z" class="C2" /><path d="M 192300 252859 l -13 -257 -38 -254 -62 -249 -87 -242 -110 -232 -132 -220 -153 -206 -173 -190 -190 -173 -206 -153 -220 -132 -232 -110 -242 -87 -249 -62 -254 -38 -257 -13 -257 13 -254 38 -249 62 -242 87 -232 110 -220 132 -206 153 -190 173 -173 190 -153 206 -132 220 -110 232 -87 242 -62 249 -38 254 -13 257 2618 0 Z" class="C2" /><path d="M 81388 234523 l 4584 1146" class="C1" /><path d="M 85972 235669 l -9168 2292" class="C1" /><path d="M 81388 229940 l 4584 1146" class="C1" /><path d="M 85972 231086 l -9168 2292" class="C1" /><path d="M 81388 225356 l 4584 1146" class="C1" /><path d="M 85972 226502 l -9168 2292" class="C1" /><path d="M 81388 220772 l 4584 1146" class="C1" /><path d="M 85972 221918 l -9168 2292" class="C1" /><path d="M 85972 217334 l -9168 2292" class="C1" /><path d="M 81388 216188 l 4584 1146" class="C1" /><path d="M 29819 233378 l 6876 0" class="C1" /><path d="M 29819 223064 l 6876 0" class="C1" /><path d="M 42496 227648 c 0 5103 -4136 9239 -9239 9239 c -5103 0 -9239 -4136 -9239 -9239 c 0 -5103 4136 -9239 9239 -9239 c 5103 0 9239 4136 9239 9239" class="C1" /><path d="M 81388 213896 l -48131 0" class="C1" /><path d="M 33257 219626 l 0 6876" class="C1" /><path d="M 33257 213896 l 0 4513" class="C1" /><path d="M 76804 237961 l 4584 1146" class="C1" /><path d="M 76804 233378 l 4584 1146" class="C1" /><path d="M 76804 228794 l 4584 1146" class="C1" /><path d="M 76804 224210 l 4584 1146" class="C1" /><path d="M 76804 219626 l 4584 1146" class="C1" /><path d="M 81388 213896 l 0 2292" class="C1" /><path d="M 104307 202436 l 44693 0" class="C1" /><path d="M 187064 202436 l 13 257 38 254 62 249 87 242 110 232 132 220 153 206 173 190 190 173 206 153 220 132 232 110 242 87 249 62 254 38 257 13 257 -13 254 -38 249 -62 242 -87 232 -110 220 -132 206 -153 190 -173 173 -190 153 -206 132 -220 110 -232 87 -242 62 -249 38 -254 13 -257 -2618 0 Z" class="C2" /><path d="M 192300 202436 l -13 -257 -38 -254 -62 -249 -87 -242 -110 -232 -132 -220 -153 -206 -173 -190 -190 -173 -206 -153 -220 -132 -232 -110 -242 -87 -249 -62 -254 -38 -257 -13 -257 13 -254 38 -249 62 -242 87 -232 110 -220 132 -206 153 -190 173 -173 190 -153 206 -132 220 -110 232 -87 242 -62 249 -38 254 -13 257 2618 0 Z" class="C2" /><path d="M 317458 252859 l -22919 0" class="C1" /><path d="M 231008 305259 l 22848 0" class="C1" /><path d="M 276203 252859 l -44693 0" class="C1" /><path d="M 231008 305259 c 0 5103 -4136 9239 -9239 9239 c -5103 0 -9239 -4136 -9239 -9239 c 0 -5103 4136 -9239 9239 -9239 c 5103 0 9239 4136 9239 9239" class="C1" /><path d="M 222915 305259 l 6876 0" class="C1" /><path d="M 217185 301822 l 0 6876" class="C1" /><path d="M 213747 305259 l 6876 0" class="C1" /><path d="M 253856 252859 l 0 52400" class="C1" /><path d="M 251239 252859 l 13 257 38 254 62 249 87 242 110 232 132 220 153 206 173 190 190 173 206 153 220 132 232 110 242 87 249 62 254 38 257 13 257 -13 254 -38 249 -62 242 -87 232 -110 220 -132 206 -153 190 -173 173 -190 153 -206 132 -220 110 -232 87 -242 62 -249 38 -254 13 -257 -2618 0 Z" class="C2" /><path d="M 256474 252859 l -13 -257 -38 -254 -62 -249 -87 -242 -110 -232 -132 -220 -153 -206 -173 -190 -190 -173 -206 -153 -220 -132 -232 -110 -242 -87 -249 -62 -254 -38 -257 -13 -257 13 -254 38 -249 62 -242 87 -232 110 -220 132 -206 153 -190 173 -173 190 -153 206 -132 220 -110 232 -87 242 -62 249 -38 254 -13 257 2618 0 Z" class="C2" /><path d="M 305998 202436 l -22826 -22826" class="C1" /><path d="M 294538 202436 l 22919 0" class="C1" /><path d="M 212508 179610 l 70663 0" class="C1" /><path d="M 231510 202436 l 44693 0" class="C1" /><path d="M 303380 202436 l 13 257 38 254 62 249 87 242 110 232 132 220 153 206 173 190 190 173 206 153 220 132 232 110 242 87 249 62 254 38 257 13 257 -13 254 -38 249 -62 242 -87 232 -110 220 -132 206 -153 190 -173 173 -190 153 -206 132 -220 110 -232 87 -242 62 -249 38 -254 13 -257 -2618 0 Z" class="C2" /><path d="M 308616 202436 l -13 -257 -38 -254 -62 -249 -87 -242 -110 -232 -132 -220 -153 -206 -173 -190 -190 -173 -206 -153 -220 -132 -232 -110 -242 -87 -249 -62 -254 -38 -257 -13 -257 13 -254 38 -249 62 -242 87 -232 110 -220 132 -206 153 -190 173 -173 190 -153 206 -132 220 -110 232 -87 242 -62 249 -38 254 -13 257 2618 0 Z" class="C2" /><path d="M 104307 202436 c 5696 0 10314 11287 10314 25211 c 0 13924 -4618 25211 -10314 25211 c -5696 0 -10314 -11287 -10314 -25211 c 0 -13924 4618 -25211 10314 -25211" class="C1" /><path d="M 136394 202436 l 531 33 m 0 0 l 524 97 m 0 0 l 516 160 m 0 0 l 508 222 m 0 0 l 499 282 m 0 0 l 15 10 m 2829 2961 l 345 540 m 0 0 l 404 703 m 0 0 l 390 748 m 0 0 l 194 411 m 1475 3849 l 35 110 m 0 0 l 288 988 m 0 0 l 268 1023 m 0 0 l 126 534 m 767 4052 l 137 990 m 0 0 l 139 1196 m 0 0 l 51 544 m 249 4117 l 11 342 m 0 0 l 13 1297 m 0 0 l -11 1110 m -212 4119 l -101 1071 m 0 0 l -139 1196 m 0 0 l -64 466 m -718 4061 l -247 1049 m 0 0 l -268 1023 m 0 0 l -172 591 m -1403 3876 l -43 99 m 0 0 l -374 792 m 0 0 l -390 748 m 0 0 l -404 703 m 0 0 l -60 94 m -2679 3106 l -450 312 m 0 0 l -499 282 m 0 0 l -508 222 m 0 0 l -516 160 m 0 0 l -524 97 m 0 0 l -2 0 m -3802 -1272 l -273 -226 m 0 0 l -468 -451 m 0 0 l -457 -505 m 0 0 l -445 -557 m 0 0 l -204 -287 m -1981 -3609 l -191 -445 m 0 0 l -342 -876 m 0 0 l -324 -915 m 0 0 l -109 -339 m -1065 -3984 l -164 -784 m 0 0 l -207 -1117 m 0 0 l -129 -803 m -484 -4096 l -79 -1075 m 0 0 l -66 -1262 m 0 0 l -13 -409 m -7 -4125 l 19 -622 m 0 0 l 66 -1262 m 0 0 l 63 -862 m 465 -4098 l 164 -1014 m 0 0 l 207 -1117 m 0 0 l 121 -575 m 1043 -3989 l 174 -542 m 0 0 l 324 -915 m 0 0 l 342 -876 m 0 0 l 107 -249 m 1942 -3631 l 328 -461 m 0 0 l 445 -557 m 0 0 l 457 -505 m 0 0 l 468 -451 m 0 0 l 108 -89" class="C1" /><path d="M 136394 224210 l 117 18 m 0 0 l 114 52 m 0 0 l 110 85 m 0 0 l 105 116 m 0 0 l 100 145 m 0 0 l 94 172 m 0 0 l 88 198 m 0 0 l 81 222 m 0 0 l 74 244 m 0 0 l 66 265 m 0 0 l 57 283 m 0 0 l 48 301 m 0 0 l 32 263 m -510 4041 l -31 57 m 0 0 l -100 145 m 0 0 l -105 116 m 0 0 l -110 85 m 0 0 l -114 52 m 0 0 l -117 18 m 0 0 l -117 -18 m 0 0 l -114 -52 m 0 0 l -110 -85 m 0 0 l -105 -116 m 0 0 l -100 -145 m 0 0 l -94 -172 m 0 0 l -88 -198 m 0 0 l -81 -222 m 0 0 l -74 -244 m 0 0 l -66 -265 m 0 0 l -16 -77 m 99 -4089 l 57 -187 m 0 0 l 81 -222 m 0 0 l 88 -198 m 0 0 l 94 -172 m 0 0 l 100 -145 m 0 0 l 105 -116 m 0 0 l 110 -85 m 0 0 l 114 -52 m 0 0 l 117 -18" class="C1" /><path d="M 149000 252859 c 5696 0 10314 -11287 10314 -25211 c 0 -13924 -4618 -25211 -10314 -25211" class="C1" /><path d="M 167336 224210 c 633 0 1146 1539 1146 3438 c 0 1899 -513 3438 -1146 3438 c -633 0 -1146 -1539 -1146 -3438 c 0 -1899 513 -3438 1146 -3438" class="C1" /><path d="M 158168 239198 c 2181 10342 6973 15693 11599 12951 c 4626 -2742 7883 -12866 7883 -24501 c 0 -11635 -3257 -21759 -7883 -24501 c -4626 -2742 -9418 2609 -11599 12951" class="C1" /><path d="M 212028 224210 l 117 18 m 0 0 l 114 52 m 0 0 l 110 85 m 0 0 l 105 116 m 0 0 l 100 145 m 0 0 l 94 172 m 0 0 l 88 198 m 0 0 l 81 222 m 0 0 l 74 244 m 0 0 l 66 265 m 0 0 l 57 283 m 0 0 l 48 301 m 0 0 l 32 263 m -510 4041 l -31 57 m 0 0 l -100 145 m 0 0 l -105 116 m 0 0 l -110 85 m 0 0 l -114 52 m 0 0 l -117 18 m 0 0 l -117 -18 m 0 0 l -114 -52 m 0 0 l -110 -85 m 0 0 l -105 -116 m 0 0 l -100 -145 m 0 0 l -94 -172 m 0 0 l -88 -198 m 0 0 l -81 -222 m 0 0 l -74 -244 m 0 0 l -66 -265 m 0 0 l -16 -77 m 99 -4089 l 57 -187 m 0 0 l 81 -222 m 0 0 l 88 -198 m 0 0 l 94 -172 m 0 0 l 100 -145 m 0 0 l 105 -116 m 0 0 l 110 -85 m 0 0 l 114 -52 m 0 0 l 117 -18" class="C1" /><path d="M 276203 224210 l 117 18 m 0 0 l 114 52 m 0 0 l 110 85 m 0 0 l 105 116 m 0 0 l 100 145 m 0 0 l 94 172 m 0 0 l 88 198 m 0 0 l 81 222 m 0 0 l 74 244 m 0 0 l 66 265 m 0 0 l 57 283 m 0 0 l 48 301 m 0 0 l 32 263 m -510 4041 l -31 57 m 0 0 l -100 145 m 0 0 l -105 116 m 0 0 l -110 85 m 0 0 l -114 52 m 0 0 l -117 18 m 0 0 l -117 -18 m 0 0 l -114 -52 m 0 0 l -110 -85 m 0 0 l -105 -116 m 0 0 l -100 -145 m 0 0 l -94 -172 m 0 0 l -88 -198 m 0 0 l -81 -222 m 0 0 l -74 -244 m 0 0 l -66 -265 m 0 0 l -16 -77 m 99 -4089 l 57 -187 m 0 0 l 81 -222 m 0 0 l 88 -198 m 0 0 l 94 -172 m 0 0 l 100 -145 m 0 0 l 105 -116 m 0 0 l 110 -85 m 0 0 l 114 -52 m 0 0 l 117 -18" class="C1" /><path d="M 317458 224210 l 117 18 m 0 0 l 114 52 m 0 0 l 110 85 m 0 0 l 105 116 m 0 0 l 100 145 m 0 0 l 94 172 m 0 0 l 88 198 m 0 0 l 81 222 m 0 0 l 74 244 m 0 0 l 66 265 m 0 0 l 57 283 m 0 0 l 48 301 m 0 0 l 32 263 m -510 4041 l -31 57 m 0 0 l -100 145 m 0 0 l -105 116 m 0 0 l -110 85 m 0 0 l -114 52 m 0 0 l -117 18 m 0 0 l -117 -18 m 0 0 l -114 -52 m 0 0 l -110 -85 m 0 0 l -105 -116 m 0 0 l -100 -145 m 0 0 l -94 -172 m 0 0 l -88 -198 m 0 0 l -81 -222 m 0 0 l -74 -244 m 0 0 l -66 -265 m 0 0 l -16 -77 m 99 -4089 l 57 -187 m 0 0 l 81 -222 m 0 0 l 88 -198 m 0 0 l 94 -172 m 0 0 l 100 -145 m 0 0 l 105 -116 m 0 0 l 110 -85 m 0 0 l 114 -52 m 0 0 l 117 -18" class="C1" /><path d="M 231510 224210 c 633 0 1146 1539 1146 3438 c 0 1899 -513 3438 -1146 3438 c -633 0 -1146 -1539 -1146 -3438 c 0 -1899 513 -3438 1146 -3438" class="C1" /><path d="M 294538 224210 c 633 0 1146 1539 1146 3438 c 0 1899 -513 3438 -1146 3438 c -633 0 -1146 -1539 -1146 -3438 c 0 -1899 513 -3438 1146 -3438" class="C1" /><path d="M 212028 252859 c 5696 0 10314 -11287 10314 -25211 c 0 -13924 -4618 -25211 -10314 -25211" class="C1" /><path d="M 212028 252859 l -531 -33 m 0 0 l -524 -97 m 0 0 l -516 -160 m 0 0 l -508 -222 m 0 0 l -499 -282 m 0 0 l -15 -10 m -2829 -2961 l -345 -540 m 0 0 l -404 -703 m 0 0 l -390 -748 m 0 0 l -194 -411 m -1475 -3849 l -35 -110 m 0 0 l -288 -988 m 0 0 l -268 -1023 m 0 0 l -126 -534 m -767 -4052 l -137 -990 m 0 0 l -139 -1196 m 0 0 l -51 -544 m -249 -4117 l -11 -342 m 0 0 l -13 -1297 m 0 0 l 11 -1110 m 212 -4119 l 101 -1071 m 0 0 l 139 -1196 m 0 0 l 64 -466 m 718 -4061 l 247 -1049 m 0 0 l 268 -1023 m 0 0 l 172 -591 m 1403 -3876 l 43 -99 m 0 0 l 374 -792 m 0 0 l 390 -748 m 0 0 l 404 -703 m 0 0 l 60 -94 m 2679 -3106 l 450 -312 m 0 0 l 499 -282 m 0 0 l 508 -222 m 0 0 l 516 -160 m 0 0 l 524 -97 m 0 0 l 2 -0" class="C1" /><path d="M 276203 252859 l -531 -33 m 0 0 l -524 -97 m 0 0 l -516 -160 m 0 0 l -508 -222 m 0 0 l -499 -282 m 0 0 l -15 -10 m -2829 -2961 l -345 -540 m 0 0 l -404 -703 m 0 0 l -390 -748 m 0 0 l -194 -411 m -1475 -3849 l -35 -110 m 0 0 l -288 -988 m 0 0 l -268 -1023 m 0 0 l -126 -534 m -767 -4052 l -137 -990 m 0 0 l -139 -1196 m 0 0 l -51 -544 m -249 -4117 l -11 -342 m 0 0 l -13 -1297 m 0 0 l 11 -1110 m 212 -4119 l 101 -1071 m 0 0 l 139 -1196 m 0 0 l 64 -466 m 718 -4061 l 247 -1049 m 0 0 l 268 -1023 m 0 0 l 172 -591 m 1403 -3876 l 43 -99 m 0 0 l 374 -792 m 0 0 l 390 -748 m 0 0 l 404 -703 m 0 0 l 60 -94 m 2679 -3106 l 450 -312 m 0 0 l 499 -282 m 0 0 l 508 -222 m 0 0 l 516 -160 m 0 0 l 524 -97 m 0 0 l 2 -0" class="C1" /><path d="M 276203 252859 c 5696 0 10314 -11287 10314 -25211 c 0 -13924 -4618 -25211 -10314 -25211" class="C1" /><path d="M 317458 252859 l -531 -33 m 0 0 l -524 -97 m 0 0 l -516 -160 m 0 0 l -508 -222 m 0 0 l -499 -282 m 0 0 l -15 -10 m -2829 -2961 l -345 -540 m 0 0 l -404 -703 m 0 0 l -390 -748 m 0 0 l -194 -411 m -1475 -3849 l -35 -110 m 0 0 l -288 -988 m 0 0 l -268 -1023 m 0 0 l -126 -534 m -767 -4052 l -137 -990 m 0 0 l -139 -1196 m 0 0 l -51 -544 m -249 -4117 l -11 -342 m 0 0 l -13 -1297 m 0 0 l 11 -1110 m 212 -4119 l 101 -1071 m 0 0 l 139 -1196 m 0 0 l 64 -466 m 718 -4061 l 247 -1049 m 0 0 l 268 -1023 m 0 0 l 172 -591 m 1403 -3876 l 43 -99 m 0 0 l 374 -792 m 0 0 l 390 -748 m 0 0 l 404 -703 m 0 0 l 60 -94 m 2679 -3106 l 450 -312 m 0 0 l 499 -282 m 0 0 l 508 -222 m 0 0 l 516 -160 m 0 0 l 524 -97 m 0 0 l 2 -0" class="C1" /><path d="M 317458 252859 c 5696 0 10314 -11287 10314 -25211 c 0 -13924 -4618 -25211 -10314 -25211" class="C1" /><path d="M 221769 235934 c 1654 11619 6497 18623 11460 16572 c 4962 -2050 8595 -12556 8595 -24859 c 0 -12302 -3632 -22808 -8595 -24859 c -4962 -2050 -9806 4954 -11460 16572" class="C1" /><path d="M 285371 239198 c 2181 10342 6973 15693 11599 12951 c 4626 -2742 7883 -12866 7883 -24501 c 0 -11635 -3257 -21759 -7883 -24501 c -4626 -2742 -9418 2609 -11599 12951" class="C1" /></g><!--labels--><text x="106000" y="172000" font-family="Arial, Helvetica, sans-serif" font-size="16000" font-weight="bold" fill="#111">A</text><text x="159000" y="172000" font-family="Arial, Helvetica, sans-serif" font-size="16000" font-weight="bold" fill="#111">B</text><text x="212000" y="172000" font-family="Arial, Helvetica, sans-serif" font-size="16000" font-weight="bold" fill="#111">C</text><text x="266000" y="172000" font-family="Arial, Helvetica, sans-serif" font-size="16000" font-weight="bold" fill="#111">D</text><text x="316000" y="172000" font-family="Arial, Helvetica, sans-serif" font-size="16000" font-weight="bold" fill="#111">E</text><text x="44000" y="143000" font-family="Arial, Helvetica, sans-serif" font-size="12000" fill="#111">10V</text><text x="136000" y="143000" font-family="Arial, Helvetica, sans-serif" font-size="12000" fill="#111">5000V</text><text x="208000" y="143000" font-family="Arial, Helvetica, sans-serif" font-size="12000" fill="#111">100V</text></svg>
