<?xml version='1.0' encoding='UTF-8'?>
<svg xmlns="http://www.w3.org/2000/svg" width="65.1mm" height="102.9mm" viewBox="0 0 632653 1000000"><defs><style>.C1 {stroke: #000000; stroke-width: 2430; stroke-opacity: 1.000; fill: none; fill-opacity: 1.000;}</style><style>.C2 {stroke: none; stroke-width: none; stroke-opacity: 1.000; fill: #000000; fill-opacity: 1.000;}</style></defs><rect fill="#ffffff" x="0" y="0" width="632653" height="1000000" fill-opacity="1.0"/><g stroke-linecap="round" stroke-linejoin="round" fill-rule="evenodd"><path d="M 0 82944 c 0 -45781 141624 -82893 316327 -82893 c 174702 0 316327 37113 316327 82893 c 0 45781 -141624 82893 -316327 82893 c -174702 0 -316327 -37113 -316327 -82893" class="C1"/><path d="M 316327 82944 l 0 917005" class="C1"/><path d="M 316327 999949 l 315031 -909512" class="C1"/><path d="M 316327 999949 l -315031 -909512" class="C1"/><path d="M 632653 82944 l -632653 0" class="C1"/><path d="M 469459 557847 l -7748 22369" class="C1"/><path d="M 316327 530283 l 0 25468" class="C1"/><path d="M 422977 543751 c -19147 -4476 -38557 -7743 -58115 -9780" class="C1"/><path d="M 425228 535970 l -4501 15562 48938 5722 Z" class="C2"/><path d="M 364442 542061 l 840 -16179 -48956 5568 Z" class="C2"/><path d="M 100017 143428 l 141014 -141014 m -205850 118561 l 107292 -107292 m 395279 128461 l 82373 -82373 m -187584 100294 l 129371 -129371 m -222211 134921 l 151718 -151718 m -237612 150322 l 160145 -160145 m -240179 152889 l 156829 -156829" class="C1"/></g></svg>