<?xml version='1.0' encoding='utf-8'?>
<svg xmlns="http://www.w3.org/2000/svg" width="335.3mm" height="169mm" viewBox="0 0 1000000 504026"><defs><style>.C1 {stroke: #000000; stroke-width: 746; stroke-opacity: 1.000; fill: none; fill-opacity: 1.000;}</style><style>.C2 {stroke: none; stroke-width: none; stroke-opacity: 1.000; fill: #000000; fill-opacity: 1.000;}</style></defs><rect fill="#ffffff" x="0" y="0" width="1000000" height="504026" fill-opacity="1.0" /><g stroke-linecap="round" stroke-linejoin="round" fill-rule="evenodd"><path d="M 98469 271399 l -17894 17894" class="C1" /><path d="M 98469 325082 l 110349 0" class="C1" /><path d="M 50 307188 l 0 -17894" class="C1" /><path d="M 98469 325082 l -17894 -17894" class="C1" /><path d="M 98469 271399 l 110349 0" class="C1" /><path d="M 208818 271399 l 0 8947" class="C1" /><path d="M 208818 280346 l -5965 0" class="C1" /><path d="M 202853 316135 l 5965 0" class="C1" /><path d="M 208818 316135 l 0 8947" class="C1" /><path d="M 80575 289293 l -80525 0" class="C1" /><path d="M 80575 307188 l -80525 0" class="C1" /><path d="M 202853 280346 l 0 35789 l -32806 0 l 0 -35789 l 32806 0" class="C1" /><path d="M 189462 316135 l 13391 -13391 m -26783 13391 l 26783 -26783 m -32806 19415 l 28421 -28421 m -28421 15030 l 15030 -15030 m -15030 1639 l 1639 -1639" class="C1" /><path d="M 462322 292276 l 23859 0" class="C1" /><path d="M 486182 292276 l 0 -152103" class="C1" /><path d="M 486182 140173 l -23859 0" class="C1" /><path d="M 462322 140173 l 0 152103" class="C1" /><path d="M 462322 456308 l 0 -152103" class="C1" /><path d="M 486182 304205 l 0 152103" class="C1" /><path d="M 462322 304205 l 23859 0" class="C1" /><path d="M 486182 456308 l -23859 0" class="C1" /><path d="M 507059 92455 l 2982 0" class="C1" /><path d="M 507059 504026 l 2982 0" class="C1" /><path d="M 507059 92455 l 0 411572" class="C1" /><path d="M 510041 92455 l 0 411572" class="C1" /><path d="M 428025 294512 l 0 7456 22368 -3728 Z" class="C2" /><path d="M 428025 298240 l -213242 0" class="C1" /><path d="M 510041 298240 l 0 0" class="C1" /><path d="M 890392 74446 l 3728 6457 17507 -14413 Z" class="C2" /><path d="M 892256 77674 l -370637 213987" class="C1" /><path d="M 940545 80789 l 59405 -34298" class="C1" /><path d="M 999950 46491 l -26842 -46491" class="C1" /><path d="M 913703 34298 l 7456 12914" class="C1" /><path d="M 913703 34298 l 59405 -34298" class="C1" /><path d="M 933089 67875 l 18080 -10438" class="C1" /><path d="M 951169 57436 l -11930 -20663" class="C1" /><path d="M 921159 47212 l 18080 -10438" class="C1" /><path d="M 933089 67875 l 7456 12914" class="C1" /><path d="M 948586 58927 l -11930 -20663" class="C1" /><path d="M 946003 60419 l -11930 -20663" class="C1" /><path d="M 527935 298240 l 35789 0 m 8947 0 l 35789 0 m 8947 0 l 35789 0 m 8947 0 l 35789 0 m 8947 0 l 35789 0 m 8947 0 l 35789 0 m 8947 0 l 35789 0 m 8947 0 l 35789 0 m 8947 0 l 35789 0 m 8947 0 l 35789 0 m 8947 0 l 20877 0" class="C1" /><path d="M 633921 226826 l 22321 -12868" class="C1" /><path d="M 672820 287063 c -1442 -21000 -6934 -41523 -16173 -60436" class="C1" /><path d="M 674683 286999 l -3726 128 2246 11114 Z" class="C2" /><path d="M 655001 227502 l 3292 -1750 -6896 -9000 Z" class="C2" /></g></svg>