<?xml version='1.0' encoding='UTF-8'?>
<svg xmlns="http://www.w3.org/2000/svg" width="200.0mm" height="96.8mm" viewBox="-14250 393955 385656 186701"><defs><style>.C1 {stroke: #000000; stroke-width: 302; stroke-opacity: 1.000; fill: none; fill-opacity: 1.000;}</style><style>.C2 {stroke: none; stroke-width: none; stroke-opacity: 1.000; fill: #000000; fill-opacity: 1.000;}</style></defs><rect fill="#ffffff" x="-14250" y="393955" width="385656" height="186701" fill-opacity="1.0"/><g stroke-linecap="round" stroke-linejoin="round"><path d="M 194552 525846 c 0 8193 -6641 14834 -14834 14834 c -8193 0 -14834 -6641 -14834 -14834 c 0 -8193 6641 -14834 14834 -14834 c 8193 0 14834 6641 14834 14834" class="C1"/><path d="M 209386 500153 c 0 8193 -6641 14834 -14834 14834 c -8193 0 -14834 -6641 -14834 -14834 c 0 -8193 6641 -14834 14834 -14834 c 8193 0 14834 6641 14834 14834" class="C1"/><path d="M 194552 474460 c 0 8193 -6641 14834 -14834 14834 c -8193 0 -14834 -6641 -14834 -14834 c 0 -8193 6641 -14834 14834 -14834 c 8193 0 14834 6641 14834 14834" class="C1"/><path d="M 209386 448766 c 0 8193 -6641 14834 -14834 14834 c -8193 0 -14834 -6641 -14834 -14834 c 0 -8193 6641 -14834 14834 -14834 c 8193 0 14834 6641 14834 14834" class="C1"/><path d="M 194552 423073 c 0 8193 -6641 14834 -14834 14834 c -8193 0 -14834 -6641 -14834 -14834 c 0 -8193 6641 -14834 14834 -14834 c 8193 0 14834 6641 14834 14834" class="C1"/><path d="M 164884 474460 c 0 8193 -6641 14834 -14834 14834 c -8193 0 -14834 -6641 -14834 -14834 c 0 -8193 6641 -14834 14834 -14834 c 8193 0 14834 6641 14834 14834" class="C1"/><path d="M 164884 525846 c 0 8193 -6641 14834 -14834 14834 c -8193 0 -14834 -6641 -14834 -14834 c 0 -8193 6641 -14834 14834 -14834 c 8193 0 14834 6641 14834 14834" class="C1"/><path d="M 179718 500153 c 0 8193 -6641 14834 -14834 14834 c -8193 0 -14834 -6641 -14834 -14834 c 0 -8193 6641 -14834 14834 -14834 c 8193 0 14834 6641 14834 14834" class="C1"/><path d="M 149177 525846 l 4 86 13 85 21 83 29 81 37 77 44 73 51 69 58 63 63 58 69 51 73 44 77 37 81 29 83 21 85 13 86 4 86 -4 85 -13 83 -21 81 -29 77 -37 73 -44 69 -51 63 -58 58 -63 51 -69 44 -73 37 -77 29 -81 21 -83 13 -85 4 -86 -873 0 Z" class="C2"/><path d="M 150923 525846 l -4 -86 -13 -85 -21 -83 -29 -81 -37 -77 -44 -73 -51 -69 -58 -63 -63 -58 -69 -51 -73 -44 -77 -37 -81 -29 -83 -21 -85 -13 -86 -4 -86 4 -85 13 -83 21 -81 29 -77 37 -73 44 -69 51 -63 58 -58 63 -51 69 -44 73 -37 77 -29 81 -21 83 -13 85 -4 86 873 0 Z" class="C2"/><path d="M 178845 525846 l 4 86 13 85 21 83 29 81 37 77 44 73 51 69 58 63 63 58 69 51 73 44 77 37 81 29 83 21 85 13 86 4 86 -4 85 -13 83 -21 81 -29 77 -37 73 -44 69 -51 63 -58 58 -63 51 -69 44 -73 37 -77 29 -81 21 -83 13 -85 4 -86 -873 0 Z" class="C2"/><path d="M 180591 525846 l -4 -86 -13 -85 -21 -83 -29 -81 -37 -77 -44 -73 -51 -69 -58 -63 -63 -58 -69 -51 -73 -44 -77 -37 -81 -29 -83 -21 -85 -13 -86 -4 -86 4 -85 13 -83 21 -81 29 -77 37 -73 44 -69 51 -63 58 -58 63 -51 69 -44 73 -37 77 -29 81 -21 83 -13 85 -4 86 873 0 Z" class="C2"/><path d="M 149177 474460 l 4 86 13 85 21 83 29 81 37 77 44 73 51 69 58 63 63 58 69 51 73 44 77 37 81 29 83 21 85 13 86 4 86 -4 85 -13 83 -21 81 -29 77 -37 73 -44 69 -51 63 -58 58 -63 51 -69 44 -73 37 -77 29 -81 21 -83 13 -85 4 -86 -873 0 Z" class="C2"/><path d="M 150923 474460 l -4 -86 -13 -85 -21 -83 -29 -81 -37 -77 -44 -73 -51 -69 -58 -63 -63 -58 -69 -51 -73 -44 -77 -37 -81 -29 -83 -21 -85 -13 -86 -4 -86 4 -85 13 -83 21 -81 29 -77 37 -73 44 -69 51 -63 58 -58 63 -51 69 -44 73 -37 77 -29 81 -21 83 -13 85 -4 86 873 0 Z" class="C2"/><path d="M 164011 500153 l 4 86 13 85 21 83 29 81 37 77 44 73 51 69 58 63 63 58 69 51 73 44 77 37 81 29 83 21 85 13 86 4 86 -4 85 -13 83 -21 81 -29 77 -37 73 -44 69 -51 63 -58 58 -63 51 -69 44 -73 37 -77 29 -81 21 -83 13 -85 4 -86 -873 0 Z" class="C2"/><path d="M 165757 500153 l -4 -86 -13 -85 -21 -83 -29 -81 -37 -77 -44 -73 -51 -69 -58 -63 -63 -58 -69 -51 -73 -44 -77 -37 -81 -29 -83 -21 -85 -13 -86 -4 -86 4 -85 13 -83 21 -81 29 -77 37 -73 44 -69 51 -63 58 -58 63 -51 69 -44 73 -37 77 -29 81 -21 83 -13 85 -4 86 873 0 Z" class="C2"/><path d="M 178845 474460 l 4 86 13 85 21 83 29 81 37 77 44 73 51 69 58 63 63 58 69 51 73 44 77 37 81 29 83 21 85 13 86 4 86 -4 85 -13 83 -21 81 -29 77 -37 73 -44 69 -51 63 -58 58 -63 51 -69 44 -73 37 -77 29 -81 21 -83 13 -85 4 -86 -873 0 Z" class="C2"/><path d="M 180591 474460 l -4 -86 -13 -85 -21 -83 -29 -81 -37 -77 -44 -73 -51 -69 -58 -63 -63 -58 -69 -51 -73 -44 -77 -37 -81 -29 -83 -21 -85 -13 -86 -4 -86 4 -85 13 -83 21 -81 29 -77 37 -73 44 -69 51 -63 58 -58 63 -51 69 -44 73 -37 77 -29 81 -21 83 -13 85 -4 86 873 0 Z" class="C2"/><path d="M 164884 423073 c 0 8193 -6641 14834 -14834 14834 c -8193 0 -14834 -6641 -14834 -14834 c 0 -8193 6641 -14834 14834 -14834 c 8193 0 14834 6641 14834 14834" class="C1"/><path d="M 179718 448766 c 0 8193 -6641 14834 -14834 14834 c -8193 0 -14834 -6641 -14834 -14834 c 0 -8193 6641 -14834 14834 -14834 c 8193 0 14834 6641 14834 14834" class="C1"/><path d="M 164011 448766 l 4 86 13 85 21 83 29 81 37 77 44 73 51 69 58 63 63 58 69 51 73 44 77 37 81 29 83 21 85 13 86 4 86 -4 85 -13 83 -21 81 -29 77 -37 73 -44 69 -51 63 -58 58 -63 51 -69 44 -73 37 -77 29 -81 21 -83 13 -85 4 -86 -873 0 Z" class="C2"/><path d="M 165757 448766 l -4 -86 -13 -85 -21 -83 -29 -81 -37 -77 -44 -73 -51 -69 -58 -63 -63 -58 -69 -51 -73 -44 -77 -37 -81 -29 -83 -21 -85 -13 -86 -4 -86 4 -85 13 -83 21 -81 29 -77 37 -73 44 -69 51 -63 58 -58 63 -51 69 -44 73 -37 77 -29 81 -21 83 -13 85 -4 86 873 0 Z" class="C2"/><path d="M 149177 423073 l 4 86 13 85 21 83 29 81 37 77 44 73 51 69 58 63 63 58 69 51 73 44 77 37 81 29 83 21 85 13 86 4 86 -4 85 -13 83 -21 81 -29 77 -37 73 -44 69 -51 63 -58 58 -63 51 -69 44 -73 37 -77 29 -81 21 -83 13 -85 4 -86 -873 0 Z" class="C2"/><path d="M 150923 423073 l -4 -86 -13 -85 -21 -83 -29 -81 -37 -77 -44 -73 -51 -69 -58 -63 -63 -58 -69 -51 -73 -44 -77 -37 -81 -29 -83 -21 -85 -13 -86 -4 -86 4 -85 13 -83 21 -81 29 -77 37 -73 44 -69 51 -63 58 -58 63 -51 69 -44 73 -37 77 -29 81 -21 83 -13 85 -4 86 873 0 Z" class="C2"/><path d="M 178845 423073 l 4 86 13 85 21 83 29 81 37 77 44 73 51 69 58 63 63 58 69 51 73 44 77 37 81 29 83 21 85 13 86 4 86 -4 85 -13 83 -21 81 -29 77 -37 73 -44 69 -51 63 -58 58 -63 51 -69 44 -73 37 -77 29 -81 21 -83 13 -85 4 -86 -873 0 Z" class="C2"/><path d="M 180591 423073 l -4 -86 -13 -85 -21 -83 -29 -81 -37 -77 -44 -73 -51 -69 -58 -63 -63 -58 -69 -51 -73 -44 -77 -37 -81 -29 -83 -21 -85 -13 -86 -4 -86 4 -85 13 -83 21 -81 29 -77 37 -73 44 -69 51 -63 58 -58 63 -51 69 -44 73 -37 77 -29 81 -21 83 -13 85 -4 86 873 0 Z" class="C2"/><path d="M 224220 474460 c 0 8193 -6641 14834 -14834 14834 c -8193 0 -14834 -6641 -14834 -14834 c 0 -8193 6641 -14834 14834 -14834 c 8193 0 14834 6641 14834 14834" class="C1"/><path d="M 253888 474460 c 0 8193 -6641 14834 -14834 14834 c -8193 0 -14834 -6641 -14834 -14834 c 0 -8193 6641 -14834 14834 -14834 c 8193 0 14834 6641 14834 14834" class="C1"/><path d="M 253888 525846 c 0 8193 -6641 14834 -14834 14834 c -8193 0 -14834 -6641 -14834 -14834 c 0 -8193 6641 -14834 14834 -14834 c 8193 0 14834 6641 14834 14834" class="C1"/><path d="M 268721 500153 c 0 8193 -6641 14834 -14834 14834 c -8193 0 -14834 -6641 -14834 -14834 c 0 -8193 6641 -14834 14834 -14834 c 8193 0 14834 6641 14834 14834" class="C1"/><path d="M 239054 500153 c 0 8193 -6641 14834 -14834 14834 c -8193 0 -14834 -6641 -14834 -14834 c 0 -8193 6641 -14834 14834 -14834 c 8193 0 14834 6641 14834 14834" class="C1"/><path d="M 224220 525846 c 0 8193 -6641 14834 -14834 14834 c -8193 0 -14834 -6641 -14834 -14834 c 0 -8193 6641 -14834 14834 -14834 c 8193 0 14834 6641 14834 14834" class="C1"/><path d="M 208513 525846 l 4 86 13 85 21 83 29 81 37 77 44 73 51 69 58 63 63 58 69 51 73 44 77 37 81 29 83 21 85 13 86 4 86 -4 85 -13 83 -21 81 -29 77 -37 73 -44 69 -51 63 -58 58 -63 51 -69 44 -73 37 -77 29 -81 21 -83 13 -85 4 -86 -873 0 Z" class="C2"/><path d="M 210259 525846 l -4 -86 -13 -85 -21 -83 -29 -81 -37 -77 -44 -73 -51 -69 -58 -63 -63 -58 -69 -51 -73 -44 -77 -37 -81 -29 -83 -21 -85 -13 -86 -4 -86 4 -85 13 -83 21 -81 29 -77 37 -73 44 -69 51 -63 58 -58 63 -51 69 -44 73 -37 77 -29 81 -21 83 -13 85 -4 86 873 0 Z" class="C2"/><path d="M 238181 525846 l 4 86 13 85 21 83 29 81 37 77 44 73 51 69 58 63 63 58 69 51 73 44 77 37 81 29 83 21 85 13 86 4 86 -4 85 -13 83 -21 81 -29 77 -37 73 -44 69 -51 63 -58 58 -63 51 -69 44 -73 37 -77 29 -81 21 -83 13 -85 4 -86 -873 0 Z" class="C2"/><path d="M 239926 525846 l -4 -86 -13 -85 -21 -83 -29 -81 -37 -77 -44 -73 -51 -69 -58 -63 -63 -58 -69 -51 -73 -44 -77 -37 -81 -29 -83 -21 -85 -13 -86 -4 -86 4 -85 13 -83 21 -81 29 -77 37 -73 44 -69 51 -63 58 -58 63 -51 69 -44 73 -37 77 -29 81 -21 83 -13 85 -4 86 873 0 Z" class="C2"/><path d="M 193679 500153 l 4 86 13 85 21 83 29 81 37 77 44 73 51 69 58 63 63 58 69 51 73 44 77 37 81 29 83 21 85 13 86 4 86 -4 85 -13 83 -21 81 -29 77 -37 73 -44 69 -51 63 -58 58 -63 51 -69 44 -73 37 -77 29 -81 21 -83 13 -85 4 -86 -873 0 Z" class="C2"/><path d="M 195425 500153 l -4 -86 -13 -85 -21 -83 -29 -81 -37 -77 -44 -73 -51 -69 -58 -63 -63 -58 -69 -51 -73 -44 -77 -37 -81 -29 -83 -21 -85 -13 -86 -4 -86 4 -85 13 -83 21 -81 29 -77 37 -73 44 -69 51 -63 58 -58 63 -51 69 -44 73 -37 77 -29 81 -21 83 -13 85 -4 86 873 0 Z" class="C2"/><path d="M 208513 474460 l 4 86 13 85 21 83 29 81 37 77 44 73 51 69 58 63 63 58 69 51 73 44 77 37 81 29 83 21 85 13 86 4 86 -4 85 -13 83 -21 81 -29 77 -37 73 -44 69 -51 63 -58 58 -63 51 -69 44 -73 37 -77 29 -81 21 -83 13 -85 4 -86 -873 0 Z" class="C2"/><path d="M 210259 474460 l -4 -86 -13 -85 -21 -83 -29 -81 -37 -77 -44 -73 -51 -69 -58 -63 -63 -58 -69 -51 -73 -44 -77 -37 -81 -29 -83 -21 -85 -13 -86 -4 -86 4 -85 13 -83 21 -81 29 -77 37 -73 44 -69 51 -63 58 -58 63 -51 69 -44 73 -37 77 -29 81 -21 83 -13 85 -4 86 873 0 Z" class="C2"/><path d="M 223347 500153 l 4 86 13 85 21 83 29 81 37 77 44 73 51 69 58 63 63 58 69 51 73 44 77 37 81 29 83 21 85 13 86 4 86 -4 85 -13 83 -21 81 -29 77 -37 73 -44 69 -51 63 -58 58 -63 51 -69 44 -73 37 -77 29 -81 21 -83 13 -85 4 -86 -873 0 Z" class="C2"/><path d="M 225092 500153 l -4 -86 -13 -85 -21 -83 -29 -81 -37 -77 -44 -73 -51 -69 -58 -63 -63 -58 -69 -51 -73 -44 -77 -37 -81 -29 -83 -21 -85 -13 -86 -4 -86 4 -85 13 -83 21 -81 29 -77 37 -73 44 -69 51 -63 58 -58 63 -51 69 -44 73 -37 77 -29 81 -21 83 -13 85 -4 86 873 0 Z" class="C2"/><path d="M 238181 474460 l 4 86 13 85 21 83 29 81 37 77 44 73 51 69 58 63 63 58 69 51 73 44 77 37 81 29 83 21 85 13 86 4 86 -4 85 -13 83 -21 81 -29 77 -37 73 -44 69 -51 63 -58 58 -63 51 -69 44 -73 37 -77 29 -81 21 -83 13 -85 4 -86 -873 0 Z" class="C2"/><path d="M 239926 474460 l -4 -86 -13 -85 -21 -83 -29 -81 -37 -77 -44 -73 -51 -69 -58 -63 -63 -58 -69 -51 -73 -44 -77 -37 -81 -29 -83 -21 -85 -13 -86 -4 -86 4 -85 13 -83 21 -81 29 -77 37 -73 44 -69 51 -63 58 -58 63 -51 69 -44 73 -37 77 -29 81 -21 83 -13 85 -4 86 873 0 Z" class="C2"/><path d="M 253015 500153 l 4 86 13 85 21 83 29 81 37 77 44 73 51 69 58 63 63 58 69 51 73 44 77 37 81 29 83 21 85 13 86 4 86 -4 85 -13 83 -21 81 -29 77 -37 73 -44 69 -51 63 -58 58 -63 51 -69 44 -73 37 -77 29 -81 21 -83 13 -85 4 -86 -873 0 Z" class="C2"/><path d="M 254760 500153 l -4 -86 -13 -85 -21 -83 -29 -81 -37 -77 -44 -73 -51 -69 -58 -63 -63 -58 -69 -51 -73 -44 -77 -37 -81 -29 -83 -21 -85 -13 -86 -4 -86 4 -85 13 -83 21 -81 29 -77 37 -73 44 -69 51 -63 58 -58 63 -51 69 -44 73 -37 77 -29 81 -21 83 -13 85 -4 86 873 0 Z" class="C2"/><path d="M 268721 448766 c 0 8193 -6641 14834 -14834 14834 c -8193 0 -14834 -6641 -14834 -14834 c 0 -8193 6641 -14834 14834 -14834 c 8193 0 14834 6641 14834 14834" class="C1"/><path d="M 253888 423073 c 0 8193 -6641 14834 -14834 14834 c -8193 0 -14834 -6641 -14834 -14834 c 0 -8193 6641 -14834 14834 -14834 c 8193 0 14834 6641 14834 14834" class="C1"/><path d="M 224220 423073 c 0 8193 -6641 14834 -14834 14834 c -8193 0 -14834 -6641 -14834 -14834 c 0 -8193 6641 -14834 14834 -14834 c 8193 0 14834 6641 14834 14834" class="C1"/><path d="M 239054 448766 c 0 8193 -6641 14834 -14834 14834 c -8193 0 -14834 -6641 -14834 -14834 c 0 -8193 6641 -14834 14834 -14834 c 8193 0 14834 6641 14834 14834" class="C1"/><path d="M 193679 448766 l 4 86 13 85 21 83 29 81 37 77 44 73 51 69 58 63 63 58 69 51 73 44 77 37 81 29 83 21 85 13 86 4 86 -4 85 -13 83 -21 81 -29 77 -37 73 -44 69 -51 63 -58 58 -63 51 -69 44 -73 37 -77 29 -81 21 -83 13 -85 4 -86 -873 0 Z" class="C2"/><path d="M 195425 448766 l -4 -86 -13 -85 -21 -83 -29 -81 -37 -77 -44 -73 -51 -69 -58 -63 -63 -58 -69 -51 -73 -44 -77 -37 -81 -29 -83 -21 -85 -13 -86 -4 -86 4 -85 13 -83 21 -81 29 -77 37 -73 44 -69 51 -63 58 -58 63 -51 69 -44 73 -37 77 -29 81 -21 83 -13 85 -4 86 873 0 Z" class="C2"/><path d="M 223347 448766 l 4 86 13 85 21 83 29 81 37 77 44 73 51 69 58 63 63 58 69 51 73 44 77 37 81 29 83 21 85 13 86 4 86 -4 85 -13 83 -21 81 -29 77 -37 73 -44 69 -51 63 -58 58 -63 51 -69 44 -73 37 -77 29 -81 21 -83 13 -85 4 -86 -873 0 Z" class="C2"/><path d="M 225092 448766 l -4 -86 -13 -85 -21 -83 -29 -81 -37 -77 -44 -73 -51 -69 -58 -63 -63 -58 -69 -51 -73 -44 -77 -37 -81 -29 -83 -21 -85 -13 -86 -4 -86 4 -85 13 -83 21 -81 29 -77 37 -73 44 -69 51 -63 58 -58 63 -51 69 -44 73 -37 77 -29 81 -21 83 -13 85 -4 86 873 0 Z" class="C2"/><path d="M 208513 423073 l 4 86 13 85 21 83 29 81 37 77 44 73 51 69 58 63 63 58 69 51 73 44 77 37 81 29 83 21 85 13 86 4 86 -4 85 -13 83 -21 81 -29 77 -37 73 -44 69 -51 63 -58 58 -63 51 -69 44 -73 37 -77 29 -81 21 -83 13 -85 4 -86 -873 0 Z" class="C2"/><path d="M 210259 423073 l -4 -86 -13 -85 -21 -83 -29 -81 -37 -77 -44 -73 -51 -69 -58 -63 -63 -58 -69 -51 -73 -44 -77 -37 -81 -29 -83 -21 -85 -13 -86 -4 -86 4 -85 13 -83 21 -81 29 -77 37 -73 44 -69 51 -63 58 -58 63 -51 69 -44 73 -37 77 -29 81 -21 83 -13 85 -4 86 873 0 Z" class="C2"/><path d="M 238181 423073 l 4 86 13 85 21 83 29 81 37 77 44 73 51 69 58 63 63 58 69 51 73 44 77 37 81 29 83 21 85 13 86 4 86 -4 85 -13 83 -21 81 -29 77 -37 73 -44 69 -51 63 -58 58 -63 51 -69 44 -73 37 -77 29 -81 21 -83 13 -85 4 -86 -873 0 Z" class="C2"/><path d="M 239926 423073 l -4 -86 -13 -85 -21 -83 -29 -81 -37 -77 -44 -73 -51 -69 -58 -63 -63 -58 -69 -51 -73 -44 -77 -37 -81 -29 -83 -21 -85 -13 -86 -4 -86 4 -85 13 -83 21 -81 29 -77 37 -73 44 -69 51 -63 58 -58 63 -51 69 -44 73 -37 77 -29 81 -21 83 -13 85 -4 86 873 0 Z" class="C2"/><path d="M 253015 448766 l 4 86 13 85 21 83 29 81 37 77 44 73 51 69 58 63 63 58 69 51 73 44 77 37 81 29 83 21 85 13 86 4 86 -4 85 -13 83 -21 81 -29 77 -37 73 -44 69 -51 63 -58 58 -63 51 -69 44 -73 37 -77 29 -81 21 -83 13 -85 4 -86 -873 0 Z" class="C2"/><path d="M 254760 448766 l -4 -86 -13 -85 -21 -83 -29 -81 -37 -77 -44 -73 -51 -69 -58 -63 -63 -58 -69 -51 -73 -44 -77 -37 -81 -29 -83 -21 -85 -13 -86 -4 -86 4 -85 13 -83 21 -81 29 -77 37 -73 44 -69 51 -63 58 -58 63 -51 69 -44 73 -37 77 -29 81 -21 83 -13 85 -4 86 873 0 Z" class="C2"/><path d="M 268721 551539 c 0 8193 -6641 14834 -14834 14834 c -8193 0 -14834 -6641 -14834 -14834 c 0 -8193 6641 -14834 14834 -14834 c 8193 0 14834 6641 14834 14834" class="C1"/><path d="M 179718 551539 c 0 8193 -6641 14834 -14834 14834 c -8193 0 -14834 -6641 -14834 -14834 c 0 -8193 6641 -14834 14834 -14834 c 8193 0 14834 6641 14834 14834" class="C1"/><path d="M 209386 551539 c 0 8193 -6641 14834 -14834 14834 c -8193 0 -14834 -6641 -14834 -14834 c 0 -8193 6641 -14834 14834 -14834 c 8193 0 14834 6641 14834 14834" class="C1"/><path d="M 164011 551539 l 4 86 13 85 21 83 29 81 37 77 44 73 51 69 58 63 63 58 69 51 73 44 77 37 81 29 83 21 85 13 86 4 86 -4 85 -13 83 -21 81 -29 77 -37 73 -44 69 -51 63 -58 58 -63 51 -69 44 -73 37 -77 29 -81 21 -83 13 -85 4 -86 -873 0 Z" class="C2"/><path d="M 165757 551539 l -4 -86 -13 -85 -21 -83 -29 -81 -37 -77 -44 -73 -51 -69 -58 -63 -63 -58 -69 -51 -73 -44 -77 -37 -81 -29 -83 -21 -85 -13 -86 -4 -86 4 -85 13 -83 21 -81 29 -77 37 -73 44 -69 51 -63 58 -58 63 -51 69 -44 73 -37 77 -29 81 -21 83 -13 85 -4 86 873 0 Z" class="C2"/><path d="M 193679 551539 l 4 86 13 85 21 83 29 81 37 77 44 73 51 69 58 63 63 58 69 51 73 44 77 37 81 29 83 21 85 13 86 4 86 -4 85 -13 83 -21 81 -29 77 -37 73 -44 69 -51 63 -58 58 -63 51 -69 44 -73 37 -77 29 -81 21 -83 13 -85 4 -86 -873 0 Z" class="C2"/><path d="M 195425 551539 l -4 -86 -13 -85 -21 -83 -29 -81 -37 -77 -44 -73 -51 -69 -58 -63 -63 -58 -69 -51 -73 -44 -77 -37 -81 -29 -83 -21 -85 -13 -86 -4 -86 4 -85 13 -83 21 -81 29 -77 37 -73 44 -69 51 -63 58 -58 63 -51 69 -44 73 -37 77 -29 81 -21 83 -13 85 -4 86 873 0 Z" class="C2"/><path d="M 239054 551539 c 0 8193 -6641 14834 -14834 14834 c -8193 0 -14834 -6641 -14834 -14834 c 0 -8193 6641 -14834 14834 -14834 c 8193 0 14834 6641 14834 14834" class="C1"/><path d="M 223347 551539 l 4 86 13 85 21 83 29 81 37 77 44 73 51 69 58 63 63 58 69 51 73 44 77 37 81 29 83 21 85 13 86 4 86 -4 85 -13 83 -21 81 -29 77 -37 73 -44 69 -51 63 -58 58 -63 51 -69 44 -73 37 -77 29 -81 21 -83 13 -85 4 -86 -873 0 Z" class="C2"/><path d="M 225092 551539 l -4 -86 -13 -85 -21 -83 -29 -81 -37 -77 -44 -73 -51 -69 -58 -63 -63 -58 -69 -51 -73 -44 -77 -37 -81 -29 -83 -21 -85 -13 -86 -4 -86 4 -85 13 -83 21 -81 29 -77 37 -73 44 -69 51 -63 58 -58 63 -51 69 -44 73 -37 77 -29 81 -21 83 -13 85 -4 86 873 0 Z" class="C2"/><path d="M 253015 551539 l 4 86 13 85 21 83 29 81 37 77 44 73 51 69 58 63 63 58 69 51 73 44 77 37 81 29 83 21 85 13 86 4 86 -4 85 -13 83 -21 81 -29 77 -37 73 -44 69 -51 63 -58 58 -63 51 -69 44 -73 37 -77 29 -81 21 -83 13 -85 4 -86 -873 0 Z" class="C2"/><path d="M 254760 551539 l -4 -86 -13 -85 -21 -83 -29 -81 -37 -77 -44 -73 -51 -69 -58 -63 -63 -58 -69 -51 -73 -44 -77 -37 -81 -29 -83 -21 -85 -13 -86 -4 -86 4 -85 13 -83 21 -81 29 -77 37 -73 44 -69 51 -63 58 -58 63 -51 69 -44 73 -37 77 -29 81 -21 83 -13 85 -4 86 873 0 Z" class="C2"/><path d="M 342026 484790 l 0 5032 15097 -2516 Z" class="C2"/><path d="M 342026 487306 l -335582 -0" class="C1"/><path d="M 37 487306 l 4 86 13 85 21 83 29 81 37 77 44 73 51 69 58 63 63 58 69 51 73 44 77 37 81 29 83 21 85 13 86 4 86 -4 85 -13 83 -21 81 -29 77 -37 73 -44 69 -51 63 -58 58 -63 51 -69 44 -73 37 -77 29 -81 21 -83 13 -85 4 -86 -873 0 Z" class="C2"/><path d="M 1782 487306 l -4 -86 -13 -85 -21 -83 -29 -81 -37 -77 -44 -73 -51 -69 -58 -63 -63 -58 -69 -51 -73 -44 -77 -37 -81 -29 -83 -21 -85 -13 -86 -4 -86 4 -85 13 -83 21 -81 29 -77 37 -73 44 -69 51 -63 58 -58 63 -51 69 -44 73 -37 77 -29 81 -21 83 -13 85 -4 86 873 0 Z" class="C2"/></g></svg>