<?xml version='1.0' encoding='UTF-8'?>
<svg xmlns="http://www.w3.org/2000/svg" width="214mm" height="155mm" viewBox="0 0 1000000 724299"><defs><style>.C1 {stroke: none; stroke-width: none; stroke-opacity: 1.000; fill: #000000; fill-opacity: 1.000;}</style><style>.C2 {stroke: #000000; stroke-width: 1168; stroke-opacity: 1.000; fill: none; fill-opacity: 1.000;}</style></defs><rect fill="#ffffff" x="0" y="0" width="1000000" height="724299" fill-opacity="1.0"/><g stroke-linecap="round" stroke-linejoin="round" fill-rule="evenodd"><path d="M 220243 709055 l -3209 11233 35303 4012 Z" class="C1"/><path d="M 218638 714671 l -195274 -55792" class="C2"/><path d="M 967680 14758 l 6534 9684 25787 -24443 Z" class="C1"/><path d="M 970947 19601 l -947582 639278" class="C2"/><path d="M 252336 724299 l -101949 -151116" class="C2"/><path d="M -0 658879 l 113 2290 336 2268 557 2224 772 2159 980 2073 1179 1967 1366 1842 1540 1699 1699 1540 1842 1366 1967 1179 2073 980 2159 772 2224 557 2268 336 2290 113 2290 -113 2268 -336 2224 -557 2159 -772 2073 -980 1967 -1179 1842 -1366 1699 -1540 1540 -1699 1366 -1842 1179 -1967 980 -2073 772 -2159 557 -2224 336 -2268 113 -2290 -23364 0 Z" class="C1"/><path d="M 46729 658879 l -113 -2290 -336 -2268 -557 -2224 -772 -2159 -980 -2073 -1179 -1967 -1366 -1842 -1540 -1699 -1699 -1540 -1842 -1366 -1967 -1179 -2073 -980 -2159 -772 -2224 -557 -2268 -336 -2290 -113 -2290 113 -2268 336 -2224 557 -2159 772 -2073 980 -1967 1179 -1842 1366 -1699 1540 -1540 1699 -1366 1842 -1179 1967 -980 2073 -772 2159 -557 2224 -336 2268 -113 2290 23364 0 Z" class="C1"/><path d="M 970764 20190 l 8128 8391 21108 -28581 Z" class="C1"/><path d="M 974828 24385 l -722492 699914" class="C2"/></g></svg>