<?xml version='1.0' encoding='UTF-8'?>
<svg xmlns="http://www.w3.org/2000/svg" width="200.0mm" height="78.6mm" viewBox="530834 165755 487173 191570"><defs><style>.C1 {stroke: #000000; stroke-width: 302; stroke-opacity: 1.000; fill: none; fill-opacity: 1.000;}</style><style>.C2 {stroke: none; stroke-width: none; stroke-opacity: 1.000; fill: #000000; fill-opacity: 1.000;}</style></defs><rect fill="#ffffff" x="530834" y="165755" width="487173" height="191570" fill-opacity="1.0"/><g stroke-linecap="round" stroke-linejoin="round"><path d="M 780103 197307 l 65 1324 195 1311 322 1286 447 1248 567 1198 682 1137 790 1065 890 982 982 890 1065 790 1137 682 1198 567 1248 447 1286 322 1311 195 1324 65 1324 -65 1311 -195 1286 -322 1248 -447 1198 -567 1137 -682 1065 -790 982 -890 890 -982 790 -1065 682 -1137 567 -1198 447 -1248 322 -1286 195 -1311 65 -1324 -13509 0 Z" class="C2"/><path d="M 807122 197307 l -65 -1324 -195 -1311 -322 -1286 -447 -1248 -567 -1198 -682 -1137 -790 -1065 -890 -982 -982 -890 -1065 -790 -1137 -682 -1198 -567 -1248 -447 -1286 -322 -1311 -195 -1324 -65 -1324 65 -1311 195 -1286 322 -1248 447 -1198 567 -1137 682 -1065 790 -982 890 -890 982 -790 1065 -682 1137 -567 1198 -447 1248 -322 1286 -195 1311 -65 1324 13509 0 Z" class="C2"/><path d="M 809771 197307 l 65 1324 195 1311 322 1286 447 1248 567 1198 682 1137 790 1065 890 982 982 890 1065 790 1137 682 1198 567 1248 447 1286 322 1311 195 1324 65 1324 -65 1311 -195 1286 -322 1248 -447 1198 -567 1137 -682 1065 -790 982 -890 890 -982 790 -1065 682 -1137 567 -1198 447 -1248 322 -1286 195 -1311 65 -1324 -13509 0 Z" class="C2"/><path d="M 836790 197307 l -65 -1324 -195 -1311 -322 -1286 -447 -1248 -567 -1198 -682 -1137 -790 -1065 -890 -982 -982 -890 -1065 -790 -1137 -682 -1198 -567 -1248 -447 -1286 -322 -1311 -195 -1324 -65 -1324 65 -1311 195 -1286 322 -1248 447 -1198 567 -1137 682 -1065 790 -982 890 -890 982 -790 1065 -682 1137 -567 1198 -447 1248 -322 1286 -195 1311 -65 1324 13509 0 Z" class="C2"/><path d="M 839439 197307 l 65 1324 195 1311 322 1286 447 1248 567 1198 682 1137 790 1065 890 982 982 890 1065 790 1137 682 1198 567 1248 447 1286 322 1311 195 1324 65 1324 -65 1311 -195 1286 -322 1248 -447 1198 -567 1137 -682 1065 -790 982 -890 890 -982 790 -1065 682 -1137 567 -1198 447 -1248 322 -1286 195 -1311 65 -1324 -13509 0 Z" class="C2"/><path d="M 866458 197307 l -65 -1324 -195 -1311 -322 -1286 -447 -1248 -567 -1198 -682 -1137 -790 -1065 -890 -982 -982 -890 -1065 -790 -1137 -682 -1198 -567 -1248 -447 -1286 -322 -1311 -195 -1324 -65 -1324 65 -1311 195 -1286 322 -1248 447 -1198 567 -1137 682 -1065 790 -982 890 -890 982 -790 1065 -682 1137 -567 1198 -447 1248 -322 1286 -195 1311 -65 1324 13509 0 Z" class="C2"/><path d="M 869107 197307 l 65 1324 195 1311 322 1286 447 1248 567 1198 682 1137 790 1065 890 982 982 890 1065 790 1137 682 1198 567 1248 447 1286 322 1311 195 1324 65 1324 -65 1311 -195 1286 -322 1248 -447 1198 -567 1137 -682 1065 -790 982 -890 890 -982 790 -1065 682 -1137 567 -1198 447 -1248 322 -1286 195 -1311 65 -1324 -13509 0 Z" class="C2"/><path d="M 896126 197307 l -65 -1324 -195 -1311 -322 -1286 -447 -1248 -567 -1198 -682 -1137 -790 -1065 -890 -982 -982 -890 -1065 -790 -1137 -682 -1198 -567 -1248 -447 -1286 -322 -1311 -195 -1324 -65 -1324 65 -1311 195 -1286 322 -1248 447 -1198 567 -1137 682 -1065 790 -982 890 -890 982 -790 1065 -682 1137 -567 1198 -447 1248 -322 1286 -195 1311 -65 1324 13509 0 Z" class="C2"/><path d="M 898775 197307 l 65 1324 195 1311 322 1286 447 1248 567 1198 682 1137 790 1065 890 982 982 890 1065 790 1137 682 1198 567 1248 447 1286 322 1311 195 1324 65 1324 -65 1311 -195 1286 -322 1248 -447 1198 -567 1137 -682 1065 -790 982 -890 890 -982 790 -1065 682 -1137 567 -1198 447 -1248 322 -1286 195 -1311 65 -1324 -13509 0 Z" class="C2"/><path d="M 925794 197307 l -65 -1324 -195 -1311 -322 -1286 -447 -1248 -567 -1198 -682 -1137 -790 -1065 -890 -982 -982 -890 -1065 -790 -1137 -682 -1198 -567 -1248 -447 -1286 -322 -1311 -195 -1324 -65 -1324 65 -1311 195 -1286 322 -1248 447 -1198 567 -1137 682 -1065 790 -982 890 -890 982 -790 1065 -682 1137 -567 1198 -447 1248 -322 1286 -195 1311 -65 1324 13509 0 Z" class="C2"/><path d="M 928443 197307 l 65 1324 195 1311 322 1286 447 1248 567 1198 682 1137 790 1065 890 982 982 890 1065 790 1137 682 1198 567 1248 447 1286 322 1311 195 1324 65 1324 -65 1311 -195 1286 -322 1248 -447 1198 -567 1137 -682 1065 -790 982 -890 890 -982 790 -1065 682 -1137 567 -1198 447 -1248 322 -1286 195 -1311 65 -1324 -13509 0 Z" class="C2"/><path d="M 955461 197307 l -65 -1324 -195 -1311 -322 -1286 -447 -1248 -567 -1198 -682 -1137 -790 -1065 -890 -982 -982 -890 -1065 -790 -1137 -682 -1198 -567 -1248 -447 -1286 -322 -1311 -195 -1324 -65 -1324 65 -1311 195 -1286 322 -1248 447 -1198 567 -1137 682 -1065 790 -982 890 -890 982 -790 1065 -682 1137 -567 1198 -447 1248 -322 1286 -195 1311 -65 1324 13509 0 Z" class="C2"/><path d="M 958110 197307 l 65 1324 195 1311 322 1286 447 1248 567 1198 682 1137 790 1065 890 982 982 890 1065 790 1137 682 1198 567 1248 447 1286 322 1311 195 1324 65 1324 -65 1311 -195 1286 -322 1248 -447 1198 -567 1137 -682 1065 -790 982 -890 890 -982 790 -1065 682 -1137 567 -1198 447 -1248 322 -1286 195 -1311 65 -1324 -13509 0 Z" class="C2"/><path d="M 985129 197307 l -65 -1324 -195 -1311 -322 -1286 -447 -1248 -567 -1198 -682 -1137 -790 -1065 -890 -982 -982 -890 -1065 -790 -1137 -682 -1198 -567 -1248 -447 -1286 -322 -1311 -195 -1324 -65 -1324 65 -1311 195 -1286 322 -1248 447 -1198 567 -1137 682 -1065 790 -982 890 -890 982 -790 1065 -682 1137 -567 1198 -447 1248 -322 1286 -195 1311 -65 1324 13509 0 Z" class="C2"/><path d="M 972944 223000 l 65 1324 195 1311 322 1286 447 1248 567 1198 682 1137 790 1065 890 982 982 890 1065 790 1137 682 1198 567 1248 447 1286 322 1311 195 1324 65 1324 -65 1311 -195 1286 -322 1248 -447 1198 -567 1137 -682 1065 -790 982 -890 890 -982 790 -1065 682 -1137 567 -1198 447 -1248 322 -1286 195 -1311 65 -1324 -13509 0 Z" class="C2"/><path d="M 999963 223000 l -65 -1324 -195 -1311 -322 -1286 -447 -1248 -567 -1198 -682 -1137 -790 -1065 -890 -982 -982 -890 -1065 -790 -1137 -682 -1198 -567 -1248 -447 -1286 -322 -1311 -195 -1324 -65 -1324 65 -1311 195 -1286 322 -1248 447 -1198 567 -1137 682 -1065 790 -982 890 -890 982 -790 1065 -682 1137 -567 1198 -447 1248 -322 1286 -195 1311 -65 1324 13509 0 Z" class="C2"/><path d="M 854273 223000 l 65 1324 195 1311 322 1286 447 1248 567 1198 682 1137 790 1065 890 982 982 890 1065 790 1137 682 1198 567 1248 447 1286 322 1311 195 1324 65 1324 -65 1311 -195 1286 -322 1248 -447 1198 -567 1137 -682 1065 -790 982 -890 890 -982 790 -1065 682 -1137 567 -1198 447 -1248 322 -1286 195 -1311 65 -1324 -13509 0 Z" class="C2"/><path d="M 881292 223000 l -65 -1324 -195 -1311 -322 -1286 -447 -1248 -567 -1198 -682 -1137 -790 -1065 -890 -982 -982 -890 -1065 -790 -1137 -682 -1198 -567 -1248 -447 -1286 -322 -1311 -195 -1324 -65 -1324 65 -1311 195 -1286 322 -1248 447 -1198 567 -1137 682 -1065 790 -982 890 -890 982 -790 1065 -682 1137 -567 1198 -447 1248 -322 1286 -195 1311 -65 1324 13509 0 Z" class="C2"/><path d="M 794937 223000 l 65 1324 195 1311 322 1286 447 1248 567 1198 682 1137 790 1065 890 982 982 890 1065 790 1137 682 1198 567 1248 447 1286 322 1311 195 1324 65 1324 -65 1311 -195 1286 -322 1248 -447 1198 -567 1137 -682 1065 -790 982 -890 890 -982 790 -1065 682 -1137 567 -1198 447 -1248 322 -1286 195 -1311 65 -1324 -13509 0 Z" class="C2"/><path d="M 821956 223000 l -65 -1324 -195 -1311 -322 -1286 -447 -1248 -567 -1198 -682 -1137 -790 -1065 -890 -982 -982 -890 -1065 -790 -1137 -682 -1198 -567 -1248 -447 -1286 -322 -1311 -195 -1324 -65 -1324 65 -1311 195 -1286 322 -1248 447 -1198 567 -1137 682 -1065 790 -982 890 -890 982 -790 1065 -682 1137 -567 1198 -447 1248 -322 1286 -195 1311 -65 1324 13509 0 Z" class="C2"/><path d="M 824605 223000 l 65 1324 195 1311 322 1286 447 1248 567 1198 682 1137 790 1065 890 982 982 890 1065 790 1137 682 1198 567 1248 447 1286 322 1311 195 1324 65 1324 -65 1311 -195 1286 -322 1248 -447 1198 -567 1137 -682 1065 -790 982 -890 890 -982 790 -1065 682 -1137 567 -1198 447 -1248 322 -1286 195 -1311 65 -1324 -13509 0 Z" class="C2"/><path d="M 851624 223000 l -65 -1324 -195 -1311 -322 -1286 -447 -1248 -567 -1198 -682 -1137 -790 -1065 -890 -982 -982 -890 -1065 -790 -1137 -682 -1198 -567 -1248 -447 -1286 -322 -1311 -195 -1324 -65 -1324 65 -1311 195 -1286 322 -1248 447 -1198 567 -1137 682 -1065 790 -982 890 -890 982 -790 1065 -682 1137 -567 1198 -447 1248 -322 1286 -195 1311 -65 1324 13509 0 Z" class="C2"/><path d="M 913609 223000 l 65 1324 195 1311 322 1286 447 1248 567 1198 682 1137 790 1065 890 982 982 890 1065 790 1137 682 1198 567 1248 447 1286 322 1311 195 1324 65 1324 -65 1311 -195 1286 -322 1248 -447 1198 -567 1137 -682 1065 -790 982 -890 890 -982 790 -1065 682 -1137 567 -1198 447 -1248 322 -1286 195 -1311 65 -1324 -13509 0 Z" class="C2"/><path d="M 940627 223000 l -65 -1324 -195 -1311 -322 -1286 -447 -1248 -567 -1198 -682 -1137 -790 -1065 -890 -982 -982 -890 -1065 -790 -1137 -682 -1198 -567 -1248 -447 -1286 -322 -1311 -195 -1324 -65 -1324 65 -1311 195 -1286 322 -1248 447 -1198 567 -1137 682 -1065 790 -982 890 -890 982 -790 1065 -682 1137 -567 1198 -447 1248 -322 1286 -195 1311 -65 1324 13509 0 Z" class="C2"/><path d="M 883941 223000 l 65 1324 195 1311 322 1286 447 1248 567 1198 682 1137 790 1065 890 982 982 890 1065 790 1137 682 1198 567 1248 447 1286 322 1311 195 1324 65 1324 -65 1311 -195 1286 -322 1248 -447 1198 -567 1137 -682 1065 -790 982 -890 890 -982 790 -1065 682 -1137 567 -1198 447 -1248 322 -1286 195 -1311 65 -1324 -13509 0 Z" class="C2"/><path d="M 910960 223000 l -65 -1324 -195 -1311 -322 -1286 -447 -1248 -567 -1198 -682 -1137 -790 -1065 -890 -982 -982 -890 -1065 -790 -1137 -682 -1198 -567 -1248 -447 -1286 -322 -1311 -195 -1324 -65 -1324 65 -1311 195 -1286 322 -1248 447 -1198 567 -1137 682 -1065 790 -982 890 -890 982 -790 1065 -682 1137 -567 1198 -447 1248 -322 1286 -195 1311 -65 1324 13509 0 Z" class="C2"/><path d="M 943277 223000 l 65 1324 195 1311 322 1286 447 1248 567 1198 682 1137 790 1065 890 982 982 890 1065 790 1137 682 1198 567 1248 447 1286 322 1311 195 1324 65 1324 -65 1311 -195 1286 -322 1248 -447 1198 -567 1137 -682 1065 -790 982 -890 890 -982 790 -1065 682 -1137 567 -1198 447 -1248 322 -1286 195 -1311 65 -1324 -13509 0 Z" class="C2"/><path d="M 970295 223000 l -65 -1324 -195 -1311 -322 -1286 -447 -1248 -567 -1198 -682 -1137 -790 -1065 -890 -982 -982 -890 -1065 -790 -1137 -682 -1198 -567 -1248 -447 -1286 -322 -1311 -195 -1324 -65 -1324 65 -1311 195 -1286 322 -1248 447 -1198 567 -1137 682 -1065 790 -982 890 -890 982 -790 1065 -682 1137 -567 1198 -447 1248 -322 1286 -195 1311 -65 1324 13509 0 Z" class="C2"/><path d="M 928443 248693 l 65 1324 195 1311 322 1286 447 1248 567 1198 682 1137 790 1065 890 982 982 890 1065 790 1137 682 1198 567 1248 447 1286 322 1311 195 1324 65 1324 -65 1311 -195 1286 -322 1248 -447 1198 -567 1137 -682 1065 -790 982 -890 890 -982 790 -1065 682 -1137 567 -1198 447 -1248 322 -1286 195 -1311 65 -1324 -13509 0 Z" class="C2"/><path d="M 955461 248693 l -65 -1324 -195 -1311 -322 -1286 -447 -1248 -567 -1198 -682 -1137 -790 -1065 -890 -982 -982 -890 -1065 -790 -1137 -682 -1198 -567 -1248 -447 -1286 -322 -1311 -195 -1324 -65 -1324 65 -1311 195 -1286 322 -1248 447 -1198 567 -1137 682 -1065 790 -982 890 -890 982 -790 1065 -682 1137 -567 1198 -447 1248 -322 1286 -195 1311 -65 1324 13509 0 Z" class="C2"/><path d="M 839439 248693 l 65 1324 195 1311 322 1286 447 1248 567 1198 682 1137 790 1065 890 982 982 890 1065 790 1137 682 1198 567 1248 447 1286 322 1311 195 1324 65 1324 -65 1311 -195 1286 -322 1248 -447 1198 -567 1137 -682 1065 -790 982 -890 890 -982 790 -1065 682 -1137 567 -1198 447 -1248 322 -1286 195 -1311 65 -1324 -13509 0 Z" class="C2"/><path d="M 866458 248693 l -65 -1324 -195 -1311 -322 -1286 -447 -1248 -567 -1198 -682 -1137 -790 -1065 -890 -982 -982 -890 -1065 -790 -1137 -682 -1198 -567 -1248 -447 -1286 -322 -1311 -195 -1324 -65 -1324 65 -1311 195 -1286 322 -1248 447 -1198 567 -1137 682 -1065 790 -982 890 -890 982 -790 1065 -682 1137 -567 1198 -447 1248 -322 1286 -195 1311 -65 1324 13509 0 Z" class="C2"/><path d="M 809771 248693 l 65 1324 195 1311 322 1286 447 1248 567 1198 682 1137 790 1065 890 982 982 890 1065 790 1137 682 1198 567 1248 447 1286 322 1311 195 1324 65 1324 -65 1311 -195 1286 -322 1248 -447 1198 -567 1137 -682 1065 -790 982 -890 890 -982 790 -1065 682 -1137 567 -1198 447 -1248 322 -1286 195 -1311 65 -1324 -13509 0 Z" class="C2"/><path d="M 836790 248693 l -65 -1324 -195 -1311 -322 -1286 -447 -1248 -567 -1198 -682 -1137 -790 -1065 -890 -982 -982 -890 -1065 -790 -1137 -682 -1198 -567 -1248 -447 -1286 -322 -1311 -195 -1324 -65 -1324 65 -1311 195 -1286 322 -1248 447 -1198 567 -1137 682 -1065 790 -982 890 -890 982 -790 1065 -682 1137 -567 1198 -447 1248 -322 1286 -195 1311 -65 1324 13509 0 Z" class="C2"/><path d="M 780103 248693 l 65 1324 195 1311 322 1286 447 1248 567 1198 682 1137 790 1065 890 982 982 890 1065 790 1137 682 1198 567 1248 447 1286 322 1311 195 1324 65 1324 -65 1311 -195 1286 -322 1248 -447 1198 -567 1137 -682 1065 -790 982 -890 890 -982 790 -1065 682 -1137 567 -1198 447 -1248 322 -1286 195 -1311 65 -1324 -13509 0 Z" class="C2"/><path d="M 807122 248693 l -65 -1324 -195 -1311 -322 -1286 -447 -1248 -567 -1198 -682 -1137 -790 -1065 -890 -982 -982 -890 -1065 -790 -1137 -682 -1198 -567 -1248 -447 -1286 -322 -1311 -195 -1324 -65 -1324 65 -1311 195 -1286 322 -1248 447 -1198 567 -1137 682 -1065 790 -982 890 -890 982 -790 1065 -682 1137 -567 1198 -447 1248 -322 1286 -195 1311 -65 1324 13509 0 Z" class="C2"/><path d="M 869107 248693 l 65 1324 195 1311 322 1286 447 1248 567 1198 682 1137 790 1065 890 982 982 890 1065 790 1137 682 1198 567 1248 447 1286 322 1311 195 1324 65 1324 -65 1311 -195 1286 -322 1248 -447 1198 -567 1137 -682 1065 -790 982 -890 890 -982 790 -1065 682 -1137 567 -1198 447 -1248 322 -1286 195 -1311 65 -1324 -13509 0 Z" class="C2"/><path d="M 896126 248693 l -65 -1324 -195 -1311 -322 -1286 -447 -1248 -567 -1198 -682 -1137 -790 -1065 -890 -982 -982 -890 -1065 -790 -1137 -682 -1198 -567 -1248 -447 -1286 -322 -1311 -195 -1324 -65 -1324 65 -1311 195 -1286 322 -1248 447 -1198 567 -1137 682 -1065 790 -982 890 -890 982 -790 1065 -682 1137 -567 1198 -447 1248 -322 1286 -195 1311 -65 1324 13509 0 Z" class="C2"/><path d="M 898775 248693 l 65 1324 195 1311 322 1286 447 1248 567 1198 682 1137 790 1065 890 982 982 890 1065 790 1137 682 1198 567 1248 447 1286 322 1311 195 1324 65 1324 -65 1311 -195 1286 -322 1248 -447 1198 -567 1137 -682 1065 -790 982 -890 890 -982 790 -1065 682 -1137 567 -1198 447 -1248 322 -1286 195 -1311 65 -1324 -13509 0 Z" class="C2"/><path d="M 925794 248693 l -65 -1324 -195 -1311 -322 -1286 -447 -1248 -567 -1198 -682 -1137 -790 -1065 -890 -982 -982 -890 -1065 -790 -1137 -682 -1198 -567 -1248 -447 -1286 -322 -1311 -195 -1324 -65 -1324 65 -1311 195 -1286 322 -1248 447 -1198 567 -1137 682 -1065 790 -982 890 -890 982 -790 1065 -682 1137 -567 1198 -447 1248 -322 1286 -195 1311 -65 1324 13509 0 Z" class="C2"/><path d="M 958110 248693 l 65 1324 195 1311 322 1286 447 1248 567 1198 682 1137 790 1065 890 982 982 890 1065 790 1137 682 1198 567 1248 447 1286 322 1311 195 1324 65 1324 -65 1311 -195 1286 -322 1248 -447 1198 -567 1137 -682 1065 -790 982 -890 890 -982 790 -1065 682 -1137 567 -1198 447 -1248 322 -1286 195 -1311 65 -1324 -13509 0 Z" class="C2"/><path d="M 985129 248693 l -65 -1324 -195 -1311 -322 -1286 -447 -1248 -567 -1198 -682 -1137 -790 -1065 -890 -982 -982 -890 -1065 -790 -1137 -682 -1198 -567 -1248 -447 -1286 -322 -1311 -195 -1324 -65 -1324 65 -1311 195 -1286 322 -1248 447 -1198 567 -1137 682 -1065 790 -982 890 -890 982 -790 1065 -682 1137 -567 1198 -447 1248 -322 1286 -195 1311 -65 1324 13509 0 Z" class="C2"/><path d="M 943277 274386 l 65 1324 195 1311 322 1286 447 1248 567 1198 682 1137 790 1065 890 982 982 890 1065 790 1137 682 1198 567 1248 447 1286 322 1311 195 1324 65 1324 -65 1311 -195 1286 -322 1248 -447 1198 -567 1137 -682 1065 -790 982 -890 890 -982 790 -1065 682 -1137 567 -1198 447 -1248 322 -1286 195 -1311 65 -1324 -13509 0 Z" class="C2"/><path d="M 970295 274386 l -65 -1324 -195 -1311 -322 -1286 -447 -1248 -567 -1198 -682 -1137 -790 -1065 -890 -982 -982 -890 -1065 -790 -1137 -682 -1198 -567 -1248 -447 -1286 -322 -1311 -195 -1324 -65 -1324 65 -1311 195 -1286 322 -1248 447 -1198 567 -1137 682 -1065 790 -982 890 -890 982 -790 1065 -682 1137 -567 1198 -447 1248 -322 1286 -195 1311 -65 1324 13509 0 Z" class="C2"/><path d="M 854273 274386 l 65 1324 195 1311 322 1286 447 1248 567 1198 682 1137 790 1065 890 982 982 890 1065 790 1137 682 1198 567 1248 447 1286 322 1311 195 1324 65 1324 -65 1311 -195 1286 -322 1248 -447 1198 -567 1137 -682 1065 -790 982 -890 890 -982 790 -1065 682 -1137 567 -1198 447 -1248 322 -1286 195 -1311 65 -1324 -13509 0 Z" class="C2"/><path d="M 881292 274386 l -65 -1324 -195 -1311 -322 -1286 -447 -1248 -567 -1198 -682 -1137 -790 -1065 -890 -982 -982 -890 -1065 -790 -1137 -682 -1198 -567 -1248 -447 -1286 -322 -1311 -195 -1324 -65 -1324 65 -1311 195 -1286 322 -1248 447 -1198 567 -1137 682 -1065 790 -982 890 -890 982 -790 1065 -682 1137 -567 1198 -447 1248 -322 1286 -195 1311 -65 1324 13509 0 Z" class="C2"/><path d="M 824605 274386 l 65 1324 195 1311 322 1286 447 1248 567 1198 682 1137 790 1065 890 982 982 890 1065 790 1137 682 1198 567 1248 447 1286 322 1311 195 1324 65 1324 -65 1311 -195 1286 -322 1248 -447 1198 -567 1137 -682 1065 -790 982 -890 890 -982 790 -1065 682 -1137 567 -1198 447 -1248 322 -1286 195 -1311 65 -1324 -13509 0 Z" class="C2"/><path d="M 851624 274386 l -65 -1324 -195 -1311 -322 -1286 -447 -1248 -567 -1198 -682 -1137 -790 -1065 -890 -982 -982 -890 -1065 -790 -1137 -682 -1198 -567 -1248 -447 -1286 -322 -1311 -195 -1324 -65 -1324 65 -1311 195 -1286 322 -1248 447 -1198 567 -1137 682 -1065 790 -982 890 -890 982 -790 1065 -682 1137 -567 1198 -447 1248 -322 1286 -195 1311 -65 1324 13509 0 Z" class="C2"/><path d="M 794937 274386 l 65 1324 195 1311 322 1286 447 1248 567 1198 682 1137 790 1065 890 982 982 890 1065 790 1137 682 1198 567 1248 447 1286 322 1311 195 1324 65 1324 -65 1311 -195 1286 -322 1248 -447 1198 -567 1137 -682 1065 -790 982 -890 890 -982 790 -1065 682 -1137 567 -1198 447 -1248 322 -1286 195 -1311 65 -1324 -13509 0 Z" class="C2"/><path d="M 821956 274386 l -65 -1324 -195 -1311 -322 -1286 -447 -1248 -567 -1198 -682 -1137 -790 -1065 -890 -982 -982 -890 -1065 -790 -1137 -682 -1198 -567 -1248 -447 -1286 -322 -1311 -195 -1324 -65 -1324 65 -1311 195 -1286 322 -1248 447 -1198 567 -1137 682 -1065 790 -982 890 -890 982 -790 1065 -682 1137 -567 1198 -447 1248 -322 1286 -195 1311 -65 1324 13509 0 Z" class="C2"/><path d="M 883941 274386 l 65 1324 195 1311 322 1286 447 1248 567 1198 682 1137 790 1065 890 982 982 890 1065 790 1137 682 1198 567 1248 447 1286 322 1311 195 1324 65 1324 -65 1311 -195 1286 -322 1248 -447 1198 -567 1137 -682 1065 -790 982 -890 890 -982 790 -1065 682 -1137 567 -1198 447 -1248 322 -1286 195 -1311 65 -1324 -13509 0 Z" class="C2"/><path d="M 910960 274386 l -65 -1324 -195 -1311 -322 -1286 -447 -1248 -567 -1198 -682 -1137 -790 -1065 -890 -982 -982 -890 -1065 -790 -1137 -682 -1198 -567 -1248 -447 -1286 -322 -1311 -195 -1324 -65 -1324 65 -1311 195 -1286 322 -1248 447 -1198 567 -1137 682 -1065 790 -982 890 -890 982 -790 1065 -682 1137 -567 1198 -447 1248 -322 1286 -195 1311 -65 1324 13509 0 Z" class="C2"/><path d="M 913609 274386 l 65 1324 195 1311 322 1286 447 1248 567 1198 682 1137 790 1065 890 982 982 890 1065 790 1137 682 1198 567 1248 447 1286 322 1311 195 1324 65 1324 -65 1311 -195 1286 -322 1248 -447 1198 -567 1137 -682 1065 -790 982 -890 890 -982 790 -1065 682 -1137 567 -1198 447 -1248 322 -1286 195 -1311 65 -1324 -13509 0 Z" class="C2"/><path d="M 940627 274386 l -65 -1324 -195 -1311 -322 -1286 -447 -1248 -567 -1198 -682 -1137 -790 -1065 -890 -982 -982 -890 -1065 -790 -1137 -682 -1198 -567 -1248 -447 -1286 -322 -1311 -195 -1324 -65 -1324 65 -1311 195 -1286 322 -1248 447 -1198 567 -1137 682 -1065 790 -982 890 -890 982 -790 1065 -682 1137 -567 1198 -447 1248 -322 1286 -195 1311 -65 1324 13509 0 Z" class="C2"/><path d="M 972944 274386 l 65 1324 195 1311 322 1286 447 1248 567 1198 682 1137 790 1065 890 982 982 890 1065 790 1137 682 1198 567 1248 447 1286 322 1311 195 1324 65 1324 -65 1311 -195 1286 -322 1248 -447 1198 -567 1137 -682 1065 -790 982 -890 890 -982 790 -1065 682 -1137 567 -1198 447 -1248 322 -1286 195 -1311 65 -1324 -13509 0 Z" class="C2"/><path d="M 999963 274386 l -65 -1324 -195 -1311 -322 -1286 -447 -1248 -567 -1198 -682 -1137 -790 -1065 -890 -982 -982 -890 -1065 -790 -1137 -682 -1198 -567 -1248 -447 -1286 -322 -1311 -195 -1324 -65 -1324 65 -1311 195 -1286 322 -1248 447 -1198 567 -1137 682 -1065 790 -982 890 -890 982 -790 1065 -682 1137 -567 1198 -447 1248 -322 1286 -195 1311 -65 1324 13509 0 Z" class="C2"/><path d="M 928443 300079 l 65 1324 195 1311 322 1286 447 1248 567 1198 682 1137 790 1065 890 982 982 890 1065 790 1137 682 1198 567 1248 447 1286 322 1311 195 1324 65 1324 -65 1311 -195 1286 -322 1248 -447 1198 -567 1137 -682 1065 -790 982 -890 890 -982 790 -1065 682 -1137 567 -1198 447 -1248 322 -1286 195 -1311 65 -1324 -13509 0 Z" class="C2"/><path d="M 955461 300079 l -65 -1324 -195 -1311 -322 -1286 -447 -1248 -567 -1198 -682 -1137 -790 -1065 -890 -982 -982 -890 -1065 -790 -1137 -682 -1198 -567 -1248 -447 -1286 -322 -1311 -195 -1324 -65 -1324 65 -1311 195 -1286 322 -1248 447 -1198 567 -1137 682 -1065 790 -982 890 -890 982 -790 1065 -682 1137 -567 1198 -447 1248 -322 1286 -195 1311 -65 1324 13509 0 Z" class="C2"/><path d="M 839439 300079 l 65 1324 195 1311 322 1286 447 1248 567 1198 682 1137 790 1065 890 982 982 890 1065 790 1137 682 1198 567 1248 447 1286 322 1311 195 1324 65 1324 -65 1311 -195 1286 -322 1248 -447 1198 -567 1137 -682 1065 -790 982 -890 890 -982 790 -1065 682 -1137 567 -1198 447 -1248 322 -1286 195 -1311 65 -1324 -13509 0 Z" class="C2"/><path d="M 866458 300079 l -65 -1324 -195 -1311 -322 -1286 -447 -1248 -567 -1198 -682 -1137 -790 -1065 -890 -982 -982 -890 -1065 -790 -1137 -682 -1198 -567 -1248 -447 -1286 -322 -1311 -195 -1324 -65 -1324 65 -1311 195 -1286 322 -1248 447 -1198 567 -1137 682 -1065 790 -982 890 -890 982 -790 1065 -682 1137 -567 1198 -447 1248 -322 1286 -195 1311 -65 1324 13509 0 Z" class="C2"/><path d="M 809771 300079 l 65 1324 195 1311 322 1286 447 1248 567 1198 682 1137 790 1065 890 982 982 890 1065 790 1137 682 1198 567 1248 447 1286 322 1311 195 1324 65 1324 -65 1311 -195 1286 -322 1248 -447 1198 -567 1137 -682 1065 -790 982 -890 890 -982 790 -1065 682 -1137 567 -1198 447 -1248 322 -1286 195 -1311 65 -1324 -13509 0 Z" class="C2"/><path d="M 836790 300079 l -65 -1324 -195 -1311 -322 -1286 -447 -1248 -567 -1198 -682 -1137 -790 -1065 -890 -982 -982 -890 -1065 -790 -1137 -682 -1198 -567 -1248 -447 -1286 -322 -1311 -195 -1324 -65 -1324 65 -1311 195 -1286 322 -1248 447 -1198 567 -1137 682 -1065 790 -982 890 -890 982 -790 1065 -682 1137 -567 1198 -447 1248 -322 1286 -195 1311 -65 1324 13509 0 Z" class="C2"/><path d="M 780103 300079 l 65 1324 195 1311 322 1286 447 1248 567 1198 682 1137 790 1065 890 982 982 890 1065 790 1137 682 1198 567 1248 447 1286 322 1311 195 1324 65 1324 -65 1311 -195 1286 -322 1248 -447 1198 -567 1137 -682 1065 -790 982 -890 890 -982 790 -1065 682 -1137 567 -1198 447 -1248 322 -1286 195 -1311 65 -1324 -13509 0 Z" class="C2"/><path d="M 807122 300079 l -65 -1324 -195 -1311 -322 -1286 -447 -1248 -567 -1198 -682 -1137 -790 -1065 -890 -982 -982 -890 -1065 -790 -1137 -682 -1198 -567 -1248 -447 -1286 -322 -1311 -195 -1324 -65 -1324 65 -1311 195 -1286 322 -1248 447 -1198 567 -1137 682 -1065 790 -982 890 -890 982 -790 1065 -682 1137 -567 1198 -447 1248 -322 1286 -195 1311 -65 1324 13509 0 Z" class="C2"/><path d="M 869107 300079 l 65 1324 195 1311 322 1286 447 1248 567 1198 682 1137 790 1065 890 982 982 890 1065 790 1137 682 1198 567 1248 447 1286 322 1311 195 1324 65 1324 -65 1311 -195 1286 -322 1248 -447 1198 -567 1137 -682 1065 -790 982 -890 890 -982 790 -1065 682 -1137 567 -1198 447 -1248 322 -1286 195 -1311 65 -1324 -13509 0 Z" class="C2"/><path d="M 896126 300079 l -65 -1324 -195 -1311 -322 -1286 -447 -1248 -567 -1198 -682 -1137 -790 -1065 -890 -982 -982 -890 -1065 -790 -1137 -682 -1198 -567 -1248 -447 -1286 -322 -1311 -195 -1324 -65 -1324 65 -1311 195 -1286 322 -1248 447 -1198 567 -1137 682 -1065 790 -982 890 -890 982 -790 1065 -682 1137 -567 1198 -447 1248 -322 1286 -195 1311 -65 1324 13509 0 Z" class="C2"/><path d="M 898775 300079 l 65 1324 195 1311 322 1286 447 1248 567 1198 682 1137 790 1065 890 982 982 890 1065 790 1137 682 1198 567 1248 447 1286 322 1311 195 1324 65 1324 -65 1311 -195 1286 -322 1248 -447 1198 -567 1137 -682 1065 -790 982 -890 890 -982 790 -1065 682 -1137 567 -1198 447 -1248 322 -1286 195 -1311 65 -1324 -13509 0 Z" class="C2"/><path d="M 925794 300079 l -65 -1324 -195 -1311 -322 -1286 -447 -1248 -567 -1198 -682 -1137 -790 -1065 -890 -982 -982 -890 -1065 -790 -1137 -682 -1198 -567 -1248 -447 -1286 -322 -1311 -195 -1324 -65 -1324 65 -1311 195 -1286 322 -1248 447 -1198 567 -1137 682 -1065 790 -982 890 -890 982 -790 1065 -682 1137 -567 1198 -447 1248 -322 1286 -195 1311 -65 1324 13509 0 Z" class="C2"/><path d="M 958110 300079 l 65 1324 195 1311 322 1286 447 1248 567 1198 682 1137 790 1065 890 982 982 890 1065 790 1137 682 1198 567 1248 447 1286 322 1311 195 1324 65 1324 -65 1311 -195 1286 -322 1248 -447 1198 -567 1137 -682 1065 -790 982 -890 890 -982 790 -1065 682 -1137 567 -1198 447 -1248 322 -1286 195 -1311 65 -1324 -13509 0 Z" class="C2"/><path d="M 985129 300079 l -65 -1324 -195 -1311 -322 -1286 -447 -1248 -567 -1198 -682 -1137 -790 -1065 -890 -982 -982 -890 -1065 -790 -1137 -682 -1198 -567 -1248 -447 -1286 -322 -1311 -195 -1324 -65 -1324 65 -1311 195 -1286 322 -1248 447 -1198 567 -1137 682 -1065 790 -982 890 -890 982 -790 1065 -682 1137 -567 1198 -447 1248 -322 1286 -195 1311 -65 1324 13509 0 Z" class="C2"/><path d="M 943277 325772 l 65 1324 195 1311 322 1286 447 1248 567 1198 682 1137 790 1065 890 982 982 890 1065 790 1137 682 1198 567 1248 447 1286 322 1311 195 1324 65 1324 -65 1311 -195 1286 -322 1248 -447 1198 -567 1137 -682 1065 -790 982 -890 890 -982 790 -1065 682 -1137 567 -1198 447 -1248 322 -1286 195 -1311 65 -1324 -13509 0 Z" class="C2"/><path d="M 970295 325772 l -65 -1324 -195 -1311 -322 -1286 -447 -1248 -567 -1198 -682 -1137 -790 -1065 -890 -982 -982 -890 -1065 -790 -1137 -682 -1198 -567 -1248 -447 -1286 -322 -1311 -195 -1324 -65 -1324 65 -1311 195 -1286 322 -1248 447 -1198 567 -1137 682 -1065 790 -982 890 -890 982 -790 1065 -682 1137 -567 1198 -447 1248 -322 1286 -195 1311 -65 1324 13509 0 Z" class="C2"/><path d="M 854273 325772 l 65 1324 195 1311 322 1286 447 1248 567 1198 682 1137 790 1065 890 982 982 890 1065 790 1137 682 1198 567 1248 447 1286 322 1311 195 1324 65 1324 -65 1311 -195 1286 -322 1248 -447 1198 -567 1137 -682 1065 -790 982 -890 890 -982 790 -1065 682 -1137 567 -1198 447 -1248 322 -1286 195 -1311 65 -1324 -13509 0 Z" class="C2"/><path d="M 881292 325772 l -65 -1324 -195 -1311 -322 -1286 -447 -1248 -567 -1198 -682 -1137 -790 -1065 -890 -982 -982 -890 -1065 -790 -1137 -682 -1198 -567 -1248 -447 -1286 -322 -1311 -195 -1324 -65 -1324 65 -1311 195 -1286 322 -1248 447 -1198 567 -1137 682 -1065 790 -982 890 -890 982 -790 1065 -682 1137 -567 1198 -447 1248 -322 1286 -195 1311 -65 1324 13509 0 Z" class="C2"/><path d="M 824605 325772 l 65 1324 195 1311 322 1286 447 1248 567 1198 682 1137 790 1065 890 982 982 890 1065 790 1137 682 1198 567 1248 447 1286 322 1311 195 1324 65 1324 -65 1311 -195 1286 -322 1248 -447 1198 -567 1137 -682 1065 -790 982 -890 890 -982 790 -1065 682 -1137 567 -1198 447 -1248 322 -1286 195 -1311 65 -1324 -13509 0 Z" class="C2"/><path d="M 851624 325772 l -65 -1324 -195 -1311 -322 -1286 -447 -1248 -567 -1198 -682 -1137 -790 -1065 -890 -982 -982 -890 -1065 -790 -1137 -682 -1198 -567 -1248 -447 -1286 -322 -1311 -195 -1324 -65 -1324 65 -1311 195 -1286 322 -1248 447 -1198 567 -1137 682 -1065 790 -982 890 -890 982 -790 1065 -682 1137 -567 1198 -447 1248 -322 1286 -195 1311 -65 1324 13509 0 Z" class="C2"/><path d="M 794937 325772 l 65 1324 195 1311 322 1286 447 1248 567 1198 682 1137 790 1065 890 982 982 890 1065 790 1137 682 1198 567 1248 447 1286 322 1311 195 1324 65 1324 -65 1311 -195 1286 -322 1248 -447 1198 -567 1137 -682 1065 -790 982 -890 890 -982 790 -1065 682 -1137 567 -1198 447 -1248 322 -1286 195 -1311 65 -1324 -13509 0 Z" class="C2"/><path d="M 821956 325772 l -65 -1324 -195 -1311 -322 -1286 -447 -1248 -567 -1198 -682 -1137 -790 -1065 -890 -982 -982 -890 -1065 -790 -1137 -682 -1198 -567 -1248 -447 -1286 -322 -1311 -195 -1324 -65 -1324 65 -1311 195 -1286 322 -1248 447 -1198 567 -1137 682 -1065 790 -982 890 -890 982 -790 1065 -682 1137 -567 1198 -447 1248 -322 1286 -195 1311 -65 1324 13509 0 Z" class="C2"/><path d="M 883941 325772 l 65 1324 195 1311 322 1286 447 1248 567 1198 682 1137 790 1065 890 982 982 890 1065 790 1137 682 1198 567 1248 447 1286 322 1311 195 1324 65 1324 -65 1311 -195 1286 -322 1248 -447 1198 -567 1137 -682 1065 -790 982 -890 890 -982 790 -1065 682 -1137 567 -1198 447 -1248 322 -1286 195 -1311 65 -1324 -13509 0 Z" class="C2"/><path d="M 910960 325772 l -65 -1324 -195 -1311 -322 -1286 -447 -1248 -567 -1198 -682 -1137 -790 -1065 -890 -982 -982 -890 -1065 -790 -1137 -682 -1198 -567 -1248 -447 -1286 -322 -1311 -195 -1324 -65 -1324 65 -1311 195 -1286 322 -1248 447 -1198 567 -1137 682 -1065 790 -982 890 -890 982 -790 1065 -682 1137 -567 1198 -447 1248 -322 1286 -195 1311 -65 1324 13509 0 Z" class="C2"/><path d="M 913609 325772 l 65 1324 195 1311 322 1286 447 1248 567 1198 682 1137 790 1065 890 982 982 890 1065 790 1137 682 1198 567 1248 447 1286 322 1311 195 1324 65 1324 -65 1311 -195 1286 -322 1248 -447 1198 -567 1137 -682 1065 -790 982 -890 890 -982 790 -1065 682 -1137 567 -1198 447 -1248 322 -1286 195 -1311 65 -1324 -13509 0 Z" class="C2"/><path d="M 940627 325772 l -65 -1324 -195 -1311 -322 -1286 -447 -1248 -567 -1198 -682 -1137 -790 -1065 -890 -982 -982 -890 -1065 -790 -1137 -682 -1198 -567 -1248 -447 -1286 -322 -1311 -195 -1324 -65 -1324 65 -1311 195 -1286 322 -1248 447 -1198 567 -1137 682 -1065 790 -982 890 -890 982 -790 1065 -682 1137 -567 1198 -447 1248 -322 1286 -195 1311 -65 1324 13509 0 Z" class="C2"/><path d="M 972944 325772 l 65 1324 195 1311 322 1286 447 1248 567 1198 682 1137 790 1065 890 982 982 890 1065 790 1137 682 1198 567 1248 447 1286 322 1311 195 1324 65 1324 -65 1311 -195 1286 -322 1248 -447 1198 -567 1137 -682 1065 -790 982 -890 890 -982 790 -1065 682 -1137 567 -1198 447 -1248 322 -1286 195 -1311 65 -1324 -13509 0 Z" class="C2"/><path d="M 999963 325772 l -65 -1324 -195 -1311 -322 -1286 -447 -1248 -567 -1198 -682 -1137 -790 -1065 -890 -982 -982 -890 -1065 -790 -1137 -682 -1198 -567 -1248 -447 -1286 -322 -1311 -195 -1324 -65 -1324 65 -1311 195 -1286 322 -1248 447 -1198 567 -1137 682 -1065 790 -982 890 -890 982 -790 1065 -682 1137 -567 1198 -447 1248 -322 1286 -195 1311 -65 1324 13509 0 Z" class="C2"/><path d="M 754051 256541 l 0 5032 15097 -2516 Z" class="C2"/><path d="M 754051 259057 l -185459 -0" class="C1"/><path d="M 548877 259057 l 37 751 110 743 183 729 253 708 321 679 386 645 448 604 505 557 557 505 604 448 645 386 679 321 708 253 729 183 743 110 751 37 751 -37 743 -110 729 -183 708 -253 679 -321 645 -386 604 -448 557 -505 505 -557 448 -604 386 -645 321 -679 253 -708 183 -729 110 -743 37 -751 -7659 0 Z" class="C2"/><path d="M 564195 259057 l -37 -751 -110 -743 -183 -729 -253 -708 -321 -679 -386 -645 -448 -604 -505 -557 -557 -505 -604 -448 -645 -386 -679 -321 -708 -253 -729 -183 -743 -110 -751 -37 -751 37 -743 110 -729 183 -708 253 -679 321 -645 386 -604 448 -557 505 -505 557 -448 604 -386 645 -321 679 -253 708 -183 729 -110 743 -37 751 7659 0 Z" class="C2"/></g></svg>