<?xml version='1.0' encoding='UTF-8'?>
<svg xmlns="http://www.w3.org/2000/svg" width="200.0mm" height="142.0mm" viewBox="130079 -7714 208269 147867"><defs><style>.C1 {stroke: #000000; stroke-width: 302; stroke-opacity: 1.000; fill: none; fill-opacity: 1.000;}</style><style>.C2 {stroke: none; stroke-width: none; stroke-opacity: 1.000; fill: #000000; fill-opacity: 1.000;}</style></defs><rect fill="#ffffff" x="130079" y="-7714" width="208269" height="147867" fill-opacity="1.0"/><g stroke-linecap="round" stroke-linejoin="round"><path d="M 167461 14834 c 0 8193 -6641 14834 -14834 14834 c -8193 0 -14834 -6641 -14834 -14834 c 0 -8193 6641 -14834 14834 -14834 c 8193 0 14834 6641 14834 14834" class="C1"/><path d="M 151755 14834 l 4 86 13 85 21 83 29 81 37 77 44 73 51 69 58 63 63 58 69 51 73 44 77 37 81 29 83 21 85 13 86 4 86 -4 85 -13 83 -21 81 -29 77 -37 73 -44 69 -51 63 -58 58 -63 51 -69 44 -73 37 -77 29 -81 21 -83 13 -85 4 -86 -873 0 Z" class="C2"/><path d="M 153500 14834 l -4 -86 -13 -85 -21 -83 -29 -81 -37 -77 -44 -73 -51 -69 -58 -63 -63 -58 -69 -51 -73 -44 -77 -37 -81 -29 -83 -21 -85 -13 -86 -4 -86 4 -85 13 -83 21 -81 29 -77 37 -73 44 -69 51 -63 58 -58 63 -51 69 -44 73 -37 77 -29 81 -21 83 -13 85 -4 86 873 0 Z" class="C2"/><path d="M 197129 14834 c 0 8193 -6641 14834 -14834 14834 c -8193 0 -14834 -6641 -14834 -14834 c 0 -8193 6641 -14834 14834 -14834 c 8193 0 14834 6641 14834 14834" class="C1"/><path d="M 181423 14834 l 4 86 13 85 21 83 29 81 37 77 44 73 51 69 58 63 63 58 69 51 73 44 77 37 81 29 83 21 85 13 86 4 86 -4 85 -13 83 -21 81 -29 77 -37 73 -44 69 -51 63 -58 58 -63 51 -69 44 -73 37 -77 29 -81 21 -83 13 -85 4 -86 -873 0 Z" class="C2"/><path d="M 183168 14834 l -4 -86 -13 -85 -21 -83 -29 -81 -37 -77 -44 -73 -51 -69 -58 -63 -63 -58 -69 -51 -73 -44 -77 -37 -81 -29 -83 -21 -85 -13 -86 -4 -86 4 -85 13 -83 21 -81 29 -77 37 -73 44 -69 51 -63 58 -58 63 -51 69 -44 73 -37 77 -29 81 -21 83 -13 85 -4 86 873 0 Z" class="C2"/><path d="M 226797 14834 c 0 8193 -6641 14834 -14834 14834 c -8193 0 -14834 -6641 -14834 -14834 c 0 -8193 6641 -14834 14834 -14834 c 8193 0 14834 6641 14834 14834" class="C1"/><path d="M 211090 14834 l 4 86 13 85 21 83 29 81 37 77 44 73 51 69 58 63 63 58 69 51 73 44 77 37 81 29 83 21 85 13 86 4 86 -4 85 -13 83 -21 81 -29 77 -37 73 -44 69 -51 63 -58 58 -63 51 -69 44 -73 37 -77 29 -81 21 -83 13 -85 4 -86 -873 0 Z" class="C2"/><path d="M 212836 14834 l -4 -86 -13 -85 -21 -83 -29 -81 -37 -77 -44 -73 -51 -69 -58 -63 -63 -58 -69 -51 -73 -44 -77 -37 -81 -29 -83 -21 -85 -13 -86 -4 -86 4 -85 13 -83 21 -81 29 -77 37 -73 44 -69 51 -63 58 -58 63 -51 69 -44 73 -37 77 -29 81 -21 83 -13 85 -4 86 873 0 Z" class="C2"/><path d="M 256465 14834 c 0 8193 -6641 14834 -14834 14834 c -8193 0 -14834 -6641 -14834 -14834 c 0 -8193 6641 -14834 14834 -14834 c 8193 0 14834 6641 14834 14834" class="C1"/><path d="M 240758 14834 l 4 86 13 85 21 83 29 81 37 77 44 73 51 69 58 63 63 58 69 51 73 44 77 37 81 29 83 21 85 13 86 4 86 -4 85 -13 83 -21 81 -29 77 -37 73 -44 69 -51 63 -58 58 -63 51 -69 44 -73 37 -77 29 -81 21 -83 13 -85 4 -86 -873 0 Z" class="C2"/><path d="M 242504 14834 l -4 -86 -13 -85 -21 -83 -29 -81 -37 -77 -44 -73 -51 -69 -58 -63 -63 -58 -69 -51 -73 -44 -77 -37 -81 -29 -83 -21 -85 -13 -86 -4 -86 4 -85 13 -83 21 -81 29 -77 37 -73 44 -69 51 -63 58 -58 63 -51 69 -44 73 -37 77 -29 81 -21 83 -13 85 -4 86 873 0 Z" class="C2"/><path d="M 286133 14834 c 0 8193 -6641 14834 -14834 14834 c -8193 0 -14834 -6641 -14834 -14834 c 0 -8193 6641 -14834 14834 -14834 c 8193 0 14834 6641 14834 14834" class="C1"/><path d="M 270426 14834 l 4 86 13 85 21 83 29 81 37 77 44 73 51 69 58 63 63 58 69 51 73 44 77 37 81 29 83 21 85 13 86 4 86 -4 85 -13 83 -21 81 -29 77 -37 73 -44 69 -51 63 -58 58 -63 51 -69 44 -73 37 -77 29 -81 21 -83 13 -85 4 -86 -873 0 Z" class="C2"/><path d="M 272172 14834 l -4 -86 -13 -85 -21 -83 -29 -81 -37 -77 -44 -73 -51 -69 -58 -63 -63 -58 -69 -51 -73 -44 -77 -37 -81 -29 -83 -21 -85 -13 -86 -4 -86 4 -85 13 -83 21 -81 29 -77 37 -73 44 -69 51 -63 58 -58 63 -51 69 -44 73 -37 77 -29 81 -21 83 -13 85 -4 86 873 0 Z" class="C2"/><path d="M 315801 14834 c 0 8193 -6641 14834 -14834 14834 c -8193 0 -14834 -6641 -14834 -14834 c 0 -8193 6641 -14834 14834 -14834 c 8193 0 14834 6641 14834 14834" class="C1"/><path d="M 300094 14834 l 4 86 13 85 21 83 29 81 37 77 44 73 51 69 58 63 63 58 69 51 73 44 77 37 81 29 83 21 85 13 86 4 86 -4 85 -13 83 -21 81 -29 77 -37 73 -44 69 -51 63 -58 58 -63 51 -69 44 -73 37 -77 29 -81 21 -83 13 -85 4 -86 -873 0 Z" class="C2"/><path d="M 301839 14834 l -4 -86 -13 -85 -21 -83 -29 -81 -37 -77 -44 -73 -51 -69 -58 -63 -63 -58 -69 -51 -73 -44 -77 -37 -81 -29 -83 -21 -85 -13 -86 -4 -86 4 -85 13 -83 21 -81 29 -77 37 -73 44 -69 51 -63 58 -58 63 -51 69 -44 73 -37 77 -29 81 -21 83 -13 85 -4 86 873 0 Z" class="C2"/><path d="M 211963 40527 c 0 8193 -6641 14834 -14834 14834 c -8193 0 -14834 -6641 -14834 -14834 c 0 -8193 6641 -14834 14834 -14834 c 8193 0 14834 6641 14834 14834" class="C1"/><path d="M 182295 40527 c 0 8193 -6641 14834 -14834 14834 c -8193 0 -14834 -6641 -14834 -14834 c 0 -8193 6641 -14834 14834 -14834 c 8193 0 14834 6641 14834 14834" class="C1"/><path d="M 166589 40527 l 4 86 13 85 21 83 29 81 37 77 44 73 51 69 58 63 63 58 69 51 73 44 77 37 81 29 83 21 85 13 86 4 86 -4 85 -13 83 -21 81 -29 77 -37 73 -44 69 -51 63 -58 58 -63 51 -69 44 -73 37 -77 29 -81 21 -83 13 -85 4 -86 -873 0 Z" class="C2"/><path d="M 168334 40527 l -4 -86 -13 -85 -21 -83 -29 -81 -37 -77 -44 -73 -51 -69 -58 -63 -63 -58 -69 -51 -73 -44 -77 -37 -81 -29 -83 -21 -85 -13 -86 -4 -86 4 -85 13 -83 21 -81 29 -77 37 -73 44 -69 51 -63 58 -58 63 -51 69 -44 73 -37 77 -29 81 -21 83 -13 85 -4 86 873 0 Z" class="C2"/><path d="M 196256 40527 l 4 86 13 85 21 83 29 81 37 77 44 73 51 69 58 63 63 58 69 51 73 44 77 37 81 29 83 21 85 13 86 4 86 -4 85 -13 83 -21 81 -29 77 -37 73 -44 69 -51 63 -58 58 -63 51 -69 44 -73 37 -77 29 -81 21 -83 13 -85 4 -86 -873 0 Z" class="C2"/><path d="M 198002 40527 l -4 -86 -13 -85 -21 -83 -29 -81 -37 -77 -44 -73 -51 -69 -58 -63 -63 -58 -69 -51 -73 -44 -77 -37 -81 -29 -83 -21 -85 -13 -86 -4 -86 4 -85 13 -83 21 -81 29 -77 37 -73 44 -69 51 -63 58 -58 63 -51 69 -44 73 -37 77 -29 81 -21 83 -13 85 -4 86 873 0 Z" class="C2"/><path d="M 330635 40527 c 0 8193 -6641 14834 -14834 14834 c -8193 0 -14834 -6641 -14834 -14834 c 0 -8193 6641 -14834 14834 -14834 c 8193 0 14834 6641 14834 14834" class="C1"/><path d="M 271299 40527 c 0 8193 -6641 14834 -14834 14834 c -8193 0 -14834 -6641 -14834 -14834 c 0 -8193 6641 -14834 14834 -14834 c 8193 0 14834 6641 14834 14834" class="C1"/><path d="M 241631 40527 c 0 8193 -6641 14834 -14834 14834 c -8193 0 -14834 -6641 -14834 -14834 c 0 -8193 6641 -14834 14834 -14834 c 8193 0 14834 6641 14834 14834" class="C1"/><path d="M 225924 40527 l 4 86 13 85 21 83 29 81 37 77 44 73 51 69 58 63 63 58 69 51 73 44 77 37 81 29 83 21 85 13 86 4 86 -4 85 -13 83 -21 81 -29 77 -37 73 -44 69 -51 63 -58 58 -63 51 -69 44 -73 37 -77 29 -81 21 -83 13 -85 4 -86 -873 0 Z" class="C2"/><path d="M 227670 40527 l -4 -86 -13 -85 -21 -83 -29 -81 -37 -77 -44 -73 -51 -69 -58 -63 -63 -58 -69 -51 -73 -44 -77 -37 -81 -29 -83 -21 -85 -13 -86 -4 -86 4 -85 13 -83 21 -81 29 -77 37 -73 44 -69 51 -63 58 -58 63 -51 69 -44 73 -37 77 -29 81 -21 83 -13 85 -4 86 873 0 Z" class="C2"/><path d="M 255592 40527 l 4 86 13 85 21 83 29 81 37 77 44 73 51 69 58 63 63 58 69 51 73 44 77 37 81 29 83 21 85 13 86 4 86 -4 85 -13 83 -21 81 -29 77 -37 73 -44 69 -51 63 -58 58 -63 51 -69 44 -73 37 -77 29 -81 21 -83 13 -85 4 -86 -873 0 Z" class="C2"/><path d="M 257338 40527 l -4 -86 -13 -85 -21 -83 -29 -81 -37 -77 -44 -73 -51 -69 -58 -63 -63 -58 -69 -51 -73 -44 -77 -37 -81 -29 -83 -21 -85 -13 -86 -4 -86 4 -85 13 -83 21 -81 29 -77 37 -73 44 -69 51 -63 58 -58 63 -51 69 -44 73 -37 77 -29 81 -21 83 -13 85 -4 86 873 0 Z" class="C2"/><path d="M 300967 40527 c 0 8193 -6641 14834 -14834 14834 c -8193 0 -14834 -6641 -14834 -14834 c 0 -8193 6641 -14834 14834 -14834 c 8193 0 14834 6641 14834 14834" class="C1"/><path d="M 285260 40527 l 4 86 13 85 21 83 29 81 37 77 44 73 51 69 58 63 63 58 69 51 73 44 77 37 81 29 83 21 85 13 86 4 86 -4 85 -13 83 -21 81 -29 77 -37 73 -44 69 -51 63 -58 58 -63 51 -69 44 -73 37 -77 29 -81 21 -83 13 -85 4 -86 -873 0 Z" class="C2"/><path d="M 287006 40527 l -4 -86 -13 -85 -21 -83 -29 -81 -37 -77 -44 -73 -51 -69 -58 -63 -63 -58 -69 -51 -73 -44 -77 -37 -81 -29 -83 -21 -85 -13 -86 -4 -86 4 -85 13 -83 21 -81 29 -77 37 -73 44 -69 51 -63 58 -58 63 -51 69 -44 73 -37 77 -29 81 -21 83 -13 85 -4 86 873 0 Z" class="C2"/><path d="M 314928 40527 l 4 86 13 85 21 83 29 81 37 77 44 73 51 69 58 63 63 58 69 51 73 44 77 37 81 29 83 21 85 13 86 4 86 -4 85 -13 83 -21 81 -29 77 -37 73 -44 69 -51 63 -58 58 -63 51 -69 44 -73 37 -77 29 -81 21 -83 13 -85 4 -86 -873 0 Z" class="C2"/><path d="M 316673 40527 l -4 -86 -13 -85 -21 -83 -29 -81 -37 -77 -44 -73 -51 -69 -58 -63 -63 -58 -69 -51 -73 -44 -77 -37 -81 -29 -83 -21 -85 -13 -86 -4 -86 4 -85 13 -83 21 -81 29 -77 37 -73 44 -69 51 -63 58 -58 63 -51 69 -44 73 -37 77 -29 81 -21 83 -13 85 -4 86 873 0 Z" class="C2"/><path d="M 197129 66220 c 0 8193 -6641 14834 -14834 14834 c -8193 0 -14834 -6641 -14834 -14834 c 0 -8193 6641 -14834 14834 -14834 c 8193 0 14834 6641 14834 14834" class="C1"/><path d="M 167461 66220 c 0 8193 -6641 14834 -14834 14834 c -8193 0 -14834 -6641 -14834 -14834 c 0 -8193 6641 -14834 14834 -14834 c 8193 0 14834 6641 14834 14834" class="C1"/><path d="M 151755 66220 l 4 86 13 85 21 83 29 81 37 77 44 73 51 69 58 63 63 58 69 51 73 44 77 37 81 29 83 21 85 13 86 4 86 -4 85 -13 83 -21 81 -29 77 -37 73 -44 69 -51 63 -58 58 -63 51 -69 44 -73 37 -77 29 -81 21 -83 13 -85 4 -86 -873 0 Z" class="C2"/><path d="M 153500 66220 l -4 -86 -13 -85 -21 -83 -29 -81 -37 -77 -44 -73 -51 -69 -58 -63 -63 -58 -69 -51 -73 -44 -77 -37 -81 -29 -83 -21 -85 -13 -86 -4 -86 4 -85 13 -83 21 -81 29 -77 37 -73 44 -69 51 -63 58 -58 63 -51 69 -44 73 -37 77 -29 81 -21 83 -13 85 -4 86 873 0 Z" class="C2"/><path d="M 181423 66220 l 4 86 13 85 21 83 29 81 37 77 44 73 51 69 58 63 63 58 69 51 73 44 77 37 81 29 83 21 85 13 86 4 86 -4 85 -13 83 -21 81 -29 77 -37 73 -44 69 -51 63 -58 58 -63 51 -69 44 -73 37 -77 29 -81 21 -83 13 -85 4 -86 -873 0 Z" class="C2"/><path d="M 183168 66220 l -4 -86 -13 -85 -21 -83 -29 -81 -37 -77 -44 -73 -51 -69 -58 -63 -63 -58 -69 -51 -73 -44 -77 -37 -81 -29 -83 -21 -85 -13 -86 -4 -86 4 -85 13 -83 21 -81 29 -77 37 -73 44 -69 51 -63 58 -58 63 -51 69 -44 73 -37 77 -29 81 -21 83 -13 85 -4 86 873 0 Z" class="C2"/><path d="M 315801 66220 c 0 8193 -6641 14834 -14834 14834 c -8193 0 -14834 -6641 -14834 -14834 c 0 -8193 6641 -14834 14834 -14834 c 8193 0 14834 6641 14834 14834" class="C1"/><path d="M 256465 66220 c 0 8193 -6641 14834 -14834 14834 c -8193 0 -14834 -6641 -14834 -14834 c 0 -8193 6641 -14834 14834 -14834 c 8193 0 14834 6641 14834 14834" class="C1"/><path d="M 226797 66220 c 0 8193 -6641 14834 -14834 14834 c -8193 0 -14834 -6641 -14834 -14834 c 0 -8193 6641 -14834 14834 -14834 c 8193 0 14834 6641 14834 14834" class="C1"/><path d="M 211090 66220 l 4 86 13 85 21 83 29 81 37 77 44 73 51 69 58 63 63 58 69 51 73 44 77 37 81 29 83 21 85 13 86 4 86 -4 85 -13 83 -21 81 -29 77 -37 73 -44 69 -51 63 -58 58 -63 51 -69 44 -73 37 -77 29 -81 21 -83 13 -85 4 -86 -873 0 Z" class="C2"/><path d="M 212836 66220 l -4 -86 -13 -85 -21 -83 -29 -81 -37 -77 -44 -73 -51 -69 -58 -63 -63 -58 -69 -51 -73 -44 -77 -37 -81 -29 -83 -21 -85 -13 -86 -4 -86 4 -85 13 -83 21 -81 29 -77 37 -73 44 -69 51 -63 58 -58 63 -51 69 -44 73 -37 77 -29 81 -21 83 -13 85 -4 86 873 0 Z" class="C2"/><path d="M 240758 66220 l 4 86 13 85 21 83 29 81 37 77 44 73 51 69 58 63 63 58 69 51 73 44 77 37 81 29 83 21 85 13 86 4 86 -4 85 -13 83 -21 81 -29 77 -37 73 -44 69 -51 63 -58 58 -63 51 -69 44 -73 37 -77 29 -81 21 -83 13 -85 4 -86 -873 0 Z" class="C2"/><path d="M 242504 66220 l -4 -86 -13 -85 -21 -83 -29 -81 -37 -77 -44 -73 -51 -69 -58 -63 -63 -58 -69 -51 -73 -44 -77 -37 -81 -29 -83 -21 -85 -13 -86 -4 -86 4 -85 13 -83 21 -81 29 -77 37 -73 44 -69 51 -63 58 -58 63 -51 69 -44 73 -37 77 -29 81 -21 83 -13 85 -4 86 873 0 Z" class="C2"/><path d="M 286133 66220 c 0 8193 -6641 14834 -14834 14834 c -8193 0 -14834 -6641 -14834 -14834 c 0 -8193 6641 -14834 14834 -14834 c 8193 0 14834 6641 14834 14834" class="C1"/><path d="M 270426 66220 l 4 86 13 85 21 83 29 81 37 77 44 73 51 69 58 63 63 58 69 51 73 44 77 37 81 29 83 21 85 13 86 4 86 -4 85 -13 83 -21 81 -29 77 -37 73 -44 69 -51 63 -58 58 -63 51 -69 44 -73 37 -77 29 -81 21 -83 13 -85 4 -86 -873 0 Z" class="C2"/><path d="M 272172 66220 l -4 -86 -13 -85 -21 -83 -29 -81 -37 -77 -44 -73 -51 -69 -58 -63 -63 -58 -69 -51 -73 -44 -77 -37 -81 -29 -83 -21 -85 -13 -86 -4 -86 4 -85 13 -83 21 -81 29 -77 37 -73 44 -69 51 -63 58 -58 63 -51 69 -44 73 -37 77 -29 81 -21 83 -13 85 -4 86 873 0 Z" class="C2"/><path d="M 300094 66220 l 4 86 13 85 21 83 29 81 37 77 44 73 51 69 58 63 63 58 69 51 73 44 77 37 81 29 83 21 85 13 86 4 86 -4 85 -13 83 -21 81 -29 77 -37 73 -44 69 -51 63 -58 58 -63 51 -69 44 -73 37 -77 29 -81 21 -83 13 -85 4 -86 -873 0 Z" class="C2"/><path d="M 301839 66220 l -4 -86 -13 -85 -21 -83 -29 -81 -37 -77 -44 -73 -51 -69 -58 -63 -63 -58 -69 -51 -73 -44 -77 -37 -81 -29 -83 -21 -85 -13 -86 -4 -86 4 -85 13 -83 21 -81 29 -77 37 -73 44 -69 51 -63 58 -58 63 -51 69 -44 73 -37 77 -29 81 -21 83 -13 85 -4 86 873 0 Z" class="C2"/><path d="M 211963 91913 c 0 8193 -6641 14834 -14834 14834 c -8193 0 -14834 -6641 -14834 -14834 c 0 -8193 6641 -14834 14834 -14834 c 8193 0 14834 6641 14834 14834" class="C1"/><path d="M 182295 91913 c 0 8193 -6641 14834 -14834 14834 c -8193 0 -14834 -6641 -14834 -14834 c 0 -8193 6641 -14834 14834 -14834 c 8193 0 14834 6641 14834 14834" class="C1"/><path d="M 166589 91913 l 4 86 13 85 21 83 29 81 37 77 44 73 51 69 58 63 63 58 69 51 73 44 77 37 81 29 83 21 85 13 86 4 86 -4 85 -13 83 -21 81 -29 77 -37 73 -44 69 -51 63 -58 58 -63 51 -69 44 -73 37 -77 29 -81 21 -83 13 -85 4 -86 -873 0 Z" class="C2"/><path d="M 168334 91913 l -4 -86 -13 -85 -21 -83 -29 -81 -37 -77 -44 -73 -51 -69 -58 -63 -63 -58 -69 -51 -73 -44 -77 -37 -81 -29 -83 -21 -85 -13 -86 -4 -86 4 -85 13 -83 21 -81 29 -77 37 -73 44 -69 51 -63 58 -58 63 -51 69 -44 73 -37 77 -29 81 -21 83 -13 85 -4 86 873 0 Z" class="C2"/><path d="M 196256 91913 l 4 86 13 85 21 83 29 81 37 77 44 73 51 69 58 63 63 58 69 51 73 44 77 37 81 29 83 21 85 13 86 4 86 -4 85 -13 83 -21 81 -29 77 -37 73 -44 69 -51 63 -58 58 -63 51 -69 44 -73 37 -77 29 -81 21 -83 13 -85 4 -86 -873 0 Z" class="C2"/><path d="M 198002 91913 l -4 -86 -13 -85 -21 -83 -29 -81 -37 -77 -44 -73 -51 -69 -58 -63 -63 -58 -69 -51 -73 -44 -77 -37 -81 -29 -83 -21 -85 -13 -86 -4 -86 4 -85 13 -83 21 -81 29 -77 37 -73 44 -69 51 -63 58 -58 63 -51 69 -44 73 -37 77 -29 81 -21 83 -13 85 -4 86 873 0 Z" class="C2"/><path d="M 330635 91913 c 0 8193 -6641 14834 -14834 14834 c -8193 0 -14834 -6641 -14834 -14834 c 0 -8193 6641 -14834 14834 -14834 c 8193 0 14834 6641 14834 14834" class="C1"/><path d="M 271299 91913 c 0 8193 -6641 14834 -14834 14834 c -8193 0 -14834 -6641 -14834 -14834 c 0 -8193 6641 -14834 14834 -14834 c 8193 0 14834 6641 14834 14834" class="C1"/><path d="M 241631 91913 c 0 8193 -6641 14834 -14834 14834 c -8193 0 -14834 -6641 -14834 -14834 c 0 -8193 6641 -14834 14834 -14834 c 8193 0 14834 6641 14834 14834" class="C1"/><path d="M 225924 91913 l 4 86 13 85 21 83 29 81 37 77 44 73 51 69 58 63 63 58 69 51 73 44 77 37 81 29 83 21 85 13 86 4 86 -4 85 -13 83 -21 81 -29 77 -37 73 -44 69 -51 63 -58 58 -63 51 -69 44 -73 37 -77 29 -81 21 -83 13 -85 4 -86 -873 0 Z" class="C2"/><path d="M 227670 91913 l -4 -86 -13 -85 -21 -83 -29 -81 -37 -77 -44 -73 -51 -69 -58 -63 -63 -58 -69 -51 -73 -44 -77 -37 -81 -29 -83 -21 -85 -13 -86 -4 -86 4 -85 13 -83 21 -81 29 -77 37 -73 44 -69 51 -63 58 -58 63 -51 69 -44 73 -37 77 -29 81 -21 83 -13 85 -4 86 873 0 Z" class="C2"/><path d="M 255592 91913 l 4 86 13 85 21 83 29 81 37 77 44 73 51 69 58 63 63 58 69 51 73 44 77 37 81 29 83 21 85 13 86 4 86 -4 85 -13 83 -21 81 -29 77 -37 73 -44 69 -51 63 -58 58 -63 51 -69 44 -73 37 -77 29 -81 21 -83 13 -85 4 -86 -873 0 Z" class="C2"/><path d="M 257338 91913 l -4 -86 -13 -85 -21 -83 -29 -81 -37 -77 -44 -73 -51 -69 -58 -63 -63 -58 -69 -51 -73 -44 -77 -37 -81 -29 -83 -21 -85 -13 -86 -4 -86 4 -85 13 -83 21 -81 29 -77 37 -73 44 -69 51 -63 58 -58 63 -51 69 -44 73 -37 77 -29 81 -21 83 -13 85 -4 86 873 0 Z" class="C2"/><path d="M 300967 91913 c 0 8193 -6641 14834 -14834 14834 c -8193 0 -14834 -6641 -14834 -14834 c 0 -8193 6641 -14834 14834 -14834 c 8193 0 14834 6641 14834 14834" class="C1"/><path d="M 285260 91913 l 4 86 13 85 21 83 29 81 37 77 44 73 51 69 58 63 63 58 69 51 73 44 77 37 81 29 83 21 85 13 86 4 86 -4 85 -13 83 -21 81 -29 77 -37 73 -44 69 -51 63 -58 58 -63 51 -69 44 -73 37 -77 29 -81 21 -83 13 -85 4 -86 -873 0 Z" class="C2"/><path d="M 287006 91913 l -4 -86 -13 -85 -21 -83 -29 -81 -37 -77 -44 -73 -51 -69 -58 -63 -63 -58 -69 -51 -73 -44 -77 -37 -81 -29 -83 -21 -85 -13 -86 -4 -86 4 -85 13 -83 21 -81 29 -77 37 -73 44 -69 51 -63 58 -58 63 -51 69 -44 73 -37 77 -29 81 -21 83 -13 85 -4 86 873 0 Z" class="C2"/><path d="M 314928 91913 l 4 86 13 85 21 83 29 81 37 77 44 73 51 69 58 63 63 58 69 51 73 44 77 37 81 29 83 21 85 13 86 4 86 -4 85 -13 83 -21 81 -29 77 -37 73 -44 69 -51 63 -58 58 -63 51 -69 44 -73 37 -77 29 -81 21 -83 13 -85 4 -86 -873 0 Z" class="C2"/><path d="M 316673 91913 l -4 -86 -13 -85 -21 -83 -29 -81 -37 -77 -44 -73 -51 -69 -58 -63 -63 -58 -69 -51 -73 -44 -77 -37 -81 -29 -83 -21 -85 -13 -86 -4 -86 4 -85 13 -83 21 -81 29 -77 37 -73 44 -69 51 -63 58 -58 63 -51 69 -44 73 -37 77 -29 81 -21 83 -13 85 -4 86 873 0 Z" class="C2"/><path d="M 197129 117606 c 0 8193 -6641 14834 -14834 14834 c -8193 0 -14834 -6641 -14834 -14834 c 0 -8193 6641 -14834 14834 -14834 c 8193 0 14834 6641 14834 14834" class="C1"/><path d="M 167461 117606 c 0 8193 -6641 14834 -14834 14834 c -8193 0 -14834 -6641 -14834 -14834 c 0 -8193 6641 -14834 14834 -14834 c 8193 0 14834 6641 14834 14834" class="C1"/><path d="M 151755 117606 l 4 86 13 85 21 83 29 81 37 77 44 73 51 69 58 63 63 58 69 51 73 44 77 37 81 29 83 21 85 13 86 4 86 -4 85 -13 83 -21 81 -29 77 -37 73 -44 69 -51 63 -58 58 -63 51 -69 44 -73 37 -77 29 -81 21 -83 13 -85 4 -86 -873 0 Z" class="C2"/><path d="M 153500 117606 l -4 -86 -13 -85 -21 -83 -29 -81 -37 -77 -44 -73 -51 -69 -58 -63 -63 -58 -69 -51 -73 -44 -77 -37 -81 -29 -83 -21 -85 -13 -86 -4 -86 4 -85 13 -83 21 -81 29 -77 37 -73 44 -69 51 -63 58 -58 63 -51 69 -44 73 -37 77 -29 81 -21 83 -13 85 -4 86 873 0 Z" class="C2"/><path d="M 181423 117606 l 4 86 13 85 21 83 29 81 37 77 44 73 51 69 58 63 63 58 69 51 73 44 77 37 81 29 83 21 85 13 86 4 86 -4 85 -13 83 -21 81 -29 77 -37 73 -44 69 -51 63 -58 58 -63 51 -69 44 -73 37 -77 29 -81 21 -83 13 -85 4 -86 -873 0 Z" class="C2"/><path d="M 183168 117606 l -4 -86 -13 -85 -21 -83 -29 -81 -37 -77 -44 -73 -51 -69 -58 -63 -63 -58 -69 -51 -73 -44 -77 -37 -81 -29 -83 -21 -85 -13 -86 -4 -86 4 -85 13 -83 21 -81 29 -77 37 -73 44 -69 51 -63 58 -58 63 -51 69 -44 73 -37 77 -29 81 -21 83 -13 85 -4 86 873 0 Z" class="C2"/><path d="M 315801 117606 c 0 8193 -6641 14834 -14834 14834 c -8193 0 -14834 -6641 -14834 -14834 c 0 -8193 6641 -14834 14834 -14834 c 8193 0 14834 6641 14834 14834" class="C1"/><path d="M 256465 117606 c 0 8193 -6641 14834 -14834 14834 c -8193 0 -14834 -6641 -14834 -14834 c 0 -8193 6641 -14834 14834 -14834 c 8193 0 14834 6641 14834 14834" class="C1"/><path d="M 226797 117606 c 0 8193 -6641 14834 -14834 14834 c -8193 0 -14834 -6641 -14834 -14834 c 0 -8193 6641 -14834 14834 -14834 c 8193 0 14834 6641 14834 14834" class="C1"/><path d="M 211090 117606 l 4 86 13 85 21 83 29 81 37 77 44 73 51 69 58 63 63 58 69 51 73 44 77 37 81 29 83 21 85 13 86 4 86 -4 85 -13 83 -21 81 -29 77 -37 73 -44 69 -51 63 -58 58 -63 51 -69 44 -73 37 -77 29 -81 21 -83 13 -85 4 -86 -873 0 Z" class="C2"/><path d="M 212836 117606 l -4 -86 -13 -85 -21 -83 -29 -81 -37 -77 -44 -73 -51 -69 -58 -63 -63 -58 -69 -51 -73 -44 -77 -37 -81 -29 -83 -21 -85 -13 -86 -4 -86 4 -85 13 -83 21 -81 29 -77 37 -73 44 -69 51 -63 58 -58 63 -51 69 -44 73 -37 77 -29 81 -21 83 -13 85 -4 86 873 0 Z" class="C2"/><path d="M 240758 117606 l 4 86 13 85 21 83 29 81 37 77 44 73 51 69 58 63 63 58 69 51 73 44 77 37 81 29 83 21 85 13 86 4 86 -4 85 -13 83 -21 81 -29 77 -37 73 -44 69 -51 63 -58 58 -63 51 -69 44 -73 37 -77 29 -81 21 -83 13 -85 4 -86 -873 0 Z" class="C2"/><path d="M 242504 117606 l -4 -86 -13 -85 -21 -83 -29 -81 -37 -77 -44 -73 -51 -69 -58 -63 -63 -58 -69 -51 -73 -44 -77 -37 -81 -29 -83 -21 -85 -13 -86 -4 -86 4 -85 13 -83 21 -81 29 -77 37 -73 44 -69 51 -63 58 -58 63 -51 69 -44 73 -37 77 -29 81 -21 83 -13 85 -4 86 873 0 Z" class="C2"/><path d="M 286133 117606 c 0 8193 -6641 14834 -14834 14834 c -8193 0 -14834 -6641 -14834 -14834 c 0 -8193 6641 -14834 14834 -14834 c 8193 0 14834 6641 14834 14834" class="C1"/><path d="M 270426 117606 l 4 86 13 85 21 83 29 81 37 77 44 73 51 69 58 63 63 58 69 51 73 44 77 37 81 29 83 21 85 13 86 4 86 -4 85 -13 83 -21 81 -29 77 -37 73 -44 69 -51 63 -58 58 -63 51 -69 44 -73 37 -77 29 -81 21 -83 13 -85 4 -86 -873 0 Z" class="C2"/><path d="M 272172 117606 l -4 -86 -13 -85 -21 -83 -29 -81 -37 -77 -44 -73 -51 -69 -58 -63 -63 -58 -69 -51 -73 -44 -77 -37 -81 -29 -83 -21 -85 -13 -86 -4 -86 4 -85 13 -83 21 -81 29 -77 37 -73 44 -69 51 -63 58 -58 63 -51 69 -44 73 -37 77 -29 81 -21 83 -13 85 -4 86 873 0 Z" class="C2"/><path d="M 300094 117606 l 4 86 13 85 21 83 29 81 37 77 44 73 51 69 58 63 63 58 69 51 73 44 77 37 81 29 83 21 85 13 86 4 86 -4 85 -13 83 -21 81 -29 77 -37 73 -44 69 -51 63 -58 58 -63 51 -69 44 -73 37 -77 29 -81 21 -83 13 -85 4 -86 -873 0 Z" class="C2"/><path d="M 301839 117606 l -4 -86 -13 -85 -21 -83 -29 -81 -37 -77 -44 -73 -51 -69 -58 -63 -63 -58 -69 -51 -73 -44 -77 -37 -81 -29 -83 -21 -85 -13 -86 -4 -86 4 -85 13 -83 21 -81 29 -77 37 -73 44 -69 51 -63 58 -58 63 -51 69 -44 73 -37 77 -29 81 -21 83 -13 85 -4 86 873 0 Z" class="C2"/></g></svg>