<?xml version="1.0" encoding="UTF-8"?>
<!DOCTYPE svg PUBLIC "-//W3C//DTD SVG 1.1//EN" "http://www.w3.org/Graphics/SVG/1.1/DTD/svg11.dtd">
<svg version="1.2" width="165.350mm" height="85.430mm" viewBox="2527 9698 16535 8543" preserveAspectRatio="xMidYMid" fill-rule="evenodd" stroke-width="28.222" stroke-linejoin="round" xmlns="http://www.w3.org/2000/svg" xmlns:ooo="http://xml.openoffice.org/svg/export" xmlns:xlink="http://www.w3.org/1999/xlink" xmlns:presentation="http://sun.com/xmlns/staroffice/presentation" xmlns:smil="http://www.w3.org/2001/SMIL20/" xmlns:anim="urn:oasis:names:tc:opendocument:xmlns:animation:1.0" xmlns:svg="urn:oasis:names:tc:opendocument:xmlns:svg-compatible:1.0" xml:space="preserve">
 <defs class="ClipPathGroup">
  <clipPath id="presentation_clip_path" clipPathUnits="userSpaceOnUse">
   <rect x="0" y="0" width="21590" height="27940"/>
  </clipPath>
  <clipPath id="presentation_clip_path_shrink" clipPathUnits="userSpaceOnUse">
   <rect x="21" y="27" width="21547" height="27885"/>
  </clipPath>
 </defs>
 <defs class="TextShapeIndex">
  <g ooo:slide="id1" ooo:id-list="id3"/>
 </defs>
 <defs class="EmbeddedBulletChars">
  <g id="bullet-char-template-57356" transform="scale(0.00048828125,-0.00048828125)">
   <path d="M 580,1141 L 1163,571 580,0 -4,571 580,1141 Z"/>
  </g>
  <g id="bullet-char-template-57354" transform="scale(0.00048828125,-0.00048828125)">
   <path d="M 8,1128 L 1137,1128 1137,0 8,0 8,1128 Z"/>
  </g>
  <g id="bullet-char-template-10146" transform="scale(0.00048828125,-0.00048828125)">
   <path d="M 174,0 L 602,739 174,1481 1456,739 174,0 Z M 1358,739 L 309,1346 659,739 1358,739 Z"/>
  </g>
  <g id="bullet-char-template-10132" transform="scale(0.00048828125,-0.00048828125)">
   <path d="M 2015,739 L 1276,0 717,0 1260,543 174,543 174,936 1260,936 717,1481 1274,1481 2015,739 Z"/>
  </g>
  <g id="bullet-char-template-10007" transform="scale(0.00048828125,-0.00048828125)">
   <path d="M 0,-2 C -7,14 -16,27 -25,37 L 356,567 C 262,823 215,952 215,954 215,979 228,992 255,992 264,992 276,990 289,987 310,991 331,999 354,1012 L 381,999 492,748 772,1049 836,1024 860,1049 C 881,1039 901,1025 922,1006 886,937 835,863 770,784 769,783 710,716 594,584 L 774,223 C 774,196 753,168 711,139 L 727,119 C 717,90 699,76 672,76 641,76 570,178 457,381 L 164,-76 C 142,-110 111,-127 72,-127 30,-127 9,-110 8,-76 1,-67 -2,-52 -2,-32 -2,-23 -1,-13 0,-2 Z"/>
  </g>
  <g id="bullet-char-template-10004" transform="scale(0.00048828125,-0.00048828125)">
   <path d="M 285,-33 C 182,-33 111,30 74,156 52,228 41,333 41,471 41,549 55,616 82,672 116,743 169,778 240,778 293,778 328,747 346,684 L 369,508 C 377,444 397,411 428,410 L 1163,1116 C 1174,1127 1196,1133 1229,1133 1271,1133 1292,1118 1292,1087 L 1292,965 C 1292,929 1282,901 1262,881 L 442,47 C 390,-6 338,-33 285,-33 Z"/>
  </g>
  <g id="bullet-char-template-9679" transform="scale(0.00048828125,-0.00048828125)">
   <path d="M 813,0 C 632,0 489,54 383,161 276,268 223,411 223,592 223,773 276,916 383,1023 489,1130 632,1184 813,1184 992,1184 1136,1130 1245,1023 1353,916 1407,772 1407,592 1407,412 1353,268 1245,161 1136,54 992,0 813,0 Z"/>
  </g>
  <g id="bullet-char-template-8226" transform="scale(0.00048828125,-0.00048828125)">
   <path d="M 346,457 C 273,457 209,483 155,535 101,586 74,649 74,723 74,796 101,859 155,911 209,963 273,989 346,989 419,989 480,963 531,910 582,859 608,796 608,723 608,648 583,586 532,535 482,483 420,457 346,457 Z"/>
  </g>
  <g id="bullet-char-template-8211" transform="scale(0.00048828125,-0.00048828125)">
   <path d="M -4,459 L 1135,459 1135,606 -4,606 -4,459 Z"/>
  </g>
  <g id="bullet-char-template-61548" transform="scale(0.00048828125,-0.00048828125)">
   <path d="M 173,740 C 173,903 231,1043 346,1159 462,1274 601,1332 765,1332 928,1332 1067,1274 1183,1159 1299,1043 1357,903 1357,740 1357,577 1299,437 1183,322 1067,206 928,148 765,148 601,148 462,206 346,322 231,437 173,577 173,740 Z"/>
  </g>
 </defs>
 <g>
  <g id="id2" class="Master_Slide">
   <g id="bg-id2" class="Background"/>
   <g id="bo-id2" class="BackgroundObjects"/>
  </g>
 </g>
 <g class="SlideGroup">
  <g>
   <g id="container-id1">
    <g id="id1" class="Slide" clip-path="url(#presentation_clip_path)">
     <g class="Page">
      <g class="Graphic">
       <g id="id3">
        <rect class="BoundingBox" stroke="none" fill="none" x="2527" y="9698" width="16535" height="8543"/>
        <defs>
         <clipPath id="clip_path_1" clipPathUnits="userSpaceOnUse">
          <path d="M 2527,9698 L 19061,9698 19061,18240 2527,18240 2527,9698 Z "/>
         </clipPath>
        </defs>
        <g clip-path="url(#clip_path_1)">
         <path fill="rgb(255,255,255)" stroke="none" d="M 2535,9706 L 19052,9706 19052,18231 2535,18231 2535,9706 Z "/>
         <path fill="none" stroke="rgb(255,255,255)" stroke-width="34" stroke-linejoin="round" stroke-linecap="round" d="M 2535,9706 L 19052,9706 19052,18231 2535,18231 2535,9706 Z "/>
         <path fill="none" stroke="rgb(0,0,0)" stroke-width="34" stroke-linejoin="round" stroke-linecap="round" d="M 3746,13559 L 5423,13559 5423,13559 "/>
         <path fill="none" stroke="rgb(0,0,0)" stroke-width="34" stroke-linejoin="round" stroke-linecap="round" d="M 5423,13550 L 5423,12026 5423,12026 "/>
         <path fill="none" stroke="rgb(0,0,0)" stroke-width="34" stroke-linejoin="round" stroke-linecap="round" d="M 3746,12026 L 3966,12272 4254,12433 4584,12492 4906,12433 5202,12272 5423,12026 5423,12026 "/>
         <path fill="none" stroke="rgb(0,0,0)" stroke-width="34" stroke-linejoin="round" stroke-linecap="round" d="M 3746,12026 L 3746,13550 3746,13550 "/>
         <path fill="none" stroke="rgb(0,0,0)" stroke-width="34" stroke-linejoin="round" stroke-linecap="round" d="M 5423,9977 L 5423,10350 5423,10350 "/>
         <path fill="none" stroke="rgb(0,0,0)" stroke-width="34" stroke-linejoin="round" stroke-linecap="round" d="M 5423,10350 L 4711,11578 4711,11578 "/>
         <path fill="none" stroke="rgb(0,0,0)" stroke-width="34" stroke-linejoin="round" stroke-linecap="round" d="M 4449,11578 L 4534,11645 4635,11645 4711,11578 4720,11578 "/>
         <path fill="none" stroke="rgb(0,0,0)" stroke-width="34" stroke-linejoin="round" stroke-linecap="round" d="M 4449,11578 L 3746,10350 3746,10350 "/>
         <path fill="none" stroke="rgb(0,0,0)" stroke-width="34" stroke-linejoin="round" stroke-linecap="round" d="M 3746,10350 L 3746,9977 3746,9977 "/>
         <path fill="none" stroke="rgb(0,0,0)" stroke-width="34" stroke-linejoin="round" stroke-linecap="round" d="M 3746,9977 L 5423,9977 5423,9977 "/>
         <path fill="none" stroke="rgb(0,0,0)" stroke-width="34" stroke-linejoin="round" stroke-linecap="round" d="M 4567,16429 L 4931,16387 5279,16243 5575,16014 5575,16014 "/>
         <path fill="none" stroke="rgb(0,0,0)" stroke-width="34" stroke-linejoin="round" stroke-linecap="round" d="M 6591,15591 L 6218,15642 5871,15786 5575,16014 5575,16014 "/>
         <path fill="none" stroke="rgb(0,0,0)" stroke-width="34" stroke-linejoin="round" stroke-linecap="round" d="M 6591,15599 L 9046,15599 9046,15599 "/>
         <path fill="none" stroke="rgb(0,0,0)" stroke-width="34" stroke-linejoin="round" stroke-linecap="round" d="M 9046,15599 L 9139,15599 9139,15599 "/>
         <path fill="none" stroke="rgb(0,0,0)" stroke-width="34" stroke-linejoin="round" stroke-linecap="round" d="M 4567,16438 L 2764,16438 2764,16438 "/>
         <path fill="none" stroke="rgb(0,0,0)" stroke-width="34" stroke-linejoin="round" stroke-linecap="round" d="M 5575,16852 L 5279,16624 4931,16480 4567,16429 4567,16429 "/>
         <path fill="none" stroke="rgb(0,0,0)" stroke-width="34" stroke-linejoin="round" stroke-linecap="round" d="M 5575,16852 L 5871,17081 6218,17225 6591,17267 6591,17267 "/>
         <path fill="none" stroke="rgb(0,0,0)" stroke-width="34" stroke-linejoin="round" stroke-linecap="round" d="M 6591,16954 L 6718,16827 6718,16827 "/>
         <path fill="none" stroke="rgb(0,0,0)" stroke-width="34" stroke-linejoin="round" stroke-linecap="round" d="M 6591,17132 L 6752,16963 6752,16963 "/>
         <path fill="none" stroke="rgb(0,0,0)" stroke-width="34" stroke-linejoin="round" stroke-linecap="round" d="M 6591,17301 L 6752,17132 6752,17132 "/>
         <path fill="none" stroke="rgb(0,0,0)" stroke-width="34" stroke-linejoin="round" stroke-linecap="round" d="M 6591,17471 L 6752,17301 6752,17301 "/>
         <path fill="none" stroke="rgb(0,0,0)" stroke-width="34" stroke-linejoin="round" stroke-linecap="round" d="M 6591,17640 L 6752,17471 6752,17471 "/>
         <path fill="none" stroke="rgb(0,0,0)" stroke-width="34" stroke-linejoin="round" stroke-linecap="round" d="M 6684,17716 L 6752,17648 6752,17648 "/>
         <path fill="none" stroke="rgb(0,0,0)" stroke-width="34" stroke-linejoin="round" stroke-linecap="round" d="M 6591,16827 L 6591,17716 6752,17716 6752,16827 6591,16827 Z "/>
         <path fill="none" stroke="rgb(0,0,0)" stroke-width="34" stroke-linejoin="round" stroke-linecap="round" d="M 9139,15591 L 9690,15489 10155,15176 10155,15176 "/>
         <path fill="none" stroke="rgb(0,0,0)" stroke-width="34" stroke-linejoin="round" stroke-linecap="round" d="M 11163,14753 L 10621,14863 10155,15176 10155,15176 "/>
         <path fill="none" stroke="rgb(0,0,0)" stroke-width="34" stroke-linejoin="round" stroke-linecap="round" d="M 8200,11230 L 8572,11230 8572,11230 "/>
         <path fill="none" stroke="rgb(0,0,0)" stroke-width="34" stroke-linejoin="round" stroke-linecap="round" d="M 8572,11230 L 9791,11942 9791,11942 "/>
         <path fill="none" stroke="rgb(0,0,0)" stroke-width="34" stroke-linejoin="round" stroke-linecap="round" d="M 9791,12204 L 9859,12120 9859,12018 9791,11942 9791,11942 "/>
         <path fill="none" stroke="rgb(0,0,0)" stroke-width="34" stroke-linejoin="round" stroke-linecap="round" d="M 9791,12204 L 8572,12907 8572,12907 "/>
         <path fill="none" stroke="rgb(0,0,0)" stroke-width="34" stroke-linejoin="round" stroke-linecap="round" d="M 8572,12907 L 8200,12907 8200,12907 "/>
         <path fill="none" stroke="rgb(0,0,0)" stroke-width="34" stroke-linejoin="round" stroke-linecap="round" d="M 8200,12907 L 8200,11230 8200,11230 "/>
         <path fill="none" stroke="rgb(0,0,0)" stroke-width="34" stroke-linejoin="round" stroke-linecap="round" d="M 11772,12907 L 11772,11230 11772,11230 "/>
         <path fill="none" stroke="rgb(0,0,0)" stroke-width="34" stroke-linejoin="round" stroke-linecap="round" d="M 11772,11230 L 10240,11230 10248,11230 "/>
         <path fill="none" stroke="rgb(0,0,0)" stroke-width="34" stroke-linejoin="round" stroke-linecap="round" d="M 10240,12907 L 10528,12636 10689,12272 10689,11874 10528,11510 10240,11230 10248,11230 "/>
         <path fill="none" stroke="rgb(0,0,0)" stroke-width="34" stroke-linejoin="round" stroke-linecap="round" d="M 10240,12907 L 11772,12907 11772,12907 "/>
         <path fill="none" stroke="rgb(0,0,0)" stroke-width="34" stroke-linejoin="round" stroke-linecap="round" d="M 13906,11798 L 14278,11798 14278,11798 "/>
         <path fill="none" stroke="rgb(0,0,0)" stroke-width="34" stroke-linejoin="round" stroke-linecap="round" d="M 14278,11798 L 15498,12501 15498,12501 "/>
         <path fill="none" stroke="rgb(0,0,0)" stroke-width="34" stroke-linejoin="round" stroke-linecap="round" d="M 15498,12763 L 15565,12687 15565,12585 15498,12501 15498,12501 "/>
         <path fill="none" stroke="rgb(0,0,0)" stroke-width="34" stroke-linejoin="round" stroke-linecap="round" d="M 15498,12763 L 14278,13474 14278,13474 "/>
         <path fill="none" stroke="rgb(0,0,0)" stroke-width="34" stroke-linejoin="round" stroke-linecap="round" d="M 14278,13474 L 13906,13474 13906,13474 "/>
         <path fill="none" stroke="rgb(0,0,0)" stroke-width="34" stroke-linejoin="round" stroke-linecap="round" d="M 13906,13474 L 13906,11798 13906,11798 "/>
         <path fill="none" stroke="rgb(0,0,0)" stroke-width="34" stroke-linejoin="round" stroke-linecap="round" d="M 17479,13474 L 17479,11798 17479,11798 "/>
         <path fill="none" stroke="rgb(0,0,0)" stroke-width="34" stroke-linejoin="round" stroke-linecap="round" d="M 17479,11798 L 15946,11798 15955,11798 "/>
         <path fill="none" stroke="rgb(0,0,0)" stroke-width="34" stroke-linejoin="round" stroke-linecap="round" d="M 15946,13474 L 16200,13254 16353,12958 16412,12636 16353,12306 16200,12018 15946,11798 15955,11798 "/>
         <path fill="none" stroke="rgb(0,0,0)" stroke-width="34" stroke-linejoin="round" stroke-linecap="round" d="M 15946,13474 L 17479,13474 17479,13474 "/>
         <path fill="none" stroke="rgb(0,0,0)" stroke-width="34" stroke-linejoin="round" stroke-linecap="round" d="M 14414,11874 L 14414,10663 14786,10663 16006,11366 16006,11366 "/>
         <path fill="none" stroke="rgb(0,0,0)" stroke-width="34" stroke-linejoin="round" stroke-linecap="round" d="M 16006,11637 L 16073,11552 16073,11451 16006,11366 16014,11366 "/>
         <path fill="none" stroke="rgb(0,0,0)" stroke-width="34" stroke-linejoin="round" stroke-linecap="round" d="M 16006,11637 L 15007,12213 15007,12213 "/>
         <path fill="none" stroke="rgb(0,0,0)" stroke-width="34" stroke-linejoin="round" stroke-linecap="round" d="M 17479,12340 L 17987,12340 17987,10663 16463,10663 16463,10663 "/>
         <path fill="none" stroke="rgb(0,0,0)" stroke-width="34" stroke-linejoin="round" stroke-linecap="round" d="M 16878,11798 L 16920,11476 16861,11154 16700,10875 16463,10663 16463,10663 "/>
         <path fill="none" stroke="rgb(0,0,0)" stroke-width="34" stroke-linejoin="round" stroke-linecap="round" d="M 11163,14753 L 15218,14753 15218,14753 "/>
         <path fill="none" stroke="rgb(0,0,0)" stroke-width="34" stroke-linejoin="round" stroke-linecap="round" d="M 16234,15176 L 16691,15489 17242,15591 17242,15591 "/>
         <path fill="none" stroke="rgb(0,0,0)" stroke-width="34" stroke-linejoin="round" stroke-linecap="round" d="M 17335,15599 L 17242,15599 17242,15599 "/>
         <path fill="none" stroke="rgb(0,0,0)" stroke-width="34" stroke-linejoin="round" stroke-linecap="round" d="M 16234,15176 L 15769,14863 15218,14753 15218,14753 "/>
         <path fill="none" stroke="rgb(0,0,0)" stroke-width="34" stroke-linejoin="round" stroke-linecap="round" d="M 17242,15591 L 16742,15667 16285,15870 15887,16184 15887,16184 "/>
         <path fill="none" stroke="rgb(0,0,0)" stroke-width="34" stroke-linejoin="round" stroke-linecap="round" d="M 14753,16759 L 15379,16582 15887,16184 15887,16184 "/>
         <path fill="none" stroke="rgb(0,0,0)" stroke-width="34" stroke-linejoin="round" stroke-linecap="round" d="M 14753,16759 L 11705,16759 11705,16759 "/>
         <path fill="none" stroke="rgb(0,0,0)" stroke-width="34" stroke-linejoin="round" stroke-linecap="round" d="M 10562,16184 L 11078,16582 11705,16759 11705,16759 "/>
         <path fill="none" stroke="rgb(0,0,0)" stroke-width="34" stroke-linejoin="round" stroke-linecap="round" d="M 10562,16184 L 10147,15870 9664,15667 9139,15591 9139,15591 "/>
         <path fill="none" stroke="rgb(0,0,0)" stroke-width="34" stroke-linejoin="round" stroke-linecap="round" d="M 17242,15599 L 18740,15599 18740,15599 "/>
        </g>
       </g>
      </g>
     </g>
    </g>
   </g>
  </g>
 </g>
</svg>