<?xml version="1.0" encoding="UTF-8"?>
<!DOCTYPE svg PUBLIC "-//W3C//DTD SVG 1.1//EN" "http://www.w3.org/Graphics/SVG/1.1/DTD/svg11.dtd">
<svg version="1.2" width="53.680mm" height="46.310mm" viewBox="8111 11654 5368 4631" preserveAspectRatio="xMidYMid" fill-rule="evenodd" stroke-width="28.222" stroke-linejoin="round" xmlns="http://www.w3.org/2000/svg" xmlns:ooo="http://xml.openoffice.org/svg/export" xmlns:xlink="http://www.w3.org/1999/xlink" xmlns:presentation="http://sun.com/xmlns/staroffice/presentation" xmlns:smil="http://www.w3.org/2001/SMIL20/" xmlns:anim="urn:oasis:names:tc:opendocument:xmlns:animation:1.0" xmlns:svg="urn:oasis:names:tc:opendocument:xmlns:svg-compatible:1.0" xml:space="preserve">
 <defs class="ClipPathGroup">
  <clipPath id="presentation_clip_path" clipPathUnits="userSpaceOnUse">
   <rect x="0" y="0" width="21590" height="27940"/>
  </clipPath>
  <clipPath id="presentation_clip_path_shrink" clipPathUnits="userSpaceOnUse">
   <rect x="21" y="27" width="21547" height="27885"/>
  </clipPath>
 </defs>
 <defs class="TextShapeIndex">
  <g ooo:slide="id1" ooo:id-list="id3"/>
 </defs>
 <defs class="EmbeddedBulletChars">
  <g id="bullet-char-template-57356" transform="scale(0.00048828125,-0.00048828125)">
   <path d="M 580,1141 L 1163,571 580,0 -4,571 580,1141 Z"/>
  </g>
  <g id="bullet-char-template-57354" transform="scale(0.00048828125,-0.00048828125)">
   <path d="M 8,1128 L 1137,1128 1137,0 8,0 8,1128 Z"/>
  </g>
  <g id="bullet-char-template-10146" transform="scale(0.00048828125,-0.00048828125)">
   <path d="M 174,0 L 602,739 174,1481 1456,739 174,0 Z M 1358,739 L 309,1346 659,739 1358,739 Z"/>
  </g>
  <g id="bullet-char-template-10132" transform="scale(0.00048828125,-0.00048828125)">
   <path d="M 2015,739 L 1276,0 717,0 1260,543 174,543 174,936 1260,936 717,1481 1274,1481 2015,739 Z"/>
  </g>
  <g id="bullet-char-template-10007" transform="scale(0.00048828125,-0.00048828125)">
   <path d="M 0,-2 C -7,14 -16,27 -25,37 L 356,567 C 262,823 215,952 215,954 215,979 228,992 255,992 264,992 276,990 289,987 310,991 331,999 354,1012 L 381,999 492,748 772,1049 836,1024 860,1049 C 881,1039 901,1025 922,1006 886,937 835,863 770,784 769,783 710,716 594,584 L 774,223 C 774,196 753,168 711,139 L 727,119 C 717,90 699,76 672,76 641,76 570,178 457,381 L 164,-76 C 142,-110 111,-127 72,-127 30,-127 9,-110 8,-76 1,-67 -2,-52 -2,-32 -2,-23 -1,-13 0,-2 Z"/>
  </g>
  <g id="bullet-char-template-10004" transform="scale(0.00048828125,-0.00048828125)">
   <path d="M 285,-33 C 182,-33 111,30 74,156 52,228 41,333 41,471 41,549 55,616 82,672 116,743 169,778 240,778 293,778 328,747 346,684 L 369,508 C 377,444 397,411 428,410 L 1163,1116 C 1174,1127 1196,1133 1229,1133 1271,1133 1292,1118 1292,1087 L 1292,965 C 1292,929 1282,901 1262,881 L 442,47 C 390,-6 338,-33 285,-33 Z"/>
  </g>
  <g id="bullet-char-template-9679" transform="scale(0.00048828125,-0.00048828125)">
   <path d="M 813,0 C 632,0 489,54 383,161 276,268 223,411 223,592 223,773 276,916 383,1023 489,1130 632,1184 813,1184 992,1184 1136,1130 1245,1023 1353,916 1407,772 1407,592 1407,412 1353,268 1245,161 1136,54 992,0 813,0 Z"/>
  </g>
  <g id="bullet-char-template-8226" transform="scale(0.00048828125,-0.00048828125)">
   <path d="M 346,457 C 273,457 209,483 155,535 101,586 74,649 74,723 74,796 101,859 155,911 209,963 273,989 346,989 419,989 480,963 531,910 582,859 608,796 608,723 608,648 583,586 532,535 482,483 420,457 346,457 Z"/>
  </g>
  <g id="bullet-char-template-8211" transform="scale(0.00048828125,-0.00048828125)">
   <path d="M -4,459 L 1135,459 1135,606 -4,606 -4,459 Z"/>
  </g>
  <g id="bullet-char-template-61548" transform="scale(0.00048828125,-0.00048828125)">
   <path d="M 173,740 C 173,903 231,1043 346,1159 462,1274 601,1332 765,1332 928,1332 1067,1274 1183,1159 1299,1043 1357,903 1357,740 1357,577 1299,437 1183,322 1067,206 928,148 765,148 601,148 462,206 346,322 231,437 173,577 173,740 Z"/>
  </g>
 </defs>
 <g>
  <g id="id2" class="Master_Slide">
   <g id="bg-id2" class="Background"/>
   <g id="bo-id2" class="BackgroundObjects"/>
  </g>
 </g>
 <g class="SlideGroup">
  <g>
   <g id="container-id1">
    <g id="id1" class="Slide" clip-path="url(#presentation_clip_path)">
     <g class="Page">
      <g class="Graphic">
       <g id="id3">
        <rect class="BoundingBox" stroke="none" fill="none" x="8111" y="11654" width="5368" height="4631"/>
        <defs>
         <clipPath id="clip_path_1" clipPathUnits="userSpaceOnUse">
          <path d="M 8111,11654 L 13478,11654 13478,16284 8111,16284 8111,11654 Z "/>
         </clipPath>
        </defs>
        <g clip-path="url(#clip_path_1)">
         <path fill="rgb(255,255,255)" stroke="none" d="M 8119,11646 L 13461,11646 13461,16276 8119,16276 8119,11646 Z "/>
         <path fill="none" stroke="rgb(255,255,255)" stroke-width="25" stroke-linejoin="round" stroke-linecap="round" d="M 8119,11646 L 13461,11646 13461,16276 8119,16276 8119,11646 Z "/>
         <path fill="none" stroke="rgb(0,0,0)" stroke-width="25" stroke-linejoin="round" stroke-linecap="round" d="M 9229,11815 L 9229,12094 9229,12094 "/>
         <path fill="none" stroke="rgb(0,0,0)" stroke-width="25" stroke-linejoin="round" stroke-linecap="round" d="M 9229,12154 L 9229,12162 9229,12162 "/>
         <path fill="none" stroke="rgb(0,0,0)" stroke-width="25" stroke-linejoin="round" stroke-linecap="round" d="M 9229,12213 L 9229,12670 9229,12670 "/>
         <path fill="none" stroke="rgb(0,0,0)" stroke-width="25" stroke-linejoin="round" stroke-linecap="round" d="M 9229,12729 L 9229,12738 9229,12738 "/>
         <path fill="none" stroke="rgb(0,0,0)" stroke-width="25" stroke-linejoin="round" stroke-linecap="round" d="M 9229,12797 L 9229,13254 9229,13254 "/>
         <path fill="none" stroke="rgb(0,0,0)" stroke-width="25" stroke-linejoin="round" stroke-linecap="round" d="M 9229,13305 L 9229,13313 9229,13313 "/>
         <path fill="none" stroke="rgb(0,0,0)" stroke-width="25" stroke-linejoin="round" stroke-linecap="round" d="M 9229,13373 L 9229,13830 9229,13830 "/>
         <path fill="none" stroke="rgb(0,0,0)" stroke-width="25" stroke-linejoin="round" stroke-linecap="round" d="M 9229,13889 L 9229,13898 9229,13898 "/>
         <path fill="none" stroke="rgb(0,0,0)" stroke-width="25" stroke-linejoin="round" stroke-linecap="round" d="M 9229,13957 L 9229,14406 9229,14406 "/>
         <path fill="none" stroke="rgb(0,0,0)" stroke-width="25" stroke-linejoin="round" stroke-linecap="round" d="M 9229,14465 L 9229,14473 9229,14473 "/>
         <path fill="none" stroke="rgb(0,0,0)" stroke-width="25" stroke-linejoin="round" stroke-linecap="round" d="M 9229,14533 L 9229,14812 9229,14812 "/>
         <path fill="none" stroke="rgb(0,0,0)" stroke-width="25" stroke-linejoin="round" stroke-linecap="round" d="M 8805,14160 L 9644,14160 9644,14160 "/>
         <path fill="none" stroke="rgb(0,0,0)" stroke-width="25" stroke-linejoin="round" stroke-linecap="round" d="M 9644,14160 L 9644,13398 9644,13398 "/>
         <path fill="none" stroke="rgb(0,0,0)" stroke-width="25" stroke-linejoin="round" stroke-linecap="round" d="M 8805,13398 L 8941,13533 9127,13618 9322,13618 9508,13533 9644,13398 9644,13398 "/>
         <path fill="none" stroke="rgb(0,0,0)" stroke-width="25" stroke-linejoin="round" stroke-linecap="round" d="M 8805,13398 L 8805,14160 8805,14160 "/>
         <path fill="none" stroke="rgb(0,0,0)" stroke-width="25" stroke-linejoin="round" stroke-linecap="round" d="M 9229,11815 L 9229,12094 9229,12094 "/>
         <path fill="none" stroke="rgb(0,0,0)" stroke-width="25" stroke-linejoin="round" stroke-linecap="round" d="M 9229,12154 L 9229,12162 9229,12162 "/>
         <path fill="none" stroke="rgb(0,0,0)" stroke-width="25" stroke-linejoin="round" stroke-linecap="round" d="M 9229,12213 L 9229,12670 9229,12670 "/>
         <path fill="none" stroke="rgb(0,0,0)" stroke-width="25" stroke-linejoin="round" stroke-linecap="round" d="M 9229,12729 L 9229,12738 9229,12738 "/>
         <path fill="none" stroke="rgb(0,0,0)" stroke-width="25" stroke-linejoin="round" stroke-linecap="round" d="M 9229,12797 L 9229,13254 9229,13254 "/>
         <path fill="none" stroke="rgb(0,0,0)" stroke-width="25" stroke-linejoin="round" stroke-linecap="round" d="M 9229,13305 L 9229,13313 9229,13313 "/>
         <path fill="none" stroke="rgb(0,0,0)" stroke-width="25" stroke-linejoin="round" stroke-linecap="round" d="M 9229,13373 L 9229,13830 9229,13830 "/>
         <path fill="none" stroke="rgb(0,0,0)" stroke-width="25" stroke-linejoin="round" stroke-linecap="round" d="M 9229,13889 L 9229,13898 9229,13898 "/>
         <path fill="none" stroke="rgb(0,0,0)" stroke-width="25" stroke-linejoin="round" stroke-linecap="round" d="M 9229,13957 L 9229,14406 9229,14406 "/>
         <path fill="none" stroke="rgb(0,0,0)" stroke-width="25" stroke-linejoin="round" stroke-linecap="round" d="M 9229,14465 L 9229,14473 9229,14473 "/>
         <path fill="none" stroke="rgb(0,0,0)" stroke-width="25" stroke-linejoin="round" stroke-linecap="round" d="M 9229,14533 L 9229,14812 9229,14812 "/>
         <path fill="none" stroke="rgb(0,0,0)" stroke-width="25" stroke-linejoin="round" stroke-linecap="round" d="M 9644,12374 L 9644,12560 9644,12560 "/>
         <path fill="none" stroke="rgb(0,0,0)" stroke-width="25" stroke-linejoin="round" stroke-linecap="round" d="M 9644,12560 L 9288,13169 9288,13169 "/>
         <path fill="none" stroke="rgb(0,0,0)" stroke-width="25" stroke-linejoin="round" stroke-linecap="round" d="M 9161,13169 L 9195,13203 9254,13203 9288,13169 9288,13169 "/>
         <path fill="none" stroke="rgb(0,0,0)" stroke-width="25" stroke-linejoin="round" stroke-linecap="round" d="M 9161,13169 L 8805,12560 8805,12560 "/>
         <path fill="none" stroke="rgb(0,0,0)" stroke-width="25" stroke-linejoin="round" stroke-linecap="round" d="M 8805,12560 L 8805,12374 8805,12374 "/>
         <path fill="none" stroke="rgb(0,0,0)" stroke-width="25" stroke-linejoin="round" stroke-linecap="round" d="M 8805,12374 L 9644,12374 9644,12374 "/>
         <path fill="none" stroke="rgb(0,0,0)" stroke-width="25" stroke-linejoin="round" stroke-linecap="round" d="M 12065,11815 L 12065,12094 12073,12094 "/>
         <path fill="none" stroke="rgb(0,0,0)" stroke-width="25" stroke-linejoin="round" stroke-linecap="round" d="M 12065,12154 L 12065,12162 12073,12162 "/>
         <path fill="none" stroke="rgb(0,0,0)" stroke-width="25" stroke-linejoin="round" stroke-linecap="round" d="M 12065,12213 L 12065,12670 12073,12670 "/>
         <path fill="none" stroke="rgb(0,0,0)" stroke-width="25" stroke-linejoin="round" stroke-linecap="round" d="M 12065,12729 L 12065,12738 12073,12738 "/>
         <path fill="none" stroke="rgb(0,0,0)" stroke-width="25" stroke-linejoin="round" stroke-linecap="round" d="M 12065,12797 L 12065,13254 12073,13254 "/>
         <path fill="none" stroke="rgb(0,0,0)" stroke-width="25" stroke-linejoin="round" stroke-linecap="round" d="M 12065,13305 L 12065,13313 12073,13313 "/>
         <path fill="none" stroke="rgb(0,0,0)" stroke-width="25" stroke-linejoin="round" stroke-linecap="round" d="M 12065,13373 L 12065,13830 12073,13830 "/>
         <path fill="none" stroke="rgb(0,0,0)" stroke-width="25" stroke-linejoin="round" stroke-linecap="round" d="M 12065,13889 L 12065,13898 12073,13898 "/>
         <path fill="none" stroke="rgb(0,0,0)" stroke-width="25" stroke-linejoin="round" stroke-linecap="round" d="M 12065,13957 L 12065,14406 12073,14406 "/>
         <path fill="none" stroke="rgb(0,0,0)" stroke-width="25" stroke-linejoin="round" stroke-linecap="round" d="M 12065,14465 L 12065,14473 12073,14473 "/>
         <path fill="none" stroke="rgb(0,0,0)" stroke-width="25" stroke-linejoin="round" stroke-linecap="round" d="M 12065,14533 L 12065,14812 12073,14812 "/>
         <path fill="none" stroke="rgb(0,0,0)" stroke-width="25" stroke-linejoin="round" stroke-linecap="round" d="M 9212,15591 L 9398,15565 9576,15498 9720,15379 9720,15379 "/>
         <path fill="none" stroke="rgb(0,0,0)" stroke-width="25" stroke-linejoin="round" stroke-linecap="round" d="M 10228,15176 L 9948,15227 9720,15379 9720,15379 "/>
         <path fill="none" stroke="rgb(0,0,0)" stroke-width="25" stroke-linejoin="round" stroke-linecap="round" d="M 10228,15176 L 12023,15176 12023,15176 "/>
         <path fill="none" stroke="rgb(0,0,0)" stroke-width="25" stroke-linejoin="round" stroke-linecap="round" d="M 12014,15176 L 12065,15176 12065,15176 "/>
         <path fill="none" stroke="rgb(0,0,0)" stroke-width="25" stroke-linejoin="round" stroke-linecap="round" d="M 9212,15591 L 8323,15591 8323,15591 "/>
         <path fill="none" stroke="rgb(0,0,0)" stroke-width="25" stroke-linejoin="round" stroke-linecap="round" d="M 9720,15802 L 9576,15684 9398,15616 9212,15591 9212,15591 "/>
         <path fill="none" stroke="rgb(0,0,0)" stroke-width="25" stroke-linejoin="round" stroke-linecap="round" d="M 9720,15802 L 9948,15955 10228,16006 10228,16006 "/>
         <path fill="none" stroke="rgb(0,0,0)" stroke-width="25" stroke-linejoin="round" stroke-linecap="round" d="M 10228,15853 L 10287,15785 10287,15785 "/>
         <path fill="none" stroke="rgb(0,0,0)" stroke-width="25" stroke-linejoin="round" stroke-linecap="round" d="M 10228,15938 L 10304,15853 10304,15853 "/>
         <path fill="none" stroke="rgb(0,0,0)" stroke-width="25" stroke-linejoin="round" stroke-linecap="round" d="M 10228,16023 L 10304,15938 10304,15938 "/>
         <path fill="none" stroke="rgb(0,0,0)" stroke-width="25" stroke-linejoin="round" stroke-linecap="round" d="M 10228,16107 L 10304,16023 10304,16023 "/>
         <path fill="none" stroke="rgb(0,0,0)" stroke-width="25" stroke-linejoin="round" stroke-linecap="round" d="M 10228,16192 L 10304,16107 10304,16107 "/>
         <path fill="none" stroke="rgb(0,0,0)" stroke-width="25" stroke-linejoin="round" stroke-linecap="round" d="M 10270,16234 L 10304,16192 10304,16192 "/>
         <path fill="none" stroke="rgb(0,0,0)" stroke-width="25" stroke-linejoin="round" stroke-linecap="round" d="M 10228,15785 L 10228,16234 10304,16234 10304,15785 10228,15785 Z "/>
         <path fill="none" stroke="rgb(0,0,0)" stroke-width="25" stroke-linejoin="round" stroke-linecap="round" d="M 12065,15176 L 12251,15151 12421,15074 12573,14964 12573,14964 "/>
         <path fill="none" stroke="rgb(0,0,0)" stroke-width="25" stroke-linejoin="round" stroke-linecap="round" d="M 13073,14753 L 12802,14812 12573,14964 12573,14964 "/>
         <path fill="rgb(0,0,0)" stroke="none" d="M 13149,14753 L 13132,14702 13073,14753 13149,14753 Z "/>
         <path fill="none" stroke="rgb(0,0,0)" stroke-width="25" stroke-linejoin="round" stroke-linecap="round" d="M 13149,14753 L 13132,14702 13073,14753 13149,14753 Z "/>
         <path fill="none" stroke="rgb(0,0,0)" stroke-width="25" stroke-linejoin="round" stroke-linecap="round" d="M 13149,14753 L 13132,14702 13073,14753 13149,14753 Z "/>
         <path fill="rgb(0,0,0)" stroke="none" d="M 13132,14702 L 13073,14676 13073,14753 13132,14702 Z "/>
         <path fill="none" stroke="rgb(0,0,0)" stroke-width="25" stroke-linejoin="round" stroke-linecap="round" d="M 13132,14702 L 13073,14676 13073,14753 13132,14702 Z "/>
         <path fill="none" stroke="rgb(0,0,0)" stroke-width="25" stroke-linejoin="round" stroke-linecap="round" d="M 13132,14702 L 13073,14676 13073,14753 13132,14702 Z "/>
         <path fill="rgb(0,0,0)" stroke="none" d="M 13073,14676 L 13022,14702 13073,14753 13073,14676 Z "/>
         <path fill="none" stroke="rgb(0,0,0)" stroke-width="25" stroke-linejoin="round" stroke-linecap="round" d="M 13073,14676 L 13022,14702 13073,14753 13073,14676 Z "/>
         <path fill="none" stroke="rgb(0,0,0)" stroke-width="25" stroke-linejoin="round" stroke-linecap="round" d="M 13073,14676 L 13022,14702 13073,14753 13073,14676 Z "/>
         <path fill="rgb(0,0,0)" stroke="none" d="M 13022,14702 L 12996,14753 13073,14753 13022,14702 Z "/>
         <path fill="none" stroke="rgb(0,0,0)" stroke-width="25" stroke-linejoin="round" stroke-linecap="round" d="M 13022,14702 L 12996,14753 13073,14753 13022,14702 Z "/>
         <path fill="none" stroke="rgb(0,0,0)" stroke-width="25" stroke-linejoin="round" stroke-linecap="round" d="M 13022,14702 L 12996,14753 13073,14753 13022,14702 Z "/>
         <path fill="rgb(0,0,0)" stroke="none" d="M 12996,14753 L 13022,14812 13073,14753 12996,14753 Z "/>
         <path fill="none" stroke="rgb(0,0,0)" stroke-width="25" stroke-linejoin="round" stroke-linecap="round" d="M 12996,14753 L 13022,14812 13073,14753 12996,14753 Z "/>
         <path fill="none" stroke="rgb(0,0,0)" stroke-width="25" stroke-linejoin="round" stroke-linecap="round" d="M 12996,14753 L 13022,14812 13073,14753 12996,14753 Z "/>
         <path fill="rgb(0,0,0)" stroke="none" d="M 13022,14812 L 13073,14837 13073,14753 13022,14812 Z "/>
         <path fill="none" stroke="rgb(0,0,0)" stroke-width="25" stroke-linejoin="round" stroke-linecap="round" d="M 13022,14812 L 13073,14837 13073,14753 13022,14812 Z "/>
         <path fill="none" stroke="rgb(0,0,0)" stroke-width="25" stroke-linejoin="round" stroke-linecap="round" d="M 13022,14812 L 13073,14837 13073,14753 13022,14812 Z "/>
         <path fill="rgb(0,0,0)" stroke="none" d="M 13073,14837 L 13132,14812 13073,14753 13073,14837 Z "/>
         <path fill="none" stroke="rgb(0,0,0)" stroke-width="25" stroke-linejoin="round" stroke-linecap="round" d="M 13073,14837 L 13132,14812 13073,14753 13073,14837 Z "/>
         <path fill="none" stroke="rgb(0,0,0)" stroke-width="25" stroke-linejoin="round" stroke-linecap="round" d="M 13073,14837 L 13132,14812 13073,14753 13073,14837 Z "/>
         <path fill="rgb(0,0,0)" stroke="none" d="M 13132,14812 L 13149,14753 13073,14753 13132,14812 Z "/>
         <path fill="none" stroke="rgb(0,0,0)" stroke-width="25" stroke-linejoin="round" stroke-linecap="round" d="M 13132,14812 L 13149,14753 13073,14753 13132,14812 Z "/>
         <path fill="none" stroke="rgb(0,0,0)" stroke-width="25" stroke-linejoin="round" stroke-linecap="round" d="M 13132,14812 L 13149,14753 13073,14753 13132,14812 Z "/>
         <path fill="none" stroke="rgb(0,0,0)" stroke-width="25" stroke-linejoin="round" stroke-linecap="round" d="M 12488,12374 L 12488,12560 12488,12560 "/>
         <path fill="none" stroke="rgb(0,0,0)" stroke-width="25" stroke-linejoin="round" stroke-linecap="round" d="M 12488,12560 L 12133,13169 12133,13169 "/>
         <path fill="none" stroke="rgb(0,0,0)" stroke-width="25" stroke-linejoin="round" stroke-linecap="round" d="M 12006,13169 L 12040,13203 12099,13203 12133,13169 12133,13169 "/>
         <path fill="none" stroke="rgb(0,0,0)" stroke-width="25" stroke-linejoin="round" stroke-linecap="round" d="M 12006,13169 L 11650,12560 11650,12560 "/>
         <path fill="none" stroke="rgb(0,0,0)" stroke-width="25" stroke-linejoin="round" stroke-linecap="round" d="M 11650,12560 L 11650,12374 11650,12374 "/>
         <path fill="none" stroke="rgb(0,0,0)" stroke-width="25" stroke-linejoin="round" stroke-linecap="round" d="M 11650,12374 L 12488,12374 12488,12374 "/>
         <path fill="none" stroke="rgb(0,0,0)" stroke-width="25" stroke-linejoin="round" stroke-linecap="round" d="M 11650,14160 L 12488,14160 12488,14160 "/>
         <path fill="none" stroke="rgb(0,0,0)" stroke-width="25" stroke-linejoin="round" stroke-linecap="round" d="M 12488,14160 L 12488,13398 12488,13398 "/>
         <path fill="none" stroke="rgb(0,0,0)" stroke-width="25" stroke-linejoin="round" stroke-linecap="round" d="M 11650,13398 L 11786,13533 11972,13618 12167,13618 12344,13533 12488,13398 12488,13398 "/>
         <path fill="none" stroke="rgb(0,0,0)" stroke-width="25" stroke-linejoin="round" stroke-linecap="round" d="M 11650,13398 L 11650,14160 11650,14160 "/>
        </g>
       </g>
      </g>
     </g>
    </g>
   </g>
  </g>
 </g>
</svg>