<?xml version="1.0" encoding="UTF-8"?>
<!DOCTYPE svg PUBLIC "-//W3C//DTD SVG 1.1//EN" "http://www.w3.org/Graphics/SVG/1.1/DTD/svg11.dtd">
<svg version="1.2" width="171.700mm" height="85.430mm" viewBox="2210 9698 17170 8543" preserveAspectRatio="xMidYMid" fill-rule="evenodd" stroke-width="28.222" stroke-linejoin="round" xmlns="http://www.w3.org/2000/svg" xmlns:ooo="http://xml.openoffice.org/svg/export" xmlns:xlink="http://www.w3.org/1999/xlink" xmlns:presentation="http://sun.com/xmlns/staroffice/presentation" xmlns:smil="http://www.w3.org/2001/SMIL20/" xmlns:anim="urn:oasis:names:tc:opendocument:xmlns:animation:1.0" xmlns:svg="urn:oasis:names:tc:opendocument:xmlns:svg-compatible:1.0" xml:space="preserve">
 <defs class="ClipPathGroup">
  <clipPath id="presentation_clip_path" clipPathUnits="userSpaceOnUse">
   <rect x="0" y="0" width="21590" height="27940"/>
  </clipPath>
  <clipPath id="presentation_clip_path_shrink" clipPathUnits="userSpaceOnUse">
   <rect x="21" y="27" width="21547" height="27885"/>
  </clipPath>
 </defs>
 <defs class="TextShapeIndex">
  <g ooo:slide="id1" ooo:id-list="id3"/>
 </defs>
 <defs class="EmbeddedBulletChars">
  <g id="bullet-char-template-57356" transform="scale(0.00048828125,-0.00048828125)">
   <path d="M 580,1141 L 1163,571 580,0 -4,571 580,1141 Z"/>
  </g>
  <g id="bullet-char-template-57354" transform="scale(0.00048828125,-0.00048828125)">
   <path d="M 8,1128 L 1137,1128 1137,0 8,0 8,1128 Z"/>
  </g>
  <g id="bullet-char-template-10146" transform="scale(0.00048828125,-0.00048828125)">
   <path d="M 174,0 L 602,739 174,1481 1456,739 174,0 Z M 1358,739 L 309,1346 659,739 1358,739 Z"/>
  </g>
  <g id="bullet-char-template-10132" transform="scale(0.00048828125,-0.00048828125)">
   <path d="M 2015,739 L 1276,0 717,0 1260,543 174,543 174,936 1260,936 717,1481 1274,1481 2015,739 Z"/>
  </g>
  <g id="bullet-char-template-10007" transform="scale(0.00048828125,-0.00048828125)">
   <path d="M 0,-2 C -7,14 -16,27 -25,37 L 356,567 C 262,823 215,952 215,954 215,979 228,992 255,992 264,992 276,990 289,987 310,991 331,999 354,1012 L 381,999 492,748 772,1049 836,1024 860,1049 C 881,1039 901,1025 922,1006 886,937 835,863 770,784 769,783 710,716 594,584 L 774,223 C 774,196 753,168 711,139 L 727,119 C 717,90 699,76 672,76 641,76 570,178 457,381 L 164,-76 C 142,-110 111,-127 72,-127 30,-127 9,-110 8,-76 1,-67 -2,-52 -2,-32 -2,-23 -1,-13 0,-2 Z"/>
  </g>
  <g id="bullet-char-template-10004" transform="scale(0.00048828125,-0.00048828125)">
   <path d="M 285,-33 C 182,-33 111,30 74,156 52,228 41,333 41,471 41,549 55,616 82,672 116,743 169,778 240,778 293,778 328,747 346,684 L 369,508 C 377,444 397,411 428,410 L 1163,1116 C 1174,1127 1196,1133 1229,1133 1271,1133 1292,1118 1292,1087 L 1292,965 C 1292,929 1282,901 1262,881 L 442,47 C 390,-6 338,-33 285,-33 Z"/>
  </g>
  <g id="bullet-char-template-9679" transform="scale(0.00048828125,-0.00048828125)">
   <path d="M 813,0 C 632,0 489,54 383,161 276,268 223,411 223,592 223,773 276,916 383,1023 489,1130 632,1184 813,1184 992,1184 1136,1130 1245,1023 1353,916 1407,772 1407,592 1407,412 1353,268 1245,161 1136,54 992,0 813,0 Z"/>
  </g>
  <g id="bullet-char-template-8226" transform="scale(0.00048828125,-0.00048828125)">
   <path d="M 346,457 C 273,457 209,483 155,535 101,586 74,649 74,723 74,796 101,859 155,911 209,963 273,989 346,989 419,989 480,963 531,910 582,859 608,796 608,723 608,648 583,586 532,535 482,483 420,457 346,457 Z"/>
  </g>
  <g id="bullet-char-template-8211" transform="scale(0.00048828125,-0.00048828125)">
   <path d="M -4,459 L 1135,459 1135,606 -4,606 -4,459 Z"/>
  </g>
  <g id="bullet-char-template-61548" transform="scale(0.00048828125,-0.00048828125)">
   <path d="M 173,740 C 173,903 231,1043 346,1159 462,1274 601,1332 765,1332 928,1332 1067,1274 1183,1159 1299,1043 1357,903 1357,740 1357,577 1299,437 1183,322 1067,206 928,148 765,148 601,148 462,206 346,322 231,437 173,577 173,740 Z"/>
  </g>
 </defs>
 <g>
  <g id="id2" class="Master_Slide">
   <g id="bg-id2" class="Background"/>
   <g id="bo-id2" class="BackgroundObjects"/>
  </g>
 </g>
 <g class="SlideGroup">
  <g>
   <g id="container-id1">
    <g id="id1" class="Slide" clip-path="url(#presentation_clip_path)">
     <g class="Page">
      <g class="Graphic">
       <g id="id3">
        <rect class="BoundingBox" stroke="none" fill="none" x="2210" y="9698" width="17170" height="8543"/>
        <defs>
         <clipPath id="clip_path_1" clipPathUnits="userSpaceOnUse">
          <path d="M 2210,9698 L 19379,9698 19379,18240 2210,18240 2210,9698 Z "/>
         </clipPath>
        </defs>
        <g clip-path="url(#clip_path_1)">
         <path fill="rgb(255,255,255)" stroke="none" d="M 2218,9706 L 19362,9706 19362,18231 2218,18231 2218,9706 Z "/>
         <path fill="none" stroke="rgb(255,255,255)" stroke-width="34" stroke-linejoin="round" stroke-linecap="round" d="M 2218,9706 L 19362,9706 19362,18231 2218,18231 2218,9706 Z "/>
         <path fill="none" stroke="rgb(0,0,0)" stroke-width="34" stroke-linejoin="round" stroke-linecap="round" d="M 3429,13559 L 5106,13559 5106,13559 "/>
         <path fill="none" stroke="rgb(0,0,0)" stroke-width="34" stroke-linejoin="round" stroke-linecap="round" d="M 5106,13550 L 5106,12026 5106,12026 "/>
         <path fill="none" stroke="rgb(0,0,0)" stroke-width="34" stroke-linejoin="round" stroke-linecap="round" d="M 3429,12026 L 3649,12272 3937,12433 4267,12492 4589,12433 4885,12272 5106,12026 5106,12026 "/>
         <path fill="none" stroke="rgb(0,0,0)" stroke-width="34" stroke-linejoin="round" stroke-linecap="round" d="M 3429,12026 L 3429,13550 3429,13550 "/>
         <path fill="none" stroke="rgb(0,0,0)" stroke-width="34" stroke-linejoin="round" stroke-linecap="round" d="M 5106,9977 L 5106,10350 5106,10350 "/>
         <path fill="none" stroke="rgb(0,0,0)" stroke-width="34" stroke-linejoin="round" stroke-linecap="round" d="M 5106,10350 L 4394,11578 4394,11578 "/>
         <path fill="none" stroke="rgb(0,0,0)" stroke-width="34" stroke-linejoin="round" stroke-linecap="round" d="M 4132,11578 L 4217,11645 4318,11645 4394,11578 4403,11578 "/>
         <path fill="none" stroke="rgb(0,0,0)" stroke-width="34" stroke-linejoin="round" stroke-linecap="round" d="M 4132,11578 L 3429,10350 3429,10350 "/>
         <path fill="none" stroke="rgb(0,0,0)" stroke-width="34" stroke-linejoin="round" stroke-linecap="round" d="M 3429,10350 L 3429,9977 3429,9977 "/>
         <path fill="none" stroke="rgb(0,0,0)" stroke-width="34" stroke-linejoin="round" stroke-linecap="round" d="M 3429,9977 L 5106,9977 5106,9977 "/>
         <path fill="none" stroke="rgb(0,0,0)" stroke-width="34" stroke-linejoin="round" stroke-linecap="round" d="M 4250,16429 L 4614,16387 4962,16243 5258,16014 5258,16014 "/>
         <path fill="none" stroke="rgb(0,0,0)" stroke-width="34" stroke-linejoin="round" stroke-linecap="round" d="M 6274,15591 L 5901,15642 5554,15786 5258,16014 5258,16014 "/>
         <path fill="none" stroke="rgb(0,0,0)" stroke-width="34" stroke-linejoin="round" stroke-linecap="round" d="M 6274,15599 L 8729,15599 8729,15599 "/>
         <path fill="none" stroke="rgb(0,0,0)" stroke-width="34" stroke-linejoin="round" stroke-linecap="round" d="M 8729,15599 L 8822,15599 8822,15599 "/>
         <path fill="none" stroke="rgb(0,0,0)" stroke-width="34" stroke-linejoin="round" stroke-linecap="round" d="M 4250,16438 L 2447,16438 2447,16438 "/>
         <path fill="none" stroke="rgb(0,0,0)" stroke-width="34" stroke-linejoin="round" stroke-linecap="round" d="M 5258,16852 L 4962,16624 4614,16480 4250,16429 4250,16429 "/>
         <path fill="none" stroke="rgb(0,0,0)" stroke-width="34" stroke-linejoin="round" stroke-linecap="round" d="M 5258,16852 L 5554,17081 5901,17225 6274,17267 6274,17267 "/>
         <path fill="none" stroke="rgb(0,0,0)" stroke-width="34" stroke-linejoin="round" stroke-linecap="round" d="M 6274,16954 L 6401,16827 6401,16827 "/>
         <path fill="none" stroke="rgb(0,0,0)" stroke-width="34" stroke-linejoin="round" stroke-linecap="round" d="M 6274,17132 L 6435,16963 6435,16963 "/>
         <path fill="none" stroke="rgb(0,0,0)" stroke-width="34" stroke-linejoin="round" stroke-linecap="round" d="M 6274,17301 L 6435,17132 6435,17132 "/>
         <path fill="none" stroke="rgb(0,0,0)" stroke-width="34" stroke-linejoin="round" stroke-linecap="round" d="M 6274,17471 L 6435,17301 6435,17301 "/>
         <path fill="none" stroke="rgb(0,0,0)" stroke-width="34" stroke-linejoin="round" stroke-linecap="round" d="M 6274,17640 L 6435,17471 6435,17471 "/>
         <path fill="none" stroke="rgb(0,0,0)" stroke-width="34" stroke-linejoin="round" stroke-linecap="round" d="M 6367,17716 L 6435,17648 6435,17648 "/>
         <path fill="none" stroke="rgb(0,0,0)" stroke-width="34" stroke-linejoin="round" stroke-linecap="round" d="M 6274,16827 L 6274,17716 6435,17716 6435,16827 6274,16827 Z "/>
         <path fill="none" stroke="rgb(0,0,0)" stroke-width="34" stroke-linejoin="round" stroke-linecap="round" d="M 8822,15591 L 9373,15489 9838,15176 9838,15176 "/>
         <path fill="none" stroke="rgb(0,0,0)" stroke-width="34" stroke-linejoin="round" stroke-linecap="round" d="M 10846,14753 L 10304,14863 9838,15176 9838,15176 "/>
         <path fill="none" stroke="rgb(0,0,0)" stroke-width="34" stroke-linejoin="round" stroke-linecap="round" d="M 7883,11230 L 8255,11230 8255,11230 "/>
         <path fill="none" stroke="rgb(0,0,0)" stroke-width="34" stroke-linejoin="round" stroke-linecap="round" d="M 8255,11230 L 9474,11942 9474,11942 "/>
         <path fill="none" stroke="rgb(0,0,0)" stroke-width="34" stroke-linejoin="round" stroke-linecap="round" d="M 9474,12204 L 9542,12120 9542,12018 9474,11942 9474,11942 "/>
         <path fill="none" stroke="rgb(0,0,0)" stroke-width="34" stroke-linejoin="round" stroke-linecap="round" d="M 9474,12204 L 8255,12907 8255,12907 "/>
         <path fill="none" stroke="rgb(0,0,0)" stroke-width="34" stroke-linejoin="round" stroke-linecap="round" d="M 8255,12907 L 7883,12907 7883,12907 "/>
         <path fill="none" stroke="rgb(0,0,0)" stroke-width="34" stroke-linejoin="round" stroke-linecap="round" d="M 7883,12907 L 7883,11230 7883,11230 "/>
         <path fill="none" stroke="rgb(0,0,0)" stroke-width="34" stroke-linejoin="round" stroke-linecap="round" d="M 11455,12907 L 11455,11230 11455,11230 "/>
         <path fill="none" stroke="rgb(0,0,0)" stroke-width="34" stroke-linejoin="round" stroke-linecap="round" d="M 11455,11230 L 9923,11230 9931,11230 "/>
         <path fill="none" stroke="rgb(0,0,0)" stroke-width="34" stroke-linejoin="round" stroke-linecap="round" d="M 9923,12907 L 10211,12636 10372,12272 10372,11874 10211,11510 9923,11230 9931,11230 "/>
         <path fill="none" stroke="rgb(0,0,0)" stroke-width="34" stroke-linejoin="round" stroke-linecap="round" d="M 9923,12907 L 11455,12907 11455,12907 "/>
         <path fill="none" stroke="rgb(0,0,0)" stroke-width="34" stroke-linejoin="round" stroke-linecap="round" d="M 13589,11798 L 13961,11798 13961,11798 "/>
         <path fill="none" stroke="rgb(0,0,0)" stroke-width="34" stroke-linejoin="round" stroke-linecap="round" d="M 13961,11798 L 15181,12501 15181,12501 "/>
         <path fill="none" stroke="rgb(0,0,0)" stroke-width="34" stroke-linejoin="round" stroke-linecap="round" d="M 15181,12763 L 15248,12687 15248,12585 15181,12501 15181,12501 "/>
         <path fill="none" stroke="rgb(0,0,0)" stroke-width="34" stroke-linejoin="round" stroke-linecap="round" d="M 15181,12763 L 13961,13474 13961,13474 "/>
         <path fill="none" stroke="rgb(0,0,0)" stroke-width="34" stroke-linejoin="round" stroke-linecap="round" d="M 13961,13474 L 13589,13474 13589,13474 "/>
         <path fill="none" stroke="rgb(0,0,0)" stroke-width="34" stroke-linejoin="round" stroke-linecap="round" d="M 13589,13474 L 13589,11798 13589,11798 "/>
         <path fill="none" stroke="rgb(0,0,0)" stroke-width="34" stroke-linejoin="round" stroke-linecap="round" d="M 17162,13474 L 17162,11798 17162,11798 "/>
         <path fill="none" stroke="rgb(0,0,0)" stroke-width="34" stroke-linejoin="round" stroke-linecap="round" d="M 17162,11798 L 15629,11798 15638,11798 "/>
         <path fill="none" stroke="rgb(0,0,0)" stroke-width="34" stroke-linejoin="round" stroke-linecap="round" d="M 15629,13474 L 15883,13254 16036,12958 16095,12636 16036,12306 15883,12018 15629,11798 15638,11798 "/>
         <path fill="none" stroke="rgb(0,0,0)" stroke-width="34" stroke-linejoin="round" stroke-linecap="round" d="M 15629,13474 L 17162,13474 17162,13474 "/>
         <path fill="none" stroke="rgb(0,0,0)" stroke-width="34" stroke-linejoin="round" stroke-linecap="round" d="M 14097,11874 L 14097,10663 14469,10663 15689,11366 15689,11366 "/>
         <path fill="none" stroke="rgb(0,0,0)" stroke-width="34" stroke-linejoin="round" stroke-linecap="round" d="M 15689,11637 L 15756,11552 15756,11451 15689,11366 15697,11366 "/>
         <path fill="none" stroke="rgb(0,0,0)" stroke-width="34" stroke-linejoin="round" stroke-linecap="round" d="M 15689,11637 L 14690,12213 14690,12213 "/>
         <path fill="none" stroke="rgb(0,0,0)" stroke-width="34" stroke-linejoin="round" stroke-linecap="round" d="M 17162,12340 L 17670,12340 17670,10663 16146,10663 16146,10663 "/>
         <path fill="none" stroke="rgb(0,0,0)" stroke-width="34" stroke-linejoin="round" stroke-linecap="round" d="M 16561,11798 L 16603,11476 16544,11154 16383,10875 16146,10663 16146,10663 "/>
         <path fill="none" stroke="rgb(0,0,0)" stroke-width="34" stroke-linejoin="round" stroke-linecap="round" d="M 10846,14753 L 14901,14753 14901,14753 "/>
         <path fill="none" stroke="rgb(0,0,0)" stroke-width="34" stroke-linejoin="round" stroke-linecap="round" d="M 15917,15176 L 16374,15489 16925,15591 16925,15591 "/>
         <path fill="none" stroke="rgb(0,0,0)" stroke-width="34" stroke-linejoin="round" stroke-linecap="round" d="M 17018,15599 L 16925,15599 16925,15599 "/>
         <path fill="none" stroke="rgb(0,0,0)" stroke-width="34" stroke-linejoin="round" stroke-linecap="round" d="M 15917,15176 L 15452,14863 14901,14753 14901,14753 "/>
         <path fill="none" stroke="rgb(0,0,0)" stroke-width="34" stroke-linejoin="round" stroke-linecap="round" d="M 16925,15591 L 16425,15667 15968,15870 15570,16184 15570,16184 "/>
         <path fill="none" stroke="rgb(0,0,0)" stroke-width="34" stroke-linejoin="round" stroke-linecap="round" d="M 14436,16759 L 15062,16582 15570,16184 15570,16184 "/>
         <path fill="none" stroke="rgb(0,0,0)" stroke-width="34" stroke-linejoin="round" stroke-linecap="round" d="M 14436,16759 L 11388,16759 11388,16759 "/>
         <path fill="none" stroke="rgb(0,0,0)" stroke-width="34" stroke-linejoin="round" stroke-linecap="round" d="M 10245,16184 L 10761,16582 11388,16759 11388,16759 "/>
         <path fill="none" stroke="rgb(0,0,0)" stroke-width="34" stroke-linejoin="round" stroke-linecap="round" d="M 10245,16184 L 9830,15870 9347,15667 8822,15591 8822,15591 "/>
         <path fill="none" stroke="rgb(0,0,0)" stroke-width="34" stroke-linejoin="round" stroke-linecap="round" d="M 16925,15599 L 18423,15599 18423,15599 "/>
         <path fill="rgb(0,0,0)" stroke="none" d="M 7425,10206 L 7417,10206 7408,10214 7408,10214 7417,10231 7612,10231 7620,10231 7629,10223 7629,10214 7620,10206 7425,10206 Z "/>
         <path fill="rgb(0,0,0)" stroke="none" d="M 7696,10206 L 7688,10206 7679,10214 7679,10223 7688,10231 7891,10231 7899,10231 7908,10223 7908,10214 7899,10206 7696,10206 Z "/>
         <path fill="rgb(0,0,0)" stroke="none" d="M 7976,10206 L 7967,10206 7959,10214 7959,10223 7967,10231 8170,10231 8179,10231 8187,10223 8187,10214 8179,10206 7976,10206 Z "/>
         <path fill="rgb(0,0,0)" stroke="none" d="M 8255,10206 L 8247,10206 8238,10214 8238,10223 8247,10231 8450,10231 8458,10231 8467,10223 8467,10214 8458,10206 8255,10206 Z "/>
         <path fill="rgb(0,0,0)" stroke="none" d="M 8534,10206 L 8526,10206 8518,10214 8518,10223 8526,10231 8729,10231 8738,10231 8746,10223 8746,10214 8738,10206 8534,10206 Z "/>
         <path fill="rgb(0,0,0)" stroke="none" d="M 8814,10206 L 8805,10206 8797,10214 8797,10223 8805,10231 9009,10231 9017,10231 9026,10223 9026,10214 9017,10206 8814,10206 Z "/>
         <path fill="rgb(0,0,0)" stroke="none" d="M 9093,10206 L 9085,10206 9076,10214 9076,10223 9085,10231 9288,10231 9296,10231 9305,10223 9305,10214 9296,10206 9093,10206 Z "/>
         <path fill="rgb(0,0,0)" stroke="none" d="M 9373,10206 L 9364,10206 9356,10214 9356,10223 9364,10231 9567,10231 9576,10231 9584,10223 9584,10214 9576,10206 9373,10206 Z "/>
         <path fill="rgb(0,0,0)" stroke="none" d="M 9652,10206 L 9644,10206 9635,10214 9635,10223 9644,10231 9847,10231 9855,10231 9864,10223 9864,10214 9855,10206 9652,10206 Z "/>
         <path fill="rgb(0,0,0)" stroke="none" d="M 9931,10206 L 9923,10206 9914,10214 9914,10223 9923,10231 10126,10231 10135,10231 10143,10223 10143,10214 10135,10206 9931,10206 Z "/>
         <path fill="rgb(0,0,0)" stroke="none" d="M 10211,10206 L 10202,10206 10194,10214 10194,10223 10202,10231 10406,10231 10414,10231 10422,10223 10422,10214 10414,10206 10211,10206 Z "/>
         <path fill="rgb(0,0,0)" stroke="none" d="M 10490,10206 L 10482,10206 10473,10214 10473,10223 10482,10231 10685,10231 10693,10231 10702,10223 10702,10214 10693,10206 10490,10206 Z "/>
         <path fill="rgb(0,0,0)" stroke="none" d="M 10770,10206 L 10761,10206 10753,10214 10753,10223 10761,10231 10964,10231 10973,10231 10981,10223 10981,10214 10973,10206 10770,10206 Z "/>
         <path fill="rgb(0,0,0)" stroke="none" d="M 11049,10206 L 11041,10206 11032,10214 11032,10223 11041,10231 11244,10231 11252,10231 11261,10223 11261,10214 11252,10206 11049,10206 Z "/>
         <path fill="rgb(0,0,0)" stroke="none" d="M 11328,10206 L 11320,10206 11311,10214 11311,10223 11320,10231 11523,10231 11532,10231 11540,10223 11540,10214 11532,10206 11328,10206 Z "/>
         <path fill="rgb(0,0,0)" stroke="none" d="M 11608,10206 L 11599,10206 11591,10214 11591,10223 11599,10231 11803,10231 11811,10231 11819,10223 11819,10214 11811,10206 11608,10206 Z "/>
         <path fill="rgb(0,0,0)" stroke="none" d="M 11887,10206 L 11879,10206 11870,10214 11870,10223 11879,10231 12082,10231 12090,10231 12099,10223 12099,10214 12090,10206 11887,10206 Z "/>
         <path fill="rgb(0,0,0)" stroke="none" d="M 12167,10206 L 12158,10206 12150,10214 12150,10223 12158,10231 12361,10231 12370,10231 12378,10223 12378,10214 12370,10206 12167,10206 Z "/>
         <path fill="rgb(0,0,0)" stroke="none" d="M 12446,10206 L 12437,10206 12429,10214 12429,10223 12437,10231 12641,10231 12649,10231 12658,10223 12658,10214 12649,10206 12446,10206 Z "/>
         <path fill="rgb(0,0,0)" stroke="none" d="M 12725,10206 L 12717,10206 12708,10214 12708,10223 12717,10231 12920,10231 12929,10231 12937,10223 12937,10214 12929,10206 12725,10206 Z "/>
         <path fill="rgb(0,0,0)" stroke="none" d="M 13005,10206 L 12996,10206 12988,10214 12988,10223 12996,10231 13199,10231 13208,10231 13216,10223 13216,10214 13208,10206 13005,10206 Z "/>
         <path fill="rgb(0,0,0)" stroke="none" d="M 13284,10206 L 13276,10206 13267,10214 13267,10223 13276,10231 13479,10231 13487,10231 13496,10223 13496,10214 13487,10206 13284,10206 Z "/>
         <path fill="rgb(0,0,0)" stroke="none" d="M 13564,10206 L 13555,10206 13547,10214 13547,10223 13555,10231 13758,10231 13767,10231 13775,10223 13775,10214 13767,10206 13564,10206 Z "/>
         <path fill="rgb(0,0,0)" stroke="none" d="M 13843,10206 L 13834,10206 13826,10214 13826,10223 13834,10231 14038,10231 14046,10231 14055,10223 14055,10214 14046,10206 13843,10206 Z "/>
         <path fill="rgb(0,0,0)" stroke="none" d="M 14122,10206 L 14114,10206 14105,10214 14105,10223 14114,10231 14317,10231 14326,10231 14334,10223 14334,10214 14326,10206 14122,10206 Z "/>
         <path fill="rgb(0,0,0)" stroke="none" d="M 14402,10206 L 14393,10206 14385,10214 14385,10223 14393,10231 14596,10231 14605,10231 14613,10223 14613,10214 14605,10206 14402,10206 Z "/>
         <path fill="rgb(0,0,0)" stroke="none" d="M 14681,10206 L 14673,10206 14664,10214 14664,10223 14673,10231 14876,10231 14884,10231 14893,10223 14893,10214 14884,10206 14681,10206 Z "/>
         <path fill="rgb(0,0,0)" stroke="none" d="M 14961,10206 L 14952,10206 14944,10214 14944,10223 14952,10231 15155,10231 15164,10231 15172,10223 15172,10214 15164,10206 14961,10206 Z "/>
         <path fill="rgb(0,0,0)" stroke="none" d="M 15240,10206 L 15231,10206 15223,10214 15223,10223 15231,10231 15435,10231 15443,10231 15452,10223 15452,10214 15443,10206 15240,10206 Z "/>
         <path fill="rgb(0,0,0)" stroke="none" d="M 15519,10206 L 15511,10206 15502,10214 15502,10223 15511,10231 15714,10231 15722,10231 15731,10223 15731,10214 15722,10206 15519,10206 Z "/>
         <path fill="rgb(0,0,0)" stroke="none" d="M 15799,10206 L 15790,10206 15782,10214 15782,10223 15790,10231 15993,10231 16002,10231 16010,10223 16010,10214 16002,10206 15799,10206 Z "/>
         <path fill="rgb(0,0,0)" stroke="none" d="M 16078,10206 L 16070,10206 16061,10214 16061,10223 16070,10231 16273,10231 16281,10231 16290,10223 16290,10214 16281,10206 16078,10206 Z "/>
         <path fill="rgb(0,0,0)" stroke="none" d="M 16357,10206 L 16349,10206 16341,10214 16341,10223 16349,10231 16552,10231 16561,10231 16569,10223 16569,10214 16561,10206 16357,10206 Z "/>
         <path fill="rgb(0,0,0)" stroke="none" d="M 16637,10206 L 16628,10206 16620,10214 16620,10223 16628,10231 16832,10231 16840,10231 16849,10223 16849,10214 16840,10206 16637,10206 Z "/>
         <path fill="rgb(0,0,0)" stroke="none" d="M 16916,10206 L 16908,10206 16899,10214 16899,10223 16908,10231 17111,10231 17119,10231 17128,10223 17128,10214 17119,10206 16916,10206 Z "/>
         <path fill="rgb(0,0,0)" stroke="none" d="M 17196,10206 L 17187,10206 17179,10214 17179,10223 17187,10231 17390,10231 17399,10231 17407,10223 17407,10214 17399,10206 17196,10206 Z "/>
         <path fill="rgb(0,0,0)" stroke="none" d="M 17475,10206 L 17467,10206 17458,10214 17458,10223 17467,10231 17670,10231 17678,10231 17687,10223 17687,10214 17678,10206 17475,10206 Z "/>
         <path fill="rgb(0,0,0)" stroke="none" d="M 17754,10206 L 17746,10206 17738,10214 17738,10223 17746,10231 17949,10231 17958,10231 17966,10223 17966,10214 17958,10206 17754,10206 Z "/>
         <path fill="rgb(0,0,0)" stroke="none" d="M 18034,10206 L 18025,10206 18017,10214 18017,10223 18025,10231 18229,10231 18237,10231 18245,10223 18245,10214 18237,10206 18034,10206 Z "/>
         <path fill="rgb(0,0,0)" stroke="none" d="M 18313,10206 L 18305,10206 18296,10214 18296,10223 18305,10231 18339,10231 18339,10223 18347,10214 18347,10214 18347,10206 18313,10206 Z "/>
         <path fill="rgb(0,0,0)" stroke="none" d="M 18356,10223 L 18347,10214 18339,10206 18339,10206 18330,10214 18330,10409 18330,10418 18339,10426 18347,10426 18356,10418 18356,10223 Z "/>
         <path fill="rgb(0,0,0)" stroke="none" d="M 18356,10494 L 18356,10485 18347,10477 18339,10477 18330,10485 18330,10689 18330,10697 18339,10706 18347,10706 18356,10697 18356,10494 Z "/>
         <path fill="rgb(0,0,0)" stroke="none" d="M 18356,10773 L 18356,10765 18347,10756 18339,10756 18330,10765 18330,10968 18330,10976 18339,10985 18347,10985 18356,10976 18356,10773 Z "/>
         <path fill="rgb(0,0,0)" stroke="none" d="M 18356,11053 L 18356,11044 18347,11036 18339,11036 18330,11044 18330,11247 18330,11256 18339,11264 18347,11264 18356,11256 18356,11053 Z "/>
         <path fill="rgb(0,0,0)" stroke="none" d="M 18356,11332 L 18356,11324 18347,11315 18339,11315 18330,11324 18330,11527 18330,11535 18339,11544 18347,11544 18356,11535 18356,11332 Z "/>
         <path fill="rgb(0,0,0)" stroke="none" d="M 18356,11611 L 18356,11603 18347,11595 18339,11595 18330,11603 18330,11806 18330,11815 18339,11823 18347,11823 18356,11815 18356,11611 Z "/>
         <path fill="rgb(0,0,0)" stroke="none" d="M 18356,11891 L 18356,11882 18347,11874 18339,11874 18330,11882 18330,12086 18330,12094 18339,12103 18347,12103 18356,12094 18356,11891 Z "/>
         <path fill="rgb(0,0,0)" stroke="none" d="M 18356,12170 L 18356,12162 18347,12153 18339,12153 18330,12162 18330,12365 18330,12374 18339,12382 18347,12382 18356,12374 18356,12170 Z "/>
         <path fill="rgb(0,0,0)" stroke="none" d="M 18356,12450 L 18356,12441 18347,12433 18339,12433 18330,12441 18330,12644 18330,12653 18339,12661 18347,12661 18356,12653 18356,12450 Z "/>
         <path fill="rgb(0,0,0)" stroke="none" d="M 18356,12729 L 18356,12721 18347,12712 18339,12712 18330,12721 18330,12924 18330,12932 18339,12941 18347,12941 18356,12932 18356,12729 Z "/>
         <path fill="rgb(0,0,0)" stroke="none" d="M 18356,13009 L 18356,13000 18347,12992 18339,12992 18330,13000 18330,13203 18330,13212 18339,13220 18347,13220 18356,13212 18356,13009 Z "/>
         <path fill="rgb(0,0,0)" stroke="none" d="M 18356,13288 L 18356,13279 18347,13271 18339,13271 18330,13279 18330,13483 18330,13491 18339,13500 18347,13500 18356,13491 18356,13288 Z "/>
         <path fill="rgb(0,0,0)" stroke="none" d="M 18356,13567 L 18356,13559 18347,13550 18339,13550 18330,13559 18330,13762 18330,13771 18339,13779 18347,13779 18356,13771 18356,13567 Z "/>
         <path fill="rgb(0,0,0)" stroke="none" d="M 18356,13847 L 18356,13838 18347,13830 18339,13830 18330,13838 18330,14025 18330,14025 18339,14033 18339,14033 18356,14033 18356,13847 Z "/>
         <path fill="rgb(0,0,0)" stroke="none" d="M 18347,14041 L 18347,14025 18347,14025 18339,14016 18339,14016 18135,14016 18127,14025 18127,14025 18135,14033 18144,14041 18347,14041 Z "/>
         <path fill="rgb(0,0,0)" stroke="none" d="M 18068,14041 L 18068,14025 18068,14025 18059,14016 18059,14016 17856,14016 17848,14025 17848,14025 17856,14033 17865,14041 18068,14041 Z "/>
         <path fill="rgb(0,0,0)" stroke="none" d="M 17788,14041 L 17788,14025 17788,14025 17780,14016 17780,14016 17577,14016 17568,14025 17568,14025 17577,14033 17585,14041 17788,14041 Z "/>
         <path fill="rgb(0,0,0)" stroke="none" d="M 17509,14041 L 17509,14025 17509,14025 17500,14016 17500,14016 17297,14016 17289,14025 17289,14025 17297,14033 17306,14041 17509,14041 Z "/>
         <path fill="rgb(0,0,0)" stroke="none" d="M 17230,14041 L 17230,14025 17230,14025 17221,14016 17221,14016 17018,14016 17009,14025 17009,14025 17018,14033 17026,14041 17230,14041 Z "/>
         <path fill="rgb(0,0,0)" stroke="none" d="M 16950,14041 L 16950,14025 16950,14025 16942,14016 16942,14016 16738,14016 16730,14025 16730,14025 16738,14033 16747,14041 16950,14041 Z "/>
         <path fill="rgb(0,0,0)" stroke="none" d="M 16671,14041 L 16671,14025 16671,14025 16662,14016 16662,14016 16459,14016 16451,14025 16451,14025 16459,14033 16468,14041 16671,14041 Z "/>
         <path fill="rgb(0,0,0)" stroke="none" d="M 16391,14041 L 16391,14025 16391,14025 16383,14016 16383,14016 16180,14016 16171,14025 16171,14025 16180,14033 16188,14041 16391,14041 Z "/>
         <path fill="rgb(0,0,0)" stroke="none" d="M 16112,14041 L 16112,14025 16112,14025 16103,14016 16103,14016 15900,14016 15892,14025 15892,14025 15900,14033 15909,14041 16112,14041 Z "/>
         <path fill="rgb(0,0,0)" stroke="none" d="M 15833,14041 L 15833,14025 15833,14025 15824,14016 15824,14016 15621,14016 15612,14025 15612,14025 15621,14033 15629,14041 15833,14041 Z "/>
         <path fill="rgb(0,0,0)" stroke="none" d="M 15553,14041 L 15553,14025 15553,14025 15545,14016 15545,14016 15341,14016 15333,14025 15333,14025 15341,14033 15350,14041 15553,14041 Z "/>
         <path fill="rgb(0,0,0)" stroke="none" d="M 15274,14041 L 15274,14025 15274,14025 15265,14016 15265,14016 15062,14016 15054,14025 15054,14025 15062,14033 15071,14041 15274,14041 Z "/>
         <path fill="rgb(0,0,0)" stroke="none" d="M 14994,14041 L 14994,14025 14994,14025 14986,14016 14986,14016 14783,14016 14774,14025 14774,14025 14783,14033 14791,14041 14994,14041 Z "/>
         <path fill="rgb(0,0,0)" stroke="none" d="M 14715,14041 L 14715,14025 14715,14025 14707,14016 14707,14016 14503,14016 14495,14025 14495,14025 14503,14033 14512,14041 14715,14041 Z "/>
         <path fill="rgb(0,0,0)" stroke="none" d="M 14436,14041 L 14436,14025 14436,14025 14427,14016 14427,14016 14224,14016 14215,14025 14215,14025 14224,14033 14232,14041 14436,14041 Z "/>
         <path fill="rgb(0,0,0)" stroke="none" d="M 14156,14041 L 14156,14025 14156,14025 14148,14016 14148,14016 13945,14016 13936,14025 13936,14025 13945,14033 13953,14041 14156,14041 Z "/>
         <path fill="rgb(0,0,0)" stroke="none" d="M 13877,14041 L 13877,14025 13877,14025 13868,14016 13868,14016 13665,14016 13657,14025 13657,14025 13665,14033 13674,14041 13877,14041 Z "/>
         <path fill="rgb(0,0,0)" stroke="none" d="M 13597,14041 L 13597,14025 13597,14025 13589,14016 13589,14016 13386,14016 13377,14025 13377,14025 13386,14033 13394,14041 13597,14041 Z "/>
         <path fill="rgb(0,0,0)" stroke="none" d="M 13318,14041 L 13318,14025 13318,14025 13310,14016 13310,14016 13106,14016 13098,14025 13098,14025 13106,14033 13115,14041 13318,14041 Z "/>
         <path fill="rgb(0,0,0)" stroke="none" d="M 13039,14041 L 13039,14025 13039,14025 13030,14016 13030,14016 12827,14016 12818,14025 12818,14025 12827,14033 12835,14041 13039,14041 Z "/>
         <path fill="rgb(0,0,0)" stroke="none" d="M 12759,14041 L 12759,14025 12759,14025 12751,14016 12751,14016 12548,14016 12539,14025 12539,14025 12548,14033 12556,14041 12759,14041 Z "/>
         <path fill="rgb(0,0,0)" stroke="none" d="M 12480,14041 L 12480,14025 12480,14025 12471,14016 12471,14016 12268,14016 12260,14025 12260,14025 12268,14033 12277,14041 12480,14041 Z "/>
         <path fill="rgb(0,0,0)" stroke="none" d="M 12200,14041 L 12200,14025 12200,14025 12192,14016 12192,14016 11989,14016 11980,14025 11980,14025 11989,14033 11997,14041 12200,14041 Z "/>
         <path fill="rgb(0,0,0)" stroke="none" d="M 11921,14041 L 11921,14025 11921,14025 11913,14016 11913,14016 11709,14016 11701,14025 11701,14025 11709,14033 11718,14041 11921,14041 Z "/>
         <path fill="rgb(0,0,0)" stroke="none" d="M 11642,14041 L 11642,14025 11642,14025 11633,14016 11633,14016 11430,14016 11422,14025 11422,14025 11430,14033 11438,14041 11642,14041 Z "/>
         <path fill="rgb(0,0,0)" stroke="none" d="M 11362,14041 L 11362,14025 11362,14025 11354,14016 11354,14016 11151,14016 11142,14025 11142,14025 11151,14033 11159,14041 11362,14041 Z "/>
         <path fill="rgb(0,0,0)" stroke="none" d="M 11083,14041 L 11083,14025 11083,14025 11074,14016 11074,14016 10871,14016 10863,14025 10863,14025 10871,14033 10880,14041 11083,14041 Z "/>
         <path fill="rgb(0,0,0)" stroke="none" d="M 10803,14041 L 10803,14025 10803,14025 10795,14016 10795,14016 10592,14016 10583,14025 10583,14025 10592,14033 10600,14041 10803,14041 Z "/>
         <path fill="rgb(0,0,0)" stroke="none" d="M 10524,14041 L 10524,14025 10524,14025 10516,14016 10516,14016 10312,14016 10304,14025 10304,14025 10312,14033 10321,14041 10524,14041 Z "/>
         <path fill="rgb(0,0,0)" stroke="none" d="M 10245,14041 L 10245,14025 10245,14025 10236,14016 10236,14016 10033,14016 10025,14025 10025,14025 10033,14033 10041,14041 10245,14041 Z "/>
         <path fill="rgb(0,0,0)" stroke="none" d="M 9965,14041 L 9965,14025 9965,14025 9957,14016 9957,14016 9754,14016 9745,14025 9745,14025 9754,14033 9762,14041 9965,14041 Z "/>
         <path fill="rgb(0,0,0)" stroke="none" d="M 9686,14041 L 9686,14025 9686,14025 9677,14016 9677,14016 9474,14016 9466,14025 9466,14025 9474,14033 9483,14041 9686,14041 Z "/>
         <path fill="rgb(0,0,0)" stroke="none" d="M 9406,14041 L 9406,14025 9406,14025 9398,14016 9398,14016 9195,14016 9186,14025 9186,14025 9195,14033 9203,14041 9406,14041 Z "/>
         <path fill="rgb(0,0,0)" stroke="none" d="M 9127,14041 L 9127,14025 9127,14025 9119,14016 9119,14016 8915,14016 8907,14025 8907,14025 8915,14033 8924,14041 9127,14041 Z "/>
         <path fill="rgb(0,0,0)" stroke="none" d="M 8848,14041 L 8848,14025 8848,14025 8839,14016 8839,14016 8636,14016 8628,14025 8628,14025 8636,14033 8645,14041 8848,14041 Z "/>
         <path fill="rgb(0,0,0)" stroke="none" d="M 8568,14041 L 8568,14025 8568,14025 8560,14016 8560,14016 8357,14016 8348,14025 8348,14025 8357,14033 8365,14041 8568,14041 Z "/>
         <path fill="rgb(0,0,0)" stroke="none" d="M 8289,14041 L 8289,14025 8289,14025 8280,14016 8280,14016 8077,14016 8069,14025 8069,14025 8077,14033 8086,14041 8289,14041 Z "/>
         <path fill="rgb(0,0,0)" stroke="none" d="M 8010,14041 L 8010,14025 8010,14025 8001,14016 8001,14016 7798,14016 7789,14025 7789,14025 7798,14033 7806,14041 8010,14041 Z "/>
         <path fill="rgb(0,0,0)" stroke="none" d="M 7730,14041 L 7730,14025 7730,14025 7722,14016 7722,14016 7518,14016 7510,14025 7510,14025 7518,14033 7527,14041 7730,14041 Z "/>
         <path fill="rgb(0,0,0)" stroke="none" d="M 7451,14041 L 7451,14025 7451,14025 7442,14016 7442,14016 7417,14016 7408,14025 7408,14025 7417,14033 7425,14041 7451,14041 Z "/>
         <path fill="rgb(0,0,0)" stroke="none" d="M 7408,14033 L 7417,14033 7417,14033 7425,14025 7434,14025 7434,13821 7417,13813 7417,13813 7408,13821 7408,13830 7408,14033 Z "/>
         <path fill="rgb(0,0,0)" stroke="none" d="M 7408,13754 L 7417,13754 7417,13754 7425,13745 7434,13745 7434,13542 7417,13533 7417,13533 7408,13542 7408,13550 7408,13754 Z "/>
         <path fill="rgb(0,0,0)" stroke="none" d="M 7408,13474 L 7417,13474 7417,13474 7425,13466 7434,13466 7434,13263 7417,13254 7417,13254 7408,13263 7408,13271 7408,13474 Z "/>
         <path fill="rgb(0,0,0)" stroke="none" d="M 7408,13195 L 7417,13195 7417,13195 7425,13186 7434,13186 7434,12983 7417,12975 7417,12975 7408,12983 7408,12992 7408,13195 Z "/>
         <path fill="rgb(0,0,0)" stroke="none" d="M 7408,12915 L 7417,12915 7417,12915 7425,12907 7434,12907 7434,12704 7417,12695 7417,12695 7408,12704 7408,12712 7408,12915 Z "/>
         <path fill="rgb(0,0,0)" stroke="none" d="M 7408,12636 L 7417,12636 7417,12636 7425,12628 7434,12628 7434,12424 7417,12416 7417,12416 7408,12424 7408,12433 7408,12636 Z "/>
         <path fill="rgb(0,0,0)" stroke="none" d="M 7408,12357 L 7417,12357 7417,12357 7425,12348 7434,12348 7434,12145 7417,12136 7417,12136 7408,12145 7408,12153 7408,12357 Z "/>
         <path fill="rgb(0,0,0)" stroke="none" d="M 7408,12077 L 7417,12077 7417,12077 7425,12069 7434,12069 7434,11866 7417,11857 7417,11857 7408,11866 7408,11874 7408,12077 Z "/>
         <path fill="rgb(0,0,0)" stroke="none" d="M 7408,11798 L 7417,11798 7417,11798 7425,11789 7434,11789 7434,11586 7417,11578 7417,11578 7408,11586 7408,11595 7408,11798 Z "/>
         <path fill="rgb(0,0,0)" stroke="none" d="M 7408,11518 L 7417,11518 7417,11518 7425,11510 7434,11510 7434,11307 7417,11298 7417,11298 7408,11307 7408,11315 7408,11518 Z "/>
         <path fill="rgb(0,0,0)" stroke="none" d="M 7408,11239 L 7417,11239 7417,11239 7425,11230 7434,11230 7434,11027 7417,11019 7417,11019 7408,11027 7408,11036 7408,11239 Z "/>
         <path fill="rgb(0,0,0)" stroke="none" d="M 7408,10960 L 7417,10960 7417,10960 7425,10951 7434,10951 7434,10748 7417,10739 7417,10739 7408,10748 7408,10756 7408,10960 Z "/>
         <path fill="rgb(0,0,0)" stroke="none" d="M 7408,10680 L 7417,10680 7417,10680 7425,10672 7434,10672 7434,10468 7417,10460 7417,10460 7408,10468 7408,10477 7408,10680 Z "/>
         <path fill="rgb(0,0,0)" stroke="none" d="M 7408,10401 L 7417,10401 7417,10401 7425,10392 7434,10392 7434,10214 7417,10206 7417,10206 7408,10214 7408,10223 7408,10401 Z "/>
        </g>
       </g>
      </g>
     </g>
    </g>
   </g>
  </g>
 </g>
</svg>