<?xml version='1.0' encoding='UTF-8'?>
<svg xmlns="http://www.w3.org/2000/svg" width="255mm" height="551.1mm" viewBox="-30000 -15980 200000 431707"><defs><style>.C1 {stroke: #000000; stroke-width: 631; stroke-opacity: 1.000; fill: none; fill-opacity: 1.000;}</style><style>.C2 {stroke: none; stroke-width: none; stroke-opacity: 1.000; fill: #000000; fill-opacity: 1.000;}</style></defs><rect fill="#ffffff" x="-15989" y="-15980" width="156673" height="431707" fill-opacity="1.0"/><g stroke-linecap="round" stroke-linejoin="round"><path d="M 17849 31176 l 106846 0" class="C1"/><path d="M 17849 374596 l 106846 0" class="C1"/><path d="M 17849 117031 l 106846 0" class="C1"/><path d="M 17849 69054 l 106846 0" class="C1"/><path d="M 17849 52640 l 106846 0" class="C1"/><path d="M 17849 44812 l 106846 0" class="C1"/><path d="M 17849 40772 l 106846 0" class="C1"/><path d="M 17849 38247 l 106846 0" class="C1"/><path d="M 17849 36479 l 106846 0" class="C1"/><path d="M 17849 35469 l 106846 0" class="C1"/><path d="M 17849 34712 l 106846 0" class="C1"/><path d="M 17849 33954 l 106846 0" class="C1"/><path d="M 17849 33702 l 106846 0" class="C1"/><path d="M 0 12635 l 4209 0 -2104 -12626 Z" class="C2"/><path d="M 2104 12635 l -0 387103" class="C1"/><path d="M 2104 31176 l 4041 0" class="C1"/><path d="M 2104 34712 l 4041 0" class="C1"/><path d="M 2104 33954 l 4041 0" class="C1"/><path d="M 2104 33702 l 4041 0" class="C1"/><path d="M 2104 38247 l 4041 0" class="C1"/><path d="M 2104 36479 l 4041 0" class="C1"/><path d="M 2104 35469 l 4041 0" class="C1"/><path d="M 2104 40772 l 4041 0" class="C1"/><path d="M 2104 44812 l 4041 0" class="C1"/><path d="M 2104 52640 l 4041 0" class="C1"/><path d="M 2104 69054 l 4041 0" class="C1"/><path d="M 2104 117031 l 4041 0" class="C1"/><path d="M 2104 374596 l 4041 0" class="C1"/></g><g font-family="Georgia,'Times New Roman',serif" fill="#000000"><text x="9000" y="-1500" font-size="10500" text-anchor="start"><tspan font-style="italic">E</tspan> (eV)</text><text x="-1500" y="34776" font-size="9500" text-anchor="end">0</text><text x="-1500" y="56240" font-size="9500" text-anchor="end">−0,9</text><text x="-1500" y="72654" font-size="9500" text-anchor="end">−1,5</text><text x="-1500" y="120631" font-size="9500" text-anchor="end">−3,4</text><text x="-1500" y="378196" font-size="9500" text-anchor="end">−13,6</text><text x="127000" y="34776" font-size="10500" text-anchor="start">n=∞</text><text x="127000" y="72654" font-size="10500" text-anchor="start">n=3</text><text x="127000" y="120631" font-size="10500" text-anchor="start">n=2</text><text x="127000" y="378196" font-size="10500" text-anchor="start">n=1</text></g></svg>