<?xml version='1.0' encoding='utf-8'?>
<svg xmlns="http://www.w3.org/2000/svg" width="206mm" height="215.5mm" viewBox="603000 -15980 413000 440000"><defs><style>.C1 {stroke: #000000; stroke-width: 631; stroke-opacity: 1.000; fill: none; fill-opacity: 1.000;}</style><style>.C2 {stroke: none; stroke-width: none; stroke-opacity: 1.000; fill: #000000; fill-opacity: 1.000;}</style></defs><rect fill="#ffffff" x="615325" y="-15980" width="400664" height="431707" fill-opacity="1.0" /><g stroke-linecap="round" stroke-linejoin="round"><path d="M 649163 31176 l 350837 0" class="C1" /><path d="M 649163 34712 l 350837 0" class="C1" /><path d="M 649163 33954 l 350837 0" class="C1" /><path d="M 649163 33702 l 350837 0" class="C1" /><path d="M 649163 38247 l 350837 0" class="C1" /><path d="M 649163 36479 l 350837 0" class="C1" /><path d="M 649163 35469 l 350837 0" class="C1" /><path d="M 649163 40772 l 350837 0" class="C1" /><path d="M 649163 44812 l 350837 0" class="C1" /><path d="M 649163 52640 l 350837 0" class="C1" /><path d="M 649163 69054 l 350837 0" class="C1" /><path d="M 649163 117031 l 350837 0" class="C1" /><path d="M 649163 374596 l 350837 0" class="C1" /><path d="M 633418 12635 l -0 387103" class="C1" /><path d="M 633418 374596 l 4041 0" class="C1" /><path d="M 633418 117031 l 4041 0" class="C1" /><path d="M 633418 69054 l 4041 0" class="C1" /><path d="M 633418 52640 l 4041 0" class="C1" /><path d="M 633418 44812 l 4041 0" class="C1" /><path d="M 633418 35469 l 4041 0" class="C1" /><path d="M 633418 33702 l 4041 0" class="C1" /><path d="M 633418 33954 l 4041 0" class="C1" /><path d="M 633418 34712 l 4041 0" class="C1" /><path d="M 633418 40772 l 4041 0" class="C1" /><path d="M 633418 36479 l 4041 0" class="C1" /><path d="M 633418 38247 l 4041 0" class="C1" /><path d="M 633418 31176 l 4041 0" class="C1" /><path d="M 631314 12635 l 4209 0 -2104 -12626 Z" class="C2" /><path d="M 673280 365126 l -3156 0 1578 9469 Z" class="C2" /><path d="M 671701 365126 l -0 -248095" class="C1" /><path d="M 682643 365126 l 0 -296073" class="C1" /><path d="M 684221 365126 l -3156 0 1578 9469 Z" class="C2" /><path d="M 693584 365126 l 0 -312486" class="C1" /><path d="M 695162 365126 l -3156 0 1578 9469 Z" class="C2" /><path d="M 704525 365126 l -0 -320314" class="C1" /><path d="M 706104 365126 l -3156 0 1578 9469 Z" class="C2" /><path d="M 715467 365126 l -0 -324354" class="C1" /><path d="M 717045 365126 l -3156 0 1578 9469 Z" class="C2" /><path d="M 726408 365126 l -0 -326879" class="C1" /><path d="M 727986 365126 l -3156 0 1578 9469 Z" class="C2" /><path d="M 737349 365126 l 0 -4545 m 0 -6818 l 0 -4545 m 0 -6818 l 0 -4545 m 0 -6818 l 0 -4545 m 0 -6818 l 0 -4545 m 0 -6818 l 0 -4545 m 0 -6818 l 0 -4545 m 0 -6818 l 0 -4545 m 0 -6818 l 0 -4545 m 0 -6818 l 0 -4545 m 0 -6818 l 0 -4545 m 0 -6818 l 0 -4545 m 0 -6818 l 0 -4545 m 0 -6818 l 0 -4545 m 0 -6818 l 0 -4545 m 0 -6818 l 0 -4545 m 0 -6818 l 0 -4545 m 0 -6818 l 0 -4545 m 0 -6818 l 0 -4545 m 0 -6818 l 0 -4545 m 0 -6818 l 0 -4545 m 0 -6818 l 0 -4545 m 0 -6818 l 0 -4545 m 0 -6818 l 0 -4545 m 0 -6818 l 0 -4545 m 0 -6818 l 0 -4545 m 0 -6818 l 0 -4545 m 0 -6818 l 0 -4545 m 0 -6818 l 0 -4545 m 0 -6818 l 0 -4419" class="C1" /><path d="M 738927 365126 l -3156 0 1578 9469 Z" class="C2" /><path d="M 808468 107562 l 0 -62750" class="C1" /><path d="M 797526 107562 l 0 -54922" class="C1" /><path d="M 786585 107562 l 0 -38508" class="C1" /><path d="M 788163 107562 l -3156 0 1578 9469 Z" class="C2" /><path d="M 810046 107562 l -3156 0 1578 9469 Z" class="C2" /><path d="M 799105 107562 l -3156 0 1578 9469 Z" class="C2" /><path d="M 852233 107562 l 0 -4545 m 0 -6818 l 0 -4545 m 0 -6818 l 0 -4545 m 0 -6818 l 0 -4545 m 0 -6818 l 0 -4545 m 0 -6818 l 0 -4545 m 0 -6818 l 0 -4545" class="C1" /><path d="M 841292 107562 l -0 -71083" class="C1" /><path d="M 830350 107562 l 0 -69315" class="C1" /><path d="M 819409 107562 l 0 -66790" class="C1" /><path d="M 842870 107562 l -3156 0 1578 9469 Z" class="C2" /><path d="M 831929 107562 l -3156 0 1578 9469 Z" class="C2" /><path d="M 820987 107562 l -3156 0 1578 9469 Z" class="C2" /><path d="M 853811 107562 l -3156 0 1578 9469 Z" class="C2" /><path d="M 935871 59584 l -3156 0 1578 9469 Z" class="C2" /><path d="M 901469 59584 l -0 -6944" class="C1" /><path d="M 912410 59584 l 0 -14772" class="C1" /><path d="M 923352 59584 l 0 -18812" class="C1" /><path d="M 903047 59584 l -3156 0 1578 9469 Z" class="C2" /><path d="M 913988 59584 l -3156 0 1578 9469 Z" class="C2" /><path d="M 924930 59584 l -3156 0 1578 9469 Z" class="C2" /><path d="M 934293 59584 l -0 -21337" class="C1" /><path d="M 945234 59584 l -0 -23105" class="C1" /><path d="M 956176 59584 l 0 -24115" class="C1" /><path d="M 967117 59584 l 0 -4545 m 0 -6818 l 0 -4545 m 0 -6818 l 0 -4545" class="C1" /><path d="M 946812 59584 l -3156 0 1578 9469 Z" class="C2" /><path d="M 957754 59584 l -3156 0 1578 9469 Z" class="C2" /><path d="M 968695 59584 l -3156 0 1578 9469 Z" class="C2" /></g><g font-family="Georgia,'Times New Roman',serif" fill="#000000"><text x="641000" y="-1500" font-size="11000" text-anchor="start"><tspan font-style="italic">E</tspan> (eV)</text><text x="630000" y="34976" font-size="10000" text-anchor="end">0</text><text x="630000" y="56440" font-size="10000" text-anchor="end">−0,9</text><text x="630000" y="72854" font-size="10000" text-anchor="end">−1,5</text><text x="630000" y="120831" font-size="10000" text-anchor="end">−3,4</text><text x="630000" y="378396" font-size="10000" text-anchor="end">−13,6</text><text x="700000" y="405000" font-size="11000" text-anchor="middle">Serie di Lyman</text><text x="830000" y="405000" font-size="11000" text-anchor="middle">Serie di Balmer</text><text x="945000" y="405000" font-size="11000" text-anchor="middle">Serie di Paschen</text></g></svg>
