<?xml version='1.0' encoding='utf-8'?>
<svg xmlns="http://www.w3.org/2000/svg" width="200.0mm" height="286.5mm" viewBox="-22847 405291 431129 617583"><defs><style>.C1 {stroke: none; stroke-width: none; stroke-opacity: 1.000; fill: #000000; fill-opacity: 1.000;}</style><style>.C2 {stroke: #000000; stroke-width: 502; stroke-opacity: 1.000; fill: none; fill-opacity: 1.000;}</style></defs><rect fill="#ffffff" x="-22847" y="405291" width="431129" height="617583" fill-opacity="1.0" /><g stroke-linecap="round" stroke-linejoin="round"><path d="M 84596 511586 l 0 0 l 8508 2309 l 7168 6339 l 5993 9485 l 4983 11747 l 4138 13125 l 3459 13620 l 2944 13232 l 2595 11960 l 2388 9982 l 2231 8010 l 2102 6222 l 1999 4618 l 1924 3197 l 1876 1961 l 1855 908 l 1861 39 l 1892 -674 l 1936 -1345 l 1990 -2001 l 2055 -2642 l 2130 -3269 l 2216 -3881 l 2312 -4478 l 2419 -5061 l 2539 -5610 l 2685 -6049 l 2861 -6358 l 3066 -6537 l 3300 -6588 l 3563 -6508 l 3856 -6299 l 4178 -5961 l 4517 -5518 l 4822 -5070 l 5081 -4642 l 5295 -4233 l 5462 -3845 l 5583 -3476 l 5658 -3127 l 5688 -2798 l 5696 -2485 l 5781 -2171 l 5970 -1851 l 6260 -1526 l 6653 -1196 l 7149 -861 l 7747 -520 l 8447 -175" class="C2" /><path d="M 365342 679497 l -365316 0" class="C2" /><path d="M 10731 448230 l -0 244101" class="C2" /><path d="M 10731 511586 l 73865 0" class="C2" /><path d="M 7387 448230 l 6689 0 -3344 -20066 Z" class="C1" /><path d="M 365342 676153 l 0 6689 20066 -3344 Z" class="C1" /><path d="M 279428 511586 l 73865 -0" class="C2" /><path d="M 10731 755899 l -0 244101" class="C2" /><path d="M 7387 755899 l 6689 0 -3344 -20066 Z" class="C1" /><path d="M 365342 987166 l -365316 0" class="C2" /><path d="M 365342 983822 l 0 6689 20066 -3344 Z" class="C1" /><path d="M 10731 570803 l 24079 0 m 6020 0 l 24079 0 m 6020 0 l 24079 0 m 6020 0 l 24079 0 m 6020 0 l 24079 0 m 6020 0 l 24079 0 m 6020 0 l 24079 0 m 6020 0 l 24079 0 m 6020 0 l 24079 0 m 6020 0 l 24079 0 m 6020 0 l 24079 0 m 6020 0 l 19495 0" class="C2" /><path d="M 118844 568211 l 0 24079 m 0 6020 l 0 24079 m 0 6020 l 0 24079 m 0 6020 l 0 24079 m 0 6020 l 0 24079 m 0 6020 l 0 24079 m 0 6020 l 0 24079 m 0 6020 l 0 24079" class="C2" /><path d="M 172020 573847 l 0 24079 m 0 6020 l 0 24079 m 0 6020 l 0 24079 m 0 6020 l 0 24079 m 0 6020 l 0 24079 m 0 6020 l 0 24079 m 0 6020 l 0 24079 m 0 6020 l 0 20757" class="C2" /><path d="M 118844 805296 l 53176 0" class="C2" /><path d="M 118844 805296 l 0 181870" class="C2" /><path d="M 172020 805296 l 0 181870" class="C2" /></g></svg>
