<?xml version='1.0' encoding='UTF-8'?>
<svg xmlns="http://www.w3.org/2000/svg" width="200.0mm" height="92.4mm" viewBox="-29428 661976 795159 367474"><defs><style>.C1 {stroke: #000000; stroke-width: 552.631; stroke-opacity: 1.000; fill: none; fill-opacity: 1.000;}</style><style>.C2 {stroke: none; stroke-width: none; stroke-opacity: 1.000; fill: #000000; fill-opacity: 1.000;}</style></defs><rect fill="#ffffff" x="-29428" y="661976" width="795159" height="367474" fill-opacity="1.0"/><g stroke-linecap="round" stroke-linejoin="round"><path d="M 376751 808525 l 32452 0" class="C1"/><path d="M 426152 888021 l -215606 0" class="C1"/><path d="M 426152 803405 l -215606 0" class="C1"/><path d="M 285395 852817 l 4487 -4487" class="C1"/><path d="M 396750 829121 l 0 33184" class="C1"/><path d="M 385097 829121 l 0 33184" class="C1"/><path d="M 373211 829121 l 0 33184" class="C1"/><path d="M 328686 852817 l -0 -14208" class="C1"/><path d="M 329245 852817 l 0 -14208" class="C1"/><path d="M 329644 852817 l 0 -14208" class="C1"/><path d="M 201250 812701 l 0 66024" class="C1"/><path d="M 285395 852817 l -114108 0" class="C1"/><path d="M 171287 875202 l 68259 0" class="C1"/><path d="M 170334 875202 l 5 93 14 93 23 91 32 88 40 85 48 80 56 75 63 69 69 63 75 56 80 48 85 40 88 32 91 23 93 14 93 5 93 -5 93 -14 91 -23 88 -32 85 -40 80 -48 75 -56 69 -63 63 -69 56 -75 48 -80 40 -85 32 -88 23 -91 14 -93 5 -93 -953 0 Z" class="C2"/><path d="M 172240 875202 l -5 -93 -14 -93 -23 -91 -32 -88 -40 -85 -48 -80 -56 -75 -63 -69 -69 -63 -75 -56 -80 -48 -85 -40 -88 -32 -91 -23 -93 -14 -93 -5 -93 5 -93 14 -91 23 -88 32 -85 40 -80 48 -75 56 -69 63 -63 69 -56 75 -48 80 -40 85 -32 88 -23 91 -14 93 -5 93 953 0 Z" class="C2"/><path d="M 170334 852817 l 5 93 14 93 23 91 32 88 40 85 48 80 56 75 63 69 69 63 75 56 80 48 85 40 88 32 91 23 93 14 93 5 93 -5 93 -14 91 -23 88 -32 85 -40 80 -48 75 -56 69 -63 63 -69 56 -75 48 -80 40 -85 32 -88 23 -91 14 -93 5 -93 -953 0 Z" class="C2"/><path d="M 172240 852817 l -5 -93 -14 -93 -23 -91 -32 -88 -40 -85 -48 -80 -56 -75 -63 -69 -69 -63 -75 -56 -80 -48 -85 -40 -88 -32 -91 -23 -93 -14 -93 -5 -93 5 -93 14 -91 23 -88 32 -85 40 -80 48 -75 56 -69 63 -63 69 -56 75 -48 80 -40 85 -32 88 -23 91 -14 93 -5 93 953 0 Z" class="C2"/><path d="M 201250 878725 c 0 5134 4162 9296 9296 9296" class="C1"/><path d="M 297704 852817 l 31940 0" class="C1"/><path d="M 303462 858317 l 31903 0" class="C1"/><path d="M 338679 877583 l 38518 0" class="C1"/><path d="M 342203 863857 l 31008 0" class="C1"/><path d="M 319413 858317 l 19266 19266" class="C1"/><path d="M 318460 858317 l 5 93 14 93 23 91 32 88 40 85 48 80 56 75 63 69 69 63 75 56 80 48 85 40 88 32 91 23 93 14 93 5 93 -5 93 -14 91 -23 88 -32 85 -40 80 -48 75 -56 69 -63 63 -69 56 -75 48 -80 40 -85 32 -88 23 -91 14 -93 5 -93 -953 0 Z" class="C2"/><path d="M 320367 858317 l -5 -93 -14 -93 -23 -91 -32 -88 -40 -85 -48 -80 -56 -75 -63 -69 -69 -63 -75 -56 -80 -48 -85 -40 -88 -32 -91 -23 -93 -14 -93 -5 -93 5 -93 14 -91 23 -88 32 -85 40 -80 48 -75 56 -69 63 -63 69 -56 75 -48 80 -40 85 -32 88 -23 91 -14 93 -5 93 953 0 Z" class="C2"/><path d="M 335365 850516 l 0 7802" class="C1"/><path d="M 342203 850516 l 0 13341" class="C1"/><path d="M 390924 863857 l -13726 13726" class="C1"/><path d="M 385097 863857 l 11652 0" class="C1"/><path d="M 389970 863857 l 5 93 14 93 23 91 32 88 40 85 48 80 56 75 63 69 69 63 75 56 80 48 85 40 88 32 91 23 93 14 93 5 93 -5 93 -14 91 -23 88 -32 85 -40 80 -48 75 -56 69 -63 63 -69 56 -75 48 -80 40 -85 32 -88 23 -91 14 -93 5 -93 -953 0 Z" class="C2"/><path d="M 391877 863857 l -5 -93 -14 -93 -23 -91 -32 -88 -40 -85 -48 -80 -56 -75 -63 -69 -69 -63 -75 -56 -80 -48 -85 -40 -88 -32 -91 -23 -93 -14 -93 -5 -93 5 -93 14 -91 23 -88 32 -85 40 -80 48 -75 56 -69 63 -63 69 -56 75 -48 80 -40 85 -32 88 -23 91 -14 93 -5 93 953 0 Z" class="C2"/><path d="M 305519 827099 l -134232 0" class="C1"/><path d="M 171287 838609 l 158357 0" class="C1"/><path d="M 171287 817098 l 175948 0" class="C1"/><path d="M 170334 838609 l 5 93 14 93 23 91 32 88 40 85 48 80 56 75 63 69 69 63 75 56 80 48 85 40 88 32 91 23 93 14 93 5 93 -5 93 -14 91 -23 88 -32 85 -40 80 -48 75 -56 69 -63 63 -69 56 -75 48 -80 40 -85 32 -88 23 -91 14 -93 5 -93 -953 0 Z" class="C2"/><path d="M 172240 838609 l -5 -93 -14 -93 -23 -91 -32 -88 -40 -85 -48 -80 -56 -75 -63 -69 -69 -63 -75 -56 -80 -48 -85 -40 -88 -32 -91 -23 -93 -14 -93 -5 -93 5 -93 14 -91 23 -88 32 -85 40 -80 48 -75 56 -69 63 -63 69 -56 75 -48 80 -40 85 -32 88 -23 91 -14 93 -5 93 953 0 Z" class="C2"/><path d="M 170334 827099 l 5 93 14 93 23 91 32 88 40 85 48 80 56 75 63 69 69 63 75 56 80 48 85 40 88 32 91 23 93 14 93 5 93 -5 93 -14 91 -23 88 -32 85 -40 80 -48 75 -56 69 -63 63 -69 56 -75 48 -80 40 -85 32 -88 23 -91 14 -93 5 -93 -953 0 Z" class="C2"/><path d="M 172240 827099 l -5 -93 -14 -93 -23 -91 -32 -88 -40 -85 -48 -80 -56 -75 -63 -69 -69 -63 -75 -56 -80 -48 -85 -40 -88 -32 -91 -23 -93 -14 -93 -5 -93 5 -93 14 -91 23 -88 32 -85 40 -80 48 -75 56 -69 63 -63 69 -56 75 -48 80 -40 85 -32 88 -23 91 -14 93 -5 93 953 0 Z" class="C2"/><path d="M 170334 817098 l 5 93 14 93 23 91 32 88 40 85 48 80 56 75 63 69 69 63 75 56 80 48 85 40 88 32 91 23 93 14 93 5 93 -5 93 -14 91 -23 88 -32 85 -40 80 -48 75 -56 69 -63 63 -69 56 -75 48 -80 40 -85 32 -88 23 -91 14 -93 5 -93 -953 0 Z" class="C2"/><path d="M 172240 817098 l -5 -93 -14 -93 -23 -91 -32 -88 -40 -85 -48 -80 -56 -75 -63 -69 -69 -63 -75 -56 -80 -48 -85 -40 -88 -32 -91 -23 -93 -14 -93 -5 -93 5 -93 14 -91 23 -88 32 -85 40 -80 48 -75 56 -69 63 -63 69 -56 75 -48 80 -40 85 -32 88 -23 91 -14 93 -5 93 953 0 Z" class="C2"/><path d="M 210546 803405 c -5134 0 -9296 4162 -9296 9296" class="C1"/><path d="M 289882 848330 l 35499 -2617" class="C1"/><path d="M 289882 843096 l 35499 2617" class="C1"/><path d="M 303462 833109 l 31903 0" class="C1"/><path d="M 285395 838609 l 4487 4487" class="C1"/><path d="M 284441 838609 l 5 93 14 93 23 91 32 88 40 85 48 80 56 75 63 69 69 63 75 56 80 48 85 40 88 32 91 23 93 14 93 5 93 -5 93 -14 91 -23 88 -32 85 -40 80 -48 75 -56 69 -63 63 -69 56 -75 48 -80 40 -85 32 -88 23 -91 14 -93 5 -93 -953 0 Z" class="C2"/><path d="M 286348 838609 l -5 -93 -14 -93 -23 -91 -32 -88 -40 -85 -48 -80 -56 -75 -63 -69 -69 -63 -75 -56 -80 -48 -85 -40 -88 -32 -91 -23 -93 -14 -93 -5 -93 5 -93 14 -91 23 -88 32 -85 40 -80 48 -75 56 -69 63 -63 69 -56 75 -48 80 -40 85 -32 88 -23 91 -14 93 -5 93 953 0 Z" class="C2"/><path d="M 311529 833109 l -6010 -6010" class="C1"/><path d="M 310575 833109 l 5 93 14 93 23 91 32 88 40 85 48 80 56 75 63 69 69 63 75 56 80 48 85 40 88 32 91 23 93 14 93 5 93 -5 93 -14 91 -23 88 -32 85 -40 80 -48 75 -56 69 -63 63 -69 56 -75 48 -80 40 -85 32 -88 23 -91 14 -93 5 -93 -953 0 Z" class="C2"/><path d="M 312482 833109 l -5 -93 -14 -93 -23 -91 -32 -88 -40 -85 -48 -80 -56 -75 -63 -69 -69 -63 -75 -56 -80 -48 -85 -40 -88 -32 -91 -23 -93 -14 -93 -5 -93 5 -93 14 -91 23 -88 32 -85 40 -80 48 -75 56 -69 63 -63 69 -56 75 -48 80 -40 85 -32 88 -23 91 -14 93 -5 93 953 0 Z" class="C2"/><path d="M 357707 827570 l 19045 -19045" class="C1"/><path d="M 342203 827570 l 31008 0" class="C1"/><path d="M 357707 827570 l -10472 -10472" class="C1"/><path d="M 335365 833109 l 0 7802" class="C1"/><path d="M 342203 827570 l 0 13341" class="C1"/><path d="M 356753 827570 l 5 93 14 93 23 91 32 88 40 85 48 80 56 75 63 69 69 63 75 56 80 48 85 40 88 32 91 23 93 14 93 5 93 -5 93 -14 91 -23 88 -32 85 -40 80 -48 75 -56 69 -63 63 -69 56 -75 48 -80 40 -85 32 -88 23 -91 14 -93 5 -93 -953 0 Z" class="C2"/><path d="M 358660 827570 l -5 -93 -14 -93 -23 -91 -32 -88 -40 -85 -48 -80 -56 -75 -63 -69 -69 -63 -75 -56 -80 -48 -85 -40 -88 -32 -91 -23 -93 -14 -93 -5 -93 5 -93 14 -91 23 -88 32 -85 40 -80 48 -75 56 -69 63 -63 69 -56 75 -48 80 -40 85 -32 88 -23 91 -14 93 -5 93 953 0 Z" class="C2"/><path d="M 385097 827570 l 11652 0" class="C1"/><path d="M 430706 828966 l 0 33494" class="C1"/><path d="M 410153 815650 l 0 60126" class="C1"/><path d="M 420492 815650 l 0 60126" class="C1"/><path d="M 419744 837749 l 0 15929" class="C1"/><path d="M 421140 837749 l 0 15929" class="C1"/><path d="M 421838 837749 l 0 15929" class="C1"/><path d="M 419248 837749 l 0 15929" class="C1"/><path d="M 422375 837749 l 0 15929" class="C1"/><path d="M 683039 950397 l 0 0 m 12679 -9729 l 0 0 m 11860 -9101 l 0 0 m -25159 -121 l 0 0 m 12679 -9729 l 0 0 m 11860 -9101 l 0 0 m 13265 -10178 l 0 0 m -38424 10058 l 0 0 m 12679 -9729 l 0 0 m 11860 -9101 l 0 0 m 13265 -10178 l 0 0 m 12679 -9729 l 0 0 m -51103 19787 l 0 0 m 12679 -9729 l 0 0 m 11860 -9101 l 0 0 m 13265 -10178 l 0 0 m 12679 -9729 l 0 0 m -51103 19787 l 0 0 m 12679 -9729 l 0 0 m 11860 -9101 l 0 0 m 13265 -10178 l 0 0 m 12679 -9729 l 0 0 m -51103 19787 l 0 0 m 12679 -9729 l 0 0 m 11860 -9101 l 0 0 m 13265 -10178 l 0 0 m 12679 -9729 l 0 0 m -51103 19787 l 0 0 m 12679 -9729 l 0 0 m 11860 -9101 l 0 0 m 13265 -10178 l 0 0 m -38424 10058 l 0 0 m 12679 -9729 l 0 0 m 11860 -9101 l 0 0 m 13265 -10178 l 0 0 m -25744 328 l 0 0 m 11860 -9101 l 0 0 m -12480 -9850 l 0 0 m 11860 -9101 l 0 0 m -12480 -9850 l 0 0 m -3161 202194 l 0 0 m -3949 -24945 l 0 0 m 7996 -1053 l 0 0 m 13359 -1759 l 0 0 m 5119 -674 l 0 0 m -27546 -21838 l 0 0 m 13359 -1759 l 0 0 m 5119 -674 l 0 0 m 7996 -1053 l 0 0 m 13359 -1759 l 0 0 m 5119 -674 l 0 0 m -40661 -20111 l 0 0 m 5119 -674 l 0 0 m 7996 -1053 l 0 0 m 13359 -1759 l 0 0 m 5119 -674 l 0 0 m 7996 -1053 l 0 0 m -43538 -19733 l 0 0 m 7996 -1053 l 0 0 m 13359 -1759 l 0 0 m 5119 -674 l 0 0 m 7996 -1053 l 0 0 m 13359 -1759 l 0 0 m 5119 -674 l 0 0 m -54020 -18353 l 0 0 m 13359 -1759 l 0 0 m 5119 -674 l 0 0 m 7996 -1053 l 0 0 m 13359 -1759 l 0 0 m 5119 -674 l 0 0 m 7996 -1053 l 0 0 m -48657 -19059 l 0 0 m 5119 -674 l 0 0 m 7996 -1053 l 0 0 m 13359 -1759 l 0 0 m 5119 -674 l 0 0 m 7996 -1053 l 0 0 m -43538 -19733 l 0 0 m 7996 -1053 l 0 0 m 13359 -1759 l 0 0 m 5119 -674 l 0 0 m 7996 -1053 l 0 0 m -35542 -20785 l 0 0 m 13359 -1759 l 0 0 m 5119 -674 l 0 0 m -11546 205945 l 0 0 m -7943 -24628 l 0 0 m 4147 2642 l 0 0 m 14931 9512 l 0 0 m -7943 -24628 l 0 0 m 19493 12418 l 0 0 m -27436 -37046 l 0 0 m 19493 12418 l 0 0 m 4147 2642 l 0 0 m -12091 -27270 l 0 0 m 4147 2642 l 0 0 m 14931 9512 l 0 0 m -27021 -36782 l 0 0 m 4147 2642 l 0 0 m 14931 9512 l 0 0 m 19493 12418 l 0 0 m 4147 2642 l 0 0 m -46514 -49201 l 0 0 m 14931 9512 l 0 0 m 19493 12418 l 0 0 m 4147 2642 l 0 0 m -31584 -39689 l 0 0 m 19493 12418 l 0 0 m 4147 2642 l 0 0 m 14931 9512 l 0 0 m -46514 -49201 l 0 0 m 19493 12418 l 0 0 m 4147 2642 l 0 0 m 14931 9512 l 0 0 m -27021 -36782 l 0 0 m 4147 2642 l 0 0 m 14931 9512 l 0 0 m -27021 -36782 l 0 0 m 4147 2642 l 0 0 m 14931 9512 l 0 0 m -22874 -34140 l 0 0 m 14931 9512 l 0 0 m -17135 190802 l 0 0 m 1813 1661 l 0 0 m 8556 7841 l 0 0 m -962 -36605 l 0 0 m 1813 1661 l 0 0 m 8556 7841 l 0 0 m 9789 8970 l 0 0 m 1813 1661 l 0 0 m -30910 -64047 l 0 0 m 8556 7841 l 0 0 m 9789 8970 l 0 0 m 1813 1661 l 0 0 m 8556 7841 l 0 0 m 9789 8970 l 0 0 m 1813 1661 l 0 0 m -32722 -65708 l 0 0 m 1813 1661 l 0 0 m 8556 7841 l 0 0 m 9789 8970 l 0 0 m 1813 1661 l 0 0 m 8556 7841 l 0 0 m 9789 8970 l 0 0 m 1813 1661 l 0 0 m -42511 -74678 l 0 0 m 9789 8970 l 0 0 m 1813 1661 l 0 0 m 8556 7841 l 0 0 m 9789 8970 l 0 0 m 1813 1661 l 0 0 m 8556 7841 l 0 0 m -41279 -73549 l 0 0 m 1813 1661 l 0 0 m 8556 7841 l 0 0 m 9789 8970 l 0 0 m 1813 1661 l 0 0 m 8556 7841 l 0 0 m 9789 8970 l 0 0 m 1813 1661 l 0 0" class="C1"/><path d="M 678436 962938 c 36464 -27952 57844 -71280 57844 -117225 c 0 -45945 -21380 -89273 -57844 -117225 l 0 234450" class="C1"/><path d="M 453685 905887 c 18418 41287 54730 71866 98550 82989 c 43820 11123 90320 1566 126200 -25939" class="C1"/><path d="M 453685 905887 c -4848 -10867 -15634 -17866 -27533 -17866" class="C1"/><path d="M 420492 863375 l 10214 0" class="C1"/><path d="M 410153 876782 l 10339 0" class="C1"/><path d="M 419248 853678 l 3126 0" class="C1"/><path d="M 678436 728488 c -35880 -27504 -82381 -37062 -126200 -25939 c -43820 11123 -80132 41702 -98550 82989" class="C1"/><path d="M 426152 803405 c 11899 0 22686 -6999 27533 -17866" class="C1"/><path d="M 420492 828052 l 10214 0" class="C1"/><path d="M 419248 837749 l 3126 0" class="C1"/><path d="M 410153 814645 l 10339 0" class="C1"/><path d="M 415323 814645 l -6120 -6120" class="C1"/><path d="M 414369 814645 l 5 93 14 93 23 91 32 88 40 85 48 80 56 75 63 69 69 63 75 56 80 48 85 40 88 32 91 23 93 14 93 5 93 -5 93 -14 91 -23 88 -32 85 -40 80 -48 75 -56 69 -63 63 -69 56 -75 48 -80 40 -85 32 -88 23 -91 14 -93 5 -93 -953 0 Z" class="C2"/><path d="M 416276 814645 l -5 -93 -14 -93 -23 -91 -32 -88 -40 -85 -48 -80 -56 -75 -63 -69 -69 -63 -75 -56 -80 -48 -85 -40 -88 -32 -91 -23 -93 -14 -93 -5 -93 5 -93 14 -91 23 -88 32 -85 40 -80 48 -75 56 -69 63 -63 69 -56 75 -48 80 -40 85 -32 88 -23 91 -14 93 -5 93 953 0 Z" class="C2"/><path d="M 134543 791543 c 0 12859 -10424 23282 -23282 23282 c -12859 0 -23282 -10424 -23282 -23282 c 0 -12859 10424 -23282 23282 -23282 c 12859 0 23282 10424 23282 23282" class="C1"/><path d="M 92048 792025 l 10001 0" class="C1"/><path d="M 120509 791401 l 10157 0" class="C1"/><path d="M 125510 786717 l 0 9367" class="C1"/><path d="M 60039 855122 c 0 12859 -10424 23282 -23282 23282 c -12859 0 -23282 -10424 -23282 -23282 c 0 -12859 10424 -23282 23282 -23282 c 12859 0 23282 10424 23282 23282" class="C1"/><path d="M 46006 854980 l 10157 0" class="C1"/><path d="M 17544 855604 l 10001 0" class="C1"/><path d="M 51006 850296 l 0 9367" class="C1"/><path d="M 154721 914566 c 0 12859 -10424 23282 -23282 23282 c -12859 0 -23282 -10424 -23282 -23282 c 0 -12859 10424 -23282 23282 -23282 c 12859 0 23282 10424 23282 23282" class="C1"/><path d="M 140688 914423 l 10157 0" class="C1"/><path d="M 112226 915048 l 10001 0" class="C1"/><path d="M 145688 909740 l 0 9367" class="C1"/><path d="M 134543 791543 l 16556 0" class="C1"/><path d="M 151099 791543 l 19711 25555" class="C1"/><path d="M 87978 791543 l -10865 0" class="C1"/><path d="M 77113 791543 l 0 35556" class="C1"/><path d="M 170810 827099 l -93698 0" class="C1"/><path d="M 77113 827099 l -77091 0" class="C1"/><path d="M 22 827099 l 0 28023" class="C1"/><path d="M 13474 855122 l -13452 0" class="C1"/><path d="M 60039 855122 l 34148 0" class="C1"/><path d="M 94186 855122 l 77577 -16513" class="C1"/><path d="M 94186 855122 l 0 59444" class="C1"/><path d="M 108156 914566 l -13969 0" class="C1"/><path d="M 154721 914566 l 7243 0" class="C1"/><path d="M 171764 852817 l -9800 29183" class="C1"/><path d="M 161964 882001 l 0 32565" class="C1"/><path d="M 93233 855122 l 5 93 14 93 23 91 32 88 40 85 48 80 56 75 63 69 69 63 75 56 80 48 85 40 88 32 91 23 93 14 93 5 93 -5 93 -14 91 -23 88 -32 85 -40 80 -48 75 -56 69 -63 63 -69 56 -75 48 -80 40 -85 32 -88 23 -91 14 -93 5 -93 -953 0 Z" class="C2"/><path d="M 95140 855122 l -5 -93 -14 -93 -23 -91 -32 -88 -40 -85 -48 -80 -56 -75 -63 -69 -69 -63 -75 -56 -80 -48 -85 -40 -88 -32 -91 -23 -93 -14 -93 -5 -93 5 -93 14 -91 23 -88 32 -85 40 -80 48 -75 56 -69 63 -63 69 -56 75 -48 80 -40 85 -32 88 -23 91 -14 93 -5 93 953 0 Z" class="C2"/><path d="M 76159 827099 l 5 93 14 93 23 91 32 88 40 85 48 80 56 75 63 69 69 63 75 56 80 48 85 40 88 32 91 23 93 14 93 5 93 -5 93 -14 91 -23 88 -32 85 -40 80 -48 75 -56 69 -63 63 -69 56 -75 48 -80 40 -85 32 -88 23 -91 14 -93 5 -93 -953 0 Z" class="C2"/><path d="M 78066 827099 l -5 -93 -14 -93 -23 -91 -32 -88 -40 -85 -48 -80 -56 -75 -63 -69 -69 -63 -75 -56 -80 -48 -85 -40 -88 -32 -91 -23 -93 -14 -93 -5 -93 5 -93 14 -91 23 -88 32 -85 40 -80 48 -75 56 -69 63 -63 69 -56 75 -48 80 -40 85 -32 88 -23 91 -14 93 -5 93 953 0 Z" class="C2"/><path d="M 133589 791543 l 5 93 14 93 23 91 32 88 40 85 48 80 56 75 63 69 69 63 75 56 80 48 85 40 88 32 91 23 93 14 93 5 93 -5 93 -14 91 -23 88 -32 85 -40 80 -48 75 -56 69 -63 63 -69 56 -75 48 -80 40 -85 32 -88 23 -91 14 -93 5 -93 -953 0 Z" class="C2"/><path d="M 135496 791543 l -5 -93 -14 -93 -23 -91 -32 -88 -40 -85 -48 -80 -56 -75 -63 -69 -69 -63 -75 -56 -80 -48 -85 -40 -88 -32 -91 -23 -93 -14 -93 -5 -93 5 -93 14 -91 23 -88 32 -85 40 -80 48 -75 56 -69 63 -63 69 -56 75 -48 80 -40 85 -32 88 -23 91 -14 93 -5 93 953 0 Z" class="C2"/><path d="M 87024 791543 l 5 93 14 93 23 91 32 88 40 85 48 80 56 75 63 69 69 63 75 56 80 48 85 40 88 32 91 23 93 14 93 5 93 -5 93 -14 91 -23 88 -32 85 -40 80 -48 75 -56 69 -63 63 -69 56 -75 48 -80 40 -85 32 -88 23 -91 14 -93 5 -93 -953 0 Z" class="C2"/><path d="M 88931 791543 l -5 -93 -14 -93 -23 -91 -32 -88 -40 -85 -48 -80 -56 -75 -63 -69 -69 -63 -75 -56 -80 -48 -85 -40 -88 -32 -91 -23 -93 -14 -93 -5 -93 5 -93 14 -91 23 -88 32 -85 40 -80 48 -75 56 -69 63 -63 69 -56 75 -48 80 -40 85 -32 88 -23 91 -14 93 -5 93 953 0 Z" class="C2"/><path d="M 153767 914566 l 5 93 14 93 23 91 32 88 40 85 48 80 56 75 63 69 69 63 75 56 80 48 85 40 88 32 91 23 93 14 93 5 93 -5 93 -14 91 -23 88 -32 85 -40 80 -48 75 -56 69 -63 63 -69 56 -75 48 -80 40 -85 32 -88 23 -91 14 -93 5 -93 -953 0 Z" class="C2"/><path d="M 155674 914566 l -5 -93 -14 -93 -23 -91 -32 -88 -40 -85 -48 -80 -56 -75 -63 -69 -69 -63 -75 -56 -80 -48 -85 -40 -88 -32 -91 -23 -93 -14 -93 -5 -93 5 -93 14 -91 23 -88 32 -85 40 -80 48 -75 56 -69 63 -63 69 -56 75 -48 80 -40 85 -32 88 -23 91 -14 93 -5 93 953 0 Z" class="C2"/><path d="M 107202 914566 l 5 93 14 93 23 91 32 88 40 85 48 80 56 75 63 69 69 63 75 56 80 48 85 40 88 32 91 23 93 14 93 5 93 -5 93 -14 91 -23 88 -32 85 -40 80 -48 75 -56 69 -63 63 -69 56 -75 48 -80 40 -85 32 -88 23 -91 14 -93 5 -93 -953 0 Z" class="C2"/><path d="M 109109 914566 l -5 -93 -14 -93 -23 -91 -32 -88 -40 -85 -48 -80 -56 -75 -63 -69 -69 -63 -75 -56 -80 -48 -85 -40 -88 -32 -91 -23 -93 -14 -93 -5 -93 5 -93 14 -91 23 -88 32 -85 40 -80 48 -75 56 -69 63 -63 69 -56 75 -48 80 -40 85 -32 88 -23 91 -14 93 -5 93 953 0 Z" class="C2"/><path d="M 59085 855122 l 5 93 14 93 23 91 32 88 40 85 48 80 56 75 63 69 69 63 75 56 80 48 85 40 88 32 91 23 93 14 93 5 93 -5 93 -14 91 -23 88 -32 85 -40 80 -48 75 -56 69 -63 63 -69 56 -75 48 -80 40 -85 32 -88 23 -91 14 -93 5 -93 -953 0 Z" class="C2"/><path d="M 60992 855122 l -5 -93 -14 -93 -23 -91 -32 -88 -40 -85 -48 -80 -56 -75 -63 -69 -69 -63 -75 -56 -80 -48 -85 -40 -88 -32 -91 -23 -93 -14 -93 -5 -93 5 -93 14 -91 23 -88 32 -85 40 -80 48 -75 56 -69 63 -63 69 -56 75 -48 80 -40 85 -32 88 -23 91 -14 93 -5 93 953 0 Z" class="C2"/><path d="M 12520 855122 l 5 93 14 93 23 91 32 88 40 85 48 80 56 75 63 69 69 63 75 56 80 48 85 40 88 32 91 23 93 14 93 5 93 -5 93 -14 91 -23 88 -32 85 -40 80 -48 75 -56 69 -63 63 -69 56 -75 48 -80 40 -85 32 -88 23 -91 14 -93 5 -93 -953 0 Z" class="C2"/><path d="M 14427 855122 l -5 -93 -14 -93 -23 -91 -32 -88 -40 -85 -48 -80 -56 -75 -63 -69 -69 -63 -75 -56 -80 -48 -85 -40 -88 -32 -91 -23 -93 -14 -93 -5 -93 5 -93 14 -91 23 -88 32 -85 40 -80 48 -75 56 -69 63 -63 69 -56 75 -48 80 -40 85 -32 88 -23 91 -14 93 -5 93 953 0 Z" class="C2"/></g></svg>