<?xml version='1.0' encoding='UTF-8'?>
<svg xmlns="http://www.w3.org/2000/svg" width="200.0mm" height="35.0mm" viewBox="318904 218154 707292 123873"><defs><style>.C1 {stroke: #000000; stroke-width: 491.545; stroke-opacity: 1.000; fill: none; fill-opacity: 1.000;}</style><style>.C2 {stroke: none; stroke-width: none; stroke-opacity: 1.000; fill: #000000; fill-opacity: 1.000;}</style></defs><rect fill="#ffffff" x="318904" y="218154" width="707292" height="123873" fill-opacity="1.0"/><g stroke-linecap="round" stroke-linejoin="round"><path d="M 345100 253195 l 51615 0" class="C1"/><path d="M 345100 260390 l 51615 0" class="C1"/><path d="M 345100 267585 l 51615 0" class="C1"/><path d="M 345100 274781 l 51615 0" class="C1"/><path d="M 345100 281976 l 51615 0" class="C1"/><path d="M 345100 289171 l 51615 0" class="C1"/><path d="M 345100 296367 l 51615 0" class="C1"/><path d="M 345100 302962 l 51615 0" class="C1"/><path d="M 449489 287743 l 44700 25807" class="C1"/><path d="M 452787 282031 l 44700 25807" class="C1"/><path d="M 456385 275799 l 44700 25807" class="C1"/><path d="M 459983 269568 l 44700 25807" class="C1"/><path d="M 463580 263337 l 44700 25807" class="C1"/><path d="M 467178 257105 l 44700 25807" class="C1"/><path d="M 470776 250874 l 44700 25807" class="C1"/><path d="M 474373 244643 l 44700 25807" class="C1"/><path d="M 587479 255143 l 25807 44700" class="C1"/><path d="M 581248 258741 l 25807 44700" class="C1"/><path d="M 575016 262339 l 25807 44700" class="C1"/><path d="M 568785 265936 l 25807 44700" class="C1"/><path d="M 563073 269234 l 25807 44700" class="C1"/><path d="M 606173 244350 l 25807 44700" class="C1"/><path d="M 599942 247948 l 25807 44700" class="C1"/><path d="M 593710 251546 l 25807 44700" class="C1"/><path d="M 715646 253733 l 0 51615" class="C1"/><path d="M 708451 253733 l 0 51615" class="C1"/><path d="M 701255 253733 l 0 51615" class="C1"/><path d="M 694060 253733 l -0 51615" class="C1"/><path d="M 687464 253733 l -0 51615" class="C1"/><path d="M 737232 253733 l 0 51615" class="C1"/><path d="M 730037 253733 l 0 51615" class="C1"/><path d="M 722841 253733 l 0 51615" class="C1"/><path d="M 839063 260338 l -25807 44700" class="C1"/><path d="M 832832 256741 l -25807 44700" class="C1"/><path d="M 826600 253143 l -25807 44700" class="C1"/><path d="M 820369 249545 l -25807 44700" class="C1"/><path d="M 814657 246247 l -25807 44700" class="C1"/><path d="M 857757 271131 l -25807 44700" class="C1"/><path d="M 851526 267534 l -25807 44700" class="C1"/><path d="M 845294 263936 l -25807 44700" class="C1"/><path d="M 915338 295320 l 11 220 32 218 54 214 74 207 94 199 113 189 131 177 148 163 163 148 177 131 189 113 199 94 207 74 214 54 218 32 220 11 220 -11 218 -32 214 -54 207 -74 199 -94 189 -113 177 -131 163 -148 148 -163 131 -177 113 -189 94 -199 74 -207 54 -214 32 -218 11 -220 -2245 0 Z" class="C2"/><path d="M 919828 295320 l -11 -220 -32 -218 -54 -214 -74 -207 -94 -199 -113 -189 -131 -177 -148 -163 -163 -148 -177 -131 -189 -113 -199 -94 -207 -74 -214 -54 -218 -32 -220 -11 -220 11 -218 32 -214 54 -207 74 -199 94 -189 113 -177 131 -163 148 -148 163 -131 177 -113 189 -94 199 -74 207 -54 214 -32 218 -11 220 2245 0 Z" class="C2"/><path d="M 942062 295320 l 11 220 32 218 54 214 74 207 94 199 113 189 131 177 148 163 163 148 177 131 189 113 199 94 207 74 214 54 218 32 220 11 220 -11 218 -32 214 -54 207 -74 199 -94 189 -113 177 -131 163 -148 148 -163 131 -177 113 -189 94 -199 74 -207 54 -214 32 -218 11 -220 -2245 0 Z" class="C2"/><path d="M 946552 295320 l -11 -220 -32 -218 -54 -214 -74 -207 -94 -199 -113 -189 -131 -177 -148 -163 -163 -148 -177 -131 -189 -113 -199 -94 -207 -74 -214 -54 -218 -32 -220 -11 -220 11 -218 32 -214 54 -207 74 -199 94 -189 113 -177 131 -163 148 -148 163 -131 177 -113 189 -94 199 -74 207 -54 214 -32 218 -11 220 2245 0 Z" class="C2"/><path d="M 968786 295320 l 11 220 32 218 54 214 74 207 94 199 113 189 131 177 148 163 163 148 177 131 189 113 199 94 207 74 214 54 218 32 220 11 220 -11 218 -32 214 -54 207 -74 199 -94 189 -113 177 -131 163 -148 148 -163 131 -177 113 -189 94 -199 74 -207 54 -214 32 -218 11 -220 -2245 0 Z" class="C2"/><path d="M 973276 295320 l -11 -220 -32 -218 -54 -214 -74 -207 -94 -199 -113 -189 -131 -177 -148 -163 -163 -148 -177 -131 -189 -113 -199 -94 -207 -74 -214 -54 -218 -32 -220 -11 -220 11 -218 32 -214 54 -207 74 -199 94 -189 113 -177 131 -163 148 -148 163 -131 177 -113 189 -94 199 -74 207 -54 214 -32 218 -11 220 2245 0 Z" class="C2"/><path d="M 995509 295320 l 11 220 32 218 54 214 74 207 94 199 113 189 131 177 148 163 163 148 177 131 189 113 199 94 207 74 214 54 218 32 220 11 220 -11 218 -32 214 -54 207 -74 199 -94 189 -113 177 -131 163 -148 148 -163 131 -177 113 -189 94 -199 74 -207 54 -214 32 -218 11 -220 -2245 0 Z" class="C2"/><path d="M 1000000 295320 l -11 -220 -32 -218 -54 -214 -74 -207 -94 -199 -113 -189 -131 -177 -148 -163 -163 -148 -177 -131 -189 -113 -199 -94 -207 -74 -214 -54 -218 -32 -220 -11 -220 11 -218 32 -214 54 -207 74 -199 94 -189 113 -177 131 -163 148 -148 163 -131 177 -113 189 -94 199 -74 207 -54 214 -32 218 -11 220 2245 0 Z" class="C2"/><path d="M 415760 277502 l 23127 0" class="C1"/><path d="M 427324 265938 l 0 23127" class="C1"/><path d="M 530377 277502 l 23127 0" class="C1"/><path d="M 541941 265938 l 0 23127" class="C1"/><path d="M 644995 277502 l 23127 0" class="C1"/><path d="M 656558 265938 l 0 23127" class="C1"/><path d="M 760736 277502 l 23127 0" class="C1"/><path d="M 772299 265938 l 0 23127" class="C1"/><path d="M 873106 277502 l 23127 0" class="C1"/><path d="M 884669 265938 l 0 23127" class="C1"/></g></svg>