<?xml version='1.0' encoding='UTF-8'?>
<svg xmlns="http://www.w3.org/2000/svg" width="200.0mm" height="147.2mm" viewBox="-11824 339011 319238 234885"><defs><style>.C1 {stroke: #000000; stroke-width: 221.889; stroke-opacity: 1.000; fill: none; fill-opacity: 1.000;}</style><style>.C2 {stroke: none; stroke-width: none; stroke-opacity: 1.000; fill: #000000; fill-opacity: 1.000;}</style></defs><rect fill="#ffffff" x="-11824" y="339011" width="319238" height="234885" fill-opacity="1.0"/><g stroke-linecap="round" stroke-linejoin="round"><path d="M 109036 456407 l 135807 0" class="C1"/><path d="M 98161 458636 l 21751 15602" class="C1"/><path d="M 98161 453621 l 21751 15602" class="C1"/><path d="M 98161 448606 l 21751 15602" class="C1"/><path d="M 98161 463651 l 21751 15602" class="C1"/><path d="M 109036 456407 l -109036 0" class="C1"/><path d="M 98161 443591 l 21751 15602" class="C1"/><path d="M 98161 438576 l 21751 15602" class="C1"/><path d="M 98161 433561 l 21751 15602" class="C1"/><path d="M 237600 456407 l 35 710 104 703 173 690 239 669 304 643 365 610 423 571 477 527 527 477 571 423 610 365 643 304 669 239 690 173 703 104 710 35 710 -35 703 -104 690 -173 669 -239 643 -304 610 -365 571 -423 527 -477 477 -527 423 -571 365 -610 304 -643 239 -669 173 -690 104 -703 35 -710 -7244 0 Z" class="C2"/><path d="M 252087 456407 l -35 -710 -104 -703 -173 -690 -239 -669 -304 -643 -365 -610 -423 -571 -477 -527 -527 -477 -571 -423 -610 -365 -643 -304 -669 -239 -690 -173 -703 -104 -710 -35 -710 35 -703 104 -690 173 -669 239 -643 304 -610 365 -571 423 -527 477 -477 527 -423 571 -365 610 -304 643 -239 669 -173 690 -104 703 -35 710 7244 0 Z" class="C2"/><path d="M 244844 388427 c 14747 0 26702 30435 26702 67979 c 0 37544 -11955 67979 -26702 67979 c -14747 0 -26702 -30435 -26702 -67979 c 0 -37544 11955 -67979 26702 -67979" class="C1"/><path d="M 244844 354438 c 26017 0 47108 45653 47108 101969 c 0 56316 -21091 101969 -47108 101969 c -26017 0 -47108 -45653 -47108 -101969 c 0 -56316 21091 -101969 47108 -101969" class="C1"/><path d="M 244844 384826 c 488 0 976 25 1462 76 c 1256 131 2496 430 3696 880 c 1574 591 3076 1438 4496 2496 c 1420 1058 2760 2327 4028 3782 c 2083 2389 3977 5281 5693 8608 c 1717 3327 3254 7092 4598 11214 c 1343 4122 2492 8601 3425 13334 c 933 4733 1651 9720 2138 14841 c 487 5121 745 10376 766 15637 c 21 5261 -193 10527 -639 15672 c -446 5144 -1123 10165 -2017 14943 c -894 4778 -2005 9312 -3313 13497 c -1308 4185 -2812 8022 -4496 11428 c -1684 3405 -3546 6381 -5594 8861 c -939 1137 -1919 2170 -2941 3090 c -1023 920 -2089 1727 -3202 2405 c -1112 679 -2272 1229 -3468 1631 c -1197 401 -2431 652 -3676 736 c -1245 84 -2498 2 -3727 -241 c -1462 -290 -2885 -806 -4244 -1513 c -1358 -707 -2652 -1604 -3883 -2663 c -1577 -1357 -3052 -2980 -4437 -4838 c -1736 -2329 -3331 -5029 -4788 -8056 c -1911 -3968 -3583 -8501 -4992 -13468 c -1408 -4967 -2551 -10369 -3399 -16038 c -848 -5669 -1402 -11605 -1645 -17619 c -197 -4873 -191 -9797 19 -14668 c 210 -4870 622 -9687 1231 -14348 c 608 -4661 1412 -9167 2398 -13425 c 986 -4258 2153 -8268 3485 -11950 c 1332 -3683 2829 -7038 4480 -10006 c 1651 -2967 3455 -5549 5427 -7689 c 938 -1018 1915 -1936 2933 -2744 c 1018 -808 2079 -1507 3181 -2080 c 1103 -573 2248 -1021 3422 -1323 c 1175 -302 2378 -458 3583 -458" class="C1"/><path d="M 244844 392028 c 687 0 1376 100 2095 317 c 766 230 1568 595 2404 1122 c 836 527 1705 1217 2585 2081 c 1242 1219 2505 2785 3732 4677 c 1227 1892 2417 4109 3533 6609 c 1602 3588 3051 7760 4276 12362 c 1225 4602 2227 9632 2966 14918 c 739 5285 1215 10825 1409 16431 c 195 5606 108 11279 -256 16827 c -364 5548 -1006 10972 -1901 16086 c -607 3470 -1331 6798 -2157 9930 c -826 3132 -1755 6068 -2766 8758 c -1012 2690 -2106 5135 -3255 7291 c -1149 2156 -2353 4022 -3568 5566 c -768 976 -1540 1823 -2302 2541 c -762 717 -1513 1304 -2241 1768 c -727 464 -1429 805 -2103 1041 c -674 236 -1320 369 -1958 415 c -637 46 -1268 4 -1918 -130 c -650 -134 -1322 -362 -2022 -704 c -896 -437 -1839 -1064 -2806 -1903 c -967 -839 -1957 -1891 -2939 -3153 c -1414 -1818 -2810 -4072 -4123 -6708 c -1312 -2636 -2542 -5654 -3648 -8981 c -1435 -4315 -2661 -9151 -3625 -14330 c -964 -5179 -1665 -10699 -2077 -16364 c -411 -5665 -532 -11473 -357 -17221 c 127 -4172 409 -8312 840 -12341 c 431 -4030 1011 -7950 1728 -11686 c 717 -3736 1571 -7287 2541 -10585 c 971 -3298 2058 -6342 3234 -9069 c 1175 -2727 2439 -5138 3745 -7180 c 763 -1192 1540 -2258 2318 -3192 c 779 -934 1559 -1736 2325 -2405 c 766 -669 1518 -1205 2243 -1618 c 725 -413 1421 -704 2091 -892 c 670 -189 1315 -277 1958 -277" class="C1"/><path d="M 244844 350837 c 1732 0 3463 178 5176 530 c 2622 539 5197 1484 7683 2799 c 2486 1314 4884 2995 7180 5005 c 3726 3263 7185 7393 10339 12263 c 3154 4870 6004 10483 8502 16695 c 2497 6213 4642 13026 6386 20265 c 1745 7239 3090 14903 4004 22791 c 914 7889 1397 16001 1437 24124 c 40 8123 -363 16255 -1200 24182 c -837 7927 -2106 15649 -3779 22962 c -1673 7314 -3748 14219 -6182 20538 c -2434 6319 -5224 12053 -8323 17055 c -3099 5002 -6506 9276 -10183 12694 c -1894 1761 -3861 3295 -5893 4581 c -2032 1286 -4130 2324 -6277 3090 c -2147 766 -4344 1258 -6556 1460 c -2212 202 -4438 113 -6638 -264 c -2623 -449 -5207 -1307 -7704 -2536 c -2498 -1229 -4911 -2827 -7223 -4756 c -3270 -2729 -6341 -6121 -9187 -10090 c -2846 -3969 -5469 -8518 -7838 -13558 c -2369 -5040 -4484 -10571 -6313 -16486 c -1829 -5916 -3371 -12217 -4601 -18779 c -1230 -6562 -2147 -13385 -2734 -20334 c -588 -6949 -846 -14022 -770 -21080 c 76 -7058 486 -14099 1223 -20983 c 737 -6884 1800 -13611 3172 -20048 c 1371 -6436 3050 -12582 5008 -18317 c 1958 -5735 4195 -11059 6678 -15870 c 2484 -4811 5213 -9110 8161 -12811 c 2947 -3701 6114 -6806 9473 -9227 c 1761 -1268 3575 -2348 5434 -3224 c 1859 -875 3763 -1546 5696 -1995 c 1932 -450 3892 -678 5852 -678" class="C1"/><path d="M 244844 358039 c 51 0 103 0 154 1 c 1731 15 3464 275 5212 793 c 1747 518 3509 1294 5275 2344 c 2134 1269 4272 2939 6372 5012 c 2100 2072 4160 4545 6135 7392 c 2466 3553 4799 7688 6932 12316 c 2133 4629 4067 9751 5752 15257 c 1685 5506 3121 11397 4275 17548 c 1154 6152 2026 12564 2597 19105 c 570 6541 839 13210 800 19870 c -39 6660 -386 13312 -1032 19818 c -647 6506 -1593 12866 -2818 18950 c -1225 6083 -2729 11889 -4476 17296 c -1747 5407 -3738 10415 -5920 14917 c -1472 3036 -3031 5841 -4656 8390 c -1625 2549 -3317 4840 -5051 6855 c -1734 2014 -3509 3751 -5298 5201 c -1789 1450 -3590 2613 -5382 3496 c -1792 883 -3573 1488 -5341 1832 c -1768 344 -3525 429 -5287 258 c -1762 -171 -3533 -598 -5317 -1297 c -1785 -699 -3583 -1672 -5378 -2931 c -2213 -1552 -4420 -3541 -6567 -5955 c -2148 -2414 -4236 -5253 -6218 -8479 c -2463 -4008 -4761 -8612 -6828 -13708 c -2066 -5096 -3901 -10683 -5456 -16636 c -1555 -5952 -2830 -12270 -3794 -18812 c -964 -6542 -1617 -13309 -1944 -20152 c -327 -6843 -327 -13761 -1 -20604 c 326 -6843 979 -13610 1942 -20152 c 963 -6543 2238 -12861 3792 -18814 c 1554 -5953 3388 -11542 5454 -16639 c 1423 -3512 2956 -6790 4578 -9801 c 1622 -3010 3332 -5752 5105 -8196 c 1773 -2444 3608 -4590 5474 -6420 c 1866 -1830 3763 -3343 5658 -4539 c 1896 -1196 3789 -2074 5665 -2654 c 1876 -580 3735 -863 5593 -863" class="C1"/><path d="M 109036 456407 l 130557 -66652" class="C1"/><path d="M 109036 456407 l 119467 -95638" class="C1"/><path d="M 109036 456407 l 130557 66652" class="C1"/><path d="M 109036 456407 l 119467 95638" class="C1"/></g></svg>