<?xml version='1.0' encoding='UTF-8'?>
<svg xmlns="http://www.w3.org/2000/svg" width="200.0mm" height="175.3mm" viewBox="-10083 -10062 272254 238591"><defs><style>.C1 {stroke: #000000; stroke-width: 189.2; stroke-opacity: 1.000; fill: none; fill-opacity: 1.000;}</style><style>.C2 {stroke: none; stroke-width: none; stroke-opacity: 1.000; fill: #000000; fill-opacity: 1.000;}</style></defs><rect fill="#ffffff" x="-10083" y="-10062" width="272254" height="238591" fill-opacity="1.0"/><g stroke-linecap="round" stroke-linejoin="round"><path d="M 98161 86387 l 21751 15602" class="C1"/><path d="M 98161 91402 l 21751 15602" class="C1"/><path d="M 98161 96417 l 21751 15602" class="C1"/><path d="M 98161 101432 l 21751 15602" class="C1"/><path d="M 98161 106447 l 21751 15602" class="C1"/><path d="M 98161 111462 l 21751 15602" class="C1"/><path d="M 98161 116477 l 21751 15602" class="C1"/><path d="M 109036 109233 l -109036 0" class="C1"/><path d="M 109036 109233 l 135807 0" class="C1"/><path d="M 244844 7264 l -135807 101969" class="C1"/><path d="M 109036 109233 l 135807 -67979" class="C1"/><path d="M 109036 109233 l 135807 67979" class="C1"/><path d="M 244844 211202 l -135807 -101969" class="C1"/><path d="M 237600 41253 l 35 710 104 703 173 690 239 669 304 643 365 610 423 571 477 527 527 477 571 423 610 365 643 304 669 239 690 173 703 104 710 35 710 -35 703 -104 690 -173 669 -239 643 -304 610 -365 571 -423 527 -477 477 -527 423 -571 365 -610 304 -643 239 -669 173 -690 104 -703 35 -710 -7244 0 Z" class="C2"/><path d="M 252087 41253 l -35 -710 -104 -703 -173 -690 -239 -669 -304 -643 -365 -610 -423 -571 -477 -527 -527 -477 -571 -423 -610 -365 -643 -304 -669 -239 -690 -173 -703 -104 -710 -35 -710 35 -703 104 -690 173 -669 239 -643 304 -610 365 -571 423 -527 477 -477 527 -423 571 -365 610 -304 643 -239 669 -173 690 -104 703 -35 710 7244 0 Z" class="C2"/><path d="M 237600 7264 l 35 710 104 703 173 690 239 669 304 643 365 610 423 571 477 527 527 477 571 423 610 365 643 304 669 239 690 173 703 104 710 35 710 -35 703 -104 690 -173 669 -239 643 -304 610 -365 571 -423 527 -477 477 -527 423 -571 365 -610 304 -643 239 -669 173 -690 104 -703 35 -710 -7244 0 Z" class="C2"/><path d="M 252087 7264 l -35 -710 -104 -703 -173 -690 -239 -669 -304 -643 -365 -610 -423 -571 -477 -527 -527 -477 -571 -423 -610 -365 -643 -304 -669 -239 -690 -173 -703 -104 -710 -35 -710 35 -703 104 -690 173 -669 239 -643 304 -610 365 -571 423 -527 477 -477 527 -423 571 -365 610 -304 643 -239 669 -173 690 -104 703 -35 710 7244 0 Z" class="C2"/><path d="M 237600 109233 l 35 710 104 703 173 690 239 669 304 643 365 610 423 571 477 527 527 477 571 423 610 365 643 304 669 239 690 173 703 104 710 35 710 -35 703 -104 690 -173 669 -239 643 -304 610 -365 571 -423 527 -477 477 -527 423 -571 365 -610 304 -643 239 -669 173 -690 104 -703 35 -710 -7244 0 Z" class="C2"/><path d="M 252087 109233 l -35 -710 -104 -703 -173 -690 -239 -669 -304 -643 -365 -610 -423 -571 -477 -527 -527 -477 -571 -423 -610 -365 -643 -304 -669 -239 -690 -173 -703 -104 -710 -35 -710 35 -703 104 -690 173 -669 239 -643 304 -610 365 -571 423 -527 477 -477 527 -423 571 -365 610 -304 643 -239 669 -173 690 -104 703 -35 710 7244 0 Z" class="C2"/><path d="M 237600 177212 l 35 710 104 703 173 690 239 669 304 643 365 610 423 571 477 527 527 477 571 423 610 365 643 304 669 239 690 173 703 104 710 35 710 -35 703 -104 690 -173 669 -239 643 -304 610 -365 571 -423 527 -477 477 -527 423 -571 365 -610 304 -643 239 -669 173 -690 104 -703 35 -710 -7244 0 Z" class="C2"/><path d="M 252087 177212 l -35 -710 -104 -703 -173 -690 -239 -669 -304 -643 -365 -610 -423 -571 -477 -527 -527 -477 -571 -423 -610 -365 -643 -304 -669 -239 -690 -173 -703 -104 -710 -35 -710 35 -703 104 -690 173 -669 239 -643 304 -610 365 -571 423 -527 477 -477 527 -423 571 -365 610 -304 643 -239 669 -173 690 -104 703 -35 710 7244 0 Z" class="C2"/><path d="M 237600 211202 l 35 710 104 703 173 690 239 669 304 643 365 610 423 571 477 527 527 477 571 423 610 365 643 304 669 239 690 173 703 104 710 35 710 -35 703 -104 690 -173 669 -239 643 -304 610 -365 571 -423 527 -477 477 -527 423 -571 365 -610 304 -643 239 -669 173 -690 104 -703 35 -710 -7244 0 Z" class="C2"/><path d="M 252087 211202 l -35 -710 -104 -703 -173 -690 -239 -669 -304 -643 -365 -610 -423 -571 -477 -527 -527 -477 -571 -423 -610 -365 -643 -304 -669 -239 -690 -173 -703 -104 -710 -35 -710 35 -703 104 -690 173 -669 239 -643 304 -610 365 -571 423 -527 477 -477 527 -423 571 -365 610 -304 643 -239 669 -173 690 -104 703 -35 710 7244 0 Z" class="C2"/></g></svg>