<?xml version='1.0' encoding='utf-8'?>
<svg xmlns="http://www.w3.org/2000/svg" width="359.7mm" height="170mm" viewBox="0 0 1000000 472616"><defs><style>.C1 {stroke: #000000; stroke-width: 695; stroke-opacity: 1.000; fill: none; fill-opacity: 1.000;}</style><style>.C2 {stroke: none; stroke-width: none; stroke-opacity: 1.000; fill: #000000; fill-opacity: 1.000;}</style></defs><rect fill="#ffffff" x="0" y="0" width="1000000" height="472616" fill-opacity="1.0" /><g stroke-linecap="round" stroke-linejoin="round" fill-rule="evenodd"><path d="M 197252 207418 l 0 57781" class="C1" /><path d="M 197252 265198 l 10381 0" class="C1" /><path d="M 207632 265198 l 0 -57781" class="C1" /><path d="M 207632 207418 l -10381 0" class="C1" /><path d="M 205442 265198 l 0 -57781" class="C1" /><path d="M 202521 265198 l 0 -57781" class="C1" /><path d="M 199601 265198 l 0 -57781" class="C1" /><path d="M 197252 236308 l -197232 0" class="C1" /><path d="M 449352 0 l 0 472616" class="C1" /><path d="M 207632 236308 l 241720 -131118" class="C1" /><path d="M 207632 236308 l 241720 -199269" class="C1" /><path d="M 207632 236308 l 241720 199269" class="C1" /><path d="M 207632 236308 l 241720 131118" class="C1" /><path d="M 449352 12042 l 0 0 l 1435 5816 l 3923 4649 l 5837 3637 l 7177 2780 l 7942 2078 l 8133 1532 l 7751 1141 l 6794 905 l 5359 802 l 3828 746 l 2297 714 l 766 706 l -766 722 l -2297 762 l -3828 827 l -5359 915 l -6794 1047 l -7751 1295 l -8133 1678 l -7942 2196 l -7177 2849 l -5837 3637 l -3923 4561 l -1435 5619 l 0 -34407 l 65323 6193 l 0 4129 l -65323 7569 l 0 16515" class="C1" /><path d="M 434105 45856 l 3684 4468 11563 -13285 Z" class="C2" /><path d="M 207632 236308 l -17373 0" class="C1" /><path d="M 432701 110929 l 2761 5090 13890 -10829 Z" class="C2" /><path d="M 449352 79671 l 0 -0 l 1435 5816 l 3923 4649 l 5837 3637 l 7177 2780 l 7942 2078 l 8133 1532 l 7751 1141 l 6794 905 l 5359 802 l 3828 746 l 2297 714 l 766 706 l -766 722 l -2297 762 l -3828 827 l -5359 915 l -6794 1047 l -7751 1295 l -8133 1678 l -7942 2196 l -7177 2849 l -5837 3637 l -3923 4561 l -1435 5619 l 0 -34407 l 65323 6193 l 0 4129 l -65323 7569 l 0 16515" class="C1" /><path d="M 449352 209800 l 0 0 l 1995 5816 l 5458 4649 l 8127 3637 l 10005 2780 l 11089 2078 l 11382 1532 l 10881 1141 l 9588 905 l 7632 802 l 5528 746 l 3406 714 l 1266 706 l -893 722 l -3071 762 l -5266 827 l -7481 915 l -9572 1047 l -10978 1295 l -11557 1678 l -11310 2196 l -10236 2849 l -8335 3637 l -5607 4561 l -2053 5619 l 0 -34407 l 90770 6193 l 2691 4129 l -93461 7569 l 0 16515" class="C1" /><path d="M 449352 392945 l 0 0 l 1435 -5816 l 3923 -4649 l 5837 -3637 l 7177 -2780 l 7942 -2078 l 8133 -1532 l 7751 -1141 l 6794 -905 l 5359 -802 l 3828 -746 l 2297 -714 l 766 -706 l -766 -722 l -2297 -762 l -3828 -827 l -5359 -915 l -6794 -1047 l -7751 -1295 l -8133 -1678 l -7942 -2196 l -7177 -2849 l -5837 -3637 l -3923 -4561 l -1435 -5619 l 0 34407 l 65323 -6193 l 0 -4129 l -65323 -7569 l 0 -16515" class="C1" /><path d="M 432701 361687 l 2761 -5090 13890 10829 Z" class="C2" /><path d="M 434105 426760 l 3684 -4468 11563 13285 Z" class="C2" /><path d="M 449352 460574 l 0 0 l 1435 -5816 l 3923 -4649 l 5837 -3637 l 7177 -2780 l 7942 -2078 l 8133 -1532 l 7751 -1141 l 6794 -905 l 5359 -802 l 3828 -746 l 2297 -714 l 766 -706 l -766 -722 l -2297 -762 l -3828 -827 l -5359 -915 l -6794 -1047 l -7751 -1295 l -8133 -1678 l -7942 -2196 l -7177 -2849 l -5837 -3637 l -3923 -4561 l -1435 -5619 l 0 34407 l 65323 -6193 l 0 -4129 l -65323 -7569 l 0 -16515" class="C1" /><path d="M 923571 236308 c 0 72414 -58703 131118 -131118 131118 c -72414 0 -131118 -58703 -131118 -131118 c 0 -72414 58703 -131118 131118 -131118 c 72414 0 131118 58703 131118 131118" class="C1" /><path d="M 991722 236308 c 0 110053 -89216 199269 -199269 199269 c -110053 0 -199269 -89216 -199269 -199269 c 0 -110053 89216 -199269 199269 -199269 c 110053 0 199269 89216 199269 199269" class="C1" /><path d="M 802834 236308 c 0 5733 -4648 10381 -10381 10381 c -5733 0 -10381 -4648 -10381 -10381 c 0 -5733 4648 -10381 10381 -10381 c 5733 0 10381 4648 10381 10381" class="C1" /><path d="M 553699 236308 l 290657 0" class="C1" /><path d="M 931828 236308 c 0 76975 -62400 139375 -139375 139375 c -76975 -0 -139375 -62400 -139375 -139375 c 0 -76975 62400 -139375 139375 -139375 c 76975 0 139375 62400 139375 139375" class="C1" /><path d="M 915313 236308 c 0 67854 -55006 122860 -122860 122860 c -67854 -0 -122860 -55006 -122860 -122860 c 0 -67854 55006 -122860 122860 -122860 c 67854 0 122860 55006 122860 122860" class="C1" /><path d="M 983465 236308 c 0 105493 -85519 191012 -191012 191012 c -105493 0 -191012 -85519 -191012 -191012 c 0 -105493 85519 -191012 191012 -191012 c 105493 0 191012 85519 191012 191012" class="C1" /><path d="M 999980 236308 c 0 114614 -92913 207527 -207527 207527 c -114614 0 -207527 -92913 -207527 -207527 c 0 -114614 92913 -207527 207527 -207527 c 114614 0 207527 92913 207527 207527" class="C1" /><path d="M 811091 236308 c 0 10294 -8345 18638 -18638 18638 c -10294 0 -18638 -8345 -18638 -18638 c 0 -10294 8345 -18638 18638 -18638 c 10294 0 18638 8345 18638 18638" class="C1" /><path d="M 794576 236308 c 0 1173 -951 2123 -2123 2123 c -1173 0 -2123 -951 -2123 -2123 c 0 -1173 951 -2123 2123 -2123 c 1173 0 2123 951 2123 2123" class="C1" /><path d="M 431979 233413 l 0 5791 17373 -2895 Z" class="C2" /><path d="M 431979 236308 l -224347 0" class="C1" /><path d="M 384567 236308 l -11586 0" class="C1" /><path d="M 354589 115160 l -19373 15970" class="C1" /><path d="M 377874 225889 c -1983 -32403 -13173 -63568 -32254 -89832" class="C1" /><path d="M 379611 225836 l -3473 106 2055 10366 Z" class="C2" /><path d="M 344246 137121 l 2747 -2127 -7755 -7178 Z" class="C2" /><path d="M 316002 236308 l -6067 0" class="C1" /><path d="M 299962 186225 l 6758 -3666" class="C1" /><path d="M 314641 225896 c -1054 -10830 -3745 -21437 -7983 -31459" class="C1" /><path d="M 316377 225812 l -3471 168 2241 10327 Z" class="C2" /><path d="M 305093 195191 l 3131 -1507 -6086 -8639 Z" class="C2" /></g></svg>