<?xml version='1.0' encoding='utf-8'?>
<svg xmlns="http://www.w3.org/2000/svg" width="556.3mm" height="359.1mm" viewBox="0 0 1000000 645515"><defs><style>.C1 {stroke: #000000; stroke-width: 695.052; stroke-opacity: 1.000; fill: none; fill-opacity: 1.000;}</style></defs><rect fill="#ffffff" x="0" y="0" width="1000000" height="645515" fill-opacity="1.0" /><g stroke-linecap="round" stroke-linejoin="round" fill-rule="evenodd"><path d="M 4028 329647 c -2225 0 -4028 -5405 -4028 -12073 c 0 -6668 1803 -12073 4028 -12073 c 2225 0 4028 5405 4028 12073 c 0 6668 -1803 12073 -4028 12073" class="C1" /><path d="M 100798 329647 c 2225 0 4028 -5405 4028 -12073 c 0 -6668 -1803 -12073 -4028 -12073" class="C1" /><path d="M 4028 305501 l 96770 0" class="C1" /><path d="M 4028 329647 l 96770 0" class="C1" /><path d="M 104801 316233 l 422397 0" class="C1" /><path d="M 104801 318915 l 422397 0" class="C1" /><path d="M 511857 276306 l 0 39927" class="C1" /><path d="M 511857 333796 l 33567 31619" class="C1" /><path d="M 545425 365415 l 0 -57490" class="C1" /><path d="M 511857 276306 l 33567 31619" class="C1" /><path d="M 511857 276306 l 6357 0" class="C1" /><path d="M 545425 307925 l 6357 0" class="C1" /><path d="M 545425 365415 l 6357 0" class="C1" /><path d="M 518214 276306 l 33567 31619" class="C1" /><path d="M 551781 307925 l -0 57490" class="C1" /><path d="M 511857 318915 l 0 14880" class="C1" /><path d="M 527197 318915 c 456 0 826 -601 826 -1341 c 0 -741 -370 -1341 -826 -1341" class="C1" /><path d="M 884517 503586 c 34531 -22177 58529 -102250 57912 -193236 c -617 -90986 -25685 -168886 -60496 -187993" class="C1" /><path d="M 546956 303379 l 298171 -178082" class="C1" /><path d="M 551781 335236 l 293345 166950" class="C1" /><path d="M 813886 169946 c -15864 37450 -24805 90278 -24620 145471 c 185 55193 9478 107622 25591 144373" class="C1" /><path d="M 872934 398818 c 12903 -9423 22101 -43171 22490 -82514 c 389 -39343 -8128 -74627 -20822 -86268" class="C1" /><path d="M 848483 242806 c -7694 16527 -12239 42997 -12216 71148 c 23 28151 4611 54556 12333 70972" class="C1" /><path d="M 744889 22 l 0 491747" class="C1" /><path d="M 744889 491770 l 235930 153723" class="C1" /><path d="M 980819 645493 l 0 -491747" class="C1" /><path d="M 744889 22 l 235930 153723" class="C1" /><path d="M 744889 22 l 19181 0" class="C1" /><path d="M 980819 153745 l 19181 0" class="C1" /><path d="M 980819 645493 l 19181 0" class="C1" /><path d="M 764070 22 l 235930 153723" class="C1" /><path d="M 1000000 153745 l 0 491747" class="C1" /></g></svg>