<?xml version='1.0' encoding='utf-8'?>
<svg xmlns="http://www.w3.org/2000/svg" width="200.0mm" height="207.8mm" viewBox="-8560 26937 224810 233537"><defs><style>.C1 {stroke: #000000; stroke-width: 156.244; stroke-opacity: 1.000; fill: none; fill-opacity: 1.000;}</style><style>.C2 {stroke: none; stroke-width: none; stroke-opacity: 1.000; fill: #000000; fill-opacity: 1.000;}</style></defs><rect fill="#ffffff" x="-8560" y="26937" width="224810" height="233537" fill-opacity="1.0" /><g stroke-linecap="round" stroke-linejoin="round"><path d="M 71761 126835 l 135840 0" class="C1" /><path d="M 86018 111016 l 0 140809" class="C1" /><path d="M 96762 137579 l -96672 -96672" class="C1" /><path d="M 71761 153503 l 135840 0" class="C1" /><path d="M 71761 180171 l 135840 0" class="C1" /><path d="M 71761 206839 l 135840 -0" class="C1" /><path d="M 71761 233507 l 135840 0" class="C1" /><path d="M 67160 107978 l 125007 0" class="C1" /><path d="M 48303 89121 l 125007 0" class="C1" /><path d="M 29446 70263 l 125007 0" class="C1" /><path d="M 10589 51406 l 125007 0" class="C1" /><path d="M 112686 115176 l 0 130718" class="C1" /><path d="M 139354 115176 l 0 130718" class="C1" /><path d="M 166022 115176 l 0 130718" class="C1" /><path d="M 192690 115176 l 0 130718" class="C1" /><path d="M 67160 92158 l 0 140809" class="C1" /><path d="M 48303 73301 l 0 140809" class="C1" /><path d="M 29446 54444 l 0 140809" class="C1" /><path d="M 10589 35587 l 0 140809" class="C1" /><path d="M 112686 126835 l -88257 -88257" class="C1" /><path d="M 139354 126835 l -88257 -88257" class="C1" /><path d="M 166022 126835 l -88257 -88257" class="C1" /><path d="M 192690 126835 l -88257 -88257" class="C1" /><path d="M 96762 164247 l -96672 -96672" class="C1" /><path d="M 96762 190915 l -96672 -96672" class="C1" /><path d="M 96762 217583 l -96672 -96672" class="C1" /><path d="M 96762 244251 l -96672 -96672" class="C1" /><path d="M 80184 126835 l 28 572 84 566 139 555 193 539 245 518 294 491 341 460 384 424 424 384 460 341 491 294 518 245 539 193 555 139 566 84 572 28 572 -28 566 -84 555 -139 539 -193 518 -245 491 -294 460 -341 424 -384 384 -424 341 -460 294 -491 245 -518 193 -539 139 -555 84 -566 28 -572 -5834 0 Z" class="C2" /><path d="M 91851 126835 l -28 -572 -84 -566 -139 -555 -193 -539 -245 -518 -294 -491 -341 -460 -384 -424 -424 -384 -460 -341 -491 -294 -518 -245 -539 -193 -555 -139 -566 -84 -572 -28 -572 28 -566 84 -555 139 -539 193 -518 245 -491 294 -460 341 -424 384 -384 424 -341 460 -294 491 -245 518 -193 539 -139 555 -84 566 -28 572 5834 0 Z" class="C2" /><path d="M 106852 126835 l 28 572 84 566 139 555 193 539 245 518 294 491 341 460 384 424 424 384 460 341 491 294 518 245 539 193 555 139 566 84 572 28 572 -28 566 -84 555 -139 539 -193 518 -245 491 -294 460 -341 424 -384 384 -424 341 -460 294 -491 245 -518 193 -539 139 -555 84 -566 28 -572 -5834 0 Z" class="C2" /><path d="M 118519 126835 l -28 -572 -84 -566 -139 -555 -193 -539 -245 -518 -294 -491 -341 -460 -384 -424 -424 -384 -460 -341 -491 -294 -518 -245 -539 -193 -555 -139 -566 -84 -572 -28 -572 28 -566 84 -555 139 -539 193 -518 245 -491 294 -460 341 -424 384 -384 424 -341 460 -294 491 -245 518 -193 539 -139 555 -84 566 -28 572 5834 0 Z" class="C2" /><path d="M 133520 126835 l 28 572 84 566 139 555 193 539 245 518 294 491 341 460 384 424 424 384 460 341 491 294 518 245 539 193 555 139 566 84 572 28 572 -28 566 -84 555 -139 539 -193 518 -245 491 -294 460 -341 424 -384 384 -424 341 -460 294 -491 245 -518 193 -539 139 -555 84 -566 28 -572 -5834 0 Z" class="C2" /><path d="M 145187 126835 l -28 -572 -84 -566 -139 -555 -193 -539 -245 -518 -294 -491 -341 -460 -384 -424 -424 -384 -460 -341 -491 -294 -518 -245 -539 -193 -555 -139 -566 -84 -572 -28 -572 28 -566 84 -555 139 -539 193 -518 245 -491 294 -460 341 -424 384 -384 424 -341 460 -294 491 -245 518 -193 539 -139 555 -84 566 -28 572 5834 0 Z" class="C2" /><path d="M 160188 126835 l 28 572 84 566 139 555 193 539 245 518 294 491 341 460 384 424 424 384 460 341 491 294 518 245 539 193 555 139 566 84 572 28 572 -28 566 -84 555 -139 539 -193 518 -245 491 -294 460 -341 424 -384 384 -424 341 -460 294 -491 245 -518 193 -539 139 -555 84 -566 28 -572 -5834 0 Z" class="C2" /><path d="M 171855 126835 l -28 -572 -84 -566 -139 -555 -193 -539 -245 -518 -294 -491 -341 -460 -384 -424 -424 -384 -460 -341 -491 -294 -518 -245 -539 -193 -555 -139 -566 -84 -572 -28 -572 28 -566 84 -555 139 -539 193 -518 245 -491 294 -460 341 -424 384 -384 424 -341 460 -294 491 -245 518 -193 539 -139 555 -84 566 -28 572 5834 0 Z" class="C2" /><path d="M 186856 126835 l 28 572 84 566 139 555 193 539 245 518 294 491 341 460 384 424 424 384 460 341 491 294 518 245 539 193 555 139 566 84 572 28 572 -28 566 -84 555 -139 539 -193 518 -245 491 -294 460 -341 424 -384 384 -424 341 -460 294 -491 245 -518 193 -539 139 -555 84 -566 28 -572 -5834 0 Z" class="C2" /><path d="M 198523 126835 l -28 -572 -84 -566 -139 -555 -193 -539 -245 -518 -294 -491 -341 -460 -384 -424 -424 -384 -460 -341 -491 -294 -518 -245 -539 -193 -555 -139 -566 -84 -572 -28 -572 28 -566 84 -555 139 -539 193 -518 245 -491 294 -460 341 -424 384 -384 424 -341 460 -294 491 -245 518 -193 539 -139 555 -84 566 -28 572 5834 0 Z" class="C2" /><path d="M 186856 153503 l 28 572 84 566 139 555 193 539 245 518 294 491 341 460 384 424 424 384 460 341 491 294 518 245 539 193 555 139 566 84 572 28 572 -28 566 -84 555 -139 539 -193 518 -245 491 -294 460 -341 424 -384 384 -424 341 -460 294 -491 245 -518 193 -539 139 -555 84 -566 28 -572 -5834 0 Z" class="C2" /><path d="M 198523 153503 l -28 -572 -84 -566 -139 -555 -193 -539 -245 -518 -294 -491 -341 -460 -384 -424 -424 -384 -460 -341 -491 -294 -518 -245 -539 -193 -555 -139 -566 -84 -572 -28 -572 28 -566 84 -555 139 -539 193 -518 245 -491 294 -460 341 -424 384 -384 424 -341 460 -294 491 -245 518 -193 539 -139 555 -84 566 -28 572 5834 0 Z" class="C2" /><path d="M 160188 153503 l 28 572 84 566 139 555 193 539 245 518 294 491 341 460 384 424 424 384 460 341 491 294 518 245 539 193 555 139 566 84 572 28 572 -28 566 -84 555 -139 539 -193 518 -245 491 -294 460 -341 424 -384 384 -424 341 -460 294 -491 245 -518 193 -539 139 -555 84 -566 28 -572 -5834 0 Z" class="C2" /><path d="M 171855 153503 l -28 -572 -84 -566 -139 -555 -193 -539 -245 -518 -294 -491 -341 -460 -384 -424 -424 -384 -460 -341 -491 -294 -518 -245 -539 -193 -555 -139 -566 -84 -572 -28 -572 28 -566 84 -555 139 -539 193 -518 245 -491 294 -460 341 -424 384 -384 424 -341 460 -294 491 -245 518 -193 539 -139 555 -84 566 -28 572 5834 0 Z" class="C2" /><path d="M 133520 153503 l 28 572 84 566 139 555 193 539 245 518 294 491 341 460 384 424 424 384 460 341 491 294 518 245 539 193 555 139 566 84 572 28 572 -28 566 -84 555 -139 539 -193 518 -245 491 -294 460 -341 424 -384 384 -424 341 -460 294 -491 245 -518 193 -539 139 -555 84 -566 28 -572 -5834 0 Z" class="C2" /><path d="M 145187 153503 l -28 -572 -84 -566 -139 -555 -193 -539 -245 -518 -294 -491 -341 -460 -384 -424 -424 -384 -460 -341 -491 -294 -518 -245 -539 -193 -555 -139 -566 -84 -572 -28 -572 28 -566 84 -555 139 -539 193 -518 245 -491 294 -460 341 -424 384 -384 424 -341 460 -294 491 -245 518 -193 539 -139 555 -84 566 -28 572 5834 0 Z" class="C2" /><path d="M 106852 153503 l 28 572 84 566 139 555 193 539 245 518 294 491 341 460 384 424 424 384 460 341 491 294 518 245 539 193 555 139 566 84 572 28 572 -28 566 -84 555 -139 539 -193 518 -245 491 -294 460 -341 424 -384 384 -424 341 -460 294 -491 245 -518 193 -539 139 -555 84 -566 28 -572 -5834 0 Z" class="C2" /><path d="M 118519 153503 l -28 -572 -84 -566 -139 -555 -193 -539 -245 -518 -294 -491 -341 -460 -384 -424 -424 -384 -460 -341 -491 -294 -518 -245 -539 -193 -555 -139 -566 -84 -572 -28 -572 28 -566 84 -555 139 -539 193 -518 245 -491 294 -460 341 -424 384 -384 424 -341 460 -294 491 -245 518 -193 539 -139 555 -84 566 -28 572 5834 0 Z" class="C2" /><path d="M 80184 153503 l 28 572 84 566 139 555 193 539 245 518 294 491 341 460 384 424 424 384 460 341 491 294 518 245 539 193 555 139 566 84 572 28 572 -28 566 -84 555 -139 539 -193 518 -245 491 -294 460 -341 424 -384 384 -424 341 -460 294 -491 245 -518 193 -539 139 -555 84 -566 28 -572 -5834 0 Z" class="C2" /><path d="M 91851 153503 l -28 -572 -84 -566 -139 -555 -193 -539 -245 -518 -294 -491 -341 -460 -384 -424 -424 -384 -460 -341 -491 -294 -518 -245 -539 -193 -555 -139 -566 -84 -572 -28 -572 28 -566 84 -555 139 -539 193 -518 245 -491 294 -460 341 -424 384 -384 424 -341 460 -294 491 -245 518 -193 539 -139 555 -84 566 -28 572 5834 0 Z" class="C2" /><path d="M 61327 134646 l 28 572 84 566 139 555 193 539 245 518 294 491 341 460 384 424 424 384 460 341 491 294 518 245 539 193 555 139 566 84 572 28 572 -28 566 -84 555 -139 539 -193 518 -245 491 -294 460 -341 424 -384 384 -424 341 -460 294 -491 245 -518 193 -539 139 -555 84 -566 28 -572 -5834 0 Z" class="C2" /><path d="M 72994 134646 l -28 -572 -84 -566 -139 -555 -193 -539 -245 -518 -294 -491 -341 -460 -384 -424 -424 -384 -460 -341 -491 -294 -518 -245 -539 -193 -555 -139 -566 -84 -572 -28 -572 28 -566 84 -555 139 -539 193 -518 245 -491 294 -460 341 -424 384 -384 424 -341 460 -294 491 -245 518 -193 539 -139 555 -84 566 -28 572 5834 0 Z" class="C2" /><path d="M 61327 107978 l 28 572 84 566 139 555 193 539 245 518 294 491 341 460 384 424 424 384 460 341 491 294 518 245 539 193 555 139 566 84 572 28 572 -28 566 -84 555 -139 539 -193 518 -245 491 -294 460 -341 424 -384 384 -424 341 -460 294 -491 245 -518 193 -539 139 -555 84 -566 28 -572 -5834 0 Z" class="C2" /><path d="M 72994 107978 l -28 -572 -84 -566 -139 -555 -193 -539 -245 -518 -294 -491 -341 -460 -384 -424 -424 -384 -460 -341 -491 -294 -518 -245 -539 -193 -555 -139 -566 -84 -572 -28 -572 28 -566 84 -555 139 -539 193 -518 245 -491 294 -460 341 -424 384 -384 424 -341 460 -294 491 -245 518 -193 539 -139 555 -84 566 -28 572 5834 0 Z" class="C2" /><path d="M 87995 107978 l 28 572 84 566 139 555 193 539 245 518 294 491 341 460 384 424 424 384 460 341 491 294 518 245 539 193 555 139 566 84 572 28 572 -28 566 -84 555 -139 539 -193 518 -245 491 -294 460 -341 424 -384 384 -424 341 -460 294 -491 245 -518 193 -539 139 -555 84 -566 28 -572 -5834 0 Z" class="C2" /><path d="M 99662 107978 l -28 -572 -84 -566 -139 -555 -193 -539 -245 -518 -294 -491 -341 -460 -384 -424 -424 -384 -460 -341 -491 -294 -518 -245 -539 -193 -555 -139 -566 -84 -572 -28 -572 28 -566 84 -555 139 -539 193 -518 245 -491 294 -460 341 -424 384 -384 424 -341 460 -294 491 -245 518 -193 539 -139 555 -84 566 -28 572 5834 0 Z" class="C2" /><path d="M 114663 107978 l 28 572 84 566 139 555 193 539 245 518 294 491 341 460 384 424 424 384 460 341 491 294 518 245 539 193 555 139 566 84 572 28 572 -28 566 -84 555 -139 539 -193 518 -245 491 -294 460 -341 424 -384 384 -424 341 -460 294 -491 245 -518 193 -539 139 -555 84 -566 28 -572 -5834 0 Z" class="C2" /><path d="M 126330 107978 l -28 -572 -84 -566 -139 -555 -193 -539 -245 -518 -294 -491 -341 -460 -384 -424 -424 -384 -460 -341 -491 -294 -518 -245 -539 -193 -555 -139 -566 -84 -572 -28 -572 28 -566 84 -555 139 -539 193 -518 245 -491 294 -460 341 -424 384 -384 424 -341 460 -294 491 -245 518 -193 539 -139 555 -84 566 -28 572 5834 0 Z" class="C2" /><path d="M 141331 107978 l 28 572 84 566 139 555 193 539 245 518 294 491 341 460 384 424 424 384 460 341 491 294 518 245 539 193 555 139 566 84 572 28 572 -28 566 -84 555 -139 539 -193 518 -245 491 -294 460 -341 424 -384 384 -424 341 -460 294 -491 245 -518 193 -539 139 -555 84 -566 28 -572 -5834 0 Z" class="C2" /><path d="M 152998 107978 l -28 -572 -84 -566 -139 -555 -193 -539 -245 -518 -294 -491 -341 -460 -384 -424 -424 -384 -460 -341 -491 -294 -518 -245 -539 -193 -555 -139 -566 -84 -572 -28 -572 28 -566 84 -555 139 -539 193 -518 245 -491 294 -460 341 -424 384 -384 424 -341 460 -294 491 -245 518 -193 539 -139 555 -84 566 -28 572 5834 0 Z" class="C2" /><path d="M 167999 107978 l 28 572 84 566 139 555 193 539 245 518 294 491 341 460 384 424 424 384 460 341 491 294 518 245 539 193 555 139 566 84 572 28 572 -28 566 -84 555 -139 539 -193 518 -245 491 -294 460 -341 424 -384 384 -424 341 -460 294 -491 245 -518 193 -539 139 -555 84 -566 28 -572 -5834 0 Z" class="C2" /><path d="M 179666 107978 l -28 -572 -84 -566 -139 -555 -193 -539 -245 -518 -294 -491 -341 -460 -384 -424 -424 -384 -460 -341 -491 -294 -518 -245 -539 -193 -555 -139 -566 -84 -572 -28 -572 28 -566 84 -555 139 -539 193 -518 245 -491 294 -460 341 -424 384 -384 424 -341 460 -294 491 -245 518 -193 539 -139 555 -84 566 -28 572 5834 0 Z" class="C2" /><path d="M 42470 89121 l 28 572 84 566 139 555 193 539 245 518 294 491 341 460 384 424 424 384 460 341 491 294 518 245 539 193 555 139 566 84 572 28 572 -28 566 -84 555 -139 539 -193 518 -245 491 -294 460 -341 424 -384 384 -424 341 -460 294 -491 245 -518 193 -539 139 -555 84 -566 28 -572 -5834 0 Z" class="C2" /><path d="M 54137 89121 l -28 -572 -84 -566 -139 -555 -193 -539 -245 -518 -294 -491 -341 -460 -384 -424 -424 -384 -460 -341 -491 -294 -518 -245 -539 -193 -555 -139 -566 -84 -572 -28 -572 28 -566 84 -555 139 -539 193 -518 245 -491 294 -460 341 -424 384 -384 424 -341 460 -294 491 -245 518 -193 539 -139 555 -84 566 -28 572 5834 0 Z" class="C2" /><path d="M 42470 115789 l 28 572 84 566 139 555 193 539 245 518 294 491 341 460 384 424 424 384 460 341 491 294 518 245 539 193 555 139 566 84 572 28 572 -28 566 -84 555 -139 539 -193 518 -245 491 -294 460 -341 424 -384 384 -424 341 -460 294 -491 245 -518 193 -539 139 -555 84 -566 28 -572 -5834 0 Z" class="C2" /><path d="M 54137 115789 l -28 -572 -84 -566 -139 -555 -193 -539 -245 -518 -294 -491 -341 -460 -384 -424 -424 -384 -460 -341 -491 -294 -518 -245 -539 -193 -555 -139 -566 -84 -572 -28 -572 28 -566 84 -555 139 -539 193 -518 245 -491 294 -460 341 -424 384 -384 424 -341 460 -294 491 -245 518 -193 539 -139 555 -84 566 -28 572 5834 0 Z" class="C2" /><path d="M 42470 142457 l 28 572 84 566 139 555 193 539 245 518 294 491 341 460 384 424 424 384 460 341 491 294 518 245 539 193 555 139 566 84 572 28 572 -28 566 -84 555 -139 539 -193 518 -245 491 -294 460 -341 424 -384 384 -424 341 -460 294 -491 245 -518 193 -539 139 -555 84 -566 28 -572 -5834 0 Z" class="C2" /><path d="M 54137 142457 l -28 -572 -84 -566 -139 -555 -193 -539 -245 -518 -294 -491 -341 -460 -384 -424 -424 -384 -460 -341 -491 -294 -518 -245 -539 -193 -555 -139 -566 -84 -572 -28 -572 28 -566 84 -555 139 -539 193 -518 245 -491 294 -460 341 -424 384 -384 424 -341 460 -294 491 -245 518 -193 539 -139 555 -84 566 -28 572 5834 0 Z" class="C2" /><path d="M 61327 161314 l 28 572 84 566 139 555 193 539 245 518 294 491 341 460 384 424 424 384 460 341 491 294 518 245 539 193 555 139 566 84 572 28 572 -28 566 -84 555 -139 539 -193 518 -245 491 -294 460 -341 424 -384 384 -424 341 -460 294 -491 245 -518 193 -539 139 -555 84 -566 28 -572 -5834 0 Z" class="C2" /><path d="M 72994 161314 l -28 -572 -84 -566 -139 -555 -193 -539 -245 -518 -294 -491 -341 -460 -384 -424 -424 -384 -460 -341 -491 -294 -518 -245 -539 -193 -555 -139 -566 -84 -572 -28 -572 28 -566 84 -555 139 -539 193 -518 245 -491 294 -460 341 -424 384 -384 424 -341 460 -294 491 -245 518 -193 539 -139 555 -84 566 -28 572 5834 0 Z" class="C2" /><path d="M 80184 180171 l 28 572 84 566 139 555 193 539 245 518 294 491 341 460 384 424 424 384 460 341 491 294 518 245 539 193 555 139 566 84 572 28 572 -28 566 -84 555 -139 539 -193 518 -245 491 -294 460 -341 424 -384 384 -424 341 -460 294 -491 245 -518 193 -539 139 -555 84 -566 28 -572 -5834 0 Z" class="C2" /><path d="M 91851 180171 l -28 -572 -84 -566 -139 -555 -193 -539 -245 -518 -294 -491 -341 -460 -384 -424 -424 -384 -460 -341 -491 -294 -518 -245 -539 -193 -555 -139 -566 -84 -572 -28 -572 28 -566 84 -555 139 -539 193 -518 245 -491 294 -460 341 -424 384 -384 424 -341 460 -294 491 -245 518 -193 539 -139 555 -84 566 -28 572 5834 0 Z" class="C2" /><path d="M 61327 187982 l 28 572 84 566 139 555 193 539 245 518 294 491 341 460 384 424 424 384 460 341 491 294 518 245 539 193 555 139 566 84 572 28 572 -28 566 -84 555 -139 539 -193 518 -245 491 -294 460 -341 424 -384 384 -424 341 -460 294 -491 245 -518 193 -539 139 -555 84 -566 28 -572 -5834 0 Z" class="C2" /><path d="M 72994 187982 l -28 -572 -84 -566 -139 -555 -193 -539 -245 -518 -294 -491 -341 -460 -384 -424 -424 -384 -460 -341 -491 -294 -518 -245 -539 -193 -555 -139 -566 -84 -572 -28 -572 28 -566 84 -555 139 -539 193 -518 245 -491 294 -460 341 -424 384 -384 424 -341 460 -294 491 -245 518 -193 539 -139 555 -84 566 -28 572 5834 0 Z" class="C2" /><path d="M 80184 206839 l 28 572 84 566 139 555 193 539 245 518 294 491 341 460 384 424 424 384 460 341 491 294 518 245 539 193 555 139 566 84 572 28 572 -28 566 -84 555 -139 539 -193 518 -245 491 -294 460 -341 424 -384 384 -424 341 -460 294 -491 245 -518 193 -539 139 -555 84 -566 28 -572 -5834 0 Z" class="C2" /><path d="M 91851 206839 l -28 -572 -84 -566 -139 -555 -193 -539 -245 -518 -294 -491 -341 -460 -384 -424 -424 -384 -460 -341 -491 -294 -518 -245 -539 -193 -555 -139 -566 -84 -572 -28 -572 28 -566 84 -555 139 -539 193 -518 245 -491 294 -460 341 -424 384 -384 424 -341 460 -294 491 -245 518 -193 539 -139 555 -84 566 -28 572 5834 0 Z" class="C2" /><path d="M 80184 233507 l 28 572 84 566 139 555 193 539 245 518 294 491 341 460 384 424 424 384 460 341 491 294 518 245 539 193 555 139 566 84 572 28 572 -28 566 -84 555 -139 539 -193 518 -245 491 -294 460 -341 424 -384 384 -424 341 -460 294 -491 245 -518 193 -539 139 -555 84 -566 28 -572 -5834 0 Z" class="C2" /><path d="M 91851 233507 l -28 -572 -84 -566 -139 -555 -193 -539 -245 -518 -294 -491 -341 -460 -384 -424 -424 -384 -460 -341 -491 -294 -518 -245 -539 -193 -555 -139 -566 -84 -572 -28 -572 28 -566 84 -555 139 -539 193 -518 245 -491 294 -460 341 -424 384 -384 424 -341 460 -294 491 -245 518 -193 539 -139 555 -84 566 -28 572 5834 0 Z" class="C2" /><path d="M 61327 214650 l 28 572 84 566 139 555 193 539 245 518 294 491 341 460 384 424 424 384 460 341 491 294 518 245 539 193 555 139 566 84 572 28 572 -28 566 -84 555 -139 539 -193 518 -245 491 -294 460 -341 424 -384 384 -424 341 -460 294 -491 245 -518 193 -539 139 -555 84 -566 28 -572 -5834 0 Z" class="C2" /><path d="M 72994 214650 l -28 -572 -84 -566 -139 -555 -193 -539 -245 -518 -294 -491 -341 -460 -384 -424 -424 -384 -460 -341 -491 -294 -518 -245 -539 -193 -555 -139 -566 -84 -572 -28 -572 28 -566 84 -555 139 -539 193 -518 245 -491 294 -460 341 -424 384 -384 424 -341 460 -294 491 -245 518 -193 539 -139 555 -84 566 -28 572 5834 0 Z" class="C2" /><path d="M 42470 195793 l 28 572 84 566 139 555 193 539 245 518 294 491 341 460 384 424 424 384 460 341 491 294 518 245 539 193 555 139 566 84 572 28 572 -28 566 -84 555 -139 539 -193 518 -245 491 -294 460 -341 424 -384 384 -424 341 -460 294 -491 245 -518 193 -539 139 -555 84 -566 28 -572 -5834 0 Z" class="C2" /><path d="M 54137 195793 l -28 -572 -84 -566 -139 -555 -193 -539 -245 -518 -294 -491 -341 -460 -384 -424 -424 -384 -460 -341 -491 -294 -518 -245 -539 -193 -555 -139 -566 -84 -572 -28 -572 28 -566 84 -555 139 -539 193 -518 245 -491 294 -460 341 -424 384 -384 424 -341 460 -294 491 -245 518 -193 539 -139 555 -84 566 -28 572 5834 0 Z" class="C2" /><path d="M 42470 169125 l 28 572 84 566 139 555 193 539 245 518 294 491 341 460 384 424 424 384 460 341 491 294 518 245 539 193 555 139 566 84 572 28 572 -28 566 -84 555 -139 539 -193 518 -245 491 -294 460 -341 424 -384 384 -424 341 -460 294 -491 245 -518 193 -539 139 -555 84 -566 28 -572 -5834 0 Z" class="C2" /><path d="M 54137 169125 l -28 -572 -84 -566 -139 -555 -193 -539 -245 -518 -294 -491 -341 -460 -384 -424 -424 -384 -460 -341 -491 -294 -518 -245 -539 -193 -555 -139 -566 -84 -572 -28 -572 28 -566 84 -555 139 -539 193 -518 245 -491 294 -460 341 -424 384 -384 424 -341 460 -294 491 -245 518 -193 539 -139 555 -84 566 -28 572 5834 0 Z" class="C2" /><path d="M 23612 150268 l 28 572 84 566 139 555 193 539 245 518 294 491 341 460 384 424 424 384 460 341 491 294 518 245 539 193 555 139 566 84 572 28 572 -28 566 -84 555 -139 539 -193 518 -245 491 -294 460 -341 424 -384 384 -424 341 -460 294 -491 245 -518 193 -539 139 -555 84 -566 28 -572 -5834 0 Z" class="C2" /><path d="M 35280 150268 l -28 -572 -84 -566 -139 -555 -193 -539 -245 -518 -294 -491 -341 -460 -384 -424 -424 -384 -460 -341 -491 -294 -518 -245 -539 -193 -555 -139 -566 -84 -572 -28 -572 28 -566 84 -555 139 -539 193 -518 245 -491 294 -460 341 -424 384 -384 424 -341 460 -294 491 -245 518 -193 539 -139 555 -84 566 -28 572 5834 0 Z" class="C2" /><path d="M 23612 176936 l 28 572 84 566 139 555 193 539 245 518 294 491 341 460 384 424 424 384 460 341 491 294 518 245 539 193 555 139 566 84 572 28 572 -28 566 -84 555 -139 539 -193 518 -245 491 -294 460 -341 424 -384 384 -424 341 -460 294 -491 245 -518 193 -539 139 -555 84 -566 28 -572 -5834 0 Z" class="C2" /><path d="M 35280 176936 l -28 -572 -84 -566 -139 -555 -193 -539 -245 -518 -294 -491 -341 -460 -384 -424 -424 -384 -460 -341 -491 -294 -518 -245 -539 -193 -555 -139 -566 -84 -572 -28 -572 28 -566 84 -555 139 -539 193 -518 245 -491 294 -460 341 -424 384 -384 424 -341 460 -294 491 -245 518 -193 539 -139 555 -84 566 -28 572 5834 0 Z" class="C2" /><path d="M 23612 123599 l 28 572 84 566 139 555 193 539 245 518 294 491 341 460 384 424 424 384 460 341 491 294 518 245 539 193 555 139 566 84 572 28 572 -28 566 -84 555 -139 539 -193 518 -245 491 -294 460 -341 424 -384 384 -424 341 -460 294 -491 245 -518 193 -539 139 -555 84 -566 28 -572 -5834 0 Z" class="C2" /><path d="M 35280 123599 l -28 -572 -84 -566 -139 -555 -193 -539 -245 -518 -294 -491 -341 -460 -384 -424 -424 -384 -460 -341 -491 -294 -518 -245 -539 -193 -555 -139 -566 -84 -572 -28 -572 28 -566 84 -555 139 -539 193 -518 245 -491 294 -460 341 -424 384 -384 424 -341 460 -294 491 -245 518 -193 539 -139 555 -84 566 -28 572 5834 0 Z" class="C2" /><path d="M 4755 104742 l 28 572 84 566 139 555 193 539 245 518 294 491 341 460 384 424 424 384 460 341 491 294 518 245 539 193 555 139 566 84 572 28 572 -28 566 -84 555 -139 539 -193 518 -245 491 -294 460 -341 424 -384 384 -424 341 -460 294 -491 245 -518 193 -539 139 -555 84 -566 28 -572 -5834 0 Z" class="C2" /><path d="M 16423 104742 l -28 -572 -84 -566 -139 -555 -193 -539 -245 -518 -294 -491 -341 -460 -384 -424 -424 -384 -460 -341 -491 -294 -518 -245 -539 -193 -555 -139 -566 -84 -572 -28 -572 28 -566 84 -555 139 -539 193 -518 245 -491 294 -460 341 -424 384 -384 424 -341 460 -294 491 -245 518 -193 539 -139 555 -84 566 -28 572 5834 0 Z" class="C2" /><path d="M 4755 131410 l 28 572 84 566 139 555 193 539 245 518 294 491 341 460 384 424 424 384 460 341 491 294 518 245 539 193 555 139 566 84 572 28 572 -28 566 -84 555 -139 539 -193 518 -245 491 -294 460 -341 424 -384 384 -424 341 -460 294 -491 245 -518 193 -539 139 -555 84 -566 28 -572 -5834 0 Z" class="C2" /><path d="M 16423 131410 l -28 -572 -84 -566 -139 -555 -193 -539 -245 -518 -294 -491 -341 -460 -384 -424 -424 -384 -460 -341 -491 -294 -518 -245 -539 -193 -555 -139 -566 -84 -572 -28 -572 28 -566 84 -555 139 -539 193 -518 245 -491 294 -460 341 -424 384 -384 424 -341 460 -294 491 -245 518 -193 539 -139 555 -84 566 -28 572 5834 0 Z" class="C2" /><path d="M 4755 158078 l 28 572 84 566 139 555 193 539 245 518 294 491 341 460 384 424 424 384 460 341 491 294 518 245 539 193 555 139 566 84 572 28 572 -28 566 -84 555 -139 539 -193 518 -245 491 -294 460 -341 424 -384 384 -424 341 -460 294 -491 245 -518 193 -539 139 -555 84 -566 28 -572 -5834 0 Z" class="C2" /><path d="M 16423 158078 l -28 -572 -84 -566 -139 -555 -193 -539 -245 -518 -294 -491 -341 -460 -384 -424 -424 -384 -460 -341 -491 -294 -518 -245 -539 -193 -555 -139 -566 -84 -572 -28 -572 28 -566 84 -555 139 -539 193 -518 245 -491 294 -460 341 -424 384 -384 424 -341 460 -294 491 -245 518 -193 539 -139 555 -84 566 -28 572 5834 0 Z" class="C2" /><path d="M 4755 78074 l 28 572 84 566 139 555 193 539 245 518 294 491 341 460 384 424 424 384 460 341 491 294 518 245 539 193 555 139 566 84 572 28 572 -28 566 -84 555 -139 539 -193 518 -245 491 -294 460 -341 424 -384 384 -424 341 -460 294 -491 245 -518 193 -539 139 -555 84 -566 28 -572 -5834 0 Z" class="C2" /><path d="M 16423 78074 l -28 -572 -84 -566 -139 -555 -193 -539 -245 -518 -294 -491 -341 -460 -384 -424 -424 -384 -460 -341 -491 -294 -518 -245 -539 -193 -555 -139 -566 -84 -572 -28 -572 28 -566 84 -555 139 -539 193 -518 245 -491 294 -460 341 -424 384 -384 424 -341 460 -294 491 -245 518 -193 539 -139 555 -84 566 -28 572 5834 0 Z" class="C2" /><path d="M 23612 96931 l 28 572 84 566 139 555 193 539 245 518 294 491 341 460 384 424 424 384 460 341 491 294 518 245 539 193 555 139 566 84 572 28 572 -28 566 -84 555 -139 539 -193 518 -245 491 -294 460 -341 424 -384 384 -424 341 -460 294 -491 245 -518 193 -539 139 -555 84 -566 28 -572 -5834 0 Z" class="C2" /><path d="M 35280 96931 l -28 -572 -84 -566 -139 -555 -193 -539 -245 -518 -294 -491 -341 -460 -384 -424 -424 -384 -460 -341 -491 -294 -518 -245 -539 -193 -555 -139 -566 -84 -572 -28 -572 28 -566 84 -555 139 -539 193 -518 245 -491 294 -460 341 -424 384 -384 424 -341 460 -294 491 -245 518 -193 539 -139 555 -84 566 -28 572 5834 0 Z" class="C2" /><path d="M 23612 70263 l 28 572 84 566 139 555 193 539 245 518 294 491 341 460 384 424 424 384 460 341 491 294 518 245 539 193 555 139 566 84 572 28 572 -28 566 -84 555 -139 539 -193 518 -245 491 -294 460 -341 424 -384 384 -424 341 -460 294 -491 245 -518 193 -539 139 -555 84 -566 28 -572 -5834 0 Z" class="C2" /><path d="M 35280 70263 l -28 -572 -84 -566 -139 -555 -193 -539 -245 -518 -294 -491 -341 -460 -384 -424 -424 -384 -460 -341 -491 -294 -518 -245 -539 -193 -555 -139 -566 -84 -572 -28 -572 28 -566 84 -555 139 -539 193 -518 245 -491 294 -460 341 -424 384 -384 424 -341 460 -294 491 -245 518 -193 539 -139 555 -84 566 -28 572 5834 0 Z" class="C2" /><path d="M 4755 51406 l 28 572 84 566 139 555 193 539 245 518 294 491 341 460 384 424 424 384 460 341 491 294 518 245 539 193 555 139 566 84 572 28 572 -28 566 -84 555 -139 539 -193 518 -245 491 -294 460 -341 424 -384 384 -424 341 -460 294 -491 245 -518 193 -539 139 -555 84 -566 28 -572 -5834 0 Z" class="C2" /><path d="M 16423 51406 l -28 -572 -84 -566 -139 -555 -193 -539 -245 -518 -294 -491 -341 -460 -384 -424 -424 -384 -460 -341 -491 -294 -518 -245 -539 -193 -555 -139 -566 -84 -572 -28 -572 28 -566 84 -555 139 -539 193 -518 245 -491 294 -460 341 -424 384 -384 424 -341 460 -294 491 -245 518 -193 539 -139 555 -84 566 -28 572 5834 0 Z" class="C2" /><path d="M 31423 51406 l 28 572 84 566 139 555 193 539 245 518 294 491 341 460 384 424 424 384 460 341 491 294 518 245 539 193 555 139 566 84 572 28 572 -28 566 -84 555 -139 539 -193 518 -245 491 -294 460 -341 424 -384 384 -424 341 -460 294 -491 245 -518 193 -539 139 -555 84 -566 28 -572 -5834 0 Z" class="C2" /><path d="M 43091 51406 l -28 -572 -84 -566 -139 -555 -193 -539 -245 -518 -294 -491 -341 -460 -384 -424 -424 -384 -460 -341 -491 -294 -518 -245 -539 -193 -555 -139 -566 -84 -572 -28 -572 28 -566 84 -555 139 -539 193 -518 245 -491 294 -460 341 -424 384 -384 424 -341 460 -294 491 -245 518 -193 539 -139 555 -84 566 -28 572 5834 0 Z" class="C2" /><path d="M 50280 70263 l 28 572 84 566 139 555 193 539 245 518 294 491 341 460 384 424 424 384 460 341 491 294 518 245 539 193 555 139 566 84 572 28 572 -28 566 -84 555 -139 539 -193 518 -245 491 -294 460 -341 424 -384 384 -424 341 -460 294 -491 245 -518 193 -539 139 -555 84 -566 28 -572 -5834 0 Z" class="C2" /><path d="M 61948 70263 l -28 -572 -84 -566 -139 -555 -193 -539 -245 -518 -294 -491 -341 -460 -384 -424 -424 -384 -460 -341 -491 -294 -518 -245 -539 -193 -555 -139 -566 -84 -572 -28 -572 28 -566 84 -555 139 -539 193 -518 245 -491 294 -460 341 -424 384 -384 424 -341 460 -294 491 -245 518 -193 539 -139 555 -84 566 -28 572 5834 0 Z" class="C2" /><path d="M 69138 89121 l 28 572 84 566 139 555 193 539 245 518 294 491 341 460 384 424 424 384 460 341 491 294 518 245 539 193 555 139 566 84 572 28 572 -28 566 -84 555 -139 539 -193 518 -245 491 -294 460 -341 424 -384 384 -424 341 -460 294 -491 245 -518 193 -539 139 -555 84 -566 28 -572 -5834 0 Z" class="C2" /><path d="M 80805 89121 l -28 -572 -84 -566 -139 -555 -193 -539 -245 -518 -294 -491 -341 -460 -384 -424 -424 -384 -460 -341 -491 -294 -518 -245 -539 -193 -555 -139 -566 -84 -572 -28 -572 28 -566 84 -555 139 -539 193 -518 245 -491 294 -460 341 -424 384 -384 424 -341 460 -294 491 -245 518 -193 539 -139 555 -84 566 -28 572 5834 0 Z" class="C2" /><path d="M 95806 89121 l 28 572 84 566 139 555 193 539 245 518 294 491 341 460 384 424 424 384 460 341 491 294 518 245 539 193 555 139 566 84 572 28 572 -28 566 -84 555 -139 539 -193 518 -245 491 -294 460 -341 424 -384 384 -424 341 -460 294 -491 245 -518 193 -539 139 -555 84 -566 28 -572 -5834 0 Z" class="C2" /><path d="M 107473 89121 l -28 -572 -84 -566 -139 -555 -193 -539 -245 -518 -294 -491 -341 -460 -384 -424 -424 -384 -460 -341 -491 -294 -518 -245 -539 -193 -555 -139 -566 -84 -572 -28 -572 28 -566 84 -555 139 -539 193 -518 245 -491 294 -460 341 -424 384 -384 424 -341 460 -294 491 -245 518 -193 539 -139 555 -84 566 -28 572 5834 0 Z" class="C2" /><path d="M 76949 70263 l 28 572 84 566 139 555 193 539 245 518 294 491 341 460 384 424 424 384 460 341 491 294 518 245 539 193 555 139 566 84 572 28 572 -28 566 -84 555 -139 539 -193 518 -245 491 -294 460 -341 424 -384 384 -424 341 -460 294 -491 245 -518 193 -539 139 -555 84 -566 28 -572 -5834 0 Z" class="C2" /><path d="M 88616 70263 l -28 -572 -84 -566 -139 -555 -193 -539 -245 -518 -294 -491 -341 -460 -384 -424 -424 -384 -460 -341 -491 -294 -518 -245 -539 -193 -555 -139 -566 -84 -572 -28 -572 28 -566 84 -555 139 -539 193 -518 245 -491 294 -460 341 -424 384 -384 424 -341 460 -294 491 -245 518 -193 539 -139 555 -84 566 -28 572 5834 0 Z" class="C2" /><path d="M 58091 51406 l 28 572 84 566 139 555 193 539 245 518 294 491 341 460 384 424 424 384 460 341 491 294 518 245 539 193 555 139 566 84 572 28 572 -28 566 -84 555 -139 539 -193 518 -245 491 -294 460 -341 424 -384 384 -424 341 -460 294 -491 245 -518 193 -539 139 -555 84 -566 28 -572 -5834 0 Z" class="C2" /><path d="M 69759 51406 l -28 -572 -84 -566 -139 -555 -193 -539 -245 -518 -294 -491 -341 -460 -384 -424 -424 -384 -460 -341 -491 -294 -518 -245 -539 -193 -555 -139 -566 -84 -572 -28 -572 28 -566 84 -555 139 -539 193 -518 245 -491 294 -460 341 -424 384 -384 424 -341 460 -294 491 -245 518 -193 539 -139 555 -84 566 -28 572 5834 0 Z" class="C2" /><path d="M 84759 51406 l 28 572 84 566 139 555 193 539 245 518 294 491 341 460 384 424 424 384 460 341 491 294 518 245 539 193 555 139 566 84 572 28 572 -28 566 -84 555 -139 539 -193 518 -245 491 -294 460 -341 424 -384 384 -424 341 -460 294 -491 245 -518 193 -539 139 -555 84 -566 28 -572 -5834 0 Z" class="C2" /><path d="M 96427 51406 l -28 -572 -84 -566 -139 -555 -193 -539 -245 -518 -294 -491 -341 -460 -384 -424 -424 -384 -460 -341 -491 -294 -518 -245 -539 -193 -555 -139 -566 -84 -572 -28 -572 28 -566 84 -555 139 -539 193 -518 245 -491 294 -460 341 -424 384 -384 424 -341 460 -294 491 -245 518 -193 539 -139 555 -84 566 -28 572 5834 0 Z" class="C2" /><path d="M 103617 70263 l 28 572 84 566 139 555 193 539 245 518 294 491 341 460 384 424 424 384 460 341 491 294 518 245 539 193 555 139 566 84 572 28 572 -28 566 -84 555 -139 539 -193 518 -245 491 -294 460 -341 424 -384 384 -424 341 -460 294 -491 245 -518 193 -539 139 -555 84 -566 28 -572 -5834 0 Z" class="C2" /><path d="M 115284 70263 l -28 -572 -84 -566 -139 -555 -193 -539 -245 -518 -294 -491 -341 -460 -384 -424 -424 -384 -460 -341 -491 -294 -518 -245 -539 -193 -555 -139 -566 -84 -572 -28 -572 28 -566 84 -555 139 -539 193 -518 245 -491 294 -460 341 -424 384 -384 424 -341 460 -294 491 -245 518 -193 539 -139 555 -84 566 -28 572 5834 0 Z" class="C2" /><path d="M 122474 89121 l 28 572 84 566 139 555 193 539 245 518 294 491 341 460 384 424 424 384 460 341 491 294 518 245 539 193 555 139 566 84 572 28 572 -28 566 -84 555 -139 539 -193 518 -245 491 -294 460 -341 424 -384 384 -424 341 -460 294 -491 245 -518 193 -539 139 -555 84 -566 28 -572 -5834 0 Z" class="C2" /><path d="M 134141 89121 l -28 -572 -84 -566 -139 -555 -193 -539 -245 -518 -294 -491 -341 -460 -384 -424 -424 -384 -460 -341 -491 -294 -518 -245 -539 -193 -555 -139 -566 -84 -572 -28 -572 28 -566 84 -555 139 -539 193 -518 245 -491 294 -460 341 -424 384 -384 424 -341 460 -294 491 -245 518 -193 539 -139 555 -84 566 -28 572 5834 0 Z" class="C2" /><path d="M 149142 89121 l 28 572 84 566 139 555 193 539 245 518 294 491 341 460 384 424 424 384 460 341 491 294 518 245 539 193 555 139 566 84 572 28 572 -28 566 -84 555 -139 539 -193 518 -245 491 -294 460 -341 424 -384 384 -424 341 -460 294 -491 245 -518 193 -539 139 -555 84 -566 28 -572 -5834 0 Z" class="C2" /><path d="M 160809 89121 l -28 -572 -84 -566 -139 -555 -193 -539 -245 -518 -294 -491 -341 -460 -384 -424 -424 -384 -460 -341 -491 -294 -518 -245 -539 -193 -555 -139 -566 -84 -572 -28 -572 28 -566 84 -555 139 -539 193 -518 245 -491 294 -460 341 -424 384 -384 424 -341 460 -294 491 -245 518 -193 539 -139 555 -84 566 -28 572 5834 0 Z" class="C2" /><path d="M 130285 70263 l 28 572 84 566 139 555 193 539 245 518 294 491 341 460 384 424 424 384 460 341 491 294 518 245 539 193 555 139 566 84 572 28 572 -28 566 -84 555 -139 539 -193 518 -245 491 -294 460 -341 424 -384 384 -424 341 -460 294 -491 245 -518 193 -539 139 -555 84 -566 28 -572 -5834 0 Z" class="C2" /><path d="M 141952 70263 l -28 -572 -84 -566 -139 -555 -193 -539 -245 -518 -294 -491 -341 -460 -384 -424 -424 -384 -460 -341 -491 -294 -518 -245 -539 -193 -555 -139 -566 -84 -572 -28 -572 28 -566 84 -555 139 -539 193 -518 245 -491 294 -460 341 -424 384 -384 424 -341 460 -294 491 -245 518 -193 539 -139 555 -84 566 -28 572 5834 0 Z" class="C2" /><path d="M 111427 51406 l 28 572 84 566 139 555 193 539 245 518 294 491 341 460 384 424 424 384 460 341 491 294 518 245 539 193 555 139 566 84 572 28 572 -28 566 -84 555 -139 539 -193 518 -245 491 -294 460 -341 424 -384 384 -424 341 -460 294 -491 245 -518 193 -539 139 -555 84 -566 28 -572 -5834 0 Z" class="C2" /><path d="M 123095 51406 l -28 -572 -84 -566 -139 -555 -193 -539 -245 -518 -294 -491 -341 -460 -384 -424 -424 -384 -460 -341 -491 -294 -518 -245 -539 -193 -555 -139 -566 -84 -572 -28 -572 28 -566 84 -555 139 -539 193 -518 245 -491 294 -460 341 -424 384 -384 424 -341 460 -294 491 -245 518 -193 539 -139 555 -84 566 -28 572 5834 0 Z" class="C2" /><path d="M 106852 180171 l 28 572 84 566 139 555 193 539 245 518 294 491 341 460 384 424 424 384 460 341 491 294 518 245 539 193 555 139 566 84 572 28 572 -28 566 -84 555 -139 539 -193 518 -245 491 -294 460 -341 424 -384 384 -424 341 -460 294 -491 245 -518 193 -539 139 -555 84 -566 28 -572 -5834 0 Z" class="C2" /><path d="M 118519 180171 l -28 -572 -84 -566 -139 -555 -193 -539 -245 -518 -294 -491 -341 -460 -384 -424 -424 -384 -460 -341 -491 -294 -518 -245 -539 -193 -555 -139 -566 -84 -572 -28 -572 28 -566 84 -555 139 -539 193 -518 245 -491 294 -460 341 -424 384 -384 424 -341 460 -294 491 -245 518 -193 539 -139 555 -84 566 -28 572 5834 0 Z" class="C2" /><path d="M 133520 180171 l 28 572 84 566 139 555 193 539 245 518 294 491 341 460 384 424 424 384 460 341 491 294 518 245 539 193 555 139 566 84 572 28 572 -28 566 -84 555 -139 539 -193 518 -245 491 -294 460 -341 424 -384 384 -424 341 -460 294 -491 245 -518 193 -539 139 -555 84 -566 28 -572 -5834 0 Z" class="C2" /><path d="M 145187 180171 l -28 -572 -84 -566 -139 -555 -193 -539 -245 -518 -294 -491 -341 -460 -384 -424 -424 -384 -460 -341 -491 -294 -518 -245 -539 -193 -555 -139 -566 -84 -572 -28 -572 28 -566 84 -555 139 -539 193 -518 245 -491 294 -460 341 -424 384 -384 424 -341 460 -294 491 -245 518 -193 539 -139 555 -84 566 -28 572 5834 0 Z" class="C2" /><path d="M 160188 180171 l 28 572 84 566 139 555 193 539 245 518 294 491 341 460 384 424 424 384 460 341 491 294 518 245 539 193 555 139 566 84 572 28 572 -28 566 -84 555 -139 539 -193 518 -245 491 -294 460 -341 424 -384 384 -424 341 -460 294 -491 245 -518 193 -539 139 -555 84 -566 28 -572 -5834 0 Z" class="C2" /><path d="M 171855 180171 l -28 -572 -84 -566 -139 -555 -193 -539 -245 -518 -294 -491 -341 -460 -384 -424 -424 -384 -460 -341 -491 -294 -518 -245 -539 -193 -555 -139 -566 -84 -572 -28 -572 28 -566 84 -555 139 -539 193 -518 245 -491 294 -460 341 -424 384 -384 424 -341 460 -294 491 -245 518 -193 539 -139 555 -84 566 -28 572 5834 0 Z" class="C2" /><path d="M 186856 180171 l 28 572 84 566 139 555 193 539 245 518 294 491 341 460 384 424 424 384 460 341 491 294 518 245 539 193 555 139 566 84 572 28 572 -28 566 -84 555 -139 539 -193 518 -245 491 -294 460 -341 424 -384 384 -424 341 -460 294 -491 245 -518 193 -539 139 -555 84 -566 28 -572 -5834 0 Z" class="C2" /><path d="M 198523 180171 l -28 -572 -84 -566 -139 -555 -193 -539 -245 -518 -294 -491 -341 -460 -384 -424 -424 -384 -460 -341 -491 -294 -518 -245 -539 -193 -555 -139 -566 -84 -572 -28 -572 28 -566 84 -555 139 -539 193 -518 245 -491 294 -460 341 -424 384 -384 424 -341 460 -294 491 -245 518 -193 539 -139 555 -84 566 -28 572 5834 0 Z" class="C2" /><path d="M 186856 206839 l 28 572 84 566 139 555 193 539 245 518 294 491 341 460 384 424 424 384 460 341 491 294 518 245 539 193 555 139 566 84 572 28 572 -28 566 -84 555 -139 539 -193 518 -245 491 -294 460 -341 424 -384 384 -424 341 -460 294 -491 245 -518 193 -539 139 -555 84 -566 28 -572 -5834 0 Z" class="C2" /><path d="M 198523 206839 l -28 -572 -84 -566 -139 -555 -193 -539 -245 -518 -294 -491 -341 -460 -384 -424 -424 -384 -460 -341 -491 -294 -518 -245 -539 -193 -555 -139 -566 -84 -572 -28 -572 28 -566 84 -555 139 -539 193 -518 245 -491 294 -460 341 -424 384 -384 424 -341 460 -294 491 -245 518 -193 539 -139 555 -84 566 -28 572 5834 0 Z" class="C2" /><path d="M 160188 206839 l 28 572 84 566 139 555 193 539 245 518 294 491 341 460 384 424 424 384 460 341 491 294 518 245 539 193 555 139 566 84 572 28 572 -28 566 -84 555 -139 539 -193 518 -245 491 -294 460 -341 424 -384 384 -424 341 -460 294 -491 245 -518 193 -539 139 -555 84 -566 28 -572 -5834 0 Z" class="C2" /><path d="M 171855 206839 l -28 -572 -84 -566 -139 -555 -193 -539 -245 -518 -294 -491 -341 -460 -384 -424 -424 -384 -460 -341 -491 -294 -518 -245 -539 -193 -555 -139 -566 -84 -572 -28 -572 28 -566 84 -555 139 -539 193 -518 245 -491 294 -460 341 -424 384 -384 424 -341 460 -294 491 -245 518 -193 539 -139 555 -84 566 -28 572 5834 0 Z" class="C2" /><path d="M 133520 206839 l 28 572 84 566 139 555 193 539 245 518 294 491 341 460 384 424 424 384 460 341 491 294 518 245 539 193 555 139 566 84 572 28 572 -28 566 -84 555 -139 539 -193 518 -245 491 -294 460 -341 424 -384 384 -424 341 -460 294 -491 245 -518 193 -539 139 -555 84 -566 28 -572 -5834 0 Z" class="C2" /><path d="M 145187 206839 l -28 -572 -84 -566 -139 -555 -193 -539 -245 -518 -294 -491 -341 -460 -384 -424 -424 -384 -460 -341 -491 -294 -518 -245 -539 -193 -555 -139 -566 -84 -572 -28 -572 28 -566 84 -555 139 -539 193 -518 245 -491 294 -460 341 -424 384 -384 424 -341 460 -294 491 -245 518 -193 539 -139 555 -84 566 -28 572 5834 0 Z" class="C2" /><path d="M 106852 206839 l 28 572 84 566 139 555 193 539 245 518 294 491 341 460 384 424 424 384 460 341 491 294 518 245 539 193 555 139 566 84 572 28 572 -28 566 -84 555 -139 539 -193 518 -245 491 -294 460 -341 424 -384 384 -424 341 -460 294 -491 245 -518 193 -539 139 -555 84 -566 28 -572 -5834 0 Z" class="C2" /><path d="M 118519 206839 l -28 -572 -84 -566 -139 -555 -193 -539 -245 -518 -294 -491 -341 -460 -384 -424 -424 -384 -460 -341 -491 -294 -518 -245 -539 -193 -555 -139 -566 -84 -572 -28 -572 28 -566 84 -555 139 -539 193 -518 245 -491 294 -460 341 -424 384 -384 424 -341 460 -294 491 -245 518 -193 539 -139 555 -84 566 -28 572 5834 0 Z" class="C2" /><path d="M 106852 233507 l 28 572 84 566 139 555 193 539 245 518 294 491 341 460 384 424 424 384 460 341 491 294 518 245 539 193 555 139 566 84 572 28 572 -28 566 -84 555 -139 539 -193 518 -245 491 -294 460 -341 424 -384 384 -424 341 -460 294 -491 245 -518 193 -539 139 -555 84 -566 28 -572 -5834 0 Z" class="C2" /><path d="M 118519 233507 l -28 -572 -84 -566 -139 -555 -193 -539 -245 -518 -294 -491 -341 -460 -384 -424 -424 -384 -460 -341 -491 -294 -518 -245 -539 -193 -555 -139 -566 -84 -572 -28 -572 28 -566 84 -555 139 -539 193 -518 245 -491 294 -460 341 -424 384 -384 424 -341 460 -294 491 -245 518 -193 539 -139 555 -84 566 -28 572 5834 0 Z" class="C2" /><path d="M 133520 233507 l 28 572 84 566 139 555 193 539 245 518 294 491 341 460 384 424 424 384 460 341 491 294 518 245 539 193 555 139 566 84 572 28 572 -28 566 -84 555 -139 539 -193 518 -245 491 -294 460 -341 424 -384 384 -424 341 -460 294 -491 245 -518 193 -539 139 -555 84 -566 28 -572 -5834 0 Z" class="C2" /><path d="M 145187 233507 l -28 -572 -84 -566 -139 -555 -193 -539 -245 -518 -294 -491 -341 -460 -384 -424 -424 -384 -460 -341 -491 -294 -518 -245 -539 -193 -555 -139 -566 -84 -572 -28 -572 28 -566 84 -555 139 -539 193 -518 245 -491 294 -460 341 -424 384 -384 424 -341 460 -294 491 -245 518 -193 539 -139 555 -84 566 -28 572 5834 0 Z" class="C2" /><path d="M 160188 233507 l 28 572 84 566 139 555 193 539 245 518 294 491 341 460 384 424 424 384 460 341 491 294 518 245 539 193 555 139 566 84 572 28 572 -28 566 -84 555 -139 539 -193 518 -245 491 -294 460 -341 424 -384 384 -424 341 -460 294 -491 245 -518 193 -539 139 -555 84 -566 28 -572 -5834 0 Z" class="C2" /><path d="M 171855 233507 l -28 -572 -84 -566 -139 -555 -193 -539 -245 -518 -294 -491 -341 -460 -384 -424 -424 -384 -460 -341 -491 -294 -518 -245 -539 -193 -555 -139 -566 -84 -572 -28 -572 28 -566 84 -555 139 -539 193 -518 245 -491 294 -460 341 -424 384 -384 424 -341 460 -294 491 -245 518 -193 539 -139 555 -84 566 -28 572 5834 0 Z" class="C2" /><path d="M 186856 233507 l 28 572 84 566 139 555 193 539 245 518 294 491 341 460 384 424 424 384 460 341 491 294 518 245 539 193 555 139 566 84 572 28 572 -28 566 -84 555 -139 539 -193 518 -245 491 -294 460 -341 424 -384 384 -424 341 -460 294 -491 245 -518 193 -539 139 -555 84 -566 28 -572 -5834 0 Z" class="C2" /><path d="M 198523 233507 l -28 -572 -84 -566 -139 -555 -193 -539 -245 -518 -294 -491 -341 -460 -384 -424 -424 -384 -460 -341 -491 -294 -518 -245 -539 -193 -555 -139 -566 -84 -572 -28 -572 28 -566 84 -555 139 -539 193 -518 245 -491 294 -460 341 -424 384 -384 424 -341 460 -294 491 -245 518 -193 539 -139 555 -84 566 -28 572 5834 0 Z" class="C2" /></g></svg>
