<?xml version='1.0' encoding='utf-8'?>
<svg xmlns="http://www.w3.org/2000/svg" width="200.0mm" height="93.3mm" viewBox="272448 -27980 755443 352365"><defs><style>.C1 {stroke: #000000; stroke-width: 524.996; stroke-opacity: 1.000; fill: none; fill-opacity: 1.000;}</style><style>.C2 {stroke: none; stroke-width: none; stroke-opacity: 1.000; fill: #000000; fill-opacity: 1.000;}</style></defs><rect fill="#ffffff" x="272448" y="-27980" width="755443" height="352365" fill-opacity="1.0" /><g stroke-linecap="round" stroke-linejoin="round"><path d="M 659381 233507 l 28 572 84 566 139 555 193 539 245 518 294 491 341 460 384 424 424 384 460 341 491 294 518 245 539 193 555 139 566 84 572 28 572 -28 566 -84 555 -139 539 -193 518 -245 491 -294 460 -341 424 -384 384 -424 341 -460 294 -491 245 -518 193 -539 139 -555 84 -566 28 -572 -5834 0 Z" class="C2" /><path d="M 671048 233507 l -28 -572 -84 -566 -139 -555 -193 -539 -245 -518 -294 -491 -341 -460 -384 -424 -424 -384 -460 -341 -491 -294 -518 -245 -539 -193 -555 -139 -566 -84 -572 -28 -572 28 -566 84 -555 139 -539 193 -518 245 -491 294 -460 341 -424 384 -384 424 -341 460 -294 491 -245 518 -193 539 -139 555 -84 566 -28 572 5834 0 Z" class="C2" /><path d="M 659381 206839 l 28 572 84 566 139 555 193 539 245 518 294 491 341 460 384 424 424 384 460 341 491 294 518 245 539 193 555 139 566 84 572 28 572 -28 566 -84 555 -139 539 -193 518 -245 491 -294 460 -341 424 -384 384 -424 341 -460 294 -491 245 -518 193 -539 139 -555 84 -566 28 -572 -5834 0 Z" class="C2" /><path d="M 671048 206839 l -28 -572 -84 -566 -139 -555 -193 -539 -245 -518 -294 -491 -341 -460 -384 -424 -424 -384 -460 -341 -491 -294 -518 -245 -539 -193 -555 -139 -566 -84 -572 -28 -572 28 -566 84 -555 139 -539 193 -518 245 -491 294 -460 341 -424 384 -384 424 -341 460 -294 491 -245 518 -193 539 -139 555 -84 566 -28 572 5834 0 Z" class="C2" /><path d="M 659381 180171 l 28 572 84 566 139 555 193 539 245 518 294 491 341 460 384 424 424 384 460 341 491 294 518 245 539 193 555 139 566 84 572 28 572 -28 566 -84 555 -139 539 -193 518 -245 491 -294 460 -341 424 -384 384 -424 341 -460 294 -491 245 -518 193 -539 139 -555 84 -566 28 -572 -5834 0 Z" class="C2" /><path d="M 671048 180171 l -28 -572 -84 -566 -139 -555 -193 -539 -245 -518 -294 -491 -341 -460 -384 -424 -424 -384 -460 -341 -491 -294 -518 -245 -539 -193 -555 -139 -566 -84 -572 -28 -572 28 -566 84 -555 139 -539 193 -518 245 -491 294 -460 341 -424 384 -384 424 -341 460 -294 491 -245 518 -193 539 -139 555 -84 566 -28 572 5834 0 Z" class="C2" /><path d="M 659381 153503 l 28 572 84 566 139 555 193 539 245 518 294 491 341 460 384 424 424 384 460 341 491 294 518 245 539 193 555 139 566 84 572 28 572 -28 566 -84 555 -139 539 -193 518 -245 491 -294 460 -341 424 -384 384 -424 341 -460 294 -491 245 -518 193 -539 139 -555 84 -566 28 -572 -5834 0 Z" class="C2" /><path d="M 671048 153503 l -28 -572 -84 -566 -139 -555 -193 -539 -245 -518 -294 -491 -341 -460 -384 -424 -424 -384 -460 -341 -491 -294 -518 -245 -539 -193 -555 -139 -566 -84 -572 -28 -572 28 -566 84 -555 139 -539 193 -518 245 -491 294 -460 341 -424 384 -384 424 -341 460 -294 491 -245 518 -193 539 -139 555 -84 566 -28 572 5834 0 Z" class="C2" /><path d="M 659381 126835 l 28 572 84 566 139 555 193 539 245 518 294 491 341 460 384 424 424 384 460 341 491 294 518 245 539 193 555 139 566 84 572 28 572 -28 566 -84 555 -139 539 -193 518 -245 491 -294 460 -341 424 -384 384 -424 341 -460 294 -491 245 -518 193 -539 139 -555 84 -566 28 -572 -5834 0 Z" class="C2" /><path d="M 671048 126835 l -28 -572 -84 -566 -139 -555 -193 -539 -245 -518 -294 -491 -341 -460 -384 -424 -424 -384 -460 -341 -491 -294 -518 -245 -539 -193 -555 -139 -566 -84 -572 -28 -572 28 -566 84 -555 139 -539 193 -518 245 -491 294 -460 341 -424 384 -384 424 -341 460 -294 491 -245 518 -193 539 -139 555 -84 566 -28 572 5834 0 Z" class="C2" /><path d="M 606045 233507 l 28 572 84 566 139 555 193 539 245 518 294 491 341 460 384 424 424 384 460 341 491 294 518 245 539 193 555 139 566 84 572 28 572 -28 566 -84 555 -139 539 -193 518 -245 491 -294 460 -341 424 -384 384 -424 341 -460 294 -491 245 -518 193 -539 139 -555 84 -566 28 -572 -5834 0 Z" class="C2" /><path d="M 617712 233507 l -28 -572 -84 -566 -139 -555 -193 -539 -245 -518 -294 -491 -341 -460 -384 -424 -424 -384 -460 -341 -491 -294 -518 -245 -539 -193 -555 -139 -566 -84 -572 -28 -572 28 -566 84 -555 139 -539 193 -518 245 -491 294 -460 341 -424 384 -384 424 -341 460 -294 491 -245 518 -193 539 -139 555 -84 566 -28 572 5834 0 Z" class="C2" /><path d="M 606045 206839 l 28 572 84 566 139 555 193 539 245 518 294 491 341 460 384 424 424 384 460 341 491 294 518 245 539 193 555 139 566 84 572 28 572 -28 566 -84 555 -139 539 -193 518 -245 491 -294 460 -341 424 -384 384 -424 341 -460 294 -491 245 -518 193 -539 139 -555 84 -566 28 -572 -5834 0 Z" class="C2" /><path d="M 617712 206839 l -28 -572 -84 -566 -139 -555 -193 -539 -245 -518 -294 -491 -341 -460 -384 -424 -424 -384 -460 -341 -491 -294 -518 -245 -539 -193 -555 -139 -566 -84 -572 -28 -572 28 -566 84 -555 139 -539 193 -518 245 -491 294 -460 341 -424 384 -384 424 -341 460 -294 491 -245 518 -193 539 -139 555 -84 566 -28 572 5834 0 Z" class="C2" /><path d="M 632713 233507 l 28 572 84 566 139 555 193 539 245 518 294 491 341 460 384 424 424 384 460 341 491 294 518 245 539 193 555 139 566 84 572 28 572 -28 566 -84 555 -139 539 -193 518 -245 491 -294 460 -341 424 -384 384 -424 341 -460 294 -491 245 -518 193 -539 139 -555 84 -566 28 -572 -5834 0 Z" class="C2" /><path d="M 644380 233507 l -28 -572 -84 -566 -139 -555 -193 -539 -245 -518 -294 -491 -341 -460 -384 -424 -424 -384 -460 -341 -491 -294 -518 -245 -539 -193 -555 -139 -566 -84 -572 -28 -572 28 -566 84 -555 139 -539 193 -518 245 -491 294 -460 341 -424 384 -384 424 -341 460 -294 491 -245 518 -193 539 -139 555 -84 566 -28 572 5834 0 Z" class="C2" /><path d="M 632713 206839 l 28 572 84 566 139 555 193 539 245 518 294 491 341 460 384 424 424 384 460 341 491 294 518 245 539 193 555 139 566 84 572 28 572 -28 566 -84 555 -139 539 -193 518 -245 491 -294 460 -341 424 -384 384 -424 341 -460 294 -491 245 -518 193 -539 139 -555 84 -566 28 -572 -5834 0 Z" class="C2" /><path d="M 644380 206839 l -28 -572 -84 -566 -139 -555 -193 -539 -245 -518 -294 -491 -341 -460 -384 -424 -424 -384 -460 -341 -491 -294 -518 -245 -539 -193 -555 -139 -566 -84 -572 -28 -572 28 -566 84 -555 139 -539 193 -518 245 -491 294 -460 341 -424 384 -384 424 -341 460 -294 491 -245 518 -193 539 -139 555 -84 566 -28 572 5834 0 Z" class="C2" /><path d="M 606045 180171 l 28 572 84 566 139 555 193 539 245 518 294 491 341 460 384 424 424 384 460 341 491 294 518 245 539 193 555 139 566 84 572 28 572 -28 566 -84 555 -139 539 -193 518 -245 491 -294 460 -341 424 -384 384 -424 341 -460 294 -491 245 -518 193 -539 139 -555 84 -566 28 -572 -5834 0 Z" class="C2" /><path d="M 617712 180171 l -28 -572 -84 -566 -139 -555 -193 -539 -245 -518 -294 -491 -341 -460 -384 -424 -424 -384 -460 -341 -491 -294 -518 -245 -539 -193 -555 -139 -566 -84 -572 -28 -572 28 -566 84 -555 139 -539 193 -518 245 -491 294 -460 341 -424 384 -384 424 -341 460 -294 491 -245 518 -193 539 -139 555 -84 566 -28 572 5834 0 Z" class="C2" /><path d="M 606045 153503 l 28 572 84 566 139 555 193 539 245 518 294 491 341 460 384 424 424 384 460 341 491 294 518 245 539 193 555 139 566 84 572 28 572 -28 566 -84 555 -139 539 -193 518 -245 491 -294 460 -341 424 -384 384 -424 341 -460 294 -491 245 -518 193 -539 139 -555 84 -566 28 -572 -5834 0 Z" class="C2" /><path d="M 617712 153503 l -28 -572 -84 -566 -139 -555 -193 -539 -245 -518 -294 -491 -341 -460 -384 -424 -424 -384 -460 -341 -491 -294 -518 -245 -539 -193 -555 -139 -566 -84 -572 -28 -572 28 -566 84 -555 139 -539 193 -518 245 -491 294 -460 341 -424 384 -384 424 -341 460 -294 491 -245 518 -193 539 -139 555 -84 566 -28 572 5834 0 Z" class="C2" /><path d="M 632713 180171 l 28 572 84 566 139 555 193 539 245 518 294 491 341 460 384 424 424 384 460 341 491 294 518 245 539 193 555 139 566 84 572 28 572 -28 566 -84 555 -139 539 -193 518 -245 491 -294 460 -341 424 -384 384 -424 341 -460 294 -491 245 -518 193 -539 139 -555 84 -566 28 -572 -5834 0 Z" class="C2" /><path d="M 644380 180171 l -28 -572 -84 -566 -139 -555 -193 -539 -245 -518 -294 -491 -341 -460 -384 -424 -424 -384 -460 -341 -491 -294 -518 -245 -539 -193 -555 -139 -566 -84 -572 -28 -572 28 -566 84 -555 139 -539 193 -518 245 -491 294 -460 341 -424 384 -384 424 -341 460 -294 491 -245 518 -193 539 -139 555 -84 566 -28 572 5834 0 Z" class="C2" /><path d="M 632713 153503 l 28 572 84 566 139 555 193 539 245 518 294 491 341 460 384 424 424 384 460 341 491 294 518 245 539 193 555 139 566 84 572 28 572 -28 566 -84 555 -139 539 -193 518 -245 491 -294 460 -341 424 -384 384 -424 341 -460 294 -491 245 -518 193 -539 139 -555 84 -566 28 -572 -5834 0 Z" class="C2" /><path d="M 644380 153503 l -28 -572 -84 -566 -139 -555 -193 -539 -245 -518 -294 -491 -341 -460 -384 -424 -424 -384 -460 -341 -491 -294 -518 -245 -539 -193 -555 -139 -566 -84 -572 -28 -572 28 -566 84 -555 139 -539 193 -518 245 -491 294 -460 341 -424 384 -384 424 -341 460 -294 491 -245 518 -193 539 -139 555 -84 566 -28 572 5834 0 Z" class="C2" /><path d="M 606045 126835 l 28 572 84 566 139 555 193 539 245 518 294 491 341 460 384 424 424 384 460 341 491 294 518 245 539 193 555 139 566 84 572 28 572 -28 566 -84 555 -139 539 -193 518 -245 491 -294 460 -341 424 -384 384 -424 341 -460 294 -491 245 -518 193 -539 139 -555 84 -566 28 -572 -5834 0 Z" class="C2" /><path d="M 617712 126835 l -28 -572 -84 -566 -139 -555 -193 -539 -245 -518 -294 -491 -341 -460 -384 -424 -424 -384 -460 -341 -491 -294 -518 -245 -539 -193 -555 -139 -566 -84 -572 -28 -572 28 -566 84 -555 139 -539 193 -518 245 -491 294 -460 341 -424 384 -384 424 -341 460 -294 491 -245 518 -193 539 -139 555 -84 566 -28 572 5834 0 Z" class="C2" /><path d="M 632713 126835 l 28 572 84 566 139 555 193 539 245 518 294 491 341 460 384 424 424 384 460 341 491 294 518 245 539 193 555 139 566 84 572 28 572 -28 566 -84 555 -139 539 -193 518 -245 491 -294 460 -341 424 -384 384 -424 341 -460 294 -491 245 -518 193 -539 139 -555 84 -566 28 -572 -5834 0 Z" class="C2" /><path d="M 644380 126835 l -28 -572 -84 -566 -139 -555 -193 -539 -245 -518 -294 -491 -341 -460 -384 -424 -424 -384 -460 -341 -491 -294 -518 -245 -539 -193 -555 -139 -566 -84 -572 -28 -572 28 -566 84 -555 139 -539 193 -518 245 -491 294 -460 341 -424 384 -384 424 -341 460 -294 491 -245 518 -193 539 -139 555 -84 566 -28 572 5834 0 Z" class="C2" /><path d="M 300427 158012 l 0 0 l 32562 0 l 29261 0 l 26323 0 l 23748 0 l 21536 0 l 19687 0 l 18201 0 l 17078 0 l 16240 1 l 15376 9 l 14410 25 l 13340 50 l 12166 82 l 10889 122 l 9509 170 l 8026 227 l 6495 292 l 5143 373 l 4025 469 l 3142 582 l 2494 711 l 2080 856 l 1901 1017 l 1956 1194 l 2204 1369 l 2475 1468 l 2726 1474 l 2959 1387 l 3172 1206 l 3367 931 l 3542 563 l 3698 101 l 3862 -439 l 4141 -999 l 4562 -1562 l 5124 -2129 l 5829 -2701 l 6676 -3276 l 7665 -3855 l 8796 -4439 l 10050 -5029 l 11358 -5638 l 12702 -6269 l 14080 -6921 l 15494 -7594 l 16943 -8289 l 18427 -9006 l 19947 -9744 l 21454 -10479 l 22758 -11116 l 23811 -11630 l 24614 -12022 l 25165 -12291 l 25465 -12438 l 25514 -12462 l 25313 -12364" class="C1" /><path d="M 300427 164708 l 0 0 l 32541 0 l 29227 0 l 26284 0 l 23710 0 l 21505 0 l 19671 0 l 18207 0 l 17112 0 l 16307 0 l 15470 2 l 14520 6 l 13457 12 l 12281 20 l 10992 31 l 9591 43 l 8076 57 l 6517 74 l 5185 99 l 4148 133 l 3406 177 l 2959 229 l 2807 290 l 2950 361 l 3388 440 l 4080 520 l 4861 564 l 5691 564 l 6569 520 l 7495 431 l 8470 298 l 9493 121 l 10564 -100 l 11681 -355 l 12834 -602 l 14019 -829 l 15237 -1038 l 16487 -1228 l 17771 -1399 l 19087 -1551 l 20436 -1684 l 21776 -1798 l 22937 -1894 l 23879 -1972 l 24600 -2031 l 25100 -2072 l 25381 -2096 l 25442 -2101 l 25282 -2087" class="C1" /><path d="M 300427 173463 l 0 0 l 32528 0 l 29218 0 l 26277 0 l 23703 0 l 21497 0 l 19660 0 l 18190 0 l 17088 0 l 16275 0 l 15432 0 l 14479 0 l 13416 0 l 12244 0 l 10962 0 l 9570 0 l 8069 0 l 6515 -14 l 5134 -95 l 3984 -258 l 3065 -501 l 2376 -827 l 1918 -1233 l 1691 -1721 l 1694 -2290 l 1881 -2900 l 2066 -3384 l 2203 -3701 l 2292 -3852 l 2332 -3837 l 2324 -3655 l 2267 -3307 l 2163 -2792 l 2064 -2131 l 2187 -1410 l 2585 -649 l 3260 151 l 4210 992 l 5437 1872 l 6939 2791 l 8717 3751 l 10706 4733 l 12642 5672 l 14462 6549 l 16164 7366 l 17749 8123 l 19217 8818 l 20567 9453 l 21801 10027 l 22904 10536 l 23827 10960 l 24557 11296 l 25093 11543 l 25437 11701 l 25588 11771 l 25546 11751 l 25310 11643" class="C1" /><path d="M 300427 180159 l 0 0 l 32528 0 l 29233 -1 l 26293 -3 l 23707 -6 l 21475 -10 l 19598 -15 l 18075 -20 l 16906 -27 l 16016 -33 l 15100 -31 l 14082 -19 l 12963 3 l 11742 34 l 10419 75 l 8995 126 l 7469 186 l 5891 253 l 4464 309 l 3236 351 l 2209 379 l 1382 393 l 755 392 l 327 378 l 100 350 l 41 311 l 19 275 l 2 245 l -10 222 l -17 206 l -19 196 l -16 192 l -8 195 l -36 221 l -264 339 l -734 565 l -1444 900 l -2395 1342 l -3587 1893 l -5020 2552 l -6694 3320 l -8605 4195 l -10735 5177 l -13081 6265 l -15642 7459 l -18417 8759 l -21408 10165 l -24614 11678 l -28036 13296" class="C1" /><path d="M 300427 187369 l 0 0 l 32508 0 l 29207 0 l 26274 0 l 23709 0 l 21511 0 l 19681 0 l 18218 0 l 17123 0 l 16317 0 l 15479 1 l 14531 3 l 13472 6 l 12303 10 l 11024 15 l 9634 21 l 8133 28 l 6629 45 l 5545 103 l 4989 212 l 4961 371 l 5461 580 l 6488 839 l 8042 1149 l 10124 1509 l 12606 1905 l 14973 2277 l 17098 2610 l 18980 2905 l 20619 3162 l 22016 3380 l 23170 3560 l 24081 3701 l 24766 3807 l 25289 3887 l 25665 3945 l 25896 3980 l 25980 3993 l 25918 3984 l 25709 3952 l 25355 3897" class="C1" /></g></svg>
