<?xml version='1.0' encoding='UTF-8'?>
<!DOCTYPE svg PUBLIC "-//W3C//DTD SVG 1.1//EN" "http://www.w3.org/Graphics/SVG/1.1/DTD/svg11.dtd">
<svg xmlns="http://www.w3.org/2000/svg" xmlns:ooo="http://xml.openoffice.org/svg/export" xmlns:xlink="http://www.w3.org/1999/xlink" xmlns:presentation="http://sun.com/xmlns/staroffice/presentation" xmlns:smil="http://www.w3.org/2001/SMIL20/" xmlns:anim="urn:oasis:names:tc:opendocument:xmlns:animation:1.0" xmlns:svg="urn:oasis:names:tc:opendocument:xmlns:svg-compatible:1.0" version="1.2" width="215.9mm" height="279.4mm" viewBox="0 0 21590 27940" preserveAspectRatio="xMidYMid" fill-rule="evenodd" stroke-width="28.222" stroke-linejoin="round" xml:space="preserve">
 <defs class="ClipPathGroup">
  <clipPath id="presentation_clip_path" clipPathUnits="userSpaceOnUse">
   <rect x="0" y="0" width="21590" height="27940"/>
  </clipPath>
  <clipPath id="presentation_clip_path_shrink" clipPathUnits="userSpaceOnUse">
   <rect x="21" y="27" width="21547" height="27885"/>
  </clipPath>
 </defs>
 <defs class="TextShapeIndex">
  <g ooo:slide="id1" ooo:id-list="id3"/>
 </defs>
 <defs class="EmbeddedBulletChars">
  <g id="bullet-char-template-57356" transform="scale(0.00048828125,-0.00048828125)">
   <path d="M 580,1141 L 1163,571 580,0 -4,571 580,1141 Z"/>
  </g>
  <g id="bullet-char-template-57354" transform="scale(0.00048828125,-0.00048828125)">
   <path d="M 8,1128 L 1137,1128 1137,0 8,0 8,1128 Z"/>
  </g>
  <g id="bullet-char-template-10146" transform="scale(0.00048828125,-0.00048828125)">
   <path d="M 174,0 L 602,739 174,1481 1456,739 174,0 Z M 1358,739 L 309,1346 659,739 1358,739 Z"/>
  </g>
  <g id="bullet-char-template-10132" transform="scale(0.00048828125,-0.00048828125)">
   <path d="M 2015,739 L 1276,0 717,0 1260,543 174,543 174,936 1260,936 717,1481 1274,1481 2015,739 Z"/>
  </g>
  <g id="bullet-char-template-10007" transform="scale(0.00048828125,-0.00048828125)">
   <path d="M 0,-2 C -7,14 -16,27 -25,37 L 356,567 C 262,823 215,952 215,954 215,979 228,992 255,992 264,992 276,990 289,987 310,991 331,999 354,1012 L 381,999 492,748 772,1049 836,1024 860,1049 C 881,1039 901,1025 922,1006 886,937 835,863 770,784 769,783 710,716 594,584 L 774,223 C 774,196 753,168 711,139 L 727,119 C 717,90 699,76 672,76 641,76 570,178 457,381 L 164,-76 C 142,-110 111,-127 72,-127 30,-127 9,-110 8,-76 1,-67 -2,-52 -2,-32 -2,-23 -1,-13 0,-2 Z"/>
  </g>
  <g id="bullet-char-template-10004" transform="scale(0.00048828125,-0.00048828125)">
   <path d="M 285,-33 C 182,-33 111,30 74,156 52,228 41,333 41,471 41,549 55,616 82,672 116,743 169,778 240,778 293,778 328,747 346,684 L 369,508 C 377,444 397,411 428,410 L 1163,1116 C 1174,1127 1196,1133 1229,1133 1271,1133 1292,1118 1292,1087 L 1292,965 C 1292,929 1282,901 1262,881 L 442,47 C 390,-6 338,-33 285,-33 Z"/>
  </g>
  <g id="bullet-char-template-9679" transform="scale(0.00048828125,-0.00048828125)">
   <path d="M 813,0 C 632,0 489,54 383,161 276,268 223,411 223,592 223,773 276,916 383,1023 489,1130 632,1184 813,1184 992,1184 1136,1130 1245,1023 1353,916 1407,772 1407,592 1407,412 1353,268 1245,161 1136,54 992,0 813,0 Z"/>
  </g>
  <g id="bullet-char-template-8226" transform="scale(0.00048828125,-0.00048828125)">
   <path d="M 346,457 C 273,457 209,483 155,535 101,586 74,649 74,723 74,796 101,859 155,911 209,963 273,989 346,989 419,989 480,963 531,910 582,859 608,796 608,723 608,648 583,586 532,535 482,483 420,457 346,457 Z"/>
  </g>
  <g id="bullet-char-template-8211" transform="scale(0.00048828125,-0.00048828125)">
   <path d="M -4,459 L 1135,459 1135,606 -4,606 -4,459 Z"/>
  </g>
  <g id="bullet-char-template-61548" transform="scale(0.00048828125,-0.00048828125)">
   <path d="M 173,740 C 173,903 231,1043 346,1159 462,1274 601,1332 765,1332 928,1332 1067,1274 1183,1159 1299,1043 1357,903 1357,740 1357,577 1299,437 1183,322 1067,206 928,148 765,148 601,148 462,206 346,322 231,437 173,577 173,740 Z"/>
  </g>
 </defs>
 <g>
  <g id="id2" class="Master_Slide">
   <g id="bg-id2" class="Background"/>
   <g id="bo-id2" class="BackgroundObjects"/>
  </g>
 </g>
 <g class="SlideGroup">
  <g>
   <g id="container-id1">
    <g id="id1" class="Slide" clip-path="url(#presentation_clip_path)">
     <g class="Page">
      <g class="Graphic">
       <g id="id3">
        <rect class="BoundingBox" stroke="none" fill="none" x="1000" y="6042" width="19590" height="15856"/>
        <path fill="none" stroke="rgb(0,0,0)" stroke-width="73" stroke-linejoin="round" stroke-linecap="round" d="M 1054,6096 L 20498,6096 20498,21788 1054,21788 1054,6096 Z "/>
        <path fill="none" stroke="rgb(0,255,0)" stroke-width="18" stroke-linejoin="round" stroke-linecap="round" d="M 4298,21771 L 4298,6096 "/>
        <path fill="none" stroke="rgb(0,255,0)" stroke-width="18" stroke-linejoin="round" stroke-linecap="round" d="M 7524,21771 L 7524,6096 "/>
        <path fill="none" stroke="rgb(0,255,0)" stroke-width="18" stroke-linejoin="round" stroke-linecap="round" d="M 10767,21771 L 10767,6096 "/>
        <path fill="none" stroke="rgb(0,255,0)" stroke-width="18" stroke-linejoin="round" stroke-linecap="round" d="M 13994,21771 L 14012,6096 "/>
        <path fill="none" stroke="rgb(0,255,0)" stroke-width="18" stroke-linejoin="round" stroke-linecap="round" d="M 17237,21771 L 17237,6096 "/>
        <path fill="none" stroke="rgb(0,255,0)" stroke-width="18" stroke-linejoin="round" stroke-linecap="round" d="M 1054,20466 L 20481,20466 "/>
        <path fill="none" stroke="rgb(0,255,0)" stroke-width="18" stroke-linejoin="round" stroke-linecap="round" d="M 1054,17857 L 20481,17857 "/>
        <path fill="none" stroke="rgb(0,255,0)" stroke-width="18" stroke-linejoin="round" stroke-linecap="round" d="M 1054,15229 L 20481,15247 "/>
        <path fill="none" stroke="rgb(0,255,0)" stroke-width="18" stroke-linejoin="round" stroke-linecap="round" d="M 1054,12620 L 20481,12638 "/>
        <path fill="none" stroke="rgb(0,255,0)" stroke-width="18" stroke-linejoin="round" stroke-linecap="round" d="M 1054,10011 L 20481,10029 "/>
        <path fill="none" stroke="rgb(0,255,0)" stroke-width="18" stroke-linejoin="round" stroke-linecap="round" d="M 1054,7401 L 20481,7401 "/>
        <path fill="none" stroke="rgb(0,0,0)" stroke-width="36" stroke-linejoin="round" stroke-linecap="round" d="M 12381,21771 L 12399,21771 "/>
        <path fill="none" stroke="rgb(0,0,0)" stroke-width="36" stroke-linejoin="round" stroke-linecap="round" d="M 13994,21771 L 14012,21771 "/>
        <path fill="none" stroke="rgb(0,0,0)" stroke-width="36" stroke-linejoin="round" stroke-linecap="round" d="M 18850,21771 L 18868,21771 "/>
        <path fill="none" stroke="rgb(0,0,0)" stroke-width="36" stroke-linejoin="round" stroke-linecap="round" d="M 1054,21771 L 20481,21771 "/>
        <path fill="none" stroke="rgb(0,0,0)" stroke-width="36" stroke-linejoin="round" stroke-linecap="round" d="M 1054,20466 L 20481,20466 "/>
        <path fill="none" stroke="rgb(0,0,0)" stroke-width="36" stroke-linejoin="round" stroke-linecap="round" d="M 1054,15229 L 1054,15247 "/>
        <path fill="none" stroke="rgb(0,0,0)" stroke-width="36" stroke-linejoin="round" stroke-linecap="round" d="M 1054,13925 L 1054,13943 "/>
        <path fill="none" stroke="rgb(0,0,0)" stroke-width="36" stroke-linejoin="round" stroke-linecap="round" d="M 1054,12620 L 1054,12638 "/>
        <path fill="none" stroke="rgb(0,0,0)" stroke-width="36" stroke-linejoin="round" stroke-linecap="round" d="M 1054,11315 L 1054,11333 "/>
        <path fill="none" stroke="rgb(0,0,0)" stroke-width="36" stroke-linejoin="round" stroke-linecap="round" d="M 1054,10011 L 1054,10029 "/>
        <path fill="none" stroke="rgb(0,0,0)" stroke-width="36" stroke-linejoin="round" stroke-linecap="round" d="M 1054,6096 L 1054,6115 "/>
        <path fill="none" stroke="rgb(0,0,0)" stroke-width="36" stroke-linejoin="round" stroke-linecap="round" d="M 1054,21771 L 1054,6096 "/>
        <path fill="none" stroke="rgb(0,0,0)" stroke-width="18" stroke-linejoin="round" stroke-linecap="round" d="M 1054,20466 L 1254,20466 1453,20466 1652,20448 1852,20448 2033,20448 2232,20448 2432,20448 2631,20430 2830,20430 3012,20412 3211,20412 3410,20394 3609,20357 3809,20339 4008,20303 4189,20248 4389,20194 4588,20122 4787,20031 4987,19923 5168,19796 5367,19651 5567,19469 5766,19270 5966,19016 6164,18745 6346,18437 6546,18074 6744,17675 6944,17223 7143,16752 7325,16208 7524,15664 7723,15048 7923,14432 8122,13779 8321,13109 8503,12420 8702,11750 8901,11079 9101,10445 9300,9847 9481,9286 9680,8778 9880,8343 10079,7981 10278,7709 10478,7510 10659,7419 10858,7419 11058,7510 11257,7709 11456,7981 11637,8343 11837,8778 12036,9286 12235,9847 12435,10445 12635,11079 12815,11750 13015,12420 13214,13109 13413,13779 13613,14432 13794,15048 13994,15664 14192,16208 14392,16752 14592,17223 14790,17675 14972,18074 15171,18437 15371,18745 15570,19016 15769,19270 15951,19469 16150,19651 16349,19796 16549,19923 16748,20031 16947,20122 17129,20194 17328,20248 17527,20303 17726,20339 17926,20357 18125,20394 18306,20412 18506,20412 18705,20430 18904,20430 19104,20448 19303,20448 19502,20448 19684,20448 19883,20448 20082,20466 20281,20466 20481,20466 "/>
       </g>
      </g>
     </g>
    </g>
   </g>
  </g>
 </g>
</svg>