<?xml version="1.0" encoding="UTF-8"?>
<!DOCTYPE svg PUBLIC "-//W3C//DTD SVG 1.1//EN" "http://www.w3.org/Graphics/SVG/1.1/DTD/svg11.dtd">
<svg version="1.2" width="150.280mm" height="48.430mm" viewBox="3281 11548 15028 4843" preserveAspectRatio="xMidYMid" fill-rule="evenodd" stroke-width="28.222" stroke-linejoin="round" xmlns="http://www.w3.org/2000/svg" xmlns:ooo="http://xml.openoffice.org/svg/export" xmlns:xlink="http://www.w3.org/1999/xlink" xmlns:presentation="http://sun.com/xmlns/staroffice/presentation" xmlns:smil="http://www.w3.org/2001/SMIL20/" xmlns:anim="urn:oasis:names:tc:opendocument:xmlns:animation:1.0" xmlns:svg="urn:oasis:names:tc:opendocument:xmlns:svg-compatible:1.0" xml:space="preserve">
 <defs class="ClipPathGroup">
  <clipPath id="presentation_clip_path" clipPathUnits="userSpaceOnUse">
   <rect x="0" y="0" width="21590" height="27940"/>
  </clipPath>
  <clipPath id="presentation_clip_path_shrink" clipPathUnits="userSpaceOnUse">
   <rect x="21" y="27" width="21547" height="27885"/>
  </clipPath>
 </defs>
 <defs class="TextShapeIndex">
  <g ooo:slide="id1" ooo:id-list="id3"/>
 </defs>
 <defs class="EmbeddedBulletChars">
  <g id="bullet-char-template-57356" transform="scale(0.00048828125,-0.00048828125)">
   <path d="M 580,1141 L 1163,571 580,0 -4,571 580,1141 Z"/>
  </g>
  <g id="bullet-char-template-57354" transform="scale(0.00048828125,-0.00048828125)">
   <path d="M 8,1128 L 1137,1128 1137,0 8,0 8,1128 Z"/>
  </g>
  <g id="bullet-char-template-10146" transform="scale(0.00048828125,-0.00048828125)">
   <path d="M 174,0 L 602,739 174,1481 1456,739 174,0 Z M 1358,739 L 309,1346 659,739 1358,739 Z"/>
  </g>
  <g id="bullet-char-template-10132" transform="scale(0.00048828125,-0.00048828125)">
   <path d="M 2015,739 L 1276,0 717,0 1260,543 174,543 174,936 1260,936 717,1481 1274,1481 2015,739 Z"/>
  </g>
  <g id="bullet-char-template-10007" transform="scale(0.00048828125,-0.00048828125)">
   <path d="M 0,-2 C -7,14 -16,27 -25,37 L 356,567 C 262,823 215,952 215,954 215,979 228,992 255,992 264,992 276,990 289,987 310,991 331,999 354,1012 L 381,999 492,748 772,1049 836,1024 860,1049 C 881,1039 901,1025 922,1006 886,937 835,863 770,784 769,783 710,716 594,584 L 774,223 C 774,196 753,168 711,139 L 727,119 C 717,90 699,76 672,76 641,76 570,178 457,381 L 164,-76 C 142,-110 111,-127 72,-127 30,-127 9,-110 8,-76 1,-67 -2,-52 -2,-32 -2,-23 -1,-13 0,-2 Z"/>
  </g>
  <g id="bullet-char-template-10004" transform="scale(0.00048828125,-0.00048828125)">
   <path d="M 285,-33 C 182,-33 111,30 74,156 52,228 41,333 41,471 41,549 55,616 82,672 116,743 169,778 240,778 293,778 328,747 346,684 L 369,508 C 377,444 397,411 428,410 L 1163,1116 C 1174,1127 1196,1133 1229,1133 1271,1133 1292,1118 1292,1087 L 1292,965 C 1292,929 1282,901 1262,881 L 442,47 C 390,-6 338,-33 285,-33 Z"/>
  </g>
  <g id="bullet-char-template-9679" transform="scale(0.00048828125,-0.00048828125)">
   <path d="M 813,0 C 632,0 489,54 383,161 276,268 223,411 223,592 223,773 276,916 383,1023 489,1130 632,1184 813,1184 992,1184 1136,1130 1245,1023 1353,916 1407,772 1407,592 1407,412 1353,268 1245,161 1136,54 992,0 813,0 Z"/>
  </g>
  <g id="bullet-char-template-8226" transform="scale(0.00048828125,-0.00048828125)">
   <path d="M 346,457 C 273,457 209,483 155,535 101,586 74,649 74,723 74,796 101,859 155,911 209,963 273,989 346,989 419,989 480,963 531,910 582,859 608,796 608,723 608,648 583,586 532,535 482,483 420,457 346,457 Z"/>
  </g>
  <g id="bullet-char-template-8211" transform="scale(0.00048828125,-0.00048828125)">
   <path d="M -4,459 L 1135,459 1135,606 -4,606 -4,459 Z"/>
  </g>
  <g id="bullet-char-template-61548" transform="scale(0.00048828125,-0.00048828125)">
   <path d="M 173,740 C 173,903 231,1043 346,1159 462,1274 601,1332 765,1332 928,1332 1067,1274 1183,1159 1299,1043 1357,903 1357,740 1357,577 1299,437 1183,322 1067,206 928,148 765,148 601,148 462,206 346,322 231,437 173,577 173,740 Z"/>
  </g>
 </defs>
 <g>
  <g id="id2" class="Master_Slide">
   <g id="bg-id2" class="Background"/>
   <g id="bo-id2" class="BackgroundObjects"/>
  </g>
 </g>
 <g class="SlideGroup">
  <g>
   <g id="container-id1">
    <g id="id1" class="Slide" clip-path="url(#presentation_clip_path)">
     <g class="Page">
      <g class="Graphic">
       <g id="id3">
        <rect class="BoundingBox" stroke="none" fill="none" x="3281" y="11548" width="15028" height="4843"/>
        <defs>
         <clipPath id="clip_path_1" clipPathUnits="userSpaceOnUse">
          <path d="M 3281,11548 L 18308,11548 18308,16390 3281,16390 3281,11548 Z "/>
         </clipPath>
        </defs>
        <g clip-path="url(#clip_path_1)">
         <path fill="rgb(255,255,255)" stroke="none" d="M 3289,11540 L 18282,11540 18282,16374 3289,16374 3289,11540 Z "/>
         <path fill="none" stroke="rgb(255,255,255)" stroke-width="34" stroke-linejoin="round" stroke-linecap="round" d="M 3289,11540 L 18282,11540 18282,16374 3289,16374 3289,11540 Z "/>
         <path fill="none" stroke="rgb(0,0,0)" stroke-width="34" stroke-linejoin="round" stroke-linecap="round" d="M 3560,11878 L 3510,12979 8454,13191 8496,12090 3560,11878 Z "/>
         <path fill="none" stroke="rgb(0,0,0)" stroke-width="34" stroke-linejoin="round" stroke-linecap="round" d="M 3459,14080 L 3416,15180 8361,15392 8403,14291 3459,14080 Z "/>
         <path fill="none" stroke="rgb(0,0,0)" stroke-width="34" stroke-linejoin="round" stroke-linecap="round" d="M 18182,14080 L 18224,15180 13288,15392 13238,14291 18182,14080 Z "/>
         <path fill="none" stroke="rgb(0,0,0)" stroke-width="34" stroke-linejoin="round" stroke-linecap="round" d="M 18089,11878 L 18131,12979 13187,13191 13144,12090 18089,11878 Z "/>
         <path fill="none" stroke="rgb(0,0,0)" stroke-width="34" stroke-linejoin="round" stroke-linecap="round" d="M 8683,13470 L 12958,13470 12967,13470 "/>
         <path fill="none" stroke="rgb(0,0,0)" stroke-width="34" stroke-linejoin="round" stroke-linecap="round" d="M 12958,13470 L 12958,14046 12967,14046 "/>
         <path fill="none" stroke="rgb(0,0,0)" stroke-width="34" stroke-linejoin="round" stroke-linecap="round" d="M 12958,14054 L 8683,14054 8683,14054 "/>
         <path fill="none" stroke="rgb(0,0,0)" stroke-width="34" stroke-linejoin="round" stroke-linecap="round" d="M 8683,13470 L 8683,14046 8683,14046 "/>
         <path fill="none" stroke="rgb(0,0,0)" stroke-width="34" stroke-linejoin="round" stroke-linecap="round" d="M 8683,13131 L 8683,12031 8683,12031 "/>
         <path fill="none" stroke="rgb(0,0,0)" stroke-width="34" stroke-linejoin="round" stroke-linecap="round" d="M 12958,13131 L 12958,12031 12967,12031 "/>
         <path fill="none" stroke="rgb(0,0,0)" stroke-width="34" stroke-linejoin="round" stroke-linecap="round" d="M 12958,14367 L 12958,15468 12967,15468 "/>
         <path fill="none" stroke="rgb(0,0,0)" stroke-width="34" stroke-linejoin="round" stroke-linecap="round" d="M 8683,14367 L 8683,15468 8683,15468 "/>
         <path fill="none" stroke="rgb(0,0,0)" stroke-width="34" stroke-linejoin="round" stroke-linecap="round" d="M 8683,14367 L 12958,14367 12967,14367 "/>
         <path fill="none" stroke="rgb(0,0,0)" stroke-width="34" stroke-linejoin="round" stroke-linecap="round" d="M 12958,13131 L 8683,13131 8683,13131 "/>
         <path fill="none" stroke="rgb(0,0,0)" stroke-width="34" stroke-linejoin="round" stroke-linecap="round" d="M 12958,12031 L 8683,12031 8683,12031 "/>
         <path fill="none" stroke="rgb(0,0,0)" stroke-width="34" stroke-linejoin="round" stroke-linecap="round" d="M 12958,15468 L 8683,15468 8683,15468 "/>
         <path fill="none" stroke="rgb(0,0,0)" stroke-width="34" stroke-linejoin="round" stroke-linecap="round" d="M 3484,13529 L 3569,13538 3645,13538 3645,13538 "/>
         <path fill="none" stroke="rgb(0,0,0)" stroke-width="34" stroke-linejoin="round" stroke-linecap="round" d="M 3637,13538 L 3704,13546 3772,13546 3823,13555 3874,13555 3924,13555 3967,13563 4009,13563 4051,13572 4094,13572 4136,13580 4170,13580 4212,13580 4246,13588 4289,13588 4331,13597 4365,13597 4407,13605 4449,13605 4492,13614 4534,13614 4576,13622 4619,13622 4653,13631 4695,13631 4746,13639 4788,13639 4830,13648 4873,13648 4915,13656 4957,13665 5000,13665 5042,13673 5084,13673 5135,13682 5177,13690 5220,13690 5262,13699 5304,13699 5355,13707 5398,13715 5440,13715 5482,13724 5533,13732 5575,13732 5618,13741 5660,13741 5702,13749 5753,13758 5796,13758 5838,13766 5880,13775 5923,13775 5965,13783 6007,13792 6050,13792 6092,13800 6134,13809 6177,13809 6219,13817 6261,13826 6304,13826 6346,13834 6388,13842 6431,13842 6464,13851 6507,13859 6549,13859 6591,13868 6634,13876 6668,13876 6710,13885 6752,13893 6786,13893 6828,13902 6871,13910 6905,13910 6947,13919 6989,13927 7023,13927 7066,13936 7099,13944 7142,13944 7176,13953 7218,13961 7260,13961 7294,13970 7336,13970 7370,13978 7413,13986 7447,13986 7489,13995 7523,14003 7565,14003 7599,14012 7641,14012 7675,14020 7717,14029 7751,14029 7785,14037 7827,14037 7861,14046 7904,14054 7938,14054 7980,14063 8014,14063 8056,14071 8090,14080 8132,14080 8166,14088 8208,14088 8242,14097 8285,14097 8319,14105 8361,14105 8395,14113 8437,14113 8471,14122 8513,14122 8556,14130 8589,14130 8589,14130 "/>
         <path fill="none" stroke="rgb(0,0,0)" stroke-width="34" stroke-linejoin="round" stroke-linecap="round" d="M 8589,14130 L 8632,14139 8666,14139 8708,14147 8750,14147 8784,14156 8827,14156 8869,14164 8903,14164 8945,14173 8987,14173 9021,14181 9064,14181 9106,14181 9148,14190 9182,14190 9224,14198 9267,14198 9309,14198 9351,14207 9385,14207 9428,14215 9470,14215 9512,14215 9555,14224 9597,14224 9639,14224 9682,14232 9724,14232 9766,14232 9809,14240 9851,14240 9893,14240 9936,14240 9978,14249 10020,14249 10063,14249 10105,14249 10147,14257 10198,14257 10240,14257 10283,14257 10325,14266 10367,14266 10410,14266 10452,14266 10494,14266 10537,14266 10579,14266 10621,14274 10664,14274 10706,14274 10740,14274 10782,14274 10825,14274 10858,14274 10901,14274 10943,14274 10985,14274 11019,14274 11062,14266 11104,14266 11146,14266 11189,14266 11231,14266 11273,14266 11316,14266 11358,14257 11409,14257 11451,14257 11493,14257 11536,14249 11578,14249 11620,14249 11663,14249 11714,14240 11756,14240 11798,14240 11841,14240 11883,14232 11925,14232 11968,14232 12010,14224 12052,14224 12086,14224 12128,14215 12171,14215 12213,14215 12255,14207 12298,14207 12340,14198 12374,14198 12416,14198 12459,14190 12501,14190 12535,14181 12577,14181 12620,14181 12662,14173 12696,14173 12738,14164 12780,14164 12814,14156 12857,14156 12899,14147 12933,14147 12975,14139 13017,14139 13051,14130 13094,14130 13128,14122 13170,14122 13204,14113 13246,14113 13280,14105 13322,14105 13356,14097 13398,14097 13441,14088 13475,14080 13509,14080 13517,14080 "/>
         <path fill="none" stroke="rgb(0,0,0)" stroke-width="34" stroke-linejoin="round" stroke-linecap="round" d="M 13517,14080 L 13551,14071 13593,14071 13627,14063 13669,14063 13703,14054 13737,14054 13779,14046 13813,14037 13856,14037 13889,14029 13932,14029 13966,14020 14008,14012 14042,14012 14084,14003 14118,14003 14160,13995 14194,13986 14237,13986 14270,13978 14313,13970 14347,13970 14389,13961 14423,13961 14465,13953 14499,13944 14541,13944 14584,13936 14618,13927 14660,13927 14694,13919 14736,13910 14778,13910 14812,13902 14855,13893 14897,13893 14931,13885 14973,13876 15016,13876 15058,13868 15092,13859 15134,13859 15176,13851 15219,13842 15261,13842 15295,13834 15337,13826 15380,13826 15422,13817 15464,13809 15507,13809 15549,13800 15591,13792 15634,13792 15676,13783 15718,13775 15761,13775 15811,13766 15854,13758 15896,13758 15938,13749 15981,13741 16023,13741 16074,13732 16116,13732 16159,13724 16201,13715 16243,13715 16294,13707 16336,13699 16379,13699 16421,13690 16463,13690 16514,13682 16556,13673 16599,13673 16641,13665 16683,13665 16734,13656 16777,13656 16819,13648 16861,13639 16904,13639 16946,13631 16988,13631 17031,13622 17073,13622 17115,13614 17149,13614 17191,13605 17234,13605 17276,13597 17318,13597 17352,13588 17395,13588 17428,13588 17471,13580 17513,13580 17547,13572 17589,13572 17632,13563 17674,13563 17725,13555 17767,13555 17818,13555 17877,13546 17936,13546 18004,13538 18072,13538 18072,13538 "/>
         <path fill="none" stroke="rgb(0,0,0)" stroke-width="34" stroke-linejoin="round" stroke-linecap="round" d="M 18072,13538 L 18157,13529 18157,13529 "/>
         <path fill="none" stroke="rgb(0,0,0)" stroke-width="34" stroke-linejoin="round" stroke-linecap="round" d="M 18157,13529 L 18072,13529 18004,13538 17936,13538 17877,13538 17818,13538 17767,13538 17716,13538 17674,13538 17632,13538 17581,13538 17547,13538 17505,13538 17462,13538 17420,13538 17378,13538 17344,13538 17301,13538 17259,13538 17217,13538 17174,13538 17132,13529 17090,13529 17039,13529 16997,13529 16954,13529 16912,13529 16861,13529 16819,13529 16768,13521 16726,13521 16675,13521 16633,13521 16582,13521 16540,13521 16489,13512 16438,13512 16387,13512 16345,13512 16294,13512 16243,13512 16192,13504 16142,13504 16091,13504 16040,13504 15989,13495 15938,13495 15888,13495 15837,13495 15786,13487 15735,13487 15684,13487 15634,13487 15583,13478 15532,13478 15473,13478 15422,13470 15371,13470 15320,13470 15270,13461 15210,13461 15159,13461 15109,13453 15049,13453 14999,13453 14948,13445 14889,13445 14838,13445 14778,13436 14719,13436 14668,13436 14609,13428 14550,13428 14491,13428 14431,13419 14372,13419 14313,13419 14254,13411 14186,13411 14127,13411 14059,13402 14000,13402 13932,13402 13864,13394 13796,13394 13729,13394 13652,13385 13585,13385 13509,13385 13441,13377 13365,13377 13288,13377 13212,13368 13128,13368 13128,13368 "/>
         <path fill="none" stroke="rgb(0,0,0)" stroke-width="34" stroke-linejoin="round" stroke-linecap="round" d="M 13128,13368 L 13051,13368 12967,13360 12882,13360 12797,13360 12713,13360 12628,13351 12535,13351 12442,13351 12349,13351 12255,13351 12162,13343 12061,13343 11968,13343 11866,13343 11764,13343 11671,13343 11578,13334 11485,13334 11400,13334 11316,13334 11239,13334 11163,13334 11087,13334 11019,13334 10952,13334 10884,13334 10825,13334 10757,13334 10689,13334 10621,13334 10554,13334 10486,13334 10410,13334 10325,13334 10249,13334 10156,13334 10071,13334 9970,13343 9876,13343 9775,13343 9682,13343 9580,13343 9478,13343 9385,13351 9292,13351 9199,13351 9106,13351 9013,13351 8928,13360 8843,13360 8759,13360 8674,13360 8589,13368 8513,13368 8437,13368 8352,13377 8276,13377 8208,13377 8132,13385 8056,13385 7988,13385 7921,13385 7844,13394 7777,13394 7717,13402 7650,13402 7582,13402 7514,13411 7455,13411 7396,13411 7328,13419 7269,13419 7209,13419 7150,13428 7091,13428 7032,13428 6981,13436 6922,13436 6862,13436 6812,13445 6752,13445 6701,13445 6642,13453 6591,13453 6541,13453 6481,13461 6431,13461 6380,13461 6320,13470 6270,13470 6219,13470 6168,13478 6117,13478 6066,13478 6007,13478 5956,13487 5906,13487 5855,13487 5804,13495 5753,13495 5702,13495 5652,13495 5601,13504 5550,13504 5499,13504 5448,13504 5398,13512 5355,13512 5304,13512 5254,13512 5203,13512 5161,13512 5110,13521 5059,13521 5017,13521 4966,13521 4915,13521 4873,13521 4822,13529 4780,13529 4780,13529 "/>
         <path fill="none" stroke="rgb(0,0,0)" stroke-width="34" stroke-linejoin="round" stroke-linecap="round" d="M 4780,13529 L 4737,13529 4686,13529 4644,13529 4602,13529 4559,13529 4517,13529 4475,13538 4432,13538 4390,13538 4348,13538 4305,13538 4263,13538 4221,13538 4178,13538 4145,13538 4102,13538 4060,13538 4018,13538 3975,13538 3924,13538 3874,13538 3823,13538 3772,13538 3713,13538 3645,13538 3569,13529 3569,13529 "/>
         <path fill="none" stroke="rgb(0,0,0)" stroke-width="34" stroke-linejoin="round" stroke-linecap="round" d="M 3569,13529 L 3484,13529 3484,13529 "/>
         <path fill="none" stroke="rgb(0,0,0)" stroke-width="34" stroke-linejoin="round" stroke-linecap="round" d="M 5897,14765 L 5990,12513 5990,12513 "/>
         <path fill="none" stroke="rgb(0,0,0)" stroke-width="34" stroke-linejoin="round" stroke-linecap="round" d="M 5990,12513 L 6177,12903 6177,12903 "/>
         <path fill="none" stroke="rgb(0,0,0)" stroke-width="34" stroke-linejoin="round" stroke-linecap="round" d="M 5990,12513 L 5779,12877 5779,12877 "/>
         <path fill="none" stroke="rgb(0,0,0)" stroke-width="34" stroke-linejoin="round" stroke-linecap="round" d="M 15752,14765 L 15651,12513 15651,12513 "/>
         <path fill="none" stroke="rgb(0,0,0)" stroke-width="34" stroke-linejoin="round" stroke-linecap="round" d="M 15651,12513 L 15871,12877 15871,12877 "/>
         <path fill="none" stroke="rgb(0,0,0)" stroke-width="34" stroke-linejoin="round" stroke-linecap="round" d="M 15651,12513 L 15473,12903 15473,12903 "/>
         <path fill="none" stroke="rgb(0,0,0)" stroke-width="34" stroke-linejoin="round" stroke-linecap="round" d="M 10478,12598 L 10478,14926 10478,14926 "/>
         <path fill="none" stroke="rgb(0,0,0)" stroke-width="34" stroke-linejoin="round" stroke-linecap="round" d="M 11350,13783 L 11350,14918 11350,14918 "/>
         <path fill="none" stroke="rgb(0,0,0)" stroke-width="34" stroke-linejoin="round" stroke-linecap="round" d="M 10478,14926 L 10672,14537 10672,14537 "/>
         <path fill="none" stroke="rgb(0,0,0)" stroke-width="34" stroke-linejoin="round" stroke-linecap="round" d="M 10478,14926 L 10274,14537 10283,14537 "/>
         <path fill="none" stroke="rgb(0,0,0)" stroke-width="34" stroke-linejoin="round" stroke-linecap="round" d="M 11350,14918 L 11155,14528 11155,14528 "/>
         <path fill="none" stroke="rgb(0,0,0)" stroke-width="34" stroke-linejoin="round" stroke-linecap="round" d="M 11350,14918 L 11544,14528 11544,14528 "/>
        </g>
       </g>
      </g>
     </g>
    </g>
   </g>
  </g>
 </g>
</svg>